<svg width="22" height="12" viewBox="0 0 22 12" fill="none" xmlns="http://www.w3.org/2000/svg">
<path fill-rule="evenodd" clip-rule="evenodd" d="M18.6824 7.63015C19.3858 8.31689 20.1282 8.96301 20.7591 9.719C21.0377 10.0549 21.3016 10.4016 21.5034 10.7915C21.7894 11.3457 21.5304 11.9556 21.0334 11.9887L17.9442 11.9873C17.1475 12.0534 16.5119 11.7327 15.9775 11.1879C15.5497 10.7523 15.1537 10.2886 14.7424 9.83828C14.5738 9.65421 14.3973 9.48101 14.1865 9.3441C13.7648 9.07037 13.3987 9.15418 13.1578 9.59401C12.9123 10.0414 12.8566 10.5367 12.8325 11.0353C12.7994 11.7627 12.5796 11.954 11.8489 11.9873C10.2873 12.0609 8.80525 11.8246 7.42849 11.0369C6.2147 10.3424 5.27345 9.36201 4.4542 8.25209C2.8591 6.09085 1.63757 3.716 0.539709 1.27462C0.292588 0.724571 0.473313 0.429308 1.08021 0.418858C2.08799 0.39928 3.09563 0.400674 4.1046 0.417464C4.51419 0.423456 4.78534 0.658384 4.9435 1.04533C5.48874 2.386 6.1559 3.66152 6.99333 4.84382C7.21635 5.15859 7.44375 5.47336 7.76758 5.69492C8.12582 5.94022 8.39858 5.85892 8.56712 5.45985C8.67406 5.20681 8.72088 4.93426 8.74498 4.66324C8.82483 3.73084 8.83535 2.80005 8.69531 1.87093C8.60934 1.29106 8.28272 0.915676 7.70411 0.805946C7.40885 0.75 7.45281 0.640131 7.59577 0.471598C7.84408 0.180934 8.07761 0 8.54315 0H12.0344C12.584 0.108477 12.7061 0.355388 12.7813 0.908431L12.7843 4.78649C12.7783 5.00058 12.8913 5.6359 13.2769 5.77761C13.5855 5.8785 13.789 5.63159 13.9742 5.43588C14.8101 4.5487 15.4066 3.50023 15.9396 2.41456C16.1762 1.93718 16.3795 1.44141 16.5766 0.946053C16.7226 0.578472 16.9518 0.397608 17.3658 0.40562L20.726 0.408616C20.8256 0.408616 20.9264 0.410079 21.0229 0.426591C21.5891 0.523084 21.7443 0.766652 21.5694 1.31955C21.2938 2.18702 20.7577 2.90992 20.2335 3.63616C19.6732 4.41152 19.0739 5.16034 18.5182 5.94029C18.0076 6.65253 18.0482 7.01154 18.6824 7.63015Z" fill="white"/>
</svg>
