<svg width="53" height="53" viewBox="0 0 53 53" fill="none" xmlns="http://www.w3.org/2000/svg">
<path d="M51.3438 18.2188H50.4949C50.0602 8.55619 42.0654 0.828125 32.2969 0.828125C31.8389 0.828125 31.4688 1.1983 31.4688 1.65625V4.96875C31.4688 5.4267 31.8389 5.79688 32.2969 5.79688C39.3235 5.79688 45.074 11.2989 45.5046 18.2188H43.2579L42.1333 17.6565C42.0928 17.379 42.0406 17.0983 41.9752 16.8167L42.8414 15.8834C43.055 15.6532 43.1205 15.3228 43.0103 15.0288C42.9002 14.7357 42.6335 14.5286 42.3213 14.4963L41.0526 14.3622C40.8092 13.9042 40.5367 13.4736 40.2369 13.072L40.6957 11.6956C40.7951 11.3983 40.7173 11.0695 40.4961 10.8484C40.275 10.6273 39.9463 10.5487 39.649 10.6489L38.2735 11.1076C38.0482 10.9387 37.8105 10.7772 37.5654 10.624L37.5182 9.3545C37.5066 9.04147 37.3195 8.76156 37.0338 8.63155C36.7489 8.50153 36.4151 8.54459 36.17 8.74169L35.1787 9.54414C34.6852 9.39342 34.1875 9.28245 33.689 9.21123L33.0397 7.91191C32.7598 7.35044 31.8381 7.35044 31.5582 7.91191L30.9089 9.21123C30.6315 9.25181 30.3508 9.30398 30.0692 9.36941L29.1359 8.50319C28.9057 8.2887 28.5736 8.22328 28.2813 8.33425C27.9881 8.44439 27.7811 8.71105 27.7488 9.02325L27.6147 10.2919C27.1567 10.5354 26.7261 10.8079 26.3244 11.1076L24.9481 10.6489C24.6533 10.5487 24.3229 10.6265 24.1009 10.8484C23.879 11.0704 23.802 11.3983 23.9013 11.6956L24.3601 13.0711C24.1912 13.2964 24.0297 13.534 23.8765 13.7792L22.607 13.8264C22.294 13.838 22.0132 14.0251 21.884 14.3108C21.754 14.5965 21.7971 14.9311 21.9942 15.1746L22.7966 16.1658C22.6459 16.6586 22.5349 17.1563 22.4637 17.6556L21.3358 18.2188H1.65625C1.1983 18.2188 0.828125 18.5889 0.828125 19.0469V25.6719C0.828125 26.1298 1.1983 26.5 1.65625 26.5H4.14062V51.3438C4.14062 51.8017 4.5108 52.1719 4.96875 52.1719H8.28125C8.7392 52.1719 9.10938 51.8017 9.10938 51.3438V50.2316L26.5 42.7221L43.8906 50.2316V51.3438C43.8906 51.8017 44.2608 52.1719 44.7188 52.1719H48.0312C48.4892 52.1719 48.8594 51.8017 48.8594 51.3438V26.5H51.3438C51.8017 26.5 52.1719 26.1298 52.1719 25.6719V19.0469C52.1719 18.5889 51.8017 18.2188 51.3438 18.2188ZM33.125 4.16298V2.50425C41.5984 2.92328 48.3965 9.7462 48.8188 18.2188H47.1625C46.7443 10.6596 40.685 4.57953 33.125 4.16298ZM24.3659 15.476L24.3212 15.4213L24.3866 15.4189C24.6748 15.4081 24.9365 15.2491 25.0781 14.9973C25.3315 14.5468 25.6147 14.1311 25.922 13.7634C26.105 13.5423 26.1605 13.2434 26.0702 12.9717L25.9948 12.7448L26.2218 12.8202C26.4917 12.9105 26.7907 12.855 27.0126 12.672C27.5227 12.2488 28.1049 11.8803 28.745 11.5764C29.0051 11.4521 29.1823 11.202 29.2121 10.9147L29.2204 10.8426L29.2717 10.8907C29.4829 11.0878 29.7835 11.1565 30.0593 11.0811C30.5553 10.942 31.0472 10.8493 31.5242 10.8054C31.8099 10.7789 32.0609 10.6075 32.1892 10.3507L32.2969 10.1338L32.4054 10.3507C32.5329 10.6066 32.7846 10.7789 33.0695 10.8054C33.7362 10.8667 34.4086 11.0174 35.0694 11.2517C35.3419 11.3478 35.6425 11.2973 35.8678 11.1151L35.9224 11.0704L35.9249 11.1366C35.9357 11.4248 36.0947 11.6865 36.3464 11.8281C36.7969 12.0815 37.2126 12.3647 37.5803 12.672C37.8022 12.8558 38.1012 12.913 38.372 12.8202L38.5989 12.7448L38.5235 12.9717C38.4333 13.2434 38.4888 13.5415 38.6718 13.7626C39.095 14.2727 39.4635 14.8549 39.7674 15.495C39.8916 15.7551 40.1417 15.9323 40.4291 15.9621L40.5011 15.9704L40.4531 16.0217C40.2568 16.2337 40.1848 16.5319 40.2626 16.8093C40.3968 17.2863 40.4854 17.7591 40.5309 18.2188H38.8647C38.4548 14.9559 35.669 12.4219 32.2969 12.4219C28.9247 12.4219 26.1389 14.9559 25.729 18.2188H24.0637C24.1283 17.5695 24.2732 16.9161 24.5017 16.2743C24.5986 16.0027 24.5473 15.7004 24.3659 15.476ZM35.4918 18.2188C35.1216 16.7935 33.8364 15.7344 32.2969 15.7344C30.7574 15.7344 29.4721 16.7935 29.102 18.2188H27.4027C27.7985 15.8727 29.839 14.0781 32.2969 14.0781C34.7547 14.0781 36.7944 15.8727 37.1911 18.2188H35.4918ZM33.7229 18.2188H30.8717C31.159 17.726 31.6874 17.3906 32.2977 17.3906C32.908 17.3906 33.4355 17.726 33.7229 18.2188ZM5.79688 50.5156V26.5H7.45312V50.5156H5.79688ZM19.875 26.5H33.125V29.8125H19.875V26.5ZM19.0469 31.4688H33.9531C34.4111 31.4688 34.7812 31.0986 34.7812 30.6406V26.5H43.8906V30.0965L26.5 37.606L9.10938 30.0965V26.5H18.2188V30.6406C18.2188 31.0986 18.5889 31.4688 19.0469 31.4688ZM43.8906 33.409L30.335 39.2622L28.5885 38.5078L43.8906 31.9002V33.409ZM43.8906 35.2127V45.1154L32.4244 40.1641L43.8906 35.2127ZM9.10938 35.2127L20.5756 40.1641L9.10938 45.1154V35.2127ZM9.10938 48.4279V46.9191L22.665 41.0659L24.4115 41.8203L9.10938 48.4279ZM9.10938 33.409V31.9002L43.8906 46.9191V48.4279L9.10938 33.409ZM47.2031 50.5156H45.5469V26.5H47.2031V50.5156ZM50.5156 24.8438H2.48438V19.875H50.5156V24.8438Z" fill="url(#paint0_linear)"/>
<path d="M14.7887 11.5855L20.5855 12.4136L20.8199 10.7739L18.0896 10.3839L19.3533 9.8787C19.7483 9.72136 19.9586 9.29073 19.8427 8.88247L18.7032 4.89587L21.9884 6.53805C22.1954 6.64156 22.4347 6.65398 22.6534 6.57117C22.8703 6.48836 23.0417 6.31942 23.1279 6.10494L23.633 4.84122L24.0231 7.57155L25.6628 7.33719L24.8346 1.54031C24.7816 1.16931 24.4852 0.879468 24.1133 0.83475C23.7432 0.787547 23.3854 1.0012 23.2455 1.34984L21.9238 4.65406L17.76 2.57216C17.4668 2.42723 17.114 2.46533 16.8606 2.67567C16.608 2.88519 16.5029 3.22472 16.5931 3.54023L18.044 8.61912L14.5982 9.99712C14.2495 10.1362 14.0384 10.4923 14.0831 10.865C14.1286 11.236 14.4177 11.5325 14.7887 11.5855Z" fill="url(#paint1_linear)"/>
<defs>
<linearGradient id="paint0_linear" x1="26.5" y1="0.828125" x2="26.5" y2="52.1719" gradientUnits="userSpaceOnUse">
<stop stop-color="#FAE199"/>
<stop offset="1" stop-color="#F0C25C"/>
</linearGradient>
<linearGradient id="paint1_linear" x1="19.87" y1="0.828247" x2="19.87" y2="12.4136" gradientUnits="userSpaceOnUse">
<stop stop-color="#FAE199"/>
<stop offset="1" stop-color="#F0C25C"/>
</linearGradient>
</defs>
</svg>
