<svg width="130" height="34" viewBox="0 0 130 34" fill="none" xmlns="http://www.w3.org/2000/svg">
<path fill-rule="evenodd" clip-rule="evenodd" d="M55.6891 0L36.2648 31.9627L35.0267 33.9999L33.8279 31.9402L27.9244 21.7976L21.7621 31.9615L20.5484 33.9634L19.3365 31.9604L0 0H3.28394L20.5509 28.5398L26.7337 18.3422L30.8743 11.3734L32.088 9.33065L33.3093 11.369L35.065 14.2992L43.8039 0H47.0965L36.2629 17.7267L35.041 19.7262L33.8368 17.7164L32.0982 14.8148L29.5794 19.054L35.0792 28.5034L52.4013 0H55.6891ZM32.5932 0L21.7597 17.7267L20.5416 19.7197L19.3355 17.7198L8.64871 0H11.9299L20.5577 14.3058L29.3005 0H32.5932Z" fill="url(#paint0_linear)"/>
<path d="M72.4868 13.5998H71.464L69.7933 7.50252L68.1227 13.5998H67.0998L64.9404 6.04053H65.9861L67.6681 12.3418L69.4069 6.04053H70.1911L71.93 12.3418L73.6006 6.04053H74.6462L72.4868 13.5998Z" fill="url(#paint1_linear)"/>
<path d="M85.8633 13.5998H84.7836L84.1127 11.9225H80.3395L79.669 13.5998H78.5894L81.6352 6.04053H82.8058L85.8633 13.5998ZM83.8282 11.0838L82.2262 7.0152L80.6123 11.0838H83.8282Z" fill="url(#paint2_linear)"/>
<path d="M93.4856 13.5998H92.5419V10.4038L89.5532 6.04053H90.6553L93.0079 9.55383L95.3606 6.04053H96.4635L93.4856 10.4038V13.5998Z" fill="url(#paint3_linear)"/>
<path d="M72.1574 29.4671H71.0777L70.4072 27.7897H66.634L65.9634 29.4671H64.8838L67.9296 21.9077H69.1002L72.1574 29.4671ZM70.1231 26.9511L68.5206 22.8824L66.9068 26.9511H70.1231Z" fill="url(#paint4_linear)"/>
<path d="M80.5228 29.614C79.4241 29.614 78.4998 29.2513 77.7497 28.526C76.9996 27.7931 76.6245 26.8487 76.6245 25.6927C76.6245 24.5367 76.9996 23.596 77.7497 22.8707C78.4998 22.1454 79.4241 21.7827 80.5228 21.7827C81.7199 21.7827 82.7011 22.2549 83.4663 23.1993L82.7162 23.664C82.4738 23.3467 82.1556 23.0935 81.7616 22.9047C81.3751 22.7158 80.9622 22.6214 80.5228 22.6214C79.6893 22.6214 78.9923 22.9123 78.4316 23.494C77.8785 24.0683 77.602 24.8011 77.602 25.6927C77.602 26.5842 77.8785 27.3209 78.4316 27.9027C78.9923 28.4844 79.6893 28.7753 80.5228 28.7753C80.9395 28.7753 81.326 28.696 81.682 28.5373C82.0457 28.3711 82.3374 28.1784 82.5572 27.9593V26.418H79.9545V25.5793H83.5003V28.3107C82.72 29.1795 81.7275 29.614 80.5228 29.614Z" fill="url(#paint5_linear)"/>
<path d="M94.2057 29.4671H89.2393V21.9077H94.2057V22.7464H90.1821V25.1831H94.1261V26.0217H90.1821V28.6283H94.2057V29.4671Z" fill="url(#paint6_linear)"/>
<path d="M106.188 29.4671H105.279L100.858 23.4377V29.4671H99.9141V21.9077H100.88L105.245 27.8123V21.9077H106.188V29.4671Z" fill="url(#paint7_linear)"/>
<path d="M115.757 29.6027C114.651 29.6027 113.723 29.24 112.973 28.5147C112.23 27.7818 111.859 26.8412 111.859 25.6927C111.859 24.5443 112.23 23.6073 112.973 22.882C113.723 22.1492 114.651 21.7827 115.757 21.7827C116.97 21.7827 117.928 22.2814 118.633 23.2787L117.837 23.7207C117.617 23.3958 117.322 23.1313 116.951 22.9273C116.58 22.7234 116.182 22.6214 115.757 22.6214C114.924 22.6214 114.227 22.9123 113.667 23.494C113.114 24.0683 112.837 24.8011 112.837 25.6927C112.837 26.5842 113.114 27.3209 113.667 27.9027C114.227 28.4769 114.924 28.764 115.757 28.764C116.182 28.764 116.58 28.6658 116.951 28.4693C117.322 28.2653 117.617 27.9971 117.837 27.6647L118.644 28.1067C117.909 29.104 116.947 29.6027 115.757 29.6027Z" fill="url(#paint8_linear)"/>
<path d="M127.022 29.4671H126.079V26.2711L123.09 21.9077H124.193L126.545 25.4211L128.897 21.9077H130L127.022 26.2711V29.4671Z" fill="url(#paint9_linear)"/>
<defs>
<linearGradient id="paint0_linear" x1="49.8881" y1="-5.40908" x2="22.0831" y2="42.5228" gradientUnits="userSpaceOnUse">
<stop stop-color="#6ED5FF"/>
<stop offset="1" stop-color="#0392CC"/>
</linearGradient>
<linearGradient id="paint1_linear" x1="71.6665" y1="2.29024" x2="85.3283" y2="42.007" gradientUnits="userSpaceOnUse">
<stop stop-color="#6ED5FF"/>
<stop offset="1" stop-color="#0392CC"/>
</linearGradient>
<linearGradient id="paint2_linear" x1="71.6666" y1="2.29024" x2="85.3284" y2="42.007" gradientUnits="userSpaceOnUse">
<stop stop-color="#6ED5FF"/>
<stop offset="1" stop-color="#0392CC"/>
</linearGradient>
<linearGradient id="paint3_linear" x1="71.6664" y1="2.29024" x2="85.3281" y2="42.007" gradientUnits="userSpaceOnUse">
<stop stop-color="#6ED5FF"/>
<stop offset="1" stop-color="#0392CC"/>
</linearGradient>
<linearGradient id="paint4_linear" x1="71.6667" y1="2.29079" x2="85.3284" y2="42.0075" gradientUnits="userSpaceOnUse">
<stop stop-color="#6ED5FF"/>
<stop offset="1" stop-color="#0392CC"/>
</linearGradient>
<linearGradient id="paint5_linear" x1="71.6662" y1="2.29044" x2="85.328" y2="42.0072" gradientUnits="userSpaceOnUse">
<stop stop-color="#6ED5FF"/>
<stop offset="1" stop-color="#0392CC"/>
</linearGradient>
<linearGradient id="paint6_linear" x1="71.6667" y1="2.29079" x2="85.3285" y2="42.0075" gradientUnits="userSpaceOnUse">
<stop stop-color="#6ED5FF"/>
<stop offset="1" stop-color="#0392CC"/>
</linearGradient>
<linearGradient id="paint7_linear" x1="71.6664" y1="2.29079" x2="85.3281" y2="42.0075" gradientUnits="userSpaceOnUse">
<stop stop-color="#6ED5FF"/>
<stop offset="1" stop-color="#0392CC"/>
</linearGradient>
<linearGradient id="paint8_linear" x1="71.6665" y1="2.29044" x2="85.3282" y2="42.0072" gradientUnits="userSpaceOnUse">
<stop stop-color="#6ED5FF"/>
<stop offset="1" stop-color="#0392CC"/>
</linearGradient>
<linearGradient id="paint9_linear" x1="71.6667" y1="2.29079" x2="85.3284" y2="42.0075" gradientUnits="userSpaceOnUse">
<stop stop-color="#6ED5FF"/>
<stop offset="1" stop-color="#0392CC"/>
</linearGradient>
</defs>
</svg>
