<svg width="18" height="18" viewBox="0 0 18 18" fill="none" xmlns="http://www.w3.org/2000/svg">
<g opacity="0.4">
<path d="M14.5662 16.2391V1.76087C14.5662 0.790031 13.7764 0 12.8053 0H5.19447C4.22363 0 3.43359 0.790031 3.43359 1.76087V16.2391C3.43359 17.2101 4.22363 18 5.19447 18H12.8249C13.2954 18 13.7531 17.8065 14.0804 17.4692C14.4075 17.1319 14.5799 16.6887 14.5662 16.2391ZM13.2377 16.6516C13.1287 16.7643 12.9822 16.8261 12.8249 16.8261H5.19447C4.87085 16.8261 4.6075 16.5627 4.6075 16.2391V1.76087C4.6075 1.43726 4.87085 1.1739 5.19447 1.1739H12.8053C13.1289 1.1739 13.3923 1.43726 13.3923 1.76087L13.3925 16.2567C13.397 16.4039 13.342 16.5441 13.2377 16.6516Z" fill="white"/>
<path d="M13.9988 2.28914H4.02051V3.46305H13.9988V2.28914Z" fill="white"/>
<path d="M13.9988 13.6174H4.02051V14.7913H13.9988V13.6174Z" fill="white"/>
<path d="M9.49882 15.2022H8.52056C8.19635 15.2022 7.93359 15.4649 7.93359 15.7891C7.93359 16.1133 8.19635 16.3761 8.52056 16.3761H9.49882C9.82303 16.3761 10.0858 16.1133 10.0858 15.7891C10.0858 15.4649 9.823 15.2022 9.49882 15.2022Z" fill="white"/>
</g>
</svg>
