<svg width="54" height="54" viewBox="0 0 54 54" fill="none" xmlns="http://www.w3.org/2000/svg">
<g clip-path="url(#clip0)">
<path d="M53.5963 48.067C52.1456 42.4536 47.0766 38.5332 41.2696 38.5332C40.8139 38.5332 40.3607 38.557 39.9121 38.6048L42.8866 32.5214L42.8912 32.5239C43.0403 32.5968 43.1977 32.631 43.3534 32.631C43.7436 32.631 44.1189 32.4135 44.3018 32.039C44.5573 31.5158 44.3401 30.8842 43.8169 30.6288L39.8462 28.6887L40.9841 26.3614C41.1073 26.1101 41.125 25.82 41.0343 25.5556C40.9433 25.2911 40.7513 25.0731 40.4996 24.9503L40.247 24.8272L47.5058 9.97873C47.6818 9.97667 47.8589 9.9676 48.0365 9.9503C49.7116 9.78798 51.2117 8.74812 51.9508 7.23654L52.0789 6.9741C52.1436 6.98646 52.2087 6.99223 52.2729 6.99223C52.6635 6.99223 53.0388 6.7747 53.2213 6.40021C53.4772 5.87698 53.2601 5.2454 52.7368 4.98956L43.3897 0.423506C42.866 0.168073 42.2345 0.385191 41.979 0.908415C41.766 1.3443 41.881 1.85516 42.2279 2.16168L42.1002 2.42329C41.3606 3.93529 41.4612 5.75709 42.3626 7.17845C42.4574 7.32759 42.5575 7.47137 42.6629 7.61021L35.4029 22.4607L35.1499 22.3367C34.6267 22.0813 33.9951 22.298 33.7393 22.8212L32.601 25.1493L28.629 23.2093C28.1054 22.9539 27.4742 23.171 27.2184 23.6942C26.9629 24.2174 27.1796 24.849 27.7033 25.1048L27.7066 25.1065L23.6073 33.4896C21.4476 33.7846 19.3749 34.5365 17.5222 35.7065C15.3568 37.0743 13.5717 38.9567 12.3242 41.1806C12.0222 41.1563 11.7215 41.1443 11.4236 41.1443C6.92633 41.1443 2.83241 43.7959 0.993301 47.8993C0.334122 49.3705 0 50.9397 0 52.563C0 52.8427 0.111237 53.1109 0.308991 53.3087C0.506744 53.5064 0.774948 53.6177 1.05469 53.6177H52.8707C53.408 53.6177 53.8595 53.2139 53.9188 52.68C53.9728 52.1967 54 51.7184 54 51.2574C54 50.1772 53.864 49.1039 53.5963 48.067ZM50.0556 6.30957C49.6358 7.16774 48.7842 7.75811 47.833 7.8504C46.3539 7.99418 44.94 7.30328 44.144 6.04878C43.6323 5.24211 43.5751 4.20802 43.9949 3.34985L44.1065 3.12161L50.1669 6.08215L50.0556 6.30957ZM44.2895 9.08636C44.6228 9.29194 44.9754 9.46457 45.3421 9.60135L38.3519 23.901L37.2984 23.3864L44.2895 9.08636ZM35.1714 24.6949L38.6259 26.3824L37.9506 27.763L34.4965 26.0755L35.1714 24.6949ZM40.9915 31.5957L37.4476 38.8426C34.6189 35.468 30.4384 33.4476 26.0232 33.3516L29.6025 26.0322L40.9915 31.5957ZM51.8873 51.5083H2.16788C2.24945 50.7815 2.41589 50.0717 2.66556 49.3853H10.8641C11.4462 49.3853 11.9188 48.9132 11.9188 48.3306C11.9188 47.7481 11.4462 47.2759 10.8641 47.2759H3.75568C5.72168 44.434 9.17372 42.8322 12.7695 43.3522C13.2198 43.4169 13.6607 43.1861 13.8638 42.7791C16.1182 38.2633 20.6509 35.4577 25.6936 35.4577C29.9107 35.4577 33.9107 37.4995 36.3937 40.919C36.671 41.3005 37.1674 41.4517 37.6103 41.2893C37.8435 41.2041 38.0783 41.127 38.3161 41.0582C38.3239 41.0562 38.3321 41.0537 38.34 41.0516C39.2879 40.7801 40.2701 40.6425 41.2696 40.6425C45.6457 40.6425 49.5192 43.3101 51.1198 47.2763H24.5363C23.9538 47.2763 23.4816 47.7485 23.4816 48.331C23.4816 48.9132 23.9538 49.3857 24.5363 49.3857H51.7258C51.8354 50.0008 51.8906 50.6275 51.8906 51.2574C51.8906 51.3402 51.8894 51.4238 51.8873 51.5083Z" fill="url(#paint0_linear)"/>
<path d="M33.8779 43.7984C33.5512 43.7984 33.2298 43.6476 33.0234 43.3634C31.3211 41.0191 28.581 39.6196 25.6934 39.6196C25.1108 39.6196 24.6387 39.1475 24.6387 38.5649C24.6387 37.9824 25.1108 37.5103 25.6934 37.5103C29.2546 37.5103 32.6325 39.2348 34.7303 42.1237C35.0727 42.5954 34.968 43.2546 34.4967 43.597C34.3092 43.7329 34.0925 43.7984 33.8779 43.7984Z" fill="url(#paint1_linear)"/>
<path d="M20.9619 49.3857C20.8935 49.3857 20.8239 49.3783 20.7563 49.3643C20.6888 49.3507 20.6224 49.3305 20.559 49.3041C20.4947 49.2777 20.4333 49.2452 20.3765 49.2073C20.3184 49.1694 20.2648 49.1249 20.2162 49.0767C20.0201 48.8802 19.9072 48.6083 19.9072 48.331C19.9072 48.2622 19.9146 48.1926 19.9282 48.1242C19.9418 48.0574 19.962 47.9911 19.9884 47.9268C20.0148 47.8634 20.0473 47.8024 20.0856 47.7455C20.1235 47.6875 20.1676 47.6335 20.2162 47.5849C20.2648 47.5367 20.3184 47.4922 20.3765 47.453C20.4333 47.4151 20.4947 47.3826 20.559 47.3562C20.6224 47.3307 20.6888 47.3097 20.7563 47.2961C21.0991 47.2277 21.4629 47.3406 21.7076 47.5849C21.7562 47.6335 21.8003 47.6875 21.8382 47.7455C21.8765 47.8024 21.9091 47.8634 21.9354 47.9268C21.9618 47.9911 21.9828 48.0574 21.9964 48.1242C22.0104 48.1926 22.0166 48.2622 22.0166 48.331C22.0166 48.6083 21.9037 48.8802 21.7076 49.0767C21.5115 49.2728 21.2392 49.3857 20.9619 49.3857Z" fill="url(#paint2_linear)"/>
</g>
<defs>
<linearGradient id="paint0_linear" x1="27" y1="0.316406" x2="27" y2="53.6177" gradientUnits="userSpaceOnUse">
<stop stop-color="#FAE199"/>
<stop offset="1" stop-color="#F0C25C"/>
</linearGradient>
<linearGradient id="paint1_linear" x1="29.7852" y1="37.5103" x2="29.7852" y2="43.7984" gradientUnits="userSpaceOnUse">
<stop stop-color="#FAE199"/>
<stop offset="1" stop-color="#F0C25C"/>
</linearGradient>
<linearGradient id="paint2_linear" x1="20.9619" y1="47.2764" x2="20.9619" y2="49.3857" gradientUnits="userSpaceOnUse">
<stop stop-color="#FAE199"/>
<stop offset="1" stop-color="#F0C25C"/>
</linearGradient>
<clipPath id="clip0">
<rect width="54" height="54" fill="white"/>
</clipPath>
</defs>
</svg>
