<svg width="54" height="54" viewBox="0 0 54 54" fill="none" xmlns="http://www.w3.org/2000/svg">
<path d="M52.0653 28.9347L41.591 18.4604C41.3565 18.2244 41.0775 18.0373 40.7701 17.91C40.4628 17.7827 40.1332 17.7177 39.8005 17.7188H25.3125V19.4063H29.5312V32.0625H31.2188V19.4063H39.8005C39.9115 19.4062 40.0213 19.428 40.1238 19.4704C40.2263 19.5128 40.3195 19.575 40.3979 19.6535L41.8382 21.0938H37.9688C37.5212 21.0938 37.092 21.2716 36.7755 21.588C36.459 21.9045 36.2812 22.3337 36.2812 22.7813V30.375C36.2812 30.8226 36.459 31.2518 36.7755 31.5683C37.092 31.8847 37.5212 32.0625 37.9688 32.0625H50.625V38.8125C50.625 39.0363 50.5361 39.2509 50.3779 39.4091C50.2196 39.5674 50.005 39.6563 49.7812 39.6563H48.0262C47.8245 38.2515 47.1231 36.9666 46.0507 36.0372C44.9782 35.1078 43.6066 34.5961 42.1875 34.5961C40.7684 34.5961 39.3968 35.1078 38.3243 36.0372C37.2519 36.9666 36.5505 38.2515 36.3488 39.6563H24.4013C24.1995 38.2515 23.4981 36.9666 22.4257 36.0372C21.3532 35.1078 19.9816 34.5961 18.5625 34.5961C17.1434 34.5961 15.7718 35.1078 14.6993 36.0372C13.6269 36.9666 12.9255 38.2515 12.7238 39.6563H10.9688C10.745 39.6563 10.5304 39.5674 10.3721 39.4091C10.2139 39.2509 10.125 39.0363 10.125 38.8125V31.2188H8.4375V38.8125C8.4375 39.4838 8.70418 40.1277 9.17889 40.6024C9.65359 41.0771 10.2974 41.3438 10.9688 41.3438H12.7238C12.9079 42.6267 13.5103 43.8131 14.4374 44.7188H1.6875V46.4063H42.1875C43.6063 46.4036 44.9767 45.8907 46.0487 44.9612C47.1206 44.0318 47.8225 42.7478 48.0262 41.3438H49.7812C50.4526 41.3438 51.0964 41.0771 51.5711 40.6024C52.0458 40.1277 52.3125 39.4838 52.3125 38.8125V29.5313C52.3125 29.3075 52.2235 29.0929 52.0653 28.9347ZM14.3438 40.5C14.3438 39.6656 14.5912 38.85 15.0547 38.1562C15.5183 37.4624 16.1772 36.9217 16.9481 36.6024C17.7189 36.2831 18.5672 36.1995 19.3855 36.3623C20.2039 36.5251 20.9556 36.9269 21.5456 37.5169C22.1356 38.1069 22.5374 38.8586 22.7002 39.677C22.863 40.4953 22.7794 41.3436 22.4601 42.1145C22.1408 42.8853 21.6001 43.5442 20.9063 44.0078C20.2125 44.4713 19.3969 44.7188 18.5625 44.7188C17.444 44.7174 16.3718 44.2725 15.5809 43.4816C14.79 42.6908 14.3451 41.6185 14.3438 40.5ZM22.6876 44.7188C23.6147 43.8131 24.2171 42.6267 24.4013 41.3438H36.3488C36.5329 42.6267 37.1353 43.8131 38.0624 44.7188H22.6876ZM42.1875 44.7188C41.3531 44.7188 40.5375 44.4713 39.8437 44.0078C39.1499 43.5442 38.6092 42.8853 38.2899 42.1145C37.9706 41.3436 37.887 40.4953 38.0498 39.677C38.2126 38.8586 38.6144 38.1069 39.2044 37.5169C39.7944 36.9269 40.5461 36.5251 41.3645 36.3623C42.1828 36.1995 43.0311 36.2831 43.8019 36.6024C44.5728 36.9217 45.2317 37.4624 45.6953 38.1562C46.1588 38.85 46.4062 39.6656 46.4062 40.5C46.4049 41.6185 45.96 42.6908 45.1691 43.4816C44.3782 44.2725 43.306 44.7174 42.1875 44.7188ZM37.9688 30.375V22.7813H43.5257L50.625 29.8806V30.375H37.9688Z" fill="url(#paint0_linear)"/>
<path d="M19.4062 39.6562H17.7188V41.3438H19.4062V39.6562Z" fill="url(#paint1_linear)"/>
<path d="M43.0312 39.6562H41.3438V41.3438H43.0312V39.6562Z" fill="url(#paint2_linear)"/>
<path d="M5.90625 37.125H1.6875V38.8125H5.90625V37.125Z" fill="url(#paint3_linear)"/>
<path d="M5.90625 33.75H3.375V35.4375H5.90625V33.75Z" fill="url(#paint4_linear)"/>
<path d="M5.90625 30.375H4.21875V32.0625H5.90625V30.375Z" fill="url(#paint5_linear)"/>
<path d="M12.6563 29.5312C14.8257 29.5312 16.9464 28.8879 18.7502 27.6827C20.554 26.4774 21.9599 24.7643 22.7901 22.7601C23.6203 20.7558 23.8375 18.5503 23.4142 16.4226C22.991 14.2949 21.9463 12.3404 20.4123 10.8064C18.8783 9.27242 16.9239 8.22775 14.7961 7.80452C12.6684 7.38128 10.463 7.5985 8.45869 8.4287C6.45441 9.2589 4.74133 10.6648 3.53607 12.4686C2.33081 14.2724 1.6875 16.3931 1.6875 18.5625C1.69085 21.4706 2.84756 24.2586 4.90387 26.3149C6.96019 28.3712 9.74819 29.5279 12.6563 29.5312ZM12.6563 9.28125C14.4919 9.28125 16.2863 9.82559 17.8126 10.8454C19.3389 11.8653 20.5285 13.3148 21.231 15.0107C21.9335 16.7066 22.1173 18.5728 21.7592 20.3732C21.401 22.1736 20.5171 23.8273 19.2191 25.1253C17.9211 26.4233 16.2673 27.3073 14.4669 27.6654C12.6665 28.0235 10.8004 27.8397 9.10447 27.1373C7.40854 26.4348 5.95901 25.2452 4.93917 23.7189C3.91934 22.1926 3.375 20.3982 3.375 18.5625C3.3779 16.1019 4.35668 13.7428 6.09662 12.0029C7.83657 10.2629 10.1956 9.28416 12.6563 9.28125Z" fill="url(#paint6_linear)"/>
<path d="M12.6562 26.1562C12.88 26.1562 13.0946 26.0673 13.2528 25.909C13.7962 25.3657 18.5625 20.4947 18.5625 16.875C18.5625 15.3086 17.9402 13.8063 16.8326 12.6987C15.725 11.591 14.2227 10.9688 12.6562 10.9688C11.0898 10.9688 9.58754 11.591 8.4799 12.6987C7.37226 13.8063 6.75 15.3086 6.75 16.875C6.75 20.4947 11.5163 25.3657 12.0597 25.909C12.2179 26.0673 12.4325 26.1562 12.6562 26.1562ZM12.6562 12.6562C13.7747 12.6576 14.847 13.1025 15.6379 13.8934C16.4288 14.6843 16.8737 15.7565 16.875 16.875C16.875 19.0401 14.2197 22.3855 12.6562 24.0899C11.0928 22.3855 8.4375 19.0401 8.4375 16.875C8.43884 15.7565 8.88374 14.6843 9.67462 13.8934C10.4655 13.1025 11.5378 12.6576 12.6562 12.6562Z" fill="url(#paint7_linear)"/>
<path d="M15.1875 16.875C15.1875 16.3744 15.039 15.885 14.7609 15.4687C14.4828 15.0525 14.0874 14.728 13.6249 14.5364C13.1624 14.3448 12.6534 14.2947 12.1624 14.3924C11.6714 14.4901 11.2204 14.7311 10.8664 15.0851C10.5124 15.4391 10.2713 15.8902 10.1736 16.3812C10.076 16.8722 10.1261 17.3811 10.3177 17.8437C10.5093 18.3062 10.8337 18.7015 11.25 18.9797C11.6662 19.2578 12.1556 19.4062 12.6563 19.4062C13.3276 19.4062 13.9714 19.1396 14.4461 18.6649C14.9208 18.1902 15.1875 17.5463 15.1875 16.875ZM11.8125 16.875C11.8125 16.7081 11.862 16.545 11.9547 16.4062C12.0474 16.2675 12.1792 16.1593 12.3334 16.0955C12.4875 16.0316 12.6572 16.0149 12.8209 16.0475C12.9845 16.08 13.1349 16.1604 13.2529 16.2784C13.3709 16.3964 13.4512 16.5467 13.4838 16.7104C13.5163 16.8741 13.4996 17.0437 13.4358 17.1979C13.3719 17.3521 13.2638 17.4838 13.125 17.5766C12.9863 17.6693 12.8231 17.7188 12.6563 17.7188C12.4325 17.7188 12.2179 17.6299 12.0596 17.4716C11.9014 17.3134 11.8125 17.0988 11.8125 16.875Z" fill="url(#paint8_linear)"/>
<path d="M37.125 33.75H33.75V35.4375H37.125V33.75Z" fill="url(#paint9_linear)"/>
<defs>
<linearGradient id="paint0_linear" x1="27" y1="17.7188" x2="27" y2="46.4063" gradientUnits="userSpaceOnUse">
<stop stop-color="#FAE199"/>
<stop offset="1" stop-color="#F0C25C"/>
</linearGradient>
<linearGradient id="paint1_linear" x1="18.5625" y1="39.6562" x2="18.5625" y2="41.3438" gradientUnits="userSpaceOnUse">
<stop stop-color="#FAE199"/>
<stop offset="1" stop-color="#F0C25C"/>
</linearGradient>
<linearGradient id="paint2_linear" x1="42.1875" y1="39.6562" x2="42.1875" y2="41.3438" gradientUnits="userSpaceOnUse">
<stop stop-color="#FAE199"/>
<stop offset="1" stop-color="#F0C25C"/>
</linearGradient>
<linearGradient id="paint3_linear" x1="3.79688" y1="37.125" x2="3.79688" y2="38.8125" gradientUnits="userSpaceOnUse">
<stop stop-color="#FAE199"/>
<stop offset="1" stop-color="#F0C25C"/>
</linearGradient>
<linearGradient id="paint4_linear" x1="4.64062" y1="33.75" x2="4.64062" y2="35.4375" gradientUnits="userSpaceOnUse">
<stop stop-color="#FAE199"/>
<stop offset="1" stop-color="#F0C25C"/>
</linearGradient>
<linearGradient id="paint5_linear" x1="5.0625" y1="30.375" x2="5.0625" y2="32.0625" gradientUnits="userSpaceOnUse">
<stop stop-color="#FAE199"/>
<stop offset="1" stop-color="#F0C25C"/>
</linearGradient>
<linearGradient id="paint6_linear" x1="12.6563" y1="7.59375" x2="12.6563" y2="29.5312" gradientUnits="userSpaceOnUse">
<stop stop-color="#FAE199"/>
<stop offset="1" stop-color="#F0C25C"/>
</linearGradient>
<linearGradient id="paint7_linear" x1="12.6562" y1="10.9687" x2="12.6563" y2="26.1562" gradientUnits="userSpaceOnUse">
<stop stop-color="#FAE199"/>
<stop offset="1" stop-color="#F0C25C"/>
</linearGradient>
<linearGradient id="paint8_linear" x1="12.6562" y1="14.3438" x2="12.6562" y2="19.4062" gradientUnits="userSpaceOnUse">
<stop stop-color="#FAE199"/>
<stop offset="1" stop-color="#F0C25C"/>
</linearGradient>
<linearGradient id="paint9_linear" x1="35.4375" y1="33.75" x2="35.4375" y2="35.4375" gradientUnits="userSpaceOnUse">
<stop stop-color="#FAE199"/>
<stop offset="1" stop-color="#F0C25C"/>
</linearGradient>
</defs>
</svg>
