<svg width="54" height="54" viewBox="0 0 54 54" fill="none" xmlns="http://www.w3.org/2000/svg">
<g clip-path="url(#clip0)">
<path d="M31.3694 45.563H29.6258C29.1869 45.563 28.8311 45.9188 28.8311 46.3578C28.8311 46.7967 29.1869 47.1526 29.6258 47.1526H31.3694C31.8083 47.1526 32.1642 46.7967 32.1642 46.3578C32.1642 45.9188 31.8083 45.563 31.3694 45.563Z" fill="url(#paint0_linear)"/>
<path d="M41.6203 45.563H34.4667C34.0277 45.563 33.6719 45.9188 33.6719 46.3578C33.6719 46.7967 34.0277 47.1526 34.4667 47.1526H41.6203C42.0592 47.1526 42.4151 46.7967 42.4151 46.3578C42.4151 45.9188 42.0592 45.563 41.6203 45.563Z" fill="url(#paint1_linear)"/>
<path d="M10.0735 45.563H8.32995C7.89101 45.563 7.53516 45.9188 7.53516 46.3578C7.53516 46.7967 7.89101 47.1526 8.32995 47.1526H10.0734C10.5123 47.1526 10.8682 46.7967 10.8682 46.3578C10.8682 45.9188 10.5124 45.563 10.0735 45.563Z" fill="url(#paint2_linear)"/>
<path d="M15.7884 45.563H14.0448C13.6059 45.563 13.25 45.9188 13.25 46.3578C13.25 46.7967 13.6059 47.1526 14.0448 47.1526H15.7884C16.2273 47.1526 16.5831 46.7967 16.5831 46.3578C16.5831 45.9188 16.2273 45.563 15.7884 45.563Z" fill="url(#paint3_linear)"/>
<path d="M52.0526 22.1477H49.6039V15.0479C50.7097 15.5761 51.8967 15.9141 53.1244 16.0396C53.1519 16.0425 53.1793 16.0438 53.2062 16.0438C53.6088 16.0438 53.9541 15.739 53.9959 15.3298C54.0406 14.8931 53.7228 14.5029 53.2862 14.4582C50.9008 14.2142 48.6896 13.0247 47.0599 11.1091C45.4076 9.16681 44.4976 6.6434 44.4976 4.00353C44.4976 3.56459 44.1418 3.20874 43.7028 3.20874H39.5682C39.5133 3.20874 39.4598 3.21425 39.408 3.22485C39.3821 3.23015 39.3567 3.23672 39.3318 3.24445C39.0083 3.34513 38.7733 3.64683 38.7733 4.00353V4.00364C38.7733 9.79438 34.0621 14.5055 28.2714 14.5055H26.5447C20.7539 14.5055 16.0427 9.79438 16.0427 4.00364C16.0427 3.5647 15.6869 3.20885 15.2479 3.20885H11.0074C10.9525 3.20885 10.899 3.21436 10.8472 3.22495C10.8214 3.23025 10.7959 3.23682 10.771 3.24456C10.4475 3.34523 10.2126 3.64693 10.2126 4.00364V4.00374C10.2126 6.63312 9.23625 9.14901 7.46344 11.088C5.70176 13.0148 3.30669 14.2115 0.719482 14.4578C0.282453 14.4994 -0.0380065 14.8874 0.00364059 15.3243C0.0428503 15.7357 0.388955 16.0438 0.793875 16.0438C0.819096 16.0438 0.844529 16.0426 0.870175 16.0402C2.35877 15.8985 3.79183 15.4837 5.1063 14.8276V22.1475H1.95257C0.878652 22.1475 0.00501822 23.0212 0.00501822 24.0951V25.1847C0.00501822 26.2586 0.878652 27.1323 1.95257 27.1323H10.2127V38.2476H3.72634C1.72251 38.2476 0.0923393 39.8777 0.0923393 41.8816V49.9963C0.0923393 50.4352 0.448194 50.7911 0.88713 50.7911H53.1689C53.6078 50.7911 53.9637 50.4352 53.9637 49.9963V41.8816C53.9637 39.8777 52.3335 38.2476 50.3297 38.2476H44.4976V27.1324H52.0526C53.1265 27.1324 54.0001 26.2587 54.0001 25.1848V24.0952C54.0001 23.0213 53.1264 22.1477 52.0526 22.1477ZM40.363 4.79843H42.908V42.1584H40.363V4.79843ZM35.3376 13.8093C36.7369 12.7982 37.9122 11.4958 38.7734 9.99117V22.1477H35.3376V13.8093ZM27.7282 16.0951H28.2716C30.2416 16.0951 32.103 15.6213 33.7481 14.782V22.1477H27.7283V16.0951H27.7282ZM21.2366 14.8657C22.7254 15.5962 24.3853 16.0292 26.1386 16.0875V22.1477H21.2366V14.8657ZM16.0429 9.99117C16.9384 11.5557 18.1737 12.9016 19.6471 13.9287V22.1477H16.0429V9.99117ZM11.8024 4.79843H14.4534V42.1584H11.8024V4.79843ZM6.6961 13.8744C7.39615 13.378 8.04745 12.805 8.63677 12.1605C9.24579 11.4944 9.77247 10.7688 10.2128 9.99859V22.1477H6.6961V13.8744ZM1.95257 25.5428C1.75515 25.5428 1.5946 25.3822 1.5946 25.1848V24.0952C1.5946 23.8978 1.75515 23.7372 1.95257 23.7372H10.2127V25.5428H1.95257ZM50.3297 39.8373C51.457 39.8373 52.3741 40.7543 52.3741 41.8817V49.2016H1.68192V41.8817C1.68192 40.7543 2.599 39.8373 3.72634 39.8373H10.2128V42.1583H8.62405C8.18511 42.1583 7.82926 42.5141 7.82926 42.9531C7.82926 43.392 8.18511 43.7478 8.62405 43.7478H11.0075H15.248H17.6315C18.0704 43.7478 18.4263 43.392 18.4263 42.9531C18.4263 42.5141 18.0704 42.1583 17.6315 42.1583H16.0428V39.8373H26.4752C26.9141 39.8373 27.2699 39.4814 27.2699 39.0425C27.2699 38.6035 26.9141 38.2477 26.4752 38.2477H16.0428V27.1324H21.6058C22.0448 27.1324 22.4006 26.7765 22.4006 26.3376C22.4006 25.8986 22.0448 25.5428 21.6058 25.5428H16.0428V23.7372H38.7733V25.5428H24.785C24.3461 25.5428 23.9902 25.8986 23.9902 26.3376C23.9902 26.7765 24.3461 27.1324 24.785 27.1324H38.7733V38.2477H29.6543C29.2154 38.2477 28.8595 38.6035 28.8595 39.0425C28.8595 39.4814 29.2154 39.8373 29.6543 39.8373H38.7733V42.1583H37.5442C37.1052 42.1583 36.7494 42.5141 36.7494 42.9531C36.7494 43.392 37.1052 43.7478 37.5442 43.7478H39.5681H43.7027H45.8327C46.2716 43.7478 46.6275 43.392 46.6275 42.9531C46.6275 42.5141 46.2716 42.1583 45.8327 42.1583H44.4975V39.8373H50.3297ZM44.4976 10.1884C44.883 10.8801 45.3345 11.5341 45.8492 12.1392C46.505 12.9101 47.2429 13.5797 48.0433 14.1382C48.0249 14.2054 48.0142 14.2757 48.0142 14.3487V22.1478H44.4975V10.1884H44.4976ZM52.4106 25.1848C52.4106 25.3822 52.25 25.5428 52.0526 25.5428H44.4976V23.7372H52.0526C52.25 23.7372 52.4106 23.8978 52.4106 24.0952V25.1848Z" fill="url(#paint4_linear)"/>
</g>
<defs>
<linearGradient id="paint0_linear" x1="30.4976" y1="45.563" x2="30.4976" y2="47.1526" gradientUnits="userSpaceOnUse">
<stop stop-color="#FAE199"/>
<stop offset="1" stop-color="#F0C25C"/>
</linearGradient>
<linearGradient id="paint1_linear" x1="38.0435" y1="45.563" x2="38.0435" y2="47.1526" gradientUnits="userSpaceOnUse">
<stop stop-color="#FAE199"/>
<stop offset="1" stop-color="#F0C25C"/>
</linearGradient>
<linearGradient id="paint2_linear" x1="9.20167" y1="45.563" x2="9.20167" y2="47.1526" gradientUnits="userSpaceOnUse">
<stop stop-color="#FAE199"/>
<stop offset="1" stop-color="#F0C25C"/>
</linearGradient>
<linearGradient id="paint3_linear" x1="14.9166" y1="45.563" x2="14.9166" y2="47.1526" gradientUnits="userSpaceOnUse">
<stop stop-color="#FAE199"/>
<stop offset="1" stop-color="#F0C25C"/>
</linearGradient>
<linearGradient id="paint4_linear" x1="27.0001" y1="3.20874" x2="27.0001" y2="50.7911" gradientUnits="userSpaceOnUse">
<stop stop-color="#FAE199"/>
<stop offset="1" stop-color="#F0C25C"/>
</linearGradient>
<clipPath id="clip0">
<rect width="54" height="54" fill="white"/>
</clipPath>
</defs>
</svg>
