<svg width="64" height="64" viewBox="0 0 64 64" fill="none" xmlns="http://www.w3.org/2000/svg">
<path d="M42.9042 32.5008C43.4124 32.5008 43.8242 32.0889 43.8242 31.5809V24.937C43.8242 24.5536 43.5863 24.2102 43.2273 24.0757L32.3231 19.9867C32.1147 19.9086 31.8854 19.9086 31.6769 19.9867L20.7727 24.0757C20.4137 24.2104 20.1758 24.5536 20.1758 24.937V27.8908C20.1758 28.3988 20.5876 28.8107 21.0958 28.8107C21.604 28.8107 22.0158 28.3988 22.0158 27.8908V26.2646L31.08 29.6636V41.8244L22.0158 38.4254V32.1943C22.0158 31.6862 21.604 31.2743 21.0958 31.2743C20.5876 31.2743 20.1758 31.6862 20.1758 32.1943V39.063C20.1758 39.4464 20.4137 39.7897 20.7727 39.9243L31.6769 44.0133C31.677 44.0126 31.6773 44.0116 31.6774 44.0107C31.781 44.0496 31.89 44.0718 32.0001 44.0718C32.1089 44.0718 32.2183 44.0525 32.3231 44.0132L43.2273 39.9242C43.5863 39.7895 43.8242 39.4463 43.8242 39.0628V35.8689C43.8242 35.3609 43.4124 34.9489 42.9042 34.9489C42.396 34.9489 41.9842 35.3609 41.9842 35.8689V38.4252L32.92 41.8244V29.6636L41.9842 26.2646V31.5809C41.9842 32.089 42.396 32.5008 42.9042 32.5008ZM32 28.0436L23.716 24.9372L32 21.8306L40.284 24.9372L32 28.0436Z" fill="#00A1E9"/>
<path d="M31.08 9.78072V16.3874C31.08 16.8955 31.4918 17.3074 32 17.3074C32.5082 17.3074 32.92 16.8955 32.92 16.3874V9.78072C35.0378 9.35275 36.6373 7.47747 36.6373 5.23543C36.6373 2.67838 34.557 0.598131 32 0.598131C29.443 0.598131 27.3627 2.67838 27.3627 5.23543C27.3627 7.47747 28.9622 9.35275 31.08 9.78072ZM32 2.43808C33.5424 2.43808 34.7973 3.69293 34.7973 5.23543C34.7973 6.77792 33.5424 8.03277 32 8.03277C30.4576 8.03277 29.2027 6.77792 29.2027 5.23543C29.2027 3.69293 30.4576 2.43808 32 2.43808Z" fill="#00A1E9"/>
<path d="M49.6988 43.3267C48.273 43.3267 46.9554 43.7974 45.8926 44.5915L43.6904 42.3894C43.331 42.0301 42.7486 42.0301 42.3894 42.3894C42.0301 42.7486 42.0301 43.3312 42.3894 43.6903L44.5917 45.8925C43.7975 46.9553 43.3269 48.273 43.3269 49.6986C43.3269 53.2122 46.1854 56.0706 49.6989 56.0706C53.2123 56.0706 56.0709 53.2122 56.0709 49.6986C56.0709 46.1851 53.2123 43.3267 49.6988 43.3267ZM49.6988 54.2308C47.1997 54.2308 45.1667 52.1977 45.1667 49.6987C45.1667 47.1998 47.1997 45.1667 49.6988 45.1667C52.1978 45.1667 54.2308 47.1998 54.2308 49.6987C54.2308 52.1977 52.1978 54.2308 49.6988 54.2308Z" fill="#00A1E9"/>
<path d="M14.3012 20.6732C15.727 20.6732 17.0446 20.2026 18.1074 19.4085L20.3096 21.6106C20.4893 21.7902 20.7248 21.8801 20.9602 21.8801C21.1955 21.8801 21.4311 21.7903 21.6108 21.6106C21.97 21.2514 21.97 20.6688 21.6108 20.3097L19.4086 18.1075C20.2027 17.0447 20.6734 15.727 20.6734 14.3014C20.6734 10.7878 17.8148 7.92936 14.3014 7.92936C10.7879 7.92936 7.92936 10.7878 7.92936 14.3014C7.92936 17.8149 10.7877 20.6732 14.3012 20.6732ZM14.3012 9.76919C16.8003 9.76919 18.8333 11.8023 18.8333 14.3012C18.8333 16.8001 16.8003 18.8333 14.3012 18.8333C11.8022 18.8333 9.76919 16.8001 9.76919 14.3012C9.76919 11.8023 11.8022 9.76919 14.3012 9.76919Z" fill="#00A1E9"/>
<path d="M32.92 54.2193V47.6126C32.92 47.1045 32.5082 46.6926 32 46.6926C31.4918 46.6926 31.08 47.1045 31.08 47.6126V54.2193C28.9622 54.6473 27.3627 56.5225 27.3627 58.7646C27.3627 61.3216 29.443 63.4019 32 63.4019C34.557 63.4019 36.6373 61.3216 36.6373 58.7646C36.6373 56.5225 35.0378 54.6473 32.92 54.2193ZM32 61.5619C30.4576 61.5619 29.2027 60.3071 29.2027 58.7646C29.2027 57.2221 30.4576 55.9672 32 55.9672C33.5424 55.9672 34.7973 57.2221 34.7973 58.7646C34.7973 60.3071 33.5424 61.5619 32 61.5619Z" fill="#00A1E9"/>
<path d="M58.7646 27.3627C56.5225 27.3627 54.6473 28.9622 54.2193 31.08H47.6126C47.1044 31.08 46.6926 31.4919 46.6926 32C46.6926 32.5081 47.1044 32.92 47.6126 32.92H54.2193C54.6473 35.0378 56.5225 36.6373 58.7646 36.6373C61.3216 36.6373 63.4019 34.557 63.4019 32C63.4019 29.443 61.3216 27.3627 58.7646 27.3627ZM58.7646 34.7973C57.2222 34.7973 55.9672 33.5425 55.9672 32C55.9672 30.4575 57.2221 29.2027 58.7646 29.2027C60.3071 29.2027 61.5619 30.4575 61.5619 32C61.5619 33.5425 60.3071 34.7973 58.7646 34.7973Z" fill="#00A1E9"/>
<path d="M9.78072 32.92H16.3874C16.8956 32.92 17.3074 32.5081 17.3074 32C17.3074 31.4919 16.8956 31.08 16.3874 31.08H9.78072C9.35275 28.9622 7.47747 27.3627 5.23543 27.3627C2.67838 27.3627 0.598131 29.443 0.598131 32C0.598131 34.557 2.67838 36.6373 5.23543 36.6373C7.47747 36.6373 9.35275 35.0378 9.78072 32.92ZM5.23543 34.7973C3.69293 34.7973 2.43808 33.5425 2.43808 32C2.43808 30.4575 3.69293 29.2027 5.23543 29.2027C6.77792 29.2027 8.03265 30.4575 8.03265 32C8.03265 33.5425 6.7778 34.7973 5.23543 34.7973Z" fill="#00A1E9"/>
<path d="M43.0398 21.8801C43.2752 21.8801 43.5107 21.7903 43.6904 21.6106L45.8926 19.4085C46.9554 20.2026 48.2732 20.6732 49.6988 20.6732C53.2123 20.6732 56.0708 17.8148 56.0708 14.3012C56.0708 10.7877 53.2122 7.92924 49.6988 7.92924C46.1853 7.92924 43.3268 10.7877 43.3268 14.3012C43.3268 15.727 43.7974 17.0446 44.5915 18.1074L42.3892 20.3096C42.0299 20.6688 42.0299 21.2514 42.3892 21.6105C42.5689 21.7903 42.8045 21.8801 43.0398 21.8801ZM49.6988 9.76919C52.1978 9.76919 54.2308 11.8023 54.2308 14.3012C54.2308 16.8001 52.1978 18.8333 49.6988 18.8333C47.1997 18.8333 45.1667 16.8001 45.1667 14.3012C45.1667 11.8023 47.1997 9.76919 49.6988 9.76919Z" fill="#00A1E9"/>
<path d="M20.3096 42.3894L18.1074 44.5915C17.0446 43.7974 15.7268 43.3267 14.3012 43.3267C10.7877 43.3267 7.92924 46.1852 7.92924 49.6987C7.92924 53.2123 10.7878 56.0708 14.3012 56.0708C17.8147 56.0708 20.6732 53.2123 20.6732 49.6987C20.6732 48.273 20.2026 46.9554 19.4085 45.8926L21.6106 43.6904C21.9699 43.3312 21.9699 42.7486 21.6106 42.3895C21.2514 42.0301 20.669 42.0301 20.3096 42.3894ZM14.3012 54.2308C11.8022 54.2308 9.76919 52.1977 9.76919 49.6987C9.76919 47.1998 11.8022 45.1667 14.3012 45.1667C16.8003 45.1667 18.8333 47.1998 18.8333 49.6987C18.8333 52.1977 16.8003 54.2308 14.3012 54.2308Z" fill="#00A1E9"/>
<path fill-rule="evenodd" clip-rule="evenodd" d="M32.3231 19.9867L43.2273 24.0757C43.5863 24.2102 43.8242 24.5536 43.8242 24.937V31.5809C43.8242 32.0889 43.4124 32.5008 42.9042 32.5008C42.396 32.5008 41.9842 32.089 41.9842 31.5809V26.2646L32.92 29.6636V41.8244L41.9842 38.4252V35.8689C41.9842 35.3609 42.396 34.9489 42.9042 34.9489C43.4124 34.9489 43.8242 35.3609 43.8242 35.8689V39.0628C43.8242 39.4463 43.5863 39.7895 43.2273 39.9242L32.3231 44.0132C32.2441 44.0429 32.1625 44.0611 32.0804 44.0683C32.0622 44.0699 32.044 44.0709 32.0258 44.0714C32.0173 44.0717 32.0087 44.0718 32.0001 44.0718C31.8946 44.0718 31.7903 44.0514 31.6906 44.0156C31.6863 44.014 31.6817 44.0123 31.6774 44.0107C31.6775 44.0108 31.6773 44.0107 31.6774 44.0107L31.6769 44.0133L20.7727 39.9243C20.4137 39.7897 20.1758 39.4464 20.1758 39.063V32.1943C20.1758 31.6862 20.5876 31.2743 21.0958 31.2743C21.604 31.2743 22.0158 31.6862 22.0158 32.1943V38.4254L31.08 41.8244V29.6636L22.0158 26.2646V27.8908C22.0158 28.3988 21.604 28.8107 21.0958 28.8107C20.5876 28.8107 20.1758 28.3988 20.1758 27.8908V24.937C20.1758 24.5536 20.4137 24.2104 20.7727 24.0757L31.6769 19.9867C31.8854 19.9086 32.1147 19.9086 32.3231 19.9867ZM22.6139 27.1277V27.8908C22.6139 28.7291 21.9344 29.4089 21.0958 29.4089C20.2572 29.4089 19.5777 28.7291 19.5777 27.8908V24.937C19.5777 24.3042 19.9702 23.7379 20.5626 23.5157L31.4669 19.4266C31.8107 19.2978 32.1892 19.2977 32.5331 19.4266L43.4372 23.5156C44.0299 23.7377 44.4223 24.3044 44.4223 24.937V31.5809C44.4223 32.4192 43.7428 33.099 42.9042 33.099C42.0656 33.099 41.3861 32.4194 41.3861 31.5809V27.1277L33.5181 30.0781V40.9613L41.3861 38.0107V35.8689C41.3861 35.0306 42.0656 34.3508 42.9042 34.3508C43.7428 34.3508 44.4223 35.0306 44.4223 35.8689V39.0628C44.4223 39.6956 44.0298 40.262 43.4374 40.4842L32.5335 44.5731M22.6139 27.1277L30.4819 30.0781V40.9613L22.6139 38.0108V32.1943C22.6139 31.3559 21.9344 30.6762 21.0958 30.6762C20.2572 30.6762 19.5777 31.3559 19.5777 32.1943V39.063C19.5777 39.6956 19.9701 40.2622 20.5627 40.4844C20.5627 40.4843 20.5627 40.4844 20.5627 40.4844L32.1474 44.8285L32.1755 44.6598C32.2963 44.6457 32.4169 44.6169 32.5335 44.5731M43.6904 42.3894L45.8926 44.5915C46.9554 43.7974 48.273 43.3267 49.6988 43.3267C53.2123 43.3267 56.0709 46.1851 56.0709 49.6986C56.0709 53.2122 53.2123 56.0706 49.6989 56.0706C46.1854 56.0706 43.3269 53.2122 43.3269 49.6986C43.3269 48.273 43.7975 46.9553 44.5917 45.8925L42.3894 43.6903C42.0301 43.3312 42.0301 42.7486 42.3894 42.3894C42.7486 42.0301 43.331 42.0301 43.6904 42.3894ZM41.9665 44.1133L43.8164 45.9631C43.1282 47.0434 42.7287 48.3257 42.7287 49.6986C42.7287 53.5426 45.8551 56.6688 49.6989 56.6688C53.5427 56.6688 56.669 53.5426 56.669 49.6986C56.669 45.8547 53.5426 42.7286 49.6988 42.7286C48.3257 42.7286 47.0435 43.1281 45.9633 43.8163L44.1134 41.9664C43.5205 41.3737 42.5593 41.3735 41.9664 41.9664C41.3736 42.5592 41.3735 43.5205 41.9665 44.1133C41.9665 44.1134 41.9665 44.1133 41.9665 44.1133ZM20.3096 21.6106L18.1074 19.4085C17.0446 20.2026 15.727 20.6732 14.3012 20.6732C10.7877 20.6732 7.92936 17.8149 7.92936 14.3014C7.92936 10.7878 10.7879 7.92936 14.3014 7.92936C17.8148 7.92936 20.6734 10.7878 20.6734 14.3014C20.6734 15.727 20.2027 17.0447 19.4086 18.1075L21.6108 20.3097C21.97 20.6688 21.97 21.2514 21.6108 21.6106C21.4311 21.7903 21.1955 21.8801 20.9602 21.8801C20.7248 21.8801 20.4893 21.7902 20.3096 21.6106ZM22.0337 19.8867C22.0337 19.8868 22.0337 19.8867 22.0337 19.8867C22.6266 20.4795 22.6265 21.4408 22.0337 22.0336C21.7373 22.33 21.3476 22.4783 20.9602 22.4783C20.5725 22.4783 20.183 22.3297 19.8868 22.0337L18.0367 20.1837C16.9565 20.8719 15.6743 21.2714 14.3012 21.2714C10.4573 21.2714 7.33123 18.1453 7.33123 14.3014C7.33123 10.4574 10.4576 7.33123 14.3014 7.33123C18.1451 7.33123 21.2715 10.4574 21.2715 14.3014C21.2715 15.6743 20.8721 16.9566 20.1838 18.0369L22.0337 19.8867ZM41.9663 19.8866L43.8163 18.0367C43.1281 16.9565 42.7286 15.6743 42.7286 14.3012C42.7286 10.4573 45.855 7.33111 49.6988 7.33111C53.5425 7.33111 56.6689 10.4573 56.6689 14.3012C56.6689 18.1452 53.5427 21.2714 49.6988 21.2714C48.3258 21.2714 47.0435 20.8719 45.9633 20.1837L44.1134 22.0336C43.817 22.33 43.4273 22.4783 43.0398 22.4783C42.6524 22.4783 42.2628 22.33 41.9664 22.0335C41.3734 21.4407 41.3735 20.4794 41.9663 19.8866ZM45.8926 19.4085C46.9554 20.2026 48.2732 20.6732 49.6988 20.6732C53.2123 20.6732 56.0708 17.8148 56.0708 14.3012C56.0708 10.7877 53.2122 7.92924 49.6988 7.92924C46.1853 7.92924 43.3268 10.7877 43.3268 14.3012C43.3268 15.727 43.7974 17.0446 44.5915 18.1074L42.3892 20.3096C42.0299 20.6688 42.0299 21.2514 42.3892 21.6105C42.5689 21.7903 42.8045 21.8801 43.0398 21.8801C43.2752 21.8801 43.5107 21.7903 43.6904 21.6106L45.8926 19.4085ZM19.8867 41.9663C20.4796 41.3736 21.4407 41.3735 22.0337 41.9666C22.6265 42.5594 22.6264 43.5206 22.0336 44.1134L20.1837 45.9633C20.8719 47.0435 21.2714 48.3257 21.2714 49.6987C21.2714 53.5427 18.145 56.6689 14.3012 56.6689C10.4575 56.6689 7.33111 53.5427 7.33111 49.6987C7.33111 45.8548 10.4573 42.7286 14.3012 42.7286C15.6742 42.7286 16.9565 43.128 18.0367 43.8163L19.8867 41.9663ZM18.1074 44.5915C17.0446 43.7974 15.7268 43.3267 14.3012 43.3267C10.7877 43.3267 7.92924 46.1852 7.92924 49.6987C7.92924 53.2123 10.7878 56.0708 14.3012 56.0708C17.8147 56.0708 20.6732 53.2123 20.6732 49.6987C20.6732 48.273 20.2026 46.9554 19.4085 45.8926L21.6106 43.6904C21.9699 43.3312 21.9699 42.7486 21.6106 42.3895C21.2514 42.0301 20.669 42.0301 20.3096 42.3894L18.1074 44.5915ZM32 27.4048L38.5805 24.9371L32 22.4694L25.4195 24.9371L32 27.4048ZM32 28.0436L40.284 24.9372L32 21.8306L23.716 24.9372L32 28.0436ZM31.08 9.78072C28.9622 9.35275 27.3627 7.47747 27.3627 5.23543C27.3627 2.67838 29.443 0.598131 32 0.598131C34.557 0.598131 36.6373 2.67838 36.6373 5.23543C36.6373 7.47747 35.0378 9.35275 32.92 9.78072V16.3874C32.92 16.8955 32.5082 17.3074 32 17.3074C31.4918 17.3074 31.08 16.8955 31.08 16.3874V9.78072ZM33.5181 10.246C35.6667 9.59394 37.2354 7.59585 37.2354 5.23543C37.2354 2.34804 34.8874 0 32 0C29.1126 0 26.7646 2.34804 26.7646 5.23543C26.7646 7.59585 28.3333 9.59394 30.4819 10.246V16.3874C30.4819 17.2257 31.1614 17.9055 32 17.9055C32.8386 17.9055 33.5181 17.2257 33.5181 16.3874V10.246ZM34.1992 5.23543C34.1992 4.02329 33.212 3.03621 32 3.03621C30.788 3.03621 29.8008 4.02329 29.8008 5.23543C29.8008 6.44757 30.788 7.43464 32 7.43464C33.212 7.43464 34.1992 6.44757 34.1992 5.23543ZM45.7648 49.6987C45.7648 51.8673 47.5301 53.6327 49.6988 53.6327C51.8674 53.6327 53.6327 51.8673 53.6327 49.6987C53.6327 47.5302 51.8674 45.7648 49.6988 45.7648C47.5301 45.7648 45.7648 47.5302 45.7648 49.6987ZM18.2352 14.3012C18.2352 12.1327 16.4699 10.3673 14.3012 10.3673C12.1326 10.3673 10.3673 12.1327 10.3673 14.3012C10.3673 16.4698 12.1326 18.2352 14.3012 18.2352C16.4699 18.2352 18.2352 16.4698 18.2352 14.3012ZM33.5181 53.754V47.6126C33.5181 46.7743 32.8386 46.0945 32 46.0945C31.1614 46.0945 30.4819 46.7743 30.4819 47.6126V53.754C28.3333 54.4061 26.7646 56.4042 26.7646 58.7646C26.7646 61.652 29.1126 64 32 64C34.8874 64 37.2354 61.652 37.2354 58.7646C37.2354 56.4042 35.6667 54.4061 33.5181 53.754ZM29.8008 58.7646C29.8008 59.9767 30.7879 60.9638 32 60.9638C33.2121 60.9638 34.1992 59.9767 34.1992 58.7646C34.1992 57.5524 33.2121 56.5654 32 56.5654C30.7879 56.5654 29.8008 57.5524 29.8008 58.7646ZM53.754 30.4819C54.4061 28.3333 56.4041 26.7646 58.7646 26.7646C61.652 26.7646 64 29.1126 64 32C64 34.8874 61.652 37.2354 58.7646 37.2354C56.4041 37.2354 54.4061 35.6667 53.754 33.5181H47.6126C46.774 33.5181 46.0945 32.8384 46.0945 32C46.0945 31.1616 46.774 30.4819 47.6126 30.4819H53.754ZM54.2193 31.08C54.6473 28.9622 56.5225 27.3627 58.7646 27.3627C61.3216 27.3627 63.4019 29.443 63.4019 32C63.4019 34.557 61.3216 36.6373 58.7646 36.6373C56.5225 36.6373 54.6473 35.0378 54.2193 32.92H47.6126C47.1044 32.92 46.6926 32.5081 46.6926 32C46.6926 31.4919 47.1044 31.08 47.6126 31.08H54.2193ZM56.5654 32C56.5654 33.2121 57.5525 34.1992 58.7646 34.1992C59.9767 34.1992 60.9638 33.2122 60.9638 32C60.9638 30.7878 59.9767 29.8008 58.7646 29.8008C57.5524 29.8008 56.5654 30.7878 56.5654 32ZM10.246 33.5181C9.59394 35.6667 7.59585 37.2354 5.23543 37.2354C2.34804 37.2354 0 34.8874 0 32C0 29.1126 2.34804 26.7646 5.23543 26.7646C7.59585 26.7646 9.59394 28.3333 10.246 30.4819H16.3874C17.226 30.4819 17.9055 31.1616 17.9055 32C17.9055 32.8384 17.226 33.5181 16.3874 33.5181H10.246ZM3.03621 32C3.03621 33.2122 4.02327 34.1992 5.23543 34.1992C6.44744 34.1992 7.43452 33.2122 7.43452 32C7.43452 30.7878 6.44755 29.8008 5.23543 29.8008C4.02327 29.8008 3.03621 30.7879 3.03621 32ZM53.6327 14.3012C53.6327 12.1327 51.8674 10.3673 49.6988 10.3673C47.5301 10.3673 45.7648 12.1327 45.7648 14.3012C45.7648 16.4698 47.5301 18.2352 49.6988 18.2352C51.8674 18.2352 53.6327 16.4698 53.6327 14.3012ZM10.3673 49.6987C10.3673 51.8673 12.1326 53.6327 14.3012 53.6327C16.4699 53.6327 18.2352 51.8673 18.2352 49.6987C18.2352 47.5302 16.4699 45.7648 14.3012 45.7648C12.1326 45.7648 10.3673 47.5302 10.3673 49.6987ZM32 2.43808C33.5424 2.43808 34.7973 3.69293 34.7973 5.23543C34.7973 6.77792 33.5424 8.03277 32 8.03277C30.4576 8.03277 29.2027 6.77792 29.2027 5.23543C29.2027 3.69293 30.4576 2.43808 32 2.43808ZM45.1667 49.6987C45.1667 52.1977 47.1997 54.2308 49.6988 54.2308C52.1978 54.2308 54.2308 52.1977 54.2308 49.6987C54.2308 47.1998 52.1978 45.1667 49.6988 45.1667C47.1997 45.1667 45.1667 47.1998 45.1667 49.6987ZM14.3012 9.76919C16.8003 9.76919 18.8333 11.8023 18.8333 14.3012C18.8333 16.8001 16.8003 18.8333 14.3012 18.8333C11.8022 18.8333 9.76919 16.8001 9.76919 14.3012C9.76919 11.8023 11.8022 9.76919 14.3012 9.76919ZM32.92 47.6126V54.2193C35.0378 54.6473 36.6373 56.5225 36.6373 58.7646C36.6373 61.3216 34.557 63.4019 32 63.4019C29.443 63.4019 27.3627 61.3216 27.3627 58.7646C27.3627 56.5225 28.9622 54.6473 31.08 54.2193V47.6126C31.08 47.1045 31.4918 46.6926 32 46.6926C32.5082 46.6926 32.92 47.1045 32.92 47.6126ZM29.2027 58.7646C29.2027 60.3071 30.4576 61.5619 32 61.5619C33.5424 61.5619 34.7973 60.3071 34.7973 58.7646C34.7973 57.2221 33.5424 55.9672 32 55.9672C30.4576 55.9672 29.2027 57.2221 29.2027 58.7646ZM58.7646 34.7973C57.2222 34.7973 55.9672 33.5425 55.9672 32C55.9672 30.4575 57.2221 29.2027 58.7646 29.2027C60.3071 29.2027 61.5619 30.4575 61.5619 32C61.5619 33.5425 60.3071 34.7973 58.7646 34.7973ZM16.3874 32.92H9.78072C9.35275 35.0378 7.47747 36.6373 5.23543 36.6373C2.67838 36.6373 0.598131 34.557 0.598131 32C0.598131 29.443 2.67838 27.3627 5.23543 27.3627C7.47747 27.3627 9.35275 28.9622 9.78072 31.08H16.3874C16.8956 31.08 17.3074 31.4919 17.3074 32C17.3074 32.5081 16.8956 32.92 16.3874 32.92ZM2.43808 32C2.43808 33.5425 3.69293 34.7973 5.23543 34.7973C6.7778 34.7973 8.03265 33.5425 8.03265 32C8.03265 30.4575 6.77792 29.2027 5.23543 29.2027C3.69293 29.2027 2.43808 30.4575 2.43808 32ZM49.6988 9.76919C52.1978 9.76919 54.2308 11.8023 54.2308 14.3012C54.2308 16.8001 52.1978 18.8333 49.6988 18.8333C47.1997 18.8333 45.1667 16.8001 45.1667 14.3012C45.1667 11.8023 47.1997 9.76919 49.6988 9.76919ZM9.76919 49.6987C9.76919 52.1977 11.8022 54.2308 14.3012 54.2308C16.8003 54.2308 18.8333 52.1977 18.8333 49.6987C18.8333 47.1998 16.8003 45.1667 14.3012 45.1667C11.8022 45.1667 9.76919 47.1998 9.76919 49.6987Z" fill="#00A1E9"/>
</svg>
