<svg width="47" height="46" viewBox="0 0 47 46" fill="none" xmlns="http://www.w3.org/2000/svg">
<path d="M23.5 5.4C24.1193 4.46667 25.7706 2.56001 27.422 2.40001C29.4862 2.20002 41.6651 2.40001 42.6972 2.40001C43.5229 2.40001 45.2431 1.46667 46 1M32.5 3.93333V7.07619C32.5 7.28571 32.5 7.91429 32.0714 7.91429C31.6429 7.91429 31.6429 8.12381 31.6429 8.33333V10.6381C31.6429 10.8476 31.4286 11.0571 31.2143 11.0571C31 11.0571 30.7857 11.2667 30.7857 11.4762V13.9905M36.1429 3.93333V7.49524H37.6429C38.0714 7.49524 38.2857 7.70476 38.2857 7.91429V9.59048C38.2857 9.8 38.2857 10.219 38.0714 10.219H35.2857V10.6381H38.0714C38.2857 10.6381 38.5 10.6381 38.5 10.8476V15.0381C38.5 15.2476 38.5 15.6667 38.0714 15.6667H31.2143C31 15.6667 30.7857 15.6667 30.7857 15.2476V13.9905M30.7857 13.9905C28.6429 13.9905 27.1429 15.2476 26.5 15.6667M39.0607 13.9571C40.5327 14.164 46 15.8196 46 18.3031V42.5166C46 44.793 44.528 45 43.2664 45H27.0748C25.8131 45 25.1822 43.1374 25.1822 41.6888M9.83178 43.9652L13.6168 40.2401L11.7243 38.4133M1 31.3411L2.68224 29.6855L4.99533 31.9182M4.99533 31.9182C6.18692 30.1392 9.07477 26.4984 11.0935 26.1673C13.6168 25.7534 18.4533 25.5464 20.1355 26.7881C21.8178 28.0299 25.8131 27.616 26.6542 27.616C27.4187 27.616 29.3994 29.4968 28.3325 30.9272M4.99533 31.9182L11.7243 38.4133M17.8224 32.3759C20.5561 32.5138 26.4019 32.5 27.9159 31.3411C28.0882 31.2092 28.2256 31.0705 28.3325 30.9272M11.7243 38.4133H27.9159C28.757 38.4133 33.3832 35.4802 34.8551 33.6176C36.3271 31.755 38.6402 28.0299 38.2196 26.9951C37.7991 25.9603 36.3271 25.5464 34.8551 26.1673C33.3832 26.7881 32.5421 27.8229 31.2804 28.8577C30.271 29.6855 28.8946 30.5823 28.3325 30.9272M21.3972 11.2667C22.6589 12.7153 25.1822 16.2749 25.1822 18.9239C25.1822 22.2352 22.2383 22.856 21.3972 22.856C20.5561 22.856 17.1916 22.4421 17.1916 18.9239C17.1916 16.1094 19.8551 12.6464 21.3972 11.2667Z" stroke="#00A1E9"/>
</svg>
