<svg width="42" height="41" viewBox="0 0 42 41" fill="none" xmlns="http://www.w3.org/2000/svg">
<path d="M20.5308 41C20.5308 39.6854 20.1554 37.6197 20.9062 36.8685C21.657 36.1174 22.4077 35.7418 22.4077 33.4882V20.1548C22.4077 17.1503 18.8415 17.9015 18.8415 18.8404M18.8415 18.8404V25.601M18.8415 18.8404V15.6479C18.8415 13.9578 15.2752 13.7699 15.2752 15.4601M15.2752 15.4601V24.662M15.2752 15.4601V13.2065C15.2752 11.3287 11.709 11.3286 11.709 13.2065V15.4601M11.709 15.4601V24.662M11.709 15.4601C10.3951 14.1455 8.33043 14.8967 8.33043 15.8357V29.3569M8.33043 29.3569C7.95505 29.3569 7.57963 29.7325 7.01654 29.3569C6.45345 28.9812 5.89037 26.7278 4.57649 25.2255C3.2626 23.7231 0.822536 25.0377 1.01023 25.9766C1.19793 26.9156 3.8257 32.925 4.57649 34.803C5.32728 36.6809 8.33043 37.6199 8.33043 38.5588V41M8.33043 29.3569C10.2074 29.3569 12.4598 32.925 12.4598 33.864M23.1585 16.9625V15.6479C23.1585 13.9578 26.7248 13.7699 26.7248 15.4601M26.7248 15.4601V24.662M26.7248 15.4601V13.2065C26.7248 11.3287 30.291 11.3286 30.291 13.2065V15.4601M30.291 15.4601V24.662M30.291 15.4601C31.6049 14.1455 33.6696 14.8967 33.6696 15.8357V29.3569M33.6696 29.3569C34.0449 29.3569 34.4204 29.7325 34.9835 29.3569C35.5466 28.9812 36.1096 26.7278 37.4235 25.2255C38.7374 23.7231 41.1775 25.0377 40.9898 25.9766C40.8021 26.9156 38.1743 32.925 37.4235 34.803C36.6727 36.6809 33.6696 37.6199 33.6696 38.5588V41M33.6696 29.3569C31.7926 29.3569 29.5402 32.925 29.5402 33.864M21.4692 1C22.7206 2.50235 25.2232 5.50706 25.2232 7.76059C25.2232 10.0141 23.9093 11.3287 21.4692 11.3287C19.0292 11.3287 17.7153 9.82633 17.7153 7.76059C17.7153 5.13147 20.1554 2.56495 21.4692 1Z" stroke="#00A1E9"/>
</svg>
