<svg width="14" height="18" viewBox="0 0 14 18" fill="none" xmlns="http://www.w3.org/2000/svg">
<path d="M12.746 3.12952C11.4244 1.1428 9.32876 0 6.9999 0C4.67104 0 2.57878 1.1428 1.25718 3.12952C-0.0576616 5.1092 -0.361867 7.61281 0.442587 9.82809C0.658911 10.4329 1.0003 11.0201 1.4566 11.5687L6.54021 17.7785C6.65514 17.9191 6.82414 18 6.9999 18C7.17566 18 7.34467 17.9191 7.45959 17.7785L12.5398 11.5687C12.9995 11.0166 13.3409 10.4294 13.5538 9.82809C14.3617 7.61633 14.0608 5.1092 12.746 3.12952ZM12.4249 9.39207C12.2593 9.85622 11.9923 10.3133 11.6272 10.7529L11.6238 10.7564L6.9999 16.4036L2.37598 10.7529C2.01093 10.3133 1.74391 9.85622 1.57491 9.38855C0.909035 7.55655 1.16254 5.48545 2.25092 3.84684C3.34268 2.20121 5.07327 1.25884 6.9999 1.25884C8.92654 1.25884 10.6571 2.20121 11.7489 3.84684C12.8373 5.48545 13.0908 7.55655 12.4249 9.39207Z" fill="#D0D0D0"/>
<path d="M6.99988 3.73432C5.13071 3.73432 3.60968 5.31666 3.60968 7.26118C3.60968 9.2057 5.13071 10.788 6.99988 10.788C8.86905 10.788 10.3901 9.2057 10.3901 7.26118C10.3901 5.31666 8.86905 3.73432 6.99988 3.73432ZM6.99988 9.52569C5.79996 9.52569 4.82312 8.50947 4.82312 7.26118C4.82312 6.01289 5.79996 4.99668 6.99988 4.99668C8.1998 4.99668 9.17664 6.01289 9.17664 7.26118C9.17664 8.50947 8.20318 9.52569 6.99988 9.52569Z" fill="#D0D0D0"/>
</svg>
