<svg width="11" height="11" viewBox="0 0 11 11" fill="none" xmlns="http://www.w3.org/2000/svg">
<path d="M10.9766 8.52297C10.9455 8.42922 10.7475 8.29112 10.3829 8.10899C10.2841 8.05158 10.1433 7.97357 9.96117 7.8746C9.77886 7.77562 9.61339 7.68442 9.46504 7.60107C9.3164 7.51775 9.17714 7.43703 9.04702 7.35902C9.02622 7.34339 8.96112 7.29789 8.85174 7.2222C8.74225 7.14673 8.64992 7.09072 8.57426 7.05419C8.49876 7.01788 8.42449 6.9996 8.35156 6.9996C8.24741 6.9996 8.11732 7.07387 7.96112 7.2222C7.80492 7.37073 7.66164 7.53206 7.53149 7.7067C7.40132 7.88125 7.26326 8.04258 7.11757 8.19102C6.97166 8.33953 6.85177 8.41371 6.75813 8.41371C6.71112 8.41371 6.6525 8.4006 6.58226 8.37474C6.51204 8.34872 6.45862 8.32642 6.42195 8.30844C6.38561 8.29008 6.32325 8.25374 6.23464 8.19888C6.14587 8.14418 6.0965 8.11422 6.0861 8.10899C5.37256 7.71307 4.7606 7.25994 4.2501 6.74969C3.73978 6.23915 3.28656 5.62728 2.89072 4.9137C2.88552 4.90328 2.8555 4.85378 2.80086 4.76528C2.74613 4.67671 2.70965 4.61429 2.69142 4.57773C2.6732 4.54131 2.65106 4.4879 2.62506 4.41761C2.59907 4.34731 2.58601 4.28875 2.58601 4.24182C2.58601 4.14813 2.66026 4.02828 2.80871 3.88243C2.95714 3.73667 3.11865 3.5986 3.29307 3.46848C3.46763 3.33837 3.62898 3.1951 3.77746 3.03891C3.92588 2.88264 4.0001 2.7525 4.0001 2.64835C4.0001 2.57548 3.98187 2.50119 3.94545 2.4257C3.909 2.35004 3.85301 2.25771 3.77746 2.14829C3.70188 2.03892 3.65631 1.97388 3.64066 1.95294C3.56262 1.82283 3.48197 1.68352 3.39853 1.53508C3.3151 1.38666 3.22403 1.22122 3.12502 1.03896C3.0261 0.856771 2.94803 0.716096 2.89067 0.617151C2.70847 0.252645 2.57047 0.0546444 2.47669 0.023505C2.44021 0.00788062 2.38548 0 2.31264 0C2.17193 0 1.98836 0.0259951 1.76181 0.0781494C1.53517 0.130222 1.35684 0.184839 1.22661 0.24222C0.966174 0.351536 0.690144 0.669223 0.398434 1.19517C0.132802 1.68465 0 2.16911 0 2.64822C0 2.78873 0.00911253 2.92543 0.0273376 3.05836C0.0455626 3.19116 0.0781269 3.34092 0.125058 3.50761C0.171907 3.67426 0.209698 3.79805 0.238267 3.87866C0.266863 3.95933 0.320252 4.10383 0.398406 4.31223C0.476451 4.52057 0.523382 4.64811 0.539007 4.69499C0.721285 5.20542 0.937441 5.6611 1.18742 6.06216C1.59871 6.72879 2.16 7.41771 2.87094 8.12866C3.58191 8.83956 4.27074 9.40078 4.93746 9.81222C5.33849 10.0622 5.79436 10.2783 6.30475 10.4607C6.35165 10.4762 6.4792 10.523 6.68747 10.6013C6.89583 10.6794 7.0404 10.7328 7.12107 10.7615C7.20177 10.7902 7.3256 10.828 7.49211 10.8749C7.65898 10.9218 7.80861 10.9544 7.94142 10.9727C8.0743 10.9907 8.21104 11 8.35159 11C8.8307 11 9.31522 10.8671 9.80481 10.6015C10.3307 10.31 10.6484 10.0339 10.7577 9.77328C10.8153 9.64319 10.8697 9.46481 10.9218 9.23819C10.9741 9.01168 11 8.82815 11 8.68748C11.0002 8.61434 10.9923 8.55974 10.9766 8.52297Z" fill="white"/>
</svg>
