<svg width="64" height="64" viewBox="0 0 64 64" fill="none" xmlns="http://www.w3.org/2000/svg">
<path d="M13.7724 38.8286C13.3471 39.0744 12.9841 39.4149 12.7114 39.8236C12.4388 40.2323 12.2638 40.6982 12.2001 41.1853C12.1364 41.6725 12.1856 42.1677 12.344 42.6328C12.5024 43.0978 12.7656 43.5202 13.1134 43.8672L14.62 42.3568C14.5533 42.2901 14.4957 42.215 14.4486 42.1332C14.3071 41.8882 14.2688 41.5971 14.342 41.3238C14.4153 41.0506 14.594 40.8176 14.839 40.6761C15.084 40.5347 15.3752 40.4964 15.6484 40.5696C15.9217 40.6428 16.1547 40.8216 16.2961 41.0666L18.1436 39.9999C17.7186 39.2657 17.0197 38.7301 16.2002 38.5105C15.3808 38.2909 14.5077 38.4053 13.7724 38.8286Z" fill="#00A1E9"/>
<path d="M24.3438 46.0853L23.0495 47.7811C23.1652 47.8702 23.2614 47.982 23.3321 48.1097C23.4029 48.2374 23.4466 48.3783 23.4607 48.5236C23.4748 48.6689 23.459 48.8156 23.4141 48.9545C23.3693 49.0934 23.2964 49.2216 23.2 49.3313C23.1036 49.4409 22.9857 49.5296 22.8536 49.5918C22.7216 49.654 22.5781 49.6885 22.4322 49.6931C22.2863 49.6977 22.141 49.6723 22.0053 49.6184C21.8696 49.5646 21.7464 49.4835 21.6433 49.3801L20.1325 50.8864C20.4419 51.1969 20.8118 51.4406 21.2193 51.6023C21.6268 51.7639 22.0631 51.8402 22.5013 51.8263C22.9394 51.8124 23.3701 51.7086 23.7665 51.5214C24.1629 51.3341 24.5166 51.0675 24.8056 50.7379C25.0947 50.4084 25.313 50.0229 25.447 49.6055C25.5809 49.1881 25.6277 48.7476 25.5844 48.3114C25.5411 47.8752 25.4086 47.4525 25.1952 47.0695C24.9818 46.6866 24.692 46.3516 24.3438 46.0853Z" fill="#00A1E9"/>
<path d="M48.6321 25.5985C49.2649 25.5973 49.8832 25.4086 50.4087 25.0562C50.9343 24.7038 51.3436 24.2035 51.5849 23.6185C51.8262 23.0335 51.8886 22.3902 51.7644 21.7697C51.6401 21.1492 51.3347 20.5795 50.8867 20.1326L49.3801 21.643C49.4468 21.7097 49.5044 21.7849 49.5515 21.8666C49.6869 22.1011 49.728 22.3784 49.6664 22.6422C49.6049 22.9059 49.4454 23.1364 49.2202 23.2868C48.995 23.4373 48.7211 23.4965 48.4538 23.4524C48.1866 23.4083 47.9462 23.2642 47.7813 23.0494L46.0855 24.3437C46.3848 24.7347 46.7703 25.0513 47.212 25.2689C47.6537 25.4866 48.1397 25.5994 48.6321 25.5985Z" fill="#00A1E9"/>
<path d="M39.6563 17.9145L40.9506 16.2187C40.8349 16.1296 40.7387 16.0178 40.6679 15.8901C40.5972 15.7624 40.5534 15.6215 40.5393 15.4762C40.5252 15.3309 40.5411 15.1843 40.5859 15.0453C40.6308 14.9064 40.7037 14.7782 40.8001 14.6686C40.8965 14.5589 41.0144 14.4703 41.1464 14.408C41.2785 14.3458 41.4219 14.3113 41.5678 14.3067C41.7137 14.3022 41.8591 14.3276 41.9948 14.3814C42.1305 14.4352 42.2537 14.5164 42.3567 14.6197L43.8676 13.1135C43.5581 12.8029 43.1882 12.5592 42.7808 12.3976C42.3733 12.2359 41.9369 12.1596 41.4988 12.1735C41.0606 12.1875 40.63 12.2913 40.2336 12.4785C39.8372 12.6657 39.4835 12.9323 39.1944 13.2619C38.9054 13.5915 38.6871 13.9769 38.5531 14.3943C38.4191 14.8117 38.3724 15.2522 38.4157 15.6884C38.459 16.1247 38.5914 16.5474 38.8048 16.9303C39.0183 17.3132 39.3081 17.6482 39.6563 17.9145Z" fill="#00A1E9"/>
<path d="M40.5334 35.1999C41.2377 35.1999 41.9224 34.9674 42.4813 34.5386C43.0401 34.1099 43.4418 33.5087 43.6242 32.8283C43.8066 32.148 43.7595 31.4265 43.49 30.7756C43.2206 30.1248 42.744 29.5811 42.1342 29.2287L41.0659 31.0753C41.2078 31.1571 41.3289 31.2704 41.4199 31.4064C41.5109 31.5425 41.5694 31.6977 41.5909 31.86C41.6123 32.0223 41.5961 32.1874 41.5435 32.3424C41.4909 32.4975 41.4033 32.6383 41.2875 32.7541C41.1718 32.8698 41.0309 32.9574 40.8759 33.01C40.7209 33.0626 40.5558 33.0788 40.3935 33.0574C40.2312 33.036 40.076 32.9775 39.9399 32.8865C39.8038 32.7954 39.6905 32.6743 39.6088 32.5325L37.7621 33.6007C38.044 34.0862 38.4482 34.4894 38.9344 34.77C39.4207 35.0506 39.972 35.1988 40.5334 35.1999Z" fill="#00A1E9"/>
<path d="M23.4667 28.7999C22.7623 28.8 22.0776 29.0324 21.5188 29.4612C20.96 29.89 20.5582 30.4911 20.3758 31.1715C20.1935 31.8518 20.2406 32.5734 20.51 33.2242C20.7794 33.875 21.256 34.4187 21.8659 34.7711L22.9341 32.9245C22.7923 32.8428 22.6712 32.7295 22.5802 32.5934C22.4891 32.4573 22.4306 32.3021 22.4092 32.1398C22.3878 31.9775 22.404 31.8124 22.4566 31.6574C22.5092 31.5024 22.5968 31.3615 22.7125 31.2457C22.8283 31.13 22.9691 31.0424 23.1242 30.9898C23.2792 30.9372 23.4443 30.921 23.6066 30.9424C23.7689 30.9639 23.9241 31.0223 24.0602 31.1134C24.1962 31.2044 24.3095 31.3255 24.3913 31.4674L26.2379 30.3991C25.9561 29.9136 25.5519 29.5104 25.0657 29.2298C24.5794 28.9492 24.0281 28.801 23.4667 28.7999Z" fill="#00A1E9"/>
<path d="M30.5047 23.0098C30.0796 22.2756 29.3807 21.74 28.5612 21.5204C27.7418 21.3008 26.8687 21.4152 26.1334 21.8385L26.1333 21.8386C25.4797 22.216 24.9805 22.8123 24.724 23.5222C24.4675 24.232 24.4702 25.0097 24.7316 25.7177C24.993 26.4258 25.4963 27.0186 26.1525 27.3915C26.8088 27.7643 27.5757 27.8932 28.3177 27.7553L28.9429 28.8382L30.7905 27.7715L30.1645 26.6874C30.5953 26.1852 30.8594 25.5616 30.9203 24.9028C30.9813 24.244 30.836 23.5825 30.5047 23.0098ZM26.8096 25.1431C26.7041 24.9604 26.6551 24.7506 26.6689 24.54C26.6827 24.3295 26.7586 24.1278 26.887 23.9604C27.0155 23.793 27.1906 23.6674 27.3904 23.5996C27.5902 23.5318 27.8056 23.5247 28.0094 23.5793C28.2132 23.6339 28.3962 23.7477 28.5353 23.9063C28.6745 24.065 28.7634 24.2613 28.791 24.4704C28.8185 24.6796 28.7834 24.8923 28.6901 25.0815C28.5968 25.2707 28.4495 25.428 28.2668 25.5335C28.0217 25.6746 27.7306 25.7128 27.4575 25.6396C27.1843 25.5664 26.9513 25.3879 26.8096 25.1431Z" fill="#00A1E9"/>
<path d="M33.4954 40.99C33.9201 41.7246 34.619 42.2606 35.4386 42.4802C36.2582 42.6999 37.1315 42.5852 37.8666 42.1614L37.8668 42.1612C38.5205 41.7839 39.0198 41.1875 39.2763 40.4776C39.5329 39.7678 39.5302 38.99 39.2688 38.2819C39.0074 37.5738 38.504 36.9809 37.8477 36.6081C37.1914 36.2352 36.4244 36.1064 35.6823 36.2444L35.0571 35.1616L33.2096 36.2283L33.8355 37.3125C33.4048 37.8146 33.1407 38.4383 33.0797 39.0971C33.0188 39.7559 33.164 40.4173 33.4954 40.99ZM37.1905 38.8567C37.3081 39.06 37.3553 39.2965 37.3248 39.5295C37.2943 39.7624 37.1878 39.9787 37.0218 40.145C36.8559 40.3112 36.6397 40.4181 36.4068 40.449C36.1739 40.4799 35.9374 40.4331 35.7338 40.3158C35.5302 40.1986 35.371 40.0175 35.2809 39.8005C35.1907 39.5836 35.1747 39.343 35.2352 39.116C35.2957 38.889 35.4294 38.6883 35.6156 38.5451C35.8017 38.4018 36.03 38.324 36.2649 38.3236C36.4524 38.3234 36.6366 38.3725 36.7991 38.4661C36.9616 38.5597 37.0966 38.6944 37.1905 38.8567Z" fill="#00A1E9"/>
<path d="M19.2 31.9999C19.2013 29.8923 19.7227 27.8175 20.7179 25.9597C21.7132 24.1018 23.1516 22.5183 24.9055 21.3495C26.6594 20.1808 28.6746 19.4629 30.7724 19.2596C32.8702 19.0564 34.9858 19.3739 36.9315 20.1842L37.754 18.2157C36.2627 17.5918 34.6793 17.2164 33.0667 17.1044V15.8164C33.7784 15.5648 34.3782 15.0697 34.7602 14.4186C35.1421 13.7675 35.2816 13.0023 35.154 12.2583C35.0263 11.5143 34.6397 10.8394 34.0626 10.3529C33.4855 9.86631 32.7549 9.59945 32 9.59945C31.2452 9.59945 30.5146 9.86631 29.9375 10.3529C29.3603 10.8394 28.9738 11.5143 28.8461 12.2583C28.7185 13.0023 28.8579 13.7675 29.2399 14.4186C29.6218 15.0697 30.2217 15.5648 30.9334 15.8164V17.1051C29.0376 17.2386 27.1852 17.7354 25.4771 18.5685L24.8312 17.4497C25.2811 16.9224 25.5474 16.2632 25.5902 15.5714C25.6329 14.8796 25.4497 14.1926 25.0681 13.6139C24.6865 13.0352 24.1273 12.5962 23.4745 12.363C22.8218 12.1298 22.111 12.1149 21.4491 12.3207C20.7872 12.5265 20.2101 12.9418 19.8047 13.5041C19.3994 14.0663 19.1876 14.7451 19.2015 15.4381C19.2153 16.1311 19.454 16.8008 19.8815 17.3464C20.309 17.8921 20.9022 18.284 21.5718 18.4632C21.8436 18.5363 22.1237 18.5734 22.4052 18.5736C22.5998 18.5733 22.7939 18.555 22.9851 18.5189L23.6312 19.638C22.0602 20.7053 20.7053 22.0601 19.6381 23.6311L18.5181 22.9845C18.6382 22.334 18.5541 21.6622 18.2774 21.0614C18.0007 20.4605 17.5448 19.9601 16.9724 19.6286C16.4644 19.3354 15.8855 19.1875 15.2991 19.2011C14.7127 19.2146 14.1414 19.3891 13.6475 19.7054C13.1536 20.0217 12.7561 20.4677 12.4985 20.9947C12.241 21.5216 12.1332 22.1092 12.187 22.6933C12.2408 23.2773 12.4541 23.8354 12.8037 24.3064C13.1532 24.7774 13.6254 25.1433 14.1688 25.364C14.7122 25.5848 15.3058 25.6519 15.8848 25.5581C16.4638 25.4643 17.0058 25.2131 17.4517 24.8321L18.5687 25.4769C17.7355 27.1851 17.2387 29.0375 17.1052 30.9332H15.8165C15.5649 30.2216 15.0698 29.6217 14.4187 29.2398C13.7676 28.8578 13.0024 28.7184 12.2584 28.846C11.5144 28.9736 10.8395 29.3602 10.353 29.9373C9.8664 30.5145 9.59954 31.245 9.59954 31.9999C9.59954 32.7548 9.8664 33.4853 10.353 34.0625C10.8395 34.6396 11.5144 35.0262 12.2584 35.1538C13.0024 35.2815 13.7676 35.142 14.4187 34.7601C15.0698 34.3781 15.5649 33.7783 15.8165 33.0666H17.1044C17.2162 34.6756 17.5902 36.2555 18.2116 37.7438L20.1806 36.9227C19.5301 35.3632 19.1967 33.6897 19.2 31.9999ZM22.124 16.4025C21.8856 16.3387 21.6767 16.1941 21.533 15.9935C21.3892 15.7929 21.3195 15.5487 21.3356 15.3024C21.3518 15.0561 21.4528 14.8231 21.6215 14.643C21.7902 14.4629 22.0162 14.3468 22.2609 14.3146C22.5055 14.2824 22.7538 14.336 22.9634 14.4664C23.173 14.5967 23.3309 14.7957 23.4102 15.0294C23.4895 15.2631 23.4853 15.5171 23.3983 15.748C23.3114 15.979 23.147 16.1726 22.9333 16.296C22.8121 16.3664 22.6782 16.412 22.5393 16.4303C22.4004 16.4486 22.2592 16.4392 22.124 16.4025ZM32 11.7333C32.211 11.7333 32.4172 11.7958 32.5926 11.913C32.7681 12.0302 32.9048 12.1968 32.9855 12.3917C33.0662 12.5866 33.0874 12.8011 33.0462 13.008C33.0051 13.2149 32.9035 13.405 32.7543 13.5542C32.6051 13.7034 32.415 13.8049 32.2081 13.8461C32.0012 13.8873 31.7867 13.8661 31.5918 13.7854C31.3969 13.7047 31.2303 13.568 31.1131 13.3925C30.9959 13.2171 30.9334 13.0109 30.9334 12.7999C30.9337 12.5171 31.0462 12.246 31.2461 12.046C31.4461 11.8461 31.7172 11.7336 32 11.7333ZM16.2961 22.9333C16.1906 23.1159 16.0334 23.2631 15.8442 23.3563C15.6551 23.4495 15.4425 23.4846 15.2335 23.457C15.0244 23.4295 14.8282 23.3406 14.6697 23.2015C14.5111 23.0625 14.3974 22.8795 14.3428 22.6758C14.2882 22.4722 14.2952 22.2569 14.363 22.0572C14.4308 21.8575 14.5562 21.6824 14.7235 21.554C14.8908 21.4256 15.0924 21.3497 15.3028 21.3358C15.5132 21.322 15.723 21.3708 15.9057 21.4762C16.1504 21.6179 16.3289 21.8509 16.4021 22.124C16.4753 22.3972 16.4372 22.6882 16.2961 22.9333ZM12.8 33.0666C12.5891 33.0666 12.3828 33.004 12.2074 32.8868C12.032 32.7696 11.8953 32.603 11.8146 32.4081C11.7338 32.2132 11.7127 31.9987 11.7539 31.7918C11.795 31.5849 11.8966 31.3948 12.0458 31.2457C12.195 31.0965 12.385 30.9949 12.5919 30.9537C12.7988 30.9126 13.0133 30.9337 13.2082 31.0144C13.4031 31.0952 13.5697 31.2319 13.6869 31.4073C13.8041 31.5827 13.8667 31.7889 13.8667 31.9999C13.8664 32.2827 13.7539 32.5538 13.5539 32.7538C13.3539 32.9538 13.0828 33.0663 12.8 33.0666Z" fill="#00A1E9"/>
<path d="M46.8949 33.0666H48.1835C48.4352 33.7783 48.9303 34.3781 49.5814 34.7601C50.2325 35.142 50.9977 35.2815 51.7417 35.1538C52.4856 35.0262 53.1606 34.6396 53.6471 34.0625C54.1337 33.4853 54.4005 32.7548 54.4005 31.9999C54.4005 31.245 54.1337 30.5145 53.6471 29.9373C53.1606 29.3602 52.4856 28.9736 51.7417 28.846C50.9977 28.7184 50.2325 28.8578 49.5814 29.2398C48.9303 29.6217 48.4352 30.2216 48.1835 30.9332H46.8956C46.7836 29.3206 46.4082 27.7373 45.7843 26.246L43.8159 27.0687C44.791 29.4102 45.0488 31.9885 44.5567 34.4768C44.0647 36.965 42.8449 39.2512 41.052 41.0453C39.2591 42.8395 36.9738 44.061 34.4859 44.5548C31.998 45.0486 29.4195 44.7927 27.0772 43.8193L26.2561 45.7883C27.7445 46.4097 29.3244 46.7837 30.9334 46.8955V48.1834C30.2217 48.435 29.6218 48.9301 29.2399 49.5812C28.8579 50.2323 28.7185 50.9975 28.8461 51.7415C28.9738 52.4855 29.3603 53.1604 29.9375 53.6469C30.5146 54.1335 31.2452 54.4003 32 54.4003C32.7549 54.4003 33.4855 54.1335 34.0626 53.6469C34.6397 53.1604 35.0263 52.4855 35.154 51.7415C35.2816 50.9975 35.1421 50.2323 34.7602 49.5812C34.3782 48.9301 33.7784 48.435 33.0667 48.1834V46.8948C34.9625 46.7612 36.8149 46.2644 38.523 45.4313L39.1689 46.5501C38.6825 47.1227 38.4141 47.8488 38.411 48.6001C38.408 49.3514 38.6704 50.0796 39.1521 50.6561C39.6338 51.2327 40.3038 51.6205 41.0436 51.7512C41.7835 51.8818 42.5457 51.7468 43.1957 51.37C43.8457 50.9932 44.3417 50.3989 44.596 49.692C44.8504 48.9851 44.8468 48.211 44.5859 47.5064C44.325 46.8019 43.8236 46.2122 43.1701 45.8415C42.5167 45.4707 41.7532 45.3428 41.0146 45.4802L40.3689 44.3618C41.9398 43.2945 43.2947 41.9397 44.362 40.3687L45.482 41.0153C45.3619 41.6658 45.4459 42.3376 45.7227 42.9384C45.9994 43.5393 46.4553 44.0398 47.0277 44.3713C47.5358 44.6647 48.1148 44.8128 48.7013 44.7994C49.2879 44.786 49.8594 44.6116 50.3535 44.2953C50.8477 43.9789 51.2453 43.5329 51.503 43.0058C51.7607 42.4787 51.8686 41.891 51.8148 41.3067C51.761 40.7225 51.5476 40.1643 51.198 39.6932C50.8484 39.222 50.3759 38.8561 49.8324 38.6353C49.2888 38.4146 48.695 38.3475 48.1159 38.4414C47.5367 38.5353 46.9946 38.7867 46.5486 39.1679L45.4314 38.5229C46.2645 36.8148 46.7614 34.9624 46.8949 33.0666ZM51.2 30.9332C51.411 30.9332 51.6172 30.9958 51.7927 31.113C51.9681 31.2302 52.1048 31.3968 52.1855 31.5917C52.2663 31.7866 52.2874 32.0011 52.2462 32.208C52.2051 32.4149 52.1035 32.605 51.9543 32.7542C51.8051 32.9033 51.6151 33.0049 51.4081 33.0461C51.2012 33.0872 50.9868 33.0661 50.7919 32.9854C50.5969 32.9046 50.4304 32.7679 50.3131 32.5925C50.1959 32.4171 50.1334 32.2109 50.1334 31.9999C50.1337 31.7171 50.2462 31.446 50.4462 31.246C50.6461 31.0461 50.9172 30.9336 51.2 30.9332ZM41.8761 47.5973C42.1145 47.6612 42.3233 47.8057 42.4671 48.0063C42.6108 48.2069 42.6806 48.4512 42.6644 48.6974C42.6483 48.9437 42.5473 49.1767 42.3785 49.3568C42.2098 49.537 41.9839 49.653 41.7392 49.6852C41.4945 49.7174 41.2462 49.6638 41.0367 49.5334C40.8271 49.4031 40.6692 49.2041 40.5899 48.9704C40.5106 48.7367 40.5148 48.4828 40.6017 48.2518C40.6887 48.0208 40.853 47.8272 41.0668 47.7038C41.1879 47.6334 41.3218 47.5878 41.4608 47.5695C41.5997 47.5512 41.7408 47.5607 41.8761 47.5973ZM32 52.2666C31.7891 52.2666 31.5828 52.204 31.4074 52.0868C31.232 51.9696 31.0953 51.803 31.0146 51.6081C30.9338 51.4132 30.9127 51.1987 30.9539 50.9918C30.995 50.7849 31.0966 50.5948 31.2458 50.4456C31.395 50.2965 31.585 50.1949 31.7919 50.1537C31.9988 50.1126 32.2133 50.1337 32.4082 50.2144C32.6031 50.2952 32.7697 50.4319 32.8869 50.6073C33.0041 50.7827 33.0667 50.9889 33.0667 51.1999C33.0664 51.4827 32.9539 51.7538 32.7539 51.9538C32.554 52.1538 32.2828 52.2662 32 52.2666ZM47.704 41.0666C47.8094 40.8839 47.9667 40.7365 48.1559 40.6432C48.3452 40.5499 48.5578 40.5148 48.767 40.5423C48.9761 40.5699 49.1724 40.6588 49.331 40.7979C49.4897 40.937 49.6035 41.1201 49.6581 41.3238C49.7127 41.5276 49.7056 41.743 49.6378 41.9428C49.5699 42.1426 49.4444 42.3177 49.277 42.4462C49.1096 42.5746 48.9079 42.6505 48.6974 42.6643C48.4869 42.6781 48.277 42.6291 48.0943 42.5236C47.8496 42.3819 47.6711 42.149 47.5979 41.8758C47.5247 41.6027 47.5628 41.3116 47.704 41.0666Z" fill="#00A1E9"/>
<path d="M32 63.9999C25.671 63.9999 19.4842 62.1231 14.2218 58.6069C8.9594 55.0907 4.85788 50.093 2.43587 44.2458C0.0138644 38.3986 -0.619843 31.9645 0.614887 25.7571C1.84962 19.5497 4.89733 13.8479 9.37261 9.37259C12.3441 6.40112 15.8717 4.04402 19.7541 2.43587C23.6365 0.827715 27.7977 6.0981e-06 32 0C36.2023 -6.09803e-06 40.3634 0.82769 44.2458 2.43583C48.1283 4.04397 51.6559 6.40106 54.6274 9.37252C57.5989 12.344 59.956 15.8716 61.5641 19.754C63.1723 23.6364 64 27.7976 64 31.9999C64 36.2022 63.1723 40.3633 61.5642 44.2457C59.956 48.1281 57.5989 51.6558 54.6275 54.6272C51.6629 57.608 48.1366 59.9712 44.2526 61.5801C40.3686 63.1889 36.204 64.0114 32 63.9999ZM32 2.13327C26.093 2.13327 20.3186 3.88492 15.407 7.1667C10.4955 10.4485 6.66736 15.113 4.40682 20.5704C2.14628 26.0278 1.55482 32.033 2.70723 37.8266C3.85963 43.6201 6.70415 48.9418 10.8811 53.1188C13.6542 55.8931 16.9468 58.0939 20.5706 59.5956C24.1944 61.0973 28.0786 61.8704 32.0012 61.8708C35.9239 61.8712 39.8082 61.0989 43.4324 59.598C47.0565 58.097 50.3495 55.8969 53.1232 53.1231C55.897 50.3494 58.0971 47.0564 59.5981 43.4323C61.0991 39.8082 61.8714 35.9239 61.871 32.0012C61.8706 28.0786 61.0975 24.1944 59.5958 20.5706C58.0941 16.9467 55.8933 13.6542 53.119 10.8811C50.3521 8.09896 47.0608 5.8933 43.4358 4.39174C39.8107 2.89018 35.9238 2.12255 32 2.13327Z" fill="#00A1E9"/>
<path d="M11.696 50.3546C11.6819 50.3546 11.6678 50.3543 11.6536 50.3538C11.5065 50.3479 11.3622 50.3117 11.2298 50.2473C11.0974 50.183 10.9797 50.0919 10.8843 49.9798C6.61274 44.9628 4.26682 38.589 4.26668 31.9999C4.26668 16.7077 16.7078 4.26661 32 4.26661C38.5892 4.26675 44.963 6.61266 49.9801 10.8842C50.0921 10.9797 50.1831 11.0973 50.2475 11.2298C50.3118 11.3622 50.348 11.5065 50.3539 11.6536C50.3597 11.8007 50.3351 11.9474 50.2814 12.0845C50.2278 12.2216 50.1464 12.3461 50.0423 12.4502L12.4502 50.0422C12.2502 50.2422 11.9789 50.3546 11.696 50.3546ZM32 6.39994C17.8841 6.39994 6.40002 17.884 6.40002 31.9999C6.40034 37.6845 8.29206 43.2074 11.7771 47.6983L47.6984 11.777C43.2075 8.29198 37.6846 6.40026 32 6.39994Z" fill="#00A1E9"/>
<path d="M32 59.7332C25.4109 59.733 19.037 57.3871 14.02 53.1155C13.908 53.02 13.8169 52.9023 13.7526 52.7699C13.6883 52.6375 13.652 52.4932 13.6462 52.3461C13.6403 52.199 13.665 52.0523 13.7186 51.9152C13.7723 51.7781 13.8537 51.6536 13.9578 51.5495L51.5499 13.9576C51.6539 13.8535 51.7785 13.7721 51.9156 13.7184C52.0527 13.6648 52.1994 13.6402 52.3465 13.646C52.4936 13.6519 52.6379 13.6881 52.7703 13.7525C52.9027 13.8169 53.0203 13.9079 53.1158 14.02C57.3873 19.037 59.7332 25.4108 59.7334 31.9999C59.7334 47.2921 47.2922 59.7332 32 59.7332ZM16.3016 52.2227C20.7925 55.7078 26.3154 57.5996 32 57.5999C46.1159 57.5999 57.6001 46.1158 57.6001 31.9999C57.5997 26.3153 55.708 20.7925 52.223 16.3015L16.3016 52.2227Z" fill="#00A1E9"/>
</svg>
