<svg width="54" height="63" viewBox="0 0 54 63" fill="none" xmlns="http://www.w3.org/2000/svg">
<path d="M53.7642 22.6936C53.3458 15.6236 52.5021 9.35864 52.4936 9.29626C52.4671 9.1011 52.4029 8.91312 52.3045 8.74305C52.2061 8.57298 52.0755 8.42415 51.9202 8.30506C51.7649 8.18597 51.5879 8.09895 51.3993 8.04897C51.2107 7.99899 51.0142 7.98703 50.821 8.01377C50.6278 8.04051 50.4418 8.10543 50.2734 8.20482C50.1051 8.3042 49.9578 8.43612 49.8399 8.59303C49.722 8.74993 49.6359 8.92876 49.5864 9.1193C49.5369 9.30984 49.5251 9.50835 49.5515 9.70351C50.4692 16.467 52.2808 35.2494 49.678 40.8635C49.595 41.042 49.5477 41.2351 49.5386 41.4321C49.5296 41.629 49.5591 41.8258 49.6254 42.0112C49.6917 42.1966 49.7936 42.367 49.9251 42.5126C50.0567 42.6582 50.2153 42.7762 50.392 42.8598C50.5687 42.9434 50.76 42.991 50.955 42.9999C51.1499 43.0088 51.3446 42.9787 51.5281 42.9115C51.7115 42.8443 51.88 42.7412 52.024 42.6081C52.168 42.4751 52.2846 42.3146 52.3671 42.136C53.8662 38.9024 54.3363 32.3611 53.7642 22.6936Z" fill="#00A1E9"/>
<path d="M35.2131 54.28C31.7551 56.78 28.6596 58.8197 27.2637 59.7241C21.1618 55.7962 7.27971 46.094 4.85473 40.8635C4.31291 39.6949 3.92675 37.8454 3.70887 35.3668C3.69554 35.1676 3.64297 34.973 3.55425 34.7946C3.46553 34.6162 3.34244 34.4575 3.1922 34.3277C3.04196 34.198 2.8676 34.0999 2.67933 34.0391C2.49106 33.9783 2.29267 33.9562 2.09581 33.9739C1.89894 33.9916 1.70756 34.0488 1.53287 34.1422C1.35819 34.2356 1.20373 34.3633 1.07854 34.5178C0.953353 34.6724 0.859961 34.8506 0.80384 35.042C0.747719 35.2335 0.729999 35.4343 0.751719 35.6328C1.0045 38.5012 1.46725 40.6283 2.1662 42.136C3.63228 45.2985 8.19841 49.7474 15.7378 55.3596C21.249 59.4621 26.428 62.7392 26.4801 62.7721C26.7161 62.921 26.9887 63 27.2669 63C27.5452 63 27.8178 62.921 28.0537 62.7721C28.0944 62.7471 32.184 60.1596 36.9417 56.72C37.102 56.606 37.2384 56.4612 37.3431 56.2938C37.4477 56.1263 37.5184 55.9396 37.5513 55.7444C37.5841 55.5492 37.5784 55.3494 37.5344 55.1564C37.4904 54.9635 37.409 54.7812 37.2949 54.6202C37.1809 54.4592 37.0364 54.3226 36.8698 54.2182C36.7033 54.1139 36.5179 54.0439 36.3244 54.0123C36.1309 53.9807 35.9332 53.9882 35.7425 54.0342C35.5519 54.0802 35.3716 54.1635 35.2131 54.28Z" fill="#00A1E9"/>
<path d="M2.12813 24.9975C2.15601 24.999 2.18368 24.9998 2.21115 24.9998C2.59056 24.9995 2.95547 24.8524 3.23094 24.5888C3.50641 24.3253 3.67154 23.9651 3.69244 23.5824C3.98531 18.2156 4.54754 13.2132 4.82173 10.9586C13.5854 10.4223 24.3568 4.81298 27.2671 3.21423C28.2509 3.75273 30.1515 4.75785 32.5898 5.8791C32.7673 5.9607 32.9589 6.00618 33.1538 6.01296C33.3487 6.01974 33.5429 5.98768 33.7255 5.9186C33.9081 5.84953 34.0755 5.74479 34.218 5.61038C34.3606 5.47597 34.4755 5.31451 34.5563 5.13523C34.637 4.95594 34.6821 4.76234 34.6888 4.56547C34.6955 4.3686 34.6637 4.17233 34.5954 3.98785C34.527 3.80338 34.4233 3.63432 34.2903 3.49032C34.1572 3.34632 33.9974 3.23021 33.82 3.14861C30.4031 1.57761 28.0259 0.211117 28.0025 0.197492C27.7782 0.068071 27.5243 0 27.266 0C27.0076 0 26.7538 0.068071 26.5294 0.197492C26.3947 0.274867 12.8941 7.99984 3.51019 7.99984C3.15132 7.99984 2.80459 8.13115 2.53416 8.36947C2.26372 8.6078 2.08788 8.93702 2.03916 9.29621C2.03013 9.36284 1.12938 16.0526 0.727626 23.4172C0.705927 23.8144 0.841283 24.204 1.10392 24.5004C1.36656 24.7967 1.73498 24.9756 2.12813 24.9975Z" fill="#00A1E9"/>
<path d="M27.9354 9.6279C28.2842 9.44704 28.548 9.13416 28.6693 8.75755C28.7906 8.38093 28.7595 7.97113 28.5829 7.61757C28.4062 7.264 28.0984 6.99536 27.7264 6.87026C27.3544 6.74515 26.9486 6.77374 26.5974 6.94979C24.6867 7.92478 22.7458 8.83165 20.8288 9.64715C16.3292 11.5611 12.2123 12.8608 8.59288 13.5096C8.2756 13.5665 7.98525 13.7261 7.76566 13.9644C7.54607 14.2026 7.40917 14.5066 7.37562 14.8304C7.28802 15.6763 7.205 16.5279 7.12903 17.3617C7.09287 17.7579 7.21396 18.1523 7.46565 18.4582C7.71734 18.7642 8.07902 18.9566 8.47112 18.9931C8.51756 18.9975 8.56359 18.9997 8.60921 18.9996C8.97912 18.9992 9.33554 18.8592 9.60868 18.6072C9.88183 18.3552 10.052 18.0093 10.0859 17.6371C10.1277 17.1785 10.1717 16.7146 10.2174 16.2496C13.7737 15.5111 17.7246 14.2226 21.9812 12.4121C23.9608 11.5699 25.9641 10.6331 27.9354 9.6279Z" fill="#00A1E9"/>
<path d="M27.2663 52.5429C25.5676 51.3899 23.2957 49.8086 20.9649 48.0719C11.6814 41.1542 10.2861 38.4274 10.233 38.3185C10.1503 38.1401 10.0336 37.98 9.88965 37.8471C9.74566 37.7143 9.57718 37.6114 9.39383 37.5444C9.02354 37.4089 8.61517 37.4277 8.25855 37.5964C8.08197 37.68 7.92341 37.7979 7.79193 37.9433C7.66044 38.0888 7.5586 38.259 7.49223 38.4442C7.35818 38.8183 7.37672 39.2309 7.54376 39.5912C7.91075 40.3827 9.83599 43.507 19.202 50.4861C21.9814 52.5572 24.6745 54.4082 26.4444 55.5962C26.6879 55.7597 26.9737 55.8469 27.2661 55.8469C27.5584 55.8469 27.8443 55.7597 28.0878 55.5962C29.5026 54.6462 30.9016 53.6812 32.246 52.7272C32.5682 52.4985 32.7873 52.1498 32.855 51.7579C32.9228 51.3659 32.8336 50.9629 32.6072 50.6373C32.3808 50.3118 32.0356 50.0905 31.6476 50.022C31.2597 49.9536 30.8607 50.0436 30.5385 50.2724C29.4766 51.0264 28.3792 51.7879 27.2663 52.5429Z" fill="#00A1E9"/>
<path d="M47.4038 17.3624C47.3677 16.9662 47.1773 16.6008 46.8745 16.3464C46.5717 16.0921 46.1812 15.9697 45.7891 16.0061C45.397 16.0426 45.0352 16.2349 44.7835 16.5409C44.5317 16.8468 44.4105 17.2412 44.4466 17.6374C44.6262 19.6051 44.7704 21.5109 44.8755 23.3019C45.5789 35.2816 44.3507 38.2029 44.2995 38.3186C44.2168 38.497 44.1697 38.6901 44.1609 38.8869C44.152 39.0837 44.1817 39.2803 44.248 39.4655C44.3144 39.6507 44.4163 39.8209 44.5478 39.9664C44.6793 40.1119 44.8378 40.2298 45.0144 40.3133C45.191 40.3969 45.3822 40.4445 45.577 40.4534C45.7718 40.4623 45.9664 40.4324 46.1497 40.3653C46.3331 40.2982 46.5016 40.1953 46.6455 40.0625C46.7895 39.9297 46.9062 39.7695 46.9889 39.5911C47.3673 38.7748 48.5479 35.1739 47.8399 23.1249C47.733 21.301 47.5863 19.3624 47.4038 17.3624Z" fill="#00A1E9"/>
<path d="M32.7104 39.4997V34.9997H37.1647C37.5585 34.9997 37.9361 34.8417 38.2146 34.5604C38.493 34.2791 38.6495 33.8975 38.6495 33.4997V25.4997C38.6495 25.1019 38.493 24.7204 38.2146 24.4391C37.9361 24.1578 37.5585 23.9997 37.1647 23.9997H32.7104V19.4998C32.7104 19.1019 32.554 18.7204 32.2755 18.4391C31.9971 18.1578 31.6194 17.9998 31.2257 17.9998H23.3069C22.9132 17.9998 22.5355 18.1578 22.2571 18.4391C21.9786 18.7204 21.8222 19.1019 21.8222 19.4998V23.9997H17.3679C16.9741 23.9997 16.5965 24.1578 16.318 24.4391C16.0396 24.7204 15.8831 25.1019 15.8831 25.4997V33.4997C15.8831 33.8975 16.0396 34.2791 16.318 34.5604C16.5965 34.8417 16.9741 34.9997 17.3679 34.9997H21.8222V39.4997C21.8222 39.8975 21.9786 40.279 22.2571 40.5603C22.5355 40.8416 22.9132 40.9997 23.3069 40.9997H31.2257C31.6194 40.9997 31.9971 40.8416 32.2755 40.5603C32.554 40.279 32.7104 39.8975 32.7104 39.4997ZM29.7409 33.4997V37.9997H24.7917V33.4997C24.7917 33.1019 24.6353 32.7203 24.3568 32.439C24.0784 32.1577 23.7007 31.9997 23.3069 31.9997H18.8527V26.9997H23.3069C23.7007 26.9997 24.0784 26.8417 24.3568 26.5604C24.6353 26.2791 24.7917 25.8976 24.7917 25.4997V20.9997H29.7409V25.4997C29.7409 25.8976 29.8973 26.2791 30.1758 26.5604C30.4542 26.8417 30.8319 26.9997 31.2257 26.9997H35.6799V31.9997H31.2257C30.8319 31.9997 30.4542 32.1577 30.1758 32.439C29.8973 32.7203 29.7409 33.1019 29.7409 33.4997Z" fill="#00A1E9"/>
<path d="M31.7206 11.4998C31.7206 11.8976 31.877 12.2791 32.1555 12.5604C32.4339 12.8417 32.8116 12.9998 33.2053 12.9998C34.3863 13.0011 35.5185 13.4756 36.3535 14.3192C37.1886 15.1629 37.6583 16.3067 37.6596 17.4998C37.6596 17.8976 37.816 18.2791 38.0945 18.5604C38.3729 18.8417 38.7506 18.9998 39.1444 18.9998C39.5382 18.9998 39.9158 18.8417 40.1943 18.5604C40.4727 18.2791 40.6291 17.8976 40.6291 17.4998C40.6304 16.3067 41.1002 15.1629 41.9352 14.3192C42.7703 13.4756 43.9025 13.0011 45.0834 12.9998H45.1292C45.523 12.9998 45.9006 12.8417 46.1791 12.5604C46.4575 12.2791 46.6139 11.8976 46.6139 11.4998C46.6139 11.102 46.4575 10.7204 46.1791 10.4391C45.9006 10.1578 45.523 9.99978 45.1292 9.99978C43.9482 9.99846 42.816 9.52393 41.981 8.6803C41.1459 7.83668 40.6762 6.69286 40.6749 5.4998C40.6749 5.10197 40.5185 4.72044 40.24 4.43914C39.9616 4.15784 39.5839 3.9998 39.1902 3.9998H39.1444C38.7506 3.9998 38.3729 4.15784 38.0945 4.43914C37.816 4.72044 37.6596 5.10197 37.6596 5.4998C37.6583 6.69286 37.1886 7.83668 36.3535 8.6803C35.5185 9.52393 34.3863 9.99846 33.2053 9.99978C32.8116 9.99978 32.4339 10.1578 32.1555 10.4391C31.877 10.7204 31.7206 11.102 31.7206 11.4998ZM39.1673 9.96416C39.5901 10.539 40.0916 11.0501 40.6567 11.4824C40.0832 11.9142 39.5739 12.4268 39.1444 13.0045C38.7206 12.4345 38.2191 11.9279 37.6549 11.4998C38.2294 11.0639 38.7387 10.5467 39.1673 9.96416Z" fill="#00A1E9"/>
<path d="M45.1292 43.9997C43.9482 43.9983 42.816 43.5238 41.981 42.6802C41.1459 41.8366 40.6762 40.6927 40.6749 39.4997C40.6749 39.1018 40.5185 38.7203 40.24 38.439C39.9616 38.1577 39.5839 37.9997 39.1902 37.9997H39.1444C38.7506 37.9997 38.3729 38.1577 38.0945 38.439C37.816 38.7203 37.6596 39.1018 37.6596 39.4997C37.6583 40.6927 37.1886 41.8366 36.3535 42.6802C35.5185 43.5238 34.3863 43.9983 33.2053 43.9997C32.8116 43.9997 32.4339 44.1577 32.1555 44.439C31.877 44.7203 31.7206 45.1018 31.7206 45.4996C31.7206 45.8975 31.877 46.279 32.1555 46.5603C32.4339 46.8416 32.8116 46.9996 33.2053 46.9996C34.3863 47.001 35.5185 47.4755 36.3535 48.3191C37.1886 49.1627 37.6583 50.3066 37.6596 51.4996C37.6596 51.8975 37.816 52.279 38.0945 52.5603C38.3729 52.8416 38.7506 52.9996 39.1444 52.9996C39.5382 52.9996 39.9158 52.8416 40.1943 52.5603C40.4727 52.279 40.6291 51.8975 40.6291 51.4996C40.6304 50.3066 41.1002 49.1627 41.9352 48.3191C42.7703 47.4755 43.9025 47.001 45.0834 46.9996H45.1292C45.523 46.9996 45.9006 46.8416 46.1791 46.5603C46.4575 46.279 46.6139 45.8975 46.6139 45.4996C46.6139 45.1018 46.4575 44.7203 46.1791 44.439C45.9006 44.1577 45.523 43.9997 45.1292 43.9997ZM39.1444 47.0044C38.7206 46.4344 38.2191 45.9278 37.6549 45.4996C38.2294 45.0637 38.7387 44.5466 39.1673 43.964C39.5901 44.5388 40.0916 45.05 40.6567 45.4823C40.0832 45.9141 39.5739 46.4266 39.1444 47.0044Z" fill="#00A1E9"/>
<path d="M5.93904 35.4997C5.93904 35.8975 6.09547 36.2791 6.37392 36.5604C6.65236 36.8417 7.03001 36.9997 7.4238 36.9997C7.81758 36.9997 8.19524 36.8417 8.47368 36.5604C8.75213 36.2791 8.90856 35.8975 8.90856 35.4997C8.9099 34.3067 9.37962 33.1629 10.2147 32.3193C11.0497 31.4756 12.1819 31.0011 13.3628 30.9997H13.4086C13.8024 30.9997 14.1801 30.8417 14.4585 30.5604C14.7369 30.2791 14.8934 29.8976 14.8934 29.4997C14.8934 29.1019 14.7369 28.7204 14.4585 28.4391C14.1801 28.1578 13.8024 27.9998 13.4086 27.9998C12.2277 27.9984 11.0955 27.5239 10.2604 26.6803C9.42536 25.8366 8.95565 24.6928 8.95434 23.4998C8.95434 23.1019 8.79791 22.7204 8.51946 22.4391C8.24102 22.1578 7.86336 21.9998 7.46958 21.9998H7.44669C7.24979 21.9967 7.05425 22.0332 6.87146 22.1072C6.68867 22.1813 6.52228 22.2913 6.38198 22.4309C6.24167 22.5704 6.13025 22.7368 6.05421 22.9204C5.97817 23.1039 5.93902 23.3008 5.93904 23.4998C5.93773 24.6928 5.46802 25.8366 4.63296 26.6803C3.79791 27.5239 2.66571 27.9984 1.48476 27.9998C1.09098 27.9998 0.713322 28.1578 0.434876 28.4391C0.156429 28.7204 0 29.1019 0 29.4997C0 29.8976 0.156429 30.2791 0.434876 30.5604C0.713322 30.8417 1.09098 30.9997 1.48476 30.9997C2.66571 31.0011 3.79791 31.4756 4.63296 32.3192C5.46802 33.1628 5.93773 34.3067 5.93904 35.4997ZM7.44669 27.9641C7.8695 28.539 8.37104 29.0502 8.93627 29.4824C8.36271 29.9141 7.85337 30.4267 7.4238 31.0045C7.00005 30.4345 6.49864 29.9279 5.93446 29.4997C6.50884 29.0638 7.01813 28.5466 7.44669 27.9641Z" fill="#00A1E9"/>
</svg>
