<svg width="16" height="16" viewBox="0 0 16 16" fill="none" xmlns="http://www.w3.org/2000/svg">
<path d="M8 0C3.5875 0 0 3.5875 0 8C0 12.4125 3.5875 16 8 16C12.4125 16 16 12.4125 16 8C16 3.5875 12.4125 0 8 0ZM8 14.8313C4.23125 14.8313 1.16875 11.7656 1.16875 8C1.16875 4.23438 4.23125 1.16875 8 1.16875C11.7688 1.16875 14.8313 4.23125 14.8313 8C14.8313 11.7656 11.7656 14.8313 8 14.8313Z" fill="#D0D0D0"/>
<path d="M10.725 8H8.19375V4.49687C8.19375 4.175 7.93125 3.9125 7.60938 3.9125C7.2875 3.9125 7.025 4.175 7.025 4.49687V8.58438C7.025 8.90625 7.2875 9.16875 7.60938 9.16875H10.725C11.0469 9.16875 11.3094 8.90625 11.3094 8.58438C11.3094 8.2625 11.0469 8 10.725 8Z" fill="#D0D0D0"/>
</svg>
