<svg width="10" height="13" viewBox="0 0 10 13" fill="none" xmlns="http://www.w3.org/2000/svg">
<path d="M5.00026 6.35793C6.46205 6.35793 7.64717 4.93467 7.64717 3.17898C7.64717 1.42326 7.25808 0 5.00026 0C2.74244 0 2.35327 1.42326 2.35327 3.17898C2.35327 4.93467 3.5384 6.35793 5.00026 6.35793Z" fill="#B4B4B4"/>
<path d="M10.0002 11.2113C9.9997 11.1042 9.99925 11.1811 10.0002 11.2113V11.2113Z" fill="#B4B4B4"/>
<path d="M0 11.2955C0.00141648 11.2662 0.000484586 11.0922 0 11.2955V11.2955Z" fill="#B4B4B4"/>
<path d="M9.99405 11.0832C9.94503 8.02471 9.54106 7.15322 6.44975 6.60156C6.44975 6.60156 6.01461 7.14984 5.00036 7.14984C3.98612 7.14984 3.5509 6.60156 3.5509 6.60156C0.493326 7.1472 0.0647894 8.00577 0.00844253 10.9838C0.00382208 11.227 0.00168091 11.2398 0.000854492 11.2115C0.00104232 11.2644 0.00126762 11.3623 0.00126762 11.5329C0.00126762 11.5329 0.737233 12.9999 5.00036 12.9999C9.26342 12.9999 9.99946 11.5329 9.99946 11.5329C9.99946 11.4233 9.99953 11.347 9.99965 11.2952C9.99882 11.3126 9.99717 11.2788 9.99405 11.0832Z" fill="#B4B4B4"/>
</svg>
