<svg width="18" height="15" viewBox="0 0 18 15" fill="none" xmlns="http://www.w3.org/2000/svg">
<path d="M16.4488 1.97754H15.2622V0.988772C15.2622 0.443531 14.8187 0 14.2735 0H12.9551C12.4099 0 11.9663 0.443531 11.9663 0.988772V1.97754H6.03371V0.988772C6.03371 0.443531 5.59017 0 5.04493 0H3.72657C3.18133 0 2.7378 0.443531 2.7378 0.988772V1.97754H1.55127C1.00603 1.97754 0.5625 2.42108 0.5625 2.96632V3.6255C0.5625 4.17074 1.00603 4.61427 1.55127 4.61427V11.8653C1.00603 11.8653 0.5625 12.3088 0.5625 12.854V13.5132C0.5625 14.0585 1.00603 14.502 1.55127 14.502H7.51686C7.69891 14.502 7.84645 14.3544 7.84645 14.1724C7.84645 13.9904 7.69891 13.8428 7.51686 13.8428H1.55127C1.36948 13.8428 1.22168 13.695 1.22168 13.5132V12.854C1.22168 12.6722 1.36948 12.5244 1.55127 12.5244H16.4488C16.6306 12.5244 16.7784 12.6722 16.7784 12.854V13.5132C16.7784 13.695 16.6306 13.8428 16.4488 13.8428H10.4832C10.3011 13.8428 10.1536 13.9904 10.1536 14.1724C10.1536 14.3544 10.3011 14.502 10.4832 14.502H16.4488C16.994 14.502 17.4375 14.0585 17.4375 13.5132V12.854C17.4375 12.3088 16.994 11.8653 16.4488 11.8653V4.61427C16.994 4.61427 17.4375 4.17074 17.4375 3.6255V2.96632C17.4375 2.42108 16.994 1.97754 16.4488 1.97754ZM12.6255 0.988772C12.6255 0.806982 12.7733 0.659181 12.9551 0.659181H14.2735C14.4553 0.659181 14.6031 0.806982 14.6031 0.988772V1.97754H12.6255V0.988772ZM3.39698 0.988772C3.39698 0.806982 3.54478 0.659181 3.72657 0.659181H5.04493C5.22672 0.659181 5.37452 0.806982 5.37452 0.988772V1.97754H3.39698V0.988772ZM15.7896 11.8653H2.21045V4.61427H15.7896V11.8653ZM16.7784 3.6255C16.7784 3.80729 16.6306 3.95509 16.4488 3.95509H1.55127C1.36948 3.95509 1.22168 3.80729 1.22168 3.6255V2.96632C1.22168 2.78453 1.36948 2.63673 1.55127 2.63673H16.4488C16.6306 2.63673 16.7784 2.78453 16.7784 2.96632V3.6255Z" fill="#D79558"/>
<path d="M4.05615 8.56934H4.71533V9.22852C4.71533 9.41057 4.86288 9.55811 5.04493 9.55811C5.22697 9.55811 5.37452 9.41057 5.37452 9.22852V8.56934H6.0337C6.21574 8.56934 6.36329 8.4218 6.36329 8.23975C6.36329 8.0577 6.21574 7.91016 6.0337 7.91016H5.37452V7.25098C5.37452 7.06893 5.22697 6.92139 5.04493 6.92139C4.86288 6.92139 4.71533 7.06893 4.71533 7.25098V7.91016H4.05615C3.87411 7.91016 3.72656 8.0577 3.72656 8.23975C3.72656 8.4218 3.87411 8.56934 4.05615 8.56934Z" fill="#D79558"/>
<path d="M11.9663 8.56935H13.9439C14.1259 8.56935 14.2734 8.42181 14.2734 8.23976C14.2734 8.05771 14.1259 7.91017 13.9439 7.91017H11.9663C11.7843 7.91017 11.6367 8.05771 11.6367 8.23976C11.6367 8.42181 11.7843 8.56935 11.9663 8.56935Z" fill="#D79558"/>
<path d="M7.20461 8.20504L8.31054 8.75788L8.01455 10.8299C7.99318 10.9789 8.07558 11.1233 8.21475 11.181C8.35277 11.2383 8.51357 11.1954 8.60447 11.0743L10.582 8.43756C10.6407 8.35941 10.6616 8.25911 10.6392 8.1641C10.6166 8.06895 10.5532 7.98875 10.4658 7.94497L9.32957 7.37694V5.60308C9.32957 5.45978 9.237 5.33297 9.10053 5.28919C8.96418 5.24542 8.8151 5.29499 8.7318 5.4115L7.08384 7.71864C7.02784 7.79704 7.00891 7.89605 7.03222 7.98965C7.05539 8.08312 7.11835 8.16191 7.20461 8.20504ZM8.67038 6.6315V7.58062C8.67038 7.7055 8.74094 7.81957 8.85256 7.87545L9.81764 8.35799L8.84896 9.64957L8.99663 8.616C9.01671 8.47554 8.94461 8.33803 8.81767 8.27456L7.84435 7.7879L8.67038 6.6315Z" fill="#D79558"/>
<path d="M9.32959 14.1724C9.32959 14.3545 9.18205 14.502 9 14.502C8.81795 14.502 8.67041 14.3545 8.67041 14.1724C8.67041 13.9904 8.81795 13.8428 9 13.8428C9.18205 13.8428 9.32959 13.9904 9.32959 14.1724Z" fill="#D79558"/>
</svg>
