<svg width="17" height="14" viewBox="0 0 17 14" fill="none" xmlns="http://www.w3.org/2000/svg">
<path d="M16.704 3.15348L11.035 0.0406517C10.9363 -0.0135506 10.8165 -0.0135506 10.7178 0.0406517L8.586 1.21121C8.53785 1.2246 8.49292 1.24919 8.45481 1.28318L5.04882 3.15348C4.94338 3.21142 4.87785 3.32214 4.87785 3.44239V4.11625H1.0752C0.893149 4.11625 0.745605 4.26392 0.745605 4.44584C0.745605 4.62788 0.893149 4.77543 1.0752 4.77543H4.87785V5.96195H2.98824C2.80619 5.96195 2.65865 6.10963 2.65865 6.29154C2.65865 6.47359 2.80619 6.62114 2.98824 6.62114H4.87785V8.33501H2.10929C1.92724 8.33501 1.7797 8.48268 1.7797 8.6646C1.7797 8.84664 1.92724 8.99419 2.10929 8.99419H4.87785V9.66817C4.87785 9.78842 4.94338 9.89915 5.04882 9.95708L10.7178 13.0699C10.7672 13.0971 10.8218 13.1106 10.8764 13.1106C10.931 13.1106 10.9856 13.0971 11.035 13.0699L16.704 9.95708C16.8094 9.89915 16.8749 9.78842 16.8749 9.66817V8.19223C16.8749 8.01031 16.7274 7.86264 16.5454 7.86264C16.3633 7.86264 16.2158 8.01031 16.2158 8.19223V9.47312L11.206 12.224V6.75027L12.7992 5.87544V7.26384C12.7992 7.38048 12.8608 7.48837 12.9611 7.54759C13.0127 7.57811 13.0708 7.59343 13.1288 7.59343C13.1834 7.59343 13.2381 7.57991 13.2877 7.55262L14.5025 6.88404C14.6077 6.8261 14.6731 6.71551 14.6731 6.59526V4.8465L16.2158 3.99947V5.5555C16.2158 5.73755 16.3633 5.88509 16.5454 5.88509C16.7274 5.88509 16.8749 5.73755 16.8749 5.5555V3.44239C16.8749 3.32214 16.8094 3.21142 16.704 3.15348ZM10.5468 12.224L5.53703 9.47312V3.99947L10.5468 6.75027V12.224ZM10.8764 6.17928L5.89224 3.44239L7.4587 2.58223L12.443 5.31912L10.8764 6.17928ZM13.1278 4.94306L8.1435 2.20617L8.68385 1.90953L13.668 4.64642L13.1278 4.94306ZM14.0139 6.40046L13.4584 6.70624V5.51353L14.0139 5.2084V6.40046ZM14.3528 4.27036L9.36865 1.53347L10.8764 0.705627L15.8606 3.44239L14.3528 4.27036Z" fill="#D79558"/>
<path d="M16.5454 6.5444C16.4588 6.5444 16.3737 6.57929 16.3124 6.64096C16.2511 6.70224 16.2158 6.78695 16.2158 6.87399C16.2158 6.96063 16.2511 7.04573 16.3124 7.10702C16.3737 7.1683 16.4588 7.20358 16.5454 7.20358C16.6321 7.20358 16.7172 7.1683 16.7784 7.10702C16.8397 7.04573 16.875 6.96063 16.875 6.87399C16.875 6.78695 16.8397 6.70224 16.7784 6.64096C16.7172 6.57929 16.6321 6.5444 16.5454 6.5444Z" fill="#D79558"/>
<path d="M0.801961 8.33501H0.329591C0.147543 8.33501 0 8.48269 0 8.66461C0 8.84665 0.147543 8.9942 0.329591 8.9942H0.801961C0.984008 8.9942 1.13155 8.84665 1.13155 8.66461C1.13155 8.48269 0.984008 8.33501 0.801961 8.33501Z" fill="#D79558"/>
<path d="M2 6.29154C2 6.20489 1.96473 6.11992 1.90331 6.05863C1.84203 5.99722 1.75706 5.96194 1.67041 5.96194C1.58364 5.96194 1.49866 5.99722 1.43738 6.05863C1.37571 6.11992 1.34082 6.20489 1.34082 6.29154C1.34082 6.37831 1.37571 6.46328 1.43738 6.52457C1.49866 6.58585 1.58364 6.62113 1.67041 6.62113C1.75706 6.62113 1.84203 6.58598 1.90331 6.52457C1.96473 6.46328 2 6.37831 2 6.29154Z" fill="#D79558"/>
</svg>
