<svg width="10" height="10" viewBox="0 0 10 10" fill="none" xmlns="http://www.w3.org/2000/svg">
<path d="M9.19758 6.56385C8.58534 6.56385 7.9842 6.4681 7.41454 6.27984C7.1354 6.18464 6.79225 6.27198 6.62188 6.44695L5.49749 7.29576C4.1935 6.59969 3.39028 5.79672 2.70372 4.50253L3.52754 3.40742C3.74158 3.19367 3.81835 2.88143 3.72637 2.58846C3.53731 2.01581 3.44127 1.41495 3.44127 0.802448C3.44129 0.359974 3.08132 0 2.63887 0H0.80242C0.359973 0 0 0.359974 0 0.802422C0 5.87404 4.12598 10 9.19758 10C9.64003 10 10 9.64003 10 9.19758V7.36625C9.99997 6.92383 9.64 6.56385 9.19758 6.56385Z" fill="white"/>
</svg>
