<svg width="17" height="17" viewBox="0 0 17 17" fill="none" xmlns="http://www.w3.org/2000/svg">
<path d="M14.5287 2.4713C12.9351 0.877647 10.8162 0 8.56252 0C6.33665 0 4.17028 0.897424 2.5963 2.4713C1.00265 4.06492 0.125 6.18376 0.125 8.43752C0.125 9.96493 0.537511 11.4614 1.31788 12.7651C1.54361 13.142 2.13103 12.7911 1.90503 12.4136C1.24308 11.3078 0.86958 10.0506 0.816237 8.75936H2.80916C2.99769 8.75936 3.15064 8.60689 3.15132 8.41839C3.15594 7.08396 3.65068 5.80369 4.54434 4.8134C5.56939 3.67753 7.03398 3.02608 8.56252 3.02608C10.0079 3.02608 11.3668 3.58901 12.3888 4.61119C12.7306 4.95301 13.0229 5.33561 13.2611 5.75185L12.2529 6.03684C11.8118 6.16152 12.0298 6.82771 12.4715 6.6862L9.87016 8.33189C9.84515 8.01957 9.71044 7.73787 9.50449 7.52528L9.78863 7.44494C10.2114 7.32542 10.0258 6.66659 9.60246 6.78645L8.32917 7.14647C7.71656 7.25692 7.25022 7.7936 7.25022 8.43755C7.25022 9.16113 7.83891 9.74982 8.56252 9.74982C8.89651 9.74982 9.20161 9.62421 9.4335 9.41799L13.6959 6.72137C13.8782 7.2663 13.9717 7.83552 13.9737 8.41843C13.9744 8.60693 14.1273 8.75939 14.3159 8.75939H16.3087C16.2296 10.7095 15.4331 12.5316 14.0449 13.9199C12.5805 15.3843 10.6335 16.1908 8.56252 16.1908C6.73838 16.1908 4.96643 15.5449 3.57314 14.3723C3.237 14.0894 2.79585 14.6125 3.13247 14.8958C4.64897 16.1722 6.57743 16.8751 8.56252 16.8751C10.8162 16.8751 12.9351 15.9974 14.5287 14.4038C16.1224 12.8101 17 10.6913 17 8.43755C17 6.1838 16.1224 4.06492 14.5287 2.4713ZM7.93455 8.43752C7.93455 8.09129 8.21625 7.80958 8.56252 7.80958C8.90879 7.80958 9.19049 8.09129 9.19049 8.43752C9.19049 8.78375 8.90879 9.06546 8.56252 9.06546C8.21625 9.06546 7.93455 8.78375 7.93455 8.43752ZM2.47771 8.07503H0.817982C0.895926 6.39844 1.5137 4.79766 2.5819 3.50402L3.81413 4.61543C3.01898 5.60226 2.55264 6.80948 2.47771 8.07503ZM4.27266 4.10739L3.0404 2.99597C4.04516 1.97616 5.32847 1.24328 6.72001 0.903822C9.22046 0.302745 11.8994 0.980911 13.7974 2.71875L12.6241 3.89196C11.5055 2.8898 10.0761 2.34176 8.56249 2.34176C6.95487 2.34173 5.41025 2.98126 4.27266 4.10739ZM14.2813 3.20264C14.9616 3.94452 15.4964 4.81666 15.8433 5.76191C16.1174 6.5131 16.245 7.28149 16.3072 8.075H14.6475C14.6129 7.48118 14.4929 6.90172 14.2896 6.34568L14.8271 6.0056C15.1514 5.80041 14.9205 5.28254 14.5512 5.38718L13.9372 5.56072C13.7086 5.13418 13.4312 4.7372 13.108 4.37592L14.2813 3.20264Z" fill="#D79558"/>
<path d="M10.303 13.9275C10.9519 13.9275 11.4799 13.3996 11.4799 12.7506C11.4799 12.1017 10.9519 11.5737 10.303 11.5737H6.82244C6.17346 11.5737 5.64551 12.1017 5.64551 12.7506C5.64551 13.3996 6.1735 13.9275 6.82244 13.9275H10.303ZM6.32983 12.7506C6.32983 12.4789 6.55084 12.258 6.82244 12.258H10.303C10.5746 12.258 10.7956 12.4789 10.7956 12.7506C10.7956 13.0222 10.5746 13.2432 10.303 13.2432H6.82244C6.55084 13.2432 6.32983 13.0222 6.32983 12.7506Z" fill="#D79558"/>
<path d="M10.8819 7.0035C11.1683 7.12291 11.4577 6.81062 11.3182 6.53391C11.1769 6.25358 10.7488 6.30631 10.6791 6.61278C10.6428 6.77271 10.7298 6.94119 10.8819 7.0035Z" fill="#D79558"/>
<path d="M2.68797 13.5566C2.61625 13.3845 2.4141 13.3003 2.24145 13.3715C2.06934 13.4426 1.98459 13.6463 2.05634 13.8184C2.12809 13.9905 2.33031 14.0747 2.50286 14.0035C2.675 13.9324 2.75962 13.7286 2.68797 13.5566Z" fill="#D79558"/>
</svg>
