<svg width="31" height="31" viewBox="0 0 31 31" fill="none" xmlns="http://www.w3.org/2000/svg">
<path d="M26.8753 13.0169C26.9125 8.64831 23.1917 4.64344 18.5811 4.08964C18.4894 4.07876 18.3895 4.06221 18.2838 4.0447C18.0555 4.00688 17.8194 3.968 17.5813 3.968C16.6363 3.968 16.3837 4.63179 16.3172 5.02768C16.2525 5.4126 16.3142 5.73583 16.5002 5.98882C16.8132 6.41434 17.3638 6.48988 17.8061 6.55041C17.9357 6.56831 18.058 6.58496 18.1604 6.60796C22.3029 7.53359 23.6977 8.98886 24.3794 13.0961C24.396 13.1965 24.4036 13.3201 24.4115 13.4513C24.4413 13.9423 24.5032 14.9637 25.6014 14.9637H25.6015C25.6929 14.9637 25.7912 14.9558 25.8935 14.9403C26.9161 14.7848 26.8841 13.8511 26.8687 13.4025C26.8643 13.2762 26.8602 13.1566 26.8709 13.0772C26.8738 13.0571 26.8752 13.037 26.8753 13.0169Z" fill="white"/>
<path d="M17.3129 2.48604C17.4356 2.49489 17.5517 2.50336 17.6485 2.51818C24.4508 3.56428 27.5791 6.78719 28.4461 13.6428C28.4608 13.7593 28.4631 13.9014 28.4655 14.0519C28.4741 14.5875 28.492 15.7018 29.6886 15.7249L29.7257 15.7253C30.101 15.7253 30.3995 15.6121 30.613 15.3886C30.9855 14.999 30.9596 14.4202 30.9386 13.955C30.9335 13.8409 30.9286 13.7334 30.9298 13.6393C31.0163 6.62784 24.9472 0.269876 17.942 0.0334412C17.9129 0.0324789 17.8852 0.0340186 17.8572 0.037964C17.8434 0.0399848 17.8179 0.0424867 17.7742 0.0424867C17.7044 0.0424867 17.6184 0.0364243 17.5273 0.0302656C17.4171 0.0227598 17.2922 0.0140991 17.1656 0.0140991C16.05 0.0140991 15.8379 0.807028 15.8108 1.27971C15.7482 2.3721 16.805 2.44899 17.3129 2.48604Z" fill="white"/>
<path d="M28.1176 22.5032C27.973 22.3927 27.8234 22.2784 27.6834 22.1656C26.9407 21.5679 26.1506 21.017 25.3864 20.4842C25.2278 20.3737 25.0692 20.2631 24.9112 20.1523C23.9324 19.4647 23.0524 19.1306 22.2209 19.1306C21.1011 19.1306 20.1248 19.7494 19.319 20.9695C18.962 21.5104 18.5288 21.7734 17.995 21.7734C17.6794 21.7734 17.3208 21.6833 16.9292 21.5056C13.7697 20.0728 11.5136 17.8761 10.2235 14.9764C9.59981 13.5749 9.80199 12.6588 10.8996 11.9132C11.5229 11.4902 12.683 10.7027 12.6008 9.19457C12.5078 7.48198 8.72903 2.32899 7.13692 1.74373C6.46283 1.49584 5.75459 1.49353 5.02806 1.73795C3.19778 2.35324 1.88434 3.4338 1.22941 4.86261C0.596506 6.24322 0.625086 7.86429 1.31207 9.55061C3.29805 14.4262 6.09023 18.677 9.61136 22.1848C13.0579 25.6187 17.294 28.4315 22.2019 30.5448C22.6443 30.7351 23.1083 30.8389 23.4471 30.9147C23.5626 30.9406 23.6623 30.9628 23.7349 30.9827C23.7749 30.9936 23.816 30.9994 23.8573 30.9998L23.8961 31C23.8962 31 23.8961 31 23.8963 31C26.2046 31 28.9763 28.8907 29.8276 26.4859C30.5734 24.3802 29.2117 23.3394 28.1176 22.5032Z" fill="white"/>
<path d="M18.3337 8.05541C17.9385 8.06542 17.116 8.08582 16.8274 8.92349C16.6924 9.31495 16.7086 9.65483 16.8755 9.93371C17.1205 10.3429 17.5899 10.4683 18.0169 10.5371C19.5653 10.7855 20.3606 11.6418 20.5196 13.2315C20.5935 13.9727 21.0927 14.4904 21.7336 14.4904H21.7337C21.781 14.4904 21.8294 14.4876 21.8776 14.4817C22.6484 14.39 23.0221 13.8237 22.9883 12.7986C23.0006 11.7289 22.4407 10.5144 21.4886 9.54696C20.5331 8.57658 19.3813 8.0301 18.3337 8.05541Z" fill="white"/>
</svg>
