<svg width="17" height="17" viewBox="0 0 17 17" fill="none" xmlns="http://www.w3.org/2000/svg">
<path d="M16.3053 7.04997L16.0883 6.88762C15.8179 6.68523 15.722 6.32706 15.8548 6.01666L15.9617 5.76753C16.1788 5.26066 16.1452 4.69612 15.8695 4.21873C15.5938 3.74121 15.1218 3.42978 14.5742 3.3645L14.3051 3.33232C13.9698 3.29228 13.7075 3.03002 13.6675 2.69477L13.6354 2.42556C13.57 1.87814 13.2586 1.40603 12.7812 1.13038C12.3037 0.854612 11.7391 0.821009 11.2324 1.0382L10.9831 1.14493C10.6727 1.27793 10.3146 1.18188 10.1122 0.911517L9.94981 0.694581C9.61945 0.253113 9.11387 0 8.56246 0C8.01104 0 7.50546 0.253113 7.1751 0.694581L7.01262 0.911517C6.81023 1.18201 6.45219 1.27793 6.14166 1.14493L5.89253 1.0382C5.38566 0.821138 4.82112 0.854612 4.34373 1.13038C3.86621 1.40603 3.55478 1.87814 3.4895 2.42556L3.45732 2.69464C3.41728 3.03002 3.15502 3.29228 2.81964 3.33232L2.55056 3.3645C2.00314 3.42978 1.53103 3.74121 1.25538 4.21873C0.979612 4.69612 0.946138 5.26066 1.1632 5.76753L1.26993 6.01666C1.40293 6.32706 1.30688 6.68523 1.03652 6.88762L0.819581 7.04997C0.378242 7.38033 0.125 7.88604 0.125 8.43733C0.125 8.98874 0.378242 9.49445 0.819581 9.82481L1.03665 9.98716C1.30701 10.1896 1.40293 10.5477 1.27006 10.8581L1.1632 11.1072C0.946138 11.6141 0.97974 12.1787 1.25538 12.6561C1.53116 13.1336 2.00314 13.445 2.55069 13.5103L2.81977 13.5425C3.15515 13.5825 3.4174 13.8448 3.45744 14.18L3.4895 14.4492C3.5549 14.9966 3.86634 15.4688 4.34373 15.7444C4.82124 16.02 5.38579 16.0536 5.89253 15.8366L6.14179 15.7298C6.45219 15.5969 6.81036 15.6929 7.01275 15.9633L7.1751 16.1802C7.50546 16.6217 8.01117 16.8749 8.56258 16.8749C9.11387 16.8749 9.61958 16.6217 9.94994 16.1802L10.1123 15.9633C10.3147 15.6929 10.6727 15.5969 10.9834 15.73L11.2325 15.8366C11.7392 16.0536 12.3038 16.0202 12.7813 15.7445C13.2587 15.4688 13.5701 14.9966 13.6355 14.4492L13.6676 14.1801C13.7076 13.8448 13.9699 13.5825 14.3053 13.5425L14.5743 13.5104C15.1218 13.445 15.594 13.1336 15.8697 12.6562C16.1453 12.1787 16.1789 11.6141 15.9617 11.1072L15.8551 10.8583C15.7221 10.5477 15.818 10.1896 16.0885 9.98716L16.3055 9.82481C16.7469 9.49445 17 8.98874 17 8.43746C16.9999 7.88604 16.7467 7.38033 16.3053 7.04997ZM15.9103 9.29709L15.6934 9.45944C15.1785 9.84464 14.9957 10.5266 15.2491 11.1178L15.3557 11.3668C15.4902 11.6808 15.4694 12.0306 15.2987 12.3265C15.1278 12.6225 14.8353 12.8153 14.4961 12.8559L14.227 12.8879C13.5884 12.9641 13.0893 13.4634 13.0131 14.102L12.9809 14.3711C12.9403 14.7103 12.7475 15.0028 12.4516 15.1737C12.1557 15.3444 11.8059 15.3652 11.4919 15.2307L11.2428 15.124C10.6516 14.8707 9.96977 15.0535 9.58444 15.5684L9.42209 15.7853C9.21738 16.0588 8.90402 16.2157 8.56246 16.2157C8.22077 16.2157 7.9074 16.0588 7.70269 15.7853L7.54035 15.5684C7.27114 15.2086 6.85709 15.0109 6.43043 15.0109C6.24646 15.0109 6.06016 15.0478 5.88211 15.124L5.63298 15.2307C5.31884 15.3652 4.96917 15.3444 4.67319 15.1737C4.37733 15.0028 4.18447 14.7103 4.14391 14.3711L4.11186 14.102C4.03551 13.4634 3.53637 12.9643 2.89779 12.8881L2.62871 12.8559C2.28947 12.8153 1.99696 12.6225 1.82611 12.3266C1.6554 12.0307 1.63454 11.6809 1.76908 11.3669L1.87581 11.1178C2.12905 10.5267 1.94623 9.84477 1.43151 9.45944L1.21444 9.29709C0.940988 9.09238 0.784176 8.77902 0.784176 8.43733C0.784176 8.09577 0.940988 7.7824 1.21457 7.57769L1.43151 7.41535C1.94636 7.03001 2.12918 6.34805 1.87581 5.75698L1.76921 5.50785C1.63467 5.19384 1.65552 4.84404 1.82624 4.54819C1.99709 4.25233 2.2896 4.05947 2.62884 4.01891L2.89792 3.98673C3.53649 3.91051 4.03564 3.41137 4.11186 2.77279L4.14404 2.50371C4.1846 2.16447 4.37746 1.87196 4.67332 1.70111C4.96917 1.53027 5.31897 1.50954 5.63298 1.64408L5.88211 1.75068C6.47318 2.00392 7.15514 1.82123 7.54047 1.30638L7.70282 1.08944C7.90753 0.815988 8.22089 0.659047 8.56246 0.659047C8.90402 0.659047 9.21738 0.815988 9.42209 1.08944L9.58456 1.30651C9.96977 1.82136 10.6519 2.00405 11.2428 1.75081L11.4919 1.64408C11.8059 1.50954 12.1557 1.5304 12.4516 1.70111C12.7475 1.87196 12.9404 2.16447 12.9809 2.50371L13.0131 2.77279C13.0893 3.41137 13.5885 3.91051 14.227 3.98673L14.4961 4.01891C14.8353 4.05947 15.1278 4.25233 15.2987 4.54819C15.4695 4.84404 15.4902 5.19384 15.3558 5.50785L15.2491 5.75698C14.9959 6.34818 15.1785 7.03001 15.6934 7.41535L15.9103 7.57769C16.1839 7.7824 16.3407 8.09577 16.3407 8.43746C16.3407 8.77902 16.1839 9.09238 15.9103 9.29709Z" fill="#D79558"/>
<path d="M8.56238 1.9155C7.56808 1.9155 6.6133 2.13359 5.7247 2.56373C5.56081 2.64304 5.49232 2.84015 5.5715 3.00391C5.6508 3.1678 5.84804 3.2363 6.01181 3.15699C6.81016 2.77062 7.66824 2.57467 8.56238 2.57467C11.795 2.57467 14.4251 5.20468 14.4251 8.43748C14.4251 11.6701 11.795 14.3002 8.56238 14.3002C5.32958 14.3002 2.69957 11.6701 2.69957 8.43748C2.69957 7.11333 3.13023 5.86399 3.94506 4.82437C4.05732 4.68108 4.03222 4.47392 3.88892 4.36153C3.74563 4.24926 3.53848 4.2745 3.42621 4.41766C2.51972 5.57457 2.04053 6.9645 2.04053 8.43748C2.04053 12.0336 4.96627 14.9593 8.56238 14.9593C12.1585 14.9593 15.0842 12.0336 15.0842 8.43748C15.0842 4.84123 12.1585 1.9155 8.56238 1.9155Z" fill="#D79558"/>
<path d="M3.74322 6.75926L3.49217 7.07932C3.37977 7.22262 3.40488 7.42977 3.54804 7.54204C3.69134 7.65443 3.89849 7.62946 4.01076 7.48616L4.14865 7.31055V9.49036H3.92798C3.74593 9.49036 3.59838 9.6379 3.59838 9.81995C3.59838 10.002 3.74593 10.1495 3.92798 10.1495H5.01717C5.19909 10.1495 5.34676 10.002 5.34676 9.81995C5.34676 9.6379 5.19909 9.49036 5.01717 9.49036H4.80783V6.96268C4.80783 6.78063 4.66016 6.63309 4.47824 6.63309H4.00252C3.90132 6.63309 3.80567 6.67956 3.74322 6.75926Z" fill="#D79558"/>
<path d="M6.39237 10.1495H6.5636C7.10794 10.1495 7.5507 9.70679 7.5507 9.16245V7.56483C7.5507 7.02049 7.10782 6.57761 6.5636 6.57761H6.39237C5.84803 6.57761 5.40527 7.02049 5.40527 7.56483V9.16245C5.40527 9.70679 5.84803 10.1495 6.39237 10.1495ZM6.06445 7.56483C6.06445 7.38394 6.21161 7.23679 6.39237 7.23679H6.5636C6.74436 7.23679 6.89152 7.38394 6.89152 7.56483V9.16245C6.89152 9.34321 6.74436 9.49036 6.5636 9.49036H6.39237C6.21161 9.49036 6.06445 9.34321 6.06445 9.16245V7.56483Z" fill="#D79558"/>
<path d="M9.04847 10.1495C9.59281 10.1495 10.0356 9.70679 10.0356 9.16245V7.56483C10.0356 7.02049 9.59268 6.57761 9.04847 6.57761H8.87723C8.3329 6.57761 7.89014 7.02049 7.89014 7.56483V9.16245C7.89014 9.70679 8.3329 10.1495 8.87723 10.1495H9.04847ZM8.54932 9.16245V7.56483C8.54932 7.38394 8.69648 7.23679 8.87723 7.23679H9.04847C9.22923 7.23679 9.37638 7.38394 9.37638 7.56483V9.16245C9.37638 9.34321 9.22923 9.49036 9.04847 9.49036H8.87723C8.69648 9.49036 8.54932 9.34334 8.54932 9.16245Z" fill="#D79558"/>
<path d="M13.4009 6.53758C13.2537 6.4306 13.0476 6.46317 12.9405 6.61033L10.8463 9.49025C10.7392 9.63754 10.7717 9.84366 10.919 9.95065C10.9775 9.99314 11.0453 10.0137 11.1125 10.0137C11.2144 10.0137 11.3149 9.96661 11.3794 9.87791L13.4736 6.99798C13.5807 6.85082 13.548 6.6447 13.4009 6.53758Z" fill="#D79558"/>
<path d="M5.59346 5.2824C5.67032 5.2824 5.74757 5.25562 5.81001 5.20116C6.57192 4.53581 7.54923 4.1694 8.56207 4.1694C9.50963 4.1694 10.4033 4.47813 11.1464 5.06212C11.2895 5.17464 11.4967 5.1498 11.6092 5.00663C11.7216 4.86359 11.6968 4.65631 11.5537 4.54392C10.6932 3.86762 9.65872 3.51022 8.56207 3.51022C7.38984 3.51022 6.25843 3.93444 5.37652 4.70459C5.23941 4.82433 5.22525 5.03251 5.34498 5.16962C5.41012 5.24429 5.50153 5.2824 5.59346 5.2824Z" fill="#D79558"/>
<path d="M5.53321 12.1675C6.39349 12.8436 7.42809 13.201 8.52474 13.201C9.28562 13.201 10.0141 13.0296 10.69 12.6915C10.8527 12.6101 10.9186 12.4121 10.8373 12.2492C10.7558 12.0865 10.5579 12.0206 10.395 12.1019C9.81155 12.3939 9.18224 12.5419 8.52474 12.5419C7.5773 12.5419 6.68355 12.2333 5.94043 11.6491C5.7974 11.5367 5.59012 11.5616 5.47772 11.7046C5.3652 11.8478 5.39005 12.0549 5.53321 12.1675Z" fill="#D79558"/>
<path d="M11.7988 11.6037C11.7259 11.4945 11.5894 11.4379 11.4606 11.4636C11.3238 11.4911 11.2162 11.6054 11.1981 11.7438C11.1803 11.8782 11.2501 12.0135 11.3695 12.0774C11.4895 12.1416 11.6404 12.124 11.7428 12.0342C11.8659 11.926 11.8878 11.7398 11.7988 11.6037Z" fill="#D79558"/>
<path d="M11.2396 6.47459C10.8119 6.47459 10.4639 6.82246 10.4639 7.25015C10.4639 7.67785 10.8119 8.02585 11.2396 8.02585C11.6671 8.02585 12.0151 7.67785 12.0151 7.25015C12.0151 6.82246 11.6671 6.47459 11.2396 6.47459ZM11.2396 7.36667C11.1753 7.36667 11.123 7.3144 11.123 7.25015C11.123 7.18591 11.1753 7.13364 11.2396 7.13364C11.3038 7.13364 11.356 7.18591 11.356 7.25015C11.356 7.3144 11.3038 7.36667 11.2396 7.36667Z" fill="#D79558"/>
<path d="M12.293 9.25887C12.293 9.68656 12.641 10.0346 13.0685 10.0346C13.4962 10.0346 13.8442 9.68656 13.8442 9.25887C13.8442 8.83117 13.4962 8.48317 13.0685 8.48317C12.641 8.48317 12.293 8.83117 12.293 9.25887ZM13.1851 9.25887C13.1851 9.32311 13.1329 9.37538 13.0687 9.37538C13.0044 9.37538 12.9521 9.32311 12.9521 9.25887C12.9521 9.19462 13.0044 9.14235 13.0687 9.14235C13.1329 9.14235 13.1851 9.19462 13.1851 9.25887Z" fill="#D79558"/>
<path d="M4.39255 3.73915C4.44559 3.86648 4.57511 3.94862 4.71287 3.94218C4.84883 3.93574 4.9683 3.84279 5.01027 3.71379C5.05263 3.58349 5.00654 3.43466 4.89736 3.35162C4.786 3.26691 4.63047 3.26201 4.51383 3.33913C4.38379 3.42501 4.33384 3.59585 4.39255 3.73915Z" fill="#D79558"/>
</svg>
