<svg width="35" height="35" viewBox="0 0 35 35" fill="none" xmlns="http://www.w3.org/2000/svg">
<path fill-rule="evenodd" clip-rule="evenodd" d="M29.9369 5.4181C26.7481 2.22559 22.5073 0.466655 17.9894 0.464783C8.67983 0.464783 1.10318 8.04122 1.09944 17.3533C1.09819 20.3301 1.87582 23.2359 3.35391 25.7972L0.957764 34.5493L9.9114 32.2006C12.3785 33.5464 15.156 34.2555 17.9825 34.2564H17.9896C27.2982 34.2564 34.8756 26.6793 34.8792 17.3668C34.881 12.8537 33.1258 8.61041 29.9369 5.4181ZM17.9894 31.404H17.9836C15.4647 31.403 12.9943 30.726 10.8386 29.4472L10.3262 29.1429L5.013 30.5367L6.43117 25.3564L6.09728 24.8253C4.692 22.5902 3.94994 20.0068 3.95118 17.3543C3.9541 9.61438 10.2517 3.31736 17.995 3.31736C21.7447 3.31861 25.2694 4.78068 27.9198 7.43417C30.5701 10.0877 32.0289 13.6147 32.0276 17.3658C32.0243 25.1064 25.7271 31.404 17.9894 31.404ZM25.6896 20.8901C25.2677 20.6787 23.1928 19.6581 22.8058 19.5171C22.4193 19.3762 22.1376 19.3061 21.8566 19.7284C21.5751 20.1507 20.7665 21.1015 20.5202 21.3829C20.2738 21.6646 20.0279 21.7 19.6058 21.4886C19.1837 21.2775 17.824 20.8316 16.212 19.3939C14.9575 18.2749 14.1106 16.8929 13.8643 16.4706C13.6184 16.0479 13.8622 15.8415 14.0494 15.6093C14.5063 15.042 14.9637 14.4473 15.1044 14.1658C15.2452 13.8841 15.1747 13.6376 15.069 13.4264C14.9637 13.2153 14.1197 11.138 13.7682 10.2928C13.4253 9.47022 13.0777 9.58131 12.8185 9.56841C12.5726 9.55613 12.2911 9.55364 12.0096 9.55364C11.7284 9.55364 11.2711 9.65911 10.8842 10.0818C10.4974 10.5044 9.40733 11.5252 9.40733 13.6024C9.40733 15.6797 10.9195 17.6864 11.1305 17.968C11.3414 18.2497 14.1064 22.5124 18.3397 24.3402C19.3466 24.7754 20.1326 25.0348 20.7457 25.2293C21.7567 25.5505 22.6764 25.5052 23.4037 25.3966C24.2147 25.2753 25.9004 24.3755 26.2524 23.3899C26.6039 22.404 26.6039 21.5591 26.4983 21.3829C26.393 21.2069 26.1115 21.1015 25.6896 20.8901Z" fill="white"/>
</svg>
