<?xml version="1.0" encoding="utf-8"?><svg viewBox="0 0 40 40" xmlns="http://www.w3.org/2000/svg" xmlns:xlink="http://www.w3.org/1999/xlink"><style>:root>svg{display:none}:root>svg:target{display:block}</style><svg viewBox="0 0 10.048 6.004" id="arrow-bottom" xmlns="http://www.w3.org/2000/svg"><path d="M5 6a1 1 0 01-.71-.29l-4-4A1 1 0 111.714.294L5 3.6 8.3.424a1 1 0 111.38 1.44l-4 3.86A1 1 0 015 6z" fill="#f75102"/></svg><svg viewBox="0 0 24 24" id="arrow-drop" xmlns="http://www.w3.org/2000/svg"><path d="M12 8.8a1 1 0 00-.71.29l-4 4a1 1 0 00-.26.97 1 1 0 00.71.71 1 1 0 00.97-.26L12 11.2l3.3 3.176a1 1 0 001 .3 1 1 0 00.721-.753 1 1 0 00-.34-.985l-4-3.86A1 1 0 0012 8.8z" fill="#373737"/></svg><svg viewBox="0 0 24 24" id="arrow-drop--accent" xmlns="http://www.w3.org/2000/svg"><path d="M12 10a1 1 0 01.71.29l4 4a1.004 1.004 0 11-1.424 1.416L12 12.4l-3.3 3.176a1 1 0 11-1.38-1.44l4-3.86A1 1 0 0112 10z" fill="#f75102"/></svg><svg viewBox="0 0 24 24" id="arrow-forward" xmlns="http://www.w3.org/2000/svg"><path d="M5 13h11.86l-3.63 4.36a1.001 1.001 0 001.54 1.28l5-6a1.19 1.19 0 00.09-.15c0-.05.05-.08.07-.13a.961.961 0 000-.72c0-.05-.05-.08-.07-.13a1.19 1.19 0 00-.09-.15l-5-6a1.001 1.001 0 10-1.54 1.28L16.86 11H5a1 1 0 000 2z"/></svg><svg data-name="chevron-right-outline copy" viewBox="0 0 24 24" id="arrow-right" xmlns="http://www.w3.org/2000/svg"><path d="M10.5 17a1 1 0 01-.706-1.71l3.31-3.29L9.92 8.69a1 1 0 111.42-1.406l3.86 4a1 1 0 010 1.4l-4 4a1 1 0 01-.7.316z"/></svg><svg data-name="chevron-right-outline copy 6" viewBox="0 0 24 24" id="arrow-right--accent" xmlns="http://www.w3.org/2000/svg"><path d="M10.5 17a1 1 0 01-.706-1.71l3.31-3.29L9.92 8.69a1 1 0 111.42-1.406l3.86 4a1 1 0 010 1.4l-4 4a1 1 0 01-.7.316z" fill="#f75102"/></svg><svg viewBox="0 0 24 24" id="burger" xmlns="http://www.w3.org/2000/svg"><rect data-name="Rectangle" width="18" height="2" rx=".95" transform="translate(3 11)" fill="#373737"/><rect data-name="Rectangle" width="18" height="2" rx=".95" transform="translate(3 16)" fill="#373737"/><rect data-name="Rectangle" width="18" height="2" rx=".95" transform="translate(3 6)" fill="#373737"/></svg><svg viewBox="0 0 32 32" id="cart" xmlns="http://www.w3.org/2000/svg"><path d="M9.333 20.347L5.654 6.667H4a1.334 1.334 0 010-2.668h2.667A1.334 1.334 0 018 4.986l.774 3.013H25.84a2.708 2.708 0 012.387 3.854l-4.373 8.746a1.333 1.333 0 01-1.187.734H10.62a1.334 1.334 0 01-1.287-.986z" fill="#373737"/><circle cx="2" cy="2" r="2" transform="translate(8 24)" fill="#373737"/><circle data-name="Oval" cx="2" cy="2" r="2" transform="translate(21.333 24)" fill="#373737"/></svg><svg data-name="Group 11" viewBox="0 0 22 22" id="cart-add" xmlns="http://www.w3.org/2000/svg"><path data-name="Fill 1" d="M0 22h22V0H0z" fill="none"/><path data-name="Fill 3" d="M6.875 16.5A1.375 1.375 0 115.5 17.875 1.376 1.376 0 016.875 16.5" fill="#fff"/><path data-name="Fill 5" d="M16.042 16.5a1.375 1.375 0 11-1.375 1.375 1.376 1.376 0 011.375-1.375" fill="#fff"/><path data-name="Fill 7" d="M14.667 5.499h-1.834V3.666a.917.917 0 00-1.833 0v1.833H9.167a.917.917 0 000 1.833H11v1.834a.917.917 0 101.833 0V7.332h1.834a.917.917 0 100-1.833" fill="#fff"/><path data-name="Fill 9" d="M18.424 6.007l-3.409 6.827H8.033l-1.5-5.5-.5-1.833L5.5 3.429a.915.915 0 00-.917-.679H2.75a.917.917 0 100 1.833h1.136l2.53 9.4a.918.918 0 00.917.678h8.25a.918.918 0 00.816-.5l3.664-7.336a.916.916 0 00-.82-1.325.915.915 0 00-.819.507" fill="#fff"/></svg><svg viewBox="0 0 32 32" id="chart" xmlns="http://www.w3.org/2000/svg"><path d="M16 5.333a1.333 1.333 0 00-1.333 1.333v20a1.333 1.333 0 002.667 0v-20A1.333 1.333 0 0016 5.333z" fill="#bdbdbd"/><path data-name="Path" d="M25.333 16A1.333 1.333 0 0024 17.333v9.333a1.333 1.333 0 002.667 0v-9.333A1.333 1.333 0 0025.333 16zM6.666 10.667A1.333 1.333 0 005.333 12v14.667a1.333 1.333 0 102.667 0V12a1.333 1.333 0 00-1.334-1.333z" fill="#bdbdbd"/></svg><svg viewBox="0 0 40 40" id="close" xmlns="http://www.w3.org/2000/svg"><path d="M10 1a9.01 9.01 0 00-9 9v20a9.01 9.01 0 009 9h20a9.01 9.01 0 009-9V10a9.01 9.01 0 00-9-9H10m0-1h20a10 10 0 0110 10v20a10 10 0 01-10 10H10A10 10 0 010 30V10A10 10 0 0110 0z" fill="#f75102"/><path d="M21.528 19.996l4.658-4.648a1.088 1.088 0 00-1.538-1.533L20 18.473l-4.647-4.658a1.088 1.088 0 00-1.539 1.538l4.659 4.643-4.659 4.652a1.088 1.088 0 101.539 1.538L20 21.528l4.648 4.658a1.088 1.088 0 101.538-1.538z" fill="#f75102"/></svg><svg data-name="close-outline copy 2" viewBox="0 0 28 28" id="close-small" xmlns="http://www.w3.org/2000/svg"><path d="M15.645 13.995l5.017-5a1.172 1.172 0 10-1.657-1.657l-5 5.017-5.012-5.017a1.171 1.171 0 00-1.655 1.657l5.017 5-5.017 5a1.174 1.174 0 101.655 1.666L14 15.645l5 5.017a1.172 1.172 0 101.657-1.657z"/></svg><svg viewBox="0 0 26 26" id="cube" xmlns="http://www.w3.org/2000/svg"><path d="M11.765 22.512l-6.934-3.25a2.7 2.7 0 01-1.581-2.448V9.165a2.59 2.59 0 01.4-1.365 1.094 1.094 0 01.163-.217l.13-.054a2.828 2.828 0 01.932-.737l6.933-3.25a2.931 2.931 0 012.449 0l6.933 3.25a2.715 2.715 0 01.932.737l.1.108c.054.076.162.152.162.228a2.6 2.6 0 01.369 1.3v7.67a2.7 2.7 0 01-1.593 2.426l-6.933 3.25a2.923 2.923 0 01-2.46 0z" fill="#f75102"/></svg><svg viewBox="0 0 24 24" id="done-all" xmlns="http://www.w3.org/2000/svg"><path d="M16.62 6.21a1 1 0 00-1.41.17l-7 9-3.43-4.18a1 1 0 10-1.56 1.25l4.17 5.18A1.051 1.051 0 009 17.62l7.83-10a1 1 0 00-.21-1.41z"/><path data-name="Path" d="M21.62 6.21a1 1 0 00-1.41.17l-7 9-.61-.75-1.26 1.62 1.1 1.37a1 1 0 001.56-.01l7.83-10a1 1 0 00-.21-1.4zM8.71 13.06l1.286-1.62-.2-.24a1 1 0 10-1.58 1.21z"/></svg><svg viewBox="0 0 24 24" id="eye" xmlns="http://www.w3.org/2000/svg"><path d="M12.02 18.996c-5.89 0-9.26-5.406-9.89-6.5a1 1 0 010-1c.866-1.5 4.066-6.356 9.6-6.5 5.98-.18 9.5 5.39 10.139 6.5a1 1 0 010 1c-.859 1.5-4.07 6.36-9.6 6.5z"/><path data-name="Shape" d="M8.5 12a3.5 3.5 0 113.5 3.5A3.5 3.5 0 018.5 12z"/></svg><svg viewBox="0 0 20 20" id="filters" xmlns="http://www.w3.org/2000/svg"><path d="M13.484 10.834H2.5a.833.833 0 010-1.667h10.984a2.5 2.5 0 110 1.667z" fill="#f75102"/><path data-name="Shape" d="M3.484 5.834H2.5a.833.833 0 010-1.667h.984a2.5 2.5 0 014.7 0h9.317a.833.833 0 110 1.667H8.184a2.5 2.5 0 01-4.7 0zM6.817 15.834H2.5a.833.833 0 010-1.667h4.317a2.5 2.5 0 014.7 0h5.984a.833.833 0 110 1.667h-5.984a2.5 2.5 0 01-4.7 0z" fill="#f75102"/></svg><svg viewBox="0 0 28 28" id="home" xmlns="http://www.w3.org/2000/svg"><path d="M5.705 25.666A2.332 2.332 0 013.5 23.338v-9.781a2.338 2.338 0 01.677-1.669l9-9.205a1.167 1.167 0 011.656 0l9 9.194a2.417 2.417 0 01.667 1.68v9.781a2.332 2.332 0 01-2.2 2.333z" fill="#373737"/></svg><svg viewBox="0 0 24 24" id="like" xmlns="http://www.w3.org/2000/svg"><path d="M11.999 21a1 1 0 01-.71-.29L3.52 12.93a5.233 5.233 0 017.4-7.4l1.079 1.079 1.08-1.08a5.233 5.233 0 017.4 7.4l-7.771 7.78a1 1 0 01-.7.29z"/></svg><svg viewBox="0 0 32 32" id="list" xmlns="http://www.w3.org/2000/svg"><circle cx="1.333" cy="1.333" r="1.333" transform="translate(8 8)"/><circle data-name="Oval" cx="1.333" cy="1.333" r="1.333" transform="translate(8 14.667)"/><circle data-name="Oval" cx="1.333" cy="1.333" r="1.333" transform="translate(8 21.333)"/><rect data-name="Rectangle" width="10.667" height="2.667" rx="1.333" transform="translate(13.333 14.667)"/><rect data-name="Rectangle" width="10.667" height="2.667" rx="1.333" transform="translate(13.333 21.333)"/><rect data-name="Rectangle" width="10.667" height="2.667" rx="1.333" transform="translate(13.333 8)"/></svg><svg data-name="list-outline copy" viewBox="0 0 32 32" id="list-2" xmlns="http://www.w3.org/2000/svg"><circle cx="1.333" cy="1.333" r="1.333" transform="translate(8 8)" fill="#f75102"/><circle data-name="Oval Copy" cx="1.333" cy="1.333" r="1.333" transform="translate(14.667 8)" fill="#f75102"/><circle data-name="Oval Copy 6" cx="1.333" cy="1.333" r="1.333" transform="translate(21.333 8)" fill="#f75102"/><circle data-name="Oval" cx="1.333" cy="1.333" r="1.333" transform="translate(8 14.667)" fill="#f75102"/><circle data-name="Oval Copy 3" cx="1.333" cy="1.333" r="1.333" transform="translate(14.667 14.667)" fill="#f75102"/><circle data-name="Oval Copy 7" cx="1.333" cy="1.333" r="1.333" transform="translate(21.333 14.667)" fill="#f75102"/><circle data-name="Oval" cx="1.333" cy="1.333" r="1.333" transform="translate(8 21.333)" fill="#f75102"/><circle data-name="Oval Copy 5" cx="1.333" cy="1.333" r="1.333" transform="translate(14.667 21.333)" fill="#f75102"/><circle data-name="Oval Copy 8" cx="1.333" cy="1.333" r="1.333" transform="translate(21.333 21.333)" fill="#f75102"/></svg><svg viewBox="0 0 32 32" id="menu" xmlns="http://www.w3.org/2000/svg"><circle cx="1.333" cy="1.333" r="1.333" transform="translate(4 8)"/><circle data-name="Oval" cx="1.333" cy="1.333" r="1.333" transform="translate(4 14.667)"/><circle data-name="Oval" cx="1.333" cy="1.333" r="1.333" transform="translate(4 21.333)"/><rect data-name="Rectangle" width="18.667" height="2.667" rx=".94" transform="translate(9.333 14.667)"/><rect data-name="Rectangle" width="18.667" height="2.667" rx=".94" transform="translate(9.333 21.333)"/><rect data-name="Rectangle" width="18.667" height="2.667" rx=".94" transform="translate(9.333 8)"/></svg><svg viewBox="0 0 24 24" id="message" xmlns="http://www.w3.org/2000/svg"><path d="M19.7 2H4.3A3.3 3.3 0 001 5.3v16.5a1.1 1.1 0 001.661.946L7.6 19.754a1.1 1.1 0 01.6-.154h11.5a3.3 3.3 0 003.3-3.3v-11A3.3 3.3 0 0019.7 2z" fill="#d8d8d8"/></svg><svg data-name="Group 5" viewBox="0 0 22 22" id="minus" xmlns="http://www.w3.org/2000/svg"><path d="M17.417 11.916H4.584a.917.917 0 010-1.833h12.833a.917.917 0 110 1.833z" fill="#373737"/></svg><svg viewBox="0 0 38 38" id="percent" xmlns="http://www.w3.org/2000/svg"><path d="M7.125 11.874a5.542 5.542 0 115.541 5.542 5.542 5.542 0 01-5.541-5.542z" fill="#f75102"/><path data-name="Shape" d="M19.792 27.708a5.542 5.542 0 115.541 5.542 5.542 5.542 0 01-5.541-5.542z" fill="#f75102"/><path d="M31.255 6.745a1.409 1.409 0 00-2 0L6.745 29.26a1.441 1.441 0 00-.412 1 1.409 1.409 0 002.407 1L31.255 8.74a1.409 1.409 0 000-1.995z" fill="#f75102"/></svg><svg data-name="Group 5 Copy 2" viewBox="0 0 22 22" id="plus" xmlns="http://www.w3.org/2000/svg"><path d="M17.417 10.084h-5.5v-5.5a.917.917 0 00-1.833 0v5.5h-5.5a.917.917 0 000 1.833h5.5v5.5a.917.917 0 101.833 0v-5.5h5.5a.917.917 0 100-1.833z" fill="#373737"/></svg><svg viewBox="0 0 30 30" id="search" xmlns="http://www.w3.org/2000/svg"><path d="M24.113 25.887l-4.237-4.25a9.9 9.9 0 01-6.126 2.113 10 10 0 1110-10 9.9 9.9 0 01-2.112 6.125l4.25 4.237a1.255 1.255 0 11-1.775 1.775z" fill="#373737"/></svg><svg viewBox="0 0 24 24" id="share" xmlns="http://www.w3.org/2000/svg"><path d="M14.998 17.997v-.33l-7.9-3.53a3 3 0 110-4.28l7.9-3.517v-.343a3 3 0 11.9 2.14l-7.9 3.532v.67l7.9 3.52a3 3 0 11-.9 2.138z" fill="#373737"/></svg><svg viewBox="0 0 8 13.339" id="slider-next" xmlns="http://www.w3.org/2000/svg"><path d="M1.512 13.339a1.333 1.333 0 00.96-.413l5.147-5.334a1.333 1.333 0 000-1.867L2.286.392A1.339 1.339 0 00.992.046a1.339 1.339 0 00-.947.947 1.339 1.339 0 00.347 1.293l4.4 4.387-4.24 4.4a1.333 1.333 0 000 1.88 1.333 1.333 0 00.96.387z"/></svg><svg viewBox="0 0 8 13.339" id="slider-prev" xmlns="http://www.w3.org/2000/svg"><path d="M6.488 13.339a1.333 1.333 0 01-.96-.413L.381 7.592a1.333 1.333 0 010-1.867L5.714.392a1.339 1.339 0 111.894 1.893l-4.4 4.387 4.24 4.4a1.327 1.327 0 01-.96 2.267z"/></svg><svg viewBox="0 0 21.794 21.795" id="soc-inst" xmlns="http://www.w3.org/2000/svg"><g data-name="Сгруппировать 2" fill="#373737"><path data-name="Fill 7" d="M10.901 16.485a5.592 5.592 0 115.592-5.592 5.6 5.6 0 01-5.592 5.592zm0-9.221a3.63 3.63 0 103.63 3.63 3.634 3.634 0 00-3.63-3.63z"/><path data-name="Fill 9" d="M8.513 21.8c-2.738 0-4.969-.136-6.674-1.841C-.027 18.089-.014 15.7.007 12.075v-1.181c0-.434 0-.854-.006-1.26-.024-3.443-.042-5.927 1.834-7.8A6.425 6.425 0 016.412.068C7.378.026 9.081 0 10.966 0c1.851 0 3.506.026 4.425.069 3.958.183 6.149 2.373 6.334 6.331.092 2.074.092 7.024 0 8.978-.171 3.7-2.1 5.212-3.692 5.828-1.479.573-2.884.573-7.054.573H10.9c-.437 0-.86 0-1.27.006-.388.008-.756.015-1.117.015zm2.362-1.976h1.835c3.269 0 4.714-.113 5.854-1.255 1.271-1.277 1.27-2.928 1.266-6.916V11.6v-.71c0-2.89-.011-3.237-.063-4.4-.089-1.958-.71-3.179-1.957-3.843a9.95 9.95 0 00-4.574-.7c-.361 0-.726 0-1.112.007s-.806.007-1.221.007l-.041-.027h-.052c-2.822 0-3.2.013-4.307.052h-.051c-2.123.109-3.4.828-4 2.264a14.519 14.519 0 00-.528 5.35c0 .413.008.84.008 1.28 0 .515-.005 1-.01 1.473-.032 2.947-.053 4.892 1.264 6.2C4.4 19.769 6.058 19.82 9.7 19.82h1.173z"/><path data-name="Fill 11" d="M16.713 3.774a1.307 1.307 0 11-1.306 1.306 1.306 1.306 0 011.306-1.306"/></g></svg><svg viewBox="0 0 12.757 22.065" id="soc-ok" xmlns="http://www.w3.org/2000/svg"><path d="M10.672 22.065a1.47 1.47 0 01-.626-.14 1.5 1.5 0 01-.509-.392l-3.209-3.144L3.2 21.532a1.543 1.543 0 01-.537.36 1.566 1.566 0 01-.587.108h-.053a1.881 1.881 0 01-1.175-.472A1.621 1.621 0 01.5 21.01a1.617 1.617 0 01.347-1.756l3.289-3.144A16.261 16.261 0 01.77 14.617a1.717 1.717 0 01-.547-2.279A1.647 1.647 0 011.3 11.6a1.639 1.639 0 01.665 0 1.632 1.632 0 01.61.266 7.325 7.325 0 007.591 0 1.653 1.653 0 01.951-.3 1.653 1.653 0 01.325.032 1.653 1.653 0 011.073.742 1.717 1.717 0 01-.47 2.279A16.935 16.935 0 018.6 16.11l3.209 3.144a1.616 1.616 0 01.347 1.756 1.622 1.622 0 01-.347.523 1.5 1.5 0 01-.509.392 1.468 1.468 0 01-.628.14zM6.4 11.4h-.072A5.671 5.671 0 01.692 5.737 5.741 5.741 0 016.328 0h.007a5.632 5.632 0 015.224 3.546 5.619 5.619 0 01.4 2.191A5.583 5.583 0 018.5 10.984a5.513 5.513 0 01-2.1.416zm-.08-8.016a2.352 2.352 0 00-2.184 1.505 2.345 2.345 0 00-.156.926 2.235 2.235 0 00.171.9 2.264 2.264 0 00.511.754 2.232 2.232 0 001.559.631h.161a2.3 2.3 0 002.294-2.28 2.36 2.36 0 00-1.431-2.254 2.32 2.32 0 00-.911-.186h-.013z" fill="#373737"/></svg><svg viewBox="0 0 20.548 17.124" id="soc-tg" xmlns="http://www.w3.org/2000/svg"><path data-name="Fill 1" d="M8.063 11.286l-.34 4.781a1.188 1.188 0 00.95-.46l2.28-2.179 4.724 3.46c.867.483 1.477.228 1.711-.8l3.1-14.531c.277-1.279-.462-1.78-1.306-1.466L.954 7.07C-.29 7.553-.271 8.247.742 8.561L5.4 10.01l10.828-6.773c.509-.337.972-.151.591.187z" fill="#373737"/></svg><svg viewBox="0 0 22.066 22.806" id="soc-vb" xmlns="http://www.w3.org/2000/svg"><path data-name="Fill 16" d="M5.352 21.839v-2.4A7.712 7.712 0 01.5 14.567l-.006-.026a21.034 21.034 0 010-9.059L.5 5.457A7.614 7.614 0 015.636.515h.025A28.527 28.527 0 0116.4.51h.024a7.607 7.607 0 015.136 4.942l.006.026a21.006 21.006 0 010 9.059l-.006.026a7.607 7.607 0 01-5.136 4.942l-.024.005a28.759 28.759 0 01-5.372.509c-.51 0-1.043-.015-1.584-.046l-2.429 2.534a.948.948 0 01-.688.3.961.961 0 01-.975-.968zm.691-19.392a5.774 5.774 0 00-3.624 3.471 19.087 19.087 0 000 8.187 5.774 5.774 0 003.624 3.471.139.139 0 01.113.135v3.979a.221.221 0 00.381.153L8.429 19.9l1.777-1.823a.134.134 0 01.1-.041c.247.007.495.01.738.01a26.668 26.668 0 004.98-.472 5.777 5.777 0 003.625-3.471 19.059 19.059 0 000-8.187 5.775 5.775 0 00-3.629-3.469 26.567 26.567 0 00-9.977 0zm8.139 13.5c-.223-.068-.435-.113-.632-.2a14.328 14.328 0 01-5.408-3.613 14.045 14.045 0 01-2.068-3.166c-.266-.539-.49-1.1-.718-1.658a1.439 1.439 0 01.421-1.415 3.318 3.318 0 011.114-.837.715.715 0 01.895.212 11.556 11.556 0 011.383 1.936.921.921 0 01-.258 1.248c-.1.071-.2.155-.3.235a1 1 0 00-.224.238.648.648 0 00-.043.57 5.153 5.153 0 002.9 3.207 1.47 1.47 0 00.743.18c.454-.053.6-.55.919-.81a.865.865 0 011.042-.046c.335.212.66.439.981.67a11.319 11.319 0 01.925.7.734.734 0 01.219.908 3.063 3.063 0 01-1.318 1.453 3.191 3.191 0 01-.57.182zm1.708-5.727c-.028-.38-.047-.761-.1-1.139a4.772 4.772 0 00-3.842-3.988c-.3-.053-.6-.067-.9-.1-.192-.02-.441-.031-.483-.268a.325.325 0 01.321-.367h.156c2.389.067.461.014.066 0a5.419 5.419 0 015.266 4.483c.08.451.108.911.144 1.366a.32.32 0 01-.3.377c-.218 0-.318-.178-.328-.368zm-1.39-.388a.8.8 0 01-.031-.258 3.229 3.229 0 00-.41-1.622 3.011 3.011 0 00-1.266-1.189 3.632 3.632 0 00-1.009-.31c-.152-.025-.306-.04-.459-.062a.29.29 0 01-.275-.326.287.287 0 01.319-.284 4.181 4.181 0 011.75.455 3.538 3.538 0 011.925 2.749c.009.056.023.112.026.167.011.139.017.278.028.461a1.346 1.346 0 01-.026.186.3.3 0 01-.3.218.278.278 0 01-.272-.185zm-1.122-.283h.01a.325.325 0 01-.317-.323 3.385 3.385 0 00-.063-.427 1.2 1.2 0 00-.443-.695 1.162 1.162 0 00-.36-.175c-.164-.047-.335-.034-.5-.075a.3.3 0 01-.248-.353.322.322 0 01.339-.258 1.836 1.836 0 011.88 1.829.862.862 0 010 .259.268.268 0 01-.219.216h-.082c-.033.003-.021.003.001.002z" fill="#373737"/></svg><svg viewBox="0 0 22.065 22.065" id="soc-vk" xmlns="http://www.w3.org/2000/svg"><path d="M11.491 22.065h-.92c-4.977 0-7.475 0-9.025-1.548S0 16.469 0 11.492v-.919C0 5.6 0 3.1 1.548 1.548S5.588 0 10.556 0h.938c4.977 0 7.474 0 9.023 1.548s1.548 4.047 1.548 9.025v.919c0 4.977 0 7.475-1.548 9.025s-4.047 1.548-9.026 1.548zm.623-9.281a5.206 5.206 0 013.419 1.894 5.478 5.478 0 01.568.932.144.144 0 00.131.084h1.924a.148.148 0 00.14-.2 7.966 7.966 0 00-1.085-2.068 7 7 0 00-2.29-2.02 7.494 7.494 0 001.944-2.339 10.814 10.814 0 00.98-2.519.145.145 0 00-.027-.125.147.147 0 00-.118-.053h-1.92a.145.145 0 00-.141.1 8.153 8.153 0 01-.669 1.577 5.1 5.1 0 01-1.468 1.7 4.22 4.22 0 01-1.39.6v-3.83a.147.147 0 00-.147-.147H10.04a.147.147 0 00-.147.147v6.262a3.75 3.75 0 01-1.706-.961v-.005A6.749 6.749 0 016.6 9.147 13.667 13.667 0 015.986 6.5a.15.15 0 00-.147-.128H3.896a.146.146 0 00-.147.15C3.8 8.9 5.315 15.7 11.421 15.7h.546a.147.147 0 00.147-.147v-2.767z" fill="#373737"/></svg><svg viewBox="0 0 22.065 22.09" id="soc-wa" xmlns="http://www.w3.org/2000/svg"><path data-name="Fill 18" d="M0 22.09l1.545-5.49a11.014 11.014 0 114.115 4.032L0 22.09zm6.286-3.256a9.145 9.145 0 10-2.945-2.878l.227.354-.889 3.16 3.271-.841zm6.671-2.686A11.606 11.606 0 016.7 11.6a4.979 4.979 0 01-1.15-3.9 3.26 3.26 0 011.072-1.638.865.865 0 01.615-.211l.715.04a.369.369 0 01.32.224l1.041 2.437a.37.37 0 01-.06.388l-.906 1.048a.273.273 0 00-.034.306 7.432 7.432 0 004.019 3.44.271.271 0 00.305-.091l.95-1.23a.369.369 0 01.448-.11l2.417 1.114a.367.367 0 01.206.414l-.113.533a2.308 2.308 0 01-1 1.465 2.89 2.89 0 01-1.585.465 3.655 3.655 0 01-1.003-.146z" fill="#373737"/></svg><svg data-name="star copy 4" viewBox="0 0 19 19" id="star" xmlns="http://www.w3.org/2000/svg"><path d="M13.902 16.625a.792.792 0 01-.364-.087L9.5 14.424l-4.038 2.114a.792.792 0 01-1.15-.839l.792-4.457-3.26-3.167a.78.78 0 01.443-1.33l4.512-.657 1.988-4.061a.792.792 0 011.425 0l2.011 4.053 4.512.657a.78.78 0 01.443 1.33l-3.261 3.167.792 4.457a.783.783 0 01-.807.934z" fill="#d8d8d8"/></svg><svg data-name="star copy" viewBox="0 0 19 19" id="star--accent" xmlns="http://www.w3.org/2000/svg"><path d="M13.902 16.625a.792.792 0 01-.364-.087L9.5 14.424l-4.038 2.114a.792.792 0 01-1.15-.839l.792-4.457-3.26-3.167a.78.78 0 01.443-1.33l4.512-.657 1.988-4.061a.792.792 0 011.425 0l2.011 4.053 4.512.657a.78.78 0 01.443 1.33l-3.261 3.167.792 4.457a.783.783 0 01-.807.934z" fill="#f75102"/></svg><svg viewBox="0 0 32 32" id="user" xmlns="http://www.w3.org/2000/svg"><path d="M10.667 9.333A5.333 5.333 0 1116 14.666a5.333 5.333 0 01-5.333-5.333zM16 17.333a9.333 9.333 0 00-9.333 9.333 1.333 1.333 0 102.667 0 6.667 6.667 0 0113.333 0 1.333 1.333 0 102.667 0A9.333 9.333 0 0016 17.333z" fill="#373737"/></svg></svg>