<svg width="56" height="56" viewBox="0 0 56 56" fill="none" xmlns="http://www.w3.org/2000/svg">
<path d="M54.9061 53.8129H54.0311V21.8755C54.0311 21.2714 53.5415 20.7817 52.9374 20.7817H44.1874C43.5833 20.7817 43.0937 21.2714 43.0937 21.8755V33.5786C43.0937 34.1827 43.5833 34.6723 44.1874 34.6723C44.7915 34.6723 45.2812 34.1827 45.2812 33.5786V22.9692H51.8437V53.8129H45.2812V44.2957C45.2812 43.6916 44.7915 43.2019 44.1874 43.2019C43.5833 43.2019 43.0937 43.6916 43.0937 44.2957V53.8129H40.4687V29.0942C40.4687 28.4901 39.979 28.0005 39.3749 28.0005H30.6249C30.0209 28.0005 29.5312 28.4901 29.5312 29.0942V53.8129H26.4687V35.8755C26.4687 35.2714 25.979 34.7817 25.375 34.7817H16.625C16.0209 34.7817 15.5312 35.2714 15.5312 35.8755V53.8129H12.9062V42.8754C12.9062 42.2714 12.4166 41.7817 11.8125 41.7817H3.06249C2.45842 41.7817 1.96875 42.2714 1.96875 42.8754V53.8129H1.09375C0.489671 53.8129 0 54.3026 0 54.9067C0 55.5107 0.489671 56.0004 1.09375 56.0004H54.9061C55.5102 56.0004 55.9999 55.5107 55.9999 54.9067C55.9999 54.3026 55.5102 53.8129 54.9061 53.8129ZM10.7187 53.8129H4.15624V43.9692H10.7187V53.8129ZM24.2812 53.8129H17.7187V36.9692H24.2812V53.8129ZM38.2812 53.8129H31.7187V30.188H38.2812V53.8129Z" fill="#DFBB7A"/>
<path d="M44.9608 37.9336C44.7573 37.7302 44.4752 37.6143 44.1875 37.6143C43.8998 37.6143 43.6177 37.7302 43.4142 37.9336C43.2108 38.1371 43.0938 38.4193 43.0938 38.708C43.0938 38.9957 43.2108 39.2768 43.4142 39.4813C43.6177 39.6848 43.8998 39.8018 44.1875 39.8018C44.4752 39.8018 44.7573 39.6847 44.9608 39.4813C45.1642 39.2768 45.2812 38.9957 45.2812 38.708C45.2812 38.4193 45.1642 38.1371 44.9608 37.9336Z" fill="#DFBB7A"/>
<path d="M47.6875 0C43.1039 0 39.375 3.72891 39.375 8.31248C39.375 12.8961 43.104 16.625 47.6875 16.625C52.2711 16.625 56 12.8961 56 8.31248C56 3.72891 52.2711 0 47.6875 0ZM47.6875 11.4945C47.0035 11.4945 46.4471 11.0348 46.4471 10.4699C46.4471 9.86583 45.9574 9.37615 45.3533 9.37615C44.7492 9.37615 44.2596 9.86583 44.2596 10.4699C44.2596 11.8827 45.2385 13.0845 46.5937 13.5134V14.3377C43.7368 13.8203 41.5625 11.3164 41.5625 8.31248C41.5625 5.30862 43.7368 2.8047 46.5937 2.28725V3.1897C45.2385 3.61856 44.2596 4.82037 44.2596 6.23316C44.2596 8.00438 45.7974 9.44528 47.6875 9.44528C48.3714 9.44528 48.9279 9.90487 48.9279 10.4699C48.9279 11.0349 48.3715 11.4945 47.6875 11.4945ZM48.7812 14.3377V13.5134C50.1365 13.0845 51.1154 11.8827 51.1154 10.4699C51.1154 8.6988 49.5776 7.25778 47.6875 7.25778C47.0036 7.25778 46.4471 6.79808 46.4471 6.23316C46.4471 5.66824 47.0035 5.20854 47.6875 5.20854C48.3715 5.20854 48.9279 5.66824 48.9279 6.23316C48.9279 6.83724 49.4176 7.32691 50.0217 7.32691C50.6257 7.32691 51.1154 6.83724 51.1154 6.23316C51.1154 4.82037 50.1365 3.61856 48.7812 3.1897V2.28725C51.6383 2.8047 53.8125 5.30862 53.8125 8.31248C53.8125 11.3164 51.6382 13.8203 48.7812 14.3377Z" fill="#DFBB7A"/>
<path d="M38.9373 14.1494H34.6553C34.0512 14.1494 33.5615 14.6391 33.5615 15.2432C33.5615 15.8472 34.0512 16.3369 34.6553 16.3369H36.2967L24.6024 28.0313L18.6611 22.0899C18.234 21.6629 17.5414 21.6629 17.1142 22.0899L5.21926 33.9848C4.79215 34.4119 4.79215 35.1044 5.21926 35.5315C5.43276 35.7451 5.71276 35.852 5.99265 35.852C6.27254 35.852 6.55254 35.7451 6.76604 35.5316L17.8876 24.4101L23.8289 30.3514C24.2561 30.7785 24.9486 30.7785 25.3758 30.3514L37.8436 17.8837V19.5252C37.8436 20.1293 38.3332 20.6189 38.9373 20.6189C39.5414 20.6189 40.0311 20.1293 40.0311 19.5252V15.2432C40.0311 14.6391 39.5414 14.1494 38.9373 14.1494Z" fill="#DFBB7A"/>
<path d="M3.9222 36.8288C3.71877 36.6253 3.43658 36.5083 3.14892 36.5083C2.86127 36.5083 2.57908 36.6253 2.37564 36.8288C2.17221 37.0322 2.05518 37.3144 2.05518 37.602C2.05518 37.8897 2.17221 38.1719 2.37564 38.3753C2.57908 38.5787 2.86127 38.6958 3.14892 38.6958C3.43658 38.6958 3.71877 38.5788 3.9222 38.3753C4.12564 38.1719 4.24267 37.8897 4.24267 37.602C4.24267 37.3144 4.12564 37.0322 3.9222 36.8288Z" fill="#DFBB7A"/>
</svg>
