<?xml version="1.0" encoding="iso-8859-1"?>
<!-- Generator: Adobe Illustrator 19.0.0, SVG Export Plug-In . SVG Version: 6.00 Build 0)  -->
<svg version="1.1" id="Capa_1" xmlns="http://www.w3.org/2000/svg" xmlns:xlink="http://www.w3.org/1999/xlink" x="0px" y="0px"
	 viewBox="0 0 336 336" style="enable-background:new 0 0 336 336;" xml:space="preserve">
<g>
	<g>
		<path style="fill:#fff;" d="M168,72c-4.8,0-8,3.2-8,8v8c0,4.8,3.2,8,8,8s8-3.2,8-8v-8C176,75.2,172.8,72,168,72z"/>
	</g>
</g>
<g>
	<g>
		<path style="fill:#fff;" d="M124,312c-6.4,0-12,5.6-12,12c0,6.4,5.6,12,12,12c6.4,0,12-5.6,12-12C136,317.6,130.4,312,124,312z M124,328
			c-2.4,0-4-1.6-4-4c0-2.4,1.6-4,4-4c2.4,0,4,1.6,4,4C128,326.4,126.4,328,124,328z"/>
	</g>
</g>
<g>
	<g>
		<path style="fill:#fff;" d="M212,312c-6.4,0-12,5.6-12,12c0,6.4,5.6,12,12,12c6.4,0,12-5.6,12-12C224,317.6,218.4,312,212,312z M212,328
			c-2.4,0-4-1.6-4-4c0-2.4,1.6-4,4-4c2.4,0,4,1.6,4,4C216,326.4,214.4,328,212,328z"/>
	</g>
</g>
<g>
	<g>
		<path style="fill:#fff;" d="M280,112h-16c-4.8,0-8,3.2-8,8s3.2,8,8,8v40h-0.8c-2.4-9.6-11.2-16-21.6-16H240V24.8C240,11.2,228.8,0,215.2,0h-94.4
			C107.2,0,96,11.2,96,24.8V152h-1.6c-9.6,0-18.4,6.4-21.6,16H72v-40c4.8,0,8-3.2,8-8s-3.2-8-8-8H56c-4.8,0-8,3.2-8,8s3.2,8,8,8v48
			c0,4.8,3.2,8,8,8h8v8c0,4.8,3.2,8,8,8h80v88h-32c-4.8,0-8,3.2-8,8s3.2,8,8,8h80c4.8,0,8-3.2,8-8s-3.2-8-8-8h-32v-40h16
			c4.8,0,8-3.2,8-8s-3.2-8-8-8h-16v-32h80c4.8,0,8-3.2,8-8v-8h8c4.8,0,8-3.2,8-8v-48c4.8,0,8-3.2,8-8S284.8,112,280,112z M112,24.8
			c0-4.8,4-8.8,8.8-8.8H216c4.8,0,8.8,4,8.8,8.8V152H112V24.8z M248,184H88v-9.6c0-3.2,3.2-6.4,6.4-6.4h147.2c3.2,0,6.4,3.2,6.4,6.4
			V184z"/>
	</g>
</g>
</svg>
