<svg width="102" height="125" viewBox="0 0 102 125" fill="none" xmlns="http://www.w3.org/2000/svg">
<path d="M26.316 51.256C18.748 51.256 12.4413 48.7907 7.396 43.86C2.46533 38.9293 0 32.852 0 25.628C0 18.404 2.46533 12.3267 7.396 7.396C12.4413 2.46533 18.748 0 26.316 0C33.884 0 40.1333 2.46533 45.064 7.396C50.1093 12.3267 52.632 18.404 52.632 25.628C52.632 32.852 50.1667 38.9293 45.236 43.86C40.3053 48.7907 33.9987 51.256 26.316 51.256ZM13.588 38.356C16.9133 41.6813 21.156 43.344 26.316 43.344C31.476 43.344 35.7187 41.6813 39.044 38.356C42.484 34.916 44.204 30.6733 44.204 25.628C44.204 20.5827 42.484 16.3973 39.044 13.072C35.7187 9.632 31.476 7.912 26.316 7.912C21.156 7.912 16.9133 9.632 13.588 13.072C10.2627 16.3973 8.6 20.5827 8.6 25.628C8.6 30.6733 10.2627 34.916 13.588 38.356ZM6.536 106.812L88.236 14.964L94.084 18.232L12.212 110.08L6.536 106.812ZM93.74 116.788C88.8093 121.719 82.56 124.184 74.992 124.184C67.424 124.184 61.1173 121.719 56.072 116.788C51.1413 111.857 48.676 105.78 48.676 98.556C48.676 91.332 51.1413 85.2547 56.072 80.324C61.1173 75.3933 67.424 72.928 74.992 72.928C82.56 72.928 88.8093 75.3933 93.74 80.324C98.7853 85.2547 101.308 91.332 101.308 98.556C101.308 105.78 98.7853 111.857 93.74 116.788ZM62.264 111.284C65.5893 114.609 69.832 116.272 74.992 116.272C80.152 116.272 84.3947 114.609 87.72 111.284C91.16 107.844 92.88 103.601 92.88 98.556C92.88 93.5107 91.16 89.3253 87.72 86C84.3947 82.56 80.152 80.84 74.992 80.84C69.832 80.84 65.5893 82.56 62.264 86C58.9387 89.3253 57.276 93.5107 57.276 98.556C57.276 103.601 58.9387 107.844 62.264 111.284Z" fill="url(#paint0_linear)"/>
<defs>
<linearGradient id="paint0_linear" x1="50.654" y1="0" x2="50.654" y2="124.184" gradientUnits="userSpaceOnUse">
<stop stop-color="#D1B27A"/>
<stop offset="1" stop-color="#A7874F"/>
</linearGradient>
</defs>
</svg>
