<svg width="93" height="122" viewBox="0 0 93 122" fill="none" xmlns="http://www.w3.org/2000/svg">
<path d="M57.1508 71.98H24.9385V90.1057H71.0056V97.7743H24.9385V122H15.5866V97.7743H0V90.1057H15.5866V71.98H0V63.2657H15.5866V0H57.1508C66.9646 0 75.3929 3.54381 82.4358 10.6314C89.4786 17.719 93 26.201 93 36.0771C93 45.9533 89.4786 54.4352 82.4358 61.5229C75.3929 68.4943 66.9646 71.98 57.1508 71.98ZM24.9385 8.71429V63.2657H57.1508C64.54 63.2657 70.8324 60.6514 76.0279 55.4229C81.2235 50.0781 83.8212 43.6295 83.8212 36.0771C83.8212 28.5248 81.2235 22.0762 76.0279 16.7314C70.8324 11.3867 64.54 8.71429 57.1508 8.71429H24.9385Z" fill="url(#paint0_linear)"/>
<defs>
<linearGradient id="paint0_linear" x1="46.5" y1="0" x2="46.5" y2="122" gradientUnits="userSpaceOnUse">
<stop stop-color="#D1B27A"/>
<stop offset="1" stop-color="#A7874F"/>
</linearGradient>
</defs>
</svg>
