<svg width="43" height="49" viewBox="0 0 43 49" fill="none" xmlns="http://www.w3.org/2000/svg">
<path d="M41.3767 5.79493C35.9925 5.79493 26.195 4.69856 23.1263 0.657684C22.6047 -0.16163 21.4634 -0.234556 20.8402 0.54753C17.227 4.58735 7.40715 5.79493 1.62305 5.79493C0.830242 5.79493 0.1875 6.44007 0.1875 7.23593V30.2914C0.1875 40.6753 12.1407 47.0189 21.1959 48.9913C22.3654 49.2454 42.8122 44.0659 42.8122 30.2914V7.23593C42.8122 6.44016 42.1696 5.79493 41.3767 5.79493ZM39.9411 30.2914C39.9411 41.1129 23.9257 45.5004 21.4999 46.102C19.074 45.5004 3.05869 41.1128 3.05869 30.2914V8.66047C14.1441 8.40456 19.6724 5.21143 21.8703 3.48054C26.2987 7.39739 34.0432 8.52659 39.9412 8.66076V30.2914H39.9411Z" fill="#DFBB7A"/>
<path d="M14.3268 18.716V23.087H12.8867C12.0939 23.087 11.4512 23.7321 11.4512 24.528V36.0557C11.4512 36.8515 12.0939 37.4967 12.8867 37.4967H30.1133C30.9061 37.4967 31.5488 36.8516 31.5488 36.0557V24.5279C31.5488 23.7321 30.9061 23.0869 30.1133 23.0869H17.1979V18.7159C17.1979 16.4641 18.9714 14.4411 21.5434 14.4411C23.8916 14.4411 25.8021 16.3588 25.8021 18.7159C25.8021 19.5117 26.4449 20.1569 27.2377 20.1569C28.0305 20.1569 28.6732 19.5118 28.6732 18.7159C28.6732 14.7697 25.4747 11.5591 21.5434 11.5591C17.3631 11.5592 14.3268 14.8998 14.3268 18.716ZM28.6777 34.6146H14.3223V25.9688H28.6777V34.6146Z" fill="#DFBB7A"/>
<path d="M21.5 31.7323C22.2928 31.7323 22.9355 31.0871 22.9355 30.2913C22.9355 29.4954 22.2928 28.8503 21.5 28.8503C20.7072 28.8503 20.0645 29.4954 20.0645 30.2913C20.0645 31.0871 20.7072 31.7323 21.5 31.7323Z" fill="#DFBB7A"/>
</svg>
