<?xml version="1.0" encoding="iso-8859-1"?>
<!-- Generator: Adobe Illustrator 19.0.0, SVG Export Plug-In . SVG Version: 6.00 Build 0)  -->
<svg version="1.1" id="Capa_1" xmlns="http://www.w3.org/2000/svg" xmlns:xlink="http://www.w3.org/1999/xlink" x="0px" y="0px"
	 viewBox="0 0 512.003 512.003" style="enable-background:new 0 0 512.003 512.003;" xml:space="preserve">
<rect x="76.806" y="222.477" style="fill:#40596B;" width="356.971" height="289.493"/>
<rect x="76.806" y="222.477" style="fill:#334A5E;" width="356.971" height="19.851"/>
<rect x="112.006" y="400.28" style="fill:#FFD15C;" width="128.427" height="111.723"/>
<polygon style="fill:#F2F2F2;" points="156.219,444.323 156.219,400.291 196.145,400.291 196.145,444.269 176.187,427.491 "/>
<rect x="271.27" y="400.28" style="fill:#FFD15C;" width="128.427" height="111.723"/>
<polygon style="fill:#F2F2F2;" points="315.473,444.323 315.473,400.291 355.398,400.291 355.398,444.269 335.441,427.491 "/>
<rect x="191.633" y="288.536" style="fill:#F8B64C;" width="128.427" height="111.723"/>
<g>
	<polygon style="fill:#F2F2F2;" points="235.835,332.6 235.835,288.568 275.771,288.568 275.771,332.547 255.803,315.768 	"/>
	<polygon style="fill:#F2F2F2;" points="475.462,154.52 475.462,512.003 431.643,512.003 431.643,225.677 80.006,225.677 
		80.006,512.003 36.177,512.003 36.177,154.52 	"/>
</g>
<rect x="36.177" y="154.52" style="fill:#E8EAEA;" width="439.36" height="27.872"/>
<path style="fill:#fff;" d="M8.219,130.019L248.731,1.816c4.544-2.421,9.995-2.421,14.539,0l240.523,128.203
	c14.197,7.573,8.821,29.099-7.285,29.099H15.483C-0.613,159.117-5.989,137.592,8.219,130.019"/>
</svg>
