<?xml version="1.0" encoding="iso-8859-1"?>
<!-- Generator: Adobe Illustrator 19.0.0, SVG Export Plug-In . SVG Version: 6.00 Build 0)  -->
<svg version="1.1" id="Capa_1" xmlns="http://www.w3.org/2000/svg" xmlns:xlink="http://www.w3.org/1999/xlink" x="0px" y="0px"
	 viewBox="0 0 512 512" style="enable-background:new 0 0 512 512;" xml:space="preserve">
<g>
	<g>
		<g>
			<path style="fill:#fff;" d="M426.215,468.621V12.354C426.215,5.542,420.704,0,413.93,0h-19.143c-6.774,0-12.286,5.542-12.286,12.354V97.07h-27.114
				V70.596c0-6.812-5.512-12.354-12.286-12.354h-64.285V12.354C278.815,5.542,273.304,0,266.529,0H160.287
				c-6.775,0-12.286,5.542-12.286,12.354V97.07h-18.5V12.354C129.501,5.542,123.99,0,117.215,0H98.072
				c-6.774,0-12.286,5.542-12.286,12.354v456.268c-2.908,2.291-4.786,5.835-4.786,9.816V499.5c0,6.893,5.607,12.5,12.5,12.5h28.286
				c6.893,0,12.5-5.607,12.5-12.5v-21.063c0-3.981-1.877-7.525-4.786-9.816v-26.512h253v26.512
				c-2.909,2.291-4.786,5.835-4.786,9.816V499.5c0,6.893,5.607,12.5,12.5,12.5h28.287c6.893,0,12.5-5.607,12.5-12.5v-21.063
				C431.001,474.456,429.124,470.912,426.215,468.621z M100.787,15h13.714v450.938h-13.714V15z M119.287,497H96.001v-16.063h23.286
				V497z M163.001,15h100.814v43.242h-26.958c-6.774,0-12.286,5.542-12.286,12.354V97.07h-61.57V15z M382.501,427.109h-253v-23.828
				h58.782c4.142,0,7.5-3.357,7.5-7.5s-3.358-7.5-7.5-7.5h-26.239v-23.828h97.766c0.006,0,0.013,0.001,0.019,0.001
				c0.006,0,0.013-0.001,0.019-0.001h11.624v23.828h-56.389c-4.142,0-7.5,3.357-7.5,7.5s3.358,7.5,7.5,7.5h167.418V427.109z
				 M274.187,349.453h-6.857v-23.828h80.715v62.656h-61.571v-26.475C286.473,354.995,280.961,349.453,274.187,349.453z
				 M382.501,388.283h-19.457V322.98c0-6.813-5.512-12.355-12.286-12.355h-86.143c-6.774,0-12.286,5.542-12.286,12.354v26.475h-93
				c-6.774,0-12.286,5.542-12.286,12.354v26.475h-17.542v-91.777h253V388.283z M382.501,281.504h-253v-23.828h253V281.504z
				 M172.572,242.676V180.02h23.286v62.656H172.572z M210.858,242.676V180.02h23.286v62.656H210.858z M382.501,242.676H249.144
				v-65.303c0-6.812-5.512-12.354-12.286-12.354h-28.714c-1.697,0-3.314,0.348-4.786,0.977c-1.472-0.628-3.089-0.977-4.786-0.977
				h-28.714c-6.774,0-12.286,5.542-12.286,12.354v65.303h-28.071v-91.777h253V242.676z M382.501,135.898h-253V112.07H286.63
				c4.143,0,7.5-3.357,7.5-7.5s-3.357-7.5-7.5-7.5h-47.058V73.242h100.814V97.07h-23.607c-4.143,0-7.5,3.357-7.5,7.5
				s3.357,7.5,7.5,7.5h65.722V135.898z M397.501,15h13.714v450.938h-13.714V15z M416.001,497h-23.286v-16.063h23.286V497z"/>
			<path d="M240.051,36.621c0-4.143-3.358-7.5-7.5-7.5h-38.286c-4.142,0-7.5,3.357-7.5,7.5s3.358,7.5,7.5,7.5h38.286
				C236.693,44.121,240.051,40.764,240.051,36.621z"/>
		</g>
	</g>
</g>
</svg>
