<svg width="19" height="11" viewBox="0 0 19 11" fill="none" xmlns="http://www.w3.org/2000/svg">
<path d="M18.8306 9.81131C18.7796 9.72455 18.4637 9.02805 16.9436 7.5965C15.3522 6.09746 15.566 6.34087 17.4827 3.74889C18.6501 2.17033 19.1169 1.20632 18.9708 0.794205C18.8318 0.401371 17.9732 0.505002 17.9732 0.505002L15.1183 0.521872C15.1183 0.521872 14.9069 0.492952 14.7489 0.588148C14.5957 0.682139 14.4971 0.899041 14.4971 0.899041C14.4971 0.899041 14.0447 2.12092 13.4414 3.15964C12.1695 5.35156 11.66 5.46724 11.4522 5.33107C10.9688 5.01416 11.09 4.05617 11.09 3.37655C11.09 1.25211 11.407 0.366426 10.4712 0.137473C10.1601 0.0615577 9.93206 0.0109472 9.13756 0.0025121C8.11861 -0.008333 7.25524 0.00612713 6.76714 0.248334C6.44174 0.409806 6.19116 0.770105 6.34436 0.79059C6.53318 0.815895 6.96071 0.907476 7.18754 1.22078C7.48088 1.62446 7.47019 2.53304 7.47019 2.53304C7.47019 2.53304 7.63883 5.03344 7.0771 5.34433C6.69113 5.55762 6.16265 5.12261 5.02851 3.13313C4.44778 2.1149 4.00837 0.988212 4.00837 0.988212C4.00837 0.988212 3.92405 0.77854 3.77323 0.666474C3.59034 0.530307 3.33382 0.486927 3.33382 0.486927L0.618998 0.503797C0.618998 0.503797 0.211656 0.515847 0.0620197 0.695394C-0.0709901 0.855661 0.0513314 1.18583 0.0513314 1.18583C0.0513314 1.18583 2.17711 6.23122 4.58316 8.775C6.79089 11.1067 9.2967 10.9537 9.2967 10.9537H10.432C10.432 10.9537 10.7752 10.9151 10.9498 10.7235C11.1113 10.5476 11.1054 10.2174 11.1054 10.2174C11.1054 10.2174 11.0828 8.67137 11.7906 8.44362C12.4877 8.21949 13.3832 9.93783 14.3321 10.5994C15.0494 11.0995 15.5945 10.9898 15.5945 10.9898L18.1323 10.9537C18.1323 10.9537 19.4601 10.8705 18.8306 9.81131Z" fill="white"/>
</svg>
