<svg width="52" height="53" viewBox="0 0 52 53" fill="none" xmlns="http://www.w3.org/2000/svg">
<path d="M25.7573 33.9111C24.3013 33.9111 23.1167 35.0957 23.1167 36.5517C23.1167 38.0078 24.3014 39.1923 25.7573 39.1923C27.2133 39.1923 28.3979 38.0078 28.3979 36.5517C28.3979 35.0957 27.2135 33.9111 25.7573 33.9111ZM25.7573 37.1611C25.4212 37.1611 25.1479 36.8878 25.1479 36.5517C25.1479 36.2157 25.4212 35.9423 25.7573 35.9423C26.0934 35.9423 26.3667 36.2157 26.3667 36.5517C26.3667 36.8878 26.0934 37.1611 25.7573 37.1611Z" fill="#DFBB7A"/>
<path d="M33.9095 30.5448C33.7206 30.3558 33.4586 30.2471 33.1914 30.2471C32.9243 30.2471 32.6623 30.3557 32.4734 30.5448C32.2834 30.7336 32.1758 30.9956 32.1758 31.2627C32.1758 31.5299 32.2834 31.792 32.4734 31.9808C32.6623 32.1698 32.9243 32.2784 33.1914 32.2784C33.4586 32.2784 33.7206 32.1698 33.9095 31.9808C34.0984 31.792 34.2071 31.5299 34.2071 31.2627C34.2071 30.9956 34.0984 30.7336 33.9095 30.5448Z" fill="#DFBB7A"/>
<path d="M46.922 14.6241H45.827L31.5007 0.297769C31.1041 -0.0988445 30.4609 -0.0988445 30.0644 0.297769L26.3942 3.96805L11.7155 0.0349175C11.1736 -0.110423 10.6167 0.211235 10.4715 0.753088L6.75503 14.6241H4.26566C1.9136 14.6241 0 16.5376 0 18.8898C0 18.9461 0.00213288 19.0021 0.00426576 19.058C0.00192975 19.0859 0 19.1139 0 19.1425V46.9235C0 49.7235 2.27812 52.0016 5.07818 52.0016H41.4376C41.4533 52.0016 41.4688 52.0006 41.4845 52.0004H46.9219C49.722 52.0004 52 49.7224 52 46.9222V19.7022C52.0001 16.902 49.7221 14.6241 46.922 14.6241ZM46.0146 16.6553H46.922C48.6021 16.6553 49.9689 18.0222 49.9689 19.7022V27.842C49.9689 29.1693 48.8889 30.2492 47.5617 30.2492H46.5158V26.2022C46.5158 23.4375 44.2946 21.1833 41.5432 21.1267L46.0146 16.6553ZM27.4159 5.81898C27.416 5.81888 27.4161 5.81868 27.4162 5.81857L30.7826 2.45218L44.064 15.7335L38.7064 21.0911H36.8483L39.2786 18.6607C39.6752 18.2641 39.6752 17.621 39.2786 17.2244C38.4564 16.4022 38.4564 15.0646 39.2786 14.2424C39.6752 13.8458 39.6752 13.2027 39.2786 12.806L33.71 7.23755C33.3133 6.84093 32.6702 6.84093 32.2735 7.23755C31.4513 8.05982 30.1136 8.05982 29.2915 7.23755C28.8949 6.84093 28.2517 6.84093 27.8552 7.23755L14.0016 21.0912H12.1436L27.4159 5.81898ZM24.427 17.2754C22.1084 17.2754 20.1659 18.9125 19.6921 21.0912H16.8741L28.6624 9.30289C29.9636 10.0784 31.6014 10.0784 32.9026 9.30289L37.2132 13.6134C36.4377 14.9145 36.4377 16.5525 37.2132 17.8536L33.9755 21.0912H29.1618C28.688 18.9124 26.7456 17.2754 24.427 17.2754ZM27.0459 21.0912H21.8084C22.2205 20.0474 23.2387 19.3067 24.4272 19.3067C25.6156 19.3067 26.6337 20.0474 27.0459 21.0912ZM11.0702 19.292L13.7598 9.25393C14.4973 9.26581 15.2309 9.07751 15.8879 8.69796C16.545 8.31861 17.0738 7.7792 17.4334 7.13294L22.0044 8.35772L15.3711 14.9911L11.0702 19.292ZM12.1708 2.25981L24.7356 5.62651L23.663 6.69925L17.0988 4.94034C16.8385 4.87056 16.5613 4.90712 16.3281 5.0418C16.0948 5.17648 15.9246 5.3983 15.8549 5.65851C15.7091 6.20249 15.3602 6.6572 14.8725 6.93884C14.3846 7.22049 13.8164 7.29524 13.2723 7.14949C12.7306 7.00425 12.1736 7.32581 12.0284 7.86766L8.47626 21.1241H7.1161L12.1708 2.25981ZM4.26566 16.6553H6.21054L5.01308 21.1241H4.26556C3.03346 21.1241 2.03121 20.1218 2.03121 18.8898C2.03131 17.6577 3.03377 16.6553 4.26566 16.6553ZM49.9689 46.9222C49.9689 48.6023 48.602 49.9691 46.922 49.9691H45.4983C46.1368 49.12 46.5158 48.0652 46.5158 46.9234V42.8429H47.1252C48.1859 42.8429 49.1677 42.5014 49.9689 41.9238V46.9222ZM49.9689 37.968C49.9689 39.536 48.6931 40.8117 47.1252 40.8117H25.797C23.4449 40.8117 21.5313 38.8982 21.5313 36.546C21.5313 34.1939 23.4448 32.2804 25.797 32.2804H28.875C29.436 32.2804 29.8907 31.8256 29.8907 31.2647C29.8907 30.7039 29.436 30.2491 28.875 30.2491H25.797C22.3248 30.2491 19.5001 33.0738 19.5001 36.5459C19.5001 40.0181 22.3248 42.8428 25.797 42.8428H44.4845V46.9233C44.4845 48.5877 43.143 49.9449 41.4846 49.9702H6.90626V38.533C6.90626 37.9721 6.45155 37.5173 5.89061 37.5173C5.32966 37.5173 4.87495 37.9721 4.87495 38.533V49.9628C3.28931 49.8579 2.03121 48.5352 2.03121 46.9235V22.5214C2.68154 22.9229 3.44683 23.1553 4.26556 23.1553H41.4375C43.1176 23.1553 44.4843 24.5222 44.4843 26.2022V30.2492H37.1408C36.5799 30.2492 36.1252 30.704 36.1252 31.2648C36.1252 31.8257 36.5799 32.2805 37.1408 32.2805H47.5617C48.4487 32.2805 49.275 32.0179 49.9689 31.568V37.968Z" fill="#DFBB7A"/>
<path d="M6.60824 33.8523C6.41932 33.6635 6.15728 33.5547 5.89017 33.5547C5.62305 33.5547 5.36101 33.6634 5.1721 33.8523C4.98319 34.0412 4.87451 34.3032 4.87451 34.5703C4.87451 34.8375 4.98319 35.0995 5.1721 35.2884C5.36101 35.4773 5.62305 35.586 5.89017 35.586C6.15728 35.586 6.41932 35.4773 6.60824 35.2884C6.79715 35.0995 6.90582 34.8375 6.90582 34.5703C6.90572 34.3032 6.79705 34.0412 6.60824 33.8523Z" fill="#DFBB7A"/>
</svg>
