<svg width="19" height="19" viewBox="0 0 19 19" fill="none" xmlns="http://www.w3.org/2000/svg">
<path d="M18.3573 9.29415C18.3573 14.2057 14.3448 18.1873 9.39392 18.1873C7.82282 18.1873 6.34698 17.7855 5.06224 17.0818L0.100098 18.6576L1.71763 13.8848C0.902018 12.5453 0.432296 10.9724 0.432296 9.29355C0.432892 4.38201 4.44428 0.400391 9.39511 0.400391C14.3453 0.401581 18.3573 4.38261 18.3573 9.29415ZM9.39333 1.81849C5.23846 1.81849 1.85873 5.17262 1.85873 9.29593C1.85873 10.9319 2.39215 12.4465 3.29409 13.6788L2.35345 16.4549L5.24799 15.5351C6.43866 16.3162 7.86331 16.771 9.39333 16.771C13.5482 16.771 16.9291 13.4175 16.9291 9.29415C16.9303 5.17262 13.5488 1.81849 9.39333 1.81849ZM13.9203 11.3427C13.8643 11.2528 13.7179 11.198 13.4988 11.0885C13.2803 10.979 12.1986 10.4521 11.9979 10.3806C11.7955 10.3074 11.6491 10.2705 11.5026 10.489C11.3579 10.7075 10.9364 11.198 10.8073 11.3445C10.6793 11.4903 10.5513 11.5088 10.3316 11.401C10.1119 11.2903 9.40345 11.0617 8.56402 10.3193C7.91093 9.74065 7.46979 9.02803 7.34239 8.80954C7.2132 8.59165 7.32929 8.47377 7.43824 8.36542C7.53647 8.26719 7.65792 8.11062 7.76805 7.98262C7.87819 7.85581 7.91451 7.76591 7.98773 7.62006C8.05977 7.4742 8.02345 7.34739 7.96928 7.23725C7.91451 7.12771 7.47574 6.0561 7.29178 5.61972C7.10901 5.18393 6.92625 5.25597 6.79765 5.25597C6.66965 5.25597 6.5232 5.23811 6.37675 5.23811C6.23029 5.23811 5.99216 5.29109 5.79153 5.50958C5.5909 5.72807 5.02295 6.25495 5.02295 7.32775C5.02295 8.40174 5.80939 9.43703 5.91953 9.58229C6.03026 9.72696 7.44002 12.0006 9.67314 12.8733C11.9074 13.7455 11.9074 13.4544 12.3099 13.4175C12.7135 13.3805 13.6101 12.8906 13.7923 12.3822C13.9756 11.8714 13.9756 11.4338 13.9203 11.3427Z" fill="white"/>
</svg>
