<svg width="17" height="17" viewBox="0 0 17 17" fill="none" xmlns="http://www.w3.org/2000/svg">
<path d="M16.0088 7.79846C16.0088 12.1051 12.4904 15.5964 8.14926 15.5964C6.77165 15.5964 5.47756 15.244 4.35104 14.627L0 16.0088L1.41833 11.8238C0.703161 10.6492 0.291287 9.27004 0.291287 7.79794C0.291809 3.49127 3.80918 0 8.1503 0C12.4909 0.00104404 16.0088 3.49179 16.0088 7.79846ZM8.14874 1.24345C4.50556 1.24345 1.54205 4.18451 1.54205 7.80003C1.54205 9.23454 2.00978 10.5626 2.80064 11.6431L1.97585 14.0773L4.51391 13.2708C5.55795 13.9557 6.80714 14.3545 8.14874 14.3545C11.7919 14.3545 14.7565 11.414 14.7565 7.79846C14.7575 4.18451 11.7924 1.24345 8.14874 1.24345ZM12.1182 9.59473C12.0691 9.51591 11.9407 9.46788 11.7486 9.37183C11.557 9.27578 10.6085 8.81379 10.4326 8.75115C10.2551 8.68694 10.1267 8.65457 9.99825 8.84616C9.8714 9.03774 9.50181 9.46788 9.38854 9.5963C9.2763 9.72419 9.16407 9.74038 8.97144 9.64589C8.77882 9.5488 8.15761 9.34834 7.42156 8.69738C6.84891 8.18998 6.46209 7.56512 6.35038 7.37354C6.2371 7.18248 6.33889 7.07912 6.43442 6.98411C6.52056 6.89798 6.62705 6.76068 6.72362 6.64845C6.8202 6.53726 6.85204 6.45844 6.91625 6.33054C6.97941 6.20264 6.94757 6.09145 6.90006 5.99488C6.85204 5.89883 6.46731 4.95919 6.30601 4.57655C6.14574 4.19443 5.98548 4.2576 5.87273 4.2576C5.76049 4.2576 5.63208 4.24194 5.50366 4.24194C5.37524 4.24194 5.16643 4.2884 4.99051 4.47998C4.81459 4.67156 4.31659 5.13355 4.31659 6.07423C4.31659 7.01595 5.00617 7.92375 5.10275 8.05112C5.19984 8.17797 6.43599 10.1716 8.39409 10.9368C10.3532 11.7016 10.3532 11.4463 10.7061 11.414C11.06 11.3816 11.8462 10.952 12.0059 10.5062C12.1667 10.0583 12.1667 9.6746 12.1182 9.59473Z" fill="white"/>
</svg>
