<?xml version="1.0" encoding="iso-8859-1"?>
<!-- Generator: Adobe Illustrator 19.0.0, SVG Export Plug-In . SVG Version: 6.00 Build 0)  -->
<svg version="1.1" id="Capa_1" xmlns="http://www.w3.org/2000/svg" xmlns:xlink="http://www.w3.org/1999/xlink" x="0px" y="0px"
	 viewBox="0 0 480 480" style="enable-background:new 0 0 480 480;" xml:space="preserve">
<g>
	<g>
		<path style="fill:#fff;" d="M240.003,40c-30.928,0-56,25.072-56,56c0,30.928,25.072,56,56,56c30.913-0.036,55.964-25.087,56-56
			C296.003,65.072,270.931,40,240.003,40z M240.003,136c-22.091,0-40-17.909-40-40s17.909-40,40-40c22.091,0,40,17.909,40,40
			C279.977,118.081,262.084,135.974,240.003,136z"/>
	</g>
</g>
<g>
	<g>
		<path style="fill:#fff;" d="M479.878,470.609l-48-272c-0.672-3.823-3.993-6.611-7.875-6.609H303.138l22.404-49.465
			c14.926-30.055,13.818-65.586-2.953-94.652c-15.335-27.622-43.647-45.565-75.172-47.641C245.081,0.082,242.37,0,240.003,0
			c-9.185-0.008-18.327,1.243-27.172,3.719c-26.881,7.555-48.96,26.761-60.164,52.336c-12.163,27.063-11.579,58.148,1.594,84.734
			L177.283,192H64.003c-3.797,0-7.07,2.668-7.836,6.387l-56,272c-0.892,4.326,1.891,8.556,6.216,9.448
			c0.533,0.11,1.076,0.165,1.62,0.165h464c4.419-0.003,8-3.588,7.996-8.008C479.999,471.529,479.959,471.066,479.878,470.609z
			 M168.722,133.945c-11.147-22.372-11.675-48.564-1.437-71.367c9.26-21.209,27.54-37.15,49.812-43.438
			c7.456-2.088,15.163-3.145,22.906-3.141c2.023,0,4.328,0.066,6.328,0.203c26.178,1.758,49.673,16.687,62.383,39.641
			c14.13,24.527,15.022,54.504,2.375,79.828l-71.062,156.879L168.722,133.945z M168.003,288.004c0-0.001,0-0.003,0-0.004v-80h16.474
			l48.229,107.281c1.291,2.869,4.143,4.715,7.289,4.719h0.008c3.142,0.001,5.993-1.837,7.289-4.699L295.891,208h121.401l29.644,168
			h-70.933v-32c0.001-4.417-3.579-7.999-7.996-8c-0.001,0-0.003,0-0.004,0h-240v-40h32
			C164.42,296.001,168.002,292.421,168.003,288.004z M70.526,208h81.477v72H55.702L70.526,208z M296.003,383.996
			c0,0.001,0,0.003,0,0.004v80H17.816l34.592-168h59.596v48c-0.001,4.417,3.579,7.999,7.996,8c0.001,0,0.003,0,0.004,0h240v24h-56
			C299.586,375.999,296.004,379.579,296.003,383.996z M312.003,464v-72h137.756l12.705,72H312.003z"/>
	</g>
</g>
</svg>
