<?xml version="1.0" encoding="iso-8859-1"?>
<!-- Generator: Adobe Illustrator 19.0.0, SVG Export Plug-In . SVG Version: 6.00 Build 0)  -->
<svg version="1.1" id="Capa_1" xmlns="http://www.w3.org/2000/svg" xmlns:xlink="http://www.w3.org/1999/xlink" x="0px" y="0px"
	 viewBox="0 0 512 512" style="enable-background:new 0 0 512 512;" xml:space="preserve">
<g>
	<g>
		<g>
			<path style="fill:#fff;" d="M494.933,153.6h-32.27l-198.13-90.809V8.533C264.533,3.82,260.713,0,256,0s-8.533,3.82-8.533,8.533v54.257L49.337,153.6
				h-32.27C7.645,153.609,0.009,161.245,0,170.667v324.267c0.009,9.422,7.645,17.057,17.067,17.067H76.8
				c9.422-0.009,17.057-7.645,17.067-17.067h324.267c0.009,9.422,7.645,17.057,17.067,17.067h59.733
				c9.422-0.009,17.057-7.645,17.067-17.067V170.667C511.991,161.245,504.355,153.609,494.933,153.6z M17.067,238.933h17.067
				v187.733H17.067V238.933z M17.067,494.933v-51.2H76.8l0.002,8.523l-0.002,0.01l0.002,0.01l0.009,34.071L76.8,486.4l0.01,0.051
				l0.002,8.482H17.067z M51.2,426.667V238.933h17.067v187.733H51.2z M17.067,221.867v-51.2H76.8l0.002,8.523L76.8,179.2l0.002,0.01
				l0.009,34.071l-0.011,0.052l0.01,0.051l0.002,8.482H17.067z M418.133,477.867H93.867V460.8h324.267V477.867z M426.667,429.04
				c-5.262,3.024-8.514,8.624-8.533,14.693H93.867c-0.019-6.069-3.271-11.669-8.533-14.693V236.56
				c5.262-3.024,8.514-8.624,8.533-14.693h324.267c0.019,6.069,3.271,11.669,8.533,14.693V429.04z M93.867,204.8v-17.067h324.267
				V204.8H93.867z M418.133,170.667H93.867c-0.02-6.108-3.314-11.737-8.63-14.746L256,77.654l170.764,78.267
				C421.448,158.93,418.153,164.558,418.133,170.667z M435.2,170.667h59.733l0.002,8.523l-0.002,0.01v42.667H435.2V170.667z
				 M494.933,238.933v187.733h-17.067V238.933H494.933z M460.8,238.933v187.733h-17.067V238.933H460.8z M435.2,494.933v-51.2h59.733
				V486.4l0.01,0.051l0.002,8.482H435.2z"/>
			<path style="fill:#fff;" d="M187.733,238.933c-4.713,0-8.533,3.82-8.533,8.533v170.667c0,4.713,3.82,8.533,8.533,8.533s8.533-3.82,8.533-8.533
				V247.467C196.267,242.754,192.446,238.933,187.733,238.933z"/>
			<path style="fill:#fff;" d="M153.6,238.933c-4.713,0-8.533,3.82-8.533,8.533v170.667c0,4.713,3.821,8.533,8.533,8.533
				c4.713,0,8.533-3.82,8.533-8.533V247.467C162.133,242.754,158.313,238.933,153.6,238.933z"/>
			<path style="fill:#fff;" d="M119.467,238.933c-4.713,0-8.533,3.82-8.533,8.533v170.667c0,4.713,3.82,8.533,8.533,8.533s8.533-3.82,8.533-8.533
				V247.467C128,242.754,124.18,238.933,119.467,238.933z"/>
			<path style="fill:#fff;" d="M221.867,238.933c-4.713,0-8.533,3.82-8.533,8.533v170.667c0,4.713,3.82,8.533,8.533,8.533s8.533-3.82,8.533-8.533
				V247.467C230.4,242.754,226.58,238.933,221.867,238.933z"/>
			<path style="fill:#fff;" d="M256,238.933c-4.713,0-8.533,3.82-8.533,8.533v170.667c0,4.713,3.82,8.533,8.533,8.533s8.533-3.82,8.533-8.533V247.467
				C264.533,242.754,260.713,238.933,256,238.933z"/>
			<path style="fill:#fff;" d="M290.133,238.933c-4.713,0-8.533,3.82-8.533,8.533v170.667c0,4.713,3.82,8.533,8.533,8.533s8.533-3.82,8.533-8.533
				V247.467C298.667,242.754,294.846,238.933,290.133,238.933z"/>
			<path style="fill:#fff;" d="M324.267,238.933c-4.713,0-8.533,3.82-8.533,8.533v170.667c0,4.713,3.82,8.533,8.533,8.533s8.533-3.82,8.533-8.533
				V247.467C332.8,242.754,328.979,238.933,324.267,238.933z"/>
			<path style="fill:#fff;" d="M358.4,238.933c-4.713,0-8.533,3.82-8.533,8.533v170.667c0,4.713,3.82,8.533,8.533,8.533s8.533-3.82,8.533-8.533V247.467
				C366.933,242.754,363.113,238.933,358.4,238.933z"/>
			<path style="fill:#fff;" d="M392.533,238.933c-4.713,0-8.533,3.82-8.533,8.533v170.667c0,4.713,3.821,8.533,8.533,8.533
				c4.713,0,8.533-3.82,8.533-8.533V247.467C401.067,242.754,397.246,238.933,392.533,238.933z"/>
		</g>
	</g>
</g>
</svg>
