<svg width="10" height="13" viewBox="0 0 10 13" fill="none" xmlns="http://www.w3.org/2000/svg">
<path d="M5 0C2.24308 0 0 2.22117 0 4.95117C0 6.03154 0.344615 7.05809 0.997436 7.91934L4.69179 12.8464C4.70103 12.8583 4.71513 12.8629 4.72538 12.8736C4.91 13.0693 5.17641 13.0201 5.30795 12.8464C6.3718 11.4408 8.3218 8.81563 9.07154 7.82539C9.07154 7.82539 9.07179 7.82463 9.07205 7.82412L9.07667 7.81803C9.68077 6.9776 10 5.98635 10 4.95117C10 2.22117 7.75692 0 5 0ZM5 7.62227C3.51564 7.62227 2.30256 6.42104 2.30256 4.95117C2.30256 3.48131 3.51564 2.28008 5 2.28008C6.48436 2.28008 7.69744 3.48131 7.69744 4.95117C7.69744 6.42104 6.48436 7.62227 5 7.62227Z" fill="#FF181F"/>
</svg>
