<svg width="16" height="25" viewBox="0 0 16 25" fill="none" xmlns="http://www.w3.org/2000/svg">
<path opacity="0.4" d="M15.2918 0.699897V0.697314C14.8411 0.251227 14.2285 0.000258264 13.5895 0H2.40787C1.0798 0.00426136 0.00432787 1.06321 0 2.37087V22.6265C0.000262295 23.2557 0.255148 23.8589 0.708197 24.3027C1.15823 24.7481 1.76977 24.999 2.40787 25H13.5921C14.2302 24.999 14.8418 24.7481 15.2918 24.3027C15.7442 23.8596 15.999 23.2574 16 22.6291V2.37345C15.999 1.74516 15.7442 1.14301 15.2918 0.699897ZM8 23.391C7.64072 23.391 7.34951 23.1043 7.34951 22.7505C7.34951 22.3968 7.64072 22.11 8 22.11C8.35928 22.11 8.65049 22.3968 8.65049 22.7505C8.65049 23.1043 8.35928 23.391 8 23.391ZM14.0879 19.3698C14.0879 20.2257 13.3833 20.9194 12.5141 20.9194H3.48328C2.6141 20.9194 1.90951 20.2257 1.90951 19.3698V4.27428C1.90951 3.41845 2.6141 2.72469 3.48328 2.72469H12.5167C13.3859 2.72469 14.0905 3.41845 14.0905 4.27428L14.0879 19.3698Z" fill="black"/>
</svg>
