<svg width="62" height="70" viewBox="0 0 62 70" fill="none" xmlns="http://www.w3.org/2000/svg">
<path d="M30.9518 49.4412C41.2386 49.4412 49.5776 41.1021 49.5776 30.8153C49.5776 20.5285 41.2386 12.1895 30.9518 12.1895C20.665 12.1895 12.3259 20.5285 12.3259 30.8153C12.3259 41.1021 20.665 49.4412 30.9518 49.4412Z" fill="url(#paint0_linear)"/>
<path d="M52.838 9.06545C46.9921 3.21953 39.2193 0 30.9518 0C22.6842 0 14.9115 3.21953 9.06559 9.06545C3.21953 14.9116 0 22.6842 0 30.9518C0 45.5373 10.1968 58.1295 24.3625 61.1981L30.9518 69.9839L37.5412 61.198C51.7067 58.1294 61.9036 45.5373 61.9036 30.9518C61.9036 22.6842 58.684 14.9116 52.838 9.06545ZM30.9518 8.08033C43.4877 8.08033 53.6863 18.2791 53.6863 30.8148C53.6863 43.3506 43.4877 53.5493 30.9518 53.5493C18.4159 53.5493 8.21729 43.3506 8.21729 30.8148C8.21729 18.2791 18.4159 8.08033 30.9518 8.08033Z" fill="url(#paint1_linear)"/>
<defs>
<linearGradient id="paint0_linear" x1="29.9112" y1="41.7717" x2="27.0701" y2="19.1064" gradientUnits="userSpaceOnUse">
<stop stop-color="#FF0000"/>
<stop offset="1" stop-color="#FF5933"/>
</linearGradient>
<linearGradient id="paint1_linear" x1="29.2226" y1="55.5755" x2="23.2143" y2="13.1771" gradientUnits="userSpaceOnUse">
<stop stop-color="#FF0000"/>
<stop offset="1" stop-color="#FF5933"/>
</linearGradient>
</defs>
</svg>
