<svg width="12" height="12" viewBox="0 0 12 12" fill="none" xmlns="http://www.w3.org/2000/svg">
<path fill-rule="evenodd" clip-rule="evenodd" d="M9.51393 2.14269C8.47702 1.10456 7.098 0.532591 5.62888 0.531982C2.60162 0.531982 0.137862 2.99567 0.136645 6.02375C0.136239 6.99173 0.389109 7.93664 0.86975 8.76953L0.0905762 11.6155L3.0021 10.8517C3.80434 11.2894 4.70751 11.52 5.62665 11.5202H5.62895C8.65588 11.5202 11.1199 9.05636 11.1211 6.02814C11.1217 4.56058 10.5509 3.18076 9.51393 2.14269ZM5.62888 10.5927H5.62699C4.8079 10.5924 4.00458 10.3723 3.3036 9.95642L3.13699 9.85745L1.40925 10.3107L1.87041 8.62618L1.76183 8.45348C1.30486 7.72666 1.06356 6.8866 1.06397 6.02409C1.06492 3.50723 3.11277 1.45958 5.63071 1.45958C6.85 1.45998 7.99617 1.93542 8.85801 2.79827C9.71985 3.66113 10.1942 4.80804 10.1938 6.02781C10.1927 8.54487 8.145 10.5927 5.62888 10.5927ZM8.13282 7.17384C7.99563 7.10511 7.3209 6.77322 7.19508 6.72736C7.06939 6.68156 6.97779 6.65876 6.8864 6.79609C6.79487 6.93342 6.53192 7.24257 6.45183 7.3341C6.37173 7.42569 6.29177 7.43719 6.15451 7.36846C6.01725 7.2998 5.5751 7.15483 5.05089 6.68731C4.64298 6.32343 4.36758 5.87404 4.28748 5.73672C4.20752 5.59925 4.28681 5.53215 4.34769 5.45665C4.49625 5.27217 4.645 5.07877 4.69073 4.98724C4.73653 4.89564 4.7136 4.81548 4.67923 4.74682C4.645 4.67815 4.37055 4.00268 4.25623 3.72783C4.14474 3.46035 4.0317 3.49647 3.94741 3.49228C3.86745 3.48829 3.77593 3.48747 3.6844 3.48747C3.59294 3.48747 3.44425 3.52177 3.31842 3.65923C3.19266 3.79663 2.83818 4.12858 2.83818 4.80405C2.83818 5.47952 3.32992 6.13205 3.39852 6.22365C3.46711 6.31524 4.36623 7.70136 5.7428 8.29572C6.07022 8.43724 6.3258 8.5216 6.52516 8.58485C6.85393 8.6893 7.153 8.67455 7.3895 8.63924C7.65319 8.5998 8.20135 8.30722 8.31581 7.9867C8.43014 7.66612 8.43014 7.3914 8.39577 7.3341C8.36154 7.27687 8.27001 7.24257 8.13282 7.17384Z" fill="white"/>
</svg>
