<svg width="200" height="200" viewBox="0 0 200 200" fill="none" xmlns="http://www.w3.org/2000/svg">
<path d="M77.4194 70.9678C77.4194 53.1815 62.9477 38.7097 45.1614 38.7097C27.3751 38.7097 12.9033 53.1815 12.9033 70.9678C12.9033 88.7541 27.3751 103.226 45.1614 103.226C62.9477 103.226 77.4194 88.7541 77.4194 70.9678ZM19.3549 70.9678C19.3549 56.7379 30.9315 45.1613 45.1614 45.1613C59.3912 45.1613 70.9678 56.7379 70.9678 70.9678C70.9678 72.4234 70.8146 73.8387 70.5888 75.2258L58.0162 71.4517C58.0243 71.2904 58.0646 71.1371 58.0646 70.9678C58.0646 63.8508 52.2783 58.0646 45.1614 58.0646C38.0444 58.0646 32.2582 63.8508 32.2582 70.9678C32.2582 78.0847 38.0444 83.871 45.1614 83.871C49.8307 83.871 53.8872 81.3549 56.1533 77.6331L68.742 81.4113C64.7178 90.4476 55.6694 96.7742 45.1614 96.7742C30.9315 96.7742 19.3549 85.1976 19.3549 70.9678ZM51.613 70.9678C51.613 74.5242 48.7178 77.4194 45.1614 77.4194C41.6049 77.4194 38.7098 74.5242 38.7098 70.9678C38.7098 67.4113 41.6049 64.5162 45.1614 64.5162C48.7178 64.5162 51.613 67.4113 51.613 70.9678Z" fill="#D24597"/>
<path d="M45.1614 12.9033H51.613V19.3549H45.1614V12.9033Z" fill="#D24597"/>
<path d="M58.0645 12.9033H64.5161V19.3549H58.0645V12.9033Z" fill="#D24597"/>
<path d="M32.2581 12.9033H38.7097V19.3549H32.2581V12.9033Z" fill="#D24597"/>
<path d="M161.29 77.4192C168.407 77.4192 174.194 71.633 174.194 64.516C174.194 57.3991 168.407 51.6128 161.29 51.6128C154.173 51.6128 148.387 57.3991 148.387 64.516C148.387 71.633 154.173 77.4192 161.29 77.4192ZM161.29 58.0644C164.847 58.0644 167.742 60.9596 167.742 64.516C167.742 68.0725 164.847 70.9676 161.29 70.9676C157.734 70.9676 154.839 68.0725 154.839 64.516C154.839 60.9596 157.734 58.0644 161.29 58.0644Z" fill="#D24597"/>
<path d="M190.323 0H29.0323C23.6976 0 19.3548 4.34274 19.3548 9.67742V33.9597C7.66935 42.129 0 55.6613 0 70.9677C0 89.6895 11.4556 105.782 27.7218 112.621L29.4113 115.46C31.2419 118.536 32.2258 122.048 32.254 125.625L25.9314 179.379C25.8468 180.097 25.8065 180.819 25.8065 181.536C25.8065 191.718 34.0887 200 44.2661 200H46.0524C56.2339 200 64.5121 191.718 64.5121 181.54C64.5121 180.819 64.4718 180.101 64.3871 179.379L60.746 148.387H190.323C195.657 148.387 200 144.044 200 138.71V9.67742C200 4.34274 195.657 0 190.323 0ZM29.0323 6.45161H190.323C192.101 6.45161 193.548 7.89516 193.548 9.67742V25.8065H25.8065V9.67742C25.8065 7.89516 27.254 6.45161 29.0323 6.45161ZM6.45161 70.9677C6.45161 49.621 23.8145 32.2581 45.1613 32.2581C66.5081 32.2581 83.871 49.621 83.871 70.9677C83.871 92.3145 66.5081 109.677 45.1613 109.677C23.8145 109.677 6.45161 92.3145 6.45161 70.9677ZM45.1613 116.129C48.1129 116.129 50.9919 115.827 53.7823 115.282C52.7823 117.609 52.1371 120.069 51.8306 122.581H38.4919C38.1855 120.069 37.5363 117.609 36.5403 115.282C39.3306 115.827 42.2137 116.129 45.1613 116.129ZM46.0565 193.548H44.2702C37.6452 193.548 32.2581 188.161 32.2581 181.54C32.2581 181.069 32.2823 180.597 32.3387 180.133L38.3508 129.032H51.9879L57.9798 180.133C58.0363 180.597 58.0645 181.073 58.0645 181.54C58.0645 188.161 52.6774 193.548 46.0565 193.548ZM83.871 141.935H70.9677V122.581H83.871V141.935ZM116.129 141.935H103.226V116.129H116.129V141.935ZM148.387 141.935H135.484V109.677H148.387V141.935ZM180.645 141.935H167.742V103.226H180.645V141.935ZM190.323 141.935H187.097V96.7742H161.29V141.935H154.839V103.226H129.032V141.935H122.581V109.677H96.7742V141.935H90.3226V116.129H64.5161V141.935H59.9839L58.0645 125.621C58.0968 122.048 59.0766 118.532 60.9073 115.46L62.5968 112.617C73.9597 107.843 82.9274 98.5323 87.3307 86.9839L96.8226 89.8306C96.8186 90 96.7782 90.1532 96.7782 90.3226C96.7782 97.4395 102.565 103.226 109.681 103.226C116.798 103.226 122.585 97.4395 122.585 90.3226C122.585 89.3952 122.48 88.496 122.29 87.625L139.847 78.8468C144.476 85.7621 152.363 90.3226 161.29 90.3226C175.52 90.3226 187.097 78.746 187.097 64.5161C187.097 50.2863 175.52 38.7097 161.29 38.7097C147.06 38.7097 135.484 50.2863 135.484 64.5161C135.484 67.5161 136.024 70.3871 136.972 73.0686L119.355 81.879C116.988 79.1694 113.548 77.4194 109.677 77.4194C105.008 77.4194 100.952 79.9315 98.6855 83.6532L89.2097 80.8105C89.9194 77.6371 90.3226 74.3508 90.3226 70.9677C90.3226 54.5282 81.4677 40.1573 68.3024 32.2581H193.548V138.71C193.548 140.492 192.101 141.935 190.323 141.935ZM103.226 90.3226C103.226 86.7661 106.121 83.871 109.677 83.871C113.234 83.871 116.129 86.7661 116.129 90.3226C116.129 93.879 113.234 96.7742 109.677 96.7742C106.121 96.7742 103.226 93.879 103.226 90.3226ZM141.935 64.5161C141.935 53.8427 150.617 45.1613 161.29 45.1613C171.964 45.1613 180.645 53.8427 180.645 64.5161C180.645 75.1895 171.964 83.871 161.29 83.871C150.617 83.871 141.935 75.1895 141.935 64.5161Z" fill="#56E0F5"/>
<path d="M96.7742 38.7097H129.032V45.1613H96.7742V38.7097Z" fill="#D24597"/>
<path d="M96.7742 51.6128H129.032V58.0644H96.7742V51.6128Z" fill="#D24597"/>
<path d="M122.581 64.5161H129.032V70.9677H122.581V64.5161Z" fill="#D24597"/>
<path d="M109.677 64.5161H116.129V70.9677H109.677V64.5161Z" fill="#D24597"/>
<path d="M96.7742 64.5161H103.226V70.9677H96.7742V64.5161Z" fill="#D24597"/>
</svg>
