<svg width="200" height="200" viewBox="0 0 200 200" fill="none" xmlns="http://www.w3.org/2000/svg">
<path d="M182.319 135.415L141.936 126.448V120.024C148.077 116.008 152.887 110.145 155.601 103.226H164.516C171.633 103.226 177.419 97.4395 177.419 90.3225V67.7419C177.419 62.9879 174.807 58.8709 170.968 56.633V42.5282C170.968 35.4999 166.77 29.2419 160.387 26.5362L159.617 24.9959C151.932 9.61687 136.476 0.0644531 119.286 0.0644531C94.4235 0.0684854 74.1936 20.2983 74.1936 45.1612V56.633C70.3549 58.8709 67.742 62.9879 67.742 67.7419V90.3225C67.742 97.4395 73.5283 103.226 80.6453 103.226H89.5606C92.2743 110.145 97.0848 116.008 103.226 120.024V126.448L62.8428 135.419C52.4315 137.73 45.1614 146.798 45.1614 157.46V200H200V157.46C200 146.798 192.73 137.73 182.319 135.415ZM144.71 133.669L139.915 152.839L127.641 144.657L139.738 132.56L144.71 133.669ZM118.774 167.742H126.391L131.553 193.548H113.617L118.774 167.742ZM126.512 161.29H118.645L116.577 153.036L122.577 149.04L128.573 153.04L126.512 161.29ZM170.968 90.3225C170.968 93.879 168.073 96.7741 164.516 96.7741H157.448C157.835 94.6774 158.065 92.5282 158.065 90.3225V61.2903H164.516C168.073 61.2903 170.968 64.1854 170.968 67.7419V90.3225ZM80.6453 45.1612C80.6453 23.8548 97.9799 6.5201 119.286 6.5201C134.016 6.5201 147.262 14.7056 153.847 27.883L155.778 31.7419L157.044 32.1653C161.508 33.6572 164.512 37.8185 164.512 42.5322V54.8387H158.061V45.1612H151.609V52.7741C149.206 54.004 146.581 54.6935 143.875 54.7943C145.363 53.4395 146.702 51.8991 147.843 50.1774L142.476 46.5967C139.161 51.5725 133.686 54.5846 127.742 54.7983C129.234 53.4395 130.573 51.8951 131.718 50.1774L126.351 46.5967C123.036 51.5725 117.561 54.5846 111.617 54.7983C113.109 53.4395 114.448 51.8951 115.593 50.1774L110.226 46.5967C106.786 51.754 101.028 54.8346 94.8307 54.8346H93.5485V45.1572H87.0969V54.8346H80.6453V45.1612ZM80.6453 96.7741C77.0888 96.7741 74.1936 93.879 74.1936 90.3225V67.7419C74.1936 64.1854 77.0888 61.2903 80.6453 61.2903H87.0969V90.3225C87.0969 92.5282 87.3267 94.6774 87.7138 96.7741H80.6453ZM93.5485 90.3225V61.2903H94.8227C98.9477 61.2903 102.923 60.2701 106.452 58.4112V61.2903H110.952C115.077 61.2903 119.053 60.2701 122.581 58.4112V61.2903H127.081C131.206 61.2903 135.182 60.2701 138.71 58.4112V61.2903H143.21C146.101 61.2903 148.928 60.7338 151.613 59.7661V90.3225C151.613 92.5403 151.339 94.6975 150.863 96.7741H134.883C133.549 93.0282 130 90.3225 125.799 90.3225H119.347C114.012 90.3225 109.669 94.6653 109.669 100C109.669 105.335 114.012 109.677 119.347 109.677H125.799C129.996 109.677 133.544 106.972 134.883 103.226H148.544C143.786 112.766 133.944 119.355 122.577 119.355C106.573 119.355 93.5485 106.331 93.5485 90.3225ZM129.032 100C129.032 101.778 127.585 103.226 125.807 103.226H119.355C117.577 103.226 116.129 101.778 116.129 100C116.129 98.2217 117.577 96.7741 119.355 96.7741H125.807C127.585 96.7741 129.032 98.2217 129.032 100ZM122.581 125.806C127.137 125.806 131.476 124.915 135.484 123.343V127.698L122.581 140.601L109.678 127.698V123.343C113.686 124.915 118.024 125.806 122.581 125.806ZM105.423 132.564L117.52 144.661L105.246 152.843L100.452 133.673L105.423 132.564ZM51.613 157.46C51.613 149.843 56.8065 143.367 64.242 141.714L94.1533 135.064L101.206 163.282L110.883 156.831L112.823 164.593L107.032 193.548H77.4194V158.064H70.9678V193.548H51.613V157.46ZM193.549 193.548H174.194V158.064H167.742V193.548H138.129L132.339 164.597L134.278 156.835L143.956 163.286L151.008 135.069L180.919 141.718C188.355 143.367 193.549 149.847 193.549 157.464V193.548Z" fill="#56E0F5"/>
<path d="M145.161 70.9678C145.161 72.75 143.718 74.1936 141.936 74.1936C140.153 74.1936 138.71 72.75 138.71 70.9678C138.71 69.1855 140.153 67.7419 141.936 67.7419C143.718 67.7419 145.161 69.1855 145.161 70.9678Z" fill="#56E0F5"/>
<path d="M106.452 70.9678C106.452 72.75 105.008 74.1936 103.226 74.1936C101.444 74.1936 100 72.75 100 70.9678C100 69.1855 101.444 67.7419 103.226 67.7419C105.008 67.7419 106.452 69.1855 106.452 70.9678Z" fill="#56E0F5"/>
<path d="M12.9033 12.9033H45.1614V19.3549H12.9033V12.9033Z" fill="#D24597"/>
<path d="M12.9033 25.8064H45.1614V32.258H12.9033V25.8064Z" fill="#D24597"/>
<path d="M48.3871 57.0484V45.1613H58.0645V0H0V45.1613H26.6089L48.3871 57.0484ZM6.45161 6.45161H51.6129V38.7097H41.9355V46.1774L28.254 38.7097H6.45161V6.45161Z" fill="#D24597"/>
<path d="M67.742 119.355H15.7056L19.3548 113.883V61.2902C19.3548 55.9555 15.0121 51.6128 9.67742 51.6128C4.34274 51.6128 0 55.9555 0 61.2902V113.883L7.95161 125.806H67.742V119.355ZM9.67742 58.0644C11.4556 58.0644 12.9032 59.512 12.9032 61.2902V67.7418H6.45161V61.2902C6.45161 59.512 7.8992 58.0644 9.67742 58.0644ZM9.67742 116.762L6.45161 111.923V74.1934H12.9032V111.923L9.67742 116.762Z" fill="#D24597"/>
<path d="M61.2903 106.452H67.7419V112.903H61.2903V106.452Z" fill="#56E0F5"/>
<path d="M25.8064 106.452H54.8387V112.903H25.8064V106.452Z" fill="#56E0F5"/>
<path d="M25.8064 93.5483H54.8387V100H25.8064V93.5483Z" fill="#56E0F5"/>
<path d="M48.3872 80.6453H54.8388V87.0969H48.3872V80.6453Z" fill="#56E0F5"/>
<path d="M25.8064 80.6453H41.9354V87.0969H25.8064V80.6453Z" fill="#56E0F5"/>
</svg>
