<svg width="161" height="161" viewBox="0 0 161 161" fill="none" xmlns="http://www.w3.org/2000/svg">
<g clip-path="url(#clip0)">
<path d="M109.705 35.6505V43.5804C109.705 45.0325 110.572 46.3296 111.914 46.8853C113.274 47.4488 114.8 47.1217 115.812 46.1098L125.769 36.1533H150.906C156.02 36.1533 160.179 31.9934 160.179 26.8804V9.27291C160.179 4.1599 156.02 0 150.906 0H112.718C107.605 0 103.445 4.1599 103.445 9.27291V26.8801C103.445 30.8563 106.019 34.3807 109.705 35.6505ZM108.16 9.27291C108.16 6.75948 110.205 4.7146 112.718 4.7146H150.907C153.42 4.7146 155.465 6.75948 155.465 9.27291V26.8801C155.465 29.3935 153.42 31.4384 150.907 31.4384H125.21C124.312 31.4384 123.467 31.7881 122.83 32.4236L114.42 40.8339V34.626C114.42 33.0452 113.306 31.6629 111.77 31.339C109.678 30.8979 108.16 29.0225 108.16 26.8804V9.27291H108.16Z" fill="#D24597"/>
<path d="M154.705 138.365H150.222V64.2163C150.222 59.3297 146.246 55.3544 141.36 55.3544H97.2534C95.9513 55.3544 94.896 56.4097 94.896 57.7119C94.896 59.014 95.9513 60.0693 97.2534 60.0693H141.36C143.646 60.0693 145.507 61.9296 145.507 64.2166V138.365H137.649V74.6027C137.649 70.922 134.654 67.9275 130.974 67.9275H82.8178C83.5096 66.1279 83.9873 64.2204 84.2062 62.2321C86.7105 61.6803 88.5899 59.4432 88.5899 56.7751C88.5899 54.6189 88.5899 38.3368 88.5899 36.3963C88.5899 31.738 84.8203 27.9435 80.1711 27.9039C80.0205 23.3522 76.2706 19.696 71.6831 19.696H50.5405C41.4547 19.696 34.0628 27.0879 34.0628 36.1737V56.7751C34.0628 59.4432 35.9423 61.6803 38.4469 62.2321C38.6658 64.2207 39.1434 66.1279 39.8352 67.9275H30.0262C26.3455 67.9275 23.351 70.922 23.351 74.6027V93.8595C20.2624 95.0189 17.5792 96.9402 15.4931 99.3659V64.2163C15.4931 61.9296 17.3534 60.069 19.6404 60.069H25.5188C26.821 60.069 27.8763 59.0137 27.8763 57.7115C27.8763 56.4094 26.821 55.3541 25.5188 55.3541H19.6404C14.7538 55.3541 10.7785 59.3294 10.7785 64.216V111.981V138.365H6.29473C2.84298 138.365 0.0349121 141.173 0.0349121 144.624C0.0349121 153.654 7.38054 161 16.4097 161H144.59C153.619 161 160.965 153.654 160.965 144.625C160.965 141.173 158.157 138.365 154.705 138.365ZM130.974 72.6421C132.055 72.6421 132.934 73.5216 132.934 74.6027V138.365H111.883V129.728C111.883 128.426 110.828 127.37 109.526 127.37C108.224 127.37 107.168 128.426 107.168 129.728V138.365H95.8507V130.885C95.8507 129.583 94.7954 128.527 93.4932 128.527C92.1911 128.527 91.1358 129.583 91.1358 130.885V138.365H71.9604L66.8779 109.706L68.8281 106.211C69.2045 106.294 69.5866 106.34 69.9696 106.34C71.3158 106.34 72.661 105.832 73.7107 104.824L82.4619 96.3015C83.0889 95.6912 83.5254 94.9484 83.7744 94.1548L96.6541 97.9357C102.845 99.7533 107.169 105.529 107.169 111.981V118.707C107.169 120.009 108.224 121.065 109.526 121.065C110.828 121.065 111.884 120.009 111.884 118.707V111.981C111.884 103.451 106.167 95.8151 97.9823 93.4117L82.4254 88.8446C81.9971 88.4355 81.5012 88.0993 80.9566 87.8569L77.7366 86.4224C76.7879 85.9994 75.7716 85.8274 74.7738 85.8919V78.3554C76.9423 76.7894 78.8299 74.8561 80.3434 72.6424H130.974V72.6421ZM43.7213 92.1344L46.8796 90.7162C47.3985 90.4835 48.0035 90.5502 48.4591 90.8907L57.7632 97.8427L53.1932 101.66C52.9341 101.877 52.5571 101.865 52.3127 101.633L43.5823 92.8894V92.8891C43.3474 92.6545 43.4332 92.2636 43.7213 92.1344ZM70.0586 80.982V88.1811L61.5385 94.7786L52.5948 88.0959V80.9823C58.1166 83.2571 64.3808 83.3212 70.0586 80.982ZM79.0375 92.1637C79.3274 92.2919 79.4142 92.6882 79.1727 92.9237L70.4331 101.434C70.1856 101.672 69.8029 101.683 69.5423 101.46C69.5419 101.46 69.5419 101.46 69.5419 101.46L65.2971 97.8304L74.221 90.9206C74.6773 90.5665 75.2892 90.4933 75.8172 90.7285L79.0375 92.1637ZM59.6062 106.933L57.8487 103.915L61.5457 100.827L64.855 103.656L63.0265 106.933H59.6062ZM60.2272 111.648H62.4341L67.1722 138.365H55.4916L60.2272 111.648ZM101.502 143.08C100.55 145.558 98.1509 147.325 95.3416 147.325H65.6581C62.8488 147.325 60.4498 145.558 59.498 143.08H101.502ZM38.7777 36.1737C38.7777 29.6875 44.0546 24.4106 50.5408 24.4106H71.6834C73.7666 24.4106 75.4612 26.1052 75.4612 28.1885C75.4612 30.6308 77.4486 32.6182 79.8909 32.6182H80.0975C82.1808 32.6182 83.8754 34.3128 83.8754 36.396V47.4362H81.9933C80.9393 47.4362 80.0818 46.5786 80.0818 45.5246V43.1882C80.0818 38.5057 75.5106 35.2017 71.0636 36.6709C64.7868 38.7453 57.8735 38.7459 51.5967 36.6724C51.5895 36.6699 51.5798 36.6668 51.5703 36.6639C47.1353 35.2127 42.5716 38.5054 42.5716 43.1876V45.5249C42.5716 46.579 41.7141 47.4365 40.6597 47.4365H38.7777V36.1737ZM38.7777 56.7751V52.1511H40.6597C44.3137 52.1511 47.2865 49.1785 47.2865 45.5246V43.1873C47.2865 41.72 48.7207 40.6861 50.1097 41.1465C50.1166 41.149 50.1257 41.1518 50.1345 41.1543C57.361 43.5376 65.3192 43.5354 72.5431 41.1474C73.9317 40.6874 75.3669 41.7191 75.3669 43.1882V45.5246C75.3669 49.1785 78.3394 52.1511 81.9933 52.1511H83.8754V56.7751C83.8754 57.2565 83.4839 57.6477 83.0031 57.6477C81.2056 57.6477 79.7079 59.058 79.5938 60.8592C78.9878 70.4692 70.9642 77.9972 61.3269 77.9972C51.6895 77.9972 43.6659 70.4692 43.0596 60.8595C42.9464 59.0583 41.449 57.6477 39.6507 57.6477C39.1692 57.6477 38.7777 57.2562 38.7777 56.7751ZM30.0262 72.6421H42.3103C43.8238 74.8558 45.7114 76.7891 47.8796 78.3551V85.8771C46.8897 85.8202 45.8841 85.9953 44.9483 86.4155L41.7899 87.8333C41.2493 88.0761 40.7569 88.4113 40.3311 88.8188L28.0656 92.419V74.603C28.0659 73.5216 28.9451 72.6421 30.0262 72.6421ZM15.4931 111.982C15.4931 105.529 19.8172 99.7536 26.0087 97.9361L26.3924 97.8235C26.4012 97.821 26.4097 97.8185 26.4185 97.8159L38.9736 94.1309C39.2183 94.8959 39.6412 95.6151 40.2459 96.221V96.2207L48.9927 104.981C49.0006 104.989 49.0085 104.996 49.0163 105.004C50.06 106.02 51.4118 106.534 52.7681 106.534C53.131 106.534 53.4935 106.492 53.8511 106.419L55.7793 109.73L50.7037 138.365H31.5176V130.885C31.5176 129.583 30.4623 128.527 29.1602 128.527C27.858 128.527 26.8027 129.583 26.8027 130.885V138.365H15.4931V111.982ZM144.59 156.285H16.4097C9.98044 156.285 4.74951 151.055 4.74951 144.625C4.74951 143.773 5.44256 143.08 6.29473 143.08H54.5894C55.6771 148.193 60.226 152.04 65.6581 152.04H95.3416C100.774 152.04 105.323 148.193 106.41 143.08H154.705C155.557 143.08 156.25 143.773 156.25 144.625C156.251 151.054 151.02 156.285 144.59 156.285Z" fill="#56E0F5"/>
</g>
<defs>
<clipPath id="clip0">
<rect width="161" height="161" fill="white"/>
</clipPath>
</defs>
</svg>
