<svg width="161" height="161" viewBox="0 0 161 161" fill="none" xmlns="http://www.w3.org/2000/svg">
<path d="M19.7288 155.632C19.1439 155.047 18.3326 154.711 17.5056 154.711C16.6755 154.711 15.8673 155.047 15.2824 155.632C14.6944 156.217 14.3611 157.028 14.3611 157.855C14.3611 158.682 14.6944 159.494 15.2824 160.078C15.8673 160.663 16.6758 161 17.5056 161C18.3326 161 19.1439 160.664 19.7288 160.078C20.3134 159.494 20.6501 158.682 20.6501 157.855C20.6501 157.028 20.3137 156.217 19.7288 155.632Z" fill="#D24597"/>
<path d="M117.313 133.41C116.728 132.825 115.917 132.488 115.09 132.488C114.263 132.488 113.452 132.825 112.867 133.41C112.282 133.995 111.945 134.806 111.945 135.633C111.945 136.463 112.281 137.271 112.867 137.856C113.452 138.441 114.263 138.778 115.09 138.778C115.917 138.778 116.728 138.441 117.313 137.856C117.898 137.271 118.234 136.463 118.234 135.633C118.234 134.806 117.898 133.995 117.313 133.41Z" fill="#D24597"/>
<path d="M150.858 50.8219C153.237 48.4321 154.711 45.1388 154.711 41.5078V38.9922C154.711 31.7098 148.786 25.7852 141.504 25.7852C134.221 25.7852 128.297 31.7098 128.297 38.9922V41.5078C128.297 45.1394 129.771 48.4327 132.151 50.8229C126.99 53.6573 123.241 58.7578 122.261 64.7773H107.857C102.656 64.7773 98.4238 69.0093 98.4238 74.2109C98.4238 75.3134 98.6156 76.3712 98.9647 77.3555H62.0353C62.3844 76.3712 62.5762 75.3134 62.5762 74.2109C62.5762 69.0093 58.3443 64.7773 53.1426 64.7773H38.7387C37.7586 58.7578 34.0103 53.657 28.8492 50.8229C31.2293 48.4327 32.7031 45.1394 32.7031 41.5078V38.9922C32.7031 31.7098 26.7785 25.7852 19.4961 25.7852C12.2137 25.7852 6.28906 31.7098 6.28906 38.9922V41.5078C6.28906 45.1388 7.76259 48.4321 10.1421 50.8219C4.1033 54.1384 0 60.5593 0 67.9219V99.3672V103.193C0 113.047 8.01698 121.064 17.8713 121.064H42.7656V151.095C42.7656 152.371 43.0109 153.59 43.4521 154.711H31.0261C29.2897 154.711 27.8816 156.119 27.8816 157.855C27.8816 159.592 29.2897 161 31.0261 161H143.495C145.232 161 146.64 159.592 146.64 157.855C146.64 156.119 145.232 154.711 143.495 154.711H117.548C117.989 153.59 118.234 152.371 118.234 151.095V147.479C118.234 145.742 116.826 144.334 115.09 144.334C113.353 144.334 111.945 145.742 111.945 147.479V151.095C111.945 153.089 110.323 154.711 108.329 154.711C106.335 154.711 104.713 153.089 104.713 151.095V111.395C104.713 106.497 108.698 102.512 113.596 102.512H125.152H127.668H154.711V103.193C154.711 109.58 149.515 114.775 143.129 114.775H115.09C113.353 114.775 111.945 116.184 111.945 117.92V122.951C111.945 124.688 113.353 126.096 115.09 126.096C116.826 126.096 118.234 124.688 118.234 122.951V121.064H143.129C152.983 121.064 161 113.047 161 103.193V99.3672V67.9219C161 60.5593 156.897 54.1384 150.858 50.8219ZM134.586 38.9922C134.586 35.1776 137.689 32.0742 141.504 32.0742C145.319 32.0742 148.422 35.1776 148.422 38.9922V41.5078C148.422 45.3224 145.319 48.4258 141.504 48.4258C137.689 48.4258 134.586 45.3224 134.586 41.5078V38.9922ZM12.5781 38.9922C12.5781 35.1776 15.6815 32.0742 19.4961 32.0742C23.3107 32.0742 26.4141 35.1776 26.4141 38.9922V41.5078C26.4141 45.3224 23.3107 48.4258 19.4961 48.4258C15.6815 48.4258 12.5781 45.3224 12.5781 41.5078V38.9922ZM6.28906 67.9219C6.28906 60.6395 12.2137 54.7148 19.4961 54.7148C26.7785 54.7148 32.7031 60.6395 32.7031 67.9219C32.7031 69.6583 34.1112 71.0664 35.8477 71.0664H53.1426C54.8765 71.0664 56.2871 72.477 56.2871 74.2109C56.2871 75.9448 54.8765 77.3555 53.1426 77.3555H34.8304C29.8306 77.3555 25.2581 74.6175 22.8969 70.2101C22.0771 68.6794 20.1709 68.103 18.6402 68.9234C17.1094 69.7432 16.5333 71.6491 17.3534 73.1802C20.5014 79.0563 26.3339 82.9062 32.8789 83.5489C32.7651 83.8741 32.7031 84.2241 32.7031 84.5879V96.2227H6.28906V67.9219ZM45.0869 96.2227H38.9922V84.5879C38.9922 84.2593 38.9419 83.9423 38.8482 83.6445H45.0869C44.0131 85.496 43.3945 87.6434 43.3945 89.9336C43.3945 92.2238 44.0127 94.3712 45.0869 96.2227ZM56.2871 151.095C56.2871 153.089 54.6648 154.711 52.6709 154.711C50.677 154.711 49.0547 153.089 49.0547 151.095V117.92C49.0547 116.184 47.6466 114.775 45.9102 114.775H17.8713C11.4848 114.775 6.28906 109.58 6.28906 103.193V102.512H33.332H35.8477H47.4038C52.302 102.512 56.2871 106.497 56.2871 111.395V151.095ZM71.0664 154.711H61.8897C62.3312 153.59 62.5762 152.371 62.5762 151.095V111.395C62.5762 108.079 61.5042 105.011 59.6923 102.512H71.0664V154.711ZM83.6445 154.711H77.3555V102.512H83.6445V154.711ZM99.1103 154.711H89.9336V102.512H101.308C99.4961 105.011 98.4238 108.079 98.4238 111.395V151.095C98.4238 152.371 98.6691 153.59 99.1103 154.711ZM105.027 96.2227H55.9727C52.5049 96.2227 49.6836 93.4014 49.6836 89.9336C49.6836 86.4658 52.5049 83.6445 55.9727 83.6445H105.027C108.495 83.6445 111.316 86.4658 111.316 89.9336C111.316 93.4014 108.495 96.2227 105.027 96.2227ZM122.008 84.5879V96.2227H115.913C116.987 94.3712 117.605 92.2238 117.605 89.9336C117.605 87.6434 116.987 85.496 115.913 83.6445H122.152C122.058 83.9423 122.008 84.2593 122.008 84.5879ZM154.711 96.2227H128.297V84.5879C128.297 84.2241 128.235 83.8741 128.121 83.5489C134.666 82.9062 140.499 79.0563 143.647 73.1802C144.467 71.6491 143.891 69.7432 142.36 68.9234C140.828 68.1033 138.923 68.68 138.103 70.2101C135.742 74.6175 131.169 77.3555 126.17 77.3555H107.857C106.124 77.3555 104.713 75.9448 104.713 74.2109C104.713 72.477 106.124 71.0664 107.857 71.0664H125.152C126.889 71.0664 128.297 69.6583 128.297 67.9219C128.297 60.6395 134.221 54.7148 141.504 54.7148C148.786 54.7148 154.711 60.6395 154.711 67.9219V96.2227Z" fill="#56E0F5"/>
<path d="M103.141 0H57.8594C52.6577 0 48.4258 4.23191 48.4258 9.43359V40.25C48.4258 45.4517 52.6577 49.6836 57.8594 49.6836H68.8203L78.2762 59.1395C78.8906 59.7533 79.695 60.0605 80.5 60.0605C81.305 60.0605 82.1094 59.7533 82.7235 59.1395L92.1797 49.6836H103.141C108.342 49.6836 112.574 45.4517 112.574 40.25V9.43359C112.574 4.23191 108.342 0 103.141 0ZM106.285 40.25C106.285 41.9839 104.875 43.3945 103.141 43.3945H90.877C90.043 43.3945 89.2434 43.726 88.6535 44.3156L80.5 52.4687L72.3465 44.3152C71.7566 43.726 70.957 43.3945 70.123 43.3945H57.8594C56.1255 43.3945 54.7148 41.9839 54.7148 40.25V9.43359C54.7148 7.6997 56.1255 6.28906 57.8594 6.28906H103.141C104.875 6.28906 106.285 7.6997 106.285 9.43359V40.25Z" fill="#D24597"/>
<path d="M67.9436 21.4143C67.359 20.8263 66.5477 20.493 65.7207 20.493C64.8937 20.493 64.0824 20.8263 63.4975 21.4143C62.9126 21.9992 62.5762 22.8105 62.5762 23.6375C62.5762 24.4645 62.9123 25.2758 63.4975 25.8607C64.0824 26.4456 64.8937 26.782 65.7207 26.782C66.5477 26.782 67.359 26.4456 67.9436 25.8607C68.5285 25.2758 68.8652 24.4645 68.8652 23.6375C68.8652 22.8105 68.5288 21.9992 67.9436 21.4143Z" fill="#D24597"/>
<path d="M82.7229 21.4143C82.1383 20.8298 81.327 20.493 80.5 20.493C79.673 20.493 78.8617 20.8294 78.2768 21.4143C77.6919 21.9992 77.3555 22.8105 77.3555 23.6375C77.3555 24.4645 77.6916 25.2758 78.2768 25.8607C78.8617 26.4456 79.673 26.782 80.5 26.782C81.327 26.782 82.1383 26.4456 82.7229 25.8607C83.3078 25.2758 83.6445 24.4645 83.6445 23.6375C83.6445 22.8105 83.3081 21.9992 82.7229 21.4143Z" fill="#D24597"/>
<path d="M97.5022 21.4143C96.9176 20.8263 96.1063 20.493 95.2793 20.493C94.4523 20.493 93.641 20.8263 93.0561 21.4143C92.4712 21.9992 92.1348 22.8105 92.1348 23.6375C92.1348 24.4645 92.4709 25.2758 93.0561 25.8607C93.641 26.4456 94.4523 26.782 95.2793 26.782C96.1063 26.782 96.9176 26.4456 97.5022 25.8607C98.087 25.2758 98.4238 24.4645 98.4238 23.6375C98.4238 22.8105 98.0874 21.9992 97.5022 21.4143Z" fill="#D24597"/>
</svg>
