<svg width="161" height="161" viewBox="0 0 161 161" fill="none" xmlns="http://www.w3.org/2000/svg">
<path d="M147.583 0H13.4167C6.00737 0 0 6.00737 0 13.4167V77.8167C0 79.2985 1.20147 80.5 2.68333 80.5C4.16519 80.5 5.36667 79.2985 5.36667 77.8167V13.4167C5.36667 8.97109 8.97109 5.36667 13.4167 5.36667H147.583C152.029 5.36667 155.633 8.97109 155.633 13.4167V93.9167C155.633 98.3623 152.029 101.967 147.583 101.967H13.4167C8.97109 101.967 5.36667 98.3623 5.36667 93.9167V91.2333H144.9C146.382 91.2333 147.583 90.0319 147.583 88.55C147.583 87.0681 146.382 85.8667 144.9 85.8667H2.68333C1.20147 85.8667 0 87.0681 0 88.55V93.9167C0 101.326 6.00737 107.333 13.4167 107.333H53.6667L41.5917 123.433H32.2C24.7907 123.433 18.7833 129.441 18.7833 136.85C18.7833 138.332 19.9848 139.533 21.4667 139.533H139.533C141.015 139.533 142.217 138.332 142.217 136.85C142.217 135.368 141.015 134.167 139.533 134.167H24.606C25.7432 130.949 28.7869 128.799 32.2 128.8H128.8C130.282 128.8 131.483 127.599 131.483 126.117C131.483 124.635 130.282 123.433 128.8 123.433H119.408L107.333 107.333H147.583C154.993 107.333 161 101.326 161 93.9167V13.4167C161 6.00737 154.993 0 147.583 0ZM112.7 123.433H48.3L60.375 107.333H100.625L112.7 123.433Z" fill="#56E0F5"/>
<path d="M101.967 144.9H16.1C11.6545 144.9 8.05005 148.504 8.05005 152.95V158.317C8.05005 159.798 9.25152 161 10.7334 161H80.5C81.9819 161 83.1834 159.798 83.1834 158.317C83.1834 156.835 81.9819 155.633 80.5 155.633H13.4167V152.95C13.4167 151.468 14.6182 150.267 16.1 150.267H101.967C103.449 150.267 104.65 151.468 104.65 152.95V155.633H93.9167C92.4349 155.633 91.2334 156.835 91.2334 158.317C91.2334 159.798 92.4349 161 93.9167 161H107.333C108.815 161 110.017 159.798 110.017 158.317V152.95C110.017 148.504 106.412 144.9 101.967 144.9Z" fill="#D24597"/>
<path d="M152.95 144.9H131.483C128.52 144.9 126.117 147.303 126.117 150.267V158.317C126.117 159.798 127.318 161 128.8 161C130.282 161 131.483 159.798 131.483 158.317V150.267H152.95V155.633H139.533C138.052 155.633 136.85 156.835 136.85 158.317C136.85 159.798 138.052 161 139.533 161H155.633C157.115 161 158.317 159.798 158.317 158.317V150.267C158.317 147.303 155.914 144.9 152.95 144.9Z" fill="#D24597"/>
<path d="M85.8666 26.8333V29.9464C81.383 31.2553 78.5503 35.6681 79.2251 40.2906C79.9011 44.9117 83.879 48.3288 88.5499 48.3C90.7734 48.3 92.5749 50.1015 92.5749 52.325C92.5749 54.5484 90.7734 56.35 88.5499 56.35C86.3265 56.35 84.5249 54.5484 84.5249 52.325C84.5249 50.8431 83.3234 49.6416 81.8416 49.6416C80.3597 49.6416 79.1582 50.8431 79.1582 52.325C79.1753 56.464 81.8992 60.1051 85.8666 61.2869V64.4C85.8666 65.8818 87.068 67.0833 88.5499 67.0833C90.0318 67.0833 91.2332 65.8818 91.2332 64.4V61.2869C95.7168 59.978 98.5495 55.5651 97.8748 50.9427C97.1987 46.3215 93.2209 42.9045 88.5499 42.9333C86.3265 42.9333 84.5249 41.1317 84.5249 38.9083C84.5249 36.6849 86.3265 34.8833 88.5499 34.8833C90.7734 34.8833 92.5749 36.6849 92.5749 38.9083C92.5749 40.3902 93.7764 41.5916 95.2582 41.5916C96.7401 41.5916 97.9416 40.3902 97.9416 38.9083C97.9245 34.7693 95.2006 31.1282 91.2332 29.9464V26.8333C91.2332 25.3514 90.0318 24.15 88.5499 24.15C87.068 24.15 85.8666 25.3514 85.8666 26.8333Z" fill="#D24597"/>
<path d="M56.3501 45.6166C56.3501 63.4003 70.7665 77.8166 88.5501 77.8166C106.334 77.8166 120.75 63.4003 120.75 45.6166C120.75 27.833 106.334 13.4166 88.5501 13.4166C70.7665 13.4166 56.3501 27.833 56.3501 45.6166ZM115.383 45.6166C115.383 60.4365 103.37 72.45 88.5501 72.45C73.7302 72.45 61.7168 60.4365 61.7168 45.6166C61.7168 30.7967 73.7302 18.7833 88.5501 18.7833C103.37 18.7833 115.383 30.7967 115.383 45.6166Z" fill="#D24597"/>
<path d="M18.7832 45.6166C18.7832 47.0985 19.9847 48.3 21.4665 48.3H45.6165C47.0984 48.3 48.2999 47.0985 48.2999 45.6166C48.2999 44.1348 47.0984 42.9333 45.6165 42.9333H21.4665C19.9847 42.9333 18.7832 44.1348 18.7832 45.6166Z" fill="#D24597"/>
<path d="M32.2 29.5167C32.2 30.9986 33.4014 32.2 34.8833 32.2H50.9833C52.4651 32.2 53.6666 30.9986 53.6666 29.5167C53.6666 28.0348 52.4651 26.8334 50.9833 26.8334H34.8833C33.4014 26.8334 32.2 28.0348 32.2 29.5167Z" fill="#D24597"/>
<path d="M53.6666 61.7167C53.6666 60.2348 52.4651 59.0333 50.9833 59.0333H32.1999C30.7181 59.0333 29.5166 60.2348 29.5166 61.7167C29.5166 63.1985 30.7181 64.4 32.1999 64.4H50.9833C52.4651 64.4 53.6666 63.1985 53.6666 61.7167Z" fill="#D24597"/>
<path d="M50.9834 77.8166H59.0334C60.5152 77.8166 61.7167 76.6151 61.7167 75.1333C61.7167 73.6514 60.5152 72.45 59.0334 72.45H50.9834C49.5015 72.45 48.3 73.6514 48.3 75.1333C48.3 76.6151 49.5015 77.8166 50.9834 77.8166Z" fill="#D24597"/>
<path d="M61.7167 13.4166H50.9834C49.5015 13.4166 48.3 14.6181 48.3 16.1C48.3 17.5818 49.5015 18.7833 50.9834 18.7833H61.7167C63.1986 18.7833 64.4001 17.5818 64.4001 16.1C64.4001 14.6181 63.1986 13.4166 61.7167 13.4166Z" fill="#D24597"/>
<path d="M123.433 75.1333H112.7C111.218 75.1333 110.017 76.3348 110.017 77.8167C110.017 79.2985 111.218 80.5 112.7 80.5H123.433C127.879 80.5 131.483 76.8956 131.483 72.45V18.7833C131.483 14.3378 127.879 10.7333 123.433 10.7333H112.7C111.218 10.7333 110.017 11.9348 110.017 13.4167C110.017 14.8985 111.218 16.1 112.7 16.1H123.433C124.915 16.1 126.117 17.3015 126.117 18.7833V72.45C126.117 73.9319 124.915 75.1333 123.433 75.1333Z" fill="#D24597"/>
</svg>
