<svg width="23" height="23" viewBox="0 0 23 23" fill="none" xmlns="http://www.w3.org/2000/svg">
<path d="M18.8384 23C18.3669 22.8582 17.9176 22.763 17.5003 22.5914C13.1764 20.8145 9.19701 18.5221 6.04488 15.008C4.25235 13.0097 2.84937 10.7537 1.66338 8.36612C1.10098 7.23387 0.627024 6.05729 0.143926 4.88838C-0.296577 3.82241 0.352251 2.72115 1.03546 1.918C1.67655 1.16424 2.50149 0.587379 3.39488 0.16225C4.09219 -0.169599 4.78005 0.021716 5.28933 0.60717C6.39028 1.87289 7.40154 3.20336 8.22044 4.67052C8.72398 5.57294 8.58582 6.67603 7.67322 7.29018C7.45142 7.43946 7.24929 7.61466 7.04267 7.78327C6.86145 7.93102 6.69091 8.08029 6.56669 8.28035C6.33963 8.64642 6.32878 9.07814 6.475 9.47612C7.60042 12.5396 9.49734 14.9218 12.6103 16.2048C13.1084 16.4101 13.6087 16.6492 14.1826 16.5829C15.1437 16.4716 15.4548 15.4275 16.1283 14.8819C16.7866 14.3488 17.6278 14.3417 18.3368 14.7862C19.0461 15.2308 19.7336 15.7081 20.417 16.1904C21.0878 16.6639 21.7557 17.1271 22.3745 17.6668C22.9694 18.1858 23.1743 18.8667 22.8393 19.571C22.2259 20.861 21.3335 21.9342 20.046 22.6192C19.6825 22.8124 19.2484 22.875 18.8384 23C18.3669 22.8581 19.2484 22.875 18.8384 23Z" fill="white"/>
</svg>
