<svg width="201" height="200" viewBox="0 0 201 200" fill="none" xmlns="http://www.w3.org/2000/svg">
<path d="M155.921 135.592C161.218 133.607 163.906 127.707 161.925 122.406C160.673 119.056 157.763 116.603 154.25 115.933L149.041 114.94L143.87 99.4306C143.468 98.2289 142.421 97.3537 141.165 97.1737L94.2678 90.4741C92.5719 90.2312 90.964 91.3073 90.5453 92.9697C89.6116 96.667 90.0052 100.574 91.6591 104.007L91.0687 103.894C90.5914 103.802 90.1015 103.819 89.6283 103.936L76.2291 107.286C74.4328 107.734 73.3441 109.551 73.7921 111.348C73.9387 111.938 74.2443 112.474 74.6714 112.905L84.7208 122.955C85.194 123.428 85.8012 123.75 86.4627 123.876L95.0382 125.509C95.8548 127.033 96.8932 128.432 98.1201 129.65L103.836 135.366L103.831 137.853C103.811 151.306 113.969 162.595 127.347 163.99C125.982 167.67 126.882 171.807 129.654 174.588L155.067 200L159.802 195.264L134.39 169.852C133.084 168.545 133.084 166.422 134.39 165.116L154.091 145.428L195.269 186.605L200.004 181.869L157.018 138.883L155.921 135.592ZM121.841 123.8L112.926 114.886L119.316 116.104L126.041 117.386L133.502 118.805L131.781 125.693L121.841 123.8ZM140.089 120.061L143.891 120.786L142.17 127.674L138.368 126.949L140.089 120.061ZM155.318 124.094C156.373 125.743 155.887 127.937 154.238 128.988C153.668 129.353 153.011 129.545 152.337 129.545C152.177 129.545 152.023 129.533 151.868 129.512C151.822 129.508 151.771 129.499 151.721 129.491C151.704 129.487 151.688 129.483 151.671 129.483L148.761 128.93L150.482 122.042L152.994 122.519C153.953 122.699 154.799 123.269 155.318 124.094ZM138.167 103.517L141.496 113.508L104.631 106.486C104.585 106.478 104.539 106.465 104.493 106.457L102.864 104.828C102.044 104.007 100.854 103.672 99.7238 103.94C97.9944 102.265 96.9434 100.008 96.7759 97.605L138.167 103.517ZM88.7364 117.494L83.5987 112.357L90.5411 110.619L94.0124 111.281C93.3257 113.194 92.9781 115.208 92.9781 117.239C92.9781 117.599 92.9907 117.955 93.0116 118.307L88.7364 117.494ZM132.606 157.441H130.073C119.287 157.441 110.539 148.698 110.539 137.907C110.539 137.895 110.539 137.886 110.539 137.874L110.544 133.996C110.544 133.105 110.192 132.25 109.564 131.622L102.864 124.923C99.5353 121.59 98.7314 116.498 100.867 112.302L120.593 132.028V144.042H127.293V131.66L148.924 135.78L150.26 139.787L132.606 157.441Z" fill="#D24597"/>
<path d="M144.041 170.84C145.891 170.84 147.391 169.34 147.391 167.49C147.391 165.64 145.891 164.14 144.041 164.14C142.191 164.14 140.692 165.64 140.692 167.49C140.692 169.34 142.191 170.84 144.041 170.84Z" fill="#D24597"/>
<path d="M6.69961 155.887V33.4978C6.70379 29.8005 9.70187 26.8024 13.3992 26.7982H160.791V20.0986H13.3992C6.00452 20.107 0.00837451 26.1032 0 33.4978V167.49C0.00837451 174.885 6.00452 180.881 13.3992 180.889H23.4486C28.9967 180.881 33.4897 176.388 33.498 170.84V167.49H26.7984V170.84C26.7942 172.691 25.2994 174.185 23.4486 174.19H13.3992C9.69768 174.19 6.69961 171.191 6.69961 167.49C6.69961 163.788 9.69768 160.79 13.3992 160.79H103.844V154.091H13.3992C11.046 154.087 8.73461 154.71 6.69961 155.887Z" fill="#56E0F5"/>
<path d="M187.589 0H177.54C171.992 0.00837451 167.499 4.5013 167.49 10.0494V130.642C167.499 136.19 171.992 140.683 177.54 140.692H187.589C191.291 140.692 194.289 143.69 194.289 147.391C194.289 151.093 191.291 154.091 187.589 154.091V160.791C194.984 160.782 200.98 154.786 200.988 147.391V13.3992C200.98 6.00452 194.984 0.00837451 187.589 0ZM187.589 133.992H177.54C175.689 133.988 174.194 132.493 174.19 130.642V10.0494C174.194 8.19864 175.689 6.70379 177.54 6.69961H187.589C191.286 6.70379 194.284 9.70187 194.289 13.3992V135.788C192.254 134.612 189.942 133.988 187.589 133.992Z" fill="#56E0F5"/>
<path d="M43.5475 77.0454C37.9993 77.0454 33.498 81.5467 33.498 87.0948C33.498 92.6429 37.9993 97.1442 43.5475 97.1442C49.0956 97.1442 53.5969 92.6429 53.5969 87.0948C53.5927 81.5467 49.0956 77.0496 43.5475 77.0454ZM43.5475 90.4446C41.6967 90.4446 40.1977 88.9456 40.1977 87.0948C40.1977 85.2441 41.6967 83.745 43.5475 83.745C45.3982 83.745 46.8973 85.2441 46.8973 87.0948C46.8931 88.9456 45.3982 90.4404 43.5475 90.4446Z" fill="#56E0F5"/>
<path d="M73.6956 93.7946V80.3954C73.6956 78.5446 72.1966 77.0456 70.3458 77.0456H67.8083L69.6005 75.2535C70.9069 73.947 70.9069 71.8241 69.6005 70.5177L60.1247 61.0419C58.8183 59.7355 56.6954 59.7313 55.389 61.0419L53.5968 62.8341V60.2966C53.5968 58.4458 52.0978 56.9468 50.247 56.9468H36.8478C34.997 56.9468 33.498 58.4458 33.498 60.2966V62.8341L31.7058 61.0419C30.3994 59.7355 28.2765 59.7355 26.9701 61.0419L17.4901 70.5135C16.1837 71.8199 16.1837 73.9428 17.4901 75.2493L19.2823 77.0414H16.749C14.8982 77.0414 13.3992 78.5404 13.3992 80.3912V93.7904C13.3992 95.6412 14.8982 97.1402 16.749 97.1402H19.2864L17.4943 98.9324C16.1879 100.239 16.1879 102.362 17.4943 103.668L26.9701 113.144C28.2765 114.45 30.3994 114.455 31.7058 113.144L33.498 111.352V113.893C33.498 115.744 34.997 117.243 36.8478 117.243H50.247C52.0978 117.243 53.5968 115.744 53.5968 113.893V111.356L55.389 113.148C56.6954 114.455 58.8183 114.455 60.1247 113.148L69.6005 103.672C70.9069 102.366 70.9069 100.243 69.6005 98.9366L67.8083 97.1444H70.3458C72.1966 97.1444 73.6956 95.6454 73.6956 93.7946ZM66.996 90.4448H59.7228C57.872 90.4448 56.373 91.9438 56.373 93.7946C56.373 94.6823 56.7247 95.5365 57.3528 96.1646L62.4947 101.307L57.7547 106.047L52.6128 100.905C51.3064 99.5981 49.1834 99.5981 47.877 100.905C47.2489 101.533 46.8972 102.383 46.8972 103.275V110.544H40.1976V103.27C40.1976 101.42 38.6986 99.9206 36.8478 99.9206C35.9601 99.9206 35.1059 100.272 34.4778 100.9L29.3359 106.042L24.5959 101.302L29.7378 96.1604C31.0443 94.854 31.0443 92.731 29.7378 91.4246C29.1097 90.7965 28.2555 90.4448 27.3678 90.4448H20.0988V83.7452H27.372C29.2228 83.7452 30.7218 82.2462 30.7218 80.3954C30.7218 79.5077 30.3701 78.6535 29.742 78.0254L24.6001 72.8835L29.34 68.1435L34.482 73.2854C35.7884 74.5919 37.9114 74.5919 39.2178 73.2854C39.8459 72.6574 40.1976 71.8073 40.1976 70.9155V63.6464H46.8972V70.9196C46.8972 72.7704 48.3962 74.2694 50.247 74.2694C51.1347 74.2694 51.9889 73.9177 52.617 73.2896L57.7589 68.1477L62.4989 72.8877L57.357 78.0296C56.0505 79.336 56.0505 81.459 57.357 82.7654C57.985 83.3935 58.8392 83.7452 59.7269 83.7452H66.996V90.4448Z" fill="#56E0F5"/>
<path d="M88.0747 54.5765L74.6755 67.9757L79.4113 72.7115L91.8307 60.2963H130.642V53.5967H90.4447C89.557 53.5967 88.7028 53.9484 88.0747 54.5765Z" fill="#56E0F5"/>
<path d="M103.844 33.498H90.4448V40.1977H103.844V33.498Z" fill="#56E0F5"/>
<path d="M130.642 33.498H110.543V40.1977H130.642V33.498Z" fill="#56E0F5"/>
<path d="M110.544 43.5474H90.4448V50.247H110.544V43.5474Z" fill="#56E0F5"/>
<path d="M123.943 43.5474H117.243V50.247H123.943V43.5474Z" fill="#56E0F5"/>
<path d="M42.5678 121.573L37.832 126.309L57.9309 146.407C58.5589 147.035 59.4131 147.387 60.3008 147.387H90.4491V140.688H61.6868L42.5678 121.573Z" fill="#56E0F5"/>
<path d="M77.0455 130.642H63.6462V137.342H77.0455V130.642Z" fill="#56E0F5"/>
<path d="M90.4447 130.642H83.7451V137.342H90.4447V130.642Z" fill="#56E0F5"/>
<path d="M70.3458 120.593H63.6462V127.292H70.3458V120.593Z" fill="#56E0F5"/>
</svg>
