<svg width="194" height="190" viewBox="0 0 194 190" fill="none" xmlns="http://www.w3.org/2000/svg">
<path d="M125.504 144.775C124.397 146.753 123.407 148.851 122.537 150.948L128.432 153.282C129.184 151.422 130.055 149.602 131.044 147.822L125.504 144.775Z" fill="#56E0F5"/>
<path d="M132.587 133.617C131.361 135.398 130.095 137.218 128.908 139.077L134.21 142.52C135.357 140.739 136.544 138.998 137.771 137.257L132.587 133.617Z" fill="#56E0F5"/>
<path d="M139.788 123.091C138.719 124.792 137.532 126.533 136.266 128.353L141.45 131.954C142.755 130.055 143.982 128.235 145.129 126.454L139.788 123.091Z" fill="#56E0F5"/>
<path d="M145.765 112.052C144.855 113.951 143.905 115.811 142.916 117.671L148.495 120.638C149.524 118.699 150.513 116.721 151.462 114.743L145.765 112.052Z" fill="#56E0F5"/>
<path d="M150.713 100.459C149.962 102.398 149.21 104.377 148.379 106.315L154.195 108.808C155.066 106.79 155.857 104.733 156.648 102.675L150.713 100.459Z" fill="#56E0F5"/>
<path d="M164.601 63.8206L158.27 63.8601V64.4536C158.27 66.2341 158.191 68.0938 158.033 70.0326L164.324 70.5469C164.482 68.4499 164.601 66.3924 164.601 64.4536V63.8206Z" fill="#56E0F5"/>
<path d="M162.978 50.3677L156.805 51.7921C157.28 53.7704 157.636 55.7883 157.873 57.8062L164.165 57.0545C163.888 54.7992 163.492 52.5439 162.978 50.3677Z" fill="#56E0F5"/>
<path d="M158.429 37.55L152.731 40.3197C153.601 42.1398 154.393 44.039 155.105 45.9382L161.08 43.8016C160.328 41.7046 159.418 39.6075 158.429 37.55Z" fill="#56E0F5"/>
<path d="M151.189 26.114L146.243 30.0707C147.509 31.6534 148.696 33.3152 149.764 35.0561L155.106 31.6929C153.919 29.7146 152.613 27.855 151.189 26.114Z" fill="#56E0F5"/>
<path d="M141.686 16.4202L137.651 21.2869C139.233 22.5926 140.737 23.9774 142.161 25.4414L146.711 21.0099C145.089 19.3877 143.427 17.8841 141.686 16.4202Z" fill="#56E0F5"/>
<path d="M130.493 8.9021L127.486 14.481C129.306 15.4702 131.047 16.5385 132.749 17.6464L136.27 12.384C134.45 11.1574 132.511 9.9704 130.493 8.9021Z" fill="#56E0F5"/>
<path d="M118.104 3.64111L116.205 9.69484C118.183 10.3279 120.122 11.0401 121.982 11.8314L124.474 6.01512C122.377 5.10509 120.241 4.31375 118.104 3.64111Z" fill="#56E0F5"/>
<path d="M104.97 0.75293L104.179 7.04406C106.236 7.32103 108.254 7.67713 110.232 8.11236L111.578 1.90037C109.441 1.42557 107.186 1.0299 104.97 0.75293Z" fill="#56E0F5"/>
<path d="M12.6642 170.929H6.3335V177.26H12.6642V170.929Z" fill="#56E0F5"/>
<path d="M12.6642 183.59H6.3335V189.921H12.6642V183.59Z" fill="#56E0F5"/>
<path d="M18.9945 177.26H12.6638V183.591H18.9945V177.26Z" fill="#56E0F5"/>
<path d="M6.3307 177.26H0V183.591H6.3307V177.26Z" fill="#56E0F5"/>
<path d="M186.754 0H180.424V6.3307H186.754V0Z" fill="#56E0F5"/>
<path d="M186.754 12.6611H180.424V18.9918H186.754V12.6611Z" fill="#56E0F5"/>
<path d="M193.086 6.33179H186.755V12.6625H193.086V6.33179Z" fill="#56E0F5"/>
<path d="M180.422 6.33179H174.091V12.6625H180.422V6.33179Z" fill="#56E0F5"/>
<path d="M154.822 75.9671C150.825 75.9671 147.225 78.4993 145.919 82.2978H126.334V69.6364H138.995C140.736 69.6364 142.16 68.212 142.16 66.471V53.2161C147.106 51.4752 149.678 46.0545 147.937 41.1087C146.196 36.1628 140.775 33.591 135.83 35.3319C130.884 37.0728 128.312 42.4935 130.053 47.4394C131.002 50.1299 133.139 52.2665 135.83 53.2161V63.3057H126.334V56.975C126.334 55.234 124.909 53.8096 123.168 53.8096H116.837V37.3894C121.783 35.6484 124.355 30.2278 122.614 25.2819C120.873 20.3361 115.453 17.7642 110.507 19.5051C105.561 21.2461 102.989 26.6668 104.73 31.6126C105.68 34.3032 107.816 36.4398 110.507 37.3894V53.8096H98.1223V60.1403H120.003V91.7938H98.1223V98.1245H104.176V107.621C104.176 109.361 105.6 110.786 107.341 110.786H116.837V114.545C111.892 116.286 109.32 121.706 111.061 126.652C112.802 131.598 118.222 134.17 123.168 132.429C128.114 130.688 130.686 125.267 128.945 120.322C127.995 117.631 125.859 115.494 123.168 114.545V107.621C123.168 105.88 121.744 104.455 120.003 104.455H110.507V98.1245H123.168C124.909 98.1245 126.334 96.7001 126.334 94.9592V88.6285H145.919C147.66 93.5743 153.081 96.1462 158.027 94.3657C162.972 92.6247 165.544 87.204 163.764 82.2582C162.419 78.4993 158.818 75.9671 154.822 75.9671ZM138.995 41.1482C140.736 41.1482 142.16 42.5726 142.16 44.3136C142.16 46.0545 140.736 47.4789 138.995 47.4789C137.254 47.4789 135.83 46.0545 135.83 44.3136C135.83 42.5726 137.254 41.1482 138.995 41.1482ZM113.672 31.6522C111.931 31.6522 110.507 30.2278 110.507 28.4868C110.507 26.7459 111.931 25.3215 113.672 25.3215C115.413 25.3215 116.837 26.7459 116.837 28.4868C116.837 30.2278 115.413 31.6522 113.672 31.6522ZM120.003 120.282C121.744 120.282 123.168 121.706 123.168 123.447C123.168 125.188 121.744 126.613 120.003 126.613C118.262 126.613 116.837 125.188 116.837 123.447C116.837 121.706 118.262 120.282 120.003 120.282ZM154.822 88.6285C153.081 88.6285 151.656 87.204 151.656 85.4631C151.656 83.7222 153.081 82.2978 154.822 82.2978C156.563 82.2978 157.987 83.7222 157.987 85.4631C157.987 87.204 156.563 88.6285 154.822 88.6285Z" fill="#56E0F5"/>
<path d="M98.1253 98.1257V91.795V60.1415V53.8108V3.24445C98.1253 1.50351 96.7009 0.0791016 94.96 0.0791016C55.9075 0.0791016 25.3223 28.3694 25.3223 64.4543C25.3223 81.5868 32.1278 104.298 43.0878 123.686C45.0661 127.168 47.638 130.808 50.3285 134.685C56.0657 142.876 62.4756 152.095 63.1482 160.087C60.7346 161.789 59.3102 164.638 59.3498 167.605C59.3498 169.742 60.1016 171.799 61.4468 173.5C59.5872 175.36 58.5189 177.892 58.5584 180.504C58.5584 185.727 62.8317 190 68.0545 190H121.865C127.128 189.96 131.401 185.647 131.361 180.385C131.361 180.346 131.361 180.306 131.361 180.266C131.361 177.695 130.293 175.241 128.434 173.461C129.779 171.72 130.531 169.583 130.531 167.407C130.531 162.382 126.455 158.346 121.43 158.346C121.312 158.346 121.153 158.346 121.035 158.346H98.0857V157.12V98.1257H98.1253ZM55.5118 131.085C52.9004 127.326 50.4077 123.805 48.5876 120.6C38.3002 102.399 31.653 80.3602 31.653 64.4939C31.653 32.88 57.8067 7.9529 91.7946 6.48893V28.6068C90.9637 28.6859 90.0932 28.765 89.1832 28.8442C87.8379 29.0024 86.7301 29.9916 86.4531 31.3369L85.5035 35.9266C84.7121 36.1245 83.9208 36.3223 83.1295 36.5597L79.9641 33.0383C79.0541 32.0095 77.6297 31.693 76.3635 32.2469C72.8025 33.79 69.4789 35.7288 66.3927 38.0632C65.3244 38.8942 64.8496 40.279 65.2848 41.5847L66.7488 46.0162C66.1553 46.5701 65.5618 47.1636 65.0078 47.7571L60.5764 46.2931C59.2706 45.8579 57.8858 46.3327 57.0549 47.401C54.7205 50.4872 52.7817 53.8108 51.2386 57.3719C50.7242 58.638 51.0407 60.0624 52.0299 60.9724L55.5514 64.1378C55.314 64.9291 55.1161 65.7205 54.9183 66.4722L50.012 67.4614C48.548 67.7384 47.4797 69.0441 47.4797 70.5476V81.3494C47.4797 82.8529 48.548 84.1586 50.012 84.4356L54.9183 85.4247C55.1161 86.2161 55.314 87.0074 55.5514 87.7592L52.0299 90.9245C51.0407 91.8346 50.6846 93.259 51.2386 94.5251C52.7817 98.0861 54.7205 101.41 57.0549 104.496C57.8858 105.564 59.2706 105.999 60.5764 105.604L65.0078 104.14C65.5618 104.733 66.1553 105.327 66.7488 105.881L65.2848 110.312C64.8496 111.618 65.3244 113.003 66.3927 113.834C69.4789 116.168 72.8025 118.107 76.3635 119.65C77.6297 120.164 79.0541 119.848 79.9641 118.859L83.1295 115.337C83.9208 115.575 84.7121 115.772 85.5035 115.97L86.4531 120.56C86.7301 121.905 87.8379 122.895 89.1832 123.053C90.0932 123.171 90.9637 123.251 91.7946 123.29V158.346H69.3602C68.0545 149.048 61.4468 139.552 55.5118 131.085ZM66.4718 75.9683C66.5114 90.4497 77.3923 102.636 91.7946 104.259V115.139L91.2802 112.647C91.0033 111.381 90.0141 110.391 88.748 110.194C86.8883 109.837 85.0287 109.363 83.2482 108.69C82.8921 108.571 82.536 108.492 82.1799 108.492C81.2698 108.492 80.4389 108.888 79.8059 109.56L76.8383 112.884C75.1765 112.053 73.5939 111.143 72.0903 110.075L73.4752 105.881C73.8708 104.654 73.5147 103.309 72.5255 102.478C71.0616 101.251 69.7163 99.9062 68.4897 98.4422C67.6588 97.453 66.3135 97.0969 65.087 97.4926L60.8929 98.8774C59.8641 97.3343 58.9145 95.7517 58.0836 94.1294L61.4073 91.1619C62.3569 90.2915 62.713 88.9462 62.2777 87.7196C61.6447 85.9391 61.1303 84.0795 60.7742 82.2198C60.5368 80.9537 59.5476 79.9249 58.2815 79.6875L53.85 78.8171V73.1986L58.2815 72.3281C59.5476 72.0907 60.5368 71.062 60.7742 69.7958C61.1303 67.9362 61.6051 66.0766 62.2777 64.2961C62.713 63.0695 62.3569 61.7242 61.4073 60.8537L58.0836 57.8862C58.9145 56.2244 59.8246 54.6418 60.8929 53.1382L65.087 54.523C66.3135 54.9187 67.6588 54.523 68.4897 53.5734C69.7163 52.1095 71.1011 50.7642 72.5255 49.4981C73.5147 48.6672 73.8708 47.3219 73.4752 46.0953L72.0903 41.9012C73.6334 40.8725 75.2161 39.9229 76.8383 39.092L79.8059 42.4156C80.6763 43.3652 82.0216 43.7213 83.2482 43.2861C85.0287 42.653 86.8883 42.1386 88.748 41.7825C90.0141 41.5451 91.0033 40.5955 91.2802 39.3294L91.7946 36.8367V47.7176C77.3923 49.2607 66.5114 61.4472 66.4718 75.9683ZM91.7946 54.0482V97.8487C79.6872 96.1078 71.299 84.9104 73.0399 72.8029C74.4248 63.0695 82.0612 55.4331 91.7946 54.0482ZM125.031 180.504C125.031 182.245 123.606 183.669 121.865 183.669H68.0545C66.274 183.63 64.8496 182.166 64.8891 180.385C64.8891 180.346 64.8891 180.306 64.8891 180.266C64.8891 178.525 66.3135 177.101 68.0545 177.101H121.865C123.646 177.141 125.07 178.605 125.031 180.385C125.031 180.464 125.031 180.464 125.031 180.504ZM121.074 164.677C122.657 164.519 124.081 165.706 124.239 167.288C124.239 167.407 124.239 167.486 124.239 167.605C124.239 169.346 122.815 170.77 121.074 170.77H68.8458C67.0653 170.731 65.6409 169.267 65.6805 167.486C65.6805 167.447 65.6805 167.407 65.6805 167.368C65.7596 165.785 67.0653 164.558 68.648 164.638C68.7271 164.638 68.7667 164.638 68.8458 164.638H121.074V164.677Z" fill="#D24597"/>
</svg>
