<svg width="184" height="183" viewBox="0 0 184 183" fill="none" xmlns="http://www.w3.org/2000/svg">
<path d="M138.23 92.2891L148.109 82.406L127.201 61.4977L117.318 71.3771C113.87 69.4737 110.222 67.9842 106.441 66.8939V53.1854C115.991 48.048 121.225 39.6063 121.225 29.2427C121.225 16.7577 113.304 5.56617 101.514 1.3897L97.574 0V24.1607L91.6604 26.1344L85.7468 24.1607V0L81.8032 1.39709C70.013 5.56987 62.0924 16.7614 62.0924 29.2501C62.0924 39.6137 67.326 48.0517 76.8764 53.1928V66.8976C73.0954 67.9916 69.4475 69.4774 65.9991 71.3808L56.116 61.5014L35.2077 82.4097L45.0871 92.2928C43.18 95.7449 41.6683 99.3854 40.578 103.17H26.6108V132.738H40.578C41.672 136.523 43.18 140.167 45.0871 143.615L35.2077 153.495L56.116 174.403L65.9991 164.524C69.4512 166.431 73.0917 167.943 76.8764 169.033V183H106.444V169.033C110.229 167.939 113.873 166.431 117.322 164.524L127.205 174.403L148.113 153.495L138.234 143.612C140.141 140.16 141.653 136.519 142.743 132.734H156.71V103.166H142.743C141.649 99.3854 140.141 95.7412 138.23 92.2891ZM68.006 29.2501C68.006 20.7309 72.6223 12.9656 79.8332 8.79278V28.4222L91.6604 32.3622L103.488 28.4222V8.78909C110.699 12.9619 115.315 20.7272 115.315 29.2464C115.315 37.9173 110.787 44.644 102.224 48.6985L100.531 49.5005V97.2528H106.444V92.3261C115.548 97.5485 121.228 107.184 121.228 117.95C121.228 128.868 115.267 138.397 106.444 143.519V103.17H100.531V146.158C97.7293 147.042 94.7503 147.522 91.6604 147.522C88.5706 147.522 85.5916 147.042 82.79 146.158V49.5042L81.0973 48.7022C72.5336 44.6477 68.006 37.921 68.006 29.2501ZM150.796 126.825H138.141L137.594 129.086C136.445 133.843 134.567 138.378 132.01 142.555L130.794 144.543L139.749 153.495L127.205 166.039L118.253 157.084L116.265 158.3C112.085 160.857 107.553 162.735 102.796 163.884L100.531 164.435V177.09H82.79V164.435L80.5281 163.888C75.7713 162.739 71.2363 160.861 67.0599 158.303L65.0714 157.087L56.1197 166.043L43.5755 153.495L52.5309 144.543L51.3149 142.555C48.7573 138.375 46.8797 133.843 45.7302 129.086L45.1795 126.821H32.5244V109.08H45.1795L45.7265 106.818C46.876 102.061 48.7536 97.5263 51.3112 93.3499L52.5272 91.3614L43.5718 82.4097L56.116 69.8655L65.0677 78.8209L67.0562 77.6049C70.1534 75.7088 73.4429 74.1935 76.8727 73.0662V85.7102C64.2398 91.4834 56.1751 103.917 56.1751 117.954C56.1751 137.521 72.0901 153.436 91.6567 153.436C111.223 153.436 127.138 137.521 127.138 117.954C127.138 103.913 119.074 91.4834 106.441 85.7102V73.0699C109.871 74.2009 113.16 75.7162 116.257 77.6086L118.246 78.8246L127.197 69.8692L139.742 82.4134L130.786 91.3651L132.002 93.3535C134.56 97.5337 136.437 102.065 137.587 106.822L138.141 109.084H150.796V126.825ZM76.8764 92.3335V143.523C68.0541 138.4 62.0924 128.872 62.0924 117.954C62.0924 107.191 67.7732 97.5522 76.8764 92.3335Z" fill="#D24597"/>
<path d="M11.8272 145.109V38.1212C11.8272 36.4912 13.1541 35.1644 14.784 35.1644H38.9817C40.2051 38.5979 43.4575 41.078 47.3088 41.078C52.1986 41.078 56.1792 37.0974 56.1792 32.2076C56.1792 27.3177 52.1986 23.3372 47.3088 23.3372C43.4575 23.3372 40.2051 25.8172 38.9817 29.2508H14.784C9.89419 29.2508 5.9136 33.2313 5.9136 38.1212V145.109C2.48001 146.333 0 149.585 0 153.436C0 158.326 3.98059 162.307 8.8704 162.307C13.7602 162.307 17.7408 158.326 17.7408 153.436C17.7408 149.585 15.2608 146.333 11.8272 145.109ZM47.3088 29.2508C48.9387 29.2508 50.2656 30.5776 50.2656 32.2076C50.2656 33.8375 48.9387 35.1644 47.3088 35.1644C45.6788 35.1644 44.352 33.8375 44.352 32.2076C44.352 30.5776 45.6788 29.2508 47.3088 29.2508ZM8.8704 156.393C7.24046 156.393 5.9136 155.066 5.9136 153.436C5.9136 151.806 7.24046 150.48 8.8704 150.48C10.5003 150.48 11.8272 151.806 11.8272 153.436C11.8272 155.063 10.5003 156.393 8.8704 156.393Z" fill="#56E0F5"/>
<path d="M23.6546 41.0781H17.741V46.9917H23.6546V41.0781Z" fill="#56E0F5"/>
<path d="M23.6546 52.9048H17.741V58.8184H23.6546V52.9048Z" fill="#56E0F5"/>
<path d="M23.6546 64.7314H17.741V70.645H23.6546V64.7314Z" fill="#56E0F5"/>
<path d="M177.408 145.109V38.1212C177.408 33.2313 173.427 29.2508 168.537 29.2508H144.34C143.116 25.8172 139.864 23.3372 136.012 23.3372C131.123 23.3372 127.142 27.3177 127.142 32.2076C127.142 37.0974 131.123 41.078 136.012 41.078C139.864 41.078 143.116 38.5979 144.34 35.1644H168.537C170.167 35.1644 171.494 36.4912 171.494 38.1212V145.109C168.06 146.333 165.58 149.585 165.58 153.436C165.58 158.326 169.561 162.307 174.451 162.307C179.341 162.307 183.321 158.326 183.321 153.436C183.321 149.585 180.841 146.333 177.408 145.109ZM136.012 35.1644C134.383 35.1644 133.056 33.8375 133.056 32.2076C133.056 30.5776 134.383 29.2508 136.012 29.2508C137.642 29.2508 138.969 30.5776 138.969 32.2076C138.969 33.8375 137.642 35.1644 136.012 35.1644ZM174.451 156.393C172.821 156.393 171.494 155.066 171.494 153.436C171.494 151.806 172.821 150.48 174.451 150.48C176.081 150.48 177.408 151.806 177.408 153.436C177.408 155.063 176.081 156.393 174.451 156.393Z" fill="#56E0F5"/>
<path d="M165.58 41.0781H159.667V46.9917H165.58V41.0781Z" fill="#56E0F5"/>
<path d="M165.58 52.9048H159.667V58.8184H165.58V52.9048Z" fill="#56E0F5"/>
<path d="M165.58 64.7314H159.667V70.645H165.58V64.7314Z" fill="#56E0F5"/>
<path d="M94.6182 135.695H88.7046V141.609H94.6182V135.695Z" fill="#56E0F5"/>
<path d="M94.6182 123.869H88.7046V129.782H94.6182V123.869Z" fill="#56E0F5"/>
<path d="M94.6182 112.04H88.7046V117.954H94.6182V112.04Z" fill="#56E0F5"/>
<path d="M76.8765 143.59L82.7901 146.177H82.8489C82.8293 146.171 82.8097 146.164 82.7901 146.158V49.5042L81.0974 48.7022C72.5337 44.6477 68.0061 37.9209 68.0061 29.2501C68.0061 20.7309 72.6224 12.9656 79.8333 8.79278V28.4222L91.6605 32.3622L103.488 28.4222V8.78908C110.699 12.9619 115.315 20.7272 115.315 29.2464C115.315 37.9172 110.787 44.644 102.224 48.6985L100.531 49.5005V97.2528H106.445V85.7119C106.443 85.7113 106.442 85.7108 106.441 85.7102V73.0699C106.442 73.0703 106.443 73.0707 106.445 73.0711V66.8949C106.443 66.8946 106.442 66.8942 106.441 66.8939V53.1854C106.442 53.1847 106.443 53.1841 106.445 53.1834V53.0376L106.865 52.9535C116.146 47.7959 121.225 39.4518 121.225 29.2427C121.225 16.7577 113.304 5.56617 101.514 1.3897L97.5741 0V24.1607L91.6605 26.1344L85.7469 24.1607V0L81.8033 1.39709C70.0131 5.56987 62.0925 16.7614 62.0925 29.2501C62.0925 39.4858 67.1977 47.8431 76.5249 53.0009L76.8765 53.0376V143.59Z" fill="#56E0F5"/>
<path d="M106.445 103.17H100.531V146.158C100.511 146.164 100.492 146.171 100.472 146.177H100.531L106.445 143.59V103.17Z" fill="#56E0F5"/>
</svg>
