<svg width="172" height="172" viewBox="0 0 172 172" fill="none" xmlns="http://www.w3.org/2000/svg">
<path d="M111.8 54.467H60.2006C58.6168 54.467 57.334 55.7499 57.334 57.3337V126.133C57.334 127.717 58.6168 129 60.2006 129H111.8C113.384 129 114.667 127.717 114.667 126.133V57.3337C114.667 55.7499 113.384 54.467 111.8 54.467ZM108.934 123.267H63.0673V106.067H108.934V123.267ZM108.934 100.333H63.0673V83.1336H108.934V100.333ZM108.934 77.4003H63.0673V60.2003H108.934V77.4003Z" fill="#56E0F5"/>
<path d="M163.398 0H123.265C118.521 0.0143333 114.679 3.85565 114.665 8.59996V31.5332C114.679 36.2775 118.521 40.1188 123.265 40.1332H134.732V45.8665H128.998V51.5998H157.665V45.8665H151.932V40.1332H163.398C168.142 40.1188 171.984 36.2775 171.998 31.5332V8.59996C171.984 3.85565 168.142 0.0143333 163.398 0ZM146.198 45.8665H140.465V40.1332H146.198V45.8665ZM166.265 31.5332C166.265 33.117 164.982 34.3999 163.398 34.3999H123.265C121.681 34.3999 120.398 33.117 120.398 31.5332V28.6665H166.265V31.5332ZM166.265 22.9332H120.398V8.59996C120.398 7.01614 121.681 5.73331 123.265 5.73331H163.398C164.982 5.73331 166.265 7.01614 166.265 8.59996V22.9332Z" fill="#D24597"/>
<path d="M169.131 154.799V134.733C169.117 129.988 165.276 126.147 160.532 126.133H126.132C121.387 126.147 117.546 129.988 117.532 134.733V154.799C115.948 154.799 114.665 156.082 114.665 157.666V163.399C114.679 168.143 118.521 171.985 123.265 171.999H163.398C168.142 171.985 171.984 168.143 171.998 163.399V157.666C171.998 156.082 170.715 154.799 169.131 154.799ZM123.265 134.733C123.265 133.149 124.548 131.866 126.132 131.866H160.532C162.115 131.866 163.398 133.149 163.398 134.733V154.799H123.265V134.733ZM166.265 163.399C166.265 164.983 164.982 166.266 163.398 166.266H123.265C121.681 166.266 120.398 164.983 120.398 163.399V160.532H166.265V163.399Z" fill="#D24597"/>
<path d="M42.9998 131.867H40.1332V129C40.1188 124.256 36.2775 120.414 31.5332 120.4H8.59996C3.85565 120.414 0.0143333 124.256 0 129V163.4C0.0143333 168.144 3.85565 171.986 8.59996 172H42.9998C47.7441 171.986 51.5855 168.144 51.5998 163.4V140.467C51.5855 135.722 47.7441 131.881 42.9998 131.867ZM23.4492 166.267H8.59996C7.01614 166.267 5.73331 164.984 5.73331 163.4V129C5.73331 127.416 7.01614 126.133 8.59996 126.133H31.5332C33.117 126.133 34.3999 127.416 34.3999 129V131.867H31.5332C26.7889 131.881 22.9476 135.722 22.9332 140.467V163.4C22.9404 164.378 23.116 165.346 23.4492 166.267ZM45.8665 163.4C45.8665 164.984 44.5836 166.267 42.9998 166.267H31.5332C29.9494 166.267 28.6665 164.984 28.6665 163.4V140.467C28.6665 138.883 29.9494 137.6 31.5332 137.6H42.9998C44.5836 137.6 45.8665 138.883 45.8665 140.467V163.4Z" fill="#D24597"/>
<path d="M62.8433 17.4293C61.4099 9.66786 53.9566 4.53655 46.1952 5.96988C45.7186 6.05946 45.2456 6.17054 44.7833 6.30671C41.5548 2.30414 36.6815 -0.0142672 31.5394 6.60708e-05C24.2115 0.021566 17.697 4.66555 15.2855 11.5814C5.85059 12.6743 -0.911134 21.2133 0.181778 30.6482C1.18511 39.2983 8.49866 45.8343 17.2061 45.8665H60.2059C68.1215 45.9131 74.5786 39.5348 74.6252 31.6193C74.6646 24.6533 69.6946 18.6692 62.8433 17.4293ZM60.2059 40.1332H17.2061C10.8636 40.0831 5.76459 34.898 5.81475 28.5555C5.86492 22.3851 10.7812 17.3577 16.9481 17.1713C17.0986 17.2072 17.2527 17.2251 17.4068 17.2287C18.7971 17.2609 20.0154 16.297 20.3021 14.9353C21.5384 8.73978 27.5619 4.7193 33.7539 5.95554C36.9072 6.58621 39.652 8.51403 41.3147 11.266C42.0672 12.5488 43.6868 13.0254 45.0127 12.3553C49.2338 10.2591 54.3544 11.9863 56.4506 16.2074C57.0455 17.4078 57.35 18.7301 57.3393 20.0667C57.3393 21.6505 58.6221 22.9333 60.2059 22.9333C64.9538 22.9333 68.8059 26.7854 68.8059 31.5333C68.8059 36.2812 64.9538 40.1332 60.2059 40.1332Z" fill="#D24597"/>
<path d="M68.8008 65.9341H74.5341V71.6674H68.8008V65.9341Z" fill="#56E0F5"/>
<path d="M83.1318 65.9341H88.8651V71.6674H83.1318V65.9341Z" fill="#56E0F5"/>
<path d="M97.4668 65.9341H103.2V71.6674H97.4668V65.9341Z" fill="#56E0F5"/>
<path d="M68.8008 88.8672H74.5341V94.6005H68.8008V88.8672Z" fill="#56E0F5"/>
<path d="M83.1318 88.8672H88.8651V94.6005H83.1318V88.8672Z" fill="#56E0F5"/>
<path d="M97.4668 88.8672H103.2V94.6005H97.4668V88.8672Z" fill="#56E0F5"/>
<path d="M68.8008 111.8H74.5341V117.534H68.8008V111.8Z" fill="#56E0F5"/>
<path d="M83.1318 111.8H88.8651V117.534H83.1318V111.8Z" fill="#56E0F5"/>
<path d="M97.4668 111.8H103.2V117.534H97.4668V111.8Z" fill="#56E0F5"/>
<path d="M146.2 77.4008V57.3342H140.467V74.5342H120.4V80.2675H143.333C144.917 80.2675 146.2 78.9846 146.2 77.4008Z" fill="#56E0F5"/>
<path d="M120.4 97.4652H140.467V120.398H146.2V94.5986C146.2 93.0148 144.917 91.7319 143.333 91.7319H120.4V97.4652Z" fill="#56E0F5"/>
<path d="M31.5346 51.5991H25.8013V77.399C25.8013 78.9828 27.0841 80.2657 28.6679 80.2657H51.6012V74.5324H31.5346V51.5991Z" fill="#56E0F5"/>
<path d="M25.8013 94.5986V114.665H31.5346V97.4652H51.6012V91.7319H28.6679C27.0841 91.7319 25.8013 93.0148 25.8013 94.5986Z" fill="#56E0F5"/>
</svg>
