<svg width="200" height="200" viewBox="0 0 200 200" fill="none" xmlns="http://www.w3.org/2000/svg">
<path d="M123.042 96.1924H129.455V102.605H123.042V96.1924Z" fill="#D24597"/>
<path d="M135.868 96.1924H142.281V102.605H135.868V96.1924Z" fill="#D24597"/>
<path d="M110.217 96.1924H116.629V102.605H110.217V96.1924Z" fill="#D24597"/>
<path d="M20.437 0H1.19849V19.2385H20.437V0ZM14.0241 12.8257H7.61131V6.41283H14.0241V12.8257Z" fill="#56E0F5"/>
<path d="M26.8499 6.4126H58.914V12.8254H26.8499V6.4126Z" fill="#56E0F5"/>
<path d="M20.437 25.6514H1.19849V44.8898H20.437V25.6514ZM14.0241 38.477H7.61131V32.0642H14.0241V38.477Z" fill="#56E0F5"/>
<path d="M26.8499 32.064H58.914V38.4768H26.8499V32.064Z" fill="#56E0F5"/>
<path d="M20.437 51.3027H1.19849V70.5412H20.437V51.3027ZM14.0241 64.1284H7.61131V57.7156H14.0241V64.1284Z" fill="#56E0F5"/>
<path d="M20.437 76.9541H1.19849V96.1926H20.437V76.9541ZM14.0241 89.7798H7.61131V83.3669H14.0241V89.7798Z" fill="#56E0F5"/>
<path d="M186.677 122.637C185.808 120.549 185.768 118.253 186.533 116.152C195.002 104.148 199.996 89.523 199.996 73.7475C199.996 54.5651 192.629 37.0741 180.585 23.9439L176.052 19.4108C162.922 7.36673 145.431 0 126.248 0C91.0902 0 61.6192 24.7375 54.2766 57.7154H26.8497V64.1283H53.1503C52.7375 67.2786 52.501 70.485 52.501 73.7475C52.501 77.01 52.7335 80.2164 53.1503 83.3667H26.8497V89.7796H54.2766C55.5792 95.6232 57.5671 101.202 60.1683 106.437L11.1303 155.475L0 200L44.525 188.866L84.5651 148.822V153.908H89.6433C93.2385 153.908 96.4489 156.052 97.8838 159.527C99.2826 162.874 98.5371 166.685 95.996 169.226L92.3968 172.818L110.537 190.958L114.128 187.367C116.673 184.826 120.473 184.072 123.984 185.539C127.311 186.91 129.455 190.116 129.455 193.715V198.798H155.106V193.719C155.106 190.124 157.251 186.914 160.725 185.479C164.076 184.08 167.88 184.826 170.429 187.371L174.02 190.962L192.16 172.822L188.561 169.234C186.016 166.689 185.275 162.882 186.733 159.379C188.108 156.056 191.319 153.912 194.914 153.912H199.992V128.261H194.914C191.323 128.257 188.112 126.112 186.677 122.637ZM126.248 6.41283C143.659 6.41283 159.499 13.1102 171.467 23.996L162.401 33.0621C152.766 24.493 140.128 19.2385 126.248 19.2385C96.1924 19.2385 71.7395 43.6914 71.7395 73.7475C71.7395 103.804 96.1924 128.257 126.248 128.257C156.305 128.257 180.758 103.804 180.758 73.7475C180.758 59.8717 175.503 47.2305 166.934 37.5952L176 28.5291C186.882 40.497 193.583 56.3367 193.583 73.7475C193.583 110.878 163.375 141.082 126.248 141.082C89.1222 141.082 58.9138 110.878 58.9138 73.7475C58.9138 36.6172 89.1222 6.41283 126.248 6.41283ZM116.629 87.8998L162.401 42.1283C169.816 50.5932 174.345 61.6393 174.345 73.7475C174.345 100.269 152.77 121.844 126.248 121.844C99.7274 121.844 78.1523 100.269 78.1523 73.7475C78.1523 47.2265 99.7274 25.6513 126.248 25.6513C138.357 25.6513 149.403 30.1804 157.868 37.5952L137.248 58.2144L116.629 78.8337L102.866 65.0701L98.3327 69.6032L116.629 87.8998ZM167.932 141.082C167.932 155.226 156.425 166.733 142.281 166.733C130.257 166.733 120.004 158.309 117.327 146.938C119.579 147.21 121.86 147.379 124.172 147.443C126.842 155.026 134.056 160.321 142.281 160.321C152.89 160.321 161.519 151.691 161.519 141.082C161.519 140.248 161.463 139.415 161.355 138.589C163.359 137.499 165.307 136.317 167.19 135.05C167.663 137.018 167.932 139.026 167.932 141.082ZM155.054 141.635C154.758 148.449 149.166 153.908 142.285 153.908C137.559 153.908 133.331 151.279 131.11 147.319C139.551 146.766 147.615 144.802 155.054 141.635ZM36.6092 184.232L20.7776 188.188L11.8036 179.214L15.7635 163.383L36.6092 184.232ZM32.986 171.543L76.4449 128.084C79.9158 131.267 83.6874 134.12 87.7194 136.601L42.8818 181.439L32.986 171.543ZM71.9118 123.551L28.4529 167.01L18.5571 157.114L63.3948 112.277C65.8757 116.305 68.7295 120.08 71.9118 123.551ZM9.99198 186.473L13.5271 190.008L8.80962 191.182L9.99198 186.473ZM193.583 147.551C187.932 148.04 183.01 151.619 180.758 157.062C178.529 162.405 179.475 168.433 183.13 172.782L173.98 181.932C169.627 178.273 163.587 177.331 158.124 179.615C152.81 181.812 149.238 186.733 148.749 192.385H135.812C135.323 186.733 131.739 181.808 126.301 179.559C120.962 177.331 114.93 178.273 110.581 181.936L101.431 172.786C105.086 168.433 106.028 162.393 103.747 156.922C101.547 151.607 96.6253 148.04 90.978 147.551V142.409L93.5591 139.828C98.9058 142.481 104.613 144.505 110.589 145.804C112.89 161.315 126.353 173.146 142.281 173.146C159.96 173.146 174.345 158.762 174.345 141.082C174.345 137.611 173.772 134.228 172.689 130.982C175.415 128.766 177.976 126.361 180.361 123.788C180.513 124.273 180.617 124.762 180.818 125.242C183.018 130.557 187.94 134.124 193.587 134.613L193.583 147.551Z" fill="#56E0F5"/>
<path d="M142.281 185.972C144.051 185.972 145.487 184.536 145.487 182.765C145.487 180.995 144.051 179.559 142.281 179.559C140.51 179.559 139.074 180.995 139.074 182.765C139.074 184.536 140.51 185.972 142.281 185.972Z" fill="#56E0F5"/>
<path d="M171.138 166.733C170.316 166.733 169.495 167.046 168.87 167.671C167.615 168.926 167.615 170.954 168.87 172.204C169.495 172.83 170.316 173.142 171.138 173.142C171.96 173.142 172.781 172.83 173.407 172.204C174.661 170.95 174.661 168.922 173.407 167.671C172.781 167.046 171.96 166.733 171.138 166.733Z" fill="#56E0F5"/>
<path d="M183.964 144.289C185.735 144.289 187.17 142.853 187.17 141.082C187.17 139.312 185.735 137.876 183.964 137.876C182.193 137.876 180.758 139.312 180.758 141.082C180.758 142.853 182.193 144.289 183.964 144.289Z" fill="#56E0F5"/>
<path d="M113.423 166.733C112.601 166.733 111.78 167.046 111.154 167.671C109.9 168.926 109.9 170.954 111.154 172.204C111.78 172.83 112.601 173.142 113.423 173.142C114.244 173.142 115.066 172.83 115.691 172.204C116.946 170.95 116.946 168.922 115.691 167.671C115.066 167.046 114.244 166.733 113.423 166.733Z" fill="#56E0F5"/>
<path fill-rule="evenodd" clip-rule="evenodd" d="M196.61 9.25789L116.456 88.7889L97.2009 70.0031L102.799 64.2653L116.409 77.5436L190.964 3.56763L196.61 9.25789Z" fill="#D24597"/>
<path fill-rule="evenodd" clip-rule="evenodd" d="M126.453 121.443C152.905 121.443 174.349 99.9992 174.349 73.5471C174.349 47.095 152.905 25.6513 126.453 25.6513C100.001 25.6513 78.5572 47.095 78.5572 73.5471C78.5572 99.9992 100.001 121.443 126.453 121.443ZM126.453 128.657C156.89 128.657 181.563 103.984 181.563 73.5471C181.563 43.1106 156.89 18.4369 126.453 18.4369C96.0165 18.4369 71.3428 43.1106 71.3428 73.5471C71.3428 103.984 96.0165 128.657 126.453 128.657Z" fill="#D24597"/>
</svg>
