<svg width="200" height="200" viewBox="0 0 200 200" fill="none" xmlns="http://www.w3.org/2000/svg">
<path d="M172.619 123.81H164.683V119.048C164.683 102.393 151.179 88.8889 134.524 88.8889C117.869 88.8889 104.365 102.393 104.365 119.048V123.81H96.4287C92.0477 123.814 88.4962 127.365 88.4922 131.746V148.413C88.4962 152.357 91.6906 155.552 95.635 155.556H104.365V157.143C104.373 165.028 110.766 171.421 118.651 171.429H140.873C143.504 171.429 145.635 169.298 145.635 166.667C145.635 164.036 143.504 161.905 140.873 161.905H118.651C116.024 161.901 113.893 159.77 113.889 157.143V119.048C113.889 107.651 123.127 98.4127 134.524 98.4127C145.921 98.4127 155.159 107.651 155.159 119.048V150.794C155.159 153.425 157.29 155.556 159.921 155.556H173.413C177.357 155.552 180.552 152.357 180.556 148.413V131.746C180.552 127.365 177 123.814 172.619 123.81ZM98.016 133.333H104.365V146.032H98.016V133.333ZM171.032 146.032H164.683V133.333H171.032V146.032Z" fill="#56E0F5"/>
<path fill-rule="evenodd" clip-rule="evenodd" d="M142.46 70.2892V70.3254C174.615 74.254 199.603 101.722 199.603 134.921C199.603 170.773 170.463 199.946 134.623 200C98.6167 199.946 69.4446 170.741 69.4446 134.722C69.4446 134.259 69.4494 133.798 69.459 133.337H69.4605C69.6708 124.333 71.762 115.472 75.5954 107.321C75.5581 107.326 75.5208 107.331 75.4835 107.336C77.4681 103.083 79.9017 99.085 82.7237 95.3996C82.7961 95.3646 82.8684 95.3293 82.9406 95.2937C86.393 90.8096 90.4128 86.7897 94.897 83.3373C94.9213 83.288 94.9455 83.2387 94.9695 83.1893C98.6612 80.3778 102.665 77.9508 106.921 75.9667C106.919 75.9765 106.918 75.9863 106.917 75.9961C109.614 74.7269 112.388 73.6492 115.22 72.7675C121.378 70.8649 127.929 69.8413 134.722 69.8413C137.341 69.8413 139.923 69.9934 142.46 70.2892ZM78.9684 134.921C78.9684 165.556 103.889 190.476 134.524 190.476C165.159 190.476 190.08 165.556 190.08 134.921C190.08 104.286 165.159 79.3651 134.524 79.3651C103.889 79.3651 78.9684 104.286 78.9684 134.921Z" fill="#56E0F5"/>
<path fill-rule="evenodd" clip-rule="evenodd" d="M69.8738 142.857H58.1667C55.7619 142.857 53.7342 141.064 53.4405 138.679L52.1984 128.615L44.5913 125.464L36.5953 131.698C34.7025 133.175 32.0001 133.008 30.3015 131.31L11.5477 112.556C9.84526 110.857 9.67863 108.159 11.1588 106.262L17.3929 98.2659L14.2421 90.6587L4.17849 89.4167C1.79366 89.123 0 87.0953 0 84.6905V58.1667C0 55.7619 1.79366 53.7342 4.17849 53.4366L14.2421 52.1944L17.3929 44.5873L11.1588 36.5913C9.6825 34.6984 9.84914 31.996 11.5477 30.2977L30.3015 11.5477C32.0001 9.84526 34.6984 9.67863 36.5953 11.1588L44.5913 17.3929L52.1984 14.2421L53.4405 4.17849C53.7342 1.79366 55.7619 0 58.1667 0H84.6905C87.0953 0 89.123 1.79366 89.4206 4.17849L90.6628 14.2421L98.2699 17.3929L106.266 11.1588C108.159 9.6825 110.861 9.84914 112.56 11.5477L131.31 30.3015C133.012 32.0001 133.179 34.6984 131.698 36.5953L125.464 44.5913L128.615 52.1984L138.679 53.4405C141.064 53.7342 142.857 55.7619 142.857 58.1667V70.3174C140.256 70.0031 137.607 69.8413 134.921 69.8413C134.391 69.8413 133.864 69.8487 133.337 69.8611V62.377L124.699 61.3134C122.996 61.1032 121.536 59.9922 120.881 58.4087L115.607 45.6747C114.948 44.0912 115.194 42.2778 116.25 40.9246L121.603 34.0596L108.802 21.2579L101.936 26.6111C100.583 27.6627 98.7698 27.9088 97.1866 27.254L84.4523 21.9802C82.8691 21.3214 81.7579 19.8651 81.5476 18.1627L80.4802 9.52381H62.377L61.3134 18.1586C61.1032 19.861 59.9922 21.3214 58.4087 21.9762L45.6747 27.25C44.0912 27.9088 42.2778 27.6627 40.9246 26.6071L34.0596 21.254L21.2579 34.0555L26.6111 40.9207C27.6627 42.2737 27.9088 44.0874 27.254 45.6706L21.9802 58.4049C21.3214 59.9881 19.8651 61.0993 18.1627 61.3095L9.52381 62.377V80.4802L18.1586 81.5438C19.861 81.754 21.3214 82.865 21.9762 84.4485L27.25 97.1825C27.9088 98.766 27.6627 100.579 26.6071 101.933L21.254 108.798L34.0555 121.599L40.9207 116.246C42.2737 115.194 44.0874 114.948 45.6706 115.603L58.4049 120.877C59.9881 121.536 61.0993 122.992 61.3095 124.694L62.3731 133.337H69.4739C69.4543 133.995 69.4445 134.655 69.4445 135.318C69.4445 137.867 69.5902 140.383 69.8738 142.857ZM75.6974 107.358C74.2626 107.528 72.8175 107.615 71.3691 107.615C53.262 107.607 37.9366 94.2342 35.4841 76.2936C32.7738 56.4682 46.6508 38.2024 66.4762 35.4882C86.3016 32.7738 104.571 46.6468 107.282 66.4722C107.707 69.6072 107.722 72.7851 107.323 75.9245C103.085 77.8968 99.0942 80.3091 95.4081 83.103C100.334 72.8801 98.292 60.6486 90.2858 52.5755L89.8928 52.1826C79.373 41.8769 62.4882 42.0556 52.1826 52.5755C41.8769 63.0953 42.0556 79.9801 52.5755 90.2858C60.6056 98.2533 72.7619 100.314 82.9548 95.4788C80.1355 99.1508 77.6968 103.13 75.6974 107.358Z" fill="#D24597"/>
</svg>
