<svg width="200" height="200" viewBox="0 0 200 200" fill="none" xmlns="http://www.w3.org/2000/svg">
<path d="M6.66667 23.3335H0V196.667C0 198.667 1.33333 200 3.33333 200H116.667V193.333H6.66667V23.3335Z" fill="#D24597"/>
<path d="M19.9999 6.66667H123.333V33.3333C123.333 35.3333 124.667 36.6667 126.667 36.6667H153.333V46.6667H160V33.3333C160 33 160 32.6667 159.667 32.3333V32C159.333 31.6667 159.333 31.3333 159 31L129 1C128.667 0.666667 128.333 0.666667 128 0.333333H127.667C127.333 0.333333 127 0 126.667 0H16.6666C14.6666 0 13.3333 1.33333 13.3333 3.33333V183.333C13.3333 185.333 14.6666 186.667 16.6666 186.667H130V180H19.9999V6.66667ZM148.667 30H130V11.3333L148.667 30Z" fill="#56E0F5"/>
<path d="M83.3334 90H76.6667V96.6667H83.3334V90Z" fill="#56E0F5"/>
<path d="M69.9999 90H63.3333V96.6667H69.9999V90Z" fill="#56E0F5"/>
<path d="M56.6667 90H50V96.6667H56.6667V90Z" fill="#56E0F5"/>
<path d="M43.3334 90H36.6667V96.6667H43.3334V90Z" fill="#56E0F5"/>
<path d="M96.6667 90H90V96.6667H96.6667V90Z" fill="#56E0F5"/>
<path d="M36.6667 16.6665H30V23.3332H36.6667V16.6665Z" fill="#56E0F5"/>
<path d="M50.0002 16.6665H43.3335V23.3332H50.0002V16.6665Z" fill="#56E0F5"/>
<path d="M50.0002 30H43.3335V36.6667H50.0002V30Z" fill="#56E0F5"/>
<path d="M36.6667 30H30V36.6667H36.6667V30Z" fill="#56E0F5"/>
<path d="M83.3332 16.6665H56.6665V23.3332H83.3332V16.6665Z" fill="#56E0F5"/>
<path d="M83.3332 30H56.6665V36.6667H83.3332V30Z" fill="#56E0F5"/>
<path d="M116.667 53.3335H30V60.0002H116.667V53.3335Z" fill="#56E0F5"/>
<path d="M143.333 70H30V76.6667H143.333V70Z" fill="#56E0F5"/>
<path d="M143.333 110H30V116.667H143.333V110Z" fill="#56E0F5"/>
<path d="M143.333 126.667H30V133.333H143.333V126.667Z" fill="#56E0F5"/>
<path d="M103.333 143.333H30V150H103.333V143.333Z" fill="#56E0F5"/>
<path d="M116.667 143.333H110V150H116.667V143.333Z" fill="#56E0F5"/>
<path d="M130 143.333H123.333V150H130V143.333Z" fill="#56E0F5"/>
<path d="M143.333 143.333H136.667V150H143.333V143.333Z" fill="#56E0F5"/>
<path d="M186.667 110C180.333 110 175.333 114.334 173.667 120H160V96.6668H180C182 96.6668 183.333 95.3335 183.333 93.3335V39.6668C189 38.3335 193.333 33.0002 193.333 26.6668C193.333 19.3335 187.333 13.3335 180 13.3335C172.667 13.3335 166.667 19.3335 166.667 26.6668C166.667 33.0002 171 38.0002 176.667 39.6668V90.0002H103.333V96.6668H153.333V160.333C147.667 161.667 143.333 167 143.333 173.333C143.333 180.667 149.333 186.667 156.667 186.667C164 186.667 170 180.667 170 173.333C170 167 165.667 162 160 160.333V126.667H173.667C175 132.334 180.333 136.667 186.667 136.667C194 136.667 200 130.667 200 123.334C200 116 194 110 186.667 110ZM173.333 26.6668C173.333 23.0002 176.333 20.0002 180 20.0002C183.667 20.0002 186.667 23.0002 186.667 26.6668C186.667 30.3335 183.667 33.3335 180 33.3335C176.333 33.3335 173.333 30.3335 173.333 26.6668ZM163.333 173.333C163.333 177 160.333 180 156.667 180C153 180 150 177 150 173.333C150 169.667 153 166.667 156.667 166.667C160.333 166.667 163.333 169.667 163.333 173.333ZM186.667 130C183 130 180 127 180 123.334C180 119.667 183 116.667 186.667 116.667C190.333 116.667 193.333 119.667 193.333 123.334C193.333 127 190.333 130 186.667 130Z" fill="#D24597"/>
<path d="M70 160H30V166.667H70V160Z" fill="#56E0F5"/>
</svg>
