<svg width="20" height="12" viewBox="0 0 20 12" fill="none" xmlns="http://www.w3.org/2000/svg">
<path d="M19.5008 10.4193C19.4487 10.3307 19.1264 9.62001 17.5752 8.15924C15.9514 6.62961 16.1695 6.878 18.1254 4.23312C19.3166 2.62234 19.7929 1.63865 19.6438 1.21813C19.502 0.817277 18.6259 0.923023 18.6259 0.923023L15.7127 0.940237C15.7127 0.940237 15.497 0.910727 15.3358 1.00787C15.1795 1.10377 15.0789 1.3251 15.0789 1.3251C15.0789 1.3251 14.6172 2.57192 14.0016 3.63184C12.7037 5.86849 12.1838 5.98653 11.9718 5.84759C11.4786 5.5242 11.6022 4.54667 11.6022 3.85317C11.6022 1.68538 11.9257 0.781619 10.9708 0.547994C10.6533 0.470529 10.4206 0.418885 9.60993 0.410278C8.57018 0.399212 7.68919 0.413967 7.19113 0.661117C6.85909 0.825884 6.6034 1.19354 6.75972 1.21444C6.9524 1.24026 7.38866 1.33371 7.62012 1.65341C7.91944 2.06533 7.90853 2.99245 7.90853 2.99245C7.90853 2.99245 8.08061 5.54387 7.50742 5.86111C7.11357 6.07875 6.57431 5.63487 5.41702 3.60479C4.82444 2.56577 4.37606 1.41609 4.37606 1.41609C4.37606 1.41609 4.29002 1.20214 4.13612 1.08779C3.9495 0.948845 3.68775 0.904579 3.68775 0.904579L0.917519 0.921794C0.917519 0.921794 0.501864 0.93409 0.349174 1.1173C0.21345 1.28084 0.338268 1.61775 0.338268 1.61775C0.338268 1.61775 2.50743 6.7661 4.96259 9.36179C7.21537 11.7411 9.77231 11.5849 9.77231 11.5849H10.9308C10.9308 11.5849 11.281 11.5456 11.4592 11.3501C11.624 11.1705 11.6179 10.8336 11.6179 10.8336C11.6179 10.8336 11.5949 9.25605 12.3171 9.02365C13.0285 8.79495 13.9422 10.5484 14.9104 11.2234C15.6424 11.7337 16.1986 11.6218 16.1986 11.6218L18.7883 11.5849C18.7883 11.5849 20.1431 11.5001 19.5008 10.4193Z" fill="black"/>
</svg>
