<svg width="16" height="21" viewBox="0 0 16 21" fill="none" xmlns="http://www.w3.org/2000/svg">
<path d="M7.99102 0C3.57351 0 0 3.53855 0 7.91284C0 10.1889 1.14927 12.2516 2.28058 14.1542C3.6633 16.5193 5.31538 18.7241 7.23681 20.6801C7.64983 21.1066 8.33239 21.1066 8.76319 20.6801C10.4512 19.0264 11.9416 17.1593 13.1987 15.1678C14.5455 13.016 16 10.5266 16 7.91284C15.982 3.55633 12.4085 0 7.99102 0ZM7.99102 12.5005C5.31538 12.5005 3.14254 10.3489 3.14254 7.69946C3.14254 5.04999 5.31538 2.89841 7.99102 2.89841C10.6667 2.89841 12.8395 5.03221 12.8395 7.69946C12.8395 10.3667 10.6667 12.5005 7.99102 12.5005Z" fill="#EB3223"/>
</svg>
