<svg width="79" height="32" viewBox="0 0 79 32" fill="none" xmlns="http://www.w3.org/2000/svg">
<path d="M4.84498 21.3037C0.336457 17.3516 0 15.543 0 12.3947C0 9.98328 2.42249 4.28964 8.81517 4.15567C15.2078 4.0217 17.8322 9.04303 17.8322 13.3325C17.8322 16.5482 14.9162 19.4926 13.5256 20.6313C13.5256 20.6313 12.8526 19.6588 12.1124 18.8227C11.3722 17.9866 10.4302 17.2176 10.4302 17.2176C16.0153 12.3947 10.6993 7.83979 7.46934 9.38043C4.23935 10.9211 4.57581 14.1065 6.66184 16.4138C8.47871 18.4234 12.3816 20.7678 12.8526 24.7869C13.2295 28.0021 10.9909 30.3688 9.82454 31.1504C10.4974 27.9351 9.3535 25.2558 4.84498 21.3037Z" fill="url(#paint0_linear)"/>
<path d="M8.81505 15.4735C10.5646 15.4735 12.1796 13.531 8.81505 10.7846C5.45045 13.531 7.06545 15.4735 8.81505 15.4735Z" fill="#00A1E2"/>
<path d="M27.455 19.0235C26.3409 19.0235 25.3112 18.8467 24.366 18.493C23.4377 18.1224 22.6273 17.6171 21.9353 16.9771C21.2601 16.3203 20.7285 15.554 20.3402 14.6781C19.9689 13.7855 19.7832 12.8087 19.7832 11.7476C19.7832 10.6865 19.9689 9.71807 20.3402 8.84225C20.7285 7.9496 21.2601 7.18328 21.9353 6.54327C22.6273 5.88641 23.4377 5.38113 24.366 5.02744C25.3112 4.65691 26.3409 4.47165 27.455 4.47165C28.569 4.47165 29.5902 4.65691 30.5186 5.02744C31.4638 5.38113 32.2741 5.88641 32.9492 6.54327C33.6413 7.18328 34.1729 7.9496 34.5444 8.84225C34.9325 9.71807 35.1267 10.6865 35.1267 11.7476C35.1267 12.8087 34.9325 13.7855 34.5444 14.6781C34.1729 15.554 33.6413 16.3203 32.9492 16.9771C32.2741 17.6171 31.4638 18.1224 30.5186 18.493C29.5902 18.8467 28.569 19.0235 27.455 19.0235ZM27.455 14.8044C28.3157 14.8044 29.0162 14.5266 29.5565 13.9708C30.1135 13.3982 30.3919 12.6571 30.3919 11.7476C30.3919 10.8381 30.1135 10.1054 29.5565 9.54964C29.0162 8.97699 28.3157 8.69068 27.455 8.69068C26.594 8.69068 25.8852 8.97699 25.3281 9.54964C24.7711 10.1054 24.4925 10.8381 24.4925 11.7476C24.4925 12.6571 24.7711 13.3982 25.3281 13.9708C25.8852 14.5266 26.594 14.8044 27.455 14.8044Z" fill="url(#paint1_linear)"/>
<path d="M46.3267 14.4508V18.5688H43.0858C41.5496 18.5688 40.3512 18.1393 39.4904 17.2803C38.6464 16.4213 38.2244 15.2255 38.2244 13.6929V8.53913H35.7178V7.4528L41.8451 0.934784H42.8072V4.92643H46.2506V8.53913H42.9338V12.8845C42.9338 13.3729 43.0688 13.7603 43.3389 14.0466C43.6259 14.316 44.0141 14.4508 44.5036 14.4508H46.3267Z" fill="url(#paint2_linear)"/>
<path d="M55.2723 19.0235C54.1584 19.0235 53.1287 18.8467 52.1834 18.493C51.255 18.1224 50.4449 17.6171 49.7528 16.9771C49.0776 16.3203 48.5459 15.554 48.1576 14.6781C47.7863 13.7855 47.6006 12.8087 47.6006 11.7476C47.6006 10.6865 47.7863 9.71807 48.1576 8.84225C48.5459 7.9496 49.0776 7.18328 49.7528 6.54327C50.4449 5.88641 51.255 5.38113 52.1834 5.02744C53.1287 4.65691 54.1584 4.47165 55.2723 4.47165C56.3864 4.47165 57.4076 4.65691 58.336 5.02744C59.2813 5.38113 60.0915 5.88641 60.7667 6.54327C61.4587 7.18328 61.9904 7.9496 62.3618 8.84225C62.75 9.71807 62.9441 10.6865 62.9441 11.7476C62.9441 12.8087 62.75 13.7855 62.3618 14.6781C61.9904 15.554 61.4587 16.3203 60.7667 16.9771C60.0915 17.6171 59.2813 18.1224 58.336 18.493C57.4076 18.8467 56.3864 19.0235 55.2723 19.0235ZM55.2723 14.8044C56.1333 14.8044 56.8338 14.5266 57.3738 13.9708C57.9309 13.3982 58.2095 12.6571 58.2095 11.7476C58.2095 10.8381 57.9309 10.1054 57.3738 9.54964C56.8338 8.97699 56.1333 8.69068 55.2723 8.69068C54.4115 8.69068 53.7026 8.97699 53.1455 9.54964C52.5885 10.1054 52.31 10.8381 52.31 11.7476C52.31 12.6571 52.5885 13.3982 53.1455 13.9708C53.7026 14.5266 54.4115 14.8044 55.2723 14.8044Z" fill="url(#paint3_linear)"/>
<path d="M73.4556 18.5688L70.0374 12.8087V18.5688H65.3281V0H70.0374V10.2823L73.2783 4.92641H78.5701L74.3165 11.4192L79.0005 18.5688H73.4556Z" fill="url(#paint4_linear)"/>
<defs>
<linearGradient id="paint0_linear" x1="22.9839" y1="2.72195" x2="22.9839" y2="31.8465" gradientUnits="userSpaceOnUse">
<stop stop-color="white"/>
<stop offset="1" stop-color="white"/>
</linearGradient>
<linearGradient id="paint1_linear" x1="39.5593" y1="3.70029" x2="39.5593" y2="19.3988" gradientUnits="userSpaceOnUse">
<stop stop-color="white"/>
<stop offset="1" stop-color="white"/>
</linearGradient>
<linearGradient id="paint2_linear" x1="49.3915" y1="2.97994e-05" x2="49.3915" y2="19.0235" gradientUnits="userSpaceOnUse">
<stop stop-color="white"/>
<stop offset="1" stop-color="white"/>
</linearGradient>
<linearGradient id="paint3_linear" x1="67.3767" y1="3.70029" x2="67.3767" y2="19.3988" gradientUnits="userSpaceOnUse">
<stop stop-color="white"/>
<stop offset="1" stop-color="white"/>
</linearGradient>
<linearGradient id="paint4_linear" x1="82.9504" y1="-0.984304" x2="82.9504" y2="19.0476" gradientUnits="userSpaceOnUse">
<stop stop-color="white"/>
<stop offset="1" stop-color="white"/>
</linearGradient>
</defs>
</svg>
