<svg width="16" height="18" viewBox="0 0 16 18" fill="none" xmlns="http://www.w3.org/2000/svg">
<path d="M7.53429 8.67062C8.74789 8.67062 9.79878 8.24339 10.6574 7.40047C11.5161 6.55769 11.9513 5.52649 11.9513 4.33517C11.9513 3.14426 11.5161 2.11293 10.6573 1.26987C9.7985 0.427228 8.74775 0 7.53429 0C6.32055 0 5.26995 0.427228 4.4113 1.27001C3.55266 2.11279 3.11725 3.14413 3.11725 4.33517C3.11725 5.52649 3.55266 6.55783 4.41144 7.40061C5.27023 8.24325 6.32097 8.67062 7.53429 8.67062Z" fill="white"/>
<path d="M15.2629 13.841C15.2382 13.4903 15.1881 13.1077 15.1143 12.7037C15.0399 12.2966 14.9441 11.9118 14.8293 11.5601C14.7108 11.1966 14.5496 10.8377 14.3504 10.4936C14.1436 10.1366 13.9007 9.82568 13.6282 9.56984C13.3432 9.30219 12.9942 9.087 12.5907 8.93003C12.1886 8.77389 11.743 8.69479 11.2663 8.69479C11.0791 8.69479 10.8981 8.77018 10.5484 8.99361C10.3332 9.13135 10.0815 9.29066 9.8006 9.46685C9.56037 9.61708 9.23493 9.75784 8.83296 9.88529C8.44079 10.0098 8.04259 10.073 7.64958 10.073C7.25657 10.073 6.85851 10.0098 6.46592 9.88529C6.06437 9.75798 5.73893 9.61722 5.49898 9.46698C5.2207 9.29244 4.96886 9.13314 4.75045 8.99348C4.40123 8.77004 4.22004 8.69465 4.03284 8.69465C3.55602 8.69465 3.11054 8.77389 2.70857 8.93017C2.30534 9.08686 1.95626 9.30205 1.67098 9.56998C1.39857 9.82596 1.15554 10.1367 0.949027 10.4936C0.749931 10.8377 0.588752 11.1965 0.470106 11.5603C0.355518 11.912 0.259678 12.2966 0.185244 12.7037C0.11151 13.1071 0.0614216 13.4899 0.0366571 13.8414C0.0123123 14.1859 0 14.5433 0 14.9044C0 15.8439 0.30431 16.6046 0.904395 17.1656C1.49706 17.7192 2.28127 18 3.23492 18H12.0651C13.0187 18 13.8027 17.7193 14.3955 17.1656C14.9957 16.605 15.3 15.8442 15.3 14.9042C15.2999 14.5415 15.2874 14.1838 15.2629 13.841Z" fill="white"/>
</svg>
