<svg width="16" height="16" viewBox="0 0 16 16" fill="none" xmlns="http://www.w3.org/2000/svg">
<path d="M14.3839 10.2651C13.4264 10.2651 12.4863 10.1153 11.5955 9.8209C11.1589 9.672 10.6223 9.8086 10.3558 10.0822L8.59741 11.4097C6.55814 10.3211 5.30199 9.06535 4.22829 7.04139L5.51665 5.32879C5.85138 4.99451 5.97144 4.5062 5.8276 4.04804C5.53193 3.15247 5.38173 2.2128 5.38173 1.25493C5.38177 0.562955 4.81882 0 4.12688 0H1.25489C0.562955 0 0 0.562955 0 1.25489C0 9.18627 6.45254 15.6388 14.3839 15.6388C15.0758 15.6388 15.6388 15.0758 15.6388 14.3839V11.5199C15.6388 10.828 15.0758 10.2651 14.3839 10.2651Z" fill="white"/>
</svg>
