<svg width="34" height="19" viewBox="0 0 34 19" fill="none" xmlns="http://www.w3.org/2000/svg">
<path d="M33.0029 16.9468C32.9134 16.7969 32.3597 15.5939 29.6956 13.1212C26.9065 10.532 27.2812 10.9524 30.6405 6.47536C32.6865 3.74875 33.5045 2.08364 33.2485 1.37181C33.005 0.693277 31.5001 0.872276 31.5001 0.872276L26.4965 0.901416C26.4965 0.901416 26.126 0.851462 25.8492 1.01589C25.5807 1.17824 25.4079 1.55289 25.4079 1.55289C25.4079 1.55289 24.6149 3.66341 23.5576 5.45756C21.3284 9.2436 20.4355 9.44341 20.0713 9.20822C19.2241 8.66082 19.4364 7.00611 19.4364 5.83221C19.4364 2.16273 19.9922 0.632917 18.352 0.237454C17.8067 0.106327 17.4071 0.0189088 16.0146 0.00433909C14.2288 -0.0143934 12.7156 0.0105832 11.8602 0.428941C11.2899 0.707847 10.8507 1.33018 11.1192 1.36556C11.4502 1.40927 12.1995 1.56746 12.597 2.10862C13.1111 2.80588 13.0924 4.37525 13.0924 4.37525C13.0924 4.37525 13.3879 8.69412 12.4034 9.23111C11.727 9.59952 10.8008 8.84814 8.81304 5.41177C7.79525 3.65301 7.02514 1.70691 7.02514 1.70691C7.02514 1.70691 6.87736 1.34475 6.61302 1.15118C6.29249 0.915986 5.84291 0.841056 5.84291 0.841056L1.08487 0.870195C1.08487 0.870195 0.370951 0.891009 0.108697 1.20114C-0.124418 1.47796 0.0899642 2.04826 0.0899642 2.04826C0.0899642 2.04826 3.81564 10.763 8.03253 15.1568C11.9018 19.1843 16.2935 18.92 16.2935 18.92H18.2833C18.2833 18.92 18.8849 18.8534 19.1908 18.5224C19.4739 18.2185 19.4635 17.6482 19.4635 17.6482C19.4635 17.6482 19.4239 14.9778 20.6644 14.5844C21.8862 14.1973 23.4556 17.1653 25.1186 18.308C26.3758 19.1718 27.3311 18.9824 27.3311 18.9824L31.779 18.92C31.779 18.92 34.106 18.7763 33.0029 16.9468Z" fill="white"/>
</svg>
