<svg width="278" height="295" viewBox="0 0 278 295" fill="none" xmlns="http://www.w3.org/2000/svg">
<mask id="mask0_5_3935" style="mask-type:alpha" maskUnits="userSpaceOnUse" x="0" y="0" width="278" height="295">
<rect width="278" height="295" fill="#D9D9D9"/>
</mask>
<g mask="url(#mask0_5_3935)">
<path d="M139.492 276.943C89.9866 277.411 65.2339 277.645 50.1553 268.607C32.0222 257.739 20.6275 238.427 19.8828 217.3C19.2635 199.731 31.4373 178.178 55.7848 135.071V135.071C80.1324 91.9642 92.3062 70.4108 107.672 61.871C126.15 51.6012 148.573 51.3893 167.242 61.308C182.766 69.556 195.345 90.8755 220.503 133.514V133.514C245.661 176.153 258.24 197.473 257.953 215.05C257.607 236.188 246.58 255.712 228.655 266.921C213.75 276.241 188.997 276.475 139.492 276.943V276.943Z" fill="#F7F9FE"/>
</g>
</svg>
