<svg width="455" height="41" viewBox="0 0 455 41" fill="none" xmlns="http://www.w3.org/2000/svg">
<path fill-rule="evenodd" clip-rule="evenodd" d="M89.6609 1.15125C83.9097 3.06647 82.2469 5.16705 82.0334 12.4573C81.9265 16.4422 81.6826 28.2733 82.3385 31.5942C84.3064 41.0777 101.743 41.402 110.499 38.7762C116.129 37.0773 117.227 34.6677 117.334 27.6401C117.44 22.4505 117.334 17.8014 117.44 13.8937C117.44 6.17101 115.717 1.42926 107.403 0.487095C102.17 -0.146167 94.2985 -0.377848 89.6457 1.15125H89.6609ZM110.591 29.2618V11.8395C110.728 6.94328 103.528 7.57653 99.9124 7.57653C95.9461 7.57653 89.0202 7.15951 89.0202 11.8395V29.2618C89.0202 31.7023 92.0712 32.6136 95.5341 32.8606C98.7098 32.9726 101.889 32.8797 105.053 32.5826C108.287 32.3355 110.393 31.4243 110.53 29.2311L110.591 29.2618Z" fill="#EC2327"/>
<path fill-rule="evenodd" clip-rule="evenodd" d="M46.2424 0.158173C54.6633 0.158173 64.1313 -0.424261 69.3347 0.64616C74.5382 1.71658 77.2632 5.02229 77.2632 11.6652C77.2632 22.6843 73.8147 25.8325 66.1634 26.6354C65.9431 26.6525 65.7217 26.6525 65.5014 26.6354C60.9752 27.0289 55.0021 26.6354 47.4431 26.6354V36.5052C47.4431 37.4822 47.0636 38.4191 46.3881 39.11C45.7124 39.8007 44.7961 40.1888 43.8408 40.1888C42.8854 40.1888 41.9691 39.8007 41.2934 39.11C40.6179 38.4191 40.2383 37.4822 40.2383 36.5052V30.2087C40.0998 25.5807 40.2383 20.1026 40.2383 15.5219C40.2383 11.7911 40.3769 7.7928 40.2383 4.06205C40.1751 3.632 40.1954 3.1934 40.2981 2.77138C40.4008 2.34937 40.5841 1.95225 40.8373 1.60275C41.0903 1.25326 41.4085 0.958268 41.7732 0.734693C42.138 0.511117 42.5426 0.363347 42.9633 0.299847C44.0439 0.141437 45.1372 0.0939756 46.227 0.158173H46.2424ZM65.6553 7.58815H47.4585V19.3628H63.4692C68.0878 19.3628 70.4586 19.0479 70.6586 13.6644C70.8589 8.28078 69.3039 7.69835 65.6553 7.58815Z" fill="#EC2327"/>
<path d="M35.5407 36.487V20.9946V14.1124C35.5711 6.26741 33.7766 1.45307 25.4578 0.490207C20.2417 -0.125397 12.3336 -0.409522 7.66475 1.16895C1.9466 3.09468 0.273742 5.22563 0.0608314 12.6444C0.0608314 15.5015 -0.0760392 22.3205 0.0608314 27.2768V36.4477C0.0628242 36.9328 0.156845 37.4128 0.337528 37.8601C0.518208 38.3074 0.782011 38.7135 1.11387 39.0549C1.44574 39.3965 1.83916 39.6669 2.27168 39.8505C2.7042 40.0341 3.16735 40.1276 3.63467 40.1255C4.57728 40.1257 5.48171 39.7392 6.15107 39.0504C6.82042 38.3614 7.2005 37.4261 7.20852 36.4477V21.5629V21.2787V12.013C7.20852 7.26185 14.1585 7.68803 18.143 7.68803C21.6864 7.68803 28.6972 7.05664 28.5602 12.013V33.8274V36.511C28.5623 36.9961 28.6563 37.4759 28.837 37.9232C29.0177 38.3705 29.2815 38.7766 29.6134 39.118C29.9452 39.4596 30.3387 39.7299 30.7712 39.9136C31.2036 40.0974 31.6668 40.1909 32.1343 40.1888C33.074 40.1888 33.9752 39.8012 34.6398 39.1115C35.3043 38.4219 35.5407 37.4626 35.5407 36.487Z" fill="#EC2327"/>
<path fill-rule="evenodd" clip-rule="evenodd" d="M122.076 36.5009C122.08 35.5155 122.461 34.5718 123.137 33.8751C123.812 33.1785 124.727 32.7853 125.682 32.7811H128.075L143.678 2.01113C144.015 1.35072 144.535 0.808563 145.172 0.453483C145.808 0.0984028 146.533 -0.0535945 147.253 0.0167815C147.967 -0.0502449 148.684 0.103681 149.312 0.458907C149.941 0.814132 150.452 1.35454 150.782 2.01113L166.385 32.7811H167.919C168.874 32.7853 169.789 33.1785 170.464 33.8751C171.139 34.5718 171.521 35.5155 171.525 36.5009C171.523 36.9871 171.428 37.4684 171.245 37.9169C171.063 38.3656 170.797 38.7727 170.462 39.1152C170.127 39.4575 169.73 39.7287 169.294 39.9129C168.858 40.097 168.391 40.1909 167.919 40.1888H125.682C125.21 40.1909 124.743 40.097 124.306 39.9129C123.87 39.7287 123.473 39.4575 123.138 39.1152C122.804 38.7727 122.537 38.3656 122.355 37.9169C122.173 37.4684 122.078 36.9871 122.076 36.5009ZM147.253 11.0016L136.191 32.7811H158.269L147.253 11.0016Z" fill="#117DC1"/>
<path fill-rule="evenodd" clip-rule="evenodd" d="M220.315 0.140225C220.834 0.142286 221.349 0.239541 221.828 0.426436C222.309 0.613331 222.744 0.886208 223.109 1.22948C223.476 1.57276 223.766 1.97972 223.963 2.42711C224.159 2.87449 224.26 3.35358 224.257 3.83696V14.6912L245.599 0.675074C246.46 0.115446 247.523 -0.108966 248.561 0.0497443C249.597 0.208456 250.526 0.737714 251.15 1.52454C251.451 1.92191 251.666 2.37081 251.781 2.84545C251.896 3.3201 251.908 3.81119 251.819 4.29055C251.73 4.76992 251.54 5.22811 251.258 5.63887C250.979 6.04964 250.614 6.40489 250.186 6.68425L229.876 20.0869L250.186 33.4897C251.047 34.0565 251.632 34.9176 251.812 35.8844C251.994 36.8514 251.755 37.8454 251.15 38.6494C250.528 39.4378 249.602 39.9707 248.566 40.1351C247.53 40.2996 246.466 40.0825 245.599 39.5302L224.257 25.4984V36.5099C224.257 36.9905 224.155 37.4664 223.956 37.9103C223.759 38.3539 223.467 38.757 223.102 39.0962C222.735 39.4352 222.3 39.7037 221.823 39.8861C221.344 40.0687 220.832 40.1615 220.315 40.1594C219.268 40.1596 218.263 39.7766 217.519 39.0934C216.775 38.4103 216.35 37.4822 216.338 36.5099V3.83696C216.347 2.85908 216.768 1.92356 217.512 1.23206C218.256 0.54056 219.263 0.148443 220.315 0.140225Z" fill="#117DC1"/>
<path fill-rule="evenodd" clip-rule="evenodd" d="M278.12 7.40485V36.518C278.111 37.4918 277.705 38.4229 276.991 39.11C276.276 39.797 275.31 40.1846 274.3 40.1888C273.8 40.1909 273.302 40.0974 272.839 39.9139C272.376 39.7303 271.955 39.4603 271.6 39.1192C271.245 38.7782 270.964 38.3728 270.772 37.9263C270.58 37.4801 270.48 37.0013 270.48 36.518V7.40485H260.367C259.35 7.40489 258.375 7.0175 257.653 6.32703C256.931 5.63655 256.522 4.69889 256.514 3.71825C256.522 2.73467 256.93 1.79371 257.651 1.09819C258.371 0.402664 259.346 0.00826585 260.367 0H288.235C288.738 0.00207339 289.236 0.0998938 289.701 0.287876C290.166 0.47586 290.587 0.750323 290.941 1.0956C291.296 1.44087 291.578 1.85019 291.768 2.30018C291.96 2.75017 292.056 3.23203 292.055 3.71825C292.055 4.69601 291.653 5.6337 290.936 6.32507C290.22 7.01646 289.248 7.40485 288.235 7.40485H278.12Z" fill="#117DC1"/>
<path fill-rule="evenodd" clip-rule="evenodd" d="M426.467 16.1387H441.019C446.158 16.1387 448.108 16.3124 448.108 11.9224C448.108 8.76414 446.932 7.42189 441.019 7.42189H426.467V16.1387ZM426.467 32.7984H444.818C447.468 32.23 448.108 30.9034 448.108 28.5821C448.108 24.1923 446.158 24.3817 441.019 24.3817H426.467V32.83V32.7984ZM445.16 40.1888C437.549 40.1888 429.878 40.1888 422.267 40.1888C421.346 40.193 420.46 39.8098 419.803 39.1233C419.148 38.4366 418.775 37.5024 418.767 36.5251V3.71095C418.77 2.73074 419.139 1.79162 419.791 1.09703C420.444 0.402433 421.328 0.00829825 422.253 0C428.716 0 435.478 0 441.838 0C448.199 0 454.29 2.60556 454.29 10.4538C454.391 13.016 454.065 15.577 453.322 18.0179C453.165 18.4414 452.969 18.8485 452.74 19.2338C452.564 19.5859 452.485 19.985 452.518 20.3829C452.55 20.7809 452.689 21.1604 452.92 21.4762C453.111 21.8812 453.28 22.2978 453.425 22.7236C454.084 25.0738 454.376 27.522 454.29 29.9717C454.239 32.5718 453.273 35.0577 451.58 36.94C449.888 38.8222 447.592 39.9644 445.144 40.1414L445.16 40.1888Z" fill="#117DC1"/>
<path fill-rule="evenodd" clip-rule="evenodd" d="M183.921 1.15125C178.171 3.06647 176.507 5.16705 176.294 12.4573C176.187 16.4422 175.943 28.2733 176.6 31.5942C178.567 41.0777 196.02 41.402 204.776 38.7762C210.39 37.0773 211.487 34.6677 211.594 27.6401C211.702 22.4505 211.594 17.8014 211.702 13.8937C211.702 6.17101 209.978 1.42926 201.664 0.487095C196.43 -0.146167 188.559 -0.377848 183.907 1.15125H183.921ZM204.853 29.2618V11.8395C204.989 6.94328 197.788 7.57653 194.173 7.57653C190.206 7.57653 183.282 7.15951 183.282 11.8395V29.2618C183.282 31.7023 186.333 32.6136 189.796 32.8606C192.971 32.9719 196.151 32.8791 199.314 32.5826C202.548 32.3355 204.653 31.4243 204.791 29.2311L204.853 29.2618Z" fill="#117DC1"/>
<path fill-rule="evenodd" clip-rule="evenodd" d="M304.458 1.15125C298.725 3.06647 297.028 5.16705 296.815 12.4573C296.708 16.4422 296.477 28.2733 297.166 31.5942C299.092 41.0777 316.609 41.402 325.351 38.7762C330.975 37.0773 332.092 34.6677 332.23 27.6401C332.23 22.4505 332.23 17.8014 332.23 13.8937C332.305 6.17101 330.502 1.42926 322.188 0.487095C316.96 -0.146167 309.088 -0.377848 304.396 1.15125H304.458ZM325.398 29.2618V11.8395C325.534 6.94328 318.305 7.57653 314.697 7.57653C310.739 7.57653 303.785 7.15951 303.785 11.8395V29.2618C303.785 31.7023 306.841 32.6136 310.357 32.8606C313.523 32.9721 316.694 32.8793 319.848 32.5826C323.105 32.3355 325.199 31.4243 325.351 29.2311L325.398 29.2618Z" fill="#117DC1"/>
<path fill-rule="evenodd" clip-rule="evenodd" d="M386.342 1.15125C380.574 3.06647 378.924 5.16705 378.711 12.4573C378.62 16.4422 378.376 28.2733 379.033 31.5942C381 41.0777 398.444 41.402 407.203 38.7762C412.835 37.0773 413.934 34.6677 414.041 27.6401C414.132 22.4505 414.041 17.8014 414.132 13.8937C414.132 6.17101 412.407 1.42926 404.105 0.487095C398.856 -0.146167 390.997 -0.377848 386.342 1.15125ZM407.341 29.2618V11.8395C407.478 6.94328 400.259 7.57653 396.658 7.57653C392.69 7.57653 385.746 7.15951 385.746 11.8395V29.2618C385.746 31.7023 388.799 32.6136 392.278 32.8606C395.451 32.9726 398.626 32.8798 401.787 32.5826C405.037 32.3355 407.142 31.4243 407.28 29.2311L407.341 29.2618Z" fill="#117DC1"/>
<path fill-rule="evenodd" clip-rule="evenodd" d="M343.41 0.118495C351.851 0.118495 360.79 -0.385552 365.987 0.685509C371.185 1.75656 373.955 5.06426 373.955 11.7112C373.955 22.7367 370.509 25.887 362.866 26.706C362.646 26.7222 362.424 26.7222 362.204 26.706C357.591 27.0998 351.669 26.7848 344.164 26.7848V36.5031C344.164 37.4806 343.785 38.418 343.111 39.1093C342.436 39.8005 341.521 40.1888 340.567 40.1888C339.613 40.1888 338.697 39.8005 338.023 39.1093C337.346 38.418 336.967 37.4806 336.967 36.5031V30.2027C336.799 25.5719 336.876 20.0905 336.967 15.4914C336.967 11.7584 337.076 7.77342 336.967 4.04046C336.84 3.16955 337.055 2.28225 337.565 1.57347C338.075 0.864676 338.84 0.392349 339.69 0.260235C340.759 0.110225 341.841 0.0627458 342.919 0.118455L343.41 0.118495ZM362.235 7.61591H344.151V19.3976H360.112C364.727 19.3976 367.126 19.0825 367.341 13.7115C367.556 8.34045 365.973 7.72617 362.22 7.61591H362.235Z" fill="#117DC1"/>
</svg>
