<svg width="328" height="67" viewBox="0 0 328 67" fill="none" xmlns="http://www.w3.org/2000/svg">
<path fill-rule="evenodd" clip-rule="evenodd" d="M65.1749 32.8955C65.1749 15.1083 50.5342 0.597656 32.5875 0.597656C14.6407 0.597656 0 15.1083 0 32.8955C0 50.6828 14.6407 65.1934 32.5875 65.1934C50.5342 65.1934 65.1749 50.6828 65.1749 32.8955Z" fill="#FC3F1D"/>
<path fill-rule="evenodd" clip-rule="evenodd" d="M36.8376 18.853H33.7677C28.1004 18.853 25.2667 21.6615 25.2667 25.6402C25.2667 30.3211 27.3919 32.4275 31.4063 35.236L34.7123 37.5764L25.2667 52.087H17.9463L26.6835 39.2147C21.7245 35.7041 18.8909 32.1934 18.8909 26.3424C18.8909 18.853 24.086 13.9381 34.0039 13.9381H43.6857V52.3211H36.8376V18.853Z" fill="white"/>
<path fill-rule="evenodd" clip-rule="evenodd" d="M102.958 0.597656C88.5531 0.597656 76.7461 12.2998 76.7461 26.5764C76.7461 33.8317 79.5798 40.1509 84.3026 44.8317C89.0254 49.5126 100.124 56.2998 100.832 63.5551C100.832 64.7253 101.777 65.4275 102.722 65.4275C103.902 65.4275 104.611 64.4913 104.611 63.5551C105.319 56.5338 116.418 49.5126 121.141 44.8317C125.863 40.1509 128.697 33.5977 128.697 26.5764C129.169 12.2998 117.362 0.597656 102.958 0.597656Z" fill="#FF4433"/>
<path fill-rule="evenodd" clip-rule="evenodd" d="M102.958 35.7041C107.917 35.7041 112.167 31.7253 112.167 26.5764C112.167 21.6615 108.153 17.4487 102.958 17.4487C97.9986 17.4487 93.748 21.4275 93.748 26.5764C93.748 31.4913 97.9986 35.7041 102.958 35.7041Z" fill="white"/>
<path fill-rule="evenodd" clip-rule="evenodd" d="M301.789 49.9806H298.01V38.7466H302.025C305.567 38.7466 307.692 40.3849 307.692 44.3636C307.692 48.3423 305.567 49.9806 301.789 49.9806ZM319.499 21.1934V56.2998H328V21.1934H319.499ZM289.509 21.1934V56.2998H302.261C310.526 56.2998 316.43 52.087 316.43 43.8955C316.43 36.1721 311.234 31.9593 302.497 31.9593H298.01V21.1934H289.509ZM284.55 27.9806V21.1934H256.45V27.7466H266.368V56.2998H274.869V27.9806H284.55ZM239.211 50.6828C234.725 50.6828 232.599 47.1721 232.599 38.9806C232.599 30.7891 234.961 27.2785 239.684 27.2785C244.17 27.2785 246.532 30.7891 246.532 38.9806C246.532 46.9381 243.934 50.6828 239.211 50.6828ZM231.891 21.1934H224.098V66.5976H232.599V52.3211C234.725 55.3636 237.795 57.2359 241.337 57.2359C249.602 57.2359 255.269 50.6828 255.269 38.9806C255.269 27.2785 249.838 20.7253 241.809 20.7253C237.795 20.7253 234.489 22.5976 232.363 25.8742L231.891 21.1934ZM208.985 48.1083C207.805 49.7466 205.915 50.9168 203.082 50.9168C199.54 50.9168 197.887 49.0445 197.887 46.0019C197.887 42.0232 200.72 40.6189 208.041 40.6189H209.221V48.1083H208.985ZM217.25 32.4274C217.25 24.0019 212.764 20.7253 204.026 20.7253C198.359 20.7253 194.108 22.3636 191.511 24.0019V31.0232C193.872 29.3849 198.595 27.5125 203.082 27.5125C207.096 27.5125 208.985 28.9168 208.985 32.6615V34.5338H207.568C194.817 34.5338 189.149 38.7466 189.149 45.7679C189.149 52.7891 193.4 56.7679 200.012 56.7679C204.971 56.7679 207.096 55.1296 208.749 53.4913H209.221C209.221 54.4274 209.694 55.5976 209.93 56.2998H218.195C217.959 53.4913 217.723 50.6828 217.723 47.6402V32.4274H217.25ZM178.759 56.5338H188.677L171.203 31.0232L187.024 7.85297H178.287L163.174 30.3211V7.85297H154.673V56.5338H163.174V33.8317L178.759 56.5338Z" fill="black"/>
</svg>
