<svg width="404" height="74" viewBox="0 0 404 74" fill="none" xmlns="http://www.w3.org/2000/svg">
<path fill-rule="evenodd" clip-rule="evenodd" d="M241.782 44.0245L255.269 38.4211C254.52 36.5316 252.305 35.2285 249.666 35.2285C246.294 35.2122 241.619 38.193 241.782 44.0245V44.0245ZM257.615 49.4486L262.762 52.8693C261.101 55.3289 257.11 59.564 250.187 59.564C241.619 59.564 235.43 52.9345 235.43 44.4805C235.43 35.5054 241.668 29.3971 249.454 29.3971C256.605 29.6414 261.052 34.2511 263.055 40.7015L242.857 49.0414C244.405 52.0711 246.799 53.6186 250.171 53.6186C253.527 53.6186 255.872 51.9571 257.582 49.4486H257.615ZM224.842 58.6518H231.471V14.3462H224.842V58.6518ZM214.026 44.5294C214.026 39.2192 210.475 35.3262 205.963 35.3262C201.402 35.3262 197.558 39.2192 197.558 44.5294C197.558 49.7907 201.386 53.6186 205.963 53.6186C210.491 53.6186 214.026 49.7907 214.026 44.5294ZM219.858 30.3093V57.3487C219.858 68.4903 213.293 73.0674 205.523 73.0674C198.21 73.0674 193.812 68.1482 192.15 64.1574L197.916 61.763C198.943 64.2226 201.467 67.1383 205.523 67.1383C212.935 66.2962 213.586 61.5024 213.586 56.1108H213.342C211.86 57.9351 208.993 59.5477 205.393 59.5477C197.851 59.5477 190.929 52.9833 190.929 44.5131C190.929 35.9941 197.835 29.3645 205.393 29.3645C208.993 29.3645 211.86 30.9608 213.342 32.7363H213.57V30.2767C213.57 30.2604 219.858 30.2604 219.858 30.2604V30.3093ZM147.535 44.4805C147.535 39.0564 143.658 35.3425 139.179 35.3425C134.683 35.3425 130.823 39.0564 130.823 44.4805C130.823 49.8559 134.7 53.6186 139.179 53.6186C143.658 53.6186 147.535 49.8396 147.535 44.4805ZM154.051 44.4805C154.051 53.1625 147.372 59.564 139.179 59.564C130.986 59.564 124.307 53.1625 124.307 44.4805C124.307 35.7334 130.986 29.3971 139.179 29.3971C147.372 29.3971 154.051 35.7334 154.051 44.4805ZM180.927 44.4805C180.927 39.0564 177.05 35.3425 172.571 35.3425C168.075 35.3425 164.215 39.0564 164.215 44.4805C164.215 49.8559 168.092 53.6186 172.571 53.6186C177.05 53.6186 180.927 49.8396 180.927 44.4805ZM187.443 44.4805C187.443 53.1625 180.764 59.564 172.571 59.564C164.378 59.564 157.699 53.1625 157.699 44.4805C157.699 35.7334 164.378 29.3971 172.571 29.3971C180.764 29.3971 187.443 35.7334 187.443 44.4805ZM98.8315 59.564C85.9307 59.564 75.0498 49.0414 75.0498 36.1081C75.0498 23.191 85.9145 12.6522 98.8315 12.6522C105.982 12.6522 111.064 15.4538 114.892 19.1188L110.38 23.6308C107.644 21.0572 103.93 19.0537 98.8315 19.0537C89.4003 19.0537 82.054 26.6605 82.054 35.994C82.054 45.4253 89.4328 52.9344 98.8315 52.9344C104.94 52.9344 108.426 50.4748 110.657 48.2433C112.482 46.4189 113.687 43.7801 114.143 40.1803H98.8315V33.7788H120.333C120.561 34.919 120.675 36.2872 120.675 37.7695C120.675 42.5747 119.355 48.5202 115.137 52.739C111.032 57.0555 105.771 59.3522 98.8478 59.3522" fill="#5F6368"/>
<path d="M278.619 58.3161V18.9287H283.706L297.385 42.9186H297.591L311.27 18.9287H316.357V58.3161H311.272L311.478 28.346H311.272L298.967 49.9299H296.012L283.707 28.346H283.501C283.877 38.3147 283.707 48.349 283.707 58.3161H278.619ZM332.235 59.0035C329.348 59.0035 327.011 58.1786 325.087 56.5289C323.162 54.8791 322.2 52.6795 322.2 49.9971C322.2 47.0413 323.368 44.7729 325.637 43.1232C327.905 41.4734 330.723 40.6486 334.023 40.6486C336.978 40.6486 339.453 41.1985 341.309 42.2983C341.26 36.5809 337.308 35.012 334.229 35.012C331.321 35.1501 328.799 36.3661 327.767 38.9301L323.162 36.9367C323.781 35.3557 325.018 33.8418 326.874 32.4686C328.73 31.0955 331.136 30.4065 334.16 30.4065C337.597 30.4065 340.484 31.4376 342.753 33.431C345.021 35.4244 346.189 38.3114 346.189 41.9546V58.2457H341.378V54.5338C339.13 57.3521 336.092 58.9399 332.235 59.0018V59.0035ZM341.309 46.493C338.346 44.2383 332.167 43.9565 329.28 46.2868C327.011 48.4864 326.771 51.4354 329.142 53.1607C334.875 56.8382 341.515 51.1122 341.309 46.493ZM365.917 59.0035C363.855 59.0035 361.999 58.5911 360.418 57.6974C358.837 56.8038 357.6 55.704 356.775 54.398H356.5L356.706 58.1099V70.0017H351.689V31.1642H356.5V34.8761H356.706C357.531 33.5701 358.7 32.4703 360.35 31.5767C361.999 30.6831 363.855 30.2706 365.849 30.2706C369.354 30.2706 372.31 31.6454 374.854 34.395C377.397 37.1445 378.633 40.5815 378.633 44.6371C378.633 48.6926 377.395 52.1296 374.854 54.8792C372.379 57.6287 369.354 59.0035 365.917 59.0035V59.0035ZM365.093 54.3292C367.43 54.3292 369.423 53.4356 371.142 51.6484C372.86 49.8612 373.685 47.5241 373.685 44.5683C373.685 41.6125 372.86 39.2754 371.142 37.4882C369.423 35.701 367.43 34.8074 365.093 34.8074C362.687 34.8074 360.693 35.701 359.044 37.4195C357.394 39.2067 356.569 41.5438 356.569 44.4996C356.569 47.4553 357.394 49.8612 359.044 51.5797C360.693 53.5044 362.687 54.3292 365.093 54.3292ZM393.413 59.0035C390.389 59.0035 387.914 58.2474 385.989 56.8038C383.996 55.3603 382.621 53.5044 381.659 51.3047L386.195 49.4488C387.639 52.817 390.045 54.5355 393.482 54.5355C395.063 54.5355 396.369 54.1934 397.331 53.5044C398.362 52.817 398.843 51.9234 398.843 50.7548C398.843 48.9676 397.606 47.799 395.132 47.1804L389.701 45.8744C387.983 45.4619 386.333 44.5683 384.821 43.3998C383.308 42.2312 382.484 40.5127 382.484 38.4506C382.484 36.0447 383.515 34.12 385.646 32.6765C387.776 31.1642 390.251 30.4768 393.138 30.4768C395.544 30.4768 397.675 31.0268 399.531 32.1266C401.387 33.2264 402.762 34.7387 403.518 36.8008L399.118 38.588C398.156 36.1822 396.094 35.0136 392.932 35.0136C391.42 35.0136 390.182 35.3557 389.153 35.976C388.123 36.5962 387.641 37.4195 387.641 38.5193C387.641 40.0316 388.809 41.1314 391.215 41.6813L396.577 42.9186C399.12 43.5372 400.976 44.4996 402.213 45.9431C403.451 47.3866 404 48.9676 404 50.7548C404 53.1607 403.038 55.2229 401.045 56.8038C399.12 58.1786 396.577 59.0035 393.415 59.0035H393.413Z" fill="#63666A"/>
<path d="M14.0088 54.6744C16.2613 57.4915 18.5554 61.0337 19.7559 63.1732C21.2179 65.9547 21.8242 67.8327 22.9118 71.1966C23.5477 73.039 24.1539 73.5977 25.4258 73.5977C26.8165 73.5977 27.4524 72.6587 27.9398 71.1966C28.9561 68.0408 29.7406 65.6397 30.9827 63.3515C35.773 54.3178 43.5824 47.8991 47.9804 39.1031C47.9804 39.1031 50.8747 33.7304 50.8747 26.2063C50.8747 19.1932 48.022 14.3198 48.022 14.3198L14.0266 54.7338L14.0088 54.6744Z" fill="#34A853"/>
<path d="M2.4791 38.1513C5.21894 44.3917 10.4431 49.8595 14.009 54.6735L32.9085 32.2675C32.9085 32.2675 30.24 35.7621 25.42 35.7621C20.0473 35.7621 15.6731 31.483 15.6731 26.0746C15.6731 22.3541 17.8899 19.7748 17.8899 19.7748C3.98274 21.843 4.75537 25.2128 2.4375 38.1394L2.4791 38.1513Z" fill="#FBBC04"/>
<path d="M33.1451 1.76056C39.445 3.78721 44.7939 8.0604 48.0032 14.3008L32.9074 32.3088C32.9074 32.3088 35.1242 29.7176 35.1242 26.009C35.1242 20.4877 30.4647 16.3215 25.4367 16.3215C20.6643 16.3215 17.9482 19.7745 17.9482 19.7745C19.1072 17.1357 31.0828 2.65799 33.163 1.7665L33.1451 1.76056Z" fill="#4285F4"/>
<path d="M5.92578 9.68344C9.68191 5.21412 16.267 0.590271 25.3602 0.590271C29.7523 0.590271 33.0864 1.75515 33.0864 1.75515L17.9311 19.7632C16.9089 19.2087 6.93613 11.4426 5.92578 9.65966V9.68344Z" fill="#1A73E8"/>
<path d="M2.47833 38.1514C2.47833 38.1514 0 33.2304 0 26.146C0 19.4302 2.62691 13.5464 5.94325 9.74268L17.9486 19.8462L2.49616 38.1514H2.47833Z" fill="#EA4335"/>
</svg>
