<svg width="771" height="806" viewBox="0 0 771 806" fill="none" xmlns="http://www.w3.org/2000/svg">
<path fill-rule="evenodd" clip-rule="evenodd" d="M69.6614 475.234C111.973 516.358 174.371 563.8 257.67 627.13C340.968 690.46 403.369 737.9 454.309 767.674C505.251 797.448 544.536 809.435 581.64 802.127C604.122 797.699 625.47 788.745 644.384 775.81C675.599 754.462 694.579 718.037 709.037 660.832C723.496 603.627 733.383 525.867 746.579 422.064C759.776 318.26 769.659 240.5 769.974 181.497C770.289 122.493 761.027 82.4779 736.146 53.9987C721.07 36.7422 702.642 22.7319 681.983 12.8194C647.887 -3.53974 606.853 -1.76418 550.082 14.317C493.312 30.398 421.026 60.7154 324.531 101.189C228.037 141.662 155.753 171.983 104.497 201.212C53.2411 230.441 23.218 258.47 10.9946 294.257C3.58809 315.941 0.668714 338.905 2.41396 361.753C5.29417 399.46 27.3492 434.109 69.6614 475.234ZM682.415 11.9178C613.554 -21.1224 517.084 19.3406 324.145 100.267C131.205 181.193 34.7355 221.656 10.0483 293.933C2.59795 315.746 -0.338721 338.846 1.41684 361.829C7.23399 437.985 90.5108 501.299 257.064 627.926C423.618 754.554 506.895 817.868 581.833 803.108C604.449 798.654 625.922 789.647 644.948 776.635C707.993 733.52 721.186 629.743 747.571 422.19C773.957 214.636 787.15 110.86 736.899 53.3408C721.734 35.9822 703.197 21.889 682.415 11.9178Z" fill="#005CD3"/>
</svg>
