<svg width="1668" height="1549" viewBox="0 0 1668 1549" fill="none" xmlns="http://www.w3.org/2000/svg">
<path opacity="0.2" fill-rule="evenodd" clip-rule="evenodd" d="M336.573 17.741C457.171 3.06274 618.568 3.05908 834.018 3.05908C1049.47 3.05908 1210.87 3.06274 1331.46 17.741C1452.06 32.4194 1531.39 61.7281 1583.1 119.943C1614.43 155.218 1638.27 196.496 1653.15 241.268C1677.71 315.157 1663.43 398.512 1615.84 510.294C1568.25 622.074 1487.56 761.849 1379.83 948.435C1272.11 1135.02 1191.4 1274.79 1118.39 1371.89C1045.38 1469 980.336 1523.04 904.065 1538.72C857.85 1548.22 810.187 1548.22 763.971 1538.72C687.701 1523.04 622.655 1469 549.643 1371.89C476.632 1274.79 395.93 1135.02 288.205 948.435C180.48 761.849 99.7847 622.074 52.1973 510.294C4.60918 398.512 -9.67282 315.157 14.8883 241.268C29.7706 196.496 53.6024 155.218 84.935 119.943C136.645 61.7281 215.973 32.4194 336.573 17.741ZM763.557 1540.74C609.515 1509.08 501.817 1322.54 286.422 949.465C71.0266 576.389 -36.671 389.851 12.9344 240.618C27.9048 195.581 51.8776 154.059 83.3955 118.576C187.832 1.00012 403.228 1.00012 834.018 1.00012C1264.81 1.00012 1480.2 1.00012 1584.64 118.576C1616.16 154.059 1640.13 195.581 1655.1 240.618C1704.71 389.851 1597.01 576.389 1381.61 949.465C1166.22 1322.54 1058.52 1509.08 904.479 1540.74C857.991 1550.29 810.045 1550.29 763.557 1540.74Z" fill="#C4C4C4" stroke="#C4C4C4" stroke-width="1.2"/>
</svg>
