<svg width="67" height="42" viewBox="0 0 67 42" fill="none" xmlns="http://www.w3.org/2000/svg">
<path d="M0 2C0 0.89543 0.895431 0 2 0H65C66.1046 0 67 0.895431 67 2V40C67 41.1046 66.1046 42 65 42H2C0.895429 42 0 41.1046 0 40V2Z" fill="#AFD7F1"/>
<path fill-rule="evenodd" clip-rule="evenodd" d="M3 21.5072V29.9942H5.81613H8.63227V25.033C8.63227 22.3044 8.69246 20.1091 8.76586 20.1547C8.83925 20.2003 9.57198 22.4342 10.3939 25.1189L11.8884 30L14.085 29.9528L16.2816 29.9058L17.7812 25.002C18.606 22.3051 19.3403 20.0971 19.4128 20.0955C19.4853 20.0939 19.5448 22.3205 19.5448 25.0434V29.9942H22.3609H25.1771V21.4971V13L21.5826 13.0543C16.7836 13.1268 17.1729 12.7588 15.4005 18.8963C14.7816 21.0395 14.2334 22.8352 14.182 22.8868C13.9896 23.0799 13.8441 22.6686 12.7642 18.8815C10.9976 12.6851 11.3585 13.0202 6.4554 13.0202H3V21.5072ZM27.2892 21.5072V29.9942L30.3253 29.9935C34.6995 29.9926 34.3061 30.326 36.98 24.3542C38.0023 22.0714 38.933 20.1719 39.0481 20.1333C39.2069 20.0803 39.2577 21.2671 39.2577 25.0287V29.9942H42.1619H45.066V21.5072V13.0202L42.0299 13.0209C37.7155 13.0217 38.1784 12.6163 35.3639 18.8592C34.3594 21.0874 33.4385 22.913 33.3174 22.916C33.1465 22.9204 33.0974 21.8166 33.0974 17.9709V13.0202H30.1933H27.2892V21.5072ZM46.8963 13.7656C47.2353 15.9606 49.1207 18.4891 51.1721 19.5003L52.1943 20.0043L58.5972 20.0568L65 20.1093L64.9196 18.6423C64.7902 16.2841 63.6569 14.5469 61.6108 13.5706L60.6427 13.1086L53.711 13.0583L46.7793 13.0083L46.8963 13.7656ZM47.1195 21.0947C47.0549 21.1594 47.0021 23.1883 47.0021 25.6034V29.9942H49.8182H52.6344V27.534V25.0738L56.3844 25.0144L60.1344 24.955L61.4772 24.2881C62.8941 23.5842 64.0682 22.465 64.4035 21.4985L64.5846 20.9767H55.9108C51.14 20.9767 47.1839 21.0298 47.1195 21.0947Z" fill="white"/>
</svg>
