<svg width="67" height="43" viewBox="0 0 67 43" fill="none" xmlns="http://www.w3.org/2000/svg">
<path d="M3.11757 6.8956e-05C1.39635 6.8956e-05 0 1.42633 0 3.1861V39.814C0 41.5735 1.39655 43 3.11757 43H63.8824C65.6037 43 67 41.5737 67 39.814V3.18604C67 1.42653 65.6035 0 63.8824 0H3.11751L3.11757 6.8956e-05ZM21.9697 5.17608C25.7941 5.17608 29.3065 6.53585 32.0636 8.80718C29.744 10.9284 28.0137 13.7152 27.1601 16.874H28.498C29.2859 14.2681 30.7173 11.948 32.6038 10.1081C34.4904 11.948 35.9217 14.2681 36.7097 16.874H38.0686C37.2031 13.7318 35.4704 10.9616 33.1524 8.85429C35.9148 6.55413 39.4411 5.17601 43.282 5.17601C52.1454 5.17601 59.3305 12.5197 59.3305 21.5792C59.3305 30.6387 52.1454 37.9824 43.282 37.9824C39.3772 37.9824 35.7967 36.558 33.0142 34.1886C35.5033 31.9756 37.3383 29.0089 38.1774 25.634H36.8687C36.1236 28.4666 34.6239 30.986 32.6038 32.9562C30.5837 30.986 29.0861 28.4666 28.3409 25.634H27.0951C27.9392 28.96 29.7502 31.8852 32.2018 34.0774C29.4244 36.4175 25.858 37.824 21.9696 37.824C13.1062 37.824 5.92112 30.5156 5.92112 21.5C5.92112 12.4844 13.1062 5.17608 21.9697 5.17608V5.17608ZM42.078 16.707C40.1497 16.707 38.2737 18.4299 38.2737 21.6648C38.2737 23.8098 39.287 25.2253 41.2803 25.2253C41.8439 25.2255 42.7418 24.9899 42.7418 24.9899L43.0391 23.1155C43.0391 23.1155 42.2197 23.5392 41.6572 23.5392C40.4723 23.5392 39.9969 22.6079 39.9969 21.6071C39.9969 19.5767 41.0164 18.4594 42.1513 18.4594C43.0024 18.4594 43.686 18.9516 43.686 18.9516L43.9583 17.1286C43.9583 17.1286 42.9463 16.707 42.078 16.707H42.078ZM58.2899 16.8654L56.6129 16.8697L56.2527 19.125C56.2527 19.125 55.6223 18.2498 54.6364 18.2498C53.1034 18.2498 51.8265 20.1108 51.8265 22.2511C51.8265 23.6326 52.5061 24.9878 53.8994 24.9878C54.9016 24.9878 55.4571 24.2839 55.4571 24.2839L55.3838 24.885H57.0128L58.2899 16.8654ZM10.2551 16.8889L8.91937 24.9278H10.5294L11.547 18.8661L11.6978 24.9278H12.8493L14.9975 18.8661L14.0449 24.9278H15.7554L17.0745 16.8889H14.428L12.7802 21.821L12.6944 16.889H10.2552L10.2551 16.8889ZM27.0763 17.411C27.04 17.4483 26.1028 22.9713 26.1028 23.644C26.1028 24.64 26.649 25.0848 27.4176 25.0777C27.9684 25.0729 28.3949 24.9315 28.5922 24.8722C28.6129 24.8666 28.6529 24.8551 28.6529 24.8551L28.8602 23.4172C28.7475 23.4172 28.5815 23.4665 28.4352 23.4665C27.8613 23.4665 27.7977 23.1544 27.8343 22.9229L28.297 19.9894H29.1701L29.3815 18.3995H28.5587L28.7262 17.411H27.0763V17.411ZM46.5378 18.2199C45.414 18.2199 44.5529 18.5986 44.5529 18.5986L44.3142 20.075C44.3142 20.075 45.0254 19.7733 46.1002 19.7733C46.7104 19.7733 47.1574 19.8446 47.1574 20.3638C47.1574 20.6792 47.103 20.7961 47.103 20.7961C47.103 20.7961 46.6205 20.7533 46.3975 20.7533C44.9803 20.7533 43.4913 21.388 43.4913 23.2974C43.4913 24.8019 44.4688 25.1461 45.0742 25.1461C46.2305 25.1461 46.7291 24.3611 46.7555 24.3587L46.701 25.0135H48.1437L48.7885 20.289C48.7887 18.2843 47.118 18.2198 46.5378 18.2198V18.2199ZM19.476 18.2284C18.3481 18.2284 17.4828 18.6071 17.4828 18.6071L17.2441 20.0836C17.2441 20.0836 17.9577 19.7818 19.0364 19.7818C19.6489 19.7818 20.0979 19.8534 20.0979 20.3724C20.0979 20.6876 20.0434 20.8046 20.0434 20.8046C20.0434 20.8046 19.5595 20.7618 19.3358 20.7618C17.9132 20.7618 16.4192 21.3955 16.4192 23.3038C16.4192 24.8075 17.3986 25.1526 18.0062 25.1526C19.1667 25.1526 19.6672 24.3675 19.6938 24.3651L19.6394 25.0199H21.0882L21.7352 20.2975C21.7352 18.294 20.0584 18.2283 19.476 18.2283V18.2284ZM24.5931 18.2284C23.382 18.2284 22.1519 18.728 22.1519 20.4345C22.1519 22.368 24.2016 22.1726 24.2016 22.9871C24.2016 23.5308 23.6296 23.5756 23.1883 23.5756C22.4245 23.5756 21.7377 23.3059 21.7352 23.3188L21.5154 24.7952C21.5549 24.8077 21.9802 25.0028 23.3537 25.0028C23.7225 25.0028 25.8306 25.0985 25.8306 22.8545C25.8306 20.7566 23.8792 21.1724 23.8792 20.3296C23.8792 19.91 24.196 19.7776 24.7774 19.7776C25.0083 19.7776 25.8976 19.8525 25.8976 19.8525L26.1028 18.361C26.1028 18.3612 25.5289 18.2284 24.5932 18.2284H24.5931ZM32.1641 18.2284C30.4811 18.2288 29.235 20.0783 29.235 22.1676C29.235 24.5791 30.7963 25.1526 32.1265 25.1526C33.3543 25.1526 33.8957 24.8722 33.8957 24.8722L34.1888 23.2268C34.1888 23.2268 33.2547 23.6462 32.4112 23.6462C30.6139 23.6462 30.9288 22.2789 30.9288 22.2789H34.3312C34.3312 22.2789 34.5511 21.1739 34.5511 20.7233C34.5511 19.599 34.002 18.2284 32.1642 18.2284H32.1641ZM38.2591 18.299C37.5009 18.299 36.9379 19.3411 36.9379 19.3411L37.0886 18.3846H35.5141L34.4569 24.9878H36.1967C36.6895 22.168 36.7795 19.8784 37.9555 20.2975C38.1613 19.2061 38.361 18.7845 38.5857 18.3226C38.5857 18.3226 38.4801 18.299 38.259 18.299H38.2591ZM52.3562 18.299C51.5981 18.299 51.0351 19.3411 51.0351 19.3411L51.1859 18.3846H49.6114L48.554 24.9878H50.2918C50.7848 22.168 50.8771 19.8784 52.0527 20.2975C52.2589 19.2061 52.4584 18.7845 52.6829 18.3226C52.6829 18.3226 52.5773 18.299 52.3563 18.299H52.3562ZM32.1557 19.7177C33.1116 19.7177 32.9368 20.8203 32.9368 20.9095H31.0545C31.0545 20.7957 31.2326 19.7177 32.1558 19.7177H32.1557ZM54.9002 19.846C55.5086 19.8458 55.8215 20.2658 55.8215 21.254C55.8215 22.1505 55.379 23.3488 54.4626 23.3488C53.8543 23.3488 53.5685 22.8354 53.5685 22.0307C53.5685 20.7148 54.1576 19.846 54.9001 19.846H54.9002ZM46.5398 22.0927C46.788 22.0931 46.8393 22.1177 46.8811 22.1291C46.8751 22.1281 46.874 22.1293 46.8979 22.1334C46.9293 22.4275 46.724 23.8067 45.7316 23.8067C45.2199 23.8067 45.0889 23.3909 45.0889 23.1455C45.0889 22.667 45.3326 22.0927 46.5398 22.0927ZM19.4782 22.0992C19.76 22.0995 19.7908 22.1317 19.8383 22.1398C19.8698 22.4338 19.6637 23.8109 18.6679 23.8109C18.1542 23.8109 18.0209 23.3971 18.0209 23.1519C18.0209 22.6737 18.2661 22.0992 19.4782 22.0992Z" fill="#AFD7F1"/>
</svg>
