<svg width="68" height="45" viewBox="0 0 68 45" fill="none" xmlns="http://www.w3.org/2000/svg">
<path d="M58.2899 25.2539H54.217C54.4925 24.5312 55.1418 22.7832 56.1649 20.0098L56.2535 19.7461C56.3322 19.5508 56.4306 19.2969 56.5486 18.9844C56.6667 18.6719 56.7552 18.418 56.8142 18.2227L57.1684 19.834L58.2899 25.2539ZM15.6719 23.3496L13.9601 14.707C13.7436 13.6523 13.0058 13.125 11.7465 13.125H3.83681L3.77778 13.5059C9.89699 15.0488 13.8617 18.3301 15.6719 23.3496ZM20.9549 13.125L16.1736 25.957L15.6719 23.3496C15.1603 21.9824 14.3241 20.7178 13.1632 19.5557C12.0023 18.3936 10.7135 17.5293 9.29688 16.9629L13.2812 31.9043H18.4462L26.1493 13.125H20.9549ZM25.0573 31.9336H29.9566L33.026 13.125H28.1267L25.0573 31.9336ZM47.724 13.5938C46.3663 13.0664 44.9005 12.8027 43.3264 12.8027C40.9063 12.8027 38.9288 13.3789 37.3941 14.5312C35.8594 15.6836 35.0822 17.1777 35.0625 19.0137C35.0428 21.0059 36.4693 22.7051 39.342 24.1113C40.2865 24.5605 40.9456 24.9609 41.3194 25.3125C41.6933 25.6641 41.8802 26.0449 41.8802 26.4551C41.8802 27.041 41.5851 27.4902 40.9948 27.8027C40.4045 28.1152 39.7257 28.2715 38.9583 28.2715C37.2662 28.2715 35.7315 27.9492 34.3542 27.3047L33.7049 26.9824L33.026 31.2012C34.4821 31.8652 36.3021 32.1973 38.4861 32.1973C41.044 32.2168 43.0952 31.6406 44.6398 30.4688C46.1843 29.2969 46.9763 27.7344 47.0156 25.7812C47.0156 23.7109 45.6383 22.0117 42.8837 20.6836C41.9196 20.1953 41.2211 19.7852 40.7882 19.4531C40.3553 19.1211 40.1389 18.75 40.1389 18.3398C40.1389 17.9102 40.3799 17.5342 40.862 17.2119C41.344 16.8896 42.0376 16.7285 42.9427 16.7285C44.32 16.709 45.5399 16.9434 46.6024 17.4316L47.0451 17.666L47.724 13.5938ZM60.2674 13.125H56.4896C55.2106 13.125 54.3547 13.6523 53.9219 14.707L46.6615 31.9336H51.7969L52.8299 29.1211H59.0868C59.1852 29.5508 59.3819 30.4883 59.6771 31.9336H64.2222L60.2674 13.125ZM68 3.75V41.25C68 42.2656 67.6262 43.1445 66.8785 43.8867C66.1308 44.6289 65.2454 45 64.2222 45H3.77778C2.75463 45 1.86921 44.6289 1.12153 43.8867C0.373843 43.1445 0 42.2656 0 41.25V3.75C0 2.73438 0.373843 1.85547 1.12153 1.11328C1.86921 0.371094 2.75463 0 3.77778 0H64.2222C65.2454 0 66.1308 0.371094 66.8785 1.11328C67.6262 1.85547 68 2.73438 68 3.75Z" fill="#AFD7F1"/>
</svg>
