<svg width="69" height="44" viewBox="0 0 69 44" fill="none" xmlns="http://www.w3.org/2000/svg">
<path d="M34.2204 30.5257C36.4465 30.5257 38.5815 29.6414 40.1556 28.0672C41.7297 26.4931 42.6141 24.3581 42.6141 22.132C42.6141 19.9058 41.7297 17.7709 40.1556 16.1967C38.5815 14.6226 36.4465 13.7383 34.2204 13.7383C31.9942 13.7383 29.8592 14.6226 28.2851 16.1967C26.711 17.7709 25.8267 19.9058 25.8267 22.132C25.8267 24.3581 26.711 26.4931 28.2851 28.0672C29.8592 29.6414 31.9942 30.5257 34.2204 30.5257V30.5257Z" fill="#AFD7F1"/>
<path d="M0 5.08662C0 3.95642 0.450671 2.87251 1.25287 2.07334C2.05507 1.27416 3.14308 0.825195 4.27756 0.825195H64.1634C65.2979 0.825195 66.3859 1.27416 67.1881 2.07334C67.9903 2.87251 68.441 3.95642 68.441 5.08662V39.178C68.441 40.3082 67.9903 41.3921 67.1881 42.1913C66.3859 42.9904 65.2979 43.4394 64.1634 43.4394H4.27756C3.14308 43.4394 2.05507 42.9904 1.25287 42.1913C0.450671 41.3921 0 40.3082 0 39.178V5.08662ZM12.8327 5.08662C12.8327 7.34701 11.9313 9.51483 10.327 11.1132C8.72255 12.7115 6.54652 13.6095 4.27756 13.6095V30.6551C6.54652 30.6551 8.72255 31.5531 10.327 33.1514C11.9313 34.7498 12.8327 36.9176 12.8327 39.178H55.6083C55.6083 36.9176 56.5097 34.7498 58.1141 33.1514C59.7185 31.5531 61.8945 30.6551 64.1634 30.6551V13.6095C61.8945 13.6095 59.7185 12.7115 58.1141 11.1132C56.5097 9.51483 55.6083 7.34701 55.6083 5.08662H12.8327Z" fill="#AFD7F1"/>
</svg>
