<svg width="167" height="29" viewBox="0 0 167 29" fill="none" xmlns="http://www.w3.org/2000/svg">
<path d="M14.5186 22.66H14.6886C15.2326 22.66 15.5046 22.4106 15.5046 21.912C15.5046 21.7306 15.4706 21.538 15.4026 21.334L12.3426 13.072H6.39256L3.43456 21.198C3.36656 21.3793 3.33256 21.5493 3.33256 21.708C3.33256 22.0026 3.4119 22.2406 3.57056 22.422C3.72923 22.5806 3.89923 22.66 4.08056 22.66H4.25056V23H0.476562V22.66H0.646563C0.941229 22.66 1.22456 22.49 1.49656 22.15C1.79123 21.7873 2.02923 21.368 2.21056 20.892L9.99656 0.151978L17.6126 20.688C17.7712 21.1413 17.9866 21.5833 18.2586 22.014C18.5532 22.4446 18.9272 22.66 19.3806 22.66H19.5506V23H14.5186V22.66ZM6.73256 11.916H11.9686L9.35056 4.80998L6.73256 11.916Z" fill="#B79F56"/>
<path d="M35.2533 20.79C35.2533 20.9713 35.2759 21.1753 35.3213 21.402C35.3666 21.606 35.4346 21.7986 35.5252 21.98C35.6386 22.1613 35.7519 22.32 35.8652 22.456C36.0012 22.592 36.1599 22.66 36.3412 22.66V23H31.9553V22.66C32.1139 22.66 32.2612 22.592 32.3972 22.456C32.5332 22.32 32.6466 22.1613 32.7372 21.98C32.8506 21.7986 32.9299 21.606 32.9753 21.402C33.0206 21.1753 33.0433 20.9713 33.0433 20.79V14.466C33.0433 13.65 32.9299 12.936 32.7032 12.324C32.4766 11.712 32.1706 11.202 31.7853 10.794C31.3999 10.386 30.9579 10.0913 30.4593 9.90998C29.9833 9.70598 29.4959 9.60398 28.9973 9.60398C28.4986 9.60398 27.9999 9.70598 27.5013 9.90998C27.0253 10.114 26.5946 10.386 26.2093 10.726C25.8466 11.0433 25.5406 11.4286 25.2913 11.882C25.0646 12.3126 24.9513 12.766 24.9513 13.242V20.79C24.9513 20.9713 24.9739 21.1753 25.0193 21.402C25.0646 21.606 25.1326 21.7986 25.2233 21.98C25.3366 22.1613 25.4499 22.32 25.5632 22.456C25.6992 22.592 25.8579 22.66 26.0393 22.66V23H21.6192V22.66C21.7779 22.66 21.9253 22.592 22.0613 22.456C22.1973 22.32 22.3106 22.1613 22.4013 21.98C22.5146 21.7986 22.5939 21.606 22.6392 21.402C22.6846 21.1753 22.7073 20.9713 22.7073 20.79V11.406C22.7073 11.0206 22.6506 10.658 22.5373 10.318C22.4239 9.95531 22.0953 9.76265 21.5513 9.73998V9.43398L24.9513 8.34598V10.216C25.1099 10.0346 25.3139 9.84198 25.5632 9.63798C25.8126 9.41131 26.1073 9.20731 26.4473 9.02598C26.8099 8.82198 27.2179 8.66331 27.6713 8.54998C28.1473 8.41398 28.7026 8.34598 29.3372 8.34598C30.4026 8.34598 31.3092 8.52731 32.0572 8.88998C32.8052 9.25265 33.4172 9.72864 33.8932 10.318C34.3693 10.8846 34.7093 11.5193 34.9132 12.222C35.1399 12.902 35.2533 13.5706 35.2533 14.228V20.79Z" fill="#B79F56"/>
<path d="M43.013 9.87598V18.07C43.013 18.6593 43.0243 19.192 43.047 19.668C43.0696 20.144 43.1263 20.5406 43.217 20.858C43.3076 21.1753 43.4436 21.4246 43.625 21.606C43.8063 21.7646 44.0556 21.844 44.373 21.844C44.849 21.844 45.291 21.6173 45.699 21.164C46.1296 20.7106 46.4016 20.1666 46.5149 19.532H46.821V22.014C46.617 22.014 46.447 22.082 46.311 22.218C46.1296 22.3766 45.8689 22.5466 45.5289 22.728C45.2116 22.9093 44.7243 23 44.067 23C43.251 23 42.6163 22.8413 42.163 22.524C41.7096 22.2066 41.381 21.7873 41.177 21.266C40.973 20.7446 40.8483 20.1666 40.803 19.532C40.7803 18.8973 40.769 18.2513 40.769 17.594V9.87598H38.865V8.71998H40.769V5.69398C40.769 5.30865 40.7123 4.95731 40.599 4.63998C40.5083 4.29998 40.1796 4.11865 39.613 4.09598V3.75598L43.013 2.66798V8.71998H46.821V9.87598H43.013Z" fill="#B79F56"/>
<path d="M49.8523 23V22.66C50.0336 22.66 50.1923 22.592 50.3283 22.456C50.4643 22.32 50.5776 22.1613 50.6683 21.98C50.7589 21.7986 50.8269 21.606 50.8723 21.402C50.9176 21.1753 50.9403 20.9713 50.9403 20.79V11.372C50.9403 10.9866 50.8836 10.624 50.7703 10.284C50.6569 9.92131 50.3283 9.72865 49.7843 9.70598V9.39998L53.1843 8.31198V20.79C53.1843 20.9713 53.2069 21.1753 53.2523 21.402C53.2976 21.606 53.3656 21.7986 53.4563 21.98C53.5469 22.1613 53.6603 22.32 53.7963 22.456C53.9323 22.592 54.0909 22.66 54.2723 22.66V23H49.8523ZM50.0223 5.04798C50.0223 4.59465 50.1696 4.20931 50.4643 3.89198C50.7816 3.57464 51.1669 3.41598 51.6203 3.41598C52.0736 3.41598 52.4589 3.57464 52.7763 3.89198C53.0936 4.20931 53.2523 4.59465 53.2523 5.04798C53.2523 5.50131 53.0936 5.87531 52.7763 6.16998C52.4589 6.46464 52.0736 6.61198 51.6203 6.61198C51.1669 6.61198 50.7816 6.46464 50.4643 6.16998C50.1696 5.87531 50.0223 5.50131 50.0223 5.04798Z" fill="#B79F56"/>
<path d="M69.4355 0.219978C71.2035 0.219978 72.7901 0.559978 74.1955 1.23998C75.6008 1.89731 76.7908 2.76998 77.7655 3.85798C78.7628 4.92331 79.5221 6.13598 80.0435 7.49598C80.5875 8.85598 80.8595 10.2386 80.8595 11.644C80.8595 12.664 80.7575 13.6046 80.5535 14.466C80.3495 15.3273 80.0661 16.1206 79.7035 16.846C79.3408 17.5713 78.9215 18.24 78.4455 18.852C77.9921 19.4413 77.4935 19.9853 76.9495 20.484L78.0715 21.742C78.9555 22.558 79.9188 23.2833 80.9615 23.918C82.0041 24.5753 83.0581 25.1193 84.1235 25.55C85.1888 26.0033 86.2428 26.3433 87.2855 26.57C88.3281 26.7966 89.2801 26.91 90.1415 26.91C90.8895 26.91 91.6828 26.842 92.5215 26.706C93.3828 26.57 94.2441 26.366 95.1055 26.094C95.9895 25.822 96.8621 25.4593 97.7235 25.006C98.5848 24.5753 99.4008 24.054 100.171 23.442L100.375 23.748C99.6275 24.564 98.7888 25.278 97.8595 25.89C96.9301 26.5246 95.9555 27.046 94.9355 27.454C93.9155 27.862 92.8615 28.168 91.7735 28.372C90.7081 28.5986 89.6541 28.712 88.6115 28.712C87.5688 28.712 86.5261 28.6213 85.4835 28.44C84.4408 28.2586 83.3981 27.9526 82.3555 27.522C81.3128 27.0913 80.2701 26.502 79.2275 25.754C78.1848 25.0286 77.1421 24.1106 76.0995 23L74.9435 21.776C74.5581 22.0253 74.1161 22.252 73.6175 22.456C73.1415 22.6373 72.6315 22.796 72.0875 22.932C71.5435 23.068 70.9881 23.17 70.4215 23.238C69.8548 23.306 69.3221 23.34 68.8235 23.34C67.2368 23.34 65.7635 23.0226 64.4035 22.388C63.0661 21.7306 61.8988 20.8806 60.9015 19.838C59.9268 18.7726 59.1561 17.56 58.5895 16.2C58.0228 14.84 57.7395 13.446 57.7395 12.018C57.7395 10.5673 58.0001 9.13931 58.5215 7.73398C59.0428 6.30598 59.8021 5.03664 60.7995 3.92598C61.8195 2.81531 63.0548 1.91998 64.5055 1.23998C65.9561 0.559978 67.5995 0.219978 69.4355 0.219978ZM69.4015 22.15C70.9201 22.082 72.2575 21.742 73.4135 21.13C74.5695 20.4953 75.5215 19.702 76.2695 18.75C77.0401 17.7753 77.6181 16.71 78.0035 15.554C78.3888 14.398 78.5815 13.2646 78.5815 12.154C78.5815 10.9073 78.3435 9.64931 77.8675 8.37998C77.4141 7.08798 76.7681 5.93198 75.9295 4.91198C75.1135 3.86931 74.1161 3.03065 72.9375 2.39598C71.7588 1.73864 70.4555 1.40998 69.0275 1.40998C67.6221 1.40998 66.3528 1.72731 65.2195 2.36198C64.1088 2.97398 63.1681 3.76731 62.3975 4.74198C61.6268 5.71665 61.0375 6.80464 60.6295 8.00598C60.2215 9.18464 60.0175 10.352 60.0175 11.508C60.0175 12.7546 60.2441 14.0126 60.6975 15.282C61.1735 16.5513 61.8308 17.696 62.6695 18.716C63.5081 19.736 64.4941 20.5633 65.6275 21.198C66.7835 21.8326 68.0415 22.15 69.4015 22.15Z" fill="#B79F56"/>
<path d="M97.6039 20.79C97.6039 20.9486 97.6266 21.1413 97.6719 21.368C97.7173 21.572 97.7739 21.776 97.8419 21.98C97.9326 22.1613 98.0459 22.32 98.1819 22.456C98.3179 22.592 98.4766 22.66 98.6579 22.66V23H95.3599V21.13C95.0199 21.6286 94.5213 22.116 93.8639 22.592C93.2066 23.068 92.3566 23.306 91.3139 23.306C89.9993 23.306 88.9566 23.0793 88.1859 22.626C87.4153 22.1726 86.8259 21.5946 86.4179 20.892C86.0099 20.1893 85.7493 19.43 85.6359 18.614C85.5226 17.7753 85.4659 16.9933 85.4659 16.268V11.406C85.4659 11.202 85.4546 11.0093 85.4319 10.828C85.4319 10.624 85.3866 10.4426 85.2959 10.284C85.2279 10.1253 85.1146 10.0006 84.9559 9.90998C84.7973 9.79665 84.5706 9.73998 84.2759 9.73998V9.43398L87.7099 8.34598V17.016C87.7099 18.7386 88.0839 20.008 88.8319 20.824C89.5799 21.64 90.4979 22.048 91.5859 22.048C92.1753 22.048 92.6966 21.9233 93.1499 21.674C93.6259 21.402 94.0226 21.0846 94.3399 20.722C94.6799 20.3593 94.9293 19.9853 95.0879 19.6C95.2693 19.2146 95.3599 18.8973 95.3599 18.648V11.406C95.3599 11.202 95.3486 11.0093 95.3259 10.828C95.3259 10.624 95.2806 10.4426 95.1899 10.284C95.1219 10.1253 95.0086 10.0006 94.8499 9.90998C94.6913 9.79665 94.4646 9.73998 94.1699 9.73998V9.43398L97.6039 8.34598V20.79Z" fill="#B79F56"/>
<path d="M110.946 23V21.266L110.776 21.436C110.209 22.0026 109.552 22.4446 108.804 22.762C108.079 23.0793 107.195 23.238 106.152 23.238C105.359 23.238 104.679 23.1473 104.112 22.966C103.545 22.7846 103.081 22.5353 102.718 22.218C102.355 21.878 102.083 21.4926 101.902 21.062C101.743 20.6313 101.664 20.178 101.664 19.702C101.664 18.9313 101.868 18.2513 102.276 17.662C102.707 17.0726 103.319 16.5513 104.112 16.098C104.905 15.6446 105.869 15.2366 107.002 14.874C108.158 14.4886 109.473 14.1146 110.946 13.752C110.901 12.868 110.719 12.154 110.402 11.61C110.085 11.066 109.711 10.6466 109.28 10.352C108.849 10.0346 108.396 9.83065 107.92 9.73998C107.444 9.62665 107.036 9.56998 106.696 9.56998C106.107 9.56998 105.585 9.66065 105.132 9.84198C104.701 10.0233 104.316 10.2613 103.976 10.556C103.659 10.828 103.387 11.134 103.16 11.474C102.933 11.7913 102.752 12.0973 102.616 12.392H102.31V9.90998C102.491 9.88731 102.661 9.83065 102.82 9.73998C102.979 9.64931 103.171 9.55864 103.398 9.46798C103.738 9.33198 104.203 9.13931 104.792 8.88998C105.381 8.61798 106.209 8.48198 107.274 8.48198C108.521 8.48198 109.529 8.64065 110.3 8.95798C111.071 9.27531 111.66 9.69465 112.068 10.216C112.499 10.7373 112.782 11.338 112.918 12.018C113.054 12.6753 113.122 13.3553 113.122 14.058V20.79C113.122 21.2433 113.224 21.674 113.428 22.082C113.632 22.4673 113.904 22.66 114.244 22.66V23H110.946ZM110.946 19.77V14.908L110.606 14.976C110.062 15.112 109.393 15.2933 108.6 15.52C107.829 15.7466 107.093 16.0413 106.39 16.404C105.687 16.7666 105.087 17.1973 104.588 17.696C104.089 18.1946 103.84 18.7726 103.84 19.43C103.84 20.1553 104.135 20.756 104.724 21.232C105.313 21.708 106.084 21.946 107.036 21.946C107.784 21.946 108.441 21.7873 109.008 21.47C109.575 21.13 110.096 20.6993 110.572 20.178L110.946 19.77Z" fill="#B79F56"/>
<path d="M125.805 11.202C125.533 10.7486 125.25 10.4653 124.955 10.352C124.66 10.2386 124.32 10.182 123.935 10.182C123.686 10.182 123.414 10.2386 123.119 10.352C122.847 10.4653 122.575 10.6126 122.303 10.794C122.031 10.9753 121.759 11.1793 121.487 11.406C121.238 11.61 121.022 11.8026 120.841 11.984V20.824C120.841 21.0053 120.864 21.198 120.909 21.402C120.954 21.606 121.022 21.81 121.113 22.014C121.226 22.1953 121.34 22.354 121.453 22.49C121.589 22.6033 121.748 22.66 121.929 22.66V23H117.509V22.66C117.668 22.66 117.815 22.6033 117.951 22.49C118.087 22.354 118.2 22.1953 118.291 22.014C118.404 21.81 118.484 21.606 118.529 21.402C118.574 21.198 118.597 21.0053 118.597 20.824V11.338C118.597 11.0206 118.495 10.7033 118.291 10.386C118.087 10.0686 117.792 9.86464 117.407 9.77398V9.50198L120.841 8.48198V10.522C121.045 10.2726 121.26 10.0346 121.487 9.80798C121.714 9.55864 121.963 9.34331 122.235 9.16198C122.53 8.95798 122.847 8.79931 123.187 8.68598C123.527 8.54998 123.924 8.48198 124.377 8.48198C124.694 8.48198 125.102 8.54998 125.601 8.68598C126.1 8.82198 126.508 8.96931 126.825 9.12798L125.805 11.202Z" fill="#B79F56"/>
<path d="M129.44 23V22.66C129.621 22.66 129.78 22.592 129.916 22.456C130.052 22.32 130.165 22.1613 130.256 21.98C130.347 21.7986 130.415 21.606 130.46 21.402C130.505 21.1753 130.528 20.9713 130.528 20.79V11.372C130.528 10.9866 130.471 10.624 130.358 10.284C130.245 9.92131 129.916 9.72865 129.372 9.70598V9.39998L132.772 8.31198V20.79C132.772 20.9713 132.795 21.1753 132.84 21.402C132.885 21.606 132.953 21.7986 133.044 21.98C133.135 22.1613 133.248 22.32 133.384 22.456C133.52 22.592 133.679 22.66 133.86 22.66V23H129.44ZM129.61 5.04798C129.61 4.59465 129.757 4.20931 130.052 3.89198C130.369 3.57464 130.755 3.41598 131.208 3.41598C131.661 3.41598 132.047 3.57464 132.364 3.89198C132.681 4.20931 132.84 4.59465 132.84 5.04798C132.84 5.50131 132.681 5.87531 132.364 6.16998C132.047 6.46464 131.661 6.61198 131.208 6.61198C130.755 6.61198 130.369 6.46464 130.052 6.16998C129.757 5.87531 129.61 5.50131 129.61 5.04798Z" fill="#B79F56"/>
<path d="M150.961 20.79C150.961 20.9486 150.984 21.1413 151.029 21.368C151.075 21.572 151.131 21.776 151.199 21.98C151.29 22.1613 151.403 22.32 151.539 22.456C151.675 22.592 151.834 22.66 152.015 22.66V23H148.717V21.13C148.377 21.6286 147.879 22.116 147.221 22.592C146.564 23.068 145.714 23.306 144.671 23.306C143.357 23.306 142.314 23.0793 141.543 22.626C140.773 22.1726 140.183 21.5946 139.775 20.892C139.367 20.1893 139.107 19.43 138.993 18.614C138.88 17.7753 138.823 16.9933 138.823 16.268V11.406C138.823 11.202 138.812 11.0093 138.789 10.828C138.789 10.624 138.744 10.4426 138.653 10.284C138.585 10.1253 138.472 10.0006 138.313 9.90998C138.155 9.79665 137.928 9.73998 137.633 9.73998V9.43398L141.067 8.34598V17.016C141.067 18.7386 141.441 20.008 142.189 20.824C142.937 21.64 143.855 22.048 144.943 22.048C145.533 22.048 146.054 21.9233 146.507 21.674C146.983 21.402 147.38 21.0846 147.697 20.722C148.037 20.3593 148.287 19.9853 148.445 19.6C148.627 19.2146 148.717 18.8973 148.717 18.648V11.406C148.717 11.202 148.706 11.0093 148.683 10.828C148.683 10.624 148.638 10.4426 148.547 10.284C148.479 10.1253 148.366 10.0006 148.207 9.90998C148.049 9.79665 147.822 9.73998 147.527 9.73998V9.43398L150.961 8.34598V20.79Z" fill="#B79F56"/>
<path d="M166.377 19.124C166.377 19.7133 166.23 20.2573 165.935 20.756C165.641 21.2546 165.233 21.6966 164.711 22.082C164.213 22.4446 163.623 22.7393 162.943 22.966C162.263 23.17 161.527 23.272 160.733 23.272C159.759 23.272 158.965 23.1473 158.353 22.898C157.741 22.626 157.22 22.354 156.789 22.082C156.495 21.9006 156.223 21.7533 155.973 21.64C155.724 21.504 155.452 21.436 155.157 21.436V18.852H155.497C155.565 19.1693 155.758 19.5206 156.075 19.906C156.415 20.2686 156.812 20.6086 157.265 20.926C157.741 21.2433 158.251 21.5153 158.795 21.742C159.362 21.946 159.929 22.048 160.495 22.048C160.903 22.048 161.323 22.0026 161.753 21.912C162.184 21.8213 162.569 21.674 162.909 21.47C163.272 21.266 163.567 21.0166 163.793 20.722C164.043 20.4046 164.167 20.0306 164.167 19.6C164.167 19.1693 164.043 18.7953 163.793 18.478C163.544 18.1606 163.227 17.8886 162.841 17.662C162.456 17.4126 162.014 17.1973 161.515 17.016C161.017 16.8346 160.518 16.6646 160.019 16.506C159.43 16.3246 158.829 16.1206 158.217 15.894C157.628 15.6673 157.095 15.4066 156.619 15.112C156.143 14.7946 155.758 14.4206 155.463 13.99C155.169 13.5366 155.021 13.004 155.021 12.392C155.021 11.8706 155.112 11.372 155.293 10.896C155.497 10.42 155.815 10.012 156.245 9.67198C156.699 9.30931 157.277 9.02598 157.979 8.82198C158.682 8.59531 159.532 8.48198 160.529 8.48198C161.413 8.48198 162.093 8.56131 162.569 8.71998C163.068 8.85598 163.476 9.00331 163.793 9.16198C163.997 9.27531 164.201 9.36598 164.405 9.43398C164.609 9.47931 164.836 9.50198 165.085 9.50198V11.882H164.813C164.405 11.134 163.782 10.5673 162.943 10.182C162.105 9.79664 161.243 9.60398 160.359 9.60398C159.793 9.60398 159.305 9.68331 158.897 9.84198C158.489 9.97798 158.149 10.1593 157.877 10.386C157.628 10.59 157.435 10.828 157.299 11.1C157.186 11.372 157.129 11.644 157.129 11.916C157.129 12.3013 157.231 12.63 157.435 12.902C157.662 13.174 157.957 13.412 158.319 13.616C158.705 13.82 159.124 14.0126 159.577 14.194C160.053 14.3753 160.552 14.5453 161.073 14.704C161.708 14.908 162.343 15.1346 162.977 15.384C163.612 15.6106 164.179 15.894 164.677 16.234C165.176 16.574 165.584 16.982 165.901 17.458C166.219 17.9113 166.377 18.4666 166.377 19.124Z" fill="#B79F56"/>
</svg>
