<?xml version="1.0" encoding="utf-8"?><svg viewBox="0 0 288 295" xmlns="http://www.w3.org/2000/svg" xmlns:xlink="http://www.w3.org/1999/xlink"><style>:root>svg{display:none}:root>svg:target{display:block}</style><svg viewBox="0 0 64 64" id="adv-1" xmlns="http://www.w3.org/2000/svg"><path d="M48.001 21.093h-.346c-5.04-.16-8.8-4.053-8.8-8.853 0-4.907 4-8.88 8.88-8.88 4.88 0 8.88 4 8.88 8.88-.027 4.827-3.787 8.72-8.587 8.88 0-.027 0-.027-.027-.027zm-.267-13.76a4.882 4.882 0 00-4.88 4.88 4.862 4.862 0 004.694 4.88c.026-.026.24-.026.48 0 2.587-.133 4.587-2.266 4.613-4.88 0-2.693-2.186-4.88-4.907-4.88zM48.028 40.747c-1.04 0-2.08-.08-3.12-.267a2 2 0 01-1.627-2.32 2 2 0 012.32-1.627c3.28.56 6.747-.053 9.067-1.6 1.253-.826 1.92-1.866 1.92-2.906s-.693-2.054-1.92-2.88c-2.32-1.547-5.84-2.16-9.147-1.574-1.093.214-2.133-.533-2.32-1.626a2 2 0 011.627-2.32c4.347-.774 8.853.053 12.053 2.186 2.347 1.574 3.707 3.814 3.707 6.214 0 2.373-1.333 4.64-3.707 6.24-2.426 1.6-5.573 2.48-8.853 2.48zM15.921 21.093h-.053c-4.8-.16-8.56-4.053-8.587-8.853 0-4.907 4-8.907 8.88-8.907 4.88 0 8.88 4 8.88 8.88 0 4.827-3.76 8.72-8.56 8.88l-.56-2 .187 2h-.187zm.267-4c.16 0 .293 0 .453.027 2.374-.107 4.454-2.24 4.454-4.88a4.882 4.882 0 00-4.88-4.88 4.882 4.882 0 00-4.88 4.88c0 2.613 2.026 4.72 4.613 4.88.027-.027.133-.027.24-.027zM15.893 40.747c-3.28 0-6.427-.88-8.853-2.48-2.347-1.574-3.707-3.84-3.707-6.24 0-2.374 1.36-4.64 3.707-6.214 3.2-2.133 7.706-2.96 12.053-2.186a2 2 0 011.627 2.32c-.187 1.093-1.227 1.84-2.32 1.626-3.307-.586-6.8.027-9.147 1.574-1.253.826-1.92 1.84-1.92 2.88 0 1.04.693 2.08 1.92 2.906 2.32 1.547 5.787 2.16 9.067 1.6a2.02 2.02 0 012.32 1.627 2 2 0 01-1.627 2.32c-1.04.187-2.08.267-3.12.267zM32.001 41.013h-.347c-5.04-.16-8.8-4.053-8.8-8.853 0-4.907 4-8.88 8.88-8.88 4.88 0 8.88 4 8.88 8.88-.026 4.827-3.786 8.72-8.586 8.88 0-.027 0-.027-.027-.027zm-.266-13.76a4.882 4.882 0 00-4.88 4.88 4.862 4.862 0 004.693 4.88c.027-.026.24-.026.48 0 2.587-.133 4.587-2.266 4.613-4.88 0-2.666-2.186-4.88-4.906-4.88zM31.999 60.693c-3.2 0-6.4-.826-8.88-2.506-2.347-1.574-3.707-3.814-3.707-6.214 0-2.373 1.333-4.666 3.707-6.24 4.986-3.306 12.8-3.306 17.76 0 2.346 1.574 3.706 3.814 3.706 6.214 0 2.373-1.333 4.666-3.706 6.24-2.48 1.653-5.68 2.506-8.88 2.506zm-6.667-11.6c-1.253.827-1.92 1.867-1.92 2.907s.693 2.053 1.92 2.88c3.6 2.426 9.707 2.426 13.307 0 1.253-.827 1.92-1.867 1.92-2.907s-.694-2.053-1.92-2.88c-3.574-2.427-9.68-2.4-13.307 0z"/></svg><svg viewBox="0 0 64 64" id="adv-2" xmlns="http://www.w3.org/2000/svg"><path d="M32 44.667a17.48 17.48 0 01-3.147-.267c-5.653-.827-10.8-4.08-14.053-8.907A20.71 20.71 0 0111.333 24c0-11.387 9.28-20.667 20.667-20.667 11.386 0 20.666 9.28 20.666 20.667 0 4.107-1.2 8.08-3.466 11.493a20.798 20.798 0 01-14.134 8.934c-.933.16-2 .24-3.066.24zm0-37.334C22.8 7.333 15.333 14.8 15.333 24c0 3.333.96 6.533 2.773 9.253 2.64 3.894 6.774 6.507 11.36 7.174 1.707.293 3.387.293 4.96 0 4.667-.667 8.8-3.307 11.44-7.2 1.814-2.72 2.774-5.92 2.774-9.254C48.666 14.8 41.2 7.333 32 7.333z"/><path d="M17.253 60.24c-.374 0-.72-.053-1.094-.133a4.603 4.603 0 01-3.466-3.467l-.934-3.92c-.053-.24-.24-.427-.507-.507l-4.4-1.04c-1.653-.4-2.96-1.626-3.413-3.253a4.708 4.708 0 011.2-4.587l10.4-10.4a2.009 2.009 0 011.6-.586 2 2 0 011.467.88c2.64 3.893 6.773 6.533 11.386 7.2 1.707.293 3.387.293 4.96 0 4.667-.667 8.8-3.307 11.44-7.2.32-.507.88-.827 1.467-.88a2.009 2.009 0 011.6.586l10.4 10.4a4.708 4.708 0 011.2 4.587 4.639 4.639 0 01-3.413 3.253l-4.4 1.04c-.24.054-.427.24-.507.507l-.933 3.92a4.603 4.603 0 01-3.467 3.467 4.576 4.576 0 01-4.64-1.547L32 45.68 20.8 58.587a4.624 4.624 0 01-3.546 1.653zm-1.014-22.827l-8.773 8.774a.625.625 0 00-.16.666c.027.134.16.4.48.454l4.4 1.04a4.602 4.602 0 013.466 3.466l.934 3.92c.08.347.347.454.507.507.16.027.426.053.666-.213l10.213-11.76c-4.533-.88-8.693-3.307-11.733-6.854zm19.787 6.827l10.213 11.733c.24.294.534.294.694.24.16-.026.4-.16.506-.506l.934-3.92a4.603 4.603 0 013.466-3.467l4.4-1.04c.32-.08.454-.32.48-.453a.633.633 0 00-.16-.667l-8.773-8.773c-3.067 3.546-7.2 5.973-11.76 6.853z"/><path d="M37.04 34.373c-.693 0-1.52-.186-2.506-.773l-2.533-1.52-2.534 1.493c-2.32 1.387-3.84.587-4.4.187-.56-.4-1.76-1.6-1.146-4.24l.64-2.747-2.134-1.973c-1.173-1.173-1.6-2.587-1.2-3.867.4-1.28 1.574-2.186 3.227-2.453l2.853-.48 1.36-2.987c.774-1.52 1.974-2.373 3.334-2.373s2.586.88 3.333 2.4l1.573 3.147 2.64.32c1.627.266 2.8 1.173 3.227 2.453.4 1.28-.027 2.693-1.2 3.867l-2.213 2.213.693 2.48c.613 2.64-.587 3.84-1.147 4.24-.293.24-.933.613-1.866.613zm-11.413-12l1.84 1.84c.854.854 1.28 2.294 1.014 3.467l-.507 2.133 2.133-1.253c1.147-.667 2.694-.667 3.814 0l2.133 1.253-.48-2.133c-.267-1.2.133-2.613.987-3.467l1.84-1.84-2.32-.4c-1.12-.186-2.24-1.013-2.747-2.026l-1.333-2.614L30.667 20c-.48.987-1.6 1.84-2.72 2.027l-2.32.346z"/></svg><svg viewBox="0 0 64 64" id="adv-3" xmlns="http://www.w3.org/2000/svg"><path d="M32 57.733c-.827 0-1.627-.106-2.294-.346C19.52 53.893 3.333 41.493 3.333 23.173c0-9.333 7.547-16.906 16.827-16.906 4.506 0 8.72 1.76 11.84 4.906 3.12-3.146 7.333-4.906 11.84-4.906 9.28 0 16.826 7.6 16.826 16.906 0 18.347-16.186 30.72-26.373 34.214-.667.24-1.467.346-2.293.346zM20.16 10.267c-7.067 0-12.827 5.786-12.827 12.906 0 18.214 17.52 28.347 23.68 30.454.48.16 1.52.16 2 0 6.133-2.107 23.68-12.214 23.68-30.454 0-7.12-5.76-12.906-12.827-12.906-4.053 0-7.813 1.893-10.24 5.173-.746 1.013-2.453 1.013-3.2 0-2.48-3.307-6.213-5.173-10.266-5.173z"/></svg><svg fill="none" viewBox="0 0 24 42" id="arrow--big" xmlns="http://www.w3.org/2000/svg"><path d="M0 36l15-15L0 6l3-6 21 21L3 42l-3-6z" fill="#fff"/></svg><svg fill="none" viewBox="0 0 30 52" id="arrow--big-accent" xmlns="http://www.w3.org/2000/svg"><path d="M0 44.571L18.75 26 0 7.429 3.75 0 30 26 3.75 52 0 44.571z" fill="#005CD3"/></svg><svg fill="none" viewBox="0 0 30 52" id="arrow--big-gray" xmlns="http://www.w3.org/2000/svg"><path d="M0 44.571L18.75 26 0 7.429 3.75 0 30 26 3.75 52 0 44.571z" fill="#828282"/></svg><svg fill="none" viewBox="0 0 28 28" id="arrow-bottom" xmlns="http://www.w3.org/2000/svg"><path d="M3.885 10.395c0-.222.082-.443.257-.618a.88.88 0 011.237 0l7.606 7.606c.56.56 1.47.56 2.03 0l7.607-7.606a.88.88 0 011.237 0 .88.88 0 010 1.236l-7.607 7.607c-.595.595-1.4.933-2.252.933a3.13 3.13 0 01-2.251-.933l-7.607-7.607a.917.917 0 01-.257-.618z" fill="#828282"/></svg><svg fill="none" viewBox="0 0 29 29" id="arrow-right" xmlns="http://www.w3.org/2000/svg"><path d="M10.895 24.615a.865.865 0 01-.619-.257.88.88 0 010-1.236l7.607-7.607c.56-.56.56-1.47 0-2.03l-7.607-7.607a.88.88 0 010-1.236.88.88 0 011.237 0l7.606 7.606c.596.595.934 1.4.934 2.252a3.13 3.13 0 01-.934 2.252l-7.606 7.606a.917.917 0 01-.618.257z" fill="#fff"/></svg><svg fill="none" viewBox="0 0 11 22" id="arrow-right--accent" xmlns="http://www.w3.org/2000/svg"><path d="M1.114 21.189a.865.865 0 01-.619-.257.88.88 0 010-1.237l7.607-7.606c.56-.56.56-1.47 0-2.03L.495 2.452a.88.88 0 010-1.237.88.88 0 011.237 0L9.34 8.822c.595.595.933 1.4.933 2.252a3.13 3.13 0 01-.933 2.251l-7.607 7.607a.917.917 0 01-.618.257z" fill="#005CD3"/></svg><svg fill="none" viewBox="0 0 24 42" id="arrow-right--white" xmlns="http://www.w3.org/2000/svg"><path d="M0 36l15-15L0 6l3-6 21 21L3 42l-3-6z" fill="#fff"/></svg><svg fill="none" viewBox="0 0 28 28" id="call" xmlns="http://www.w3.org/2000/svg"><path d="M20.358 26.542c-1.318 0-2.707-.315-4.142-.922-1.4-.595-2.811-1.412-4.188-2.403a36.412 36.412 0 01-3.932-3.349 34.863 34.863 0 01-3.348-3.92c-1.003-1.4-1.808-2.8-2.38-4.153-.607-1.447-.91-2.847-.91-4.165 0-.91.163-1.773.478-2.578A6.231 6.231 0 013.5 2.788c.898-.886 1.925-1.33 3.021-1.33.455 0 .922.105 1.319.292.455.21.84.525 1.12.945l2.706 3.815c.245.338.432.665.56.992.152.35.234.7.234 1.038 0 .443-.129.875-.374 1.283a4.665 4.665 0 01-.781.992l-.794.828c.012.035.024.059.035.082.14.245.42.665.957 1.295a43.77 43.77 0 001.645 1.797c.688.676 1.26 1.213 1.797 1.656.665.56 1.096.84 1.353.969l-.023.058.851-.84c.362-.362.712-.63 1.05-.805.642-.397 1.459-.467 2.275-.128.304.128.63.303.98.548l3.874 2.753c.431.292.746.665.933 1.109.175.443.257.851.257 1.26 0 .56-.129 1.12-.374 1.645-.245.525-.548.98-.933 1.4-.665.735-1.388 1.26-2.228 1.598a6.888 6.888 0 01-2.602.502zM6.521 3.208c-.641 0-1.236.28-1.808.84-.537.502-.91 1.05-1.143 1.645a5.105 5.105 0 00-.362 1.937c0 1.085.257 2.263.77 3.477.525 1.236 1.26 2.52 2.193 3.803a32.268 32.268 0 003.162 3.71 32.852 32.852 0 003.722 3.173c1.26.922 2.555 1.669 3.838 2.205 1.995.852 3.862 1.05 5.402.409a4.307 4.307 0 001.598-1.155c.268-.292.478-.607.653-.98.14-.292.21-.595.21-.899 0-.186-.035-.373-.128-.583-.035-.07-.105-.198-.327-.35l-3.873-2.753a3.346 3.346 0 00-.642-.362c-.256-.105-.361-.21-.758.035-.233.117-.443.292-.677.525l-.886.875c-.455.443-1.155.548-1.692.35l-.315-.14c-.478-.257-1.038-.653-1.657-1.178A36.543 36.543 0 0111.9 16.03a40.684 40.684 0 01-1.739-1.89c-.548-.642-.945-1.19-1.19-1.645l-.14-.35a2.178 2.178 0 01-.093-.583c0-.42.152-.794.443-1.085l.875-.91c.234-.234.409-.455.525-.654a.748.748 0 00.129-.396c0-.094-.035-.234-.094-.374a3.345 3.345 0 00-.373-.618L7.536 3.698a1.075 1.075 0 00-.431-.361 1.46 1.46 0 00-.584-.129zm9.754 14.304l-.187.793.315-.817c-.058-.011-.105 0-.128.024z" fill="#4F4F4F"/></svg><svg fill="none" viewBox="0 0 28 28" id="clock" xmlns="http://www.w3.org/2000/svg"><path d="M14 26.542C7.08 26.542 1.458 20.918 1.458 14S7.081 1.458 14 1.458C20.918 1.458 26.54 7.082 26.54 14S20.918 26.542 14 26.542zm0-23.334C8.05 3.208 3.208 8.05 3.208 14S8.05 24.792 14 24.792 24.79 19.95 24.79 14 19.95 3.208 14 3.208z" fill="#4F4F4F"/><path d="M18.328 18.585a.78.78 0 01-.443-.128l-3.617-2.159c-.898-.536-1.563-1.715-1.563-2.753V8.762c0-.479.397-.875.875-.875s.875.396.875.875v4.783c0 .42.35 1.038.712 1.248l3.616 2.159c.42.245.549.781.304 1.201a.899.899 0 01-.759.432z" fill="#4F4F4F"/></svg><svg fill="none" viewBox="0 0 49 49" id="close" xmlns="http://www.w3.org/2000/svg"><path fill-rule="evenodd" clip-rule="evenodd" d="M15.293 15.293a1 1 0 011.414 0l7.793 7.793 7.793-7.793a1 1 0 011.414 1.414L25.914 24.5l7.793 7.793a1 1 0 01-1.414 1.414L24.5 25.914l-7.793 7.793a1 1 0 01-1.414-1.414l7.793-7.793-7.793-7.793a1 1 0 010-1.414z" fill="#005CD3"/><path fill-rule="evenodd" clip-rule="evenodd" d="M24.5 2.583c-12.104 0-21.917 9.812-21.917 21.917 0 12.104 9.813 21.916 21.917 21.916 12.104 0 21.917-9.812 21.917-21.916 0-12.105-9.813-21.917-21.917-21.917zM.583 24.5C.583 11.29 11.291.583 24.5.583c13.209 0 23.917 10.708 23.917 23.917 0 13.209-10.708 23.916-23.917 23.916C11.291 48.416.583 37.71.583 24.5z" fill="#005CD3"/></svg><svg fill="none" viewBox="0 0 13 8" id="drop-open" xmlns="http://www.w3.org/2000/svg"><path d="M6.5 8L.87.5H12.13L6.499 8z" fill="#333"/></svg><svg fill="none" viewBox="0 0 21 11" id="drop-open--accent" xmlns="http://www.w3.org/2000/svg"><path d="M10.8 10.598L.841.598H20.76l-9.96 10z" fill="#005CD3"/></svg><svg fill="none" viewBox="0 0 278 295" id="figure" xmlns="http://www.w3.org/2000/svg"><mask id="pa" style="mask-type:alpha" maskUnits="userSpaceOnUse" x="0" y="0" width="278" height="295"><path fill="#D9D9D9" d="M0 0h278v295H0z"/></mask><g mask="url(#pa)"><path d="M139.492 276.943c-49.505.468-74.258.702-89.337-8.336A62.378 62.378 0 0119.883 217.3c-.62-17.569 11.554-39.122 35.902-82.229 24.347-43.107 36.521-64.66 51.887-73.2a62.379 62.379 0 0159.57-.563c15.524 8.248 28.103 29.568 53.261 72.206 25.158 42.639 37.737 63.959 37.45 81.536a62.38 62.38 0 01-29.298 51.871c-14.905 9.32-39.658 9.554-89.163 10.022z" fill="#F7F9FE"/></g></svg><svg fill="none" viewBox="0 0 288 295" id="figure--accent" xmlns="http://www.w3.org/2000/svg"><mask id="qa" style="mask-type:alpha" maskUnits="userSpaceOnUse" x="0" y="0" width="288" height="295"><path fill="#D9D9D9" d="M0 0h288v295H0z"/></mask><g mask="url(#qa)"><path d="M144.614 274.422c-51.562.488-77.343.731-93.048-8.681a64.971 64.971 0 01-31.53-53.439c-.644-18.298 12.035-40.747 37.394-85.644 25.359-44.897 38.038-67.346 54.042-76.24a64.97 64.97 0 0162.044-.587c16.169 8.591 29.271 30.796 55.473 75.206 26.203 44.41 39.304 66.615 39.005 84.922a64.968 64.968 0 01-30.514 54.025c-15.524 9.707-41.305 9.951-92.866 10.438z" fill="#005CD3"/></g></svg><svg fill="none" viewBox="0 0 26 26" id="inst" xmlns="http://www.w3.org/2000/svg"><path fill-rule="evenodd" clip-rule="evenodd" d="M.884 8.153A7.27 7.27 0 018.153.884h9.692a7.27 7.27 0 017.27 7.27v9.692a7.27 7.27 0 01-7.27 7.269H8.153a7.27 7.27 0 01-7.27-7.27V8.154zm7.269-4.846a4.846 4.846 0 00-4.846 4.846v9.693a4.846 4.846 0 004.846 4.846h9.692a4.846 4.846 0 004.847-4.846V8.153a4.846 4.846 0 00-4.847-4.846H8.153zM10.576 13a2.423 2.423 0 104.846 0 2.423 2.423 0 00-4.846 0zM13 8.153a4.846 4.846 0 100 9.693 4.846 4.846 0 000-9.693zm5.452-2.423a1.817 1.817 0 100 3.635 1.817 1.817 0 000-3.635z" fill="#fff"/></svg><svg fill="none" viewBox="0 0 28 28" id="location" xmlns="http://www.w3.org/2000/svg"><path d="M14 16.532a4.519 4.519 0 01-4.515-4.515A4.509 4.509 0 0114 7.513a4.518 4.518 0 014.515 4.515A4.509 4.509 0 0114 16.532zm0-7.269a2.77 2.77 0 00-2.765 2.765A2.763 2.763 0 0014 14.793a2.763 2.763 0 002.765-2.765A2.77 2.77 0 0014 9.263z" fill="#4F4F4F"/><path d="M14 26.553a6.966 6.966 0 01-4.818-1.948c-3.442-3.313-7.245-8.598-5.81-14.887C4.667 4.013 9.648 1.458 14 1.458h.012c4.351 0 9.333 2.555 10.628 8.272 1.423 6.288-2.38 11.562-5.822 14.875A6.966 6.966 0 0114 26.553zm0-23.345c-3.395 0-7.758 1.809-8.913 6.895-1.26 5.495 2.193 10.232 5.32 13.23a5.163 5.163 0 007.198 0c3.115-2.998 6.568-7.735 5.332-13.23C21.77 5.017 17.395 3.208 14 3.208z" fill="#4F4F4F"/></svg><svg fill="none" viewBox="0 0 28 28" id="location--accent" xmlns="http://www.w3.org/2000/svg"><path d="M14 16.532a4.519 4.519 0 01-4.515-4.515A4.509 4.509 0 0114 7.513a4.518 4.518 0 014.515 4.515A4.509 4.509 0 0114 16.532zm0-7.269a2.77 2.77 0 00-2.765 2.765A2.763 2.763 0 0014 14.793a2.763 2.763 0 002.765-2.765A2.77 2.77 0 0014 9.263z" fill="#005CD3"/><path d="M14 26.553a6.966 6.966 0 01-4.818-1.948c-3.442-3.313-7.245-8.598-5.81-14.887C4.667 4.013 9.648 1.458 14 1.458h.012c4.351 0 9.333 2.555 10.628 8.272 1.423 6.288-2.38 11.562-5.822 14.875A6.966 6.966 0 0114 26.553zm0-23.345c-3.395 0-7.758 1.809-8.913 6.895-1.26 5.495 2.193 10.232 5.32 13.23a5.163 5.163 0 007.198 0c3.115-2.998 6.568-7.735 5.332-13.23C21.77 5.017 17.395 3.208 14 3.208z" fill="#005CD3"/></svg><svg fill="none" viewBox="0 0 61 41" id="quote" xmlns="http://www.w3.org/2000/svg"><path d="M.38.466v27.641h18.116v2.142l-7.402 10.706 16.947-6.813V.467H.38zM33.105.466v27.641h18.116v2.142l-7.402 10.706 17.141-6.813V.467H33.105z" fill="#005CD3"/></svg><svg fill="none" viewBox="0 0 24 42" id="slider-next" xmlns="http://www.w3.org/2000/svg"><path d="M0 36l15-15L0 6l3-6 21 21L3 42l-3-6z" fill="#005CD3"/></svg><svg fill="none" viewBox="0 0 24 42" id="slider-prev" xmlns="http://www.w3.org/2000/svg"><path d="M24 6L9 21l15 15-3 6L0 21 21 0l3 6z" fill="#005CD3"/></svg><svg fill="none" viewBox="0 0 26 25" id="wa" xmlns="http://www.w3.org/2000/svg"><path fill-rule="evenodd" clip-rule="evenodd" d="M12.326.885c-1.967 0-4.766.763-7.097 2.441C2.851 5.04.884 7.77.884 11.654c0 2.335.782 4.105 1.572 5.29.341.512.684.916.968 1.212L2.27 22.77a1.346 1.346 0 001.908 1.53l4.858-2.428c2.752.922 6.522.607 9.657-.833 3.438-1.58 6.422-4.67 6.422-9.385 0-4.25-2.168-7.007-4.855-8.638-2.62-1.59-5.74-2.13-7.934-2.13zM6.228 18.04a1.346 1.346 0 00-.49-1.398l-.005-.004a4.16 4.16 0 01-.28-.256c-.2-.2-.477-.51-.757-.93-.556-.834-1.12-2.093-1.12-3.797 0-2.846 1.398-4.826 3.227-6.143 1.876-1.35 4.125-1.934 5.523-1.934 1.844 0 4.445.47 6.537 1.74 2.025 1.23 3.56 3.183 3.56 6.337 0 3.363-2.065 5.657-4.854 6.938-2.853 1.311-6.15 1.401-8.078.575a1.346 1.346 0 00-1.132.033l-2.767 1.384.636-2.546zM9.757 6.355a1.023 1.023 0 011.29.42l1.068 1.803a.984.984 0 01-.19 1.246c-.17.152-.405.338-.624.512-.12.095-.235.186-.332.266 1.008 1.873 2.434 2.756 3.086 3.082l.786-.905c.372-.427 1-.517 1.462-.224a40.3 40.3 0 001.555.942c.358.203.601.62.505 1.083-.174.833-.553 1.434-1.07 1.836-.509.395-1.1.556-1.637.604-1.056.096-2.046-.23-2.227-.293a.88.88 0 01-.124-.054c-.192-.1-1.325-.708-2.525-1.695-1.187-.977-2.511-2.383-2.981-4.097-.345-1.259-.177-2.271.27-3.044.438-.76 1.112-1.232 1.688-1.482z" fill="#fff"/></svg><svg fill="none" viewBox="0 0 25 20" id="yt" xmlns="http://www.w3.org/2000/svg"><path fill-rule="evenodd" clip-rule="evenodd" d="M4.99 3.216c1.622-.252 4.122-.485 7.817-.485 3.694 0 6.194.233 7.817.485 1.096.17 1.875 1.133 1.875 2.51v8.548c0 1.377-.779 2.339-1.875 2.51-1.623.252-4.122.485-7.817.485-3.695 0-6.195-.233-7.817-.485-1.097-.171-1.876-1.133-1.876-2.51V5.726c0-1.377.78-2.34 1.876-2.51zM12.807.308c-3.794 0-6.42.239-8.19.514-2.53.394-3.926 2.61-3.926 4.904v8.548c0 2.295 1.396 4.51 3.927 4.904 1.768.275 4.395.514 8.189.514 3.793 0 6.42-.239 8.189-.514 2.53-.394 3.926-2.61 3.926-4.904V5.726c0-2.295-1.395-4.51-3.926-4.904C19.227.547 16.6.308 12.806.308zm-1.783 6.2c.394-.21.872-.187 1.243.06l3.635 2.424a1.211 1.211 0 010 2.016l-3.635 2.423a1.212 1.212 0 01-1.883-1.008V7.577c0-.447.246-.857.64-1.068z" fill="#fff"/></svg></svg>