<svg width="176" height="32" viewBox="0 0 176 32" fill="none" xmlns="http://www.w3.org/2000/svg">
<path d="M19.2098 22.8012H5.70163L2.63624 31.139H0L11.2602 1.3843H13.6512L24.9114 31.139H22.2956L19.2098 22.8012ZM6.47819 20.6554H18.4128L12.4455 4.44969L6.47819 20.6554Z" fill="#41444B"/>
<path d="M50.1293 21.8611C49.7887 24.9946 48.6648 27.3924 46.7574 29.0546C44.8637 30.7167 42.3364 31.5477 39.1757 31.5477C36.9686 31.5477 35.0136 30.996 33.3106 29.8924C31.6212 28.7889 30.3133 27.229 29.3869 25.2126C28.4604 23.1826 27.9904 20.8666 27.9768 18.2644V14.402C27.9768 11.7589 28.44 9.41563 29.3664 7.37203C30.2929 5.32844 31.6212 3.75487 33.3514 2.65133C35.0953 1.53417 37.098 0.975586 39.3596 0.975586C42.5476 0.975586 45.0612 1.84071 46.9005 3.57095C48.7533 5.28757 49.8296 7.66495 50.1293 10.7031H47.5953C46.9686 5.6486 44.2234 3.12136 39.3596 3.12136C36.6621 3.12136 34.5095 4.12953 32.9019 6.14588C31.3079 8.16222 30.5109 10.9483 30.5109 14.5042V18.1418C30.5109 21.575 31.2874 24.3134 32.8405 26.357C34.4073 28.4006 36.519 29.4224 39.1757 29.4224C41.8051 29.4224 43.7874 28.7957 45.1225 27.5423C46.4577 26.2753 47.2819 24.3815 47.5953 21.8611H50.1293Z" fill="#41444B"/>
<path d="M67.3568 18.7549H58.7124V31.139H56.1784V1.3843H65.8446C69.019 1.3843 71.4985 2.15406 73.2833 3.69357C75.068 5.23307 75.9604 7.38566 75.9604 10.1513C75.9604 12.0587 75.4018 13.7412 74.2846 15.199C73.1675 16.6568 71.6688 17.6649 69.7887 18.2235L77.2274 30.8734V31.139H74.5503L67.3568 18.7549ZM58.7124 16.6091H66.4168C68.5285 16.6091 70.2247 16.0096 71.5053 14.8107C72.786 13.6118 73.4263 12.0587 73.4263 10.1513C73.4263 8.05323 72.7587 6.42517 71.4236 5.26713C70.0884 4.1091 68.2152 3.53008 65.8037 3.53008H58.7124V16.6091Z" fill="#41444B"/>
<path d="M104.795 17.8761C104.795 20.6145 104.319 23.0191 103.365 25.09C102.425 27.1608 101.076 28.7548 99.3186 29.872C97.5612 30.9892 95.5312 31.5477 93.2287 31.5477C89.7546 31.5477 86.9481 30.308 84.8091 27.8284C82.6702 25.3352 81.6007 21.9769 81.6007 17.7535V14.6881C81.6007 11.9769 82.0775 9.57911 83.0312 7.49465C83.9985 5.39656 85.3609 3.78893 87.1184 2.67177C88.8759 1.54098 90.899 0.975586 93.1879 0.975586C95.4767 0.975586 97.493 1.52736 99.2369 2.6309C100.994 3.73444 102.35 5.29438 103.304 7.31073C104.257 9.32707 104.755 11.6636 104.795 14.3203V17.8761ZM102.282 14.6472C102.282 11.0641 101.471 8.25759 99.85 6.22762C98.2287 4.19765 96.008 3.18267 93.1879 3.18267C90.4222 3.18267 88.2151 4.20446 86.5666 6.24806C84.9317 8.27803 84.1143 11.1186 84.1143 14.7698V17.8761C84.1143 21.4047 84.9317 24.2044 86.5666 26.2753C88.2015 28.3325 90.4222 29.3611 93.2287 29.3611C96.0761 29.3611 98.2969 28.3461 99.8909 26.3161C101.485 24.2726 102.282 21.432 102.282 17.7944V14.6472Z" fill="#41444B"/>
<path d="M113.665 29.0137H128.358V31.139H111.131V1.3843H113.665V29.0137Z" fill="#41444B"/>
<path d="M146.838 31.139H144.324V1.3843H146.838V31.139Z" fill="#D76454"/>
<path d="M176 21.8611C175.659 24.9946 174.535 27.3924 172.628 29.0546C170.734 30.7167 168.207 31.5477 165.046 31.5477C162.839 31.5477 160.884 30.996 159.181 29.8924C157.492 28.7889 156.184 27.229 155.257 25.2126C154.331 23.1826 153.861 20.8666 153.847 18.2644V14.402C153.847 11.7589 154.311 9.41563 155.237 7.37203C156.163 5.32844 157.492 3.75487 159.222 2.65133C160.966 1.53417 162.969 0.975586 165.23 0.975586C168.418 0.975586 170.932 1.84071 172.771 3.57095C174.624 5.28757 175.7 7.66495 176 10.7031H173.466C172.839 5.6486 170.094 3.12136 165.23 3.12136C162.533 3.12136 160.38 4.12953 158.772 6.14588C157.178 8.16222 156.381 10.9483 156.381 14.5042V18.1418C156.381 21.575 157.158 24.3134 158.711 26.357C160.278 28.4006 162.39 29.4224 165.046 29.4224C167.676 29.4224 169.658 28.7957 170.993 27.5423C172.328 26.2753 173.153 24.3815 173.466 21.8611H176Z" fill="#D76454"/>
</svg>
