<svg width="254" height="44" viewBox="0 0 254 44" fill="none" xmlns="http://www.w3.org/2000/svg">
<path d="M13.1208 23.9438C13.2286 23.2972 13.4442 22.6505 13.5519 22.0039C14.0908 18.2319 15.2763 14.6755 17.5395 11.6579C19.2638 9.28688 21.527 7.347 24.0058 5.8382C27.1311 3.89831 30.3643 2.38952 34.0285 1.74289C35.6451 1.3118 37.1539 1.09626 38.6627 0.880716C39.5248 0.772945 40.387 0.988488 41.1414 1.20403C41.3569 1.20403 41.6803 1.63512 41.6803 1.85066C41.788 3.14392 41.788 4.54494 41.788 5.8382C41.6803 8.53248 40.9259 11.119 39.9559 13.5977C39.0938 15.9687 37.9083 18.1241 36.5072 20.1718C34.5674 22.9738 32.1964 25.3448 29.1788 26.8536C27.5622 27.7158 25.8379 28.3624 24.1135 28.9013C22.6047 29.3324 20.8804 29.5479 19.2638 29.8712C19.0483 29.8712 18.8327 29.8712 18.6172 29.8712C18.6172 29.7634 18.6172 29.7634 18.5094 29.6557C18.8327 29.4401 19.156 29.1168 19.3716 28.9013C20.8804 27.7158 22.497 26.5303 24.0058 25.237C24.4368 24.9137 24.7602 24.3749 24.8679 23.9438C25.4068 22.435 26.0534 20.8184 25.5146 19.2018C25.1912 18.1241 24.4368 17.4775 23.2514 17.4775C21.527 17.3697 19.8027 17.5853 18.2939 18.4474C17.8628 18.663 17.5395 18.9863 17.2162 19.4174C16.0307 20.8184 14.953 22.3272 13.8752 23.7282C13.6597 23.9438 13.3364 24.1593 13.1208 24.2671C13.2286 24.0516 13.2286 24.0516 13.1208 23.9438ZM34.4596 13.1667C34.3518 10.2568 32.4119 8.42471 29.3943 8.64025C27.0234 8.8558 25.299 10.7957 25.299 13.1667C25.299 15.7532 27.2389 17.8008 29.9332 17.8008C32.7352 17.8008 34.5674 15.7532 34.4596 13.1667ZM36.2917 9.07134C37.8005 9.17911 38.6627 7.99363 38.6627 6.80814C38.6627 5.62266 37.4772 4.43717 36.2917 4.43717C35.1062 4.43717 34.0285 5.51488 34.0285 6.80814C34.0285 8.31694 34.8907 9.07134 36.2917 9.07134Z" fill="white"/>
<path d="M32.6267 29.3323C32.5189 30.8411 32.5189 32.3499 31.6568 33.6432C31.2257 34.3976 30.5791 35.0442 29.8247 35.4753C27.6692 36.8763 25.2983 38.0618 23.1428 39.3551C21.203 40.4328 19.2631 41.5105 17.3232 42.4804C16.8921 42.696 16.2455 42.8037 15.7066 42.9115C14.8444 43.0193 14.4134 42.5882 14.6289 41.726C14.8444 41.0794 15.06 40.4328 15.3833 39.8939C16.461 37.5229 17.5387 35.152 18.5087 32.781C18.7242 32.3499 18.9398 32.2421 19.3708 32.1344C21.5263 31.8111 23.6817 31.4877 25.7294 30.9489C27.777 30.41 29.7169 29.5479 31.4412 28.3624C31.6568 28.1468 31.9801 28.1468 32.3034 28.0391C32.4112 28.3624 32.5189 28.6857 32.6267 29.009C32.6267 29.009 32.6267 29.1168 32.6267 29.3323Z" fill="white"/>
<path d="M13.9827 10.688C14.1983 10.688 14.4138 10.688 14.6294 10.688C15.0604 10.7958 15.1682 11.0113 14.9527 11.3346C14.1983 12.8434 13.3361 14.2444 12.6895 15.7532C12.1506 16.9387 11.8273 18.3398 11.504 19.633C11.1807 20.9263 11.1807 22.3273 10.9651 23.7283C10.8574 24.0516 10.534 24.5905 10.2107 24.6983C8.48638 25.5604 6.76204 26.2071 5.0377 26.9615C3.85222 27.5003 2.7745 27.9314 1.58902 28.4703C1.15793 28.6858 0.834617 28.7936 0.403532 28.4703C-0.0275535 28.0392 -0.135325 27.5003 0.187989 27.0692C0.726846 25.8837 1.37347 24.6983 2.0201 23.5128C3.20559 21.2496 4.39107 18.9864 5.68433 16.7232C6.5465 15.2144 7.51644 13.8134 8.59416 12.4123C9.34855 11.4424 10.534 11.0113 11.8273 10.9035C12.4739 10.7958 13.2283 10.688 13.9827 10.688Z" fill="white"/>
<path d="M10.8569 27.177C10.6413 27.6081 10.5336 27.9314 10.318 28.2547C8.80923 30.1946 7.19266 32.1345 5.68386 34.0743C4.71391 35.2598 4.82169 36.122 5.8994 37.1997C6.76157 38.0619 7.94706 38.1697 9.02477 37.4153C10.8569 35.9065 12.689 34.5054 14.5211 32.9966C15.06 32.5655 15.4911 32.2422 16.2455 32.35C16.461 32.35 16.5688 32.4578 16.7843 32.5655C16.6765 32.7811 16.6765 32.9966 16.5688 33.1044C15.4911 34.0743 14.4133 35.1521 13.2279 36.122C10.8569 38.0619 8.27037 39.7862 5.46831 41.1873C4.17506 41.8339 2.77403 42.3727 1.373 43.0194C1.15746 43.1271 1.04969 43.1271 0.834146 43.1271C0.187518 43.2349 -0.0280247 42.9116 0.187518 42.265C1.04969 39.6785 2.01963 37.523 3.31289 35.3676C4.92946 32.7811 6.54603 30.1946 8.70146 27.9314C9.02477 27.6081 9.45586 27.177 9.77917 26.7459C9.99471 26.5303 10.2103 26.4226 10.5336 26.207C10.6413 26.5303 10.7491 26.7459 10.8569 27.177Z" fill="white"/>
<path d="M9.23975 33.5352C9.45529 33.2119 9.56306 32.9964 9.7786 32.6731C12.1496 29.5477 14.6283 26.5301 16.9993 23.5125C17.7537 22.5426 18.4003 21.5726 19.2625 20.7105C19.5858 20.2794 20.2324 20.0638 20.7713 19.9561C21.3101 19.7405 21.849 19.7405 22.3879 19.7405C23.1423 19.6327 23.4656 20.0638 23.25 20.8182C23.25 20.8182 23.25 20.8182 23.25 20.926C23.1423 22.8659 21.9568 24.0514 20.448 25.2368C16.8915 27.8234 13.5506 30.6254 9.99415 33.3197C9.7786 33.5352 9.56306 33.643 9.23975 33.7508C9.34752 33.643 9.34752 33.643 9.23975 33.5352Z" fill="white"/>
<path d="M55.6936 6.47909H63.6162C67.8793 6.47909 71.7425 7.57316 75.2059 9.76131C78.6692 11.9495 80.4008 16.3107 80.4008 22.8449C80.4008 24.4596 80.0915 26.4441 79.4727 28.7982C78.854 31.1448 77.2997 33.4197 74.8097 35.623C72.3198 37.8262 68.5886 38.9278 63.6162 38.9278H55.6936V6.47909ZM58.7495 9.11619V36.2907H63.288C65.4384 36.2907 67.3662 35.9927 69.0715 35.3966C70.7767 34.8005 72.2292 33.9177 73.4289 32.7482C74.6286 31.5787 75.5416 30.1526 76.1679 28.47C76.7941 26.7798 77.1073 24.8558 77.1073 22.6978C77.1073 17.1822 75.7076 13.5415 72.9083 11.7759C70.1165 10.0028 66.9098 9.11619 63.288 9.11619H58.7495Z" fill="white"/>
<path d="M87.6557 19.0421V16.2579C89.9042 15.2694 92.2659 14.7752 94.7407 14.7752C97.1854 14.7752 99.0265 15.2807 100.264 16.2918C101.509 17.2953 102.297 18.4309 102.629 19.6985C102.969 20.9586 103.139 22.2677 103.139 23.6259V33.7329L103.275 38.9278H100.683V34.8986H100.581C98.9888 37.8338 96.4083 39.3013 92.8393 39.3013C91.1039 39.3013 89.6476 38.9806 88.4706 38.3393C87.301 37.6904 86.4371 36.8566 85.8787 35.838C85.3279 34.8194 85.0525 33.7329 85.0525 32.5784C85.0525 29.3113 86.3352 27.1345 88.9006 26.0479C91.4736 24.9614 94.737 24.4181 98.6907 24.4181H100.219V23.5806C100.219 19.3477 98.3927 17.2312 94.7407 17.2312C92.1753 17.2312 89.8136 17.8348 87.6557 19.0421ZM100.219 26.8741H97.5702C94.6879 26.8741 92.3904 27.2778 90.6776 28.0852C88.9723 28.885 88.1197 30.3186 88.1197 32.386C88.1197 33.2839 88.3347 34.0724 88.7648 34.7515C89.2025 35.423 89.7759 35.9399 90.4852 36.3021C91.202 36.6642 91.9716 36.8453 92.794 36.8453C94.4087 36.8453 95.7707 36.4945 96.8798 35.7927C97.9966 35.0835 98.8303 34.1064 99.3811 32.8614C99.9395 31.6089 100.219 30.1866 100.219 28.5945V26.8741Z" fill="white"/>
<path d="M112.804 9.20673L115.724 8.14284V15.1487H121.383V17.6047H115.724V32.2049C115.724 33.5631 115.826 34.5779 116.03 35.2495C116.241 35.921 116.543 36.3549 116.935 36.5511C117.328 36.7472 117.867 36.8453 118.554 36.8453C119.678 36.8453 120.667 36.6755 121.519 36.336V38.792C120.546 39.1316 119.448 39.3013 118.226 39.3013C116.581 39.3013 115.358 38.9165 114.559 38.1469C113.759 37.3697 113.265 36.5058 113.076 35.5551C112.895 34.5968 112.804 33.5405 112.804 32.386V17.6047H107.938V15.1487H112.804V9.20673Z" fill="white"/>
<path d="M128.31 19.0421V16.2579C130.558 15.2694 132.92 14.7752 135.395 14.7752C137.84 14.7752 139.681 15.2807 140.918 16.2918C142.163 17.2953 142.952 18.4309 143.284 19.6985C143.623 20.9586 143.793 22.2677 143.793 23.6259V33.7329L143.929 38.9278H141.337V34.8986H141.235C139.643 37.8338 137.063 39.3013 133.494 39.3013C131.758 39.3013 130.302 38.9806 129.125 38.3393C127.955 37.6904 127.091 36.8566 126.533 35.838C125.982 34.8194 125.707 33.7329 125.707 32.5784C125.707 29.3113 126.99 27.1345 129.555 26.0479C132.128 24.9614 135.391 24.4181 139.345 24.4181H140.873V23.5806C140.873 19.3477 139.047 17.2312 135.395 17.2312C132.83 17.2312 130.468 17.8348 128.31 19.0421ZM140.873 26.8741H138.225C135.342 26.8741 133.045 27.2778 131.332 28.0852C129.627 28.885 128.774 30.3186 128.774 32.386C128.774 33.2839 128.989 34.0724 129.419 34.7515C129.857 35.423 130.43 35.9399 131.139 36.3021C131.856 36.6642 132.626 36.8453 133.448 36.8453C135.063 36.8453 136.425 36.4945 137.534 35.7927C138.651 35.0835 139.485 34.1064 140.035 32.8614C140.594 31.6089 140.873 30.1866 140.873 28.5945V26.8741Z" fill="white"/>
<path d="M150.121 37.6761L150.816 32.0204C152.114 32.6076 153.474 33.0867 154.896 33.4575C156.317 33.7975 157.631 33.9675 158.836 33.9675C160.412 33.9675 161.664 33.5966 162.591 32.8549C163.549 32.0822 164.028 31.155 164.028 30.0733C164.028 28.6517 163.395 27.5082 162.128 26.6428C161.88 26.4574 160.381 25.7002 157.631 24.3712C154.911 23.0114 153.057 21.8061 152.068 20.7553C150.677 19.3027 149.982 17.4638 149.982 15.2386C149.982 13.1061 150.569 11.2518 151.743 9.67557C153.505 7.29583 156.317 6.10596 160.181 6.10596C162.035 6.10596 163.92 6.27594 165.836 6.6159C167.289 6.86315 168.494 7.15675 169.452 7.49671L168.757 12.6889C167.644 12.2253 166.454 11.8544 165.187 11.5763C163.92 11.2672 162.746 11.1127 161.664 11.1127C159.841 11.1127 158.512 11.5454 157.677 12.4107C157.09 13.0288 156.796 13.7397 156.796 14.5432C156.796 15.7485 157.291 16.7684 158.28 17.6029C158.898 18.1283 159.841 18.6537 161.108 19.1791C163.426 20.1681 164.986 20.8943 165.79 21.3579C167.428 22.2851 168.649 23.3359 169.452 24.5103C170.441 25.9629 170.936 27.74 170.936 29.8416C170.936 32.4376 169.993 34.5856 168.108 36.2854C165.914 38.2943 162.73 39.2987 158.558 39.2987C156.92 39.2987 155.483 39.1751 154.247 38.9278C153.01 38.6497 151.635 38.2325 150.121 37.6761Z" fill="white"/>
<path d="M178.435 19.5499H173.706V14.9141H178.435V10.1392L184.739 8.14573V14.9141H190.302V19.5499H184.739V30.4442C184.739 31.9277 184.878 32.9321 185.157 33.4575C185.589 34.2611 186.486 34.6628 187.845 34.6628C188.371 34.6628 188.803 34.6319 189.143 34.5701C189.483 34.5083 189.87 34.4001 190.302 34.2456V38.696C189.622 38.8506 188.834 38.9896 187.938 39.1133C187.073 39.2369 186.238 39.2987 185.435 39.2987C182.622 39.2987 180.644 38.3561 179.501 36.4708C178.79 35.2964 178.435 33.7666 178.435 31.8813V19.5499Z" fill="white"/>
<path d="M196.12 21.0798V16.1194C197.603 15.5322 199.025 15.1304 200.385 14.9141C201.775 14.6668 203.29 14.5432 204.928 14.5432C209.347 14.5432 212.392 15.7022 214.06 18.0201C215.049 19.4109 215.544 21.327 215.544 23.7686V38.9278H209.378V35.4046C208.544 36.9499 207.246 38.047 205.484 38.696C204.372 39.0978 203.135 39.2987 201.775 39.2987C198.839 39.2987 196.614 38.4952 195.1 36.8881C193.864 35.5591 193.245 33.9211 193.245 31.974C193.245 29.687 194.034 27.879 195.61 26.5501C197.588 24.8812 200.771 24.0467 205.16 24.0467H206.968L208.683 24.0931H209.239L209.193 23.0732C209.193 21.6824 208.667 20.6471 207.617 19.9672C206.597 19.2872 205.33 18.9473 203.815 18.9473C202.548 18.9473 201.296 19.1018 200.06 19.4109C198.855 19.7199 197.541 20.2762 196.12 21.0798ZM209.239 28.0336H208.173C205.639 28.0336 203.846 28.1726 202.795 28.4508C200.694 29.0071 199.643 30.1661 199.643 31.9277C199.643 32.824 199.906 33.5348 200.431 34.0602C201.08 34.7092 202.1 35.0337 203.491 35.0337C205.16 35.0337 206.489 34.5701 207.478 33.643C208.652 32.5303 209.239 30.8614 209.239 28.6362V28.0336Z" fill="white"/>
<path d="M221.573 14.9141H227.322V20.1062C227.723 18.4064 228.496 17.062 229.639 16.0731C230.814 15.0532 232.236 14.5432 233.904 14.5432C234.183 14.5432 234.523 14.5741 234.924 14.6359C235.357 14.6977 235.712 14.7596 235.991 14.8214L235.759 19.4109L233.719 19.2718C232.297 19.2718 231.092 19.7354 230.103 20.6626C228.62 22.0533 227.878 24.294 227.878 27.3845V38.9278H221.573V14.9141Z" fill="white"/>
<path d="M242.132 19.5499H237.404V14.9141H242.132V10.1392L248.437 8.14573V14.9141H254V19.5499H248.437V30.4442C248.437 31.9277 248.576 32.9321 248.854 33.4575C249.287 34.2611 250.183 34.6628 251.543 34.6628C252.069 34.6628 252.501 34.6319 252.841 34.5701C253.181 34.5083 253.568 34.4001 254 34.2456V38.696C253.32 38.8506 252.532 38.9896 251.636 39.1133C250.771 39.2369 249.936 39.2987 249.133 39.2987C246.32 39.2987 244.342 38.3561 243.199 36.4708C242.488 35.2964 242.132 33.7666 242.132 31.8813V19.5499Z" fill="white"/>
</svg>
