<svg id="бери_и_прел_копия_2" data-name="бери и прел копия 2" xmlns="http://www.w3.org/2000/svg" width="855.38" height="256.688" viewBox="0 0 855.38 256.688">
  <defs>
    <style>
      .cls-1 {
        fill: none;
        stroke: #fff;
        stroke-width: 7px;
      }

      .cls-1, .cls-2 {
        fill-rule: evenodd;
      }

      .cls-2 {
        fill: #fff;
      }
    </style>
  </defs>
  <path id="Прямоугольник_скругл._углы_2" data-name="Прямоугольник, скругл. углы 2" class="cls-1" d="M916.939,594.414l784.251-89.447c13.9-1.584,26.2,6.227,27.48,17.448l13.61,119.194c1.28,11.22-8.95,21.6-22.85,23.186L935.184,754.24c-13.9,1.586-26.2-6.225-27.483-17.447L894.1,617.6C892.814,606.38,903.042,596,916.939,594.414Z" transform="translate(-890.5 -501.25)"/>
  <path id="Бери" class="cls-2" d="M945.323,645.246l6.15-.7c4.061-.463,6.361,1.155,6.672,3.881,0.371,3.249-1.745,5.312-4.877,5.67l-6.846.781Zm21.885,2.263c-0.993-8.7-7.5-11.662-15.913-10.7l-6.846.781-0.953-8.354,13.169-1.5a3.952,3.952,0,0,0,3.663-4.473,3.888,3.888,0,0,0-4.576-3.533L938.464,621.7c-2.669.3-4.405,2.089-4.087,4.874l3.714,32.545a4.324,4.324,0,0,0,5.144,3.88l11.951-1.364C963.191,660.72,968.142,655.689,967.208,647.509Zm27.55-3.2c2.552-.292,3.515-1.636,3.231-4.13-0.8-6.962-7.71-14.518-16.76-13.485-8.818,1.006-14.087,9.423-13.121,17.893,1.053,9.224,8.1,15.355,17.5,14.283,6.208-.708,13.236-5.037,12.826-8.633a3.733,3.733,0,0,0-3.833-3.207c-2.2.252-4.779,3.954-9.072,4.444-3.887.444-7.529-1.08-8.579-5.133Zm-18.62-3.518c0-3.585,2.172-6.712,5.885-7.136,3.887-.443,6.519,2.019,7.4,5.621Zm27.592,23.416c0.31,2.785,2.27,4.443,4.7,4.165s3.97-2.333,3.65-5.118l-1.16-10.21a11.965,11.965,0,0,0,7.98,2.026c8.42-.959,12.86-9.4,11.96-17.29-0.93-8.122-6.35-16.024-15.35-15-3.13.357-6.23,2-7.51,4.735-0.77-2.144-2.25-3.269-4.57-3-2.44.278-3.966,2.333-3.648,5.118Zm5.65-24.623c-0.46-4.061,1.15-8.476,5.62-8.986,4.35-.5,7.02,3.842,7.47,7.787,0.44,3.887-1.19,8.657-5.54,9.153C1012.35,648.059,1009.84,643.643,1009.38,639.582Zm53.74,5.387-2.54-22.277c-0.32-2.785-2.27-4.442-4.71-4.164a5.629,5.629,0,0,0-3.88,3.029l-9.06,15.373-0.12.013-1.38-12.067c-0.31-2.784-2.27-4.442-4.7-4.164s-3.97,2.333-3.65,5.118l2.54,22.277c0.32,2.785,2.27,4.442,4.71,4.164a4.153,4.153,0,0,0,3.2-2.3l9.72-16.329,0.11-.013,1.41,12.3c0.31,2.784,2.27,4.442,4.7,4.164S1063.44,647.754,1063.12,644.969Z" transform="translate(-890.5 -501.25)"/>
  <path id="и" class="cls-2" d="M1095.1,643.1l-1.5-13.138a2.5,2.5,0,0,0-2.77-2.456,3.294,3.294,0,0,0-2.29,1.786l-5.35,9.067-0.07.008-0.81-7.117a2.494,2.494,0,1,0-4.93.562l1.5,13.139a2.508,2.508,0,0,0,2.78,2.456,2.455,2.455,0,0,0,1.89-1.359l5.73-9.631,0.07-.008,0.83,7.254A2.49,2.49,0,1,0,1095.1,643.1Z" transform="translate(-890.5 -501.25)"/>
  <path id="занимайся" class="cls-2" d="M965.8,709.831a8.247,8.247,0,0,0-6.231-7.223,7.264,7.264,0,0,0,3.009-7.1c-0.463-4.061-3.936-7.72-10.55-6.965-4.119.47-10.572,3.145-10.1,7.264a3.632,3.632,0,0,0,3.846,3.323c1.567-.179,3.667-2.887,6.394-3.2,1.972-.225,2.678.811,2.784,1.739,0.5,4.351-6.106,2.107-5.577,6.748,0.589,5.164,7.6.133,8.258,5.934,0.212,1.857-1.19,2.957-3.337,3.2-3.945.45-4.785-2.275-8.033-1.9-2.321.265-3.319,2.847-3.174,4.124,0.431,3.771,6.7,5.7,12.621,5.024C962.9,719.976,966.4,715.11,965.8,709.831Zm10.757-1.522c-0.583-5.105,5.8-5.3,10.847-5.88l0.153,1.334c0.456,4-1.258,6.491-5.609,6.987C979.451,711.035,976.813,710.572,976.555,708.309Zm12.118,5.259c0.936,2.537,2.5,2.829,4.3,2.624a4.2,4.2,0,0,0,3.551-4.93l-2.065-18.1c-0.688-6.033-5.359-8.85-13.074-7.97-4.932.563-11.272,4.225-10.888,7.59a3.421,3.421,0,0,0,4.058,3.122c2.2-.252,2.751-3.194,7.624-3.75,2.32-.265,3.721.163,3.906,1.788l0.258,2.262c-7.715.88-18.889,3.389-17.79,13.02,0.748,6.555,5.953,9.429,12.683,8.661C984.017,717.566,987.481,716,988.673,713.568Zm39.8-6.127-2.55-22.278c-0.31-2.784-2.27-4.442-4.7-4.164s-3.97,2.333-3.65,5.117l0.78,6.846-10.79,1.231-0.78-6.845c-0.32-2.785-2.27-4.443-4.71-4.165s-3.963,2.333-3.645,5.118l2.545,22.277c0.31,2.785,2.27,4.443,4.7,4.165s3.97-2.333,3.65-5.118l-0.93-8.122,10.79-1.231,0.93,8.122c0.32,2.784,2.27,4.442,4.71,4.164S1028.78,710.225,1028.47,707.441Zm32.25-3.681-2.54-22.277c-0.32-2.785-2.27-4.443-4.71-4.165a5.614,5.614,0,0,0-3.88,3.03l-9.06,15.373-0.12.013-1.38-12.067c-0.31-2.784-2.27-4.442-4.7-4.164s-3.97,2.333-3.65,5.118l2.54,22.277c0.32,2.784,2.27,4.442,4.71,4.164a4.153,4.153,0,0,0,3.2-2.305l9.72-16.329,0.11-.013,1.41,12.3c0.31,2.785,2.27,4.443,4.7,4.165S1061.04,706.545,1060.72,703.76Zm42.89-4.247a4.441,4.441,0,0,0-.15-0.805l-6.81-22.613c-0.49-1.649-2.8-3.383-5.7-3.053a5.588,5.588,0,0,0-4.83,4.019l-3.02,15.8-0.11.014-6.56-14.709a5.586,5.586,0,0,0-5.61-2.827c-2.84.325-4.71,2.535-4.81,4.251l-1.54,23.566a3.73,3.73,0,0,0,.04.819,3.95,3.95,0,0,0,4.4,3.553,4.022,4.022,0,0,0,3.93-4.21l0.34-15.5,0.12-.013,6.47,15.482a4.129,4.129,0,0,0,4.69,2.463c2.95-.338,3.8-2.2,4.01-3.455l2.87-16.548,0.12-.014,3.88,15.013a4.029,4.029,0,0,0,4.78,3.217A3.919,3.919,0,0,0,1103.61,699.513Zm10.14-6.858c-0.58-5.105,5.81-5.3,10.85-5.88l0.15,1.334c0.46,4-1.25,6.49-5.6,6.987C1116.65,695.381,1114.01,694.918,1113.75,692.655Zm12.12,5.258c0.94,2.538,2.5,2.83,4.3,2.625a4.2,4.2,0,0,0,3.55-4.931l-2.06-18.1c-0.69-6.033-5.36-8.85-13.08-7.97-4.93.563-11.27,4.225-10.89,7.589a3.421,3.421,0,0,0,4.06,3.122c2.21-.251,2.75-3.193,7.63-3.749,2.32-.265,3.72.163,3.9,1.787l0.26,2.263c-7.72.88-18.89,3.389-17.79,13.02,0.75,6.555,5.95,9.429,12.68,8.661C1121.22,701.912,1124.68,700.341,1125.87,697.913Zm13.61-37.813c0.5,4.351,6.14,5.411,9.68,5.007,3.48-.4,8.78-2.882,8.31-7.059-0.17-1.508-1.5-3.355-3.01-3.183-3.77.43-2.8,4.316-5.93,4.673-3.6.41-3.24-3.627-6.83-3.217C1139.78,656.54,1139.3,658.476,1139.48,660.1Zm26.19,31.686-2.55-22.277c-0.31-2.785-2.27-4.442-4.7-4.164a5.625,5.625,0,0,0-3.89,3.029l-9.06,15.373-0.11.013-1.38-12.067c-0.32-2.784-2.27-4.442-4.71-4.164s-3.96,2.333-3.64,5.118l2.54,22.277c0.31,2.785,2.27,4.442,4.7,4.164a4.169,4.169,0,0,0,3.21-2.3l9.71-16.329,0.12-.013,1.4,12.3c0.32,2.784,2.27,4.442,4.71,4.164S1165.98,694.571,1165.67,691.786Zm26.2-25.263c-0.46-4.061-7.5-4.492-10.81-4.115-8.82,1.006-14.09,9.424-13.12,17.894,0.99,8.7,7.81,15.388,16.8,14.362,3.02-.344,10.05-2.615,9.56-6.908a3.7,3.7,0,0,0-4.02-3.245c-0.98.113-3.92,2.211-6.01,2.449-4.52.516-7.51-3.492-7.98-7.611-0.49-4.293,1.29-8.786,6.05-9.329,2.67-.3,4.71,1.108,6.8.87C1191.11,670.665,1192.07,668.263,1191.87,666.523Zm18.79,7.024-2.84.325c-2.38.271-4.22-.929-4.5-3.366-0.29-2.5,1.24-4.021,3.62-4.292l2.84-.325Zm-7.82,5.124-5.81,7.832a3.283,3.283,0,0,0-.78,2.44,4.014,4.014,0,0,0,7.27,1.874l7.65-11.745,0.12-.013,0.84,7.425c0.32,2.785,2.27,4.443,4.71,4.165s3.97-2.333,3.65-5.118l-2.5-21.929c-0.32-2.785-2.27-4.443-4.71-4.165l-8.64.987c-6.68.761-10.45,4.248-9.68,11.035C1195.47,675.868,1198.84,678.128,1202.84,678.671Z" transform="translate(-890.5 -501.25)"/>
</svg>
