<svg width="158" height="127" viewBox="0 0 158 127" fill="none" xmlns="http://www.w3.org/2000/svg">
<path d="M138.164 0L157.828 21.5726C142.648 35.4904 133.047 45.1749 129.022 50.626C124.997 55.9612 121.777 62.5142 119.362 70.2849C121.547 68.6612 123.732 67.5014 125.917 66.8055C128.217 65.9936 130.517 65.5877 132.817 65.5877C139.486 65.5877 145.351 68.3712 150.41 73.9384C155.47 79.5055 158 86.2324 158 94.1192C158 103.398 154.78 111.226 148.341 117.605C141.901 123.868 134.082 127 124.882 127C118.098 127 111.543 125.086 105.218 121.259C99.0087 117.316 94.1215 111.98 90.5568 105.253C87.107 98.4105 85.3821 90.5237 85.3821 81.5931C85.3821 66.8635 90.2118 52.4817 99.8712 38.4479C109.646 24.4142 122.41 11.5982 138.164 0ZM52.7817 0L72.4454 21.5726C57.1514 35.4904 47.492 45.1749 43.4672 50.626C39.5575 55.9612 36.3952 62.5142 33.9804 70.2849C36.1652 68.6612 38.3501 67.5014 40.5349 66.8055C42.8348 65.9936 45.1346 65.5877 47.4345 65.5877C54.1041 65.5877 59.9112 68.3712 64.8559 73.9384C69.9156 79.5055 72.4454 86.2324 72.4454 94.1192C72.4454 103.398 69.2256 111.226 62.786 117.605C56.4614 123.868 48.6994 127 39.5 127C32.7154 127 26.1608 125.086 19.8362 121.259C13.6266 117.316 8.73945 111.98 5.17467 105.253C1.72489 98.4105 0 90.5237 0 81.5931C0 66.8635 4.82969 52.4817 14.4891 38.4479C24.2635 24.4142 37.0277 11.5982 52.7817 0Z" fill="#E0E0E0"/>
</svg>
