<svg width="231" height="68" viewBox="0 0 231 68" fill="none" xmlns="http://www.w3.org/2000/svg">
<path fill-rule="evenodd" clip-rule="evenodd" d="M221.907 68H8.53815C3.83242 68 0 64.1676 0 59.5V8.5C0 3.81546 3.83242 0 8.53815 0H221.907C226.609 0 230.445 3.81546 230.445 8.5V59.5C230.445 64.1676 226.609 68 221.907 68Z" fill="black"/>
<path d="M121.399 22.4974C119.86 22.4974 118.563 21.959 117.537 20.8992C116.519 19.869 115.951 18.4488 115.977 16.9989C115.977 15.4515 116.503 14.1415 117.537 13.1029C118.559 12.043 119.856 11.5046 121.395 11.5046C122.917 11.5046 124.214 12.043 125.257 13.1029C126.291 14.1755 126.817 15.4854 126.817 16.9989C126.8 18.5505 126.274 19.8605 125.257 20.8949C124.235 21.9632 122.938 22.4974 121.399 22.4974ZM75.6093 22.4974C74.1043 22.4974 72.7986 21.9675 71.7302 20.9203C70.6704 19.8775 70.132 18.559 70.132 17.0031C70.132 15.4473 70.6704 14.1288 71.7302 13.0859C72.7774 12.0388 74.0831 11.5089 75.6093 11.5089C76.3554 11.5089 77.0804 11.6573 77.7756 11.9583C78.4582 12.2508 79.0135 12.6493 79.4247 13.1368L79.5265 13.2598L78.3776 14.3874L78.2589 14.2475C77.6103 13.476 76.7412 13.0987 75.5923 13.0987C74.5664 13.0987 73.6719 13.4632 72.9342 14.1839C72.1923 14.9089 71.815 15.8585 71.815 17.0074C71.815 18.1563 72.1923 19.1059 72.9342 19.8308C73.6719 20.5515 74.5664 20.9161 75.5923 20.9161C76.6861 20.9161 77.606 20.5515 78.3225 19.8308C78.7464 19.4069 79.0093 18.8134 79.1025 18.063H75.4185V16.4775H80.6838L80.705 16.6216C80.7432 16.8887 80.7813 17.1642 80.7813 17.4186C80.7813 18.8812 80.3404 20.064 79.4671 20.9373C78.4751 21.9717 77.1779 22.4974 75.6093 22.4974ZM136.491 22.2727H134.868L129.895 14.3154L129.937 15.7483V22.2685H128.313V11.7336H130.166L130.217 11.8141L134.893 19.3094L134.851 17.8807V11.7336H136.491V22.2727V22.2727ZM109.198 22.2727H107.553V13.3191H104.7V11.7336H112.047V13.3191H109.194V22.2727H109.198ZM103.36 22.2727H101.72V11.7336H103.36V22.2727ZM94.1397 22.2727H92.499V13.3191H89.6459V11.7336H96.9928V13.3191H94.1397V22.2727ZM88.6073 22.2558H82.316V11.7336H88.6073V13.3191H83.9609V16.2104H88.1537V17.779H83.9609V20.6702H88.6073V22.2558ZM118.741 19.8096C119.474 20.543 120.365 20.9119 121.399 20.9119C122.463 20.9119 123.332 20.5515 124.057 19.8096C124.778 19.0889 125.142 18.1435 125.142 17.0031C125.142 15.8627 124.778 14.9131 124.061 14.1967C123.328 13.4632 122.433 13.0944 121.403 13.0944C120.339 13.0944 119.47 13.4548 118.749 14.1967C118.029 14.9174 117.664 15.8627 117.664 17.0031C117.664 18.1435 118.024 19.0932 118.741 19.8096Z" fill="white"/>
<path fill-rule="evenodd" clip-rule="evenodd" d="M115.825 36.9855C111.819 36.9855 108.571 40.0251 108.571 44.2179C108.571 48.3725 111.84 51.4503 115.825 51.4503C119.831 51.4503 123.079 48.3895 123.079 44.2179C123.079 40.0251 119.831 36.9855 115.825 36.9855ZM115.825 48.5845C113.633 48.5845 111.747 46.77 111.747 44.2009C111.747 41.5937 113.638 39.8174 115.825 39.8174C118.017 39.8174 119.903 41.5937 119.903 44.2009C119.908 46.787 118.017 48.5845 115.825 48.5845ZM99.9993 36.9855C95.9931 36.9855 92.7457 40.0251 92.7457 44.2179C92.7457 48.3725 96.0143 51.4503 99.9993 51.4503C104.006 51.4503 107.253 48.3895 107.253 44.2179C107.253 40.0251 104.001 36.9855 99.9993 36.9855ZM99.9993 48.5845C97.8076 48.5845 95.921 46.77 95.921 44.2009C95.921 41.5937 97.8118 39.8174 99.9993 39.8174C102.191 39.8174 104.078 41.5937 104.078 44.2009C104.078 46.787 102.191 48.5845 99.9993 48.5845ZM81.1679 39.1942V42.2551H88.5148C88.2901 43.972 87.722 45.2396 86.8529 46.1087C85.7761 47.1855 84.1143 48.3556 81.1849 48.3556C76.6699 48.3556 73.1385 44.7097 73.1385 40.1947C73.1385 35.6797 76.6699 32.0339 81.1849 32.0339C83.6225 32.0339 85.3988 32.9962 86.7173 34.2256L88.8879 32.0551C87.0564 30.2999 84.6188 28.9561 81.2018 28.9561C75.008 28.9561 69.8105 34.0009 69.8105 40.1778C69.8105 46.3715 75.0038 51.3994 81.2018 51.3994C84.5467 51.3994 87.0564 50.3057 89.0405 48.2453C91.0627 46.2231 91.7028 43.37 91.7028 41.068C91.7028 40.3516 91.6477 39.7072 91.5332 39.1603H81.1637C81.1679 39.1561 81.1679 39.1942 81.1679 39.1942ZM158.194 41.5768C157.587 39.9531 155.756 36.9685 152 36.9685C148.278 36.9685 145.183 39.8979 145.183 44.2009C145.183 48.2623 148.244 51.4334 152.36 51.4334C155.667 51.4334 157.592 49.4112 158.384 48.2241L155.93 46.5792C155.116 47.7875 153.984 48.5802 152.377 48.5802C150.753 48.5802 149.617 47.8426 148.863 46.3885L158.533 42.3822C158.533 42.3865 158.194 41.5768 158.194 41.5768ZM148.333 43.9932C148.256 41.1994 150.503 39.7792 152.11 39.7792C153.378 39.7792 154.433 40.4024 154.794 41.3097L148.333 43.9932ZM140.477 51.0009H143.652V29.7531H140.477V51.0009ZM135.263 38.5922H135.148C134.432 37.7401 133.071 36.9685 131.333 36.9685C127.725 36.9685 124.401 40.1438 124.401 44.2221C124.401 48.2835 127.708 51.4206 131.333 51.4206C133.05 51.4206 134.432 50.6448 135.148 49.7758H135.263V50.8144C135.263 53.5743 133.787 55.0623 131.409 55.0623C129.463 55.0623 128.255 53.6633 127.763 52.4932L125.003 53.6463C125.796 55.5541 127.912 57.9154 131.405 57.9154C135.127 57.9154 138.281 55.7236 138.281 50.3778V37.4009H135.28V38.5922C135.284 38.5922 135.263 38.5922 135.263 38.5922ZM131.617 48.5845C129.425 48.5845 127.594 46.7531 127.594 44.2221C127.594 41.67 129.425 39.8216 131.617 39.8216C133.787 39.8216 135.47 41.6912 135.47 44.2221C135.492 46.7531 133.792 48.5845 131.617 48.5845ZM173.061 29.7531H165.468V51.0009H168.644V42.9546H173.065C176.58 42.9546 180.035 40.4067 180.035 36.3623C180.035 32.3179 176.593 29.7531 173.061 29.7531ZM173.155 39.987H168.64V32.6952H173.155C175.533 32.6952 176.877 34.6581 176.877 36.3411C176.877 38.0072 175.516 39.987 173.155 39.987ZM192.762 36.9473C190.456 36.9473 188.077 37.969 187.094 40.1947L189.909 41.3648C190.515 40.1947 191.626 39.7962 192.8 39.7962C194.445 39.7962 196.107 40.7797 196.145 42.5349V42.7595C195.577 42.4374 194.33 41.9456 192.838 41.9456C189.798 41.9456 186.716 43.6074 186.716 46.7234C186.716 49.5765 189.209 51.4079 191.986 51.4079C194.118 51.4079 195.293 50.4456 196.026 49.3306H196.141V50.9755H199.201V42.8359C199.201 39.0458 196.386 36.9473 192.762 36.9473ZM192.363 48.5845C191.325 48.5845 189.87 48.0758 189.87 46.77C189.87 45.1251 191.685 44.5019 193.232 44.5019C194.631 44.5019 195.293 44.8029 196.124 45.2184C195.895 47.1261 194.284 48.5675 192.363 48.5845ZM210.368 37.4009L206.722 46.6174H206.608L202.83 37.4009H199.413L205.081 50.2845L201.851 57.4448H205.158L213.878 37.4009H210.368ZM181.786 51.0009H184.961V29.7531H181.786V51.0009Z" fill="white"/>
<path fill-rule="evenodd" clip-rule="evenodd" d="M17.7353 12.8117C17.2435 13.3417 16.9595 14.1514 16.9595 15.2112V52.802C16.9595 53.8618 17.2435 54.6716 17.7522 55.1803L17.8837 55.2948L38.945 34.2334V33.7628L17.8667 12.6973L17.7353 12.8117Z" fill="url(#paint0_linear)"/>
<path fill-rule="evenodd" clip-rule="evenodd" d="M45.9549 41.2711L38.9302 34.2464V33.7547L45.9549 26.73L46.1075 26.8232L54.4167 31.5459C56.795 32.8856 56.795 35.0986 54.4167 36.4552L46.1075 41.1779L45.9549 41.2711Z" fill="url(#paint1_linear)"/>
<path fill-rule="evenodd" clip-rule="evenodd" d="M46.1089 41.1773L38.9316 34L17.7388 55.1928C18.5146 56.0237 19.8161 56.1169 21.2702 55.3072L46.1089 41.1773Z" fill="url(#paint2_linear)"/>
<path fill-rule="evenodd" clip-rule="evenodd" d="M46.1089 26.8192L21.2702 12.7105C19.8161 11.8796 18.5103 11.9941 17.7388 12.825L38.9316 33.9966L46.1089 26.8192Z" fill="url(#paint3_linear)"/>
<path opacity="0.2" fill-rule="evenodd" clip-rule="evenodd" d="M45.956 41.0227L21.2869 55.0382C19.9091 55.8309 18.6797 55.7758 17.8869 55.0551L17.7555 55.1865L17.8869 55.301C18.6797 56.0175 19.9091 56.0768 21.2869 55.284L46.1256 41.1753L45.956 41.0227Z" fill="black"/>
<path opacity="0.12" fill-rule="evenodd" clip-rule="evenodd" d="M54.4157 36.2087L45.9327 41.0247L46.0853 41.1773L54.3945 36.4546C55.5858 35.7763 56.1708 34.886 56.1708 34C56.0988 34.814 55.4925 35.5855 54.4157 36.2087Z" fill="black"/>
<path opacity="0.25" fill-rule="evenodd" clip-rule="evenodd" d="M21.2668 12.9582L54.4147 31.7896C55.4915 32.3959 56.0977 33.1886 56.191 33.9984C56.191 33.1123 55.606 32.222 54.4147 31.5437L21.2668 12.7123C18.8885 11.3514 16.9596 12.4876 16.9596 15.2051V15.451C16.9596 12.7293 18.8885 11.6143 21.2668 12.9582Z" fill="white"/>
<defs>
<linearGradient id="paint0_linear" x1="37.0558" y1="14.8057" x2="3.3192" y2="23.7948" gradientUnits="userSpaceOnUse">
<stop stop-color="#00A0FF"/>
<stop offset="0.00657" stop-color="#00A1FF"/>
<stop offset="0.2601" stop-color="#00BEFF"/>
<stop offset="0.5122" stop-color="#00D2FF"/>
<stop offset="0.7604" stop-color="#00DFFF"/>
<stop offset="1" stop-color="#00E3FF"/>
</linearGradient>
<linearGradient id="paint1_linear" x1="57.5182" y1="34.0006" x2="16.3836" y2="34.0006" gradientUnits="userSpaceOnUse">
<stop stop-color="#FFE000"/>
<stop offset="0.4087" stop-color="#FFBD00"/>
<stop offset="0.7754" stop-color="#FFA500"/>
<stop offset="1" stop-color="#FF9C00"/>
</linearGradient>
<linearGradient id="paint2_linear" x1="42.2061" y1="37.9055" x2="15.1225" y2="83.4895" gradientUnits="userSpaceOnUse">
<stop stop-color="#FF3A44"/>
<stop offset="1" stop-color="#C31162"/>
</linearGradient>
<linearGradient id="paint3_linear" x1="12.4022" y1="0.300484" x2="24.4853" y2="20.659" gradientUnits="userSpaceOnUse">
<stop stop-color="#32A071"/>
<stop offset="0.0685" stop-color="#2DA771"/>
<stop offset="0.4762" stop-color="#15CF74"/>
<stop offset="0.8009" stop-color="#06E775"/>
<stop offset="1" stop-color="#00F076"/>
</linearGradient>
</defs>
</svg>
