<svg width="13" height="13" viewBox="0 0 13 13" fill="none" xmlns="http://www.w3.org/2000/svg">
<path d="M12.0494 0.950777C10.7817 -0.316926 8.71983 -0.316926 7.45213 0.950777L5.59102 2.81186C5.51193 2.89095 5.48969 3.01054 5.53468 3.11264C5.57965 3.21501 5.67489 3.28062 5.79499 3.27402L5.87753 3.26793C6.01802 3.25498 6.16165 3.26554 6.30371 3.27877C6.54208 3.30045 6.79179 3.35098 7.06746 3.43299C7.16323 3.46234 7.26614 3.43538 7.33625 3.36499L8.60131 2.09993C9.21505 1.48619 10.2865 1.48619 10.9002 2.09993C11.5341 2.73378 11.5341 3.76497 10.9002 4.39882L9.08797 6.21105C8.94535 5.65198 8.66476 5.15095 8.25686 4.74325C7.723 4.20913 7.03067 3.88929 6.25476 3.81814C5.58122 3.75941 4.91746 3.90201 4.33627 4.23772C4.05875 4.39857 3.84369 4.55914 3.65956 4.74327L0.950586 7.45222C-0.316862 8.71965 -0.316862 10.7821 0.950586 12.0495C1.58446 12.6833 2.41672 13 3.24925 13C4.08178 13 4.91403 12.6833 5.54791 12.0495L7.40848 10.189C7.48732 10.1101 7.50982 9.99108 7.4651 9.88896C7.42039 9.78684 7.31352 9.71806 7.20663 9.72679L7.12065 9.73289C6.9823 9.74637 6.83892 9.73421 6.69633 9.72126C6.45849 9.69957 6.2085 9.64905 5.93232 9.56704C5.83602 9.53819 5.73392 9.56465 5.66382 9.63529L4.39876 10.9003C3.78501 11.5141 2.71358 11.5141 2.09984 10.9003C1.46599 10.2665 1.46599 9.23531 2.09984 8.60146L3.9121 6.78922C4.05471 7.3483 4.33531 7.84933 4.74321 8.25701C5.27732 8.79112 5.96965 9.11097 6.74556 9.18186C6.84661 9.19113 6.94741 9.19562 7.04794 9.19562C7.61646 9.19562 8.16987 9.048 8.66379 8.76256C8.94131 8.60171 9.15637 8.44114 9.3405 8.25701L12.0495 5.54805C13.3168 4.28061 13.3168 2.2182 12.0494 0.950777ZM7.50748 7.50824C6.92327 7.68574 6.30945 7.52464 5.89236 7.10778C5.46945 6.68487 5.32137 6.0629 5.49246 5.49227C6.07774 5.31565 6.69102 5.47605 7.10768 5.89245C7.53066 6.31544 7.67866 6.93753 7.50748 7.50824Z" fill="#939393"/>
</svg>
