<svg width="19" height="21" viewBox="0 0 19 21" fill="none" xmlns="http://www.w3.org/2000/svg">
<path fill-rule="evenodd" clip-rule="evenodd" d="M0.366832 0.524338C0.134305 0.774906 0 1.15778 0 1.65891V19.4332C0 19.9344 0.134304 20.3172 0.37485 20.5578L0.436991 20.6119L10.3956 10.6533V10.4308L0.428973 0.470215L0.366832 0.524338Z" fill="url(#paint0_linear)"/>
<path fill-rule="evenodd" clip-rule="evenodd" d="M13.7101 13.9811L10.3886 10.6595V10.427L13.7101 7.10547L13.7823 7.14957L17.7112 9.38264C18.8357 10.0161 18.8357 11.0624 17.7112 11.7039L13.7823 13.937L13.7101 13.9811Z" fill="url(#paint1_linear)"/>
<path fill-rule="evenodd" clip-rule="evenodd" d="M13.7829 13.9367L10.3892 10.543L0.368484 20.5637C0.735317 20.9566 1.35071 21.0007 2.03828 20.6178L13.7829 13.9367Z" fill="url(#paint2_linear)"/>
<path fill-rule="evenodd" clip-rule="evenodd" d="M13.7829 7.14766L2.03828 0.47652C1.35071 0.0836286 0.733313 0.137752 0.368484 0.530643L10.3892 10.5414L13.7829 7.14766Z" fill="url(#paint3_linear)"/>
<defs>
<linearGradient id="paint0_linear" x1="9.50232" y1="1.46715" x2="-6.44964" y2="5.71757" gradientUnits="userSpaceOnUse">
<stop stop-color="#00A0FF"/>
<stop offset="0.00657" stop-color="#00A1FF"/>
<stop offset="0.2601" stop-color="#00BEFF"/>
<stop offset="0.5122" stop-color="#00D2FF"/>
<stop offset="0.7604" stop-color="#00DFFF"/>
<stop offset="1" stop-color="#00E3FF"/>
</linearGradient>
<linearGradient id="paint1_linear" x1="19.1777" y1="10.5433" x2="-0.272303" y2="10.5433" gradientUnits="userSpaceOnUse">
<stop stop-color="#FFE000"/>
<stop offset="0.4087" stop-color="#FFBD00"/>
<stop offset="0.7754" stop-color="#FFA500"/>
<stop offset="1" stop-color="#FF9C00"/>
</linearGradient>
<linearGradient id="paint2_linear" x1="11.9376" y1="12.3896" x2="-0.868567" y2="33.9435" gradientUnits="userSpaceOnUse">
<stop stop-color="#FF3A44"/>
<stop offset="1" stop-color="#C31162"/>
</linearGradient>
<linearGradient id="paint3_linear" x1="-2.15485" y1="-5.39141" x2="3.55849" y2="4.23487" gradientUnits="userSpaceOnUse">
<stop stop-color="#32A071"/>
<stop offset="0.0685" stop-color="#2DA771"/>
<stop offset="0.4762" stop-color="#15CF74"/>
<stop offset="0.8009" stop-color="#06E775"/>
<stop offset="1" stop-color="#00F076"/>
</linearGradient>
</defs>
</svg>
