<svg width="15" height="11" viewBox="0 0 15 11" fill="none" xmlns="http://www.w3.org/2000/svg">
<path d="M14.6909 1.79717C14.518 1.15459 14.0114 0.648077 13.3689 0.475043C12.1951 0.153809 7.49985 0.153809 7.49985 0.153809C7.49985 0.153809 2.80471 0.153809 1.63089 0.462798C1.00078 0.635717 0.481794 1.1547 0.308875 1.79717C0 2.97087 0 5.40502 0 5.40502C0 5.40502 0 7.85142 0.308875 9.01287C0.481909 9.65534 0.988422 10.162 1.63101 10.335C2.81707 10.6562 7.49997 10.6562 7.49997 10.6562C7.49997 10.6562 12.1951 10.6562 13.3689 10.3472C14.0115 10.1743 14.518 9.6677 14.6911 9.02523C14.9999 7.85142 14.9999 5.41738 14.9999 5.41738C14.9999 5.41738 15.0123 2.97087 14.6909 1.79717Z" fill="#FF0000"/>
<path d="M6.00488 7.65378L9.90926 5.40501L6.00488 3.15625V7.65378Z" fill="white"/>
</svg>
