<svg width="32" height="31" viewBox="0 0 32 31" fill="none" xmlns="http://www.w3.org/2000/svg">
<path d="M15.75 30.0123C24.4485 30.0123 31.5 23.3835 31.5 15.2064C31.5 7.02935 24.4485 0.400543 15.75 0.400543C7.05152 0.400543 0 7.02935 0 15.2064C0 23.3835 7.05152 30.0123 15.75 30.0123Z" fill="white"/>
<path d="M27.8578 26.5884L27.0703 20.7123C28.0055 19.0004 28.5961 17.0571 28.5961 15.0213C28.5469 8.21989 22.7391 2.71399 15.5039 2.71399C8.26876 2.71399 2.461 8.21989 2.461 14.975C2.461 21.7302 8.318 27.2361 15.5039 27.2361C17.7187 27.2361 19.7859 26.7271 21.5578 25.8018L27.8578 26.5884Z" fill="#179FD6"/>
<path d="M15.5039 27.6988C8.07181 27.6988 1.96875 22.0078 1.96875 14.9751C1.96875 7.9423 8.07187 2.25131 15.5039 2.25131C22.9851 2.25131 29.039 7.9423 29.039 14.9751C29.039 16.9646 28.5468 19.0004 27.5624 20.7586L28.3006 26.4959C28.3006 26.6347 28.2514 26.7735 28.153 26.866C28.0546 26.9586 27.9069 27.0049 27.7592 27.0049L21.6561 26.3108C19.7859 27.2362 17.6695 27.6988 15.5039 27.6988ZM15.5039 3.17669C8.61324 3.17669 2.95307 8.49755 2.95307 14.9751C2.95307 21.4527 8.61324 26.7735 15.5039 26.7735C17.5218 26.7735 19.5398 26.3108 21.3609 25.4318C21.4593 25.3855 21.5577 25.3855 21.6562 25.3855L27.2671 26.0332L26.578 20.7587C26.578 20.6662 26.578 20.5736 26.6272 20.4811C27.5624 18.8154 28.0546 16.9184 28.0546 14.9752C28.0546 8.4975 22.4437 3.17669 15.5039 3.17669Z" fill="#183651"/>
<path d="M15.5038 25.3854C9.40072 25.3854 4.42963 20.7123 4.42963 14.975C4.42963 9.23776 9.40072 4.56467 15.5038 4.56467C21.607 4.56467 26.5781 9.23776 26.5781 14.975C26.5781 17.5198 25.6921 19.1392 25.0031 20.3421L25.5445 24.4137L21.2132 23.9048C20.3273 24.3675 18.457 25.3854 15.5038 25.3854Z" fill="white"/>
<path d="M14.0765 7.47958V15.5765L14.8148 18.3063H16.1437L16.9312 15.5765V7.47958H14.0765Z" fill="#0895CF"/>
<path d="M16.9312 19.7869H14.0765V22.4705H16.9312V19.7869Z" fill="#0895CF"/>
<path d="M9.5976 11.181H8.61322V12.1064H9.5976V11.181Z" fill="#183651"/>
<path d="M9.5976 14.5123H8.61322V15.4377H9.5976V14.5123Z" fill="#183651"/>
<path d="M9.5976 17.8437H8.61322V18.769H9.5976V17.8437Z" fill="#183651"/>
<path d="M22.3945 11.181H21.4101V12.1064H22.3945V11.181Z" fill="#183651"/>
<path d="M22.3945 14.5123H21.4101V15.4377H22.3945V14.5123Z" fill="#183651"/>
<path d="M22.3945 17.8437H21.4101V18.769H22.3945V17.8437Z" fill="#183651"/>
</svg>
