<svg width="110" height="21" viewBox="0 0 110 21" fill="none" xmlns="http://www.w3.org/2000/svg">
<path d="M60.482 20.778C59.2883 20.778 58.3184 19.8081 58.3184 18.6144V3.39456C58.3184 2.20085 59.2883 1.23096 60.482 1.23096C61.6757 1.23096 62.6456 2.20085 62.6456 3.39456V18.6144C62.6456 19.8081 61.6757 20.778 60.482 20.778Z" fill="white"/>
<path d="M28.9611 1.15479C28.9238 1.15479 28.8865 1.15479 28.8492 1.15479C28.8119 1.15479 28.7746 1.15479 28.7373 1.15479H23.0298C21.8361 1.15479 20.8662 2.12468 20.8662 3.31839C20.8662 3.3557 20.8662 3.3557 20.8662 3.3557V18.5756C20.8662 19.7693 21.8361 20.7392 23.0298 20.7392C24.2235 20.7392 25.1934 19.7693 25.1934 18.5756V15.4421H28.8492H28.8865H28.9238C32.878 15.4421 36.0861 12.2339 36.0861 8.27977C36.1234 4.36289 32.9153 1.15479 28.9611 1.15479ZM28.9611 11.1521H28.9238H28.8865H25.2307H22.9925L25.2307 10.4807V5.482H28.7746C28.8119 5.482 28.8492 5.482 28.8865 5.482C28.9238 5.482 28.9611 5.482 28.9984 5.482C30.5651 5.482 31.8335 6.75032 31.8335 8.31707C31.7962 9.88382 30.5278 11.1521 28.9611 11.1521Z" fill="white"/>
<path d="M53.8423 17.5684L50.7088 13.3531L49.4032 11.5625L51.3057 12.98C52.8724 11.7863 53.9169 9.88382 53.9169 7.75752C53.9169 4.10177 50.97 1.15479 47.3142 1.15479H47.2769H47.2396H41.4949C40.5996 1.15479 39.8162 1.71434 39.4805 2.49771C39.3686 2.75884 39.2939 3.05727 39.2939 3.393V18.6129C39.2939 19.8066 40.2638 20.7765 41.4576 20.7765C42.6513 20.7765 43.6212 19.8066 43.6212 18.6129V14.3229H46.0459L50.3731 20.1423C50.7834 20.7019 51.4549 21.0003 52.1264 21.0003C52.574 21.0003 53.0217 20.8511 53.3947 20.5899C54.3646 19.8812 54.5511 18.5383 53.8423 17.5684ZM47.3142 9.99573C47.2769 9.99573 47.2769 10.033 47.3142 9.99573C47.2769 9.99573 47.2396 9.99573 47.2396 9.99573H43.6585H41.7933L43.6585 9.43618V5.482H47.2396H47.2769H47.3142C48.5452 5.482 49.5897 6.4892 49.5897 7.75752C49.5524 8.98854 48.5452 9.99573 47.3142 9.99573Z" fill="white"/>
<path d="M81.2601 1.23096C80.0664 1.23096 79.0965 2.20085 79.0965 3.39456V10.5942L80.3648 13.9142L77.9028 10.7061L71.2255 2.05164C71.1882 2.01433 71.1509 1.97703 71.1509 1.93973C71.1136 1.86512 71.0389 1.82781 71.0016 1.79051C70.9643 1.75321 70.8897 1.7159 70.8524 1.6786C70.7778 1.6413 70.7405 1.60399 70.6659 1.56669C70.5913 1.52939 70.554 1.49208 70.4794 1.45478C70.4048 1.41748 70.3302 1.38017 70.2556 1.38017C70.181 1.34287 70.1437 1.34287 70.0691 1.30556C69.9944 1.26826 69.9198 1.26826 69.8452 1.26826C69.7706 1.26826 69.696 1.26826 69.6214 1.23096C69.5841 1.23096 69.5468 1.23096 69.4722 1.23096C69.4349 1.23096 69.4349 1.23096 69.3976 1.23096C69.323 1.23096 69.2484 1.23096 69.1738 1.26826C69.0992 1.26826 69.0246 1.30556 68.9873 1.30556C68.9126 1.30556 68.8753 1.34287 68.8007 1.38017C68.7261 1.41747 68.6515 1.41748 68.5769 1.45478C68.5023 1.49208 68.465 1.52939 68.4277 1.52939C68.3531 1.56669 68.2785 1.60399 68.2412 1.6413C68.2412 1.6413 68.2039 1.6786 68.1666 1.6786C68.1293 1.7159 68.092 1.75321 68.092 1.75321C68.0174 1.79051 67.9801 1.86512 67.9055 1.90242C67.8681 1.93973 67.8308 2.01433 67.7562 2.05164C67.7189 2.12624 67.6816 2.16355 67.6443 2.23815C67.607 2.31276 67.5697 2.35006 67.5324 2.42467C67.4951 2.49928 67.4578 2.53658 67.4578 2.61119C67.4205 2.6858 67.4205 2.7604 67.3832 2.79771C67.3832 2.87231 67.3459 2.94692 67.3459 2.98423C67.3459 3.05883 67.3459 3.13344 67.3086 3.20805C67.3086 3.24535 67.3086 3.28265 67.3086 3.31996V18.5398C67.3086 19.7335 68.2785 20.7034 69.4722 20.7034C70.6659 20.7034 71.6358 19.7335 71.6358 18.5398V11.0791L70.554 8.28133L73.0906 11.564L79.5069 19.8827C79.5442 19.9201 79.5442 19.9201 79.5815 19.9574C79.6561 20.032 79.7307 20.1066 79.8053 20.1812C79.8426 20.2185 79.8799 20.2558 79.9545 20.2931C80.0291 20.3677 80.1037 20.405 80.2156 20.4423C80.2529 20.4796 80.3275 20.4796 80.3648 20.5169C80.4768 20.5542 80.5887 20.5915 80.7006 20.6288C80.7379 20.6288 80.7752 20.6661 80.8125 20.6661C80.9617 20.7034 81.1109 20.7034 81.2601 20.7034C81.4093 20.7034 81.5213 20.7034 81.6705 20.6661C81.7078 20.6661 81.7451 20.6288 81.7824 20.6288C81.857 20.5915 81.9689 20.5915 82.0435 20.5542C82.0808 20.5169 82.1181 20.5169 82.1927 20.4796C82.2673 20.4423 82.3419 20.405 82.4165 20.3677C82.4538 20.3304 82.4912 20.3304 82.5285 20.2931C82.5658 20.2931 82.5658 20.2558 82.6031 20.2558C82.6404 20.2185 82.6777 20.1812 82.715 20.1439C82.7523 20.1066 82.8269 20.032 82.8642 19.9947C82.9015 19.9574 82.9761 19.8827 83.0134 19.8454C83.0507 19.8081 83.088 19.7335 83.1253 19.6962C83.1626 19.6216 83.1999 19.5843 83.2372 19.5097C83.2745 19.4351 83.3118 19.3978 83.3118 19.3232C83.3491 19.2486 83.3491 19.174 83.3864 19.0994C83.3864 19.0248 83.4237 18.9875 83.4237 18.9129C83.4237 18.8382 83.461 18.7636 83.461 18.689C83.461 18.6517 83.461 18.6144 83.461 18.5771V3.39456C83.4237 2.20085 82.4538 1.23096 81.2601 1.23096Z" fill="white"/>
<path d="M13.5911 9.77184C12.1363 8.87656 10.383 8.50352 8.70434 8.09318C7.51063 7.83206 6.31691 7.53363 5.57084 7.16059C5.04859 6.89947 5.04859 6.71295 5.04859 6.48913C5.04859 6.45182 5.04859 6.37722 5.04859 6.33991C4.86207 6.41452 4.67556 6.48913 4.52634 6.56374C4.26522 6.75025 4.00409 7.01138 3.85488 7.34711C3.89218 7.01138 4.0414 6.63834 4.26522 6.33991C4.48904 6.04149 4.82477 5.78036 5.1605 5.59384C5.49623 5.40732 5.86927 5.25811 6.24231 5.1835C6.31691 5.1462 6.39152 5.1462 6.50343 5.1462C8.294 4.69856 10.9053 5.1462 12.2482 6.00418C13.2554 6.67565 14.5983 6.37722 15.2325 5.37002C15.9039 4.36282 15.6055 3.0199 14.5983 2.38573C11.9498 0.595162 6.87647 -0.113606 3.66836 1.60236C1.76588 2.60956 0.721378 4.36282 0.721378 6.45182C0.721378 10.7417 4.93668 11.6743 7.73445 12.3085C10.9053 13.0173 11.9124 13.4649 12.1363 14.4721C12.3974 14.3602 12.6585 14.1737 12.845 13.9498C13.0689 13.726 13.2181 13.4649 13.3673 13.1665C13.3673 13.5022 13.2927 13.8379 13.1435 14.1364C12.9943 14.4721 12.8077 14.7705 12.5466 15.0316C12.2855 15.2928 11.9871 15.5166 11.6513 15.6658C11.614 15.6658 11.5767 15.7031 11.5767 15.7031C11.5021 15.7404 11.4275 15.7777 11.3902 15.815C9.48772 16.7849 5.75736 16.673 3.59375 15.1436C2.62386 14.4348 1.28093 14.6959 0.572163 15.6658C-0.136604 16.6357 0.124521 17.9786 1.09441 18.6874C3.0715 20.0676 5.75736 20.8137 8.36861 20.8137C10.1592 20.8137 11.8751 20.478 13.33 19.7692C15.3444 18.7993 16.4635 17.1953 16.5381 15.2928C16.6127 12.868 15.6055 11.0029 13.5911 9.77184Z" fill="white"/>
<path d="M105.097 8.95387H99.0164C97.8227 8.95387 96.8528 9.92376 96.8528 11.1175C96.8528 12.3112 97.8227 13.2811 99.0164 13.2811H99.6879C100.62 13.1319 101.367 12.0501 101.74 11.4159C101.59 12.1247 101.292 12.7961 100.919 13.4676C100.882 13.5422 100.844 13.6168 100.77 13.6541C100.434 14.2137 100.024 14.6613 99.5387 15.0717C99.5014 15.109 99.2776 15.2582 99.2776 15.2582C98.4196 15.855 97.3751 16.2281 96.2187 16.2281C93.2344 16.2281 90.8096 13.8033 90.8096 10.819C90.8096 7.83476 93.2344 5.41003 96.1814 5.41003C97.3005 5.41003 98.3823 5.74576 99.2776 6.41723C100.247 7.12599 101.59 6.90217 102.299 5.93228C103.008 4.96239 102.784 3.61946 101.814 2.91069C100.173 1.71697 98.2331 1.12012 96.1814 1.12012C90.8469 1.12012 86.4824 5.48464 86.4824 10.8564C86.4824 16.2281 90.8469 20.5926 96.1814 20.5926C98.5315 20.5926 100.658 19.7719 102.336 18.3917C102.896 17.9067 103.456 17.3845 103.903 16.7876C104.164 16.4519 104.388 16.0789 104.612 15.7058C104.798 15.3328 104.985 14.9224 105.022 14.4748C105.022 14.9224 104.91 15.3701 104.798 15.7804C104.649 16.1908 104.463 16.6011 104.239 17.0114C103.978 17.4964 103.642 17.9813 103.306 18.429C103.679 19.0258 104.351 19.3989 105.097 19.3989C106.291 19.3989 107.261 18.429 107.261 17.2353V11.1175C107.261 9.92376 106.291 8.95387 105.097 8.95387Z" fill="white"/>
<path d="M104.388 0H106.701V0.596857H105.917V2.46204H105.171V0.596857H104.388V0Z" fill="white"/>
<path d="M107.037 0H108.045L108.418 1.49214L108.791 0H109.798V2.46204H109.164V0.596857L108.679 2.46204H108.119L107.634 0.596857V2.46204H107V0H107.037Z" fill="white"/>
</svg>
