<svg width="21" height="21" viewBox="0 0 21 21" fill="none" xmlns="http://www.w3.org/2000/svg">
<path d="M20.9999 11.9982C20.9999 11.4746 20.7907 10.9837 20.4298 10.6237C20.8399 10.1778 21.045 9.58059 20.9917 8.95879C20.8892 7.85019 19.8884 6.97886 18.7112 6.97886H13.3054C13.572 6.16889 14.0027 4.68394 14.0027 3.48943C14.0027 1.5954 12.3908 0 11.3777 0C10.4712 0 9.81909 0.511347 9.79038 0.531801C9.68784 0.613616 9.62632 0.74043 9.62632 0.871335V3.82896L7.10387 9.27378L7.00133 9.32696V9.16333C7.00133 8.92198 6.80446 8.72562 6.56247 8.72562H2.18612C0.980268 8.72562 0 9.70331 0 10.9101V17.893C0 19.0957 0.980268 20.0734 2.18612 20.0734H4.81111C5.75856 20.0734 6.56657 19.4721 6.87008 18.6294C7.60016 19.0016 8.57632 19.198 9.18745 19.198H17.2183C18.1698 19.198 19.0065 18.5557 19.1993 17.6762C19.3019 17.2222 19.2403 16.764 19.0435 16.3631C19.6874 16.0399 20.1222 15.3731 20.1222 14.6163C20.1222 14.3054 20.0524 14.0109 19.9171 13.745C20.5651 13.4218 20.9999 12.755 20.9999 11.9982ZM19.1542 13.0782C18.986 13.0987 18.8425 13.2132 18.7892 13.3727C18.7358 13.5323 18.781 13.7123 18.904 13.8268C19.1255 14.0354 19.2485 14.3177 19.2485 14.6163C19.2485 15.1686 18.8302 15.6308 18.2806 15.6922C18.1124 15.7127 17.9689 15.8272 17.9155 15.9867C17.8622 16.1463 17.9073 16.3263 18.0304 16.4408C18.3175 16.7108 18.4323 17.0913 18.3462 17.484C18.2396 17.9708 17.7638 18.3226 17.2183 18.3226H9.18745C8.47789 18.3226 7.28434 17.9912 6.87418 17.5781C6.74704 17.4553 6.55836 17.4185 6.39841 17.484C6.23434 17.5494 6.1277 17.709 6.1277 17.889C6.1277 18.6089 5.53708 19.198 4.81521 19.198H2.19022C1.46835 19.198 0.87773 18.6089 0.87773 17.889V10.9101C0.87773 10.1901 1.46835 9.60104 2.19022 9.60104H6.1277V10.0388C6.1277 10.1901 6.20563 10.3292 6.33688 10.411C6.46403 10.4887 6.62399 10.4969 6.76344 10.4274L7.63707 9.98967C7.7273 9.94467 7.79703 9.87104 7.83805 9.78104L10.463 4.10714C10.4876 4.04987 10.504 3.9885 10.504 3.92305V1.1086C10.6845 1.00633 11.0003 0.871335 11.3777 0.871335C11.8576 0.871335 13.129 2.06175 13.129 3.48943C13.129 5.02347 12.2923 7.24067 12.2841 7.26112C12.2349 7.39612 12.2513 7.54748 12.3333 7.66611C12.4154 7.78474 12.5507 7.85428 12.6943 7.85428H18.7153C19.4454 7.85428 20.0647 8.37381 20.1263 9.04061C20.1714 9.53968 19.9335 10.0101 19.5028 10.276C19.3675 10.3578 19.2896 10.5051 19.2937 10.6646C19.2978 10.8242 19.3921 10.9633 19.5315 11.0369C19.9007 11.2251 20.1304 11.5933 20.1304 12.0023C20.1263 12.5505 19.7079 13.0128 19.1542 13.0782Z" fill="#E73993"/>
</svg>
