<svg width="189" height="40" viewBox="0 0 189 40" fill="none" xmlns="http://www.w3.org/2000/svg">
<g filter="url(#filter0_d)">
<path d="M10 3C10 1.34315 11.3431 0 13 0H182C183.657 0 185 1.34315 185 3V29C185 30.6569 183.657 32 182 32H13C11.3431 32 10 30.6569 10 29V3Z" fill="white"/>
<path d="M4 16.0002L10 12.5361V19.4643L4 16.0002Z" fill="white"/>
</g>
<path d="M19.6426 21V20.1387L20.7568 19.9473V12.1064L19.6426 11.915V11.0469H20.7568H22.5547L25.7607 18.6006H25.8018L28.9053 11.0469H31.9062V11.915L30.792 12.1064V19.9473L31.9062 20.1387V21H28.3311V20.1387L29.5068 19.9473V17.0625V12.8857L29.4727 12.8789L26.2393 20.6445H25.3438L22.001 12.8926L21.9668 12.8994L22.0146 17.0625V19.9473L23.2178 20.1387V21H19.6426ZM35.6729 19.9473H37.5049C37.9925 19.9473 38.3503 19.8197 38.5781 19.5645C38.8105 19.3047 38.9268 18.9811 38.9268 18.5938C38.9268 18.2201 38.8105 17.8942 38.5781 17.6162C38.3457 17.3382 37.988 17.1992 37.5049 17.1992H35.6729V19.9473ZM40.4307 21V20.1387L41.5449 19.9473V14.6631L40.4307 14.4717V13.6035H42.8916V19.9473L44.0059 20.1387V21H40.4307ZM37.5049 16.1465C38.3799 16.1465 39.0612 16.3698 39.5488 16.8164C40.0365 17.2585 40.2803 17.835 40.2803 18.5459C40.2803 19.2614 40.0342 19.8493 39.542 20.3096C39.0544 20.7699 38.3753 21 37.5049 21H33.2119V20.1387L34.3262 19.9473V14.6631L33.2119 14.4717V13.6035H36.7871V14.4717L35.6729 14.6631V16.1465H37.5049ZM48.5381 21V20.1387L49.6523 19.9473V14.6631L48.5381 14.4717V13.6035H52.1133V14.4717L50.999 14.6631V16.8027H54.2871V14.6631L53.1729 14.4717V13.6035H54.2871H55.6406H56.7549V14.4717L55.6406 14.6631V19.9473L56.7549 20.1387V21H53.1729V20.1387L54.2871 19.9473V17.8555H50.999V19.9473L52.1133 20.1387V21H48.5381ZM60.3164 21.1436C59.5462 21.1436 58.9606 20.9567 58.5596 20.583C58.1585 20.2048 57.958 19.6738 57.958 18.9902C57.958 18.5208 58.0856 18.113 58.3408 17.7666C58.6006 17.4157 58.9743 17.1445 59.4619 16.9531C59.9495 16.7572 60.5329 16.6592 61.2119 16.6592H62.5312V15.9346C62.5312 15.488 62.3945 15.1416 62.1211 14.8955C61.8522 14.6494 61.4717 14.5264 60.9795 14.5264C60.6696 14.5264 60.4007 14.5651 60.1729 14.6426C59.945 14.7155 59.7376 14.818 59.5508 14.9502L59.4072 15.9824H58.3682V14.2871C58.7008 14.0182 59.0882 13.8154 59.5303 13.6787C59.9723 13.5374 60.4622 13.4668 61 13.4668C61.8978 13.4668 62.6019 13.681 63.1123 14.1094C63.6227 14.5378 63.8779 15.1507 63.8779 15.9482V19.5098C63.8779 19.6055 63.8779 19.6989 63.8779 19.79C63.8825 19.8812 63.8893 19.9723 63.8984 20.0635L64.6162 20.1387V21H62.6816C62.6406 20.7995 62.6087 20.6195 62.5859 20.46C62.5632 20.3005 62.5472 20.141 62.5381 19.9814C62.2783 20.3141 61.9525 20.5921 61.5605 20.8154C61.1732 21.0342 60.7585 21.1436 60.3164 21.1436ZM60.5146 20.0156C60.9613 20.0156 61.3691 19.9085 61.7383 19.6943C62.1074 19.4801 62.3717 19.2227 62.5312 18.9219V17.582H61.1641C60.5443 17.582 60.0794 17.7301 59.7695 18.0264C59.4596 18.3226 59.3047 18.653 59.3047 19.0176C59.3047 19.3411 59.4049 19.5895 59.6055 19.7627C59.806 19.9313 60.109 20.0156 60.5146 20.0156ZM65.4434 21V20.1387L66.2637 19.9814L68.4717 17.2607L66.3115 14.6289L65.5801 14.4717V13.6035H68.4785V14.4717L67.7402 14.5537L69.2578 16.4404L70.7344 14.5469L69.9414 14.4717V13.6035H72.792V14.4717L72.04 14.6289L70.0371 17.2402L72.3408 19.9814L73.1064 20.1387V21H69.9688V20.1387L70.8574 20.0635L69.2373 18.0879L67.665 20.0635L68.4648 20.1387V21H65.4434ZM77.0986 21.1436C76.415 21.1436 75.8249 20.984 75.3281 20.665C74.8359 20.3415 74.4554 19.8971 74.1865 19.332C73.9176 18.7624 73.7832 18.113 73.7832 17.3838V17.2334C73.7832 16.5042 73.9176 15.8571 74.1865 15.292C74.4554 14.7223 74.8359 14.2757 75.3281 13.9521C75.8249 13.6286 76.4105 13.4668 77.085 13.4668C77.7686 13.4668 78.3564 13.6286 78.8486 13.9521C79.3454 14.2757 79.7282 14.7201 79.9971 15.2852C80.266 15.8503 80.4004 16.4997 80.4004 17.2334V17.3838C80.4004 18.1175 80.266 18.7692 79.9971 19.3389C79.7282 19.904 79.3477 20.346 78.8555 20.665C78.3633 20.984 77.7777 21.1436 77.0986 21.1436ZM77.0986 20.0908C77.527 20.0908 77.8848 19.9746 78.1719 19.7422C78.4635 19.5052 78.6823 19.1839 78.8281 18.7783C78.9785 18.3682 79.0537 17.9033 79.0537 17.3838V17.2334C79.0537 16.7139 78.9785 16.2513 78.8281 15.8457C78.6823 15.4355 78.4635 15.1143 78.1719 14.8818C77.8802 14.6449 77.5179 14.5264 77.085 14.5264C76.6566 14.5264 76.2965 14.6449 76.0049 14.8818C75.7132 15.1143 75.4945 15.4355 75.3486 15.8457C75.2028 16.2513 75.1299 16.7139 75.1299 17.2334V17.3838C75.1299 17.9033 75.2028 18.3682 75.3486 18.7783C75.4945 19.1839 75.7132 19.5052 76.0049 19.7422C76.3011 19.9746 76.6657 20.0908 77.0986 20.0908ZM81.2002 23.1738L81.0703 19.9473H81.6514C81.8428 19.7285 82.0091 19.512 82.1504 19.2979C82.2917 19.0791 82.4147 18.8398 82.5195 18.5801C82.6243 18.3158 82.7087 18.0081 82.7725 17.6572C82.8408 17.3018 82.891 16.8779 82.9229 16.3857L82.9912 14.6562L81.918 14.4717V13.6035H87.8652H88.9795V14.4717L87.8652 14.6631V19.9473H88.8496L88.7129 23.1738H87.5029V21H82.4102V23.1738H81.2002ZM83.2031 19.9473H86.5186V14.7998H84.3311L84.2695 16.3857C84.2194 17.2061 84.1009 17.9056 83.9141 18.4844C83.7318 19.0632 83.4948 19.5508 83.2031 19.9473ZM90.1963 21V20.1387L91.3105 19.9473V14.6631L90.1963 14.4717V13.6035H92.6504H93.7646V14.4717L92.6504 14.6631V18.8398L92.6914 18.8535L95.9521 13.6035H97.2988H98.4131V14.4717L97.2988 14.6631V19.9473L98.4131 20.1387V21H94.8379V20.1387L95.9521 19.9473V15.7637L95.9111 15.75L92.6504 21H90.1963ZM99.7393 21V20.1387L100.854 19.9473V14.6631L99.7393 14.4717V13.6035H100.854H102.59L104.996 19.2363H105.037L107.45 13.6035H109.139H110.253V14.4717L109.139 14.6631V19.9473L110.253 20.1387V21H106.678V20.1387L107.792 19.9473V15.8662L107.751 15.8525L105.481 21H104.552L102.241 15.7432L102.2 15.7568V19.9473L103.314 20.1387V21H99.7393ZM114.71 21.1436C114.04 21.1436 113.457 20.9886 112.96 20.6787C112.463 20.3643 112.078 19.929 111.805 19.373C111.531 18.8171 111.395 18.1745 111.395 17.4453V17.1582C111.395 16.4564 111.527 15.8275 111.791 15.2715C112.055 14.7155 112.436 14.2757 112.933 13.9521C113.429 13.6286 114.022 13.4668 114.71 13.4668C115.307 13.4668 115.829 13.5648 116.275 13.7607C116.727 13.9567 117.105 14.2256 117.41 14.5674L117.444 16.3447H116.392L116.159 15.0527C116.004 14.8932 115.811 14.7656 115.578 14.6699C115.346 14.5742 115.072 14.5264 114.758 14.5264C114.357 14.5264 114.004 14.6449 113.698 14.8818C113.397 15.1188 113.163 15.4355 112.994 15.832C112.826 16.2285 112.741 16.6706 112.741 17.1582V17.4453C112.741 17.9831 112.819 18.4502 112.974 18.8467C113.133 19.2432 113.359 19.5508 113.65 19.7695C113.947 19.9837 114.298 20.0908 114.703 20.0908C115.159 20.0908 115.537 19.9655 115.838 19.7148C116.139 19.4642 116.323 19.1201 116.392 18.6826H117.602L117.615 18.7236C117.592 19.1475 117.467 19.5439 117.239 19.9131C117.011 20.2822 116.686 20.5807 116.262 20.8086C115.842 21.0319 115.325 21.1436 114.71 21.1436ZM118.606 21V20.1387L119.577 19.9951L120.842 17.9307C120.372 17.762 120.01 17.4954 119.755 17.1309C119.504 16.7663 119.379 16.3447 119.379 15.8662C119.379 15.4242 119.493 15.0322 119.721 14.6904C119.949 14.3486 120.274 14.082 120.698 13.8906C121.122 13.6992 121.628 13.6035 122.216 13.6035H126.454V14.4717L125.34 14.6631V19.9473L126.454 20.1387V21H122.879V20.1387L123.993 19.9473V18.1289H122.168L120.418 21H118.606ZM122.079 17.0693H123.993V14.6494H122.216C121.728 14.6494 121.359 14.7725 121.108 15.0186C120.858 15.2601 120.732 15.5472 120.732 15.8799C120.732 16.208 120.844 16.4883 121.067 16.7207C121.295 16.9531 121.632 17.0693 122.079 17.0693ZM134.062 21.1299C133.525 21.1299 133.033 21.0433 132.586 20.8701C132.139 20.6969 131.786 20.4417 131.526 20.1045C131.267 19.7627 131.144 19.3457 131.157 18.8535L131.171 18.8125H132.449C132.449 19.0449 132.518 19.2591 132.654 19.4551C132.791 19.6465 132.98 19.8014 133.222 19.9199C133.468 20.0384 133.748 20.0977 134.062 20.0977C134.55 20.0977 134.928 19.986 135.197 19.7627C135.466 19.5348 135.601 19.2523 135.601 18.915C135.601 18.5186 135.482 18.2292 135.245 18.0469C135.013 17.8646 134.648 17.7734 134.151 17.7734H132.866V16.6797H134.151C134.625 16.6797 134.963 16.5908 135.163 16.4131C135.368 16.2308 135.471 15.9688 135.471 15.627C135.471 15.3171 135.354 15.055 135.122 14.8408C134.89 14.6266 134.536 14.5195 134.062 14.5195C133.78 14.5195 133.525 14.5719 133.297 14.6768C133.074 14.777 132.896 14.9137 132.764 15.0869C132.632 15.2601 132.565 15.4538 132.565 15.668H131.287L131.273 15.627C131.255 15.2031 131.367 14.8317 131.608 14.5127C131.854 14.1891 132.192 13.9362 132.62 13.7539C133.049 13.5716 133.529 13.4805 134.062 13.4805C134.928 13.4805 135.605 13.6673 136.093 14.041C136.58 14.4102 136.824 14.9388 136.824 15.627C136.824 15.9596 136.724 16.265 136.523 16.543C136.323 16.821 136.043 17.0397 135.683 17.1992C136.535 17.5 136.961 18.0719 136.961 18.915C136.961 19.3753 136.84 19.7718 136.599 20.1045C136.357 20.4326 136.018 20.6855 135.58 20.8633C135.147 21.041 134.641 21.1299 134.062 21.1299ZM138.294 23.1738L138.164 19.9473H138.745C138.937 19.7285 139.103 19.512 139.244 19.2979C139.385 19.0791 139.508 18.8398 139.613 18.5801C139.718 18.3158 139.802 18.0081 139.866 17.6572C139.935 17.3018 139.985 16.8779 140.017 16.3857L140.085 14.6562L139.012 14.4717V13.6035H144.959H146.073V14.4717L144.959 14.6631V19.9473H145.943L145.807 23.1738H144.597V21H139.504V23.1738H138.294ZM140.297 19.9473H143.612V14.7998H141.425L141.363 16.3857C141.313 17.2061 141.195 17.9056 141.008 18.4844C140.826 19.0632 140.589 19.5508 140.297 19.9473ZM150.503 21.1436C149.819 21.1436 149.225 20.9886 148.719 20.6787C148.213 20.3643 147.821 19.929 147.543 19.373C147.27 18.8171 147.133 18.1745 147.133 17.4453V17.1445C147.133 16.4427 147.276 15.8161 147.563 15.2646C147.855 14.7087 148.24 14.2712 148.719 13.9521C149.202 13.6286 149.728 13.4668 150.298 13.4668C150.963 13.4668 151.519 13.6035 151.966 13.877C152.417 14.1504 152.757 14.5355 152.984 15.0322C153.212 15.5244 153.326 16.1055 153.326 16.7754V17.6162H148.527L148.507 17.6504C148.516 18.1243 148.598 18.5459 148.753 18.915C148.912 19.2796 149.14 19.5667 149.437 19.7764C149.733 19.986 150.088 20.0908 150.503 20.0908C150.959 20.0908 151.357 20.027 151.699 19.8994C152.046 19.7673 152.344 19.5872 152.595 19.3594L153.121 20.2344C152.857 20.4896 152.506 20.7061 152.068 20.8838C151.635 21.057 151.114 21.1436 150.503 21.1436ZM148.568 16.5635H151.979V16.3857C151.979 16.0303 151.916 15.7135 151.788 15.4355C151.665 15.153 151.478 14.932 151.228 14.7725C150.981 14.6084 150.672 14.5264 150.298 14.5264C149.997 14.5264 149.724 14.6152 149.478 14.793C149.231 14.9661 149.029 15.2031 148.869 15.5039C148.71 15.8047 148.605 16.1465 148.555 16.5293L148.568 16.5635ZM157.995 21.1436C157.325 21.1436 156.742 20.9886 156.245 20.6787C155.748 20.3643 155.363 19.929 155.09 19.373C154.816 18.8171 154.68 18.1745 154.68 17.4453V17.1582C154.68 16.4564 154.812 15.8275 155.076 15.2715C155.34 14.7155 155.721 14.2757 156.218 13.9521C156.715 13.6286 157.307 13.4668 157.995 13.4668C158.592 13.4668 159.114 13.5648 159.561 13.7607C160.012 13.9567 160.39 14.2256 160.695 14.5674L160.729 16.3447H159.677L159.444 15.0527C159.289 14.8932 159.096 14.7656 158.863 14.6699C158.631 14.5742 158.357 14.5264 158.043 14.5264C157.642 14.5264 157.289 14.6449 156.983 14.8818C156.683 15.1188 156.448 15.4355 156.279 15.832C156.111 16.2285 156.026 16.6706 156.026 17.1582V17.4453C156.026 17.9831 156.104 18.4502 156.259 18.8467C156.418 19.2432 156.644 19.5508 156.936 19.7695C157.232 19.9837 157.583 20.0908 157.988 20.0908C158.444 20.0908 158.822 19.9655 159.123 19.7148C159.424 19.4642 159.608 19.1201 159.677 18.6826H160.887L160.9 18.7236C160.878 19.1475 160.752 19.5439 160.524 19.9131C160.297 20.2822 159.971 20.5807 159.547 20.8086C159.128 21.0319 158.61 21.1436 157.995 21.1436ZM166.403 16.1465C167.278 16.1465 167.96 16.3698 168.447 16.8164C168.935 17.2585 169.179 17.835 169.179 18.5459C169.179 19.2614 168.933 19.8493 168.44 20.3096C167.953 20.7699 167.274 21 166.403 21H162.11V20.1387L163.225 19.9473V14.6631L162.11 14.4717V13.6035H165.686V14.4717L164.571 14.6631V16.1465H166.403ZM166.403 19.9473C166.891 19.9473 167.249 19.8197 167.477 19.5645C167.709 19.3047 167.825 18.9811 167.825 18.5938C167.825 18.2201 167.709 17.8942 167.477 17.6162C167.244 17.3382 166.886 17.1992 166.403 17.1992H164.571V19.9473H166.403Z" fill="black"/>
<defs>
<filter id="filter0_d" x="0" y="0" width="189" height="40" filterUnits="userSpaceOnUse" color-interpolation-filters="sRGB">
<feFlood flood-opacity="0" result="BackgroundImageFix"/>
<feColorMatrix in="SourceAlpha" type="matrix" values="0 0 0 0 0 0 0 0 0 0 0 0 0 0 0 0 0 0 127 0"/>
<feOffset dy="4"/>
<feGaussianBlur stdDeviation="2"/>
<feColorMatrix type="matrix" values="0 0 0 0 0 0 0 0 0 0 0 0 0 0 0 0 0 0 0.25 0"/>
<feBlend mode="normal" in2="BackgroundImageFix" result="effect1_dropShadow"/>
<feBlend mode="normal" in="SourceGraphic" in2="effect1_dropShadow" result="shape"/>
</filter>
</defs>
</svg>
