<svg width="26" height="25" viewBox="0 0 26 25" fill="none" xmlns="http://www.w3.org/2000/svg">
<path d="M21.0242 8.69341C22.7152 7.31805 22.1312 4.59767 20.0188 4.0364C19.4653 3.88977 18.8965 3.9201 18.3735 4.11731L16.6926 1.21995C16.0071 0.0417927 14.3161 0.0114537 13.5848 1.15927C11.5181 4.4207 8.76574 7.1967 5.50054 9.30019C5.31265 9.42154 5.24664 9.66931 5.35328 9.86651C5.36851 9.89685 8.15129 14.6954 8.17161 14.7258C8.29348 14.9331 8.55754 15.0039 8.76574 14.8825C8.97394 14.7612 9.04504 14.4982 8.92316 14.2909L6.31303 9.79067C9.43097 7.72763 12.1934 4.98196 14.3212 1.61941C14.702 1.01769 15.5856 1.03792 15.9411 1.64975L21.9535 12.0206C22.309 12.6375 21.8824 13.406 21.1715 13.4364C17.175 13.5931 13.2649 14.6095 9.68995 16.4298C9.67472 16.4399 5.62241 18.771 5.34312 18.9277C4.61695 19.3423 3.68767 19.0946 3.27126 18.3766L1.07754 14.5893C0.661133 13.8662 0.909958 12.9408 1.63105 12.5262L4.27165 11.0093C4.47985 10.8879 4.55094 10.625 4.42907 10.4177C4.30719 10.2104 4.04313 10.1396 3.83493 10.2609L1.19433 11.7779C0.0517636 12.4352 -0.339248 13.8915 0.320902 15.0241L2.51463 18.8114C3.1697 19.9441 4.63219 20.3334 5.76968 19.6811L5.87124 19.6255L8.58293 24.2977C8.97394 24.9702 9.83214 25.1977 10.5075 24.8134L11.4571 24.2673C12.1325 23.878 12.361 23.0234 11.9751 22.3509L10.0556 19.0389C9.9337 18.8316 9.66964 18.7608 9.46144 18.8822C9.25324 19.0036 9.18215 19.2665 9.30402 19.4738L11.2235 22.7858C11.3759 23.0437 11.2845 23.3723 11.0255 23.524L10.0759 24.0701C9.8169 24.2218 9.48683 24.1308 9.33449 23.8729L6.62279 19.2008L10.0911 17.2085C13.4884 15.4792 17.2614 14.4679 21.202 14.3111C22.568 14.2606 23.3855 12.779 22.7 11.6009L21.0242 8.69341ZM20.9023 5.71515C21.3289 6.4534 21.1766 7.36862 20.5824 7.93494L18.8102 4.88083C19.5871 4.65329 20.4656 4.96679 20.9023 5.71515ZM25.1425 3.79875L24.0203 4.44092C23.8121 4.56228 23.548 4.49149 23.4261 4.28417C23.3043 4.07686 23.3754 3.81392 23.5836 3.69256L24.7058 3.05039C24.914 2.92904 25.1781 2.99983 25.3 3.20714C25.4168 3.41446 25.3457 3.67739 25.1425 3.79875ZM20.3184 1.33625L20.5926 0.319898C20.6535 0.0873008 20.8922 -0.0492239 21.1258 0.0165103C21.3594 0.0771879 21.4965 0.314842 21.4305 0.54744L21.1562 1.56379C21.0953 1.79133 20.8566 1.93291 20.6231 1.86718C20.3945 1.8065 20.2574 1.56885 20.3184 1.33625ZM25.9855 8.40519C25.9347 8.59734 25.757 8.72375 25.5691 8.72375C25.4929 8.72375 25.5437 8.73386 24.4367 8.43553C24.2031 8.37486 24.066 8.1372 24.132 7.9046C24.1929 7.67201 24.4316 7.53548 24.6652 7.60121L25.6859 7.87426C25.9093 7.93494 26.0464 8.1726 25.9855 8.40519Z" fill="#E73993"/>
</svg>
