<svg width="23" height="23" viewBox="0 0 23 23" fill="none" xmlns="http://www.w3.org/2000/svg">
<path d="M20.5249 0H11.797C11.6174 0 11.4467 0.0718891 11.3209 0.197695L0.72433 10.7923C-0.241443 11.7584 -0.241443 13.3309 0.72433 14.2924L8.70656 22.2766C9.17372 22.7439 9.79361 23 10.4584 23C11.1232 23 11.7431 22.7439 12.2103 22.2766L22.8024 11.682C22.9281 11.5562 23 11.3854 23 11.2057V2.47568C23 1.10979 21.8905 0 20.5249 0ZM21.6524 10.9271L11.2535 21.3286C11.0424 21.5398 10.7594 21.6566 10.4539 21.6566C10.153 21.6566 9.86998 21.5398 9.65436 21.3286L1.67663 13.3444C1.23641 12.9041 1.23641 12.1897 1.67663 11.7494L12.0755 1.34792H20.5249C21.1448 1.34792 21.6524 1.85564 21.6524 2.47568V10.9271Z" fill="#E73993"/>
<path d="M17.0619 3.82356C16.4959 3.82356 15.9659 4.04372 15.5661 4.4436C15.1663 4.84349 14.9462 5.37367 14.9462 5.93979C14.9462 6.50592 15.1663 7.0361 15.5661 7.43598C15.9659 7.83587 16.4959 8.05603 17.0619 8.05603C17.6279 8.05603 18.158 7.83587 18.5577 7.43598C18.9575 7.0361 19.1776 6.50592 19.1776 5.93979C19.1776 5.37367 18.9575 4.84349 18.5577 4.4436C18.158 4.04372 17.6279 3.82356 17.0619 3.82356ZM17.6054 6.48345C17.4617 6.62723 17.2685 6.70811 17.0619 6.70811C16.8553 6.70811 16.6621 6.62723 16.5184 6.48345C16.3746 6.33968 16.2938 6.14647 16.2938 5.93979C16.2938 5.73311 16.3746 5.53991 16.5184 5.39613C16.6621 5.25235 16.8553 5.17148 17.0619 5.17148C17.2685 5.17148 17.4617 5.25235 17.6054 5.39613C17.7492 5.53991 17.83 5.73311 17.83 5.93979C17.83 6.14647 17.7492 6.33968 17.6054 6.48345Z" fill="#E73993"/>
</svg>
