<svg width="25" height="21" viewBox="0 0 25 21" fill="none" xmlns="http://www.w3.org/2000/svg">
<path d="M17.7615 11.4362H14.3645C13.4348 11.4362 12.6788 12.1636 12.6788 13.058V15.5645C12.6788 16.4589 13.4348 17.1863 14.3645 17.1863H17.7615C18.6913 17.1863 19.4473 16.4589 19.4473 15.5645V13.058C19.4473 12.1636 18.6913 11.4362 17.7615 11.4362ZM18.2213 15.5645C18.2213 15.8102 18.0118 16.0068 17.7615 16.0068H14.3645C14.1091 16.0068 13.9048 15.8053 13.9048 15.5645V13.058C13.9048 12.8123 14.1142 12.6157 14.3645 12.6157H17.7615C18.017 12.6157 18.2213 12.8172 18.2213 13.058V15.5645Z" fill="#E73993"/>
<path d="M25 6.88041C25 6.77721 24.9745 6.67891 24.9183 6.59045L21.1994 0.299789C21.0922 0.11795 20.8878 0 20.6682 0H4.32673C4.10707 0 3.90274 0.113035 3.79546 0.299789L0.0817327 6.59045C0.0306498 6.67891 0 6.77721 0 6.88041C0 8.2909 0.883735 9.49988 2.14548 10.0356V20.4102C2.14548 20.7346 2.42133 21 2.75848 21H6.14528C6.15039 21 6.1555 21 6.1606 21H10.9113C10.9164 21 10.9215 21 10.9266 21H22.2364C22.5736 21 22.8494 20.7346 22.8494 20.4102V10.1093C22.8494 10.0847 22.8494 10.0651 22.8443 10.0454C24.1112 9.50971 25 8.29581 25 6.88041ZM4.68431 1.18441H20.3106L23.2172 6.10391H1.7828L4.68431 1.18441ZM17.7922 7.27849C17.5981 8.34004 16.6326 9.14603 15.473 9.14603C14.3134 9.14603 13.348 8.34004 13.1539 7.27849H17.7922ZM11.8512 7.27849C11.6571 8.34004 10.6917 9.14603 9.53208 9.14603C8.3725 9.14603 7.40703 8.34004 7.20781 7.27849H11.8512ZM1.26686 7.27849H5.9103C5.71618 8.34004 4.74561 9.14603 3.58602 9.14603C2.42644 9.15095 1.46097 8.34004 1.26686 7.27849ZM6.7736 19.8205V13.4561C6.7736 12.9941 7.16183 12.6157 7.64712 12.6157H9.42991C9.91009 12.6157 10.3034 12.9892 10.3034 13.4561V19.8205H6.7736ZM21.6234 19.8205H11.5243V13.4561C11.5243 12.3454 10.5844 11.4362 9.42481 11.4362H7.64201C6.48754 11.4362 5.5425 12.3405 5.5425 13.4561V19.8254H3.37147V10.3255C3.44299 10.3304 3.51451 10.3304 3.58602 10.3304C4.82223 10.3304 5.91541 9.72595 6.55905 8.80693C7.2027 9.72595 8.29587 10.3304 9.53208 10.3304C10.7683 10.3304 11.8564 9.72595 12.5051 8.80693C13.1488 9.72595 14.2419 10.3304 15.473 10.3304C16.7092 10.3304 17.7973 9.72595 18.4409 8.80693C19.0846 9.72595 20.1778 10.3304 21.414 10.3304C21.4855 10.3304 21.5519 10.3255 21.6234 10.3255V19.8205ZM21.414 9.15095C20.2544 9.15095 19.2889 8.34496 19.0948 7.28341H23.7383C23.539 8.34004 22.5736 9.15095 21.414 9.15095Z" fill="#E73993"/>
</svg>
