<svg width="25" height="25" viewBox="0 0 25 25" fill="none" xmlns="http://www.w3.org/2000/svg">
<path d="M12.5008 21.9238C12.2322 21.9238 12.0125 22.1436 12.0125 22.4121C12.0125 22.6807 12.2322 22.9004 12.5008 22.9004C12.7694 22.9004 12.9891 22.6807 12.9891 22.4121C12.9891 22.1436 12.7694 21.9238 12.5008 21.9238Z" fill="#E73993"/>
<path d="M12.5008 0C12.2322 0 12.0125 0.219727 12.0125 0.488281V3.71094C12.0125 3.97949 12.2322 4.19922 12.5008 4.19922C12.7694 4.19922 12.9891 3.97949 12.9891 3.71094V0.488281C12.9891 0.219727 12.7694 0 12.5008 0Z" fill="#E73993"/>
<path d="M5.59637 7.34375L2.83752 4.58497C2.64708 4.39454 2.33946 4.39454 2.14903 4.58497C1.95859 4.7754 1.95859 5.08301 2.14903 5.27344L4.90787 8.03223C5.09831 8.22266 5.40593 8.22266 5.59637 8.03223C5.7868 7.84668 5.7868 7.53418 5.59637 7.34375Z" fill="#E73993"/>
<path d="M22.8575 4.58497C22.667 4.39454 22.3594 4.39454 22.169 4.58497L19.4052 7.34864C19.2148 7.53907 19.2148 7.84668 19.4052 8.03711C19.5957 8.22754 19.9033 8.22754 20.0937 8.03711L22.8575 5.27344C23.0479 5.08301 23.0479 4.7754 22.8575 4.58497Z" fill="#E73993"/>
<path d="M24.9034 9.27734C24.8106 9.15527 24.6641 9.08203 24.5128 9.08203C23.5313 9.08203 22.6133 9.53125 22.0127 10.2881C21.7344 10.1416 21.4219 10.0586 21.0947 10.0586C20.0156 10.0586 19.1416 10.9326 19.1416 12.0117C19.1416 12.8223 19.6347 13.5156 20.3379 13.8135L20.25 13.9209C19.7422 14.5312 18.8095 14.9414 17.9257 14.9414C17.1786 14.9414 16.3095 14.6436 15.7821 14.1113L15.538 13.8672C16.3241 13.6133 16.8954 12.876 16.8954 12.0068C16.8954 10.9277 16.0214 10.0537 14.9422 10.0537H14.8934C14.9618 9.70703 14.9569 9.3457 14.8739 8.98926C14.6639 8.09082 13.9168 7.36328 13.0135 7.17773C11.4607 6.86035 10.0593 8.03223 10.0593 9.56543C10.0593 9.73145 10.074 9.89258 10.1082 10.0537H10.0593C8.9802 10.0537 8.10616 10.9277 8.10616 12.0068C8.10616 12.876 8.67746 13.6133 9.46361 13.8672L9.21947 14.1113C8.71653 14.6143 7.87178 14.9414 7.07586 14.9414C6.22135 14.9414 5.28383 14.5605 4.75648 13.9209L4.66859 13.8135C5.37173 13.5156 5.8649 12.8223 5.8649 12.0117C5.8649 10.9326 4.99086 10.0586 3.91173 10.0586C3.58458 10.0586 3.27207 10.1367 2.99374 10.2881C2.38826 9.53125 1.47027 9.08203 0.488808 9.08203C0.332554 9.08203 0.19095 9.15527 0.0981744 9.27734C0.00539899 9.39941 -0.0238985 9.56055 0.0200477 9.70703L3.05722 19.8242H2.73495C2.46639 19.8242 2.24666 20.0439 2.24666 20.3125C2.24666 20.5811 2.46639 20.8008 2.73495 20.8008H3.22324V23.5352C3.22324 24.3408 3.88244 25 4.68812 25H20.3135C21.1191 25 21.7783 24.3408 21.7783 23.5352V20.8008H22.2666C22.5352 20.8008 22.7549 20.5811 22.7549 20.3125C22.7549 20.0439 22.5352 19.8242 22.2666 19.8242H21.9443L24.9766 9.71191C25.0255 9.56055 24.9962 9.4043 24.9034 9.27734ZM20.8017 21.9238H14.454C14.1854 21.9238 13.9657 22.1436 13.9657 22.4121C13.9657 22.6807 14.1854 22.9004 14.454 22.9004H20.8017V23.5352C20.8017 23.8037 20.582 24.0234 20.3135 24.0234H4.68812C4.41956 24.0234 4.19983 23.8037 4.19983 23.5352V22.9004H10.5476C10.8162 22.9004 11.0359 22.6807 11.0359 22.4121C11.0359 22.1436 10.8162 21.9238 10.5476 21.9238H4.19983V20.8008H20.8017V21.9238ZM20.9287 19.8242H4.07287L1.1773 10.166C1.70954 10.3369 2.16365 10.708 2.43709 11.2109C2.59335 11.499 2.98398 11.5527 3.21348 11.3184C3.39903 11.1328 3.64317 11.0303 3.90685 11.0303C4.44397 11.0303 4.88343 11.4697 4.88343 12.0068C4.88343 12.5977 4.36584 13.042 3.79943 12.9785C3.59923 12.9541 3.40879 13.0566 3.31113 13.2324C3.21836 13.4082 3.23789 13.623 3.36485 13.7793L3.99963 14.5459C4.7223 15.4199 5.94303 15.918 7.07098 15.918C8.13546 15.918 9.21947 15.4932 9.90796 14.8047L10.8894 13.8232C11.031 13.6816 11.0701 13.4717 10.9968 13.291C10.9236 13.1104 10.7429 12.9883 10.5476 12.9883H10.0593C9.52221 12.9883 9.08274 12.5488 9.08274 12.0117C9.08274 11.4746 9.52221 11.0352 10.0593 11.0352H10.8113C10.9871 11.0352 11.1482 10.9424 11.2361 10.791C11.324 10.6396 11.324 10.4541 11.2361 10.3027C11.1092 10.083 11.0408 9.8291 11.0408 9.57031C11.0408 8.66699 11.8611 7.93945 12.8231 8.13965C13.3553 8.24707 13.8094 8.69141 13.9315 9.21387C14.0438 9.69727 13.9119 10.0732 13.7752 10.3027C13.6873 10.4541 13.6873 10.6396 13.7752 10.791C13.8631 10.9424 14.0243 11.0352 14.2 11.0352H14.9422C15.4794 11.0352 15.9188 11.4746 15.9188 12.0117C15.9188 12.5488 15.4794 12.9883 14.9422 12.9883H14.454C14.2586 12.9883 14.078 13.1055 14.0047 13.291C13.9315 13.4717 13.9705 13.6816 14.1121 13.8232L15.0936 14.8047C15.8065 15.5176 16.9247 15.918 17.9306 15.918C19.1025 15.918 20.3086 15.3809 21.0019 14.5459L21.6367 13.7793C21.7637 13.6279 21.7832 13.4082 21.6904 13.2324C21.5928 13.0566 21.4023 12.959 21.2021 12.9785C21.168 12.9834 21.1338 12.9834 21.0947 12.9834C20.5576 12.9834 20.1181 12.5439 20.1181 12.0068C20.1181 11.4697 20.5576 11.0303 21.0947 11.0303C21.3584 11.0303 21.6025 11.1328 21.7881 11.3184C21.8955 11.4258 22.0518 11.4795 22.2031 11.46C22.3545 11.4404 22.4912 11.3477 22.5645 11.2109C22.8379 10.708 23.2969 10.3369 23.8243 10.166L20.9287 19.8242Z" fill="#E73993"/>
<path d="M12.5008 14.9414C11.4217 14.9414 10.5476 15.8154 10.5476 16.8945C10.5476 17.9736 11.4217 18.8477 12.5008 18.8477C13.5799 18.8477 14.454 17.9736 14.454 16.8945C14.454 15.8154 13.5799 14.9414 12.5008 14.9414ZM12.5008 17.8711C11.9637 17.8711 11.5242 17.4316 11.5242 16.8945C11.5242 16.3574 11.9637 15.918 12.5008 15.918C13.0379 15.918 13.4774 16.3574 13.4774 16.8945C13.4774 17.4316 13.0379 17.8711 12.5008 17.8711Z" fill="#E73993"/>
</svg>
