<svg width="73" height="75" viewBox="0 0 73 75" fill="none" xmlns="http://www.w3.org/2000/svg">
<path d="M36.5 75C56.6584 75 73 65.7239 73 54.2814C73 42.8389 56.6584 33.5629 36.5 33.5629C16.3416 33.5629 0 42.8389 0 54.2814C0 65.7239 16.3416 75 36.5 75Z" fill="#D2E4F0" fill-opacity="0.19"/>
<path d="M24.371 2.01038C27.4033 2.06622 30.3794 3.01559 32.8502 4.80263C35.8264 6.75721 39.3079 7.76242 42.9018 7.65073C45.4287 7.65073 47.8995 7.20397 50.3141 6.42214L49.6964 4.52341C46.3833 5.69615 42.7895 5.97538 39.3079 5.30524C39.5887 5.1377 39.8694 4.97017 40.1502 4.80263C42.621 3.01559 45.5971 2.01038 48.6295 2.01038C56.5471 2.01038 62.7241 9.49362 62.7241 19.0431C62.7241 23.0081 60.8148 26.6939 59.1302 29.9888L58.7933 30.6589C55.8733 36.2993 53.6833 41.437 51.9425 45.5696C48.6856 53.1645 46.5518 58.1906 43.5756 58.1906C41.3856 58.1906 40.5433 57.4087 40.5433 49.1437C40.5433 40.6552 39.9818 37.0811 36.5002 37.0811C33.0187 37.0811 32.4571 40.6552 32.4571 49.1437C32.4571 57.4087 31.6148 58.1906 29.4248 58.1906C26.4487 58.1906 24.3148 53.1645 21.0579 45.5696C19.3171 41.437 17.071 36.2993 14.2071 30.6589L13.8702 29.9888C12.1856 26.7498 10.2764 23.064 10.2764 19.0431C10.2764 9.49362 16.4533 2.01038 24.371 2.01038Z" fill="white"/>
<path d="M12.4103 31.5525C15.2741 37.1929 17.4641 42.2748 19.2049 46.3515C22.911 54.9516 25.1572 60.201 29.4249 60.201C33.9733 60.201 34.4787 56.6828 34.4787 49.1437C34.4787 39.8734 35.3772 39.0916 36.5003 39.0916C37.6233 39.0916 38.5218 39.8734 38.5218 49.1437C38.5218 56.627 39.0272 60.201 43.5756 60.201C47.8433 60.201 50.0895 55.0074 53.7956 46.3515C55.5364 42.2748 57.7264 37.137 60.5903 31.5525L60.9272 30.8824C62.7241 27.42 64.7456 23.5108 64.7456 19.0432C64.7456 8.37677 57.6703 0 48.6295 0C45.148 0.0558451 41.7787 1.17275 38.9149 3.23902C37.4549 4.18838 35.5456 4.18838 34.0856 3.23902C31.278 1.17275 27.9087 0.0558451 24.371 0C15.3303 0 8.25488 8.37677 8.25488 19.0432C8.25488 23.5108 10.2764 27.42 12.0733 30.8824L12.4103 31.5525ZM24.371 2.01042C27.4033 2.06627 30.3795 3.01564 32.8503 4.80268C35.8264 6.75726 39.308 7.76247 42.9018 7.65078C45.4287 7.65078 47.8995 7.20402 50.3141 6.42219L49.6964 4.52346C46.3833 5.6962 42.7895 5.97543 39.308 5.30529C39.5887 5.13775 39.8695 4.97022 40.1503 4.80268C42.621 3.01564 45.5972 2.01042 48.6295 2.01042C56.5472 2.01042 62.7241 9.49367 62.7241 19.0432C62.7241 23.0082 60.8149 26.694 59.1303 29.9888L58.7933 30.659C55.8733 36.2993 53.6833 41.4371 51.9426 45.5696C48.6856 53.1646 46.5518 58.1906 43.5756 58.1906C41.3856 58.1906 40.5433 57.4088 40.5433 49.1437C40.5433 40.6552 39.9818 37.0812 36.5003 37.0812C33.0187 37.0812 32.4572 40.6552 32.4572 49.1437C32.4572 57.4088 31.6149 58.1906 29.4249 58.1906C26.4487 58.1906 24.3149 53.1646 21.058 45.5696C19.3172 41.4371 17.071 36.2993 14.2072 30.659L13.8703 29.9888C12.1857 26.7498 10.2764 23.064 10.2764 19.0432C10.2764 9.49367 16.4533 2.01042 24.371 2.01042Z" fill="#E0E0E0"/>
<path d="M45.2599 59.3075H41.9468L42.003 58.1906C43.0699 43.2241 42.3961 35.0707 39.813 32.446C39.0268 31.6641 38.0161 31.3291 36.5561 31.3849H36.4999H36.4438C34.9838 31.3291 33.973 31.6083 33.1868 32.446C30.6599 35.0148 29.9299 43.2241 30.9968 58.1906L31.053 59.3075H27.7399L27.5153 58.5815C26.8415 56.236 25.9991 53.4996 25.0445 50.5956C21.2261 38.198 16.453 22.8965 18.2499 15.8041L20.2715 16.3067C18.5868 22.8406 23.4722 38.4772 27.0661 49.9255C27.6276 51.7684 28.1891 53.5554 28.6945 55.2308C27.8522 41.0461 28.7507 33.9538 31.6707 30.994C32.8499 29.7654 34.4222 29.207 36.4438 29.3186C38.4653 29.207 40.0376 29.7654 41.2168 30.994C44.1368 33.9538 45.0353 41.0461 44.193 55.2308C44.6984 53.5554 45.2599 51.7684 45.8215 49.9255C49.4153 38.4772 54.3007 22.8406 52.6161 16.3067C52.223 14.9106 50.8753 13.9054 49.3591 14.0729C43.2384 14.7431 39.9253 15.0781 36.4999 15.0781C33.4676 15.0781 30.4353 14.7989 25.7184 14.2963L25.943 12.23C30.6038 12.7326 33.5799 12.956 36.4999 12.956C39.8691 12.956 43.0699 12.621 49.2468 11.9508C51.7738 11.6716 54.1322 13.2911 54.7499 15.6924C56.5468 22.7848 51.7738 38.1422 47.9553 50.4281C47.0568 53.332 46.2145 56.0684 45.4845 58.4139L45.2599 59.3075Z" fill="#E0E0E0"/>
<path d="M23.641 20.6069C22.8548 20.6069 22.0687 20.4393 21.3387 20.1043C20.0471 19.49 19.0364 18.4847 18.6433 17.312C18.531 16.9769 18.4748 16.6419 18.4187 16.3068C18.3064 15.86 18.2502 15.4133 18.0818 15.3016C17.8572 15.134 17.2956 15.134 16.9025 15.134C15.611 15.1899 14.0948 15.134 12.691 14.6314C11.9048 14.2964 9.99561 13.5704 9.71484 11.4483L11.7925 11.2249C11.8487 11.7833 12.1295 12.2301 13.4772 12.7327C14.5441 13.1236 15.7233 13.1236 16.9025 13.1236C17.5764 13.1236 18.6433 13.0678 19.4856 13.7379C20.2156 14.3522 20.4402 15.2457 20.5525 15.9717C20.6087 16.1951 20.6648 16.4743 20.721 16.6977C20.9456 17.3678 21.5071 17.9263 22.2933 18.3172C23.1356 18.7081 24.0341 18.764 24.7079 18.4289C25.2133 18.2055 25.5502 17.8705 25.7187 17.312C26.0556 16.3068 25.6625 14.9665 25.3818 14.5197L25.2695 14.2964C25.101 14.0171 24.8202 13.6262 24.7079 13.1795C24.5395 12.5652 24.6518 11.9509 24.7079 11.4483C25.3256 7.87417 24.9325 4.30009 23.6971 1.06107L25.6625 0.335083C27.0664 3.96502 27.4595 7.93002 26.7856 11.7833C26.7295 12.1742 26.6733 12.5093 26.7295 12.6769C26.7856 12.8444 26.8979 13.0119 27.0102 13.2353L27.1787 13.4587C27.6841 14.2964 28.2456 16.2509 27.6841 17.9263C27.3471 19.0432 26.561 19.825 25.4941 20.2718C24.8764 20.4952 24.2587 20.6069 23.641 20.6069Z" fill="#E0E0E0"/>
<path d="M24.2588 14.4639H22.0127V16.6977H24.2588V14.4639Z" fill="#E0E0E0"/>
<path d="M22.0128 6.36633H19.7666V8.60014H22.0128V6.36633Z" fill="#E0E0E0"/>
<path d="M18.0811 8.99109H15.835V11.2249H18.0811V8.99109Z" fill="#E0E0E0"/>
</svg>
