<svg width="84" height="84" viewBox="0 0 84 84" fill="none" xmlns="http://www.w3.org/2000/svg">
<path d="M42.0293 77.7102C63.1313 77.7102 80.2379 63.0512 80.2379 44.9685C80.2379 26.8857 63.1313 12.2267 42.0293 12.2267C20.9273 12.2267 3.8208 26.8857 3.8208 44.9685C3.8208 63.0512 20.9273 77.7102 42.0293 77.7102Z" fill="#D2E4F0" fill-opacity="0.19"/>
<path d="M32.3892 43.3814C32.3892 38.8551 36.0924 35.1519 40.6187 35.1519C45.1449 35.1519 48.8482 38.8551 48.8482 43.3814C48.8482 47.9076 45.1449 51.6109 40.6187 51.6109C36.0924 51.6109 32.3892 47.9076 32.3892 43.3814Z" fill="white"/>
<path d="M40.6188 35.1519C45.1451 35.1519 48.8484 38.8552 48.8484 43.3814C48.8484 47.9077 45.1451 51.6109 40.6188 51.6109C36.0926 51.6109 32.3893 47.9077 32.3893 43.3814C32.3893 38.8552 36.0926 35.1519 40.6188 35.1519ZM40.6188 32.9769C34.8582 32.9769 30.2144 37.6795 30.2144 43.3814C30.2144 49.0833 34.9169 53.7859 40.6188 53.7859C46.3207 53.7859 51.0233 49.0833 51.0233 43.3814C51.0233 37.6795 46.3795 32.9769 40.6188 32.9769Z" fill="#E0E0E0"/>
<path d="M52.3749 14.049L47.5548 18.1638C46.6143 18.9867 46.0852 20.1036 46.0852 21.338C46.0852 22.5137 46.6143 23.6306 47.3784 24.3947C45.9089 27.1575 45.0271 30.1554 44.792 33.2709C43.4988 32.7418 42.088 32.4479 40.5597 32.4479C39.1489 32.4479 37.7969 32.7418 36.5037 33.2121C37.3854 24.042 43.7339 16.5179 52.3749 14.049ZM7.99426 65.5424C7.34765 66.3066 6.46592 66.7768 5.46662 66.7768C3.64436 66.7768 2.1748 65.3073 2.1748 63.485V62.8972C2.1748 62.1918 2.40993 61.4276 2.88019 60.8398L5.34905 57.7243L11.1685 61.604L7.99426 65.5424ZM20.9852 49.5536L12.932 59.429L7.05374 55.4906L15.636 44.6159C19.6332 39.5606 25.5702 36.6215 32.0362 36.5039C30.5079 38.3849 29.6262 40.7362 29.6262 43.3814C29.6262 43.8517 29.685 44.3219 29.7437 44.851C26.3344 45.1449 23.2189 46.8496 20.9852 49.5536ZM32.3889 43.3814C32.3889 38.8552 36.0922 35.1519 40.6185 35.1519C45.1447 35.1519 48.848 38.8552 48.848 43.3814C48.848 47.9077 45.1447 51.611 40.6185 51.611C36.0922 51.611 32.3889 47.9077 32.3889 43.3814ZM23.2189 81.1197C22.6311 81.59 21.9257 81.8251 21.1615 81.8251H20.5737C18.7514 81.8251 17.2819 80.3555 17.2819 78.5333C17.2819 77.534 17.6933 76.5935 18.5163 76.0056L23.9243 71.597L27.8627 77.4752L23.2189 81.1197ZM39.384 68.3639L29.9789 75.7705L26.0404 69.8923L34.4463 63.0735C37.1503 60.8986 38.7962 57.7243 39.1489 54.315C39.6192 54.3737 40.0894 54.4325 40.6185 54.4325C43.2049 54.4325 45.615 53.5508 47.496 52.0224C47.3784 58.3709 44.4393 64.3667 39.384 68.3639ZM50.8466 47.4374C51.3169 46.203 51.6108 44.851 51.6108 43.3814C51.6108 41.9119 51.3169 40.4423 50.7878 39.1491C53.5506 38.914 56.3134 38.1498 58.841 36.9742C59.5464 37.5032 60.4281 37.8559 61.4274 37.8559C62.5443 37.8559 63.6612 37.3856 64.4841 36.6215L70.2448 30.8608C67.9523 39.9133 60.2518 46.6145 50.8466 47.4374ZM76.7696 24.9238L76.2406 24.9826C73.2427 25.3352 70.4211 26.746 68.2462 28.8622L62.4855 34.6229C62.1916 34.9168 61.7801 35.0931 61.3686 35.0931C60.5457 35.0931 59.8403 34.3877 59.8403 33.5648V33.2709C59.8403 32.977 59.9579 32.6243 60.1342 32.3891L65.8949 24.3359C66.4239 23.5718 66.7178 22.69 66.7178 21.7495C66.7178 19.2807 64.7192 17.2821 62.2504 17.2821H62.074C61.3099 17.2821 60.5457 17.4584 59.8403 17.8699L51.6108 22.5725C51.3756 22.69 51.1405 22.7488 50.9054 22.7488H50.3763C49.5534 22.7488 48.9068 22.1022 48.9068 21.2793C48.9068 20.8678 49.0831 20.4563 49.4358 20.1624L54.4323 15.8713C57.0188 13.6376 58.6647 10.5809 59.1349 7.17149C59.4876 4.29116 61.9565 2.11621 64.8368 2.11621C67.6584 2.11621 70.0684 4.17359 70.5387 6.93637L70.5975 7.28906C70.8326 8.8174 71.5968 10.2282 72.6549 11.345C73.7717 12.4619 75.1237 13.1673 76.7108 13.4024L77.0048 13.52C79.7675 13.9902 81.8249 16.4003 81.8249 19.2219C81.8249 22.1022 79.65 24.5711 76.7696 24.9238Z" fill="white"/>
<path d="M46.144 43.3814C46.144 40.3248 43.6751 37.9147 40.6772 37.9147C37.6205 37.9147 35.2104 40.3835 35.2104 43.3814C35.2104 46.4381 37.6793 48.8482 40.6772 48.8482C43.6751 48.8482 46.144 46.4381 46.144 43.3814ZM37.9144 43.3814C37.9144 41.8531 39.1489 40.6187 40.6772 40.6187C42.2055 40.6187 43.44 41.8531 43.44 43.3814C43.44 44.9098 42.2055 46.1442 40.6772 46.1442C39.1489 46.1442 37.9144 44.9098 37.9144 43.3814Z" fill="#E0E0E0"/>
<path d="M52.3751 14.049L47.555 18.1637C46.6145 18.9867 46.0854 20.1035 46.0854 21.338C46.0854 22.5136 46.6145 23.6305 47.3786 24.3946C45.9091 27.1574 45.0274 30.1553 44.7922 33.2708C43.499 32.7417 42.0882 32.4478 40.5599 32.4478C39.1491 32.4478 37.7971 32.7417 36.5039 33.212C37.3856 24.042 43.7341 16.5178 52.3751 14.049Z" fill="white"/>
<path d="M52.3752 14.049L47.555 18.1637C46.6145 18.9867 46.0855 20.1036 46.0855 21.338C46.0855 22.5136 46.6145 23.6305 47.3787 24.3947C45.9091 27.1575 45.0274 30.1554 44.7922 33.2708C43.499 32.7418 42.0883 32.4479 40.5599 32.4479C39.1491 32.4479 37.7971 32.7418 36.5039 33.212C37.3857 24.042 43.7342 16.5178 52.3752 14.049ZM61.4277 9.17004L51.8461 11.9328C42.3234 14.6368 35.3283 23.1015 34.5053 32.9769L34.2114 36.5038L37.5032 35.2106C38.5613 34.7992 39.6194 34.564 40.7363 34.564C41.9119 34.564 43.0288 34.7992 44.0869 35.2106L46.8496 36.3863L47.0848 33.3884C47.3199 30.5668 48.0841 27.8628 49.4361 25.394L50.2002 23.9244L48.9658 22.8076C48.5543 22.3961 48.3192 21.9258 48.3192 21.338C48.3192 20.7502 48.5543 20.2211 49.0246 19.8097L53.8447 15.6949L61.4277 9.17004Z" fill="#E0E0E0"/>
<path d="M7.99426 65.5424C7.34765 66.3066 6.46592 66.7769 5.46662 66.7769C3.64436 66.7769 2.1748 65.3073 2.1748 63.485V62.8972C2.1748 62.1918 2.40993 61.4277 2.88019 60.8398L5.34905 57.7244L11.1685 61.604L7.99426 65.5424Z" fill="white"/>
<path d="M5.3492 57.6656L11.1686 61.5452L7.9944 65.4836C7.3478 66.2478 6.46606 66.718 5.46676 66.718C3.64451 66.718 2.17495 65.2485 2.17495 63.4262V62.8384C2.17495 62.133 2.41008 61.3688 2.88034 60.781L5.3492 57.6656ZM4.87894 54.7264L3.64451 56.3136L1.17565 59.4878C0.411477 60.4283 0 61.6628 0 62.8972V63.485C0 66.4829 2.46886 68.9518 5.46676 68.9518C7.11267 68.9518 8.64101 68.1876 9.69909 66.9532L12.8733 63.0148L14.4017 61.1337L12.4031 59.7817L6.58363 55.8433L4.87894 54.7264Z" fill="#E0E0E0"/>
<path d="M20.9851 49.5536L12.9319 59.429L7.05371 55.4906L15.6359 44.6159C19.6331 39.5606 25.5702 36.6215 32.0362 36.5039C30.5079 38.3849 29.6261 40.7362 29.6261 43.3814C29.6261 43.8517 29.6849 44.322 29.7437 44.851C26.3343 45.1449 23.2189 46.8496 20.9851 49.5536Z" fill="white"/>
<path d="M32.0361 36.5039C30.5078 38.3849 29.6261 40.7362 29.6261 43.3814C29.6261 43.8517 29.6849 44.3219 29.7436 44.851C26.3343 45.2037 23.16 46.8496 20.9851 49.5536L12.9319 59.429L7.05364 55.4906L15.6359 44.6158C19.6919 39.5606 25.6289 36.6214 32.0361 36.5039ZM36.68 34.2701L32.0361 34.3289C24.9235 34.4465 18.3399 37.6795 13.99 43.2638L5.34895 54.1974L3.87939 56.0784L5.81921 57.3716L11.6974 61.31L13.3434 62.4269L14.5778 60.8986L22.631 50.9643C24.4532 48.7306 27.0396 47.3198 29.92 47.0847L32.1537 46.8496L31.8598 44.6158C31.801 44.1456 31.801 43.7929 31.801 43.4402C31.801 41.4416 32.4476 39.5606 33.7408 37.9734L36.68 34.2701Z" fill="#E0E0E0"/>
<path d="M23.2188 81.1197C22.6309 81.5899 21.9255 81.8251 21.1614 81.8251H20.5736C18.7513 81.8251 17.2817 80.3555 17.2817 78.5332C17.2817 77.5339 17.6932 76.5934 18.5162 76.0056L23.9241 71.5969L27.8626 77.4752L23.2188 81.1197Z" fill="white"/>
<path d="M23.9243 71.597L27.8627 77.4752L23.2189 81.1197C22.6311 81.59 21.9257 81.8251 21.1615 81.8251H20.5737C18.7514 81.8251 17.2819 80.3556 17.2819 78.5333C17.2819 77.534 17.6934 76.5935 18.5163 76.0057L23.9243 71.597ZM24.3945 68.4227L22.5135 69.9511L17.1055 74.3598C15.8123 75.4178 15.1069 76.9462 15.1069 78.5921C15.1069 81.59 17.5758 84.0588 20.5737 84.0588H21.1615C22.3959 84.0588 23.5716 83.6474 24.5709 82.8832L29.2147 79.2387L30.8018 78.0043L29.685 76.2996L25.7465 70.4213L24.3945 68.4227Z" fill="#E0E0E0"/>
<path d="M39.3841 68.3638L29.9789 75.7704L26.0405 69.8922L34.4464 63.0734C37.1504 60.8985 38.7963 57.7242 39.149 54.3149C39.6193 54.3736 40.0895 54.4324 40.6186 54.4324C43.205 54.4324 45.6151 53.5507 47.4961 52.0223C47.3785 58.3708 44.4394 64.3666 39.3841 68.3638Z" fill="white"/>
<path d="M47.4961 51.9636C47.3785 58.3708 44.4394 64.3666 39.3841 68.3638L29.9789 75.7704L26.0405 69.8922L34.4464 63.0734C37.1504 60.8985 38.7963 57.7242 39.149 54.3149C39.6192 54.3736 40.0895 54.4324 40.6185 54.4324C43.2049 54.3736 45.615 53.4331 47.4961 51.9636ZM49.7298 47.3785L46.0853 50.2589C44.4982 51.5521 42.6171 52.1987 40.6185 52.1987C40.2658 52.1987 39.9131 52.1987 39.4429 52.1399L37.2091 51.846L37.0328 54.0797C36.7389 56.9601 35.3869 59.5465 33.1532 61.3687L24.6885 68.1875L23.1602 69.4219L24.277 71.0678L28.2154 76.9461L29.5087 78.8859L31.3897 77.4163L40.7949 70.0097C46.3792 65.6011 49.6122 59.0174 49.7298 51.9636V47.3785Z" fill="#E0E0E0"/>
<path d="M50.8469 47.4373C51.3171 46.2029 51.611 44.8509 51.611 43.3814C51.611 41.9118 51.3171 40.4422 50.7881 39.149C53.5509 38.9139 56.3136 38.1497 58.8413 36.9741C59.5467 37.5031 60.4284 37.8558 61.4277 37.8558C62.5446 37.8558 63.6614 37.3856 64.4844 36.6214L70.2451 30.8607C67.9525 39.9132 60.252 46.6144 50.8469 47.4373Z" fill="white"/>
<path d="M70.1861 30.9195C67.9524 39.972 60.2519 46.6144 50.8467 47.4374C51.3169 46.203 51.6109 44.851 51.6109 43.3814C51.6109 41.9119 51.3169 40.4423 50.7879 39.1491C53.5507 38.914 56.3134 38.1498 58.8411 36.9741C59.5465 37.5032 60.4282 37.8559 61.4275 37.8559C62.5444 37.8559 63.6612 37.3856 64.4842 36.6214L70.1861 30.9195ZM74.1833 23.8069L68.6577 29.3324L62.8971 35.0931C62.4856 35.5046 61.9566 35.6809 61.4275 35.6809C60.8397 35.6809 60.4282 35.4458 60.1343 35.2107L59.0762 34.3877L57.8418 34.9755C55.5493 36.0924 53.1392 36.739 50.5528 36.9741L47.6137 37.268L48.7893 40.0308C49.2596 41.0889 49.4359 42.2058 49.4359 43.3814C49.4359 44.4983 49.2008 45.5564 48.7893 46.6144L47.4961 49.9063L51.023 49.6123C61.2512 48.7306 69.8334 41.4416 72.3023 31.4486L74.1833 23.8069Z" fill="#E0E0E0"/>
<path d="M76.7701 24.9238L76.241 24.9826C73.2431 25.3352 70.4216 26.746 68.2466 28.8622L62.486 34.6229C62.192 34.9168 61.7806 35.0931 61.3691 35.0931C60.5461 35.0931 59.8407 34.3877 59.8407 33.5648V33.2709C59.8407 32.977 59.9583 32.6243 60.1347 32.3891L65.8953 24.3359C66.4244 23.5718 66.7183 22.69 66.7183 21.7495C66.7183 19.2807 64.7197 17.2821 62.2508 17.2821H62.0745C61.3103 17.2821 60.5461 17.4584 59.8407 17.8699L51.6112 22.5725C51.3761 22.69 51.141 22.7488 50.9058 22.7488H50.3768C49.5538 22.7488 48.9072 22.1022 48.9072 21.2793C48.9072 20.8678 49.0836 20.4563 49.4363 20.1624L54.4328 15.8713C57.0192 13.6376 58.6651 10.5809 59.1354 7.17149C59.4881 4.29116 61.9569 2.11621 64.8372 2.11621C67.6588 2.11621 70.0689 4.17359 70.5391 6.93637L70.5979 7.28906C70.833 8.8174 71.5972 10.2282 72.6553 11.345C73.7722 12.4619 75.1242 13.1673 76.7113 13.4024L77.0052 13.52C79.768 13.9902 81.8253 16.4003 81.8253 19.2219C81.8253 22.1022 79.6504 24.5711 76.7701 24.9238Z" fill="white"/>
<path d="M64.7783 2.17495C67.5999 2.17495 70.0099 4.23233 70.4802 6.9951L70.539 7.3478C70.7741 8.87614 71.5383 10.2869 72.5964 11.4038C73.7132 12.5206 75.0652 13.226 76.6523 13.4612L77.005 13.5199C79.7678 13.9902 81.8252 16.4003 81.8252 19.2218C81.8252 22.1022 79.6502 24.571 76.7699 24.9237L76.2409 24.9825C73.243 25.3352 70.4214 26.746 68.2465 28.8621L62.4858 34.6228C62.1919 34.9167 61.7804 35.0931 61.3689 35.0931C60.546 35.0931 59.8406 34.3877 59.8406 33.5647V33.2708C59.8406 32.9769 59.9582 32.6242 60.1345 32.3891L65.8952 24.3359C66.4242 23.5717 66.7181 22.69 66.7181 21.7495C66.7181 19.2806 64.7195 17.282 62.2507 17.282H62.0743C61.3101 17.282 60.546 17.4584 59.8406 17.8698L51.6111 22.5724C51.3759 22.69 51.1408 22.7488 50.9057 22.7488H50.3766C49.5537 22.7488 48.9071 22.1022 48.9071 21.2792C48.9071 20.8677 49.0834 20.4563 49.4361 20.1623L54.4326 15.8712C57.019 13.6375 58.6649 10.5808 59.1352 7.17145C59.4291 4.34989 61.898 2.17495 64.7783 2.17495ZM64.7783 0C60.7811 0 57.3717 2.9979 56.9015 6.9951C56.5488 9.81665 55.138 12.4619 52.9631 14.2841L47.9665 18.5752C47.1436 19.2806 46.6733 20.2799 46.6733 21.338C46.6733 23.3366 48.3192 24.9825 50.3178 24.9825H50.8469C51.4935 24.9825 52.0813 24.8062 52.6691 24.5122L60.8987 19.8097C61.2514 19.6333 61.6628 19.5157 62.0743 19.5157H62.2507C63.5439 19.5157 64.5432 20.5738 64.5432 21.8083C64.5432 22.2785 64.3668 22.7488 64.1317 23.1603L58.371 31.1547C57.9008 31.8013 57.6656 32.5654 57.6656 33.3296V33.6235C57.6656 35.6809 59.3115 37.3268 61.3689 37.3268C62.3682 37.3268 63.3087 36.9153 64.0141 36.2687L69.7748 30.508C71.5971 28.6858 73.9484 27.5101 76.476 27.2162L77.005 27.1575C81.0022 26.6872 84.0001 23.2778 84.0001 19.2806C84.0001 15.401 81.1786 12.0504 77.3577 11.4626L77.005 11.4038C75.947 11.2274 74.9477 10.6984 74.1835 9.93422C73.4193 9.17005 72.8903 8.17075 72.7139 7.05388L72.6551 6.70119C72.0085 2.82155 68.7167 0 64.7783 0Z" fill="#E0E0E0"/>
</svg>
