<svg width="97" height="105" viewBox="0 0 97 105" fill="none" xmlns="http://www.w3.org/2000/svg">
<path d="M48.529 105C75.3309 105 97.058 95.4329 97.058 83.6313C97.058 71.8298 75.3309 62.2627 48.529 62.2627C21.7272 62.2627 0 71.8298 0 83.6313C0 95.4329 21.7272 105 48.529 105Z" fill="#D2E4F0" fill-opacity="0.19"/>
<path d="M64.8408 61.226C65.8277 61.226 66.8145 61.5715 67.6272 62.1475C68.7301 62.9539 70.2394 62.9539 71.4004 62.1475C72.2131 61.5715 73.1999 61.226 74.1867 61.226C76.915 61.226 78.8307 63.5874 78.8307 67.0433C78.8307 68.4832 78.4824 69.8656 77.7858 71.1327C77.2053 72.2271 76.7409 73.3214 76.2765 74.3582C74.2448 75.6253 71.9228 76.3165 69.4848 76.3165C67.0467 76.3165 64.6667 75.6253 62.635 74.4157C62.2286 73.3214 61.7642 72.227 61.1837 71.1903C60.4871 69.9232 60.1389 68.5408 60.1389 67.1009C60.1969 63.645 62.1125 61.226 64.8408 61.226ZM22.8133 61.226C23.8001 61.226 24.787 61.5715 25.5997 62.1475C26.7026 62.9539 28.2119 62.9539 29.3728 62.1475C30.1855 61.5715 31.1724 61.226 32.1592 61.226C34.8875 61.226 36.8031 63.5874 36.8031 67.0433C36.8031 68.4832 36.4548 69.8656 35.7582 71.1327C35.1778 72.2271 34.7134 73.3214 34.249 74.3582C32.2173 75.6253 29.8953 76.3165 27.4572 76.3165C25.0192 76.3165 22.6392 75.6253 20.6074 74.4157C20.2011 73.3214 19.7367 72.227 19.1562 71.1903C18.4596 69.9232 18.1113 68.5408 18.1113 67.1009C18.1694 63.645 20.085 61.226 22.8133 61.226Z" fill="white"/>
<path d="M31.6365 65.7186L30.3594 63.8179C28.618 64.9122 26.4121 64.9122 24.6706 63.8179L23.3936 65.7762C24.6706 66.5825 26.1799 66.9857 27.6892 66.9857C29.0824 66.9281 30.4755 66.5249 31.6365 65.7186Z" fill="white"/>
<path d="M45.6267 48.6698L44.3496 50.6281C45.6267 51.4345 47.136 51.8377 48.6452 51.8377C50.0965 51.8377 51.4896 51.4345 52.6506 50.6281L51.3735 48.7274C49.6321 49.7641 47.4262 49.7642 45.6267 48.6698Z" fill="white"/>
<path d="M73.6643 65.7186L72.3872 63.8179C70.6457 64.9122 68.4399 64.9122 66.6404 63.8179L65.3633 65.7762C66.6404 66.5825 68.1496 66.9857 69.6589 66.9857C71.1101 66.9281 72.5033 66.5249 73.6643 65.7186Z" fill="white"/>
<path d="M44.9878 25.3428V23.0389H47.3098V25.3428H49.6317V23.0389H51.9537V32.2545H44.9878V25.3428ZM36.8609 50.8009H34.3068L32.4492 41.5277H36.8609V50.8009ZM37.4414 39.2238H33.4941L42.6659 28.4531V33.0033L37.4414 39.2238ZM56.8298 56.0998C55.4947 58.7493 54.5659 61.5716 53.9854 64.4514C53.8693 65.3154 53.5791 66.237 53.2308 67.0433C52.6503 67.0433 52.0698 65.8338 52.0698 63.5875C52.2439 62.2051 51.8376 60.8228 50.9669 59.7285C50.3283 59.1525 49.5156 58.8645 48.6449 58.9221H48.5288C47.6581 58.8645 46.8454 59.1525 46.2068 59.7285C45.3361 60.8228 44.9298 62.2051 45.1039 63.5875C45.1039 65.8914 44.5234 67.0433 43.9429 67.1009C43.5366 66.2946 43.2463 65.373 43.1302 64.509C42.5498 61.6292 41.621 58.8069 40.2858 56.1574C39.5893 54.8903 39.241 53.5079 39.241 52.068C39.241 48.6698 41.1566 46.2507 43.8849 46.2507C44.8717 46.2507 45.8586 46.5963 46.6712 47.1722C47.7742 47.9786 49.2834 47.9786 50.4444 47.1722C51.2571 46.5963 52.2439 46.2507 53.2308 46.2507C55.9591 46.2507 57.8747 48.6122 57.8747 52.068C57.8747 53.3928 57.5264 54.8327 56.8298 56.0998ZM57.8747 45.7899C56.6557 44.5228 54.9723 43.8316 53.2308 43.8892C51.7215 43.8892 50.2122 44.35 48.9932 45.2715C48.703 45.4443 48.3547 45.4443 48.0644 45.2715C46.8454 44.35 45.3942 43.8892 43.8268 43.8892C42.0854 43.8892 40.4019 44.5804 39.1829 45.7899V40.7789L44.4073 34.5584H52.6503L57.8747 40.7789V45.7899V45.7899ZM62.7508 50.8009H60.1967V41.5277H64.6084L62.7508 50.8009ZM63.5055 39.2238H59.5581L54.3337 33.0033V28.4531L63.5055 39.2238Z" fill="white"/>
<path d="M49.6901 27.6467H47.3682V29.9506H49.6901V27.6467Z" fill="white"/>
<path d="M14.6286 90.1975H82.3719C83.0104 90.1975 83.5329 89.6791 83.5329 89.0455V77.4685C83.5329 75.5678 81.9656 74.0126 80.0499 74.0126H79.0631C79.3534 73.4367 79.6436 72.8031 79.9338 72.2271C80.8046 70.6144 81.2109 68.8865 81.2109 67.0433C81.2109 62.3204 78.2504 58.9221 74.187 58.9221C72.6777 58.9221 71.1684 59.3829 69.9494 60.3045C69.6592 60.4772 69.3109 60.4772 69.0206 60.3045C67.8016 59.3829 66.3504 58.9221 64.783 58.9221C60.7196 58.9221 57.7591 62.3204 57.7591 67.0433C57.7591 68.8289 58.2235 70.6144 59.0362 72.2271C59.3264 72.8031 59.6167 73.4367 59.9069 74.0126H36.9775C37.2678 73.4367 37.558 72.8031 37.8483 72.2271C38.719 70.6144 39.1254 68.8865 39.1254 67.0433C39.1254 62.3204 36.1648 58.9221 32.1014 58.9221C30.5921 58.9221 29.0829 59.3829 27.8638 60.3045C27.5736 60.4772 27.2253 60.4772 26.935 60.3045C25.716 59.3829 24.2648 58.9221 22.6975 58.9221C18.634 58.9221 15.6735 62.3204 15.6735 67.0433C15.6735 68.8289 16.1379 70.6144 16.9506 72.2271C17.2409 72.8031 17.5311 73.4367 17.8213 74.0126H16.8345C14.9189 74.0126 13.3516 75.5678 13.3516 77.4685V89.0455C13.4677 89.6791 13.9901 90.1975 14.6286 90.1975ZM64.8411 61.226C65.8279 61.226 66.8148 61.5716 67.6274 62.1476C68.7304 62.9539 70.2397 62.9539 71.4006 62.1476C72.2133 61.5716 73.2002 61.226 74.187 61.226C76.9153 61.226 78.8309 63.5875 78.8309 67.0433C78.8309 68.4833 78.4826 69.8656 77.786 71.1328C77.2055 72.2271 76.7411 73.3215 76.2768 74.3582C74.245 75.6254 71.9231 76.3165 69.485 76.3165C67.047 76.3165 64.6669 75.6254 62.6352 74.4158C62.2289 73.3215 61.7645 72.2271 61.184 71.1904C60.4874 69.9232 60.1391 68.5409 60.1391 67.1009C60.1972 63.6451 62.1128 61.226 64.8411 61.226ZM22.8136 61.226C23.8004 61.226 24.7872 61.5716 25.5999 62.1476C26.7028 62.9539 28.2121 62.9539 29.3731 62.1476C30.1858 61.5716 31.1726 61.226 32.1595 61.226C34.8878 61.226 36.8034 63.5875 36.8034 67.0433C36.8034 68.4833 36.4551 69.8656 35.7585 71.1328C35.178 72.2271 34.7136 73.3215 34.2492 74.3582C32.2175 75.6254 29.8955 76.3165 27.4575 76.3165C25.0194 76.3165 22.6394 75.6254 20.6077 74.4158C20.2014 73.3215 19.737 72.2271 19.1565 71.1904C18.4599 69.9232 18.1116 68.5409 18.1116 67.1009C18.1696 63.6451 20.0853 61.226 22.8136 61.226ZM15.7896 77.4685C15.7896 76.8349 16.3121 76.3165 16.9506 76.3165H19.2726C21.7106 77.8141 24.555 78.6204 27.4575 78.6204C30.3019 78.6204 33.0882 77.8141 35.5263 76.3165H61.3001C63.7382 77.8141 66.5826 78.6204 69.485 78.6204C72.3294 78.6204 75.1158 77.8141 77.5538 76.3165H79.9919C80.6304 76.3165 81.1529 76.8349 81.1529 77.4685V87.8936H15.7896V77.4685Z" fill="#E0E0E0"/>
<path d="M48.5295 82.1339C44.408 82.1339 41.5056 80.2908 41.5056 78.6781H39.1836C39.1836 81.9036 43.3051 84.4954 48.5295 84.4954C53.7539 84.4954 57.8754 81.9612 57.8754 78.6781H55.5534C55.4954 80.2908 52.651 82.1339 48.5295 82.1339Z" fill="#E0E0E0"/>
<path d="M31.6375 65.7186L30.3604 63.8179C28.6189 64.9122 26.4131 64.9122 24.6716 63.8179L23.3945 65.7762C24.6716 66.5825 26.1809 66.9857 27.6902 66.9857C29.0833 66.9281 30.4765 66.5249 31.6375 65.7186Z" fill="#E0E0E0"/>
<path d="M45.6267 48.6698L44.3496 50.6281C45.6267 51.4345 47.136 51.8377 48.6452 51.8377C50.0965 51.8377 51.4896 51.4345 52.6506 50.6281L51.3735 48.7274C49.6321 49.7641 47.4262 49.7642 45.6267 48.6698Z" fill="#E0E0E0"/>
<path d="M73.6643 65.7186L72.3872 63.8179C70.6457 64.9122 68.4399 64.9122 66.6404 63.8179L65.3633 65.7762C66.6404 66.5825 68.1496 66.9857 69.6589 66.9857C71.1101 66.9281 72.5033 66.5249 73.6643 65.7186Z" fill="#E0E0E0"/>
<path d="M53.1732 20.6775H43.8273C43.1887 20.6775 42.6663 21.1959 42.6663 21.8294V24.8821L30.1277 39.627C30.0697 39.7422 29.9536 39.915 29.8955 40.0302C29.8955 40.0878 29.8955 40.0878 29.8955 40.1454C29.8955 40.3182 29.8955 40.4334 29.8955 40.6062L32.2175 52.1832C32.3336 52.7016 32.798 53.1048 33.3785 53.1048H36.9775C37.1516 54.4871 37.558 55.8695 38.1965 57.1366C39.4156 59.6133 40.3443 62.2628 40.8668 64.9699C41.3892 67.3314 41.8536 69.3473 43.9434 69.3473C44.7561 69.3473 47.4263 68.9441 47.4263 63.5299C47.4263 61.8596 47.7746 61.3988 47.8327 61.3412C47.9488 61.226 48.1229 61.226 48.4712 61.226H48.5873C48.9356 61.226 49.1678 61.226 49.2258 61.3412C49.3419 61.4564 49.6322 61.9172 49.6322 63.5299C49.6322 68.8865 52.3024 69.3473 53.1151 69.3473C55.1468 69.3473 55.6112 67.3314 56.1917 64.9699C56.7142 62.2628 57.643 59.6133 58.862 57.1366C59.5005 55.8695 59.9649 54.5447 60.081 53.1048H63.6801C64.2605 53.1048 64.7249 52.7016 64.841 52.1832L67.163 40.6062C67.163 40.4334 67.163 40.3182 67.163 40.1454C67.163 40.0878 67.163 40.0878 67.163 40.0302C67.105 39.8574 67.0469 39.7422 66.9308 39.627L54.3342 24.8821V21.8294C54.3342 21.1959 53.8117 20.6775 53.1732 20.6775ZM44.9883 25.3429V23.039H47.3102V25.3429H49.6322V23.039H51.9542V32.2546H44.9883V25.3429ZM36.8614 50.8009H34.3072L32.4497 41.5277H36.8614V50.8009ZM37.4419 39.2238H33.4945L42.6663 28.4531V33.0033L37.4419 39.2238ZM56.8303 56.0999C55.4951 58.7493 54.5664 61.5716 53.9859 64.4515C53.8698 65.3154 53.5795 66.237 53.2312 67.0434C52.6507 67.0434 52.0702 65.8338 52.0702 63.5875C52.2444 62.2052 51.8381 60.8229 50.9673 59.7285C50.3288 59.1525 49.5161 58.8645 48.6454 58.9221H48.5293C47.6585 58.8645 46.8458 59.1525 46.2073 59.7285C45.3366 60.8229 44.9302 62.2052 45.1044 63.5875C45.1044 65.8914 44.5239 67.0434 43.9434 67.101C43.537 66.2946 43.2468 65.373 43.1307 64.5091C42.5502 61.6292 41.6214 58.8069 40.2863 56.1575C39.5897 54.8903 39.2414 53.508 39.2414 52.0681C39.2414 48.6698 41.157 46.2507 43.8853 46.2507C44.8722 46.2507 45.859 46.5963 46.6717 47.1723C47.7746 47.9786 49.2839 47.9786 50.4449 47.1723C51.2576 46.5963 52.2444 46.2507 53.2312 46.2507C55.9595 46.2507 57.8752 48.6122 57.8752 52.0681C57.8752 53.3928 57.5269 54.8327 56.8303 56.0999ZM57.8752 45.7899C56.6561 44.5228 54.9727 43.8316 53.2312 43.8892C51.722 43.8892 50.2127 44.35 48.9936 45.2716C48.7034 45.4444 48.3551 45.4444 48.0649 45.2716C46.8458 44.35 45.3946 43.8892 43.8273 43.8892C42.0858 43.8892 40.4024 44.5804 39.1834 45.7899V40.779L44.4078 34.5585H52.6507L57.8752 40.779V45.7899V45.7899ZM62.7513 50.8009H60.1971V41.5277H64.6088L62.7513 50.8009ZM63.5059 39.2238H59.5586L54.3342 33.0033V28.4531L63.5059 39.2238Z" fill="#E0E0E0"/>
<path d="M49.6901 27.6467H47.3682V29.9506H49.6901V27.6467Z" fill="#E0E0E0"/>
<path d="M49.5737 0V10.0219H51.1991L48.5288 13.4778L45.8586 10.0219H47.484V0H45.6264V8.17883H42.0273L48.4708 16.4152L54.9142 8.17883H51.3152V0H49.5737Z" fill="#E0E0E0"/>
</svg>
