<svg xmlns="http://www.w3.org/2000/svg" width="253.332" height="50.556" viewBox="0 0 253.332 50.556">
  <g id="Group_49" data-name="Group 49" transform="translate(-0.001 0)">
    <path id="Fill_10" data-name="Fill 10" d="M9.636,36h0A12.826,12.826,0,0,1,5.5,35.363,7.541,7.541,0,0,1,.807,31.3,9.232,9.232,0,0,1,0,27.67a15.292,15.292,0,0,1,2.243-8.3c.435-.743.752-1.317,1.028-1.861a6.1,6.1,0,0,0,1.706,1.414,10.182,10.182,0,0,0-2.557,4.824,12.271,12.271,0,0,0-.389,3.9,6.727,6.727,0,0,0,2,4.688A6.8,6.8,0,0,0,7.664,34.06a10.412,10.412,0,0,0,1.81.155,16.146,16.146,0,0,0,4.152-.622c.289-.076.579-.167.86-.255l.13-.041.029-.007c.045-.01.1-.021.1-.081s-.052-.078-.1-.095l-.021-.008a7.625,7.625,0,0,1-2.716-2.1,6.736,6.736,0,0,0-2.493-1.841c-.088-.033-.136-.071-.152-.119s0-.11.062-.2a2.618,2.618,0,0,1,1.805-1.105c.132-.025.264-.041.387-.055.168-.018.249-.028.271-.07s-.015-.113-.088-.248a14.926,14.926,0,0,0-1.092-1.755A6.816,6.816,0,0,0,8,23.313a2.4,2.4,0,0,0-.966-.255,3.147,3.147,0,0,1,.433,1.032A2.148,2.148,0,0,1,5.345,26.6H5.324a2.153,2.153,0,0,1-.585-4.226c.137-.039.245-.07.275-.144.023-.057,0-.138-.07-.262a1.034,1.034,0,0,1,.01-.921,3.636,3.636,0,0,1,.568-.924c.058-.076.109-.111.161-.111a.191.191,0,0,1,.135.076,3.81,3.81,0,0,0,2.255,1.064c.313.056.643.131.979.224a1.7,1.7,0,0,1,1.3,1.323c.041.172.061.259.11.259s.105-.061.22-.17a14.976,14.976,0,0,0,2.89-3.917c.092-.175.138-.251.192-.251s.116.076.221.21a4.947,4.947,0,0,1,1.028,3.559c-.017.216-.035.428-.064.638-.014.106-.007.168.021.2a.08.08,0,0,0,.064.025.384.384,0,0,0,.15-.044A10.377,10.377,0,0,1,17.9,22.4a15.154,15.154,0,0,1,2.543-.2c.471,0,.95.018,1.466.054.438.031.88.071,1.308.111l.193.018c.074.007.146.02.229.035l.128.022a1.77,1.77,0,0,1-.418.509l-.013.012a4.872,4.872,0,0,1-1.954,1.1.694.694,0,0,1-.08.018c-.081.015-.164.031-.178.108s.058.123.128.168a.709.709,0,0,1,.068.047,2.562,2.562,0,0,1-1.6,4.53h-.08a2.564,2.564,0,0,1-2.037-4.059l.047-.068c.043-.062.085-.123.126-.185a.064.064,0,0,0,0-.037c0-.009,0-.02,0-.031l-.064,0a1.974,1.974,0,0,0-.575.116l-.114.035a3.62,3.62,0,0,0-2.33,5.5,2.457,2.457,0,0,0,1.888,1.065,7.069,7.069,0,0,0,.951.064,9.237,9.237,0,0,0,3.621-.821A7.481,7.481,0,0,0,25.6,24.849a20.5,20.5,0,0,0,.454-4.91c-.006-.606-.007-1.136,0-1.62,0-.179-.07-.259-.24-.267a6.445,6.445,0,0,1-3.633-1.628c-.312-.241-.619-.5-.916-.748-.44-.369-.893-.75-1.372-1.085a5.443,5.443,0,0,0-2.194-.994,4.168,4.168,0,0,0-.67-.056,3.531,3.531,0,0,0-.935.124.542.542,0,0,1-.142.023c-.125,0-.2-.07-.261-.251a3.09,3.09,0,0,1,.607-3.133,6.537,6.537,0,0,1,1.327-1.193c.111-.077.19-.15.108-.319a3.972,3.972,0,0,1,.443-4.222A4.181,4.181,0,0,1,21.65,2.657a.311.311,0,0,0,.294-.164,4.969,4.969,0,0,1,3.93-2.43A10.16,10.16,0,0,1,26.979,0a6.76,6.76,0,0,1,2.339.385,4.707,4.707,0,0,1,2.415,1.942.631.631,0,0,0,.57.351,4.12,4.12,0,0,1,2.749,1.207,4.766,4.766,0,0,1,1.394,2.827,3.239,3.239,0,0,1-.327,1.956c-.136.254-.062.368.142.516a5.072,5.072,0,0,1,1.783,2,2.981,2.981,0,0,1,.047,2.285c-.048.139-.1.225-.227.225a.377.377,0,0,1-.093-.013,4.126,4.126,0,0,0-1.034-.135,4.968,4.968,0,0,0-3.048,1.206c-.4.31-.8.635-1.191.949-.438.354-.89.72-1.345,1.067A5.888,5.888,0,0,1,28.495,18c-.14.023-.285.035-.424.047l-.13.011a.188.188,0,0,0-.2.216c0,.371,0,.749,0,1.113-.005.78-.011,1.585.036,2.378a16.969,16.969,0,0,0,.521,3.5,7.721,7.721,0,0,0,2.64,4.24,8.9,8.9,0,0,0,4.111,1.7,7.786,7.786,0,0,0,1.318.126,4.609,4.609,0,0,0,1.418-.208,2.588,2.588,0,0,0,1.841-2.589,3.49,3.49,0,0,0-2.579-3.751,5.628,5.628,0,0,0-.863-.23c-.031-.005-.064-.009-.118-.014l-.14-.014a2.657,2.657,0,0,1,.632,2.583,2.489,2.489,0,0,1-1.123,1.444,2.562,2.562,0,0,1-3.325-.578,2.6,2.6,0,0,1-.54-1.917,2.791,2.791,0,0,1,1.16-1.892l-.151-.051a6.2,6.2,0,0,1-1.348-.572,4.386,4.386,0,0,1-1.21-1.073,1.12,1.12,0,0,1,.544-.117c.059,0,.119,0,.178-.011.964-.1,1.808-.143,2.578-.143a14.673,14.673,0,0,1,3.282.341,11.382,11.382,0,0,1,1.911.619.62.62,0,0,1,.079.044.32.32,0,0,0,.151.062.108.108,0,0,0,.072-.028c.066-.055.044-.148.022-.237-.007-.029-.013-.056-.017-.082a5.093,5.093,0,0,1,1.037-4.153c.065-.086.118-.126.165-.126s.1.051.163.17a15.261,15.261,0,0,0,2.178,3.2c.207.231.441.445.668.652.106.1.215.2.321.3l.015-.025a.228.228,0,0,0,.038-.082,1.914,1.914,0,0,1,1.8-1.595l.135-.025a9.005,9.005,0,0,0,1.305-.308,2.981,2.981,0,0,0,1.27-.786.28.28,0,0,1,.189-.115c.061,0,.12.042.184.133l.07.1a2.32,2.32,0,0,1,.566,1.271.853.853,0,0,1-.112.51c-.057.087-.075.149-.057.2s.079.085.207.118a2.168,2.168,0,0,1,1.344,3.2,2.179,2.179,0,0,1-1.372,1.006,2.1,2.1,0,0,1-.487.057,2.168,2.168,0,0,1-1.861-3.279.413.413,0,0,1,.054-.067c.053-.058.108-.119.044-.187a.1.1,0,0,0-.079-.031.474.474,0,0,0-.14.033c-.025.008-.049.017-.072.022A4.872,4.872,0,0,0,44,24.624a12.7,12.7,0,0,0-1.926,2.767c-.054.1-.084.175-.057.224s.091.067.219.077a2.754,2.754,0,0,1,2.238,1.176c.047.071.085.134.068.187s-.056.072-.134.1a6.534,6.534,0,0,0-2.5,1.826,8.327,8.327,0,0,1-2.352,1.949l-.291.143-.007,0-.2.1a.033.033,0,0,0-.008.017l0,.013c.007.067.062.079.11.089l.036.009a16.66,16.66,0,0,0,5.132.91l.239,0a8.424,8.424,0,0,0,3.752-.86,6.035,6.035,0,0,0,3.212-4.177,11.3,11.3,0,0,0-.186-5.526,10.632,10.632,0,0,0-2.065-4.234c-.13-.155-.275-.314-.443-.485a13.793,13.793,0,0,0,.913-1.312c.149-.232.3-.472.465-.709A15.734,15.734,0,0,0,51,18.439a21.917,21.917,0,0,1,1.834,3.635,14.463,14.463,0,0,1,.94,5.805,8,8,0,0,1-2.5,5.767,8.64,8.64,0,0,1-4.192,2.045A14.78,14.78,0,0,1,44.059,36a19.818,19.818,0,0,1-4.282-.5,28.111,28.111,0,0,1-12.494-6.517l-.051-.048-.051-.048c-.144-.127-.217-.191-.288-.191s-.144.065-.286.2l-.007.007a28.532,28.532,0,0,1-8.036,5.134,24.626,24.626,0,0,1-6.1,1.752A19.506,19.506,0,0,1,9.636,36ZM26.9,14.712a.452.452,0,0,1,.186.044,2.132,2.132,0,0,0,.876.2,2.3,2.3,0,0,0,1.01-.249,7.08,7.08,0,0,0,1.246-.842l.045-.035.251-.2a5.712,5.712,0,0,1,2.45-1.365c.067-.013.1-.033.114-.061s-.025-.088-.064-.136L33,12.05a3.647,3.647,0,0,0-2.008-1.338,3.751,3.751,0,0,0-.915-.112,5.825,5.825,0,0,0-2.036.426.348.348,0,0,0-.054.028.208.208,0,0,1-.1.038.114.114,0,0,1-.067-.023c.041-.107.083-.212.126-.317.089-.222.181-.449.254-.677A3.488,3.488,0,0,0,28,7.207a10.66,10.66,0,0,0-.612-.957c-.127-.184-.258-.373-.379-.564-.038-.06-.074-.089-.109-.089s-.073.03-.115.1c-.108.165-.22.331-.328.492-.209.31-.425.631-.619.957a3.386,3.386,0,0,0-.34,2.59,7.9,7.9,0,0,0,.447,1.242l.067.159a6.482,6.482,0,0,0-1.835-.507A4.491,4.491,0,0,0,23.7,10.6a3.625,3.625,0,0,0-2.916,1.455c-.043.053-.081.1-.067.143s.05.05.119.063a5.261,5.261,0,0,1,2.219,1.183c.105.083.21.167.314.251a9.158,9.158,0,0,0,1.284.919,2.437,2.437,0,0,0,1.18.333,2.167,2.167,0,0,0,.881-.194A.45.45,0,0,1,26.9,14.712Z" transform="translate(7.176 14.556)" fill="#f75102"/>
    <path id="Fill_21" data-name="Fill 21" d="M36.134,39.812h0c-.007-.024-.014-.046-.021-.069s-.018-.058-.026-.088a16.465,16.465,0,0,1-.5-3.371c-.046-.773-.04-1.565-.035-2.331,0-.248,0-.5,0-.742.09-.011.154-.02.218-.03a6.568,6.568,0,0,0,2.943-1.356c.452-.344.9-.7,1.329-1.054l.045-.036c.38-.307.772-.625,1.166-.929A4.3,4.3,0,0,1,43.9,28.73a3.481,3.481,0,0,1,.885.118,1.048,1.048,0,0,0,.253.033.851.851,0,0,0,.825-.649,3.628,3.628,0,0,0-.066-2.753,5.522,5.522,0,0,0-1.849-2.15,3.909,3.909,0,0,0,.3-2.138,5.472,5.472,0,0,0-.376-1.427c5.075-.274,9.2-.768,11.926-1.094l.308-.037c.551-.066,1.026-.122,1.462-.17a14.048,14.048,0,0,0,4.6-1.264,43.164,43.164,0,0,1-3.195,7.3,35.648,35.648,0,0,1-7.57,9.637l-.428.419c-.006,0-.556.472-1.381,1.087a14.907,14.907,0,0,1-1.672-2.572.808.808,0,0,0-.728-.515.832.832,0,0,0-.672.379,6.048,6.048,0,0,0-.786,1.305,5.879,5.879,0,0,0-.44,2.637,12,12,0,0,0-1.382-.4,15.266,15.266,0,0,0-3.421-.357c-.794,0-1.66.048-2.645.147-.036,0-.074,0-.111.006h-.028a1.705,1.705,0,0,0-.836.2l-.625.36.437.574a5.049,5.049,0,0,0,1.379,1.228,4.49,4.49,0,0,0,.68.344,3.284,3.284,0,0,0-.415.727c-.692.048-1.432.083-2.2.106Zm-4.125,0h0c-.778-.022-1.515-.057-2.192-.1a3.165,3.165,0,0,0-.419-.728,5.31,5.31,0,0,0,1.556-1.013,2.391,2.391,0,0,0,.556-.693L31.9,36.5l-.97-.159c-.1-.017-.19-.033-.283-.042l-.214-.019c-.438-.041-.867-.08-1.3-.111-.525-.037-1.035-.055-1.514-.055a15.823,15.823,0,0,0-2.645.21,11.85,11.85,0,0,0-2.145.554A5.541,5.541,0,0,0,21.657,33a.915.915,0,0,0-.721-.455.875.875,0,0,0-.755.591,15.243,15.243,0,0,1-1.627,2.505c-.854-.614-1.388-1.061-1.41-1.08V34.55a.016.016,0,0,0,0,.005C10.3,28.811,7.052,20.693,5.973,17.47a14.629,14.629,0,0,0,4,.994c.427.047.893.1,1.432.167l.338.04c2.844.341,7.143.856,12.508,1.122a4.38,4.38,0,0,0-.063,3.524,6.844,6.844,0,0,0-1.215,1.139,3.683,3.683,0,0,0-.716,3.744.886.886,0,0,0,.861.68,1.179,1.179,0,0,0,.31-.045,2.891,2.891,0,0,1,.768-.1,3.5,3.5,0,0,1,.567.048,4.637,4.637,0,0,1,1.933.887c.464.324.9.693,1.327,1.049l.027.022c.294.247.6.5.91.743a7.315,7.315,0,0,0,3.624,1.731c0,.358,0,.756,0,1.29a19.873,19.873,0,0,1-.439,4.758c-.04.172-.087.352-.144.551ZM10.445,19.5a23.1,23.1,0,0,0,1.935,4.088,19,19,0,0,0,6.4,6.709l-.012-.013c-.523-.692-5.107-6.852-4.911-10.071Zm14.212-.477h0c-5.457-.257-9.882-.787-12.81-1.137-.669-.08-1.246-.149-1.761-.206-3.941-.438-5.69-2.05-5.707-2.066A3.422,3.422,0,0,0,2.3,15.036a4.99,4.99,0,0,0-.624.036c-.067,0-.133,0-.2,0A1.529,1.529,0,0,1,.168,14.6,1.11,1.11,0,0,1,.049,13.7a.347.347,0,0,1,.114-.254,6.455,6.455,0,0,1,3.557-1.007,3.9,3.9,0,0,1,.511.031,9.2,9.2,0,0,0,1.2.088,3.514,3.514,0,0,0,.911-.088,3.908,3.908,0,0,1,.639-.307c-.757.52-1.192.879-1.272.946a1.169,1.169,0,0,0-.517.934c0,.886.686,1.9,8.871,2.751,3.331.345,7.451.6,11.915.737a5.138,5.138,0,0,0-1.166,1.245c-.064.1-.115.177-.161.251Zm18.826-.029h0a5.181,5.181,0,0,0-1.357-1.467c4.453-.137,8.578-.391,11.93-.738,8.186-.848,8.871-1.865,8.871-2.751,0-.532-.4-.972-1.175-1.309-.085-.051-.17-.1-.256-.148l-.149-.086a4.438,4.438,0,0,0,.769.057,9.189,9.189,0,0,0,1.2-.087,3.9,3.9,0,0,1,.511-.031,6.455,6.455,0,0,1,3.557,1.007.346.346,0,0,1,.114.254,1.108,1.108,0,0,1-.119.909,1.529,1.529,0,0,1-1.308.473c-.063,0-.129,0-.2,0a4.948,4.948,0,0,0-.624-.036,3.424,3.424,0,0,0-2.082.577c-.017.016-1.768,1.629-5.707,2.066-.52.058-1.1.128-1.778.208-2.8.335-7.028.841-12.2,1.107ZM27.233,16.871h0c-12.568-.325-21.345-1.49-21.345-2.833a.541.541,0,0,1,.266-.4,29.569,29.569,0,0,1,5.682-3.452A48.582,48.582,0,0,1,28.353,5.713c0,.394.194.913,1.106,1.153a8.7,8.7,0,0,0,1.155.194,33.094,33.094,0,0,0,3.449.159A33.059,33.059,0,0,0,37.51,7.06a8.644,8.644,0,0,0,1.155-.194,1.311,1.311,0,0,0,1.076-.9c2.942.46,13.2,2.353,21.7,7.379.53.225.8.457.8.691,0,1.343-8.776,2.508-21.343,2.833a4.552,4.552,0,0,0-1.412-.274c-.008-.011-.021-.029-.039-.057a5.323,5.323,0,0,0-2.733-2.2,7.325,7.325,0,0,0-2.541-.425,10.881,10.881,0,0,0-1.187.068,5.573,5.573,0,0,0-4.322,2.6,5.34,5.34,0,0,0-1.427.285ZM10.5,14.022c-.013,0-.02,0-.021,0,.007.019.765.128,4.333.532a42.423,42.423,0,0,1,11.172-6.25c-.121.032-12.526,3.323-15.459,5.717Zm23.562-7.4A32.127,32.127,0,0,1,30.7,6.472c-.821-.092-1.559-.2-1.559-.568a.248.248,0,0,1,.014-.085c.17-.693,1.676-1.237,2.134-1.387a.925.925,0,0,0,.006-.562c-1.2-1.495-1.15-2.323-1.106-2.542a.71.71,0,0,1,.2-.516C31.116.023,33.763,0,34.062,0l.293.006c1.022.032,2.82.18,3.389.817a.7.7,0,0,1,.19.506c.043.219.092,1.048-1.106,2.542a.92.92,0,0,0,.006.562c.457.15,1.964.7,2.134,1.387a.249.249,0,0,1,.014.085c0,.364-.737.476-1.559.568A32.127,32.127,0,0,1,34.062,6.627Z" fill="#373737"/>
    <path id="Fill_24" data-name="Fill 24" d="M137.538,29.348h-4.614a3.945,3.945,0,0,1,.1-.9,3.332,3.332,0,0,1,.31-.828V21.46a1.129,1.129,0,0,1-.62-.517,2.1,2.1,0,0,1-.1-.724,2.271,2.271,0,0,1,.138-.827,1.705,1.705,0,0,1,.619-.688V13.055c0-.79-.017-1.607-.051-2.428a9.475,9.475,0,0,0-.328-2.222,2.884,2.884,0,0,0-.275-.809,3.976,3.976,0,0,0-.258-.379,1.412,1.412,0,0,1-.189-.328,1.577,1.577,0,0,1-.069-.551h3.2c.017,0,.058.021.156.121l.189.189q.069.1.224.345c.1.15.2.324.31.517.1.171.188.346.276.534a3.359,3.359,0,0,0,.189.362,2.326,2.326,0,0,0,.258-.551,5.5,5.5,0,0,1,.534-1c.229-.343.426-.517.586-.517h3.824a1.06,1.06,0,0,1,.43.121,1.305,1.305,0,0,1,.447.345,4.737,4.737,0,0,1,.345.448.8.8,0,0,1,.155.464V20.391a2.416,2.416,0,0,1-.6,1.481,11.553,11.553,0,0,1-1.379,1.447c-.512.455-1.05.89-1.6,1.292-.53.387-.947.706-1.24.947l-.172.069a.934.934,0,0,1-.207-.069,1.807,1.807,0,0,1-.258-.189,3.608,3.608,0,0,0-.413-.292,2.644,2.644,0,0,1-.413-.31,2.693,2.693,0,0,0-.293-.242V24.9c.036.178.087.426.189.913.077.35.153.727.241,1.188l.108.553.065.329,0,.014c.006.028.012.055.016.082l0,.008.014.074v.007c.012.058.022.114.033.172a5.81,5.81,0,0,1,.12,1.1h0Zm.139-20.255a2.473,2.473,0,0,0-.6,1.067,8.506,8.506,0,0,0-.275,1.447,14.387,14.387,0,0,0-.086,1.516c0,.357.006.722.017,1.085.012.286.017.582.017.878v.861c.048.332.088.75.121,1.24l.028.4v.01l.021.288v.016l.021.3.032.468c.035.478.087,1.058.155,1.722,1.332,1.332,2.078,2.073,2.1,2.084a.231.231,0,0,0,.1.017.929.929,0,0,0,.172-.034,1.377,1.377,0,0,0,.224-.155c.128-.1.155-.139.155-.156V9.094a.3.3,0,0,0-.173-.293,1,1,0,0,0-.344-.1,3.173,3.173,0,0,0-.344-.017h-.242A1.5,1.5,0,0,0,137.678,9.094ZM44.433,29.348H39.819a3.946,3.946,0,0,1,.1-.9,3.314,3.314,0,0,1,.31-.827V21.46a1.129,1.129,0,0,1-.62-.517,2.082,2.082,0,0,1-.1-.724,2.232,2.232,0,0,1,.138-.826,1.7,1.7,0,0,1,.619-.689V13.055c0-.781-.017-1.6-.051-2.427a9.549,9.549,0,0,0-.328-2.222,3.012,3.012,0,0,0-.275-.81,4.236,4.236,0,0,0-.258-.378,1.343,1.343,0,0,1-.189-.328,1.556,1.556,0,0,1-.069-.551h3.2c.022,0,.075.041.156.121l.189.189q.069.1.224.345c.112.175.216.349.31.517s.194.355.276.534a3.223,3.223,0,0,0,.189.362,2.4,2.4,0,0,0,.258-.552,5.445,5.445,0,0,1,.534-1c.229-.343.426-.517.586-.517h3.824a1.074,1.074,0,0,1,.43.121,1.305,1.305,0,0,1,.447.345,5.427,5.427,0,0,1,.345.448.811.811,0,0,1,.155.464V20.392a2.41,2.41,0,0,1-.6,1.48A11.592,11.592,0,0,1,48.24,23.32c-.508.452-1.046.887-1.6,1.292s-.963.716-1.24.947l-.172.068a.944.944,0,0,1-.207-.068,1.82,1.82,0,0,1-.258-.189,3.848,3.848,0,0,0-.413-.293,2.7,2.7,0,0,1-.413-.31,2.972,2.972,0,0,0-.293-.242v.38c.058.289.122.6.189.913.081.377.16.766.241,1.189.035.175.068.349.1.523l.02.1,0,.009.059.3c.02.1.039.2.058.3a5.933,5.933,0,0,1,.12,1.1h0Zm.139-20.255a2.447,2.447,0,0,0-.6,1.068,8.5,8.5,0,0,0-.275,1.446,14.15,14.15,0,0,0-.086,1.516c0,.408.005.763.017,1.085s.017.61.017.878v.86c.047.324.087.741.121,1.24l.028.406q.038.547.076,1.075c.037.512.089,1.092.155,1.723,1.411,1.41,2.079,2.073,2.1,2.083a.21.21,0,0,0,.1.018.96.96,0,0,0,.172-.035,1.556,1.556,0,0,0,.224-.155c.1-.079.155-.131.155-.155V9.094A.3.3,0,0,0,46.6,8.8a.987.987,0,0,0-.344-.1,3.22,3.22,0,0,0-.344-.017h-.242A1.5,1.5,0,0,0,44.573,9.094ZM178.081,25.317c-.626,0-1.181-.017-1.652-.051a3.1,3.1,0,0,1-1.24-.327,2.542,2.542,0,0,1-.878-.793,4.6,4.6,0,0,1-.6-1.412V18.6c0-.754-.005-1.427-.017-2-.012-.745-.017-1.387-.017-1.963V11.057a4.147,4.147,0,0,1,.207-.689,4.312,4.312,0,0,1,.345-.672c.135-.213.279-.421.43-.619a6.135,6.135,0,0,1,.464-.535H175.1l-.219-.016c-.151-.012-.308-.018-.465-.018-.19,0-.338-.005-.465-.017s-.227-.017-.275-.017a5.831,5.831,0,0,0-1.171.121,3.029,3.029,0,0,0-1.033.413,2.22,2.22,0,0,0-.724.793,2.582,2.582,0,0,0-.275,1.257v12.5a1.737,1.737,0,0,0-.173.465,3.645,3.645,0,0,1-.189.585,1.54,1.54,0,0,1-.276.464.435.435,0,0,1-.341.144.759.759,0,0,1-.088-.005H168.2a.545.545,0,0,1-.465-.207,2.4,2.4,0,0,1-.275-.5,3.8,3.8,0,0,1-.19-.6,2.191,2.191,0,0,0-.172-.517l-.207-11.952a6.277,6.277,0,0,0-.172-1.085,5.26,5.26,0,0,0-.379-1.067,2.429,2.429,0,0,0-.637-.827,1.492,1.492,0,0,0-.982-.328c-.062,0-.149.005-.275.017a1.018,1.018,0,0,0-.293.069c-.088.04-.166.078-.241.121a.228.228,0,0,0-.121.206l-.137,9.68.068,6.338-.654.688h-3.789a1.5,1.5,0,0,1,.172-.654c.122-.24.24-.46.362-.671.134-.231.256-.458.362-.672a2.061,2.061,0,0,0,.206-.758V10.334a2.048,2.048,0,0,1,.224-.879,4.673,4.673,0,0,1,.654-.964,10.487,10.487,0,0,1,.931-.947,7.951,7.951,0,0,1,1.05-.793,7.5,7.5,0,0,1,1.051-.551,2.342,2.342,0,0,1,.878-.207,10.692,10.692,0,0,1,1.55.1,5.5,5.5,0,0,1,1.274.345,3.579,3.579,0,0,1,1.12.758,4.871,4.871,0,0,1,.947,1.343c.13-.279.265-.552.4-.809a4.765,4.765,0,0,1,.534-.809,3.51,3.51,0,0,1,.706-.655,1.57,1.57,0,0,1,.913-.275h.345a5.474,5.474,0,0,1,.586.051c.281.035.589.058.913.069s.667.035,1.032.069.721.064,1.05.086c.42.031.693.051.913.069.248.023.445.034.568.034v.345a.567.567,0,0,0-.085.156c-.033.079-.06.15-.086.223a2.376,2.376,0,0,1-.121.293c-.059.135-.123.268-.19.4a3.72,3.72,0,0,0-.172.413,1.177,1.177,0,0,0-.068.345V22.01a2.69,2.69,0,0,0,.138.827c.094.281.187.553.275.809.1.278.182.549.258.827a3.1,3.1,0,0,1,.121.842h0Zm-93.105,0c-.633,0-1.174-.017-1.652-.051a3.092,3.092,0,0,1-1.24-.327,2.522,2.522,0,0,1-.878-.793,4.58,4.58,0,0,1-.6-1.412V18.6c0-.7-.005-1.371-.017-2-.011-.68-.017-1.34-.017-1.964V11.057a3.951,3.951,0,0,1,.207-.689A4.13,4.13,0,0,1,81.12,9.7c.134-.212.279-.419.43-.619a5.473,5.473,0,0,1,.464-.534c-.024,0-.112-.006-.24-.017s-.3-.018-.465-.018c-.19,0-.338-.005-.465-.017-.152-.012-.232-.017-.275-.017a5.831,5.831,0,0,0-1.171.121,2.962,2.962,0,0,0-1.033.414,2.207,2.207,0,0,0-.724.792,2.582,2.582,0,0,0-.275,1.257v12.5a1.7,1.7,0,0,0-.173.465,3.94,3.94,0,0,1-.189.585,1.561,1.561,0,0,1-.276.465.433.433,0,0,1-.339.144.744.744,0,0,1-.09-.006H75.091a.547.547,0,0,1-.465-.207,2.287,2.287,0,0,1-.275-.5,3.6,3.6,0,0,1-.19-.6,2.305,2.305,0,0,0-.172-.517l-.207-11.952a6.386,6.386,0,0,0-.172-1.085,5.315,5.315,0,0,0-.379-1.067,2.42,2.42,0,0,0-.637-.827,1.5,1.5,0,0,0-.982-.327c-.068,0-.161.005-.275.016a1,1,0,0,0-.293.069,2.508,2.508,0,0,0-.241.121.225.225,0,0,0-.121.207l-.137,9.679.068,6.338-.654.688H66.17a1.482,1.482,0,0,1,.172-.654c.1-.21.223-.429.362-.671.131-.227.253-.454.362-.672a2.061,2.061,0,0,0,.206-.758V10.334a2.054,2.054,0,0,1,.224-.879,4.535,4.535,0,0,1,.654-.964,10.472,10.472,0,0,1,.931-.947,7.727,7.727,0,0,1,1.05-.793A7.3,7.3,0,0,1,71.182,6.2a2.342,2.342,0,0,1,.878-.207,10.71,10.71,0,0,1,1.55.1,5.489,5.489,0,0,1,1.274.345A3.61,3.61,0,0,1,76,7.2a4.9,4.9,0,0,1,.947,1.344c.124-.271.258-.544.4-.81a4.744,4.744,0,0,1,.534-.809,3.455,3.455,0,0,1,.706-.655,1.57,1.57,0,0,1,.913-.275h.345a5.626,5.626,0,0,1,.586.051c.28.035.588.058.913.069.341.013.688.036,1.032.069.4.038.74.066,1.051.086.369.026.659.048.913.069s.453.035.568.035v.344a.567.567,0,0,0-.085.156c-.033.076-.061.149-.086.223a3.013,3.013,0,0,1-.121.293c-.061.136-.125.269-.189.4a3.189,3.189,0,0,0-.173.413,1.156,1.156,0,0,0-.068.345V22.011a2.637,2.637,0,0,0,.138.826c.086.257.175.521.275.81s.184.557.258.826a3.113,3.113,0,0,1,.121.842h0Zm36-.516a3.332,3.332,0,0,1-1.069-1.24,6.032,6.032,0,0,1-.534-1.705,11.4,11.4,0,0,1-.155-1.808A5.956,5.956,0,0,1,119.972,17,9.767,9.767,0,0,1,122,14.605c-.352-.3-.607-.527-.826-.724a3.16,3.16,0,0,1-.552-.637,2.62,2.62,0,0,1-.31-.741,4.3,4.3,0,0,1-.1-1,3.961,3.961,0,0,1,.4-1.517,8.166,8.166,0,0,1,1.034-1.7,7.991,7.991,0,0,1,1.344-1.36,2.278,2.278,0,0,1,1.4-.552h4.477a.913.913,0,0,1,.827.448,1.764,1.764,0,0,1,.275.93V21.288l.31,3.961h-3.135c-.021,0-.076-.049-.155-.138a.747.747,0,0,0-.189-.172c-.046-.139-.108-.376-.19-.724-.064-.281-.122-.526-.155-.654a5.7,5.7,0,0,1-.81.9,2.884,2.884,0,0,1-.826.517,3.9,3.9,0,0,1-.913.241,8.349,8.349,0,0,1-1.138.069A3.067,3.067,0,0,1,120.972,24.8Zm1.79-15.621a3.382,3.382,0,0,0-.1.74,1.807,1.807,0,0,0,.534,1.43,4.112,4.112,0,0,0,1.189.724c.441.175.852.325,1.222.447s.568.305.568.534a.518.518,0,0,1-.034.173l-2.755,2.755a1.516,1.516,0,0,0-.363,1.034c-.034.539-.051.989-.051,1.377V21.46a1.71,1.71,0,0,0,.6,1.05,1.84,1.84,0,0,0,1.154.363,1.207,1.207,0,0,0,.9-.346,2.413,2.413,0,0,0,.551-.895,3.792,3.792,0,0,0,.241-1.138c.024-.39.035-.739.035-1.067V8.749h-3.065A.559.559,0,0,0,122.762,9.18ZM27.867,24.8a3.309,3.309,0,0,1-1.069-1.24,6,6,0,0,1-.534-1.705,11.351,11.351,0,0,1-.155-1.808A5.949,5.949,0,0,1,26.867,17,9.647,9.647,0,0,1,28.9,14.605c-.336-.288-.607-.526-.826-.724a3.081,3.081,0,0,1-.552-.637,2.556,2.556,0,0,1-.31-.741,4.228,4.228,0,0,1-.1-1,3.929,3.929,0,0,1,.4-1.516,8.028,8.028,0,0,1,1.034-1.706,7.924,7.924,0,0,1,1.344-1.36,2.282,2.282,0,0,1,1.395-.552h4.477a.913.913,0,0,1,.827.448,1.759,1.759,0,0,1,.275.93V21.288l.31,3.962H34.032c-.022,0-.075-.047-.155-.139a.751.751,0,0,0-.189-.172c-.047-.137-.108-.374-.19-.724s-.132-.562-.155-.654a5.776,5.776,0,0,1-.81.9,2.935,2.935,0,0,1-.826.517,3.98,3.98,0,0,1-.913.241,8.218,8.218,0,0,1-1.138.069A3.065,3.065,0,0,1,27.867,24.8ZM29.657,9.18a3.32,3.32,0,0,0-.1.741,1.805,1.805,0,0,0,.534,1.429,4.1,4.1,0,0,0,1.189.724c.437.173.849.323,1.222.447s.568.306.568.534a.539.539,0,0,1-.034.173l-2.755,2.755a1.514,1.514,0,0,0-.363,1.034c-.034.523-.051.974-.051,1.377V21.46a1.7,1.7,0,0,0,.6,1.05,1.831,1.831,0,0,0,1.154.363,1.213,1.213,0,0,0,.9-.346,2.452,2.452,0,0,0,.551-.895,3.851,3.851,0,0,0,.241-1.137c.024-.41.035-.76.035-1.068V8.749H30.278A.559.559,0,0,0,29.657,9.18Zm118.939,16a5.008,5.008,0,0,1-1.206-.362,2.744,2.744,0,0,1-.964-.689,1.542,1.542,0,0,1-.379-1.051V9.61a2.874,2.874,0,0,0-.121-.844c-.07-.234-.155-.488-.258-.775-.089-.247-.176-.508-.258-.775a2.909,2.909,0,0,1-.121-.844h3.272c.068,0,.161.064.275.19s.226.257.362.43a2.71,2.71,0,0,1,.31.482.928.928,0,0,1,.121.345V20.185a6.838,6.838,0,0,0,.052.758,3.022,3.022,0,0,0,.224.844,2.727,2.727,0,0,0,.447.706.9.9,0,0,0,.689.31,1.626,1.626,0,0,0,.879-.225,2.486,2.486,0,0,0,1.033-1.239c.106-.268.193-.517.257-.741.023-.319.04-.8.052-1.463.013-.6.018-1.3.018-2.154V15.362c0-.518-.005-1.012-.018-1.463-.012-.522-.017-.922-.017-1.257V11.78a10.623,10.623,0,0,0-.121-1.739c-.082-.485-.172-.908-.275-1.292s-.2-.777-.275-1.137a5.885,5.885,0,0,1-.121-1.24h3.307c.068,0,.164.062.293.19a3.411,3.411,0,0,1,.362.43,5.251,5.251,0,0,1,.31.482.861.861,0,0,1,.138.345V23.492a1.36,1.36,0,0,1,.379.809,6.591,6.591,0,0,1,.068.948h-3.686a.457.457,0,0,1-.224-.138c-.105-.094-.155-.149-.155-.172,0-.112-.005-.258-.017-.414-.012-.2-.018-.388-.018-.551,0-.187.006-.373.018-.551.011-.131.017-.257.017-.345-.292.384-.57.72-.826,1a4.713,4.713,0,0,1-.775.689,2.669,2.669,0,0,1-.861.4,4.644,4.644,0,0,1-1.155.121A6.394,6.394,0,0,1,148.6,25.18Zm-93.1,0a5.082,5.082,0,0,1-1.206-.362,2.744,2.744,0,0,1-.964-.689,1.542,1.542,0,0,1-.379-1.051V9.61a2.863,2.863,0,0,0-.121-.843c-.073-.243-.16-.5-.258-.775s-.181-.522-.258-.776a2.865,2.865,0,0,1-.121-.844h3.272c.068,0,.161.064.275.19s.234.268.362.431a2.8,2.8,0,0,1,.31.482.928.928,0,0,1,.121.345V20.185a6.837,6.837,0,0,0,.052.758,2.95,2.95,0,0,0,.224.844,2.667,2.667,0,0,0,.447.706.891.891,0,0,0,.688.31,1.641,1.641,0,0,0,.879-.224,2.483,2.483,0,0,0,1.033-1.24c.1-.257.189-.507.257-.741.023-.319.041-.8.052-1.463.013-.684.018-1.408.018-2.153v-1.62c0-.48-.005-.972-.018-1.463s-.017-.9-.017-1.257V11.78a10.622,10.622,0,0,0-.121-1.739c-.081-.474-.171-.9-.275-1.291s-.2-.776-.275-1.138a5.8,5.8,0,0,1-.121-1.24h3.307c.068,0,.164.062.292.19a3.522,3.522,0,0,1,.362.431c.118.166.221.328.31.482a.861.861,0,0,1,.138.345V23.492a1.376,1.376,0,0,1,.379.809,6.84,6.84,0,0,1,.068.948H60.521a.443.443,0,0,1-.224-.138c-.1-.091-.155-.149-.155-.172,0-.1-.005-.248-.017-.414-.012-.191-.018-.376-.018-.551,0-.2.006-.383.018-.551.012-.144.017-.266.017-.345-.3.4-.581.732-.826,1a4.691,4.691,0,0,1-.775.689,2.671,2.671,0,0,1-.861.4,4.738,4.738,0,0,1-1.155.12A6.509,6.509,0,0,1,55.491,25.18Zm47.706.068c-.022,0-.077-.049-.155-.138s-.124-.14-.155-.172a.227.227,0,0,1-.051-.1.469.469,0,0,1-.017-.1,1.134,1.134,0,0,1,.033-.172c.013-.025.029-.056.047-.092l.02-.04.032-.063.061-.122.082-.165c.123-.242.252-.509.363-.741s.226-.464.361-.724c.107-.2.191-.361.241-.465V8.37a2.429,2.429,0,0,1,.569-1.412,6.989,6.989,0,0,1,1.4-1.378,9.937,9.937,0,0,1,1.7-1.033,3.661,3.661,0,0,1,1.5-.413,2.014,2.014,0,0,1-.19.878c-.131.275-.276.553-.431.826a6.761,6.761,0,0,0-.43.948,3.646,3.646,0,0,0-.189,1.24c0,.064,0,.26.017.688.012.324.017.569.017.689l4.822-2.411a1.017,1.017,0,0,0,.534-.671,3,3,0,0,0,.156-.878,2.806,2.806,0,0,0-.293-1.378,2.03,2.03,0,0,0-.792-.792,3.242,3.242,0,0,0-1.154-.362,10.442,10.442,0,0,0-1.378-.086c-.495,0-.97.017-1.412.051a4.7,4.7,0,0,0-1.223.259,3.488,3.488,0,0,0-1.068.637,5.018,5.018,0,0,0-.948,1.154,1.53,1.53,0,0,0-.154.017,1.341,1.341,0,0,1-.19.017,1.235,1.235,0,0,1-1.033-.585A5.14,5.14,0,0,1,103.216,3a8.863,8.863,0,0,1-.363-1.6A11.033,11.033,0,0,1,102.75.1h12.159a1.259,1.259,0,0,1,1,.5,3.83,3.83,0,0,1,.654,1.171,7.1,7.1,0,0,1,.345,1.361,7.665,7.665,0,0,1,.1,1.1,3.7,3.7,0,0,1-.706,2.325,12.708,12.708,0,0,1-1.739,1.808,13.06,13.06,0,0,1,1.55,1.464,5.73,5.73,0,0,1,.964,1.5,6.819,6.819,0,0,1,.482,1.705,13.851,13.851,0,0,1,.139,2.05v.585c0,.25-.005.493-.017.741s-.018.453-.018.637v.275a3.866,3.866,0,0,1-.362,1.154,17.413,17.413,0,0,1-.843,1.637c-.34.59-.728,1.193-1.155,1.79s-.85,1.15-1.274,1.654a8.767,8.767,0,0,1-1.223,1.222,1.745,1.745,0,0,1-1,.465Zm6.616-14.467a5.634,5.634,0,0,0-.708.121,3.029,3.029,0,0,0-.636.224c-.185.094-.276.207-.276.345v8.611a1.289,1.289,0,0,1-.206.293c-.113.142-.219.275-.311.4-.052.052-.152.147-.275.258-.139.128-.28.268-.431.43s-.281.3-.43.447l-.181.182-.031.031-.006.006-.023.022a.642.642,0,0,0-.086.207,1.054,1.054,0,0,0-.051.241h.1c1.222,0,2.34-.017,3.323-.05a6.319,6.319,0,0,0,2.532-.551,3.379,3.379,0,0,0,1.585-1.653,8.083,8.083,0,0,0,.551-3.359,10.86,10.86,0,0,0-.206-2.016,7.688,7.688,0,0,0-.672-2.014,4.868,4.868,0,0,0-1.222-1.568,2.854,2.854,0,0,0-1.9-.637C110.188,10.747,110.022,10.762,109.813,10.781ZM.379,25.214c-.115,0-.207-.08-.276-.241A1.316,1.316,0,0,1,0,24.7,1.717,1.717,0,0,1,.241,23.9q.24-.447.551-.929t.586-.982a2.337,2.337,0,0,0,.31-.913c.023-.206.041-.5.052-.9s.016-.838.016-1.344V12.126a5.841,5.841,0,0,1,.965-2.619A16.356,16.356,0,0,1,4.513,7.3V6.958q-.483-.586-1.154-1.344A17.493,17.493,0,0,1,2.084,4,10.957,10.957,0,0,1,1.067,2.221,4.353,4.353,0,0,1,.654.413H6.718a2.351,2.351,0,0,1-.19.948q-.19.431-.414.843T5.7,3.065a2.444,2.444,0,0,0-.19.965,3.527,3.527,0,0,0,.6,1.757A16.5,16.5,0,0,0,7.526,7.768q.81.981,1.619,1.791t1.223,1.188V3.135a1.574,1.574,0,0,0-.207-.62q-.207-.413-.43-.81c-.15-.264-.293-.5-.43-.707A1.218,1.218,0,0,1,9.094.62,1.057,1.057,0,0,1,9.111.447a.566.566,0,0,1,.1-.224A.572.572,0,0,1,9.472.034h.345c.16,0,.332-.005.517-.017S10.689,0,10.85,0h2.928c.16,0,.332.006.517.017s.356.017.517.017h.345a.59.59,0,0,1,.259.189.575.575,0,0,1,.1.224,1.057,1.057,0,0,1,.017.173A1.218,1.218,0,0,1,15.328,1q-.205.312-.43.707t-.43.81a1.574,1.574,0,0,0-.207.62l.034,7.578q.413-.379,1.223-1.188t1.619-1.792a16.632,16.632,0,0,0,1.412-1.981A3.522,3.522,0,0,0,19.151,4a2.456,2.456,0,0,0-.189-.965c-.126-.3-.264-.586-.413-.861s-.287-.556-.413-.844a2.314,2.314,0,0,1-.19-.947h6.062A4.356,4.356,0,0,1,23.6,2.187a11.1,11.1,0,0,1-1.016,1.775A18.091,18.091,0,0,1,21.3,5.58q-.672.759-1.154,1.344v.344a16.413,16.413,0,0,1,1.791,2.2,5.826,5.826,0,0,1,.964,2.617v6.718q0,.759.018,1.344c.011.391.029.688.051.9a2.3,2.3,0,0,0,.31.913q.275.5.585.982t.552.93a1.728,1.728,0,0,1,.24.793,1.317,1.317,0,0,1-.1.275c-.092.161-.184.241-.275.241h-3.79c-.023,0-.074-.046-.155-.138s-.143-.161-.189-.207l-.689-1.377c-.024-.208-.047-.523-.07-.948s-.046-.914-.068-1.464-.046-1.125-.069-1.723-.046-1.165-.068-1.705-.041-1.027-.051-1.463-.017-.758-.017-.964-.018-.557-.052-1.051a11.354,11.354,0,0,0-.207-1.5,4.961,4.961,0,0,0-.464-1.344.929.929,0,0,0-.827-.586,1.832,1.832,0,0,0-.964.327,4.76,4.76,0,0,0-.948.793,4.814,4.814,0,0,0-.724,1.016,2.12,2.12,0,0,0-.292.965v9.3a5.416,5.416,0,0,1,.534.947,2.683,2.683,0,0,1,.258,1.12H9.817c-.115,0-.207-.08-.275-.241a1.518,1.518,0,0,1-.1-.275.99.99,0,0,1,.121-.241c.079-.138.172-.281.275-.43s.206-.3.31-.465a2.575,2.575,0,0,0,.224-.413V14.089l-.241-.414a1.858,1.858,0,0,0-.31-.93,5.038,5.038,0,0,0-.758-.964,4.371,4.371,0,0,0-.982-.742,2.081,2.081,0,0,0-.982-.292.931.931,0,0,0-.827.585A5.056,5.056,0,0,0,5.8,12.676a11.4,11.4,0,0,0-.207,1.5q-.051.74-.051,1.049c0,.207-.006.529-.017.965s-.029.925-.051,1.464-.047,1.109-.07,1.706-.046,1.171-.068,1.722-.046,1.04-.069,1.464-.046.741-.068.947L4.513,24.87c-.047.047-.11.116-.19.207s-.132.138-.155.138Zm86.629-8.44h0l-.446-.3c.534-1.022.957-1.805,1.257-2.329a1.332,1.332,0,0,1,1.12-.811h3.41v-.1h6.683a4.591,4.591,0,0,0,1.206-.109,1.193,1.193,0,0,0,.62-.58l.447.3c-1.006,2.064-1.655,3.144-1.929,3.21H91.108v.1H88.18a1.952,1.952,0,0,0-.723.094,1.211,1.211,0,0,0-.448.526h0ZM15.535.62v0ZM9.094.62v0Z" transform="translate(75.251 14.987)" fill="#373737"/>
  </g>
</svg>
