<svg width="190" height="62" viewBox="0 0 190 62" fill="none" xmlns="http://www.w3.org/2000/svg">
<path d="M180.951 22.7732H189.652C188.552 14.304 182.366 9.85226 173.769 9.85226C165.068 9.85226 159.249 14.4669 159.249 22.3932C159.249 31.4052 166.745 33.4138 170.729 34.2284C175.866 35.2599 180.898 35.3685 180.898 39.9286C180.898 43.0232 178.382 44.5433 174.818 44.5433C170.414 44.5433 167.479 42.2631 166.745 38.1373H158.148C158.673 47.0407 164.911 51.8182 174.084 51.8182C182.576 51.8182 189.547 47.8008 189.547 39.1145C189.547 29.7765 181.527 28.0936 175.918 27.2249C172.092 26.6278 167.898 26.0848 167.898 21.9045C167.898 18.9729 170.047 17.1814 173.664 17.1814C177.858 17.1814 180.374 19.6246 180.951 22.7732V22.7732Z" fill="#403F41"/>
<path d="M153.377 11.209H145.147V50.5688H153.377V11.209Z" fill="#403F41"/>
<path d="M120.301 36.834H131.047C129.369 41.0689 125.595 43.0772 121.244 43.0772C113.591 43.0772 110.027 36.9426 110.027 30.8622C110.027 24.7274 113.382 18.4842 121.192 18.4842C125.962 18.4842 129.526 20.7643 130.889 24.836L139.748 24.836C138.228 15.6613 130.47 10.3952 121.297 10.3952C109.974 10.3952 101.482 18.3755 101.482 30.9708C101.482 43.7288 110.708 51.2751 121.244 51.2751C131.623 51.2751 139.748 44.2718 139.748 33.3053V30.1021H120.301V36.834V36.834Z" fill="#403F41"/>
<path d="M82.6636 10.3952C73.2282 10.3952 66.2564 16.5297 66.3089 26.7362H74.8008C74.6959 22.2845 77.4216 18.2128 82.2442 18.2128C86.4379 18.2128 88.9015 21.253 88.9015 24.7274C88.9015 28.202 86.4378 30.1564 81.8773 32.2739C75.6394 35.1511 71.1839 36.9969 66.6233 38.6257V50.5693H98.3894V42.5344H76.5817C76.5817 42.5344 76.6543 42.5109 76.69 42.4997C80.3992 41.3357 83.1858 40.0711 86.4903 38.5714C93.5668 35.3141 97.6031 31.2422 97.6031 24.2933C97.6031 15.7696 91.5225 10.3952 82.6636 10.3952V10.3952Z" fill="#403F41"/>
<path d="M43.9796 36.7259C33.286 36.7803 31.5562 43.4578 30.9797 49.1039L30.7177 51.6011H28.5683L28.3063 49.1039C27.7298 43.4578 25.9475 36.7802 15.6209 36.7259C13.8911 33.034 13.1572 30.0481 13.1572 26.6822C13.1572 18.2675 19.8145 10.3953 29.6691 10.3953C39.5239 10.3953 46.0763 18.2129 46.0763 26.7367C46.0763 30.0481 45.7618 33.034 43.9796 36.7259ZM29.5644 0.188843C13.3146 0.188843 0 13.9785 0 30.8623C0 47.8009 13.3146 61.5903 29.5644 61.5903C45.9714 61.5903 59.2336 47.8009 59.2336 30.8623C59.2336 13.9785 45.9714 0.188843 29.5644 0.188843Z" fill="#29B24A"/>
</svg>
