<svg width="191" height="62" viewBox="0 0 191 62" fill="none" xmlns="http://www.w3.org/2000/svg">
<path d="M182.037 22.8812H190.791C189.683 14.3611 183.461 9.88263 174.812 9.88263C166.059 9.88263 160.205 14.525 160.205 22.4989C160.205 31.565 167.746 33.5856 171.754 34.4052C176.922 35.4428 181.984 35.5521 181.984 40.1396C181.984 43.2527 179.453 44.7819 175.867 44.7819C171.437 44.7819 168.484 42.4881 167.746 38.3375H159.098C159.625 47.2944 165.9 52.1005 175.129 52.1005C183.672 52.1005 190.685 48.0591 190.685 39.3205C190.685 29.9265 182.617 28.2335 176.974 27.3596C173.125 26.7589 168.906 26.2127 168.906 22.0073C168.906 19.0581 171.068 17.2558 174.707 17.2558C178.926 17.2558 181.457 19.7136 182.037 22.8812V22.8812Z" fill="#4F4F4F"/>
<path d="M154.298 11.2482H146.019V50.8443H154.298V11.2482Z" fill="#4F4F4F"/>
<path d="M121.021 37.0264H131.832C130.144 41.2867 126.347 43.3071 121.97 43.3071C114.271 43.3071 110.686 37.1357 110.686 31.0187C110.686 24.8471 114.06 18.5664 121.918 18.5664C126.717 18.5664 130.302 20.8603 131.673 24.9564L140.585 24.9564C139.056 15.7266 131.252 10.4289 122.023 10.4289C110.633 10.4289 102.09 18.4571 102.09 31.128C102.09 43.9626 111.371 51.5542 121.97 51.5542C132.412 51.5542 140.585 44.5089 140.585 33.4766V30.2541H121.021V37.0264V37.0264Z" fill="#4F4F4F"/>
<path d="M83.1574 10.4289C73.6653 10.4289 66.6516 16.6003 66.7044 26.868H75.2473C75.1418 22.3896 77.8839 18.2934 82.7354 18.2934C86.9543 18.2934 89.4327 21.3519 89.4327 24.8471C89.4327 28.3426 86.9542 30.3088 82.3663 32.4389C76.0909 35.3335 71.6087 37.1904 67.0207 38.8289V50.8442H98.9776V42.7611H77.0389C77.0389 42.7611 77.1119 42.7374 77.1479 42.7262C80.8794 41.5552 83.6827 40.283 87.007 38.7742C94.126 35.4974 98.1865 31.401 98.1865 24.4104C98.1865 15.8356 92.0694 10.4289 83.1574 10.4289V10.4289Z" fill="#4F4F4F"/>
<path d="M44.2437 36.9181C33.4859 36.9728 31.7457 43.6904 31.1658 49.3704L30.9021 51.8826H28.7399L28.4762 49.3704C27.8963 43.6904 26.1033 36.9727 15.7146 36.9181C13.9745 33.204 13.2362 30.2002 13.2362 26.8141C13.2362 18.3488 19.9334 10.4293 29.8472 10.4293C39.7612 10.4293 46.353 18.2939 46.353 26.8689C46.353 30.2002 46.0366 33.204 44.2437 36.9181ZM29.742 0.161621C13.3945 0.161621 0 14.0341 0 31.0192C0 48.0595 13.3945 61.9317 29.742 61.9317C46.2474 61.9317 59.5892 48.0595 59.5892 31.0192C59.5892 14.0341 46.2474 0.161621 29.742 0.161621Z" fill="#4F4F4F"/>
</svg>
