<svg width="454" height="41" viewBox="0 0 454 41" fill="none" xmlns="http://www.w3.org/2000/svg">
<path fill-rule="evenodd" clip-rule="evenodd" d="M89.6019 1.15047C83.8546 3.0644 82.193 5.16356 81.9796 12.4489C81.8728 16.4311 81.629 28.2542 82.2845 31.5728C84.251 41.0499 101.676 41.374 110.426 38.75C116.052 37.0522 117.149 34.6443 117.256 27.6214C117.363 22.4353 117.256 17.7893 117.363 13.8843C117.363 6.16683 115.64 1.4283 107.332 0.486766C102.103 -0.146068 94.2364 -0.377592 89.5868 1.15047H89.6019ZM110.518 29.242V11.8314C110.655 6.93858 103.459 7.5714 99.8465 7.5714C95.8829 7.5714 88.9616 7.15467 88.9616 11.8314V29.242C88.9616 31.6809 92.0106 32.5915 95.4711 32.8384C98.6448 32.9503 101.822 32.8574 104.984 32.5606C108.216 32.3137 110.32 31.4031 110.457 29.2113L110.518 29.242Z" fill="#4F4F4F"/>
<path fill-rule="evenodd" clip-rule="evenodd" d="M46.2109 0.158066C54.6262 0.158066 64.0877 -0.423974 69.2876 0.645723C74.4876 1.71542 77.2108 5.01889 77.2108 11.6573C77.2108 22.6689 73.7646 25.815 66.1185 26.6174C65.8983 26.6345 65.6771 26.6345 65.4569 26.6174C60.9338 27.0106 54.9648 26.6174 47.4109 26.6174V36.4805C47.4109 37.4568 47.0316 38.3931 46.3566 39.0835C45.6813 39.7738 44.7656 40.1616 43.811 40.1616C42.8562 40.1616 41.9405 39.7738 41.2653 39.0835C40.5902 38.3931 40.211 37.4568 40.211 36.4805V30.1882C40.0725 25.5634 40.211 20.089 40.211 15.5114C40.211 11.7832 40.3494 7.78752 40.211 4.05931C40.1477 3.62954 40.168 3.19124 40.2707 2.76951C40.3733 2.34778 40.5565 1.95093 40.8095 1.60166C41.0624 1.25241 41.3804 0.95762 41.7448 0.734196C42.1094 0.510771 42.5136 0.363101 42.9341 0.299644C44.0139 0.141341 45.1065 0.0939121 46.1956 0.158066H46.2109ZM65.6107 7.58301H47.4262V19.3497H63.4261C68.0415 19.3497 70.4107 19.035 70.6107 13.6551C70.8108 8.27517 69.2569 7.69314 65.6107 7.58301Z" fill="#4F4F4F"/>
<path d="M35.5166 36.4624V20.9804V14.1029C35.547 6.26317 33.7537 1.45209 25.4406 0.489875C20.228 -0.125312 12.3252 -0.409245 7.65957 1.16816C1.94529 3.09258 0.273556 5.22209 0.0607902 12.6359C0.0607902 15.491 -0.0759878 22.3054 0.0607902 27.2584V36.4231C0.0627817 36.9078 0.156739 37.3875 0.3373 37.8345C0.517858 38.2815 0.781482 38.6873 1.11312 39.0285C1.44476 39.3699 1.83792 39.64 2.27014 39.8235C2.70237 40.0071 3.16521 40.1005 3.63221 40.0984C4.57418 40.0986 5.47801 39.7123 6.14691 39.024C6.81581 38.3355 7.19563 37.4007 7.20365 36.4231V21.5483V21.2643V12.0049C7.20365 7.25694 14.1489 7.68283 18.1307 7.68283C21.6717 7.68283 28.6778 7.05187 28.5409 12.0049V33.8045V36.4863C28.543 36.971 28.637 37.4505 28.8175 37.8975C28.9981 38.3445 29.2617 38.7503 29.5933 39.0915C29.9249 39.4329 30.3182 39.7031 30.7503 39.8866C31.1825 40.0703 31.6454 40.1637 32.1125 40.1616C33.0516 40.1616 33.9523 39.7743 34.6163 39.0851C35.2804 38.3959 35.5166 37.4372 35.5166 36.4624Z" fill="#4F4F4F"/>
<path fill-rule="evenodd" clip-rule="evenodd" d="M121.992 36.4762C121.996 35.4915 122.377 34.5484 123.052 33.8522C123.727 33.156 124.641 32.7631 125.595 32.7589H127.987L143.58 2.00977C143.917 1.3498 144.436 0.808016 145.072 0.453176C145.708 0.0983362 146.432 -0.0535583 147.152 0.0167702C147.865 -0.0502109 148.582 0.103611 149.21 0.458597C149.838 0.813581 150.349 1.35362 150.678 2.00977L166.271 32.7589H167.804C168.758 32.7631 169.673 33.156 170.347 33.8522C171.022 34.5484 171.403 35.4915 171.407 36.4762C171.405 36.9621 171.31 37.443 171.128 37.8912C170.946 38.3397 170.68 38.7465 170.346 39.0888C170.011 39.4308 169.614 39.7018 169.178 39.8859C168.742 40.0699 168.275 40.1637 167.804 40.1616H125.595C125.124 40.1637 124.657 40.0699 124.221 39.8859C123.785 39.7018 123.388 39.4308 123.054 39.0888C122.719 38.7465 122.453 38.3397 122.271 37.8912C122.089 37.443 121.994 36.9621 121.992 36.4762ZM147.152 10.9941L136.098 32.7589H158.16L147.152 10.9941Z" fill="#4F4F4F"/>
<path fill-rule="evenodd" clip-rule="evenodd" d="M220.164 0.14013C220.682 0.14219 221.197 0.239379 221.676 0.426148C222.156 0.612917 222.591 0.885609 222.956 1.22865C223.323 1.57169 223.612 1.97838 223.81 2.42546C224.005 2.87255 224.107 3.35131 224.103 3.83437V14.6813L245.431 0.674617C246.291 0.115368 247.353 -0.108893 248.39 0.0497106C249.426 0.208315 250.355 0.737215 250.978 1.52351C251.278 1.92061 251.493 2.3692 251.608 2.84353C251.724 3.31785 251.736 3.80861 251.647 4.28765C251.558 4.76669 251.368 5.22457 251.086 5.63506C250.807 6.04554 250.442 6.40055 250.014 6.67973L229.719 20.0733L250.014 33.467C250.875 34.0335 251.46 34.894 251.64 35.8601C251.822 36.8264 251.582 37.8198 250.978 38.6232C250.356 39.4111 249.431 39.9437 248.396 40.108C247.36 40.2723 246.297 40.0554 245.431 39.5035L224.103 25.4811V36.4852C224.103 36.9654 224.002 37.4411 223.803 37.8846C223.605 38.328 223.314 38.7308 222.949 39.0697C222.582 39.4085 222.147 39.6769 221.671 39.8592C221.192 40.0416 220.681 40.1344 220.164 40.1323C219.118 40.1324 218.114 39.7497 217.37 39.0669C216.626 38.3844 216.202 37.4568 216.189 36.4852V3.83437C216.198 2.85715 216.619 1.92226 217.363 1.23123C218.107 0.540194 219.113 0.148342 220.164 0.14013Z" fill="#4F4F4F"/>
<path fill-rule="evenodd" clip-rule="evenodd" d="M277.93 7.39984V36.4933C277.921 37.4664 277.516 38.3969 276.802 39.0835C276.088 39.7701 275.122 40.1574 274.113 40.1616C273.614 40.1637 273.116 40.0703 272.653 39.8869C272.19 39.7034 271.77 39.4336 271.415 39.0928C271.061 38.7519 270.78 38.3468 270.588 37.9007C270.395 37.4547 270.296 36.9763 270.296 36.4933V7.39984H260.189C259.173 7.39988 258.199 7.01276 257.477 6.32274C256.756 5.63273 256.348 4.69571 256.339 3.71573C256.348 2.73282 256.754 1.7925 257.476 1.09744C258.195 0.402391 259.169 0.00826026 260.189 0H288.039C288.541 0.00207199 289.039 0.0998262 289.504 0.287681C289.968 0.475538 290.389 0.749815 290.743 1.09485C291.098 1.43989 291.379 1.84893 291.569 2.29862C291.761 2.74831 291.857 3.22985 291.856 3.71573C291.856 4.69283 291.454 5.62989 290.738 6.32079C290.022 7.01171 289.051 7.39984 288.039 7.39984H277.93Z" fill="#4F4F4F"/>
<path fill-rule="evenodd" clip-rule="evenodd" d="M426.178 16.1277H440.72C445.855 16.1277 447.804 16.3013 447.804 11.9143C447.804 8.75821 446.629 7.41687 440.72 7.41687H426.178V16.1277ZM426.178 32.7762H444.516C447.165 32.2082 447.804 30.8825 447.804 28.5627C447.804 24.1759 445.855 24.3652 440.72 24.3652H426.178V32.8078V32.7762ZM444.858 40.1616C437.252 40.1616 429.586 40.1616 421.98 40.1616C421.06 40.1658 420.174 39.7829 419.518 39.0968C418.863 38.4105 418.491 37.4771 418.482 36.5004V3.70843C418.486 2.72889 418.854 1.7904 419.506 1.09628C420.159 0.402161 421.042 0.00829264 421.966 0C428.425 0 435.183 0 441.539 0C447.895 0 453.982 2.6038 453.982 10.4467C454.083 13.0072 453.757 15.5665 453.014 18.0057C452.857 18.4289 452.662 18.8358 452.433 19.2208C452.257 19.5727 452.178 19.9715 452.211 20.3691C452.243 20.7669 452.382 21.1461 452.613 21.4617C452.803 21.8664 452.972 22.2827 453.117 22.7082C453.776 25.0568 454.067 27.5034 453.982 29.9515C453.931 32.5497 452.966 35.034 451.273 36.915C449.583 38.7959 447.289 39.9374 444.842 40.1143L444.858 40.1616Z" fill="#4F4F4F"/>
<path fill-rule="evenodd" clip-rule="evenodd" d="M183.799 1.15047C178.052 3.0644 176.39 5.16356 176.177 12.4489C176.07 16.4311 175.826 28.2542 176.482 31.5728C178.449 41.0499 195.889 41.374 204.639 38.75C210.25 37.0522 211.346 34.6443 211.453 27.6214C211.561 22.4353 211.453 17.7893 211.561 13.8843C211.561 6.16683 209.837 1.4283 201.529 0.486766C196.3 -0.146068 188.433 -0.377592 183.785 1.15047H183.799ZM204.716 29.242V11.8314C204.852 6.93858 197.656 7.5714 194.043 7.5714C190.08 7.5714 183.16 7.15467 183.16 11.8314V29.242C183.16 31.6809 186.208 32.5915 189.669 32.8384C192.842 32.9496 196.02 32.8569 199.181 32.5606C202.413 32.3137 204.517 31.4031 204.655 29.2113L204.716 29.242Z" fill="#4F4F4F"/>
<path fill-rule="evenodd" clip-rule="evenodd" d="M304.25 1.15047C298.521 3.0644 296.826 5.16356 296.613 12.4489C296.506 16.4311 296.275 28.2542 296.963 31.5728C298.888 41.0499 316.393 41.374 325.129 38.75C330.75 37.0522 331.866 34.6443 332.004 27.6214C332.004 22.4353 332.004 17.7893 332.004 13.8843C332.079 6.16683 330.277 1.4283 321.968 0.486766C316.744 -0.146068 308.877 -0.377592 304.189 1.15047H304.25ZM325.176 29.242V11.8314C325.312 6.93858 318.088 7.5714 314.483 7.5714C310.528 7.5714 303.578 7.15467 303.578 11.8314V29.242C303.578 31.6809 306.632 32.5915 310.145 32.8384C313.309 32.9498 316.479 32.8571 319.63 32.5606C322.885 32.3137 324.977 31.4031 325.129 29.2113L325.176 29.242Z" fill="#4F4F4F"/>
<path fill-rule="evenodd" clip-rule="evenodd" d="M386.079 1.15047C380.315 3.0644 378.667 5.16356 378.454 12.4489C378.363 16.4311 378.119 28.2542 378.775 31.5728C380.741 41.0499 398.173 41.374 406.927 38.75C412.555 37.0522 413.653 34.6443 413.759 27.6214C413.85 22.4353 413.759 17.7893 413.85 13.8843C413.85 6.16683 412.127 1.4283 403.831 0.486766C398.585 -0.146068 390.731 -0.377592 386.079 1.15047ZM407.065 29.242V11.8314C407.201 6.93858 399.987 7.5714 396.389 7.5714C392.423 7.5714 385.484 7.15467 385.484 11.8314V29.242C385.484 31.6809 388.534 32.5915 392.011 32.8384C395.182 32.9503 398.355 32.8576 401.514 32.5606C404.761 32.3137 406.866 31.4031 407.004 29.2113L407.065 29.242Z" fill="#4F4F4F"/>
<path fill-rule="evenodd" clip-rule="evenodd" d="M343.177 0.118415C351.612 0.118415 360.546 -0.385291 365.739 0.685045C370.934 1.75538 373.701 5.06083 373.701 11.7032C373.701 22.7213 370.258 25.8695 362.62 26.6879C362.4 26.7041 362.178 26.7041 361.958 26.6879C357.349 27.0815 351.431 26.7667 343.931 26.7667V36.4784C343.931 37.4552 343.552 38.392 342.878 39.0828C342.204 39.7736 341.289 40.1616 340.336 40.1616C339.382 40.1616 338.467 39.7736 337.793 39.0828C337.118 38.392 336.739 37.4552 336.739 36.4784V30.1823C336.571 25.5546 336.648 20.077 336.739 15.4809C336.739 11.7504 336.847 7.76816 336.739 4.03772C336.611 3.1674 336.826 2.28071 337.336 1.5724C337.846 0.864091 338.611 0.392084 339.459 0.260058C340.528 0.110151 341.609 0.0627033 342.686 0.118374L343.177 0.118415ZM361.99 7.61076H343.917V19.3844H359.868C364.48 19.3844 366.877 19.0696 367.092 13.7022C367.307 8.33481 365.725 7.72094 361.974 7.61076H361.99Z" fill="#4F4F4F"/>
</svg>
