<svg id="cube-outline" xmlns="http://www.w3.org/2000/svg" width="26" height="26" viewBox="0 0 26 26">
  <rect id="Rectangle" width="26" height="26" opacity="0"/>
  <path id="Shape" d="M8.515,19.238l-6.934-3.25A2.7,2.7,0,0,1,0,13.54V5.891A2.59,2.59,0,0,1,.4,4.526a1.094,1.094,0,0,1,.163-.217l.13-.054a2.828,2.828,0,0,1,.932-.737L8.558.268a2.931,2.931,0,0,1,2.449,0l6.933,3.25a2.715,2.715,0,0,1,.932.737l.1.108c.054.076.162.152.162.228a2.6,2.6,0,0,1,.369,1.3v7.67a2.7,2.7,0,0,1-1.593,2.426l-6.933,3.25a2.923,2.923,0,0,1-2.46,0Z" transform="translate(3.25 3.274)" fill="#f75102"/>
</svg>
