<?xml version="1.0" encoding="UTF-8"?><svg id="_лой_2" xmlns="http://www.w3.org/2000/svg" viewBox="0 0 20 20"><defs><style>.cls-1{fill:#df5700;}</style></defs><path class="cls-1" d="M13.93,13.01c-.96,.47-2.09,.75-3.26,.82-.08,0-.14,.07-.13,.15,0,.08,.07,.14,.15,.13,1.15-.07,2.32-.34,3.37-.85,.07-.03,.1-.12,.06-.19-.03-.07-.12-.1-.19-.06Z"/><path class="cls-1" d="M15.51,11.93c-.2,.19-.42,.37-.65,.54-.06,.05-.08,.13-.03,.2,.05,.06,.13,.08,.2,.03,.24-.17,.48-.36,.69-.56,.06-.05,.06-.14,0-.2-.05-.06-.14-.06-.2,0Z"/><path class="cls-1" d="M18.9,8.76h-.58c-.05-.29-.25-.53-.48-.71-1.45-1.14-5.32-1.31-7.15-1.34,.13-.34,.26-.74,.28-.99,.02-.25-.03-.44-.15-.57-.19-.21-.51-.23-.81-.23s-.62,.02-.81,.23c-.12,.13-.17,.32-.15,.57,.02,.25,.15,.65,.28,.99-1.83,.03-5.7,.2-7.15,1.34-.23,.18-.44,.42-.48,.71h-.58c-.48,0-.79,.5-.46,1,.32,.48,1.23,.4,1.55,1,.89,2,2.71,3.3,4.77,3.9,1.07,.31,2.04,.41,3.12,.41,3.2,0,6.43-1.38,7.73-4.31,.32-.6,1.23-.52,1.55-1,.33-.5,.02-1-.46-1Zm-8.9-3.55c.73,0,.91,.15,.38,1.5-.25,0-.5,0-.76,0-.53-1.35-.36-1.5,.38-1.5ZM3.71,7.64c1.91-.57,4.78-.67,6.77-.65h0c1.65,0,4.17,.15,5.82,.65,1.01,.3,1.63,.71,1.74,1.12H1.97c.1-.42,.72-.82,1.74-1.12Zm-2.83,1.97c-.2-.31-.04-.56,.23-.56h.59c.06,.38,.14,.75,.26,1.11-.41-.23-.92-.3-1.08-.55Zm9.21,5.19h-.16c-4.24,0-7.41-2.3-7.94-5.75H18.02c-.53,3.45-3.7,5.75-7.94,5.75Zm9.05-5.19c-.16,.24-.67,.31-1.08,.55,.12-.36,.2-.73,.26-1.11h.59c.27,0,.43,.25,.23,.56Z"/></svg>