<?xml version="1.0" encoding="UTF-8"?><svg id="_лой_2" xmlns="http://www.w3.org/2000/svg" viewBox="0 0 20 20"><defs><style>.cls-1{fill:#df5700;}</style></defs><path class="cls-1" d="M8.75,19.5H2.65c-.07,0-.13-.03-.18-.07-.05-.05-.07-.11-.07-.18v-2.51c0-.41,.16-.8,.45-1.09l.53-.53-.5-.74c-.63-.93-.63-2.13,0-3.05l.38-.55c.68-1,.63-2.35-.13-3.29-.19-.24-.2-.58,0-.83l.35-.47c-.68-.47-1.07-1.12-1.07-1.82,0-1.36,1.48-2.47,3.3-2.47s3.3,1.11,3.3,2.47c0,.71-.39,1.36-1.07,1.82l.35,.47c.19,.25,.19,.59,0,.83-.76,.94-.81,2.29-.13,3.29l.38,.55c.63,.93,.63,2.13,0,3.05h0l-.5,.74,.53,.53c.29,.29,.45,.69,.45,1.1v2.51c0,.14-.12,.25-.26,.25Zm-5.84-.51h5.59v-2.26c0-.27-.1-.54-.3-.74l-.68-.68c-.09-.09-.1-.22-.03-.32l.62-.91c.51-.75,.51-1.73,0-2.48l-.38-.55c-.8-1.18-.74-2.78,.16-3.89,.05-.06,.05-.15,0-.21l-.52-.69c-.04-.06-.06-.13-.05-.2,.01-.07,.06-.13,.12-.17,.67-.38,1.06-.94,1.06-1.53,0-1.08-1.25-1.96-2.8-1.96s-2.8,.88-2.8,1.96c0,.6,.39,1.16,1.06,1.53,.06,.04,.11,.1,.12,.17,.01,.07,0,.15-.05,.2l-.52,.69c-.05,.06-.05,.15,0,.21,.9,1.11,.96,2.71,.16,3.89l-.38,.55c-.51,.75-.51,1.73,0,2.48l.62,.91c.07,.1,.06,.24-.03,.32l-.68,.68c-.2,.2-.3,.46-.3,.74v2.26Zm5.41-4.76h0Z"/><path class="cls-1" d="M7.57,6.36H3.84c-.14,0-.25-.11-.25-.25s.11-.25,.25-.25h3.73c.14,0,.25,.11,.25,.25s-.11,.25-.25,.25Z"/><path class="cls-1" d="M7.7,15.39H3.71c-.14,0-.25-.11-.25-.25s.11-.25,.25-.25h3.99c.14,0,.25,.11,.25,.25s-.11,.25-.25,.25Z"/><path class="cls-1" d="M5.71,.5c-.23,0-.42,.19-.42,.42s.19,.42,.42,.42,.42-.19,.42-.42-.19-.42-.42-.42Z"/><path class="cls-1" d="M17.34,19.5h-6.09c-.14,0-.25-.11-.25-.25v-2.51c0-.41,.16-.8,.45-1.09l.53-.53-.5-.74c-.63-.93-.63-2.13,0-3.05l.38-.55c.68-1,.63-2.35-.13-3.29-.19-.24-.2-.58,0-.83l.35-.47c-.68-.47-1.07-1.12-1.07-1.82,0-1.36,1.48-2.47,3.3-2.47s3.3,1.11,3.3,2.47c0,.71-.39,1.36-1.07,1.82l.35,.47c.19,.25,.19,.59,0,.83-.76,.94-.81,2.29-.13,3.29l.38,.55c.63,.93,.63,2.13,0,3.05l-.5,.74,.53,.53c.29,.29,.45,.69,.45,1.1v2.51c0,.14-.12,.25-.26,.25Zm-5.84-.51h5.59v-2.26c0-.27-.1-.54-.3-.74l-.68-.68c-.09-.09-.1-.22-.03-.32l.62-.91c.51-.75,.51-1.73,0-2.48l-.38-.55c-.8-1.18-.74-2.78,.16-3.89,.05-.06,.05-.15,0-.21l-.52-.69c-.04-.06-.06-.13-.05-.2,.01-.07,.06-.13,.12-.17,.67-.38,1.06-.94,1.06-1.53,0-1.08-1.25-1.96-2.8-1.96s-2.8,.88-2.8,1.96c0,.6,.39,1.16,1.06,1.53,.06,.04,.11,.1,.12,.17,.01,.07,0,.15-.05,.2l-.52,.69c-.05,.06-.05,.15,0,.21,.9,1.11,.96,2.71,.16,3.89l-.38,.55c-.51,.75-.51,1.73,0,2.48l.62,.91c.07,.1,.06,.24-.03,.32l-.68,.68c-.2,.2-.3,.46-.3,.74v2.26Z"/><path class="cls-1" d="M16.16,6.36h-3.73c-.14,0-.25-.11-.25-.25s.11-.25,.25-.25h3.73c.14,0,.25,.11,.25,.25s-.11,.25-.25,.25Z"/><path class="cls-1" d="M16.29,15.39h-3.99c-.14,0-.25-.11-.25-.25s.11-.25,.25-.25h3.99c.14,0,.25,.11,.25,.25s-.11,.25-.25,.25Z"/><circle class="cls-1" cx="14.29" cy=".92" r=".42"/></svg>