<svg id="Тарелка_copy" data-name="Тарелка copy" xmlns="http://www.w3.org/2000/svg" width="20" height="20" viewBox="0 0 200 200">
  <metadata><?xpacket begin="﻿" id="W5M0MpCehiHzreSzNTczkc9d"?>
<x:xmpmeta xmlns:x="adobe:ns:meta/" x:xmptk="Adobe XMP Core 5.6-c142 79.160924, 2017/07/13-01:06:39        ">
   <rdf:RDF xmlns:rdf="http://www.w3.org/1999/02/22-rdf-syntax-ns#">
      <rdf:Description rdf:about=""/>
   </rdf:RDF>
</x:xmpmeta>
                                                                                                    
                                                                                                    
                                                                                                    
                                                                                                    
                                                                                                    
                                                                                                    
                                                                                                    
                                                                                                    
                                                                                                    
                                                                                                    
                                                                                                    
                                                                                                    
                                                                                                    
                                                                                                    
                                                                                                    
                                                                                                    
                                                                                                    
                                                                                                    
                                                                                                    
                                                                                                    
                           
<?xpacket end="w"?></metadata>
<defs>
    <style>
      .cls-1, .cls-2 {
        fill: none;
        stroke: #df5700;
        stroke-linecap: round;
        stroke-width: 4px;
      }

      .cls-2 {
        fill-rule: evenodd;
      }
    </style>
  </defs>
  <circle class="cls-1" cx="100.5" cy="86.5" r="80.5"/>
  <circle id="Ellipse_1_copy" data-name="Ellipse 1 copy" class="cls-1" cx="100.5" cy="86.5" r="68.781"/>
  <circle id="Ellipse_1_copy_3" data-name="Ellipse 1 copy 3" class="cls-1" cx="100" cy="87" r="19.094"/>
  <circle id="Ellipse_1_copy_2" data-name="Ellipse 1 copy 2" class="cls-1" cx="101" cy="87" r="11.656"/>
  <path class="cls-2" d="M34,180l14,15H152l15-15"/>
  <path id="Rounded_Rectangle_2" data-name="Rounded Rectangle 2" class="cls-2" d="M9.353,167.647H190.647a5.353,5.353,0,0,1,0,10.706H9.353A5.353,5.353,0,0,1,9.353,167.647Z"/>
  <path id="Polygon_1" data-name="Polygon 1" class="cls-2" d="M108.846,106.506Q101.082,135.1,93,106.594q-25.709,14.73-11.267-11.142-28.595-7.764-.088-15.845Q66.916,53.9,92.788,68.341q7.764-28.595,15.845-.088,25.709-14.73,11.266,11.142,28.6,7.764.089,15.845Q134.717,120.949,108.846,106.506Z"/>
  <path id="Shape_8_copy" data-name="Shape 8 copy" class="cls-2" d="M49.586,40.414l2.828-2.828,26,26-2.828,2.828Z"/>
  <path id="Shape_8_copy_2" data-name="Shape 8 copy 2" class="cls-2" d="M122.586,111.414l2.828-2.828,26,26-2.828,2.828Z"/>
  <path id="Shape_8_copy_3" data-name="Shape 8 copy 3" class="cls-2" d="M124.839,65.008l-2.847-2.847,26.169-26.169,2.847,2.847Z"/>
  <path id="Shape_8_copy_4" data-name="Shape 8 copy 4" class="cls-2" d="M52.839,138.008l-2.847-2.847,26.169-26.169,2.847,2.847Z"/>
  <circle class="cls-1" cx="100.5" cy="36.5" r="8.5"/>
  <circle id="Ellipse_2_copy" data-name="Ellipse 2 copy" class="cls-1" cx="100.5" cy="137.5" r="8.5"/>
  <circle id="Ellipse_2_copy_2" data-name="Ellipse 2 copy 2" class="cls-1" cx="49.5" cy="86.5" r="8.5"/>
  <circle id="Ellipse_2_copy_3" data-name="Ellipse 2 copy 3" class="cls-1" cx="151.5" cy="86.5" r="8.5"/>
</svg>
