<?xml version="1.0" encoding="UTF-8"?><svg id="_лой_2" xmlns="http://www.w3.org/2000/svg" viewBox="0 0 20 20"><defs><style>.cls-1{fill:#df5700;}</style></defs><path class="cls-1" d="M10.57,14.09c-.06,0-.12-.02-.17-.07l-3.59-3.59s-.07-.11-.07-.17,.03-.13,.07-.17l2.24-2.24c3.12-3.12,5.71-4.73,7.34-5.52,1.78-.87,2.81-.99,2.85-1,.07,0,.15,.02,.2,.07,.05,.05,.08,.12,.07,.2,0,.04-.13,1.07-1,2.85-.8,1.62-2.4,4.21-5.52,7.34l-2.24,2.24s-.11,.07-.17,.07Zm-3.25-3.83l3.25,3.25,2.07-2.07c3.06-3.06,4.63-5.59,5.41-7.17,.56-1.14,.8-1.97,.9-2.4-.43,.1-1.25,.34-2.4,.9-1.58,.78-4.11,2.35-7.17,5.41l-2.07,2.07Z"/><path class="cls-1" d="M2.11,18.67c-.41,0-.83-.16-1.14-.47-.63-.63-.63-1.65,0-2.28l5.83-5.83c.09-.09,.25-.09,.34,0l1.94,1.94c.09,.09,.09,.25,0,.34l-5.83,5.83c-.31,.31-.73,.47-1.14,.47ZM6.98,10.6L1.31,16.26c-.44,.44-.44,1.16,0,1.6,.44,.44,1.16,.44,1.6,0l5.66-5.66-1.6-1.6Z"/><g><path class="cls-1" d="M2.44,16.16c-.16,.16-.16,.41,0,.57s.41,.16,.57,0c.16-.16,.16-.41,0-.57-.16-.16-.41-.16-.57,0Z"/><path class="cls-1" d="M4.88,13.72c-.16,.16-.16,.41,0,.57,.16,.16,.41,.16,.57,0,.16-.16,.16-.41,0-.57-.16-.16-.41-.16-.57,0Z"/></g></svg>