<?xml version="1.0" encoding="UTF-8"?><svg id="_лой_2" xmlns="http://www.w3.org/2000/svg" viewBox="0 0 20 20"><defs><style>.cls-1{fill:none;stroke:#df5700;stroke-miterlimit:10;stroke-width:.5px;}</style></defs><path class="cls-1" d="M16.04,9.37c0,.5-.06,.99-.18,1.45-.07,.3-.17,.59-.28,.86-.55,1.32-1.55,2.4-2.81,3.05H7.23c-1.94-1-3.27-3.03-3.27-5.36,0-.87,.18-1.69,.51-2.44H15.53c.33,.74,.51,1.57,.51,2.44Z"/><path class="cls-1" d="M6.58,1.43c.09,1.81,1.59,3.24,3.42,3.24s3.33-1.44,3.42-3.24H6.58Z"/><path class="cls-1" d="M7.23,14.73h5.54v.25c0,.56-.45,1.01-1.01,1.01h-3.51c-.56,0-1.01-.45-1.01-1.01v-.25h0Z"/><path class="cls-1" d="M4.47,5.67H15.53v.25c0,.56-.45,1.01-1.01,1.01H5.49c-.56,0-1.01-.45-1.01-1.01v-.25h0Z" transform="translate(20 12.6) rotate(180)"/><path class="cls-1" d="M5.31,4.78H14.69v.18c0,.4-.32,.72-.72,.72H6.03c-.4,0-.72-.32-.72-.72v-.18h0Z" transform="translate(20 10.45) rotate(180)"/><path class="cls-1" d="M7.88,16.03h4.23v.19c0,.43-.35,.77-.77,.77h-2.68c-.43,0-.77-.35-.77-.77v-.19h0Z"/><path class="cls-1" d="M6.1,11.74s.12,1.06,1.42,1.8"/><path class="cls-1" d="M11.34,1.52s.16,3.16-1.34,3.16-1.34-3.16-1.34-3.16"/><g><g><path class="cls-1" d="M3.99,8.78h-1.74s-.23,1.4,1.09,1.4h.66"/><path class="cls-1" d="M2.25,8.78l-.34-.56c-.3-.5-.83-.8-1.41-.8H.5"/></g><g><path class="cls-1" d="M16.01,8.78h1.74s.23,1.4-1.09,1.4h-.66"/><path class="cls-1" d="M17.75,8.78l.34-.56c.3-.5,.83-.8,1.41-.8h0"/></g></g><g><path class="cls-1" d="M10,16.99v1.03h-1.71c-.41,0-.8,.26-.91,.65-.1,.34-.36,.71-1,.83"/><path class="cls-1" d="M10,18.02h1.71c.41,0,.8,.26,.91,.65,.1,.34,.36,.71,1,.83"/></g><path class="cls-1" d="M9.82,.51h.35c.4,0,.72,.32,.72,.72v.21h-1.79v-.21c0-.4,.32-.72,.72-.72Z"/><path class="cls-1" d="M10.26,10.83h.18c.5,0,.91,.41,.91,.91h1c0-1.01-.82-1.84-1.84-1.84h-.24v-1.13"/><circle class="cls-1" cx="9.56" cy="8.7" r=".69"/><circle class="cls-1" cx="10.95" cy="8.7" r=".69"/></svg>