<?xml version="1.0" encoding="UTF-8"?><svg id="_лой_2" xmlns="http://www.w3.org/2000/svg" viewBox="0 0 20 20"><defs><style>.cls-1{fill:#df5700;}</style></defs><path class="cls-1" d="M12.03,15.44c-4.12,0-7.47-3.35-7.47-7.47S7.91,.5,12.03,.5s7.47,3.35,7.47,7.47-3.35,7.47-7.47,7.47ZM12.03,1c-3.84,0-6.97,3.13-6.97,6.97s3.13,6.97,6.97,6.97,6.97-3.13,6.97-6.97S15.87,1,12.03,1Z"/><path class="cls-1" d="M1.81,19.5c-.35,0-.68-.14-.92-.38-.25-.25-.38-.57-.38-.92s.14-.68,.38-.92l5.18-5.18c.05-.05,.12-.08,.19-.07,.07,0,.14,.04,.18,.1,.2,.27,.43,.53,.67,.77,.24,.24,.5,.47,.77,.67,.06,.04,.09,.11,.1,.18,0,.07-.02,.14-.07,.19l-5.18,5.18c-.25,.25-.57,.38-.92,.38Zm4.4-6.85L1.24,17.62c-.31,.31-.31,.83,0,1.14,.31,.31,.83,.31,1.14,0l4.97-4.97c-.21-.17-.41-.35-.6-.54-.19-.19-.37-.39-.54-.6Z"/><g><path class="cls-1" d="M10.78,13.56c-.06,0-.13-.02-.18-.07l-4.09-4.09c-.1-.1-.1-.26,0-.35,.1-.1,.26-.1,.35,0l4.09,4.09c.1,.1,.1,.26,0,.35-.05,.05-.11,.07-.18,.07Z"/><path class="cls-1" d="M13.89,13.38c-.06,0-.13-.02-.18-.07L6.7,6.28c-.1-.1-.1-.26,0-.35,.1-.1,.26-.1,.35,0l7.02,7.02c.1,.1,.1,.26,0,.35-.05,.05-.11,.07-.18,.07Z"/><path class="cls-1" d="M15.91,12.1c-.06,0-.13-.02-.18-.07L7.98,4.27c-.1-.1-.1-.26,0-.35,.1-.1,.26-.1,.35,0l7.76,7.76c.1,.1,.1,.26,0,.35-.05,.05-.11,.07-.18,.07Z"/><path class="cls-1" d="M17.19,10.08c-.06,0-.13-.02-.18-.07L9.99,2.99c-.1-.1-.1-.26,0-.35,.1-.1,.26-.1,.35,0l7.02,7.02c.1,.1,.1,.26,0,.35-.05,.05-.11,.07-.18,.07Z"/><path class="cls-1" d="M17.37,6.96c-.06,0-.13-.02-.18-.07L13.11,2.81c-.1-.1-.1-.26,0-.35,.1-.1,.26-.1,.35,0l4.09,4.09c.1,.1,.1,.26,0,.35-.05,.05-.11,.07-.18,.07Z"/></g></svg>