<?xml version="1.0" encoding="UTF-8"?><svg id="_лой_2" xmlns="http://www.w3.org/2000/svg" viewBox="0 0 20 20"><defs><style>.cls-1{fill:#df5700;}</style></defs><path class="cls-1" d="M14.11,17.57H5.89c-.23,0-.42-.19-.42-.42V8.91c0-.11,.09-.2,.2-.2H14.32c.11,0,.2,.09,.2,.2v8.24c0,.23-.19,.42-.42,.42ZM5.88,9.11v8.04s0,.01,.01,.01H14.11s.01,0,.01-.01V9.11H5.88Z"/><path class="cls-1" d="M14.15,19.5c-.35,0-.67-.22-.79-.56l-.19-.55c-.17-.49-.63-.82-1.15-.82-.11,0-.2-.09-.2-.2s.09-.2,.2-.2c.69,0,1.31,.44,1.54,1.09l.19,.55c.06,.17,.22,.29,.4,.29,.11,0,.2,.09,.2,.2s-.09,.2-.2,.2Z"/><path class="cls-1" d="M5.85,19.5c-.11,0-.2-.09-.2-.2s.09-.2,.2-.2c.18,0,.34-.11,.4-.29l.19-.55c.23-.65,.85-1.09,1.54-1.09,.11,0,.2,.09,.2,.2s-.09,.2-.2,.2c-.52,0-.98,.33-1.15,.82l-.19,.55c-.12,.33-.43,.56-.79,.56Z"/><path class="cls-1" d="M12.56,16.22H7.44c-.11,0-.2-.09-.2-.2v-3.19c0-1.52,1.24-2.76,2.76-2.76s2.76,1.24,2.76,2.76v3.19c0,.11-.09,.2-.2,.2Zm-4.92-.41h4.71v-2.98c0-1.3-1.06-2.36-2.36-2.36s-2.36,1.06-2.36,2.36v2.98Z"/><path class="cls-1" d="M12.56,14.52c-.11,0-.2-.09-.2-.2v-1.49c0-.11,.09-.2,.2-.2s.2,.09,.2,.2v1.49c0,.11-.09,.2-.2,.2Z"/><path class="cls-1" d="M10.82,9.11h-1.64c-.11,0-.2-.09-.2-.2V.7c0-.11,.09-.2,.2-.2h1.64c.11,0,.2,.09,.2,.2V8.91c0,.11-.09,.2-.2,.2Zm-1.43-.41h1.23V.91h-1.23v7.8Z"/><path class="cls-1" d="M8.77,13.24c-.19,0-.34,.15-.34,.34s.15,.34,.34,.34,.34-.15,.34-.34-.15-.34-.34-.34Z"/><path class="cls-1" d="M13.03,12.89h-.94c-.11,0-.2-.09-.2-.2s.09-.2,.2-.2h.94c.11,0,.2,.09,.2,.2s-.09,.2-.2,.2Z"/><path class="cls-1" d="M13.03,15.2h-.94c-.11,0-.2-.09-.2-.2s.09-.2,.2-.2h.94c.11,0,.2,.09,.2,.2s-.09,.2-.2,.2Z"/></svg>