<svg xmlns="http://www.w3.org/2000/svg" width="20" height="20" viewBox="0 0 200 200">
  <metadata><?xpacket begin="﻿" id="W5M0MpCehiHzreSzNTczkc9d"?>
<x:xmpmeta xmlns:x="adobe:ns:meta/" x:xmptk="Adobe XMP Core 5.6-c142 79.160924, 2017/07/13-01:06:39        ">
   <rdf:RDF xmlns:rdf="http://www.w3.org/1999/02/22-rdf-syntax-ns#">
      <rdf:Description rdf:about=""/>
   </rdf:RDF>
</x:xmpmeta>
                                                                                                    
                                                                                                    
                                                                                                    
                                                                                                    
                                                                                                    
                                                                                                    
                                                                                                    
                                                                                                    
                                                                                                    
                                                                                                    
                                                                                                    
                                                                                                    
                                                                                                    
                                                                                                    
                                                                                                    
                                                                                                    
                                                                                                    
                                                                                                    
                                                                                                    
                                                                                                    
                           
<?xpacket end="w"?></metadata>
<defs>
    <style>
      .cls-1, .cls-2 {
        fill: none;
        stroke: #df5700;
        stroke-linecap: round;
        fill-rule: evenodd;
      }

      .cls-1 {
        stroke-width: 5px;
      }

      .cls-2 {
        stroke-width: 4px;
      }
    </style>
  </defs>
  <path id="Rounded_Rectangle_1" data-name="Rounded Rectangle 1" class="cls-1" d="M90.009,7.891H108.84a9,9,0,0,1,9,9V19.7a9,9,0,0,1-9,9H90.009a9,9,0,0,1-9-9V16.891A9,9,0,0,1,90.009,7.891Z"/>
  <path class="cls-1" d="M97.123,27.547h4.6V54.141h-4.6V27.547Z"/>
  <path class="cls-1" d="M48.783,109.641a18.38,18.38,0,0,1,4.6-17.669V73.8S78.675,42,99,42c22.585,0,48,31,48,31s-0.387,10.357-.387,19.3c6.012,7.631,4.6,17.344,4.6,17.344H48.783Z"/>
  <path class="cls-1" d="M57,84S69.49,72,85,72a89.627,89.627,0,0,0-.236-10.922s7.148-6.937,14.66-6.937S115,61,115,61s-0.3,11,0,11c15.626,0,28.16,12.2,28.16,12.2"/>
  <path class="cls-1" d="M47.632,115.422H151.217s6.906,7.247,6.906,21.969-13.812,30.062-13.812,30.062l-8.056,19.656H63.745l-8.057-18.5S42.12,150.188,41.877,137.391C41.624,124,47.632,115.422,47.632,115.422Z"/>
  <path class="cls-2" d="M46,115s-13.29,1.155-16,13c-1.673,7.311,1.374,17.156,5,18,3.742,0.871,6-9,6-9a74.639,74.639,0,0,1,1-8A78.2,78.2,0,0,1,46,115Z"/>
  <path id="Shape_6_copy" data-name="Shape 6 copy" class="cls-2" d="M151,115s15.29,1.155,18,13c1.673,7.311-1.374,17.156-5,18-3.742.871-6-9-6-9a74.676,74.676,0,0,0-1-8C155.942,122.386,151,115,151,115Z"/>
</svg>
