<?xml version="1.0" encoding="UTF-8"?><svg id="_лой_2" xmlns="http://www.w3.org/2000/svg" viewBox="0 0 20 20"><defs><style>.cls-1{fill:#df5700;}</style></defs><path class="cls-1" d="M16.71,19.5c-.12,0-.21-.1-.21-.21v-7.67c0-.12,.1-.21,.21-.21s.21,.1,.21,.21v7.67c0,.12-.1,.21-.21,.21Z"/><path class="cls-1" d="M16.71,17.01H3.29c-.12,0-.21-.1-.21-.21s.1-.21,.21-.21h13.42c.12,0,.21,.1,.21,.21s-.1,.21-.21,.21Z"/><path class="cls-1" d="M17.52,11.83H2.48c-.27,0-.49-.22-.49-.49V6.79c0-.27,.22-.49,.49-.49h2.21c.11,0,.21,.04,.29,.12l.78,.78,.78-.78c.08-.08,.18-.12,.29-.12h.7c.11,0,.21,.04,.29,.12l.78,.78,.78-.78c.08-.08,.18-.12,.29-.12h.7c.11,0,.21,.04,.29,.12l.78,.78,.78-.78c.08-.08,.18-.12,.29-.12h.7c.11,0,.21,.04,.29,.12l.78,.78,.78-.78c.08-.08,.18-.12,.29-.12h2.21c.27,0,.49,.22,.49,.49v4.56c0,.27-.22,.49-.49,.49ZM2.48,6.73s-.06,.03-.06,.06v4.56s.03,.06,.06,.06h15.05s.06-.03,.06-.06V6.79s-.03-.06-.06-.06h-2.2l-.79,.79c-.16,.16-.42,.16-.58,0l-.79-.79h-.69l-.79,.79c-.16,.16-.42,.16-.58,0l-.79-.79h-.69l-.79,.79c-.16,.16-.42,.16-.58,0l-.79-.79h-.69l-.79,.79c-.16,.16-.42,.16-.58,0l-.79-.79H2.48Z"/><path class="cls-1" d="M3.29,19.5c-.12,0-.21-.1-.21-.21v-7.67c0-.12,.1-.21,.21-.21s.21,.1,.21,.21v7.67c0,.12-.1,.21-.21,.21Z"/><g><path class="cls-1" d="M10.01,4.92c-.06,0-.13-.03-.17-.08-.55-.71-.43-1.74,.29-2.29,.25-.2,.42-.48,.46-.8,.04-.32-.05-.64-.25-.89-.07-.09-.06-.23,.04-.3,.09-.07,.23-.06,.3,.04,.27,.34,.39,.77,.33,1.21-.05,.43-.27,.82-.62,1.09-.53,.41-.62,1.17-.21,1.7,.07,.09,.06,.23-.04,.3-.04,.03-.08,.04-.13,.04Z"/><path class="cls-1" d="M7.68,4.51c-.07,0-.15-.04-.18-.11-.45-.78-.18-1.79,.6-2.24,.1-.06,.23-.02,.29,.08,.06,.1,.02,.23-.08,.29-.58,.33-.78,1.08-.45,1.66,.06,.1,.02,.23-.08,.29-.03,.02-.07,.03-.11,.03Z"/><path class="cls-1" d="M12.23,4.76c-.07,0-.15-.04-.19-.11-.32-.57-.18-1.3,.34-1.71,.09-.07,.23-.06,.3,.04,.07,.09,.06,.23-.04,.3-.35,.27-.45,.77-.23,1.16,.06,.1,.02,.23-.08,.29-.03,.02-.07,.03-.1,.03Z"/></g></svg>