<?xml version="1.0" encoding="UTF-8"?><svg id="_лой_2" xmlns="http://www.w3.org/2000/svg" viewBox="0 0 20 20"><defs><style>.cls-1{fill:#df5700;}</style></defs><path class="cls-1" d="M2.1,19.5c-.43,0-.83-.17-1.13-.47-.62-.62-.62-1.64,0-2.26,.62-.62,1.64-.62,2.26,0,.62,.62,.62,1.64,0,2.26-.3,.3-.7,.47-1.13,.47Zm0-2.73c-.29,0-.58,.11-.8,.33-.44,.44-.44,1.16,0,1.6,.21,.21,.5,.33,.8,.33s.59-.12,.8-.33c.44-.44,.44-1.16,0-1.6-.22-.22-.51-.33-.8-.33Z"/><path class="cls-1" d="M.92,17.45s-.08-.01-.12-.03c-.11-.06-.15-.21-.09-.32L7.7,5c.06-.11,.21-.15,.32-.09,.11,.06,.15,.21,.09,.32L1.12,17.34c-.04,.08-.12,.12-.2,.12Z"/><path class="cls-1" d="M2.78,19.32c-.08,0-.16-.04-.2-.12-.06-.11-.03-.25,.09-.32l12.1-6.99c.11-.06,.25-.03,.32,.09,.06,.11,.03,.25-.09,.32L2.9,19.29s-.08,.03-.12,.03Z"/><path class="cls-1" d="M7.9,5.35c-.07,0-.14-.03-.19-.09-.06-.07-.06-.18-.02-.26l1.79-3.09c.27-.47,.73-.81,1.25-.94l1.92-.46c.09-.02,.19,.01,.24,.09,.06,.07,.06,.18,.02,.26l-2.04,3.53c-.11,.19-.3,.33-.51,.38l-2.4,.58s-.04,0-.05,0ZM12.24,1.09l-1.39,.33c-.4,.1-.75,.36-.96,.72l-1.51,2.62,1.87-.45c.09-.02,.17-.08,.22-.16l1.76-3.06Z"/><path class="cls-1" d="M14.88,12.33s-.1-.02-.14-.05c-.07-.06-.11-.15-.09-.24l.58-2.4c.05-.22,.19-.4,.38-.51l3.53-2.04c.08-.05,.18-.04,.26,.02,.07,.06,.11,.15,.09,.24l-.46,1.92c-.13,.53-.47,.98-.94,1.25l-3.09,1.79s-.08,.03-.12,.03Zm4.03-4.57l-3.06,1.76c-.08,.05-.14,.13-.16,.22l-.45,1.87,2.62-1.51c.36-.21,.62-.56,.72-.96l.33-1.39Z"/></svg>