<?xml version="1.0" encoding="UTF-8"?><svg id="_лой_2" xmlns="http://www.w3.org/2000/svg" viewBox="0 0 20 20"><defs><style>.cls-1{fill:#df5700;}</style></defs><path class="cls-1" d="M10,18.46c-4.69,0-8.5-3.81-8.5-8.5S5.31,1.46,10,1.46s8.5,3.81,8.5,8.5-3.81,8.5-8.5,8.5Zm0-16.43c-4.37,0-7.93,3.56-7.93,7.93s3.56,7.93,7.93,7.93,7.93-3.56,7.93-7.93-3.56-7.93-7.93-7.93Z"/><path class="cls-1" d="M10,15.72c-3.17,0-5.76-2.58-5.76-5.76s2.58-5.76,5.76-5.76,5.76,2.58,5.76,5.76-2.58,5.76-5.76,5.76Zm0-10.95c-2.86,0-5.19,2.33-5.19,5.19s2.33,5.19,5.19,5.19,5.19-2.33,5.19-5.19-2.33-5.19-5.19-5.19Z"/><path class="cls-1" d="M17.12,5.97c-.12-.12-.11-.32,.01-.44l.65-.61s.05-.09,.02-.14c-.6-1.02-1.45-1.92-2.43-2.58-.04-.03-.1-.02-.14,.01l-.65,.61c-.12,.12-.32,.11-.44-.01s-.11-.32,.01-.44l.65-.61c.25-.23,.63-.26,.91-.07,1.05,.72,1.96,1.68,2.61,2.78,.17,.29,.12,.67-.13,.9l-.65,.61c-.12,.12-.32,.11-.44-.01Z"/><path class="cls-1" d="M3.03,14.19c.12,.12,.12,.32,0,.44l-.63,.63s-.05,.1-.02,.14c.63,1,1.5,1.87,2.5,2.51,.04,.03,.1,.02,.14-.02l.63-.63c.12-.12,.32-.12,.44,0s.12,.32,0,.44l-.63,.63c-.24,.24-.62,.28-.91,.1-1.08-.69-2.01-1.62-2.69-2.7-.18-.29-.14-.67,.1-.91l.63-.63c.12-.12,.32-.12,.44,0Z"/></svg>