<?xml version="1.0" encoding="UTF-8"?><svg id="_лой_2" xmlns="http://www.w3.org/2000/svg" viewBox="0 0 20 20"><defs><style>.cls-1{fill:#df5700;}</style></defs><path class="cls-1" d="M2.06,15.5h-.05c-.43-.01-.83-.2-1.12-.53-.52-.59-.52-1.47,0-2.06,.44-.5,1.16-.67,1.77-.41,.23,.1,.5,.04,.68-.14L15.14,.56c.08-.08,.22-.08,.3,0,.08,.08,.08,.22,0,.3L3.64,12.66c-.3,.3-.75,.39-1.14,.23-.45-.19-.97-.07-1.29,.3-.37,.42-.37,1.08,0,1.5,.21,.24,.5,.37,.82,.38,.32,0,.61-.11,.84-.33,.21-.21,.33-.5,.33-.8,0-.12,.1-.21,.21-.21h0c.12,0,.21,.1,.21,.21,0,.42-.16,.81-.46,1.1-.29,.29-.69,.46-1.1,.46Z"/><path class="cls-1" d="M6.06,19.5h-.05c-.43-.01-.83-.2-1.12-.53-.52-.59-.52-1.47,0-2.06,.44-.5,1.16-.67,1.77-.41,.23,.1,.5,.04,.68-.14L19.14,4.56c.08-.08,.22-.08,.3,0,.08,.08,.08,.22,0,.3L7.64,16.66c-.3,.3-.75,.39-1.14,.23-.45-.19-.97-.07-1.29,.3-.37,.42-.37,1.08,0,1.5,.21,.24,.5,.37,.82,.38,.32,0,.61-.11,.84-.33,.21-.21,.33-.5,.33-.8,0-.12,.1-.21,.21-.21h0c.12,0,.21,.1,.21,.21,0,.42-.16,.81-.46,1.1-.29,.29-.69,.46-1.1,.46Z"/></svg>