<?xml version="1.0" encoding="UTF-8"?><svg id="_лой_2" xmlns="http://www.w3.org/2000/svg" viewBox="0 0 20 20"><defs><style>.cls-1{fill:#df5700;}</style></defs><path class="cls-1" d="M13.74,14.26H5.75c-.11,0-.19-.09-.19-.19V7.42c0-.11,.09-.19,.19-.19h7.99c.11,0,.19,.09,.19,.19v6.64c0,.11-.09,.19-.19,.19Zm-7.8-.39h7.61V7.62H5.94v6.26Z"/><path class="cls-1" d="M11.11,3.8c-.11,0-.19-.09-.19-.19v-1.21s-.02-.06-.05-.07c-.73-.16-1.5-.16-2.22,0-.03,0-.05,.04-.05,.07v1.21c0,.11-.09,.19-.19,.19s-.19-.09-.19-.19v-1.21c0-.21,.15-.4,.36-.45,.78-.17,1.61-.17,2.39,0,.21,.05,.36,.23,.36,.45v1.21c0,.11-.09,.19-.19,.19Z"/><path class="cls-1" d="M13.74,7.62H5.75c-.11,0-.19-.09-.19-.19,0-2.31,1.88-4.19,4.19-4.19s4.19,1.88,4.19,4.19c0,.11-.09,.19-.19,.19Zm-7.8-.39h7.6c-.1-2.01-1.77-3.61-3.8-3.61s-3.7,1.6-3.8,3.61Z"/><path class="cls-1" d="M9.75,18.26c-2.31,0-4.19-1.88-4.19-4.19,0-.11,.09-.19,.19-.19h7.99c.11,0,.19,.09,.19,.19,0,2.31-1.88,4.19-4.19,4.19Zm-3.8-4c.1,2.01,1.77,3.61,3.8,3.61s3.7-1.6,3.8-3.61H5.95Z"/><path class="cls-1" d="M8.9,12.94h-3.15c-.11,0-.19-.09-.19-.19v-3.88c0-.11,.09-.19,.19-.19h3.15c.58,0,1.05,.47,1.05,1.05v2.18c0,.58-.47,1.05-1.05,1.05Zm-2.95-.39h2.95c.36,0,.66-.29,.66-.66v-2.18c0-.36-.29-.66-.66-.66h-2.95v3.49Z"/><circle class="cls-1" cx="9.75" cy="5.19" r=".32"/><path class="cls-1" d="M5.75,19.5s-.06,0-.09-.02c-.09-.05-.13-.17-.08-.26l1.27-2.33c.05-.09,.17-.13,.26-.08,.09,.05,.13,.17,.08,.26l-1.27,2.33c-.04,.06-.1,.1-.17,.1Z"/><path class="cls-1" d="M13.74,19.5c-.07,0-.14-.04-.17-.1l-1.27-2.33c-.05-.09-.02-.21,.08-.26,.09-.05,.21-.02,.26,.08l1.27,2.33c.05,.09,.02,.21-.08,.26-.03,.02-.06,.02-.09,.02Z"/><path class="cls-1" d="M13.97,4.58s-.08-.01-.12-.04c-.08-.07-.1-.19-.03-.27,.18-.24,.26-.53,.23-.83-.04-.3-.19-.56-.42-.75-.66-.51-.77-1.46-.26-2.12,.07-.08,.19-.1,.27-.03,.08,.07,.1,.19,.03,.27-.38,.49-.29,1.19,.2,1.57,.32,.25,.52,.6,.57,1,.05,.4-.06,.79-.31,1.11-.04,.05-.1,.07-.15,.07Z"/></svg>