<?xml version="1.0" encoding="UTF-8"?><svg id="_лой_2" xmlns="http://www.w3.org/2000/svg" viewBox="0 0 20 20"><defs><style>.cls-1{fill:#df5700;}</style></defs><path class="cls-1" d="M11.26,3.72h-2.53c-.11,0-.2-.09-.2-.2s.09-.2,.2-.2h2.53c.11,0,.2,.09,.2,.2s-.09,.2-.2,.2Z"/><path class="cls-1" d="M12.7,17.6H7.3c-.37,0-.67-.3-.67-.67,0-.16,0-.32-.03-.48v-.14c-.2-1.72-.62-3.4-1.27-5-.34-.85-.38-1.8-.09-2.68,.32-.97,.96-1.81,1.8-2.38,.19-.13,.42-.2,.66-.2h4.57c.24,0,.47,.07,.66,.2,.85,.57,1.49,1.41,1.8,2.38h0c.29,.87,.25,1.83-.09,2.68-.65,1.6-1.07,3.29-1.25,5v.14c-.03,.16-.04,.32-.04,.48,0,.37-.3,.67-.67,.67ZM7.72,6.46c-.16,0-.31,.05-.44,.13-.77,.52-1.36,1.29-1.64,2.17-.26,.78-.23,1.64,.08,2.4,.66,1.64,1.09,3.36,1.28,5.11v.14c.03,.17,.04,.35,.04,.53,0,.15,.12,.26,.26,.26h5.4c.15,0,.26-.12,.26-.26,0-.18,0-.35,.03-.53v-.14c.2-1.75,.63-3.47,1.29-5.11,.31-.77,.34-1.62,.08-2.4h0c-.29-.88-.87-1.65-1.64-2.17-.13-.09-.28-.13-.44-.13H7.72Z"/><path class="cls-1" d="M12.58,6.46H7.42c-.44,0-.79-.35-.79-.79v-.16c0-.39,.19-.77,.5-1l1.23-.92s-.06-.06-.09-.1c-.11-.15-.13-.34-.07-.52,.18-.54,.55-1,1.02-1.31,.01,0,.02-.02,.02-.03v-.37c0-.2,.08-.39,.23-.54,.15-.14,.34-.22,.54-.22,.41,0,.74,.35,.74,.77v.35s0,.03,.02,.03c.48,.31,.84,.77,1.02,1.31,.06,.17,.03,.37-.07,.52-.03,.04-.06,.07-.09,.1l1.23,.92c.32,.24,.5,.61,.5,1v.16c0,.44-.35,.79-.79,.79ZM10,.9c-.09,0-.18,.04-.25,.1-.07,.07-.11,.16-.11,.25v.37c0,.15-.08,.29-.2,.37-.4,.26-.71,.65-.86,1.1-.02,.05-.01,.11,.02,.15,.03,.04,.08,.07,.13,.07h.05c.09,0,.16,.06,.19,.14,.03,.08,0,.17-.07,.22l-1.53,1.14c-.21,.16-.34,.42-.34,.68v.16c0,.21,.17,.39,.39,.39h5.15c.21,0,.39-.17,.39-.39v-.16c0-.27-.13-.52-.34-.68h0l-1.53-1.14c-.07-.05-.1-.14-.07-.22,.03-.08,.1-.14,.19-.14h.05c.05,0,.1-.03,.13-.07,.03-.04,.04-.1,.02-.15-.16-.45-.46-.84-.86-1.1-.13-.08-.2-.22-.2-.37v-.35c0-.2-.16-.37-.35-.37h0Z"/><g><path class="cls-1" d="M5.06,6.16h-.03c-.35-.01-.63-.3-.64-.64,0-.18,.06-.36,.19-.49,.13-.13,.3-.21,.48-.21,.11,0,.2,.09,.2,.2s-.09,.2-.2,.2c-.07,0-.14,.03-.19,.08-.05,.05-.08,.12-.07,.2,0,.14,.12,.25,.26,.26,.11,0,.21-.06,.25-.16,.09-.19,.28-.31,.5-.31h1.03c.11,0,.2,.09,.2,.2s-.09,.2-.2,.2h-1.03c-.06,0-.11,.03-.13,.08-.11,.24-.35,.39-.61,.39Z"/><path class="cls-1" d="M14.94,6.16c-.26,0-.5-.15-.61-.39-.02-.05-.07-.08-.13-.08h-1.03c-.11,0-.2-.09-.2-.2s.09-.2,.2-.2h1.03c.21,0,.41,.12,.5,.31,.05,.1,.15,.16,.25,.16,.14,0,.25-.12,.26-.26,0-.07-.02-.14-.07-.2-.05-.05-.12-.08-.19-.08-.11,0-.2-.09-.2-.2s.09-.2,.2-.2c.18,0,.35,.07,.48,.21,.13,.13,.19,.31,.19,.49-.01,.35-.3,.63-.64,.64h-.03Z"/></g><path class="cls-1" d="M10,17.6c-.11,0-.2-.09-.2-.2V6.26c0-.11,.09-.2,.2-.2s.2,.09,.2,.2v11.14c0,.11-.09,.2-.2,.2Z"/><path class="cls-1" d="M14.74,10.17H5.26c-.11,0-.2-.09-.2-.2s.09-.2,.2-.2H14.74c.11,0,.2,.09,.2,.2s-.09,.2-.2,.2Z"/><path class="cls-1" d="M13.67,13.89H6.33c-.11,0-.2-.09-.2-.2s.09-.2,.2-.2h7.35c.11,0,.2,.09,.2,.2s-.09,.2-.2,.2Z"/><path class="cls-1" d="M14.03,19.5c-.35,0-.66-.22-.77-.55l-.19-.54c-.17-.48-.62-.81-1.14-.81-.11,0-.2-.09-.2-.2s.09-.2,.2-.2c.68,0,1.29,.43,1.51,1.08l.19,.54c.06,.17,.22,.28,.4,.28,.11,0,.2,.09,.2,.2s-.09,.2-.2,.2Z"/><path class="cls-1" d="M5.97,19.5c-.11,0-.2-.09-.2-.2s.09-.2,.2-.2c.18,0,.34-.11,.4-.28l.19-.54c.22-.64,.83-1.08,1.51-1.08,.11,0,.2,.09,.2,.2s-.09,.2-.2,.2c-.51,0-.97,.32-1.14,.81l-.19,.54c-.11,.33-.43,.55-.77,.55Z"/><path class="cls-1" d="M14.74,12.9c-.32,0-.61-.21-.81-.59-.03-.05-.03-.11-.01-.16,.11-.34,.24-.67,.37-.99,.15-.38,.24-.79,.25-1.2,0-.11,.09-.19,.2-.19,.58,0,1.03,.69,1.03,1.56s-.45,1.56-1.03,1.56Zm-.41-.7c.12,.19,.26,.3,.41,.3,.3,0,.63-.48,.63-1.16,0-.54-.21-.96-.44-1.1-.04,.37-.13,.73-.27,1.08-.12,.29-.23,.58-.33,.88Z"/><path class="cls-1" d="M5.26,12.9c-.58,0-1.03-.69-1.03-1.56s.45-1.56,1.03-1.56c.11,0,.2,.09,.2,.19,.01,.41,.1,.82,.25,1.2h0c.13,.32,.25,.65,.37,.99,.02,.05,.01,.11-.01,.16-.19,.37-.49,.59-.81,.59Zm-.18-2.66c-.23,.15-.44,.56-.44,1.1,0,.68,.33,1.16,.63,1.16,.15,0,.29-.11,.41-.3-.1-.3-.21-.6-.33-.88h0c-.14-.35-.23-.71-.27-1.08Z"/></svg>