<svg width="28" height="28" viewBox="0 0 28 28" fill="none" xmlns="http://www.w3.org/2000/svg">
<path fill-rule="evenodd" clip-rule="evenodd" d="M23.9204 4.06909C21.2883 1.44648 17.7878 0.00153808 14.0586 0C6.37408 0 0.120032 6.22395 0.116941 13.8737C0.115911 16.3191 0.757801 18.7062 1.97787 20.8103L0 28L7.39066 26.0706C9.42709 27.1761 11.7197 27.7587 14.0529 27.7594H14.0587C21.7423 27.7594 27.9971 21.5349 28 13.8848C28.0015 10.1773 26.5527 6.69153 23.9204 4.06909ZM14.0586 25.4162H14.0537C11.9746 25.4153 9.93538 24.8592 8.15602 23.8087L7.73307 23.5587L3.34734 24.7037L4.51796 20.4482L4.24235 20.0119C3.08238 18.1757 2.46985 16.0535 2.47088 13.8746C2.47329 7.51628 7.6716 2.34336 14.0632 2.34336C17.1583 2.34438 20.0677 3.54546 22.2554 5.72527C24.4432 7.90508 25.6473 10.8025 25.6462 13.884C25.6435 20.2427 20.4455 25.4162 14.0586 25.4162ZM20.4146 16.7792C20.0664 16.6055 18.3536 15.7671 18.0342 15.6512C17.7152 15.5355 17.4827 15.4779 17.2507 15.8249C17.0183 16.1718 16.3508 16.9528 16.1475 17.184C15.9442 17.4154 15.7412 17.4445 15.3928 17.2708C15.0444 17.0974 13.922 16.7311 12.5914 15.55C11.5559 14.6308 10.8568 13.4955 10.6535 13.1486C10.4505 12.8013 10.6518 12.6318 10.8063 12.4411C11.1834 11.975 11.5611 11.4864 11.6771 11.2552C11.7934 11.0238 11.7352 10.8213 11.6479 10.6478C11.5611 10.4744 10.8644 8.76794 10.5742 8.07358C10.2912 7.39785 10.0042 7.48911 9.79028 7.47852C9.58731 7.46843 9.35497 7.46638 9.12263 7.46638C8.89047 7.46638 8.51303 7.55303 8.19363 7.90029C7.8744 8.24739 6.97459 9.08599 6.97459 10.7924C6.97459 12.4988 8.22282 14.1473 8.39694 14.3787C8.57107 14.6101 10.8534 18.1118 14.3477 19.6133C15.1789 19.9708 15.8276 20.184 16.3337 20.3438C17.1682 20.6076 17.9274 20.5704 18.5277 20.4812C19.1971 20.3815 20.5886 19.6424 20.8791 18.8327C21.1693 18.0228 21.1693 17.3288 21.0821 17.184C20.9952 17.0394 20.7629 16.9528 20.4146 16.7792Z" fill="white"/>
</svg>
