<svg width="15" height="15" viewBox="0 0 15 15" fill="none" xmlns="http://www.w3.org/2000/svg">
<path d="M7.5 0C3.36441 0 0 3.36441 0 7.5C0 11.6356 3.36441 15 7.5 15C11.6356 15 15 11.6356 15 7.5C15 3.36441 11.6356 0 7.5 0ZM7.5 13.3607C4.26846 13.3607 1.63934 10.7315 1.63934 7.5C1.63934 4.26846 4.26846 1.63934 7.5 1.63934C10.7315 1.63934 13.3607 4.26846 13.3607 7.5C13.3607 10.7315 10.7315 13.3607 7.5 13.3607Z" fill="#B79F56"/>
<path d="M8.14966 7.50926V4.36585C8.14966 4.01494 7.86519 3.73047 7.51429 3.73047C7.16338 3.73047 6.87891 4.01494 6.87891 4.36585V7.71204C6.87891 7.72195 6.88132 7.73133 6.88185 7.74151C6.87355 7.91428 6.93301 8.08973 7.06507 8.22179L9.4314 10.5881C9.67972 10.8364 10.0818 10.8364 10.3298 10.5881C10.5779 10.3398 10.5781 9.93774 10.3298 9.6897L8.14966 7.50926Z" fill="#B79F56"/>
</svg>
