<svg width="25" height="25" viewBox="0 0 25 25" fill="none" xmlns="http://www.w3.org/2000/svg">
<path d="M4.66701 19.7115C2.09317 17.1376 2.09317 12.9503 4.66701 10.3764L11.2015 3.84192C11.5458 3.49769 12.1027 3.49857 12.446 3.84192C12.7897 4.18557 12.7902 4.74275 12.4463 5.08669L5.91178 11.6212C4.02494 13.5081 4.02435 16.5793 5.91178 18.4667C7.79921 20.3541 10.8704 20.3535 12.7573 18.4667L19.6031 11.6209C20.8041 10.4199 20.8041 8.46597 19.6031 7.26496C18.4018 6.06366 16.4478 6.06366 15.2468 7.26467L9.02326 13.4882C8.50867 14.0028 8.50867 14.8406 9.02326 15.3552C9.53786 15.8698 10.3757 15.8698 10.8903 15.3552L16.8026 9.44294C17.1468 9.09871 17.7037 9.09959 18.047 9.44294C18.3907 9.78659 18.3913 10.3438 18.0473 10.6877L12.135 16.6C10.934 17.801 8.9798 17.8007 7.77879 16.5997C6.57778 15.3987 6.57748 13.4445 7.77849 12.2435L14.002 6.0199C15.8889 4.13306 18.9601 4.13248 20.8478 6.02019C22.7353 7.90762 22.7347 10.9788 20.8478 12.8657L14.002 19.7115C11.4282 22.2853 7.24085 22.2853 4.66701 19.7115Z" fill="black"/>
</svg>
