<svg width="12" height="15" viewBox="0 0 12 15" fill="none" xmlns="http://www.w3.org/2000/svg">
<path d="M5.99972 0C3.04576 0 0.642578 2.52363 0.642578 5.625C0.642578 9.7749 5.58538 14.707 5.79576 14.915C5.85324 14.9716 5.92662 15 5.99972 15C6.07282 15 6.14621 14.9716 6.20368 14.915C6.41406 14.707 11.3569 9.7749 11.3569 5.625C11.3569 2.52363 8.95396 0 5.99972 0ZM5.99972 8.7501C4.35882 8.7501 3.02344 7.34824 3.02344 5.625C3.02344 3.90176 4.35882 2.4999 5.99972 2.4999C7.64062 2.4999 8.976 3.90205 8.976 5.625C8.976 7.34795 7.64062 8.7501 5.99972 8.7501Z" fill="#B79F56"/>
</svg>
