<svg width="13" height="13" viewBox="0 0 13 13" fill="none" xmlns="http://www.w3.org/2000/svg">
<path d="M11.957 8.53294C11.161 8.53294 10.3797 8.40836 9.63896 8.16359C9.27604 8.03969 8.82984 8.15344 8.60844 8.38094L7.14662 9.48425C5.45154 8.57932 4.40714 7.5356 3.51474 5.85305L4.58589 4.42948C4.86417 4.15154 4.96404 3.74563 4.84419 3.36477C4.59841 2.62031 4.47349 1.8393 4.47349 1.04305C4.47383 0.467865 4.00563 0 3.43044 0H1.04305C0.467865 0 0 0.467865 0 1.04305C0 7.63615 5.36385 13 11.957 13C12.5321 13 13 12.5321 13 11.957V9.57633C13 9.00115 12.5321 8.53294 11.957 8.53294Z" fill="#B79F56"/>
</svg>
