<svg width="12" height="12" viewBox="0 0 12 12" fill="none" xmlns="http://www.w3.org/2000/svg">
<path d="M11.4902 0.401978C11.4435 0.168213 11.2383 0 11 0H1C0.761719 0 0.556519 0.168213 0.509766 0.401978L0.00976562 2.90198C0.00329591 2.9342 0 2.96704 0 3C0 3.39722 0.155029 3.77295 0.441528 4.06348C0.602783 4.22253 0.793457 4.33948 1 4.41248V10.5C1 11.3273 1.67273 12 2.5 12H9.5C10.3273 12 11 11.3273 11 10.5V4.41248C11.5818 4.20605 12 3.65173 12 3C12 2.96704 11.9967 2.9342 11.9902 2.90198L11.4902 0.401978ZM1.41003 1H10.59L10.9983 3.04126C10.9773 3.29749 10.7617 3.5 10.5 3.5C10.3673 3.5 10.2407 3.44727 10.1486 3.35645C10.0527 3.25928 10 3.13269 10 3V2.5C10 2.224 9.776 2 9.5 2C9.224 2 9 2.224 9 2.5V3C9 3.27576 8.77576 3.5 8.5 3.5H8.25C7.97424 3.5 7.75 3.27576 7.75 3V2.5C7.75 2.224 7.526 2 7.25 2C6.974 2 6.75 2.224 6.75 2.5V2.75C6.75 3.16345 6.41345 3.5 6 3.5C5.7998 3.5 5.61023 3.42175 5.47046 3.28345C5.32825 3.13977 5.25 2.9502 5.25 2.75V2.5C5.25 2.224 5.026 2 4.75 2C4.474 2 4.25 2.224 4.25 2.5V3C4.25 3.27576 4.02576 3.5 3.75 3.5H3.5C3.22424 3.5 3 3.27576 3 3V2.5C3 2.224 2.776 2 2.5 2C2.224 2 2 2.224 2 2.5V3C2 3.27576 1.77576 3.5 1.5 3.5C1.36731 3.5 1.24072 3.44727 1.14856 3.35645C1.0625 3.26953 1.01123 3.15869 1.00171 3.04102L1.41003 1ZM7.25 11H4.75V7.5C4.75 7.22424 4.97424 7 5.25 7H6.75C7.02576 7 7.25 7.22424 7.25 7.5V11ZM9.5 11H8.25V7.5C8.25 6.67273 7.57727 6 6.75 6H5.25C4.42273 6 3.75 6.67273 3.75 7.5V11H2.5C2.22424 11 2 10.7758 2 10.5V4.41248C2.18652 4.34619 2.35547 4.24451 2.5 4.11499C2.76575 4.35352 3.11548 4.5 3.5 4.5H3.75C4.17102 4.5 4.55127 4.3252 4.82397 4.04504C5.14819 4.33801 5.56201 4.5 6 4.5C6.45227 4.5 6.86377 4.32605 7.17456 4.04346C7.44751 4.32446 7.82825 4.5 8.25 4.5H8.5C8.88403 4.5 9.23376 4.35376 9.49927 4.11548C9.64771 4.2478 9.81726 4.34802 10 4.41272V10.5C10 10.7758 9.77576 11 9.5 11Z" fill="black"/>
</svg>
