<svg width="16" height="15" viewBox="0 0 16 15" fill="none" xmlns="http://www.w3.org/2000/svg">
<path d="M14.758 3.6062L14.7537 3.58889C14.4036 2.17353 12.8252 0.654777 11.3757 0.33881L11.3593 0.335444C9.01484 -0.111815 6.63764 -0.111815 4.29362 0.335444L4.27679 0.33881C2.82777 0.654777 1.24938 2.17353 0.898783 3.58889L0.894936 3.6062C0.462105 5.5828 0.462105 7.58729 0.894936 9.56388L0.898783 9.58119C1.23442 10.9361 2.69527 12.3851 4.09067 12.7836V14.3635C4.09067 14.9354 4.78753 15.2162 5.18381 14.8036L6.78456 13.1396C7.13174 13.1591 7.47911 13.1699 7.82648 13.1699C9.00667 13.1699 10.1873 13.0583 11.3593 12.8347L11.3757 12.8313C12.8252 12.5154 14.4036 10.9966 14.7537 9.58124L14.758 9.56393C15.1909 7.58729 15.1909 5.5828 14.758 3.6062ZM13.4913 9.27725C13.2576 10.2006 12.0591 11.3486 11.1069 11.5607C9.86026 11.7977 8.6038 11.8991 7.34859 11.8643C7.32363 11.8636 7.29963 11.8733 7.28222 11.8912C7.10409 12.074 6.11343 13.091 6.11343 13.091L4.87025 14.3669C4.77935 14.4616 4.61969 14.3972 4.61969 14.2663V11.6491C4.61969 11.6058 4.58881 11.5691 4.54635 11.5608C4.54659 11.5608 4.54611 11.5607 4.54635 11.5608C3.59412 11.3487 2.39542 10.2006 2.16121 9.2772C1.77166 7.49057 1.77166 5.67942 2.16121 3.89279C2.39542 2.96941 3.5934 1.82145 4.54562 1.60936C6.72276 1.19529 8.9302 1.19529 11.1069 1.60936C12.0596 1.82145 13.2576 2.96941 13.4913 3.89279C13.8813 5.67946 13.8813 7.49062 13.4913 9.27725Z" fill="white"/>
<path d="M9.89776 10.4854C9.75136 10.4409 9.61185 10.4111 9.48229 10.3573C8.13974 9.8003 6.90415 9.0817 5.92543 7.98015C5.36885 7.35374 4.93323 6.64655 4.56499 5.89813C4.39037 5.54321 4.24321 5.17439 4.0932 4.80798C3.95643 4.47383 4.15789 4.12862 4.37002 3.87686C4.56908 3.64058 4.82522 3.45976 5.10261 3.32649C5.31913 3.22247 5.5327 3.28244 5.69083 3.46596C6.03267 3.86272 6.34667 4.27978 6.60093 4.73969C6.75728 5.02256 6.71438 5.36835 6.43102 5.56086C6.36215 5.60766 6.29939 5.66258 6.23524 5.71543C6.17897 5.76174 6.12602 5.80854 6.08745 5.87125C6.01695 5.986 6.01358 6.12133 6.05898 6.24608C6.40842 7.20639 6.99741 7.95312 7.96396 8.35532C8.11863 8.41966 8.27397 8.49459 8.45215 8.47382C8.75056 8.43895 8.84718 8.11163 9.05629 7.94062C9.26068 7.77349 9.52187 7.77128 9.74203 7.91061C9.96225 8.04998 10.1757 8.19959 10.3879 8.3508C10.5962 8.49921 10.8036 8.6444 10.9957 8.81359C11.1804 8.97628 11.2441 9.18972 11.14 9.41051C10.9496 9.81487 10.6725 10.1513 10.2727 10.366C10.1599 10.4266 10.0251 10.4462 9.89776 10.4854C9.75136 10.4409 10.0251 10.4462 9.89776 10.4854Z" fill="white"/>
<path d="M7.83022 2.86413C9.58632 2.91333 11.0287 4.07875 11.3377 5.81489C11.3904 6.1107 11.4092 6.41316 11.4326 6.7134C11.4424 6.83969 11.3709 6.95968 11.2346 6.96131C11.0939 6.963 11.0305 6.84522 11.0214 6.71898C11.0033 6.46909 10.9908 6.21809 10.9563 5.97027C10.7745 4.66211 9.73141 3.57984 8.42931 3.34761C8.23338 3.31264 8.03284 3.30346 7.83436 3.28263C7.70889 3.26946 7.54456 3.26186 7.51676 3.10589C7.49343 2.97513 7.60381 2.87101 7.72832 2.86433C7.76217 2.86245 7.79622 2.86399 7.83022 2.86413C9.58632 2.91333 7.79622 2.86399 7.83022 2.86413Z" fill="white"/>
<path d="M10.4989 6.32371C10.4961 6.34564 10.4945 6.3972 10.4817 6.44577C10.4351 6.62208 10.1678 6.64415 10.1062 6.46621C10.088 6.41341 10.0852 6.35334 10.0852 6.29649C10.0845 5.92455 10.0037 5.55299 9.81612 5.22937C9.62332 4.89677 9.32876 4.61716 8.98326 4.44797C8.77435 4.34568 8.54841 4.2821 8.31944 4.2442C8.21936 4.22766 8.11823 4.21761 8.01766 4.20361C7.8958 4.18668 7.83073 4.10901 7.8365 3.98893C7.84189 3.87639 7.92413 3.79545 8.04676 3.80238C8.44977 3.82527 8.83903 3.91236 9.19732 4.10209C9.92592 4.48793 10.3421 5.09697 10.4636 5.91022C10.4691 5.94705 10.4779 5.98356 10.4807 6.02054C10.4876 6.11187 10.4919 6.20329 10.4989 6.32371C10.4961 6.34564 10.4919 6.20329 10.4989 6.32371Z" fill="white"/>
<path d="M9.40659 6.2812C9.25967 6.28385 9.18104 6.20252 9.16589 6.06781C9.15536 5.97389 9.14704 5.87872 9.12463 5.78734C9.08048 5.60738 8.98482 5.4406 8.83343 5.33032C8.76196 5.27824 8.68098 5.24029 8.59614 5.21581C8.48837 5.1847 8.37646 5.19326 8.26892 5.1669C8.15215 5.13829 8.08757 5.04374 8.10594 4.93418C8.12262 4.83449 8.21963 4.75667 8.32856 4.76456C9.0094 4.81371 9.496 5.1657 9.56544 5.96721C9.57035 6.02376 9.57612 6.08354 9.56357 6.13764C9.54207 6.23027 9.47349 6.27668 9.40659 6.2812C9.25967 6.28385 9.47349 6.27668 9.40659 6.2812Z" fill="white"/>
</svg>
