<svg width="20" height="11" viewBox="0 0 20 11" fill="none" xmlns="http://www.w3.org/2000/svg">
<path d="M19.1069 9.81131C19.0551 9.72455 18.7346 9.02805 17.1922 7.5965C15.5775 6.09746 15.7944 6.34087 17.7392 3.74889C18.9238 2.17033 19.3973 1.20632 19.2491 0.794205C19.1081 0.401371 18.2369 0.505002 18.2369 0.505002L15.3401 0.521872C15.3401 0.521872 15.1256 0.492952 14.9653 0.588148C14.8099 0.682139 14.7098 0.899041 14.7098 0.899041C14.7098 0.899041 14.2507 2.12092 13.6386 3.15964C12.348 5.35156 11.8311 5.46724 11.6202 5.33107C11.1298 5.01416 11.2527 4.05617 11.2527 3.37655C11.2527 1.25211 11.5744 0.366426 10.6249 0.137473C10.3091 0.0615577 10.0778 0.0109472 9.27163 0.0025121C8.23773 -0.008333 7.36169 0.00612711 6.86643 0.248334C6.53625 0.409806 6.282 0.770105 6.43744 0.79059C6.62904 0.815895 7.06284 0.907476 7.293 1.22078C7.59064 1.62446 7.57979 2.53304 7.57979 2.53304C7.57979 2.53304 7.75091 5.03344 7.18093 5.34433C6.78931 5.55762 6.25307 5.12261 5.10229 3.13313C4.51304 2.1149 4.06718 0.988212 4.06718 0.988212C4.06718 0.988212 3.98163 0.77854 3.82859 0.666474C3.64302 0.530307 3.38274 0.486927 3.38274 0.486927L0.62808 0.503797C0.62808 0.503797 0.214761 0.515847 0.0629296 0.695394C-0.0720317 0.855661 0.0520845 1.18583 0.0520845 1.18583C0.0520845 1.18583 2.20906 6.23122 4.65041 8.775C6.89053 11.1067 9.4331 10.9537 9.4331 10.9537H10.5851C10.5851 10.9537 10.9333 10.9151 11.1105 10.7235C11.2744 10.5476 11.2683 10.2174 11.2683 10.2174C11.2683 10.2174 11.2454 8.67137 11.9636 8.44362C12.671 8.21949 13.5795 9.93783 14.5424 10.5994C15.2702 11.0995 15.8233 10.9898 15.8233 10.9898L18.3984 10.9537C18.3984 10.9537 19.7456 10.8705 19.1069 9.81131Z" fill="black"/>
</svg>
