<svg width="15" height="15" viewBox="0 0 15 15" fill="none" xmlns="http://www.w3.org/2000/svg">
<path fill-rule="evenodd" clip-rule="evenodd" d="M12.7481 2.2307C11.4453 0.926348 9.71262 0.207705 7.86676 0.20694C4.06318 0.20694 0.967615 3.30242 0.966086 7.10702C0.965576 8.32323 1.28329 9.51046 1.88719 10.5569L0.908203 14.1327L4.56635 13.1731C5.57433 13.723 6.70911 14.0127 7.86395 14.013H7.86684C11.67 14.013 14.7659 10.9173 14.7673 7.11254C14.7681 5.26863 14.051 3.53497 12.7481 2.2307ZM7.86676 12.8477H7.86438C6.83524 12.8472 5.82591 12.5707 4.94518 12.0482L4.73584 11.9238L2.56503 12.4933L3.14445 10.3768L3.00803 10.1598C2.43389 9.24663 2.1307 8.19114 2.13121 7.10744C2.1324 3.94516 4.70541 1.37241 7.86905 1.37241C9.40102 1.37292 10.8411 1.97027 11.924 3.0544C13.0068 4.13852 13.6028 5.57955 13.6023 7.11212C13.6009 10.2747 11.0281 12.8477 7.86676 12.8477ZM11.0128 8.55204C10.8404 8.46568 9.99268 8.04869 9.83459 7.99106C9.67667 7.93352 9.56158 7.90488 9.44675 8.07742C9.33175 8.24996 9.00137 8.63839 8.90074 8.75339C8.8001 8.86848 8.69964 8.88293 8.52718 8.79657C8.35472 8.7103 7.79919 8.52815 7.14055 7.94075C6.62802 7.48355 6.282 6.91892 6.18137 6.74638C6.0809 6.57367 6.18052 6.48935 6.25701 6.39449C6.44367 6.16271 6.63057 5.91971 6.68803 5.80471C6.74557 5.68962 6.71676 5.5889 6.67358 5.50263C6.63057 5.41636 6.28574 4.56767 6.1421 4.22233C6.00203 3.88626 5.86 3.93164 5.75409 3.92637C5.65363 3.92136 5.53863 3.92034 5.42363 3.92034C5.30871 3.92034 5.12189 3.96343 4.9638 4.13614C4.80579 4.30877 4.36041 4.72585 4.36041 5.57454C4.36041 6.42322 4.97825 7.2431 5.06443 7.35818C5.15062 7.47327 6.2803 9.21484 8.00989 9.96162C8.42127 10.1394 8.74239 10.2454 8.99287 10.3249C9.40595 10.4561 9.78172 10.4376 10.0789 10.3932C10.4102 10.3437 11.0989 9.97606 11.2427 9.57335C11.3864 9.17056 11.3864 8.82539 11.3432 8.75339C11.3002 8.68149 11.1852 8.63839 11.0128 8.55204Z" fill="white"/>
</svg>
