<svg width="23" height="20" viewBox="0 0 23 20" fill="none" xmlns="http://www.w3.org/2000/svg">
<path d="M11.5045 10.0011C11.7516 10.0011 11.9539 9.79658 11.9539 9.54661C11.9539 9.29664 11.7516 9.09212 11.5045 9.09212C11.2573 9.09212 11.0551 9.29664 11.0551 9.54661C11.0551 9.79658 11.2573 10.0011 11.5045 10.0011Z" fill="#E73993"/>
<path d="M21.2113 6.36516H18.5554L14.466 0.674881C14.0975 0.0385883 13.2885 -0.188659 12.6459 0.170392C11.9943 0.538533 11.7606 1.36571 12.1246 2.02473C12.1336 2.04291 12.1471 2.06109 12.1606 2.07927L15.3692 6.36061H7.64417L10.8528 2.07927C10.8663 2.06109 10.8753 2.04291 10.8888 2.02473C11.2483 1.36571 11.0191 0.538533 10.363 0.170392C9.72037 -0.188659 8.91146 0.0385883 8.54296 0.674881L4.45348 6.36516H1.79757C0.804413 6.36516 0 7.1787 0 8.18314C0 8.97396 0.507814 9.66024 1.22235 9.90567C1.29875 9.96476 1.39312 10.0011 1.49648 10.0011C1.51895 10.0011 1.53692 10.0011 1.5549 10.0057C1.74814 10.0329 1.90093 10.1784 1.93688 10.3738L3.46482 18.8819C3.58166 19.5319 4.13891 20 4.79053 20H18.2094C18.861 20 19.4183 19.5273 19.5351 18.8819L21.063 10.3738C21.099 10.1784 21.2518 10.0329 21.445 10.0057C21.463 10.0011 21.4855 10.0011 21.5034 10.0011C21.6068 10.0011 21.7057 9.96476 21.7776 9.90567C22.4921 9.66024 22.9999 8.97396 22.9999 8.18314C23.0089 7.1787 22.2045 6.36516 21.2113 6.36516ZM12.8976 1.56115C12.7942 1.34753 12.8751 1.08393 13.0818 0.965758C13.2975 0.843044 13.5717 0.920308 13.693 1.14301C13.702 1.16119 13.711 1.17483 13.7245 1.18846L17.4409 6.36516H16.4927L12.8976 1.56115ZM9.28446 1.18846C9.29344 1.17483 9.30693 1.15665 9.31591 1.14301C9.43725 0.924853 9.71138 0.847589 9.92709 0.965758C10.1383 1.08393 10.2147 1.34299 10.1113 1.56115L6.5162 6.36516H5.56348L9.28446 1.18846ZM21.2113 9.09212H13.302C13.0549 9.09212 12.8526 9.29665 12.8526 9.54662C12.8526 9.79659 13.0549 9.99657 13.302 9.99657H20.2407C20.2182 10.0647 20.2002 10.1329 20.1867 10.2056L18.6588 18.7183C18.6183 18.9365 18.4341 19.091 18.2184 19.091H4.79502C4.57931 19.091 4.39057 18.9319 4.35462 18.7183L2.82668 10.2102C2.8132 10.1375 2.79522 10.0693 2.77275 10.0011H9.70689C9.95405 10.0011 10.1563 9.79659 10.1563 9.54662C10.1563 9.29665 9.95405 9.09212 9.70689 9.09212H1.79757C1.29875 9.09212 0.898786 8.67853 0.898786 8.18314C0.898786 7.68319 1.30324 7.27415 1.79757 7.27415H21.2113C21.7057 7.27415 22.1101 7.68319 22.1101 8.18314C22.1101 8.68762 21.7012 9.09212 21.2113 9.09212Z" fill="#E73993"/>
<path d="M11.5045 11.3646C10.763 11.3646 10.1563 11.9782 10.1563 12.7281V16.364C10.1563 17.1139 10.763 17.7275 11.5045 17.7275C12.246 17.7275 12.8526 17.1139 12.8526 16.364V12.7281C12.8526 11.9736 12.2504 11.3646 11.5045 11.3646ZM11.9539 16.364C11.9539 16.614 11.7516 16.8185 11.5045 16.8185C11.2573 16.8185 11.0551 16.614 11.0551 16.364V12.7281C11.0551 12.4781 11.2573 12.2736 11.5045 12.2736C11.7516 12.2736 11.9539 12.4781 11.9539 12.7281V16.364Z" fill="#E73993"/>
<path d="M15.9984 17.7275C16.7399 17.7275 17.3466 17.1139 17.3466 16.364V12.7281C17.3466 11.9736 16.7444 11.3646 15.9984 11.3646C15.2569 11.3646 14.6502 11.9782 14.6502 12.7281V16.364C14.6502 17.1139 15.2569 17.7275 15.9984 17.7275ZM15.549 12.7281C15.549 12.4781 15.7512 12.2736 15.9984 12.2736C16.2456 12.2736 16.4478 12.4781 16.4478 12.7281V16.364C16.4478 16.614 16.2456 16.8185 15.9984 16.8185C15.7512 16.8185 15.549 16.614 15.549 16.364V12.7281Z" fill="#E73993"/>
<path d="M7.01053 11.3646C6.26903 11.3646 5.66235 11.9782 5.66235 12.7281V16.364C5.66235 17.1139 6.26903 17.7275 7.01053 17.7275C7.75203 17.7275 8.35871 17.1139 8.35871 16.364V12.7281C8.35871 11.9736 7.75652 11.3646 7.01053 11.3646ZM7.45992 16.364C7.45992 16.614 7.25769 16.8185 7.01053 16.8185C6.76336 16.8185 6.56114 16.614 6.56114 16.364V12.7281C6.56114 12.4781 6.76336 12.2736 7.01053 12.2736C7.25769 12.2736 7.45992 12.4781 7.45992 12.7281V16.364Z" fill="#E73993"/>
</svg>
