<svg width="14" height="14" viewBox="0 0 14 14" fill="none" xmlns="http://www.w3.org/2000/svg">
<path d="M7 0C3.13078 0 0 3.13105 0 7C0 10.8692 3.13105 14 7 14C10.8692 14 14 10.8689 14 7C14 3.13078 10.8689 0 7 0ZM7 12.9062C3.73535 12.9062 1.09375 10.2644 1.09375 7C1.09375 3.73535 3.73557 1.09375 7 1.09375C10.2647 1.09375 12.9062 3.73557 12.9062 7C12.9062 10.2647 10.2644 12.9062 7 12.9062Z" fill="#FF0000"/>
<path d="M7 3.52441C6.69796 3.52441 6.45312 3.76925 6.45312 4.07129V7.59297C6.45312 7.895 6.69796 8.13984 7 8.13984C7.30204 8.13984 7.54688 7.895 7.54688 7.59297V4.07129C7.54688 3.76925 7.30204 3.52441 7 3.52441Z" fill="#FF0000"/>
<path d="M7 10.2852C7.40774 10.2852 7.73828 9.95462 7.73828 9.54688C7.73828 9.13913 7.40774 8.80859 7 8.80859C6.59226 8.80859 6.26172 9.13913 6.26172 9.54688C6.26172 9.95462 6.59226 10.2852 7 10.2852Z" fill="#FF0000"/>
</svg>
