<svg width="24" height="24" viewBox="0 0 24 24" fill="none" xmlns="http://www.w3.org/2000/svg">
<path d="M23.2295 7.24626C23.1755 6.02104 22.9774 5.17871 22.6936 4.44882C22.4008 3.67406 21.9503 2.98042 21.3601 2.40379C20.7835 1.81819 20.0853 1.36315 19.3195 1.07492C18.5854 0.791095 17.7474 0.592962 16.5222 0.538941C15.2878 0.480346 14.896 0.466797 11.7653 0.466797C8.63453 0.466797 8.24267 0.480346 7.01287 0.534366C5.78764 0.588387 4.94531 0.786696 4.2156 1.07035C3.44066 1.36315 2.74702 1.81361 2.17039 2.40379C1.58479 2.98042 1.12993 3.67863 0.841524 4.44442C0.557697 5.17871 0.359563 6.01647 0.305543 7.24169C0.246948 8.47606 0.233398 8.86793 0.233398 11.9986C0.233398 15.1294 0.246948 15.5212 0.300968 16.751C0.354988 17.9763 0.553298 18.8186 0.837124 19.5485C1.12993 20.3232 1.58479 21.0169 2.17039 21.5935C2.74702 22.1791 3.44524 22.6341 4.21102 22.9224C4.94531 23.2062 5.78307 23.4043 7.00847 23.4584C8.23809 23.5126 8.63014 23.5259 11.7609 23.5259C14.8916 23.5259 15.2834 23.5126 16.5132 23.4584C17.7385 23.4043 18.5808 23.2062 19.3105 22.9224C20.8602 22.3232 22.0854 21.098 22.6846 19.5485C22.9682 18.8142 23.1665 17.9763 23.2206 16.751C23.2746 15.5212 23.2881 15.1294 23.2881 11.9986C23.2881 8.86793 23.2836 8.47606 23.2295 7.24626ZM21.153 16.6609C21.1034 17.7871 20.9142 18.3952 20.7566 18.8006C20.3691 19.8052 19.5718 20.6025 18.5672 20.99C18.1618 21.1476 17.5493 21.3368 16.4275 21.3862C15.2113 21.4404 14.8465 21.4538 11.7698 21.4538C8.69313 21.4538 8.32379 21.4404 7.11193 21.3862C5.98578 21.3368 5.37765 21.1476 4.97223 20.99C4.47233 20.8052 4.01729 20.5124 3.64794 20.1295C3.26505 19.7556 2.97225 19.3051 2.78749 18.8052C2.62983 18.3998 2.44067 17.7871 2.39122 16.6655C2.33703 15.4493 2.32365 15.0843 2.32365 12.0076C2.32365 8.93093 2.33703 8.56158 2.39122 7.34991C2.44067 6.22375 2.62983 5.61562 2.78749 5.21021C2.97225 4.71012 3.26505 4.25526 3.65252 3.88574C4.02626 3.50285 4.47673 3.21005 4.97681 3.02546C5.38223 2.8678 5.99493 2.67864 7.11651 2.62902C8.33276 2.575 8.69771 2.56145 11.7742 2.56145C14.8555 2.56145 15.2203 2.575 16.4321 2.62902C17.5583 2.67864 18.1664 2.8678 18.5718 3.02546C19.0717 3.21005 19.5268 3.50285 19.8961 3.88574C20.279 4.25966 20.5718 4.71012 20.7566 5.21021C20.9142 5.61562 21.1034 6.22815 21.153 7.34991C21.207 8.56616 21.2206 8.93093 21.2206 12.0076C21.2206 15.0843 21.207 15.4447 21.153 16.6609Z" fill="#E73993"/>
<path d="M11.7693 6.07446C8.49904 6.07446 5.8457 8.72762 5.8457 11.998C5.8457 15.2685 8.49904 17.9216 11.7693 17.9216C15.0397 17.9216 17.6929 15.2685 17.6929 11.998C17.6929 8.72762 15.0397 6.07446 11.7693 6.07446ZM11.7693 15.8405C9.64772 15.8405 7.92681 14.1198 7.92681 11.998C7.92681 9.8763 9.64772 8.15557 11.7693 8.15557C13.891 8.15557 15.6118 9.8763 15.6118 11.998C15.6118 14.1198 13.891 15.8405 11.7693 15.8405Z" fill="#E73993"/>
<path d="M19.307 5.84138C19.307 6.60506 18.6878 7.22427 17.9239 7.22427C17.1602 7.22427 16.541 6.60506 16.541 5.84138C16.541 5.07753 17.1602 4.4585 17.9239 4.4585C18.6878 4.4585 19.307 5.07753 19.307 5.84138Z" fill="#E73993"/>
</svg>
