<svg width="14" height="14" viewBox="0 0 14 14" fill="none" xmlns="http://www.w3.org/2000/svg">
<path d="M13.9619 4.11611C13.9291 3.37222 13.8088 2.86081 13.6365 2.41766C13.4588 1.94727 13.1853 1.52613 12.8269 1.17603C12.4768 0.820486 12.0529 0.544213 11.588 0.369219C11.1423 0.196895 10.6335 0.0766001 9.88964 0.043802C9.1402 0.00822623 8.90228 0 7.00148 0C5.10069 0 4.86277 0.00822623 4.11611 0.0410243C3.37222 0.0738224 2.86081 0.194225 2.41776 0.366441C1.94727 0.544213 1.52613 0.817709 1.17603 1.17603C0.820486 1.52613 0.54432 1.95004 0.369219 2.41499C0.196895 2.86081 0.0766001 3.36944 0.043802 4.11333C0.00822622 4.86277 0 5.10069 0 7.00148C0 8.90228 0.00822622 9.1402 0.0410243 9.88686C0.0738224 10.6307 0.194224 11.1422 0.366548 11.5853C0.54432 12.0557 0.820486 12.4768 1.17603 12.8269C1.52613 13.1825 1.95004 13.4588 2.41499 13.6337C2.86081 13.8061 3.36944 13.9264 4.11344 13.9592C4.85999 13.9921 5.09802 14.0002 6.99881 14.0002C8.89961 14.0002 9.13753 13.9921 9.88419 13.9592C10.6281 13.9264 11.1395 13.8061 11.5825 13.6337C12.5234 13.27 13.2673 12.5261 13.6311 11.5853C13.8033 11.1395 13.9237 10.6307 13.9565 9.88686C13.9893 9.1402 13.9975 8.90228 13.9975 7.00148C13.9975 5.10069 13.9947 4.86277 13.9619 4.11611ZM12.7012 9.83216C12.6711 10.5159 12.5562 10.8851 12.4605 11.1313C12.2252 11.7412 11.7412 12.2252 11.1313 12.4605C10.8851 12.5562 10.5132 12.6711 9.83216 12.7011C9.09372 12.734 8.87226 12.7421 7.00426 12.7421C5.13627 12.7421 4.91202 12.734 4.17625 12.7011C3.49252 12.6711 3.1233 12.5562 2.87715 12.4605C2.57363 12.3483 2.29736 12.1705 2.07312 11.9381C1.84065 11.7111 1.66287 11.4376 1.5507 11.134C1.45497 10.8879 1.34013 10.5159 1.31011 9.83494C1.2772 9.0965 1.26908 8.87493 1.26908 7.00693C1.26908 5.13894 1.2772 4.91469 1.31011 4.17903C1.34013 3.49529 1.45497 3.12607 1.5507 2.87993C1.66287 2.57631 1.84065 2.30014 2.07589 2.07579C2.30281 1.84332 2.57631 1.66554 2.87993 1.55348C3.12607 1.45775 3.49807 1.34291 4.17903 1.31278C4.91747 1.27998 5.13904 1.27175 7.00693 1.27175C8.8777 1.27175 9.09917 1.27998 9.83494 1.31278C10.5187 1.34291 10.8879 1.45775 11.134 1.55348C11.4376 1.66554 11.7138 1.84332 11.9381 2.07579C12.1705 2.30281 12.3483 2.57631 12.4605 2.87993C12.5562 3.12607 12.6711 3.49796 12.7012 4.17903C12.734 4.91747 12.7422 5.13894 12.7422 7.00693C12.7422 8.87493 12.734 9.09373 12.7012 9.83216Z" fill="black"/>
<path d="M7.00174 3.40527C5.01623 3.40527 3.40527 5.01612 3.40527 7.00174C3.40527 8.98736 5.01623 10.5982 7.00174 10.5982C8.98736 10.5982 10.5982 8.98736 10.5982 7.00174C10.5982 5.01612 8.98736 3.40527 7.00174 3.40527ZM7.00174 9.33468C5.71364 9.33468 4.6688 8.28995 4.6688 7.00174C4.6688 5.71353 5.71364 4.6688 7.00174 4.6688C8.28995 4.6688 9.33468 5.71353 9.33468 7.00174C9.33468 8.28995 8.28995 9.33468 7.00174 9.33468Z" fill="black"/>
<path d="M11.5797 3.26295C11.5797 3.72661 11.2038 4.10256 10.74 4.10256C10.2763 4.10256 9.90039 3.72661 9.90039 3.26295C9.90039 2.79918 10.2763 2.42334 10.74 2.42334C11.2038 2.42334 11.5797 2.79918 11.5797 3.26295Z" fill="black"/>
</svg>
