<svg width="39" height="45" viewBox="0 0 39 45" fill="none" xmlns="http://www.w3.org/2000/svg">
<path fill-rule="evenodd" clip-rule="evenodd" d="M19.5 39.2058C30.2695 39.2058 39 30.4292 39 19.6029C39 8.77653 30.2695 0 19.5 0C8.73046 0 0 8.77653 0 19.6029C0 30.4292 8.73046 39.2058 19.5 39.2058ZM19.5 24.4765C22.1775 24.4765 24.3481 22.2946 24.3481 19.6029C24.3481 16.9112 22.1775 14.7292 19.5 14.7292C16.8225 14.7292 14.6519 16.9112 14.6519 19.6029C14.6519 22.2946 16.8225 24.4765 19.5 24.4765Z" fill="url(#paint0_linear)"/>
<path d="M20.0365 44.6751C19.7877 45.1083 19.1657 45.1083 18.9169 44.6751L15.2782 38.3394C15.0294 37.9061 15.3404 37.3646 15.838 37.3646H23.1155C23.6131 37.3646 23.9241 37.9061 23.6753 38.3394L20.0365 44.6751Z" fill="url(#paint1_linear)"/>
<defs>
<linearGradient id="paint0_linear" x1="1.03315e-08" y1="33" x2="39" y2="33" gradientUnits="userSpaceOnUse">
<stop stop-color="#E73993"/>
<stop offset="1" stop-color="#F86C90"/>
</linearGradient>
<linearGradient id="paint1_linear" x1="1.03315e-08" y1="33" x2="39" y2="33" gradientUnits="userSpaceOnUse">
<stop stop-color="#E73993"/>
<stop offset="1" stop-color="#F86C90"/>
</linearGradient>
</defs>
</svg>
