<svg width="25" height="21" viewBox="0 0 25 21" fill="none" xmlns="http://www.w3.org/2000/svg">
<path d="M23.4619 0H1.53809C0.693359 0 0 0.690758 0 1.53231V16.3495C0 17.196 0.693359 17.8819 1.53809 17.8819H8.9502L8.65234 20.2703H7.41211C7.21191 20.2703 7.0459 20.4357 7.0459 20.6352C7.0459 20.8346 7.21191 21 7.41211 21H17.5879C17.7881 21 17.9541 20.8346 17.9541 20.6352C17.9541 20.4357 17.7881 20.2703 17.5879 20.2703H16.3477L16.0498 17.8819H23.4619C24.3115 17.8819 25 17.1911 25 16.3495V1.53231C25 0.690758 24.3066 0 23.4619 0ZM9.39453 20.2752L9.69238 17.8867H11.04L11.1719 18.4121C11.3232 19.0202 11.8701 19.4434 12.5 19.4434C13.1299 19.4434 13.6768 19.0202 13.8281 18.4121L13.96 17.8867H15.3076L15.6055 20.2752H9.39453ZM11.7969 17.8867H13.208L13.1201 18.237C13.0469 18.5191 12.793 18.7186 12.5049 18.7186C12.2168 18.7186 11.958 18.5191 11.8896 18.237L11.7969 17.8867ZM24.2676 16.3544C24.2676 16.7971 23.9062 17.1571 23.4619 17.1571H1.53809C1.09375 17.1571 0.732422 16.7971 0.732422 16.3544V1.53231C0.732422 1.08965 1.09375 0.729673 1.53809 0.729673H23.457C23.9014 0.729673 24.2627 1.08965 24.2627 1.53231L24.2676 16.3544Z" fill="#E73993"/>
<path d="M20.7178 1.56149H1.93358C1.73338 1.56149 1.56737 1.72688 1.56737 1.92632V15.9652C1.56737 16.1647 1.73338 16.3301 1.93358 16.3301H2.71483C2.91503 16.3301 3.08104 16.1647 3.08104 15.9652C3.08104 15.7658 2.91503 15.6004 2.71483 15.6004H2.29979V2.29116H20.7226C20.9228 2.29116 21.0889 2.12577 21.0889 1.92632C21.084 1.72202 20.9228 1.56149 20.7178 1.56149Z" fill="#E73993"/>
<path d="M23.0664 1.56149H22.2852C22.085 1.56149 21.919 1.72688 21.919 1.92632C21.919 2.12577 22.085 2.29116 22.2852 2.29116H22.7002V15.6004H4.28223C4.08204 15.6004 3.91602 15.7658 3.91602 15.9652C3.91602 16.1647 4.08204 16.3301 4.28223 16.3301H23.0713C23.2715 16.3301 23.4375 16.1647 23.4375 15.9652V1.92632C23.4326 1.72202 23.2715 1.56149 23.0664 1.56149Z" fill="#E73993"/>
<path d="M17.4854 5.59902C17.4219 5.51632 17.3193 5.46281 17.2119 5.45795L8.59864 5.06879C8.59376 5.06879 8.58399 5.06879 8.57911 5.06879C8.53028 4.9034 8.42286 4.75746 8.27637 4.66017L7.22169 3.95969C7.05567 3.8478 6.82618 3.89158 6.71387 4.06184C6.60157 4.2321 6.64551 4.45586 6.81641 4.56775L7.8711 5.26823C7.87598 5.2731 7.88087 5.27796 7.88087 5.28283L9.22364 9.96733C9.26758 10.1133 9.33594 10.2446 9.42383 10.3565L8.93555 11.3343C8.81837 11.5677 8.82813 11.845 8.96973 12.0688C9.01856 12.1515 9.08204 12.2196 9.15528 12.2731C9.05762 12.4385 9.00391 12.6331 9.00391 12.8422C9.00391 13.4746 9.52149 13.9854 10.1514 13.9854C10.7861 13.9854 11.2988 13.4698 11.2988 12.8422C11.2988 12.6963 11.2695 12.5552 11.2207 12.4288H14.5606C14.5117 12.5552 14.4824 12.6963 14.4824 12.8422C14.4824 13.4746 15 13.9854 15.6299 13.9854C16.2598 13.9854 16.7774 13.4698 16.7774 12.8422C16.7774 12.6574 16.7334 12.4871 16.6553 12.3315C16.7285 12.2634 16.7774 12.1709 16.7774 12.0591C16.7774 11.8596 16.6113 11.6942 16.4111 11.6942H9.60938C9.6045 11.6942 9.59473 11.6942 9.58985 11.6845C9.58008 11.6748 9.58497 11.665 9.58985 11.6602L10.044 10.7602C10.1367 10.7846 10.2344 10.7943 10.332 10.7943C10.376 10.7943 10.4248 10.7894 10.4688 10.7846L15.6152 10.1814C16.2793 10.1035 16.8164 9.61222 16.9434 8.96038L17.5586 5.89575C17.5781 5.7936 17.5488 5.68171 17.4854 5.59902ZM15.6299 12.4288C15.8594 12.4288 16.0449 12.6136 16.0449 12.8422C16.0449 13.0709 15.8594 13.2557 15.6299 13.2557C15.4004 13.2557 15.2149 13.0709 15.2149 12.8422C15.2149 12.6136 15.4004 12.4288 15.6299 12.4288ZM10.1514 12.4288C10.3809 12.4288 10.5664 12.6136 10.5664 12.8422C10.5664 13.0709 10.3809 13.2557 10.1514 13.2557C9.92188 13.2557 9.73633 13.0709 9.73633 12.8422C9.73633 12.6136 9.92188 12.4288 10.1514 12.4288ZM9.25294 7.40861L8.79395 5.80819L10.2588 5.87629L10.5127 7.40861H9.25294ZM10.3809 10.0646C10.1758 10.0889 9.99024 9.96246 9.93165 9.76789L9.4629 8.14315H10.6348L10.9424 10.0014L10.3809 10.0646ZM12.5244 9.81167L11.6699 9.91382L11.377 8.13828H12.5244V9.81167ZM12.5244 7.40861H11.2549L11.0059 5.91035L12.5244 5.97845V7.40861ZM14.3799 9.59276L13.2568 9.7241V8.13828H14.5117L14.3799 9.59276ZM14.5801 7.40861H13.2617V6.0125L14.7022 6.07574L14.5801 7.40861ZM16.2207 8.81931C16.1524 9.15982 15.8691 9.41764 15.5225 9.46142L15.1221 9.51007L15.2441 8.14315H16.3574L16.2207 8.81931ZM16.5039 7.40861H15.3125L15.4297 6.10979L16.7529 6.16816L16.5039 7.40861Z" fill="#E73993"/>
</svg>
