<svg width="21" height="22" viewBox="0 0 21 22" fill="none" xmlns="http://www.w3.org/2000/svg">
<path d="M20.65 6.6H20.3V2.56667C20.3 2.365 20.1425 2.2 19.95 2.2H14V0.366667C14 0.165 13.8425 0 13.65 0H7.35C7.1575 0 7 0.165 7 0.366667V2.2H1.05C0.8575 2.2 0.7 2.365 0.7 2.56667V6.6H0.35C0.1575 6.6 0 6.765 0 6.96667V8.43333C0 8.635 0.1575 8.8 0.35 8.8H0.7V21.6333C0.7 21.835 0.8575 22 1.05 22H19.95C20.1425 22 20.3 21.835 20.3 21.6333V8.8H20.65C20.8425 8.8 21 8.635 21 8.43333V6.96667C21 6.765 20.8425 6.6 20.65 6.6ZM14 2.93333H19.6V6.6H14V2.93333ZM7.7 0.733333H13.3V6.6H7.7V0.733333ZM1.4 2.93333H7V6.6H1.4V2.93333ZM17.15 21.2667H12.6V18.3333H17.15V21.2667ZM17.15 17.6H12.6V13.9333H17.15V17.6ZM17.15 13.2H12.6V11.3667H17.15V13.2ZM19.6 21.2667H17.85V11C17.85 10.7983 17.6925 10.6333 17.5 10.6333H12.25C12.0575 10.6333 11.9 10.7983 11.9 11V21.2667H1.4V8.8H19.6V21.2667ZM20.3 8.06667H0.7V7.33333H20.3V8.06667Z" fill="#E73993"/>
<path d="M3.57404 18.8269H9.75288C9.94168 18.8269 10.0962 18.6582 10.0962 18.4519V16.5769C10.0962 16.3707 9.94168 16.2019 9.75288 16.2019H9.40962V10.9519C9.40962 10.7457 9.25514 10.5769 9.06635 10.5769H4.26058C4.07178 10.5769 3.91731 10.7457 3.91731 10.9519V16.2019H3.57404C3.38524 16.2019 3.23077 16.3707 3.23077 16.5769V18.4519C3.23077 18.6582 3.38524 18.8269 3.57404 18.8269ZM4.60385 11.3269H8.72308V16.2019H4.60385V11.3269ZM3.91731 16.9519H9.40962V18.0769H3.91731V16.9519Z" fill="#E73993"/>
<path d="M16.0529 16.0769C16.2195 16.0769 16.3558 15.9183 16.3558 15.7244V15.3718C16.3558 15.1779 16.2195 15.0192 16.0529 15.0192C15.8863 15.0192 15.75 15.1779 15.75 15.3718V15.7244C15.75 15.9183 15.8863 16.0769 16.0529 16.0769Z" fill="#E73993"/>
<path d="M12.1827 2.59135H11.5096V1.85096C11.5096 1.64736 11.3582 1.48077 11.1731 1.48077H9.82692C9.64183 1.48077 9.49038 1.64736 9.49038 1.85096V2.59135H8.81731C8.63221 2.59135 8.48077 2.75793 8.48077 2.96154V4.44231C8.48077 4.64591 8.63221 4.8125 8.81731 4.8125H9.49038V5.55288C9.49038 5.75649 9.64183 5.92308 9.82692 5.92308H11.1731C11.3582 5.92308 11.5096 5.75649 11.5096 5.55288V4.8125H12.1827C12.3678 4.8125 12.5192 4.64591 12.5192 4.44231V2.96154C12.5192 2.75793 12.3678 2.59135 12.1827 2.59135ZM11.8462 4.07212H11.1731C10.988 4.07212 10.8365 4.2387 10.8365 4.44231V5.18269H10.1635V4.44231C10.1635 4.2387 10.012 4.07212 9.82692 4.07212H9.15385V3.33173H9.82692C10.012 3.33173 10.1635 3.16514 10.1635 2.96154V2.22115H10.8365V2.96154C10.8365 3.16514 10.988 3.33173 11.1731 3.33173H11.8462V4.07212Z" fill="#E73993"/>
<path d="M5.87482 13.8584L6.96561 12.8424C7.10196 12.7111 7.10196 12.4994 6.96106 12.3682C6.82017 12.237 6.59292 12.237 6.45203 12.364L5.36124 13.38C5.2658 13.4647 5.22944 13.5917 5.26125 13.7103C5.29307 13.8288 5.39306 13.9219 5.52032 13.9516C5.64757 13.9812 5.77938 13.9431 5.87482 13.8584Z" fill="#E73993"/>
<path d="M7.491 13.0053L5.75978 14.819C5.66889 14.9097 5.63427 15.0457 5.66456 15.1726C5.69486 15.2996 5.79008 15.3993 5.91126 15.4311C6.03245 15.4628 6.16229 15.4265 6.24885 15.3313L7.98008 13.5177C8.10992 13.3771 8.10992 13.1504 7.97575 13.0098C7.84158 12.8693 7.6295 12.8693 7.491 13.0053Z" fill="#E73993"/>
</svg>
