<svg width="11" height="11" viewBox="0 0 11 11" fill="none" xmlns="http://www.w3.org/2000/svg">
<path d="M10.1173 7.22022C9.44388 7.22022 8.78262 7.11489 8.15599 6.90781C7.84894 6.80308 7.47147 6.89916 7.28407 7.09163L6.04723 8.02531C4.61285 7.25964 3.72931 6.37637 2.97409 4.95277L3.8803 3.74815C4.11574 3.51303 4.20018 3.16957 4.09901 2.8473C3.89104 2.21738 3.78539 1.55644 3.78539 0.88269C3.78542 0.39597 3.38945 0 2.90276 0H0.882662C0.39597 0 0 0.39597 0 0.882662C0 6.46142 4.53858 11 10.1173 11C10.604 11 11 10.604 11 10.1173V8.10285C11 7.61619 10.604 7.22022 10.1173 7.22022Z" fill="white"/>
</svg>
