<svg width="24" height="21" viewBox="0 0 24 21" fill="none" xmlns="http://www.w3.org/2000/svg">
<path fill-rule="evenodd" clip-rule="evenodd" d="M2.26904 10.8411C2.185 10.9202 2.07147 10.9688 1.94678 10.9688C1.79242 10.9688 1.65527 10.8943 1.56976 10.7795L0.109318 9.04294C-0.0569412 8.84488 -0.0305741 8.54963 0.168095 8.38374C0.366581 8.21803 0.662478 8.24415 0.828738 8.44239L1.54559 9.29488C1.82245 6.87698 2.92254 4.70847 4.55914 3.07546C6.46343 1.17533 9.09428 0 12 0C14.4913 0 16.7812 0.865286 18.5848 2.31139C20.423 3.78508 21.7545 5.86242 22.2778 8.24196C22.3324 8.49482 22.1715 8.74403 21.918 8.79866C21.6646 8.85329 21.4149 8.69269 21.3601 8.43983C20.8839 6.27351 19.6713 4.38216 17.9976 3.04001C16.3568 1.72473 14.2714 0.937454 12.0002 0.937454C9.35356 0.937454 6.95781 2.00773 5.22344 3.73831C3.7229 5.23557 2.71783 7.22741 2.47412 9.44763L3.40704 8.66656C3.60553 8.50067 3.90142 8.52698 4.0675 8.72521C4.23376 8.92326 4.20757 9.21851 4.00891 9.38441L2.26904 10.8411ZM8.66197 9.5366L8.15166 7.97759H10.5935C10.853 7.97759 11.0632 7.76766 11.0632 7.50877C11.0632 7.24988 10.853 7.03995 10.5935 7.03995H7.84477L7.37328 5.59951C7.30901 5.40183 7.12517 5.27613 6.92742 5.27613L5.16759 5.2754C4.90813 5.2754 4.69793 5.48514 4.69793 5.74403C4.69793 6.00292 4.90813 6.21285 5.16759 6.21285H6.58757C7.42894 8.78386 8.27049 11.3551 9.11186 13.9262C8.77806 13.9946 8.47978 14.1599 8.2476 14.3916C7.93779 14.7007 7.74608 15.1279 7.74608 15.5995C7.74608 16.0712 7.93779 16.4984 8.2476 16.8073C8.55742 17.1166 8.98552 17.3077 9.45811 17.3077C9.93089 17.3077 10.3588 17.1166 10.6688 16.8073C10.9786 16.4982 11.1701 16.0712 11.1701 15.5995C11.1701 15.3221 11.1039 15.0603 10.9863 14.8286H14.2481C14.13 15.0605 14.0634 15.3223 14.0634 15.5995C14.0634 16.0712 14.2551 16.4982 14.5649 16.8073C14.8747 17.1166 15.3028 17.3077 15.7756 17.3077C16.2482 17.3077 16.6763 17.1166 16.9861 16.8073C17.2959 16.4982 17.4874 16.0712 17.4874 15.5995C17.4874 15.1292 17.2961 14.7029 16.9865 14.3938C16.6682 14.0759 16.2253 13.8912 15.7745 13.8912H10.0871L9.81645 13.0641L15.7758 13.0633C15.9734 13.0633 16.1572 12.9376 16.2216 12.74L17.8765 7.68289C17.8982 7.62917 17.9101 7.57034 17.9101 7.50877C17.9101 7.24988 17.6999 7.03995 17.4404 7.03995H14.3518C14.0923 7.03995 13.8821 7.24988 13.8821 7.50877C13.8821 7.76766 14.0923 7.97759 14.3518 7.97759H16.7937L16.2834 9.5366H8.66197ZM15.9767 10.4737H8.96849L9.50956 12.1266H15.4358L15.9767 10.4737ZM12.4726 7.03995C12.2131 7.03995 12.0029 7.24988 12.0029 7.50877C12.0029 7.76766 12.2131 7.97741 12.4726 7.97741C12.732 7.97741 12.9424 7.76766 12.9424 7.50877C12.9424 7.24988 12.732 7.03995 12.4726 7.03995ZM15.8078 14.8275C16.0083 14.8356 16.1894 14.9202 16.3222 15.053C16.4617 15.1922 16.5481 15.3855 16.5481 15.5995C16.5481 15.8125 16.4615 16.0052 16.3218 16.1446C16.1821 16.284 15.9889 16.3703 15.7756 16.3703C15.5623 16.3703 15.3691 16.284 15.2294 16.1446C15.0895 16.0051 15.0031 15.8123 15.0031 15.5995C15.0031 15.3855 15.0895 15.1922 15.229 15.053C15.357 14.9251 15.5299 14.8418 15.7218 14.8286C15.7547 14.8259 15.7741 14.8259 15.8078 14.8275ZM10.0045 15.0544C10.1442 15.1938 10.2306 15.3866 10.2306 15.5995C10.2306 15.8125 10.1442 16.0051 10.0045 16.1446C9.86479 16.284 9.67161 16.3703 9.45829 16.3703C9.24479 16.3703 9.05162 16.284 8.91209 16.1445C8.7722 16.0051 8.68577 15.8123 8.68577 15.5995C8.68577 15.3866 8.7722 15.1938 8.91209 15.0544C9.05162 14.9149 9.24498 14.8286 9.45829 14.8286C9.67161 14.8286 9.86479 14.9149 10.0045 15.0544ZM20.5931 12.3334L21.5258 11.5524C21.2823 13.7726 20.2771 15.7644 18.7765 17.2617C17.0423 18.9921 14.6464 20.0624 12 20.0624C9.72874 20.0624 7.64317 19.2753 6.00237 17.9598C4.32861 16.618 3.11609 14.7265 2.63983 12.5602C2.58508 12.3073 2.33533 12.1467 2.08209 12.2013C1.82867 12.2558 1.66754 12.5052 1.72229 12.7579C2.24542 15.1376 3.57696 17.2149 5.41515 18.6886C7.21892 20.1347 9.50883 21 12.0002 21C14.9059 21 17.5365 19.8247 19.4408 17.9245C21.0774 16.2915 22.1777 14.123 22.4544 11.7051L23.1714 12.5576C23.3375 12.7557 23.6334 12.782 23.832 12.6161C24.0305 12.4504 24.0569 12.1551 23.8908 11.9571L22.4304 10.2205C22.3447 10.1055 22.2077 10.0312 22.0534 10.0312C21.9285 10.0312 21.8151 10.0798 21.7311 10.1589L19.9912 11.6156C19.7926 11.7815 19.7662 12.0767 19.9325 12.275C20.0987 12.473 20.3944 12.4993 20.5931 12.3334Z" fill="#E73993"/>
</svg>
