<svg width="24" height="24" viewBox="0 0 24 24" fill="none" xmlns="http://www.w3.org/2000/svg">
<path d="M7.61507 14.6267C7.30699 14.6267 7.03516 14.8922 7.03516 15.1932C7.03516 15.5295 7.27075 15.7774 7.61507 15.7774H8.95612V17.4768C8.84739 18.4504 10.5871 18.4504 10.4965 17.4768V15.7774H13.0518C13.7948 15.8482 13.8129 14.5736 13.0518 14.6267H10.4965V12.768H12.3994C15.3895 12.768 16.9662 11.3872 16.9662 9.31599C16.9662 6.96157 15.4077 5.79321 12.2725 5.79321C11.5839 5.79321 10.6777 5.81092 9.53604 5.82862C9.22796 5.82862 8.95612 6.05875 8.95612 6.39509V11.6173H7.61507C7.30699 11.6173 7.03516 11.8828 7.03516 12.1838C7.03516 12.5201 7.27075 12.768 7.61507 12.768H8.95612V14.6267H7.61507ZM10.4965 7.24481C11.2939 7.22711 11.9282 7.2094 12.4175 7.2094C14.3566 7.2094 15.3352 7.9529 15.3352 9.4222C15.3352 10.8915 14.2478 11.6173 12.345 11.6173H10.4965V7.24481Z" fill="#E73993"/>
<path fill-rule="evenodd" clip-rule="evenodd" d="M12 22.7586C17.9418 22.7586 22.7586 17.9418 22.7586 12C22.7586 6.05818 17.9418 1.24138 12 1.24138C6.05818 1.24138 1.24138 6.05818 1.24138 12C1.24138 17.9418 6.05818 22.7586 12 22.7586ZM12 24C18.6274 24 24 18.6274 24 12C24 5.37258 18.6274 0 12 0C5.37258 0 0 5.37258 0 12C0 18.6274 5.37258 24 12 24Z" fill="#E73993"/>
</svg>
