<svg width="16" height="9" viewBox="0 0 16 9" fill="none" xmlns="http://www.w3.org/2000/svg">
<path d="M15.6329 8.02743C15.5906 7.95645 15.3283 7.38659 14.0663 6.21531C12.7452 4.98883 12.9227 5.18799 14.5139 3.06728C15.4831 1.77572 15.8706 0.986988 15.7493 0.649804C15.6339 0.328395 14.9211 0.413184 14.9211 0.413184L12.551 0.426986C12.551 0.426986 12.3755 0.403324 12.2443 0.481212C12.1172 0.558114 12.0353 0.735579 12.0353 0.735579C12.0353 0.735579 11.6597 1.7353 11.1589 2.58516C10.1029 4.37855 9.67997 4.4732 9.50744 4.36179C9.10617 4.10249 9.20673 3.31869 9.20673 2.76263C9.20673 1.02445 9.46997 0.299803 8.69307 0.112478C8.43476 0.0503654 8.24546 0.00895679 7.58588 0.00205536C6.73996 -0.00681791 6.0232 0.00501311 5.61799 0.203183C5.34784 0.335296 5.13982 0.630086 5.267 0.646846C5.42376 0.667551 5.77869 0.74248 5.967 0.998819C6.21052 1.3291 6.20165 2.07248 6.20165 2.07248C6.20165 2.07248 6.34165 4.11827 5.87531 4.37263C5.55489 4.54714 5.11615 4.19122 4.1746 2.56347C3.69249 1.73037 3.3277 0.808537 3.3277 0.808537C3.3277 0.808537 3.2577 0.636987 3.13248 0.545297C2.98065 0.433888 2.76769 0.398395 2.76769 0.398395L0.513884 0.412198C0.513884 0.412198 0.175714 0.422057 0.0514879 0.568959C-0.058935 0.700086 0.0426146 0.970227 0.0426146 0.970227C0.0426146 0.970227 1.80741 5.09827 3.80488 7.17954C5.6377 9.0873 7.71799 8.96208 7.71799 8.96208H8.66053C8.66053 8.96208 8.94546 8.93054 9.09039 8.77377C9.22448 8.62983 9.21955 8.35969 9.21955 8.35969C9.21955 8.35969 9.20082 7.09475 9.78842 6.90842C10.3672 6.72504 11.1105 8.13095 11.8983 8.67222C12.4938 9.08138 12.9463 8.99166 12.9463 8.99166L15.0532 8.96208C15.0532 8.96208 16.1555 8.89406 15.6329 8.02743Z" fill="white"/>
</svg>
