<svg width="27" height="16" viewBox="0 0 27 16" fill="none" xmlns="http://www.w3.org/2000/svg">
<path d="M26.5707 13.6328C26.5008 13.5159 26.0689 12.5773 23.9903 10.6481C21.8144 8.62803 22.1067 8.95605 24.7276 5.46312C26.3238 3.33585 26.962 2.03676 26.7623 1.4814C26.5723 0.952018 25.3982 1.09167 25.3982 1.09167L21.4945 1.1144C21.4945 1.1144 21.2054 1.07543 20.9894 1.20372C20.78 1.33038 20.6452 1.62267 20.6452 1.62267C20.6452 1.62267 20.0265 3.26927 19.2016 4.66905C17.4624 7.62286 16.7658 7.77875 16.4816 7.59525C15.8207 7.16817 15.9863 5.8772 15.9863 4.96134C15.9863 2.09847 16.4199 0.904925 15.1403 0.596391C14.7148 0.494087 14.403 0.425885 13.3167 0.414518C11.9234 0.399903 10.7428 0.41939 10.0754 0.745787C9.63048 0.963385 9.28785 1.44892 9.49732 1.47653C9.75552 1.51063 10.3401 1.63404 10.6503 2.05625C11.0514 2.60024 11.0368 3.82464 11.0368 3.82464C11.0368 3.82464 11.2673 7.19416 10.4993 7.61311C9.97149 7.90054 9.24887 7.31432 7.69808 4.63332C6.90401 3.26115 6.30318 1.74284 6.30318 1.74284C6.30318 1.74284 6.18788 1.46029 5.98165 1.30927C5.73158 1.12577 5.38082 1.06731 5.38082 1.06731L1.66866 1.09005C1.66866 1.09005 1.11168 1.10629 0.907069 1.34824C0.725196 1.56422 0.892454 2.00915 0.892454 2.00915C0.892454 2.00915 3.79918 8.80828 7.08913 12.2363C10.1079 15.3784 13.5343 15.1722 13.5343 15.1722H15.0867C15.0867 15.1722 15.556 15.1202 15.7947 14.8621C16.0155 14.625 16.0074 14.18 16.0074 14.18C16.0074 14.18 15.9766 12.0966 16.9444 11.7897C17.8976 11.4877 19.122 13.8033 20.4195 14.6948C21.4003 15.3687 22.1456 15.2209 22.1456 15.2209L25.6158 15.1722C25.6158 15.1722 27.4313 15.0602 26.5707 13.6328Z" fill="#E73993"/>
</svg>
