<svg width="22" height="23" viewBox="0 0 22 23" fill="none" xmlns="http://www.w3.org/2000/svg">
<path d="M11.1043 14.2536H10.8057C11.7707 13.6744 12.5259 12.7857 12.9341 11.7227H13.0928C13.9899 11.7227 14.7198 10.9927 14.7198 10.0957C14.7198 9.26055 14.0849 8.57831 13.2736 8.48719V8.46876H13.9967C14.1967 8.46876 14.3583 8.30678 14.3583 8.1072V6.661C14.3583 6.46143 14.1967 6.29945 13.9967 6.29945H13.6185C13.462 3.98192 11.8195 2.00821 9.59304 1.41997L9.65523 0.921031C9.66824 0.817989 9.63607 0.714586 9.56773 0.636852C9.49904 0.559119 9.40034 0.514648 9.29657 0.514648H7.12727C7.0235 0.514648 6.9248 0.559119 6.85611 0.636852C6.78777 0.714586 6.75559 0.817989 6.76861 0.921031L6.83116 1.42033C4.60292 2.00821 2.96185 3.97866 2.8053 6.29945H2.42711C2.22718 6.29945 2.06556 6.46143 2.06556 6.661V8.1072C2.06556 8.30678 2.22718 8.46876 2.42711 8.46876H3.15021V8.48719C2.3389 8.57831 1.70401 9.26055 1.70401 10.0957C1.70401 10.9927 2.43398 11.7227 3.33099 11.7227H3.48971C3.8979 12.7857 4.65318 13.6744 5.61816 14.2536H5.31952C2.52835 14.2536 0.257812 16.5241 0.257812 19.3153V22.5692C0.257812 22.7688 0.419425 22.9308 0.619363 22.9308H15.8045C16.0044 22.9308 16.166 22.7688 16.166 22.5692V19.3153C16.166 16.5241 13.8955 14.2536 11.1043 14.2536ZM11.8274 15.0421V18.2306H11.1043V14.9767C11.3513 14.9767 11.5917 15.0023 11.8274 15.0421ZM13.2736 22.2077H11.8274V20.0384C11.8274 19.8388 11.6658 19.6768 11.4659 19.6768H4.95797C4.75803 19.6768 4.59642 19.8388 4.59642 20.0384V22.2077H3.15021V18.9537H13.2736V22.2077ZM11.1043 22.2077H5.31952V20.3999H11.1043V22.2077ZM13.9967 10.0957C13.9967 10.5726 13.6243 10.9606 13.1554 10.9935C13.231 10.6453 13.2736 10.2852 13.2736 9.91496V9.21029C13.6858 9.29417 13.9967 9.65934 13.9967 10.0957ZM8.88693 1.23775L8.61577 3.40705H7.80807L7.5369 1.23775H8.88693ZM6.92155 2.1456L7.13016 3.81343C7.15258 3.99457 7.3066 4.13015 7.48882 4.13015H8.93502C9.11724 4.13015 9.27126 3.99457 9.29368 3.81343L9.50229 2.1456C11.369 2.6807 12.7429 4.34383 12.8954 6.29945H3.5284C3.68061 4.3413 5.05378 2.68033 6.92155 2.1456ZM2.78866 7.02255H13.6352V7.74565H2.78866V7.02255ZM2.42711 10.0957C2.42711 9.65934 2.73805 9.29417 3.15021 9.21029V9.91496C3.15021 10.2852 3.19288 10.6453 3.26844 10.9935C2.79951 10.9606 2.42711 10.5726 2.42711 10.0957ZM3.87332 9.91496V8.46876H12.5505V9.91496C12.5505 12.3073 10.6043 14.2536 8.21192 14.2536C5.81954 14.2536 3.87332 12.3073 3.87332 9.91496ZM10.3812 14.9767V18.2306H6.04262V14.9767H10.3812ZM5.31952 18.2306H4.59642V15.0421C4.83215 15.0023 5.07258 14.9767 5.31952 14.9767V18.2306ZM0.980913 19.3153C0.980913 17.4305 2.19102 15.8274 3.87332 15.2297V18.2306H2.78866C2.58873 18.2306 2.42711 18.3926 2.42711 18.5922V22.2077H0.980913V19.3153ZM15.4429 22.2077H13.9967V18.5922C13.9967 18.3926 13.8351 18.2306 13.6352 18.2306H12.5505V15.2297C14.2328 15.8274 15.4429 17.4305 15.4429 19.3153V22.2077Z" fill="black"/>
<path d="M8.21205 12.8073C7.61404 12.8073 7.1274 12.3207 7.1274 11.7227H6.4043C6.4043 12.7195 7.21525 13.5304 8.21205 13.5304C9.20884 13.5304 10.0198 12.7195 10.0198 11.7227H9.2967C9.2967 12.3207 8.81005 12.8073 8.21205 12.8073Z" fill="black"/>
<path d="M19.7815 14.0123V9.43292C20.6561 9.0175 21.2277 8.12953 21.2277 7.14828C21.2277 6.07954 20.5498 5.12143 19.5407 4.76422C19.4301 4.72554 19.3072 4.74181 19.2114 4.80978C19.1152 4.87775 19.0584 4.98802 19.0584 5.10516V6.9986L18.6969 7.36015L18.3353 6.9986V5.10516C18.3353 4.98766 18.2786 4.87775 18.1824 4.81014C18.0866 4.74217 17.9636 4.7259 17.853 4.76458C16.8439 5.12179 16.166 6.0799 16.166 7.14865C16.166 8.12989 16.7376 9.01786 17.6122 9.43328V14.0123C16.7376 14.4277 16.166 15.3157 16.166 16.297C16.166 17.3657 16.8439 18.3238 17.853 18.681C17.9636 18.7201 18.0866 18.7031 18.1824 18.6355C18.2786 18.5675 18.3353 18.4572 18.3353 18.3401V16.4466L18.6969 16.0851L19.0584 16.4466V18.3401C19.0584 18.4576 19.1152 18.5675 19.2114 18.6351C19.2732 18.6788 19.3462 18.7016 19.42 18.7016C19.4605 18.7016 19.5017 18.6948 19.5407 18.681C20.5498 18.3234 21.2277 17.3653 21.2277 16.2966C21.2277 15.3157 20.6561 14.4274 19.7815 14.0123ZM19.7815 17.7406V16.297C19.7815 16.2011 19.7436 16.1089 19.6756 16.0413L18.9525 15.3182C18.882 15.2477 18.7894 15.2123 18.6969 15.2123C18.6043 15.2123 18.5118 15.2477 18.4413 15.3182L17.7182 16.0413C17.6502 16.1089 17.6122 16.2008 17.6122 16.2966V17.7403C17.1661 17.4047 16.8891 16.8733 16.8891 16.2966C16.8891 15.5337 17.3736 14.8497 18.0945 14.5944C18.2388 14.5431 18.3353 14.4068 18.3353 14.2535V9.19177C18.3353 9.03847 18.2388 8.90216 18.0945 8.85082C17.3736 8.59557 16.8891 7.91152 16.8891 7.14865C16.8891 6.57197 17.1661 6.04049 17.6122 5.70497V7.14865C17.6122 7.24446 17.6502 7.33665 17.7182 7.40426L18.4413 8.12736C18.5826 8.26873 18.8111 8.26873 18.9525 8.12736L19.6756 7.40426C19.7436 7.33629 19.7815 7.24446 19.7815 7.14865V5.70497C20.2277 6.04049 20.5046 6.57197 20.5046 7.14865C20.5046 7.91152 20.0201 8.59557 19.2992 8.85082C19.155 8.90216 19.0584 9.03847 19.0584 9.19177V14.2535C19.0584 14.4068 19.155 14.5431 19.2992 14.5944C20.0201 14.8497 20.5046 15.5337 20.5046 16.2966C20.5046 16.8736 20.2277 17.4051 19.7815 17.7406Z" fill="black"/>
</svg>
