<svg width="23" height="23" viewBox="0 0 23 23" fill="none" xmlns="http://www.w3.org/2000/svg">
<path d="M6.34126 9.15137H5.61816V9.87447H6.34126V9.15137Z" fill="black"/>
<path d="M9.9565 9.15137H9.2334V9.87447H9.9565V9.15137Z" fill="black"/>
<path d="M21.9395 13.1321L20.5269 12.9304C20.4597 12.7329 20.3804 12.5397 20.2894 12.3519L21.1441 11.2123C21.1963 11.1427 21.2216 11.0566 21.2154 10.9698C21.2092 10.883 21.172 10.8013 21.1104 10.7398L19.5764 9.20571C19.5174 9.14719 19.44 9.11102 19.3573 9.10339V5.62311C19.6956 5.35227 19.9686 5.00888 20.1564 4.61832C20.3441 4.22776 20.4417 3.80001 20.4419 3.36667C20.4452 2.81873 20.2912 2.28136 19.9981 1.81838C19.705 1.3554 19.2852 0.986266 18.7886 0.754833C18.7335 0.728814 18.6727 0.717144 18.6119 0.720904C18.551 0.724665 18.4922 0.743735 18.4407 0.776343C18.3892 0.808951 18.3468 0.85404 18.3174 0.90742C18.2881 0.960801 18.2726 1.02074 18.2726 1.08167V3.10636L17.5495 3.34751L16.8264 3.10636V1.08167C16.8262 1.02086 16.8106 0.961101 16.7811 0.907916C16.7516 0.85473 16.7092 0.809841 16.6577 0.777401C16.6063 0.744961 16.5475 0.726019 16.4868 0.722327C16.4261 0.718635 16.3655 0.730312 16.3105 0.756279C15.814 0.98761 15.3944 1.35652 15.1013 1.81921C14.8083 2.28191 14.6541 2.81898 14.6571 3.36667C14.6573 3.80001 14.7549 4.22776 14.9427 4.61832C15.1304 5.00888 15.4035 5.35227 15.7418 5.62311V8.06682H14.6571C14.5701 8.06681 14.486 8.09817 14.4203 8.15515C14.3545 8.21214 14.3115 8.29091 14.2992 8.37703L14.0653 10.0145L14.7811 10.1168L14.9706 8.78992H16.513L16.7024 10.1168C16.7123 10.1856 16.7417 10.25 16.7873 10.3025C16.8328 10.3549 16.8924 10.3931 16.9591 10.4126C17.2605 10.4996 17.5514 10.6193 17.8268 10.7694C17.8878 10.8028 17.957 10.818 18.0264 10.813C18.0957 10.8081 18.1621 10.7833 18.2177 10.7416L19.2882 9.93893L20.3787 11.0294L19.5742 12.0999C19.5325 12.1555 19.5077 12.2219 19.5028 12.2912C19.4978 12.3606 19.513 12.4298 19.5464 12.4908C19.6965 12.7662 19.8161 13.0571 19.9032 13.3585C19.9227 13.4251 19.9609 13.4848 20.0133 13.5303C20.0658 13.5759 20.1302 13.6053 20.199 13.6152L21.5259 13.8046V15.347L20.199 15.5365C20.1302 15.5463 20.0658 15.5758 20.0133 15.6213C19.9609 15.6668 19.9227 15.7265 19.9032 15.7932C19.8161 16.0945 19.6965 16.3855 19.5464 16.6609C19.513 16.7218 19.4978 16.7911 19.5028 16.8604C19.5077 16.9297 19.5325 16.9961 19.5742 17.0517L20.3768 18.1223L19.2864 19.2127L18.2166 18.4072C18.161 18.3655 18.0946 18.3406 18.0253 18.3357C17.9559 18.3308 17.8867 18.3459 17.8258 18.3793C17.5503 18.5294 17.2594 18.6491 16.958 18.7362C16.8914 18.7556 16.8317 18.7938 16.7862 18.8463C16.7406 18.8987 16.7112 18.9632 16.7013 19.0319L16.513 20.3595H15.0187V18.8305C15.0184 18.4486 14.9636 18.0686 14.856 17.7021C15.5446 17.9037 16.2803 17.8749 16.9511 17.6201C17.6219 17.3653 18.1911 16.8984 18.5722 16.2904C18.9533 15.6824 19.1254 14.9666 19.0624 14.2518C18.9994 13.537 18.7046 12.8623 18.223 12.3304C17.7414 11.7985 17.0993 11.4384 16.3942 11.3049C15.6892 11.1714 14.9598 11.2717 14.3171 11.5908C13.6743 11.9098 13.1534 12.4299 12.8333 13.0722C12.5133 13.7144 12.4118 14.4436 12.5442 15.1489C12.5355 15.1453 12.5272 15.1409 12.5186 15.1377L9.59542 13.9684V13.4127C10.0785 13.1655 10.5065 12.8229 10.8533 12.4054H11.7647C12.0524 12.4054 12.3283 12.2912 12.5317 12.0877C12.7351 11.8843 12.8494 11.6084 12.8494 11.3208V10.5312C13.0601 10.4566 13.2427 10.3188 13.3721 10.1366C13.5016 9.95434 13.5715 9.73656 13.5725 9.51303V8.42837C13.5715 8.20484 13.5016 7.98706 13.3721 7.80481C13.2427 7.62256 13.0601 7.48476 12.8494 7.41025V6.98217C12.8494 5.63973 12.3161 4.35226 11.3668 3.40301C10.4176 2.45376 9.13011 1.92047 7.78767 1.92047C6.44522 1.92047 5.15775 2.45376 4.2085 3.40301C3.25925 4.35226 2.72596 5.63973 2.72596 6.98217V7.41025C2.51521 7.48476 2.33263 7.62256 2.20319 7.80481C2.07376 7.98706 2.00379 8.20484 2.00286 8.42837V9.51303C2.00286 9.80069 2.11714 10.0766 2.32055 10.28C2.52396 10.4834 2.79985 10.5977 3.08751 10.5977H3.81061C3.83375 10.5977 3.85617 10.5941 3.87895 10.5926C3.99011 11.1921 4.23732 11.758 4.60156 12.2469C4.96579 12.7358 5.43734 13.1347 5.97992 13.4127V13.9684L3.05678 15.1377C2.31726 15.4307 1.68318 15.9398 1.23722 16.5985C0.791263 17.2573 0.554103 18.0351 0.556661 18.8305V22.1673C0.556661 22.2632 0.594753 22.3551 0.662557 22.4229C0.730361 22.4907 0.822322 22.5288 0.918211 22.5288H14.6571C14.753 22.5288 14.845 22.4907 14.9128 22.4229C14.9806 22.3551 15.0187 22.2632 15.0187 22.1673V21.0826H16.8264C16.9134 21.0826 16.9975 21.0513 17.0633 20.9943C17.129 20.9373 17.172 20.8585 17.1844 20.7724L17.3861 19.3598C17.5836 19.2927 17.7768 19.2133 17.9646 19.1223L19.1042 19.977C19.1738 20.0292 19.2599 20.0546 19.3467 20.0484C19.4335 20.0422 19.5152 20.0049 19.5767 19.9434L21.1108 18.4093C21.1723 18.3478 21.2096 18.2661 21.2158 18.1793C21.222 18.0925 21.1966 18.0064 21.1444 17.9368L20.2897 16.7972C20.3807 16.6094 20.4601 16.4162 20.5273 16.2187L21.9398 16.017C22.0258 16.0045 22.1045 15.9615 22.1614 15.8959C22.2183 15.8302 22.2496 15.7463 22.2497 15.6594V13.4901C22.2497 13.4031 22.2183 13.319 22.1613 13.2532C22.1044 13.1875 22.0256 13.1445 21.9395 13.1321ZM17.9624 10.0271C17.9454 10.0188 17.9263 10.0134 17.9093 10.0055V5.53597H17.188V8.40307L17.1844 8.37703C17.172 8.29091 17.129 8.21214 17.0633 8.15515C16.9975 8.09817 16.9134 8.06681 16.8264 8.06682H16.4649V5.44197C16.4649 5.38365 16.4508 5.3262 16.4238 5.27451C16.3968 5.22282 16.3576 5.17844 16.3098 5.14514C16.041 4.95802 15.8181 4.71249 15.6578 4.42694C15.4974 4.1414 15.4038 3.82326 15.3839 3.49638C15.3641 3.1695 15.4185 2.84236 15.5431 2.53951C15.6677 2.23665 15.8592 1.96593 16.1033 1.74765V3.36667C16.1033 3.44258 16.1272 3.51658 16.1716 3.57816C16.216 3.63974 16.2786 3.68579 16.3506 3.70978L17.4353 4.07133C17.5094 4.09603 17.5896 4.09603 17.6638 4.07133L18.7484 3.70978C18.8204 3.68579 18.8831 3.63974 18.9275 3.57816C18.9719 3.51658 18.9957 3.44258 18.9957 3.36667V1.74765C19.2401 1.96592 19.4318 2.23671 19.5565 2.53967C19.6812 2.84264 19.7357 3.16992 19.7158 3.49695C19.6959 3.82397 19.6023 4.14226 19.4418 4.4279C19.2813 4.71354 19.0582 4.95913 18.7893 5.14622C18.7416 5.17942 18.7025 5.22363 18.6755 5.27512C18.6485 5.3266 18.6343 5.38384 18.6342 5.44197V9.52496L17.9624 10.0271ZM13.2109 14.5747C13.2069 14.0094 13.391 13.4588 13.7342 13.0095C14.0774 12.5603 14.5601 12.2378 15.1066 12.093C15.6531 11.9481 16.2322 11.989 16.7528 12.2093C17.2735 12.4295 17.7062 12.8166 17.9828 13.3096C18.2594 13.8027 18.3642 14.3737 18.2808 14.9329C18.1974 15.492 17.9305 16.0076 17.522 16.3984C17.1136 16.7893 16.5868 17.0332 16.0245 17.0919C15.4622 17.1506 14.8964 17.0208 14.416 16.7227C14.166 16.3223 13.8463 15.97 13.472 15.6825C13.3 15.3386 13.2106 14.9593 13.2109 14.5747ZM11.7647 11.6823H11.3258C11.502 11.3392 11.6269 10.972 11.6964 10.5926C11.7192 10.5926 11.7416 10.5977 11.7647 10.5977H12.1263V11.3208C12.1263 11.4167 12.0882 11.5086 12.0204 11.5764C11.9526 11.6442 11.8606 11.6823 11.7647 11.6823ZM11.0416 7.70527C10.8733 7.70486 10.7074 7.66547 10.5568 7.5902C10.4063 7.51492 10.2752 7.40581 10.1739 7.27141L9.52311 6.40369C9.49405 6.36495 9.45751 6.33245 9.41565 6.3081C9.37379 6.28376 9.32746 6.26807 9.27942 6.26197C9.23137 6.25607 9.18262 6.25977 9.13601 6.27287C9.0894 6.28596 9.04585 6.30819 9.0079 6.33825L7.79454 7.30757C7.47439 7.56376 7.07689 7.70395 6.66686 7.70527H4.53371V7.34372C4.53371 6.48072 4.87654 5.65307 5.48677 5.04283C6.09701 4.4326 6.92466 4.08977 7.78767 4.08977C8.65067 4.08977 9.47832 4.4326 10.0886 5.04283C10.6988 5.65307 11.0416 6.48072 11.0416 7.34372V7.70527ZM12.8494 9.51303C12.8494 9.60891 12.8113 9.70088 12.7435 9.76868C12.6757 9.83648 12.5837 9.87458 12.4878 9.87458H11.7647V8.06682H12.4878C12.5837 8.06682 12.6757 8.10492 12.7435 8.17272C12.8113 8.24052 12.8494 8.33249 12.8494 8.42837V9.51303ZM7.78767 2.64357C8.93795 2.64482 10.0408 3.10232 10.8541 3.91569C11.6675 4.72907 12.125 5.83189 12.1263 6.98217V7.34372H11.7647C11.7647 6.28894 11.3457 5.27737 10.5999 4.53152C9.85403 3.78568 8.84245 3.36667 7.78767 3.36667C6.73289 3.36667 5.72131 3.78568 4.97547 4.53152C4.22962 5.27737 3.81061 6.28894 3.81061 7.34372H3.44906V6.98217C3.45031 5.83189 3.90781 4.72907 4.72119 3.91569C5.53456 3.10232 6.63738 2.64482 7.78767 2.64357ZM3.08751 9.87458C2.99162 9.87458 2.89966 9.83648 2.83186 9.76868C2.76405 9.70088 2.72596 9.60891 2.72596 9.51303V8.42837C2.72596 8.33249 2.76405 8.24052 2.83186 8.17272C2.89966 8.10492 2.99162 8.06682 3.08751 8.06682H3.81061V9.87458H3.08751ZM4.53371 9.87458V8.42837H6.66686C7.24132 8.42761 7.79856 8.23209 8.24756 7.87376L9.16987 7.13583L9.59542 7.70527C9.76429 7.92927 9.98274 8.11112 10.2336 8.23658C10.4845 8.36203 10.7611 8.42768 11.0416 8.42837V9.87458C11.0422 10.5185 10.8506 11.1479 10.4913 11.6823H7.78767V12.4054H9.82826C9.35079 12.7915 8.77374 13.0344 8.16392 13.1061C7.55411 13.1778 6.93645 13.0753 6.38248 12.8105C5.8285 12.5457 5.36084 12.1294 5.03366 11.6098C4.70647 11.0902 4.53314 10.4886 4.53371 9.87458ZM7.78767 13.8516C8.1546 13.8507 8.51964 13.7989 8.87232 13.6976V14.2132C8.87232 14.5008 8.75804 14.7767 8.55463 14.9801C8.35122 15.1836 8.07533 15.2978 7.78767 15.2978C7.5 15.2978 7.22411 15.1836 7.0207 14.9801C6.81729 14.7767 6.70302 14.5008 6.70302 14.2132V13.6976C7.0557 13.7989 7.42073 13.8507 7.78767 13.8516ZM14.2956 21.8057H12.1263V17.8287H11.4032V21.8057H4.17216V17.8287H3.44906V21.8057H1.27976V18.8305C1.27766 18.1797 1.4717 17.5433 1.8366 17.0043C2.2015 16.4653 2.72032 16.0488 3.32541 15.8091L6.05982 14.7154C6.16659 15.0913 6.39306 15.4222 6.70488 15.6578C7.0167 15.8934 7.39685 16.0208 7.78767 16.0208C8.17848 16.0208 8.55863 15.8934 8.87045 15.6578C9.18227 15.4222 9.40874 15.0913 9.51552 14.7154L12.2499 15.8091C12.855 16.0488 13.3738 16.4653 13.7387 17.0043C14.1036 17.5433 14.2977 18.1797 14.2956 18.8305V21.8057Z" fill="black"/>
<path d="M16.104 9.51318H15.3809V10.2363H16.104V9.51318Z" fill="black"/>
<path d="M16.104 18.9131H15.3809V19.6362H16.104V18.9131Z" fill="black"/>
<path d="M19.065 17.3871L18.5537 17.8984L19.065 18.4097L19.5764 17.8984L19.065 17.3871Z" fill="black"/>
<path d="M20.8032 14.2134H20.0801V14.9365H20.8032V14.2134Z" fill="black"/>
<path d="M19.065 10.7402L18.5537 11.2515L19.065 11.7628L19.5764 11.2515L19.065 10.7402Z" fill="black"/>
</svg>
