<svg width="19" height="18" viewBox="0 0 19 18" fill="none" xmlns="http://www.w3.org/2000/svg">
<path d="M17.3706 8.45011H16.3612V6.63715C16.3612 6.20156 16.0066 5.84695 15.571 5.84695H15.2042V0.640625H3.63459V1.21911H2.76687V1.79759H1.89915V3.82227H1.53239C1.0968 3.82227 0.742188 4.17688 0.742188 4.61247V17.2485H0.743923C0.742477 17.4114 0.793094 17.5707 0.894906 17.7041C1.03663 17.8892 1.25125 17.995 1.48409 17.995H14.4302C14.7648 17.995 15.0593 17.7694 15.1385 17.4706L18.0966 9.36093V9.30973C18.0966 8.81166 17.7912 8.45011 17.3706 8.45011ZM15.571 6.42543C15.6878 6.42543 15.7827 6.5203 15.7827 6.63715V8.45011H15.2042V6.42543H15.571ZM14.6257 1.21911V5.84695V8.45011H4.4245C4.35711 8.45011 4.29232 8.46139 4.22956 8.47846C4.22435 8.4799 4.21828 8.47932 4.21307 8.48077V1.21911H14.6257ZM3.63459 1.79759V9.1978L3.61637 9.24784L3.34535 9.99061V1.79759H3.63459ZM2.47763 2.37607H2.76687V11.5768L2.47763 12.3696V3.82227V2.37607ZM1.32067 4.61247C1.32067 4.49562 1.41583 4.40075 1.53239 4.40075H1.89915V13.9292L1.32067 15.507V4.61247ZM14.5875 17.2962C14.5687 17.3671 14.5039 17.4166 14.4302 17.4166H1.48409C1.4138 17.4166 1.37273 17.3764 1.35451 17.3523C1.33629 17.3286 1.30823 17.2783 1.31893 17.2343L1.89915 15.6435V15.6438L2.76687 13.2648L3.63459 10.8858V10.8867L4.1934 9.35341L4.21307 9.2999L4.25935 9.17292L4.26687 9.14921C4.28596 9.07834 4.35104 9.02859 4.4245 9.02859H14.6257H15.2042H16.3612H17.3706C17.4802 9.02859 17.5086 9.18652 17.5155 9.26548L14.5875 17.2962Z" fill="black"/>
<path d="M5.94842 5.55797H12.8902C13.0498 5.55797 13.1794 5.42868 13.1794 5.26873C13.1794 5.10878 13.0498 4.97949 12.8902 4.97949H5.94842C5.78876 4.97949 5.65918 5.10878 5.65918 5.26873C5.65918 5.42868 5.78876 5.55797 5.94842 5.55797Z" fill="black"/>
<path d="M5.94842 3.53307H8.84082C9.00048 3.53307 9.13006 3.40378 9.13006 3.24383C9.13006 3.08388 9.00048 2.95459 8.84082 2.95459H5.94842C5.78876 2.95459 5.65918 3.08388 5.65918 3.24383C5.65918 3.40378 5.78876 3.53307 5.94842 3.53307Z" fill="black"/>
<path d="M5.94842 7.58239H12.8902C13.0498 7.58239 13.1794 7.4531 13.1794 7.29315C13.1794 7.1332 13.0498 7.00391 12.8902 7.00391H5.94842C5.78876 7.00391 5.65918 7.1332 5.65918 7.29315C5.65918 7.4531 5.78876 7.58239 5.94842 7.58239Z" fill="black"/>
</svg>
