<svg width="21" height="16" viewBox="0 0 21 16" fill="none" xmlns="http://www.w3.org/2000/svg">
<path d="M18.4364 0H2.56797C1.15146 0 0 1.15146 0 2.56797V13.4134C0 14.8299 1.15146 15.9814 2.56797 15.9814H18.432C19.8485 15.9814 21 14.8299 21 13.4134V2.57231C21.0043 1.1558 19.8529 0 18.4364 0ZM19.8312 13.4134C19.8312 14.1825 19.2055 14.8082 18.4364 14.8082H2.56797C1.79888 14.8082 1.17318 14.1825 1.17318 13.4134V2.57231C1.17318 1.80323 1.79888 1.17753 2.56797 1.17753H18.432C19.2011 1.17753 19.8268 1.80323 19.8268 2.57231V13.4134H19.8312Z" fill="#E75B4D"/>
<path d="M13.2433 7.85015L18.3792 3.24432C18.6182 3.02706 18.6399 2.65772 18.4227 2.4144C18.2054 2.17541 17.8361 2.15369 17.5928 2.37095L10.5102 8.72786L9.12847 7.49385C9.12413 7.4895 9.11978 7.48516 9.11978 7.48081C9.08937 7.4504 9.05895 7.42433 9.02419 7.39826L3.4016 2.3666C3.15827 2.14934 2.78893 2.17107 2.57168 2.4144C2.35442 2.65772 2.37615 3.02706 2.61947 3.24432L7.81624 7.88925L2.6412 12.7341C2.40656 12.9557 2.39353 13.325 2.61513 13.564C2.73245 13.6857 2.88887 13.7508 3.0453 13.7508C3.18869 13.7508 3.33208 13.6987 3.44505 13.5944L8.6983 8.68007L10.1235 9.95319C10.2365 10.0531 10.3755 10.1009 10.5146 10.1009C10.6536 10.1009 10.797 10.0488 10.9056 9.94884L12.3699 8.63662L17.5928 13.5988C17.7057 13.7074 17.8535 13.7595 17.9969 13.7595C18.1533 13.7595 18.3054 13.6987 18.4227 13.577C18.6443 13.3424 18.6356 12.9687 18.401 12.7471L13.2433 7.85015Z" fill="#E75B4D"/>
</svg>
