<svg width="56" height="34" viewBox="0 0 56 34" fill="none" xmlns="http://www.w3.org/2000/svg">
<path fill-rule="evenodd" clip-rule="evenodd" d="M55.6895 0L36.2651 31.9628L35.027 34L33.8282 31.9403L27.9248 21.7976L21.7625 31.9616L20.5487 33.9635L19.3368 31.9605L0.000259399 0H3.2842L20.5513 28.5399L26.734 18.3423L30.8746 11.3734L32.0884 9.33066L33.3097 11.3691L35.0653 14.2992L43.8042 0H47.0969L36.2633 17.7268L35.0413 19.7263L33.8371 17.7164L32.0986 14.8148L29.5797 19.054L35.0796 28.5034L52.4017 0H55.6895ZM32.5935 0L21.7599 17.7268L20.542 19.7198L19.3358 17.7199L8.64896 0H11.9302L20.558 14.3058L29.3009 0H32.5935Z" fill="url(#paint0_linear)"/>
<defs>
<linearGradient id="paint0_linear" x1="49.8885" y1="-5.40909" x2="22.0834" y2="42.5229" gradientUnits="userSpaceOnUse">
<stop stop-color="#6ED5FF"/>
<stop offset="1" stop-color="#0392CC"/>
</linearGradient>
</defs>
</svg>
