<svg width="30" height="39" viewBox="0 0 30 39" fill="none" xmlns="http://www.w3.org/2000/svg">
<path d="M14.4652 0.00992618C6.9946 0.281801 0.788387 6.32702 0.0713953 14.0435C-0.0750868 15.5868 0.00971881 17.0821 0.271845 18.5134C0.271845 18.5134 0.294973 18.6813 0.372069 19.0012C0.603357 20.0727 0.950288 21.1122 1.38202 22.0878C2.88539 25.7821 6.36242 31.9632 14.1645 38.6881C14.6425 39.1039 15.3441 39.1039 15.8298 38.6881C23.6319 31.9712 27.1089 25.7901 28.62 22.0798C29.0594 21.1042 29.3987 20.0727 29.6299 18.9932C29.6993 18.6813 29.7302 18.5054 29.7302 18.5054C29.9075 17.5459 30 16.5623 30 15.5548C30 6.77482 22.992 -0.30193 14.4652 0.00992618ZM14.9972 23.2952C10.9727 23.2952 7.71159 19.9128 7.71159 15.7387C7.71159 11.5646 10.9727 8.18217 14.9972 8.18217C19.0216 8.18217 22.2827 11.5646 22.2827 15.7387C22.2827 19.9128 19.0216 23.2952 14.9972 23.2952Z" fill="#E75B4D"/>
</svg>
