<svg width="16" height="19" viewBox="0 0 16 19" fill="none" xmlns="http://www.w3.org/2000/svg">
<g opacity="0.2">
<path d="M7.80583 9.15235C9.0632 9.15235 10.152 8.70139 11.0416 7.81164C11.9312 6.92203 12.3822 5.83354 12.3822 4.57603C12.3822 3.31896 11.9312 2.23032 11.0414 1.34043C10.1517 0.450964 9.06305 0 7.80583 0C6.54832 0 5.45982 0.450964 4.57021 1.34057C3.6806 2.23018 3.22949 3.31881 3.22949 4.57603C3.22949 5.83354 3.6806 6.92218 4.57036 7.81178C5.46011 8.70124 6.54875 9.15235 7.80583 9.15235Z" fill="black"/>
<path d="M15.8134 14.61C15.7877 14.2398 15.7358 13.836 15.6594 13.4095C15.5823 12.9798 15.483 12.5737 15.3642 12.2024C15.2414 11.8187 15.0744 11.4398 14.868 11.0767C14.6537 10.6998 14.4021 10.3716 14.1197 10.1016C13.8244 9.81903 13.4629 9.59188 13.0448 9.42619C12.6282 9.26138 12.1665 9.17788 11.6726 9.17788C11.4787 9.17788 11.2911 9.25746 10.9289 9.49331C10.7059 9.6387 10.4451 9.80685 10.1541 9.99283C9.90516 10.1514 9.56799 10.3 9.15152 10.4345C8.7452 10.566 8.33265 10.6327 7.92546 10.6327C7.51827 10.6327 7.10587 10.566 6.69911 10.4345C6.28308 10.3001 5.94591 10.1516 5.6973 9.99298C5.40898 9.80874 5.14806 9.64059 4.92178 9.49316C4.55996 9.25732 4.37224 9.17773 4.17828 9.17773C3.68427 9.17773 3.22272 9.26138 2.80625 9.42634C2.38848 9.59173 2.02681 9.81888 1.73124 10.1017C1.44901 10.3719 1.19721 10.6999 0.983253 11.0767C0.776978 11.4398 0.609985 11.8186 0.487061 12.2026C0.36834 12.5738 0.269043 12.9798 0.191925 13.4095C0.115532 13.8354 0.0636368 14.2394 0.0379791 14.6105C0.0127563 14.974 0 15.3513 0 15.7324C0 16.7242 0.315285 17.5272 0.937012 18.1193C1.55106 18.7036 2.36355 19.0001 3.35159 19.0001H12.5002C13.4882 19.0001 14.3004 18.7038 14.9146 18.1193C15.5365 17.5276 15.8518 16.7245 15.8518 15.7323C15.8516 15.3495 15.8387 14.9718 15.8134 14.61Z" fill="black"/>
</g>
</svg>
