<svg width="19" height="19" viewBox="0 0 19 19" fill="none" xmlns="http://www.w3.org/2000/svg">
<path d="M9.36442 9.15235C10.6218 9.15235 11.7106 8.70139 12.6002 7.81164C13.4898 6.92203 13.9408 5.83354 13.9408 4.57603C13.9408 3.31896 13.4898 2.23032 12.6 1.34043C11.7103 0.450964 10.6216 0 9.36442 0C8.10691 0 7.01842 0.450964 6.12881 1.34057C5.2392 2.23018 4.78809 3.31881 4.78809 4.57603C4.78809 5.83354 5.2392 6.92218 6.12895 7.81178C7.01871 8.70124 8.10734 9.15235 9.36442 9.15235Z" fill="#E75B4D"/>
<path d="M17.372 14.6095C17.3463 14.2393 17.2944 13.8355 17.218 13.409C17.1409 12.9793 17.0416 12.5732 16.9227 12.2019C16.8 11.8182 16.633 11.4393 16.4266 11.0762C16.2123 10.6993 15.9607 10.3711 15.6783 10.1011C15.383 9.81854 15.0215 9.59139 14.6034 9.4257C14.1868 9.26089 13.7251 9.17739 13.2312 9.17739C13.0373 9.17739 12.8497 9.25697 12.4874 9.49282C12.2645 9.63821 12.0037 9.80636 11.7126 9.99234C11.4638 10.1509 11.1266 10.2995 10.7101 10.434C10.3038 10.5655 9.89124 10.6322 9.48405 10.6322C9.07687 10.6322 8.66446 10.5655 8.25771 10.434C7.84167 10.2997 7.5045 10.1511 7.2559 9.99249C6.96758 9.80825 6.70665 9.6401 6.48037 9.49267C6.11855 9.25683 5.93083 9.17725 5.73688 9.17725C5.24286 9.17725 4.78131 9.26089 4.36485 9.42585C3.94707 9.59125 3.5854 9.8184 3.28983 10.1012C3.0076 10.3714 2.75581 10.6994 2.54185 11.0762C2.33557 11.4393 2.16858 11.8181 2.04565 12.2021C1.92693 12.5733 1.82764 12.9793 1.75052 13.409C1.67413 13.8349 1.62223 14.2389 1.59657 14.61C1.57135 14.9735 1.55859 15.3509 1.55859 15.732C1.55859 16.7238 1.87388 17.5267 2.49561 18.1188C3.10965 18.7032 3.92214 18.9996 4.91018 18.9996H14.0588C15.0468 18.9996 15.859 18.7033 16.4732 18.1188C17.0951 17.5271 17.4104 16.724 17.4104 15.7318C17.4102 15.349 17.3973 14.9714 17.372 14.6095Z" fill="#E75B4D"/>
</svg>
