<svg width="73" height="75" viewBox="0 0 73 75" fill="none" xmlns="http://www.w3.org/2000/svg">
<path d="M36.5 75C56.6584 75 73 65.6893 73 54.204C73 42.7187 56.6584 33.4081 36.5 33.4081C16.3416 33.4081 0 42.7187 0 54.204C0 65.6893 16.3416 75 36.5 75Z" fill="#D2E4F0" fill-opacity="0.19"/>
<path d="M24.6513 2.7467C27.6274 2.80276 30.5474 3.75567 32.962 5.49334C35.882 7.39917 39.3074 8.40814 42.8451 8.29603C45.3159 8.29603 47.7866 7.8476 50.0889 7.06285L49.4712 5.15702C46.2143 6.3902 42.6766 6.67047 39.3074 5.99783C39.5882 5.88572 39.8689 5.71756 40.0936 5.49334C42.5082 3.75567 45.4282 2.7467 48.4043 2.7467C56.1536 2.7467 62.2743 10.1458 62.2743 19.5629C62.2743 23.4866 60.4213 27.1301 58.7366 30.3252L58.3997 30.9978C55.5359 36.6032 53.402 41.6481 51.6613 45.6839C48.4605 53.1951 46.3266 58.1279 43.4628 58.1279C41.3289 58.1279 40.4866 57.3431 40.4866 49.2153C40.4866 40.8633 39.9251 37.3319 36.4997 37.3319C33.0743 37.3319 32.5689 40.8633 32.5689 49.2153C32.5689 57.3431 31.7266 58.1279 29.5928 58.1279C26.6728 58.1279 24.5951 53.1951 21.3943 45.6839C19.6536 41.6481 17.5197 36.5472 14.6559 30.9978L14.3189 30.3252C12.6905 27.1301 10.7812 23.4866 10.7812 19.5629C10.7812 10.1458 16.902 2.7467 24.6513 2.7467Z" fill="white"/>
<path d="M44.2491 18.8901C47.3375 18.8901 49.8083 21.3565 49.8083 24.4394C49.8083 25.056 50.3137 25.5605 50.9314 25.5605C51.5491 25.5605 52.0544 25.056 52.0544 24.4394C52.0544 21.3565 54.5252 18.8901 57.6137 18.8901C58.2314 18.8901 58.7367 18.3856 58.7367 17.769C58.7367 17.1524 58.2314 16.6479 57.6137 16.6479C54.5252 16.6479 52.0544 14.1816 52.0544 11.0986C52.0544 10.482 51.5491 9.97754 50.9314 9.97754C50.3137 9.97754 49.8083 10.482 49.8083 11.0986C49.8083 14.1816 47.3375 16.6479 44.2491 16.6479C43.6314 16.6479 43.126 17.1524 43.126 17.769C43.126 18.3856 43.6314 18.8901 44.2491 18.8901ZM50.9314 15.0784C51.6052 16.1995 52.5037 17.0964 53.6267 17.769C52.5037 18.4417 51.6052 19.3385 50.9314 20.4596C50.2575 19.3385 49.3591 18.4417 48.236 17.769C49.3591 17.0964 50.2575 16.1995 50.9314 15.0784Z" fill="#E0E0E0"/>
<path d="M19.5973 8.91256C21.5066 7.34305 23.9212 6.5583 26.3358 6.6704L26.5604 4.48431C23.5281 4.31615 20.552 5.32511 18.1935 7.23094C15.2173 9.69731 13.5327 13.6211 13.1396 18.8341L15.3858 19.0022C15.7227 14.3498 17.1266 10.9865 19.5973 8.91256Z" fill="#E0E0E0"/>
<path d="M15.3858 21.0763H13.1396V23.3184H15.3858V21.0763Z" fill="#E0E0E0"/>
<path d="M30.9408 27.7467C30.9408 27.1301 30.4354 26.6256 29.8177 26.6256C27.3469 26.6256 25.3816 24.6637 25.3816 22.1974C25.3816 21.5808 24.8762 21.0763 24.2585 21.0763C23.6408 21.0763 23.1354 21.5808 23.1354 22.1974C23.1354 24.6637 21.17 26.6256 18.6992 26.6256C18.0816 26.6256 17.5762 27.1301 17.5762 27.7467C17.5762 28.3633 18.0816 28.8678 18.6992 28.8678C21.17 28.8678 23.1354 30.8297 23.1354 33.296C23.1354 33.9126 23.6408 34.4171 24.2585 34.4171C24.8762 34.4171 25.3816 33.9126 25.3816 33.296C25.3816 30.8297 27.3469 28.8678 29.8177 28.8678C30.4354 28.8678 30.9408 28.3633 30.9408 27.7467ZM24.2585 29.5965C23.7531 28.8678 23.1354 28.1951 22.4054 27.7467C23.1354 27.2422 23.8093 26.6256 24.2585 25.8969C24.7639 26.6256 25.3816 27.2983 26.1116 27.7467C25.3816 28.2512 24.7639 28.8678 24.2585 29.5965Z" fill="#E0E0E0"/>
<path d="M64.2956 37.7242C63.6779 37.7242 63.1725 38.2287 63.1725 38.8453C63.1725 40.6951 61.6563 42.1525 59.8594 42.1525C59.2417 42.1525 58.7363 42.657 58.7363 43.2736C58.7363 43.8902 59.2417 44.3946 59.8594 44.3946C61.7125 44.3946 63.1725 45.9081 63.1725 47.7018C63.1725 48.3184 63.6779 48.8229 64.2956 48.8229C64.9132 48.8229 65.4186 48.3184 65.4186 47.7018C65.4186 45.852 66.9348 44.3946 68.7317 44.3946C69.3494 44.3946 69.8548 43.8902 69.8548 43.2736C69.8548 42.657 69.3494 42.1525 68.7317 42.1525C66.8786 42.1525 65.4186 40.639 65.4186 38.8453C65.3625 38.2287 64.8571 37.7242 64.2956 37.7242ZM64.2956 44.3946C63.9586 43.9462 63.5656 43.5538 63.1725 43.2736C63.6217 42.9372 64.0148 42.5449 64.2956 42.1525C64.6325 42.6009 65.0256 42.9933 65.4186 43.2736C64.9694 43.6099 64.5763 44.0023 64.2956 44.3946Z" fill="#E0E0E0"/>
<path d="M7.58014 27.7467H5.33398V29.9889H7.58014V27.7467Z" fill="#E0E0E0"/>
<path d="M67.6085 26.6256H65.3623V28.8678H67.6085V26.6256Z" fill="#E0E0E0"/>
<path d="M45.3721 23.3184H43.126V25.5605H45.3721V23.3184Z" fill="#E0E0E0"/>
<path d="M10.9493 47.7018H8.70312V49.9439H10.9493V47.7018Z" fill="#E0E0E0"/>
<path d="M50.9307 37.7242H48.6846V39.9664H50.9307V37.7242Z" fill="#E0E0E0"/>
<path d="M61.825 9.08074C58.905 3.64352 53.6265 2.35401e-05 47.6181 2.35401e-05C44.1365 0.168185 40.7673 1.40137 38.0719 3.53141C37.0612 4.31617 36.3873 4.42827 35.545 3.92379C35.4889 3.86774 35.3766 3.81168 35.3204 3.75563C35.2081 3.69958 35.0958 3.64352 34.9835 3.53141C32.2319 1.34532 28.9189 0.112131 25.4373 -0.0560303C16.1719 2.35401e-05 8.70347 8.46415 8.70347 18.8902C8.81578 22.7579 9.71424 26.5135 11.3989 29.9888C8.19809 32.7354 2.07732 38.6772 3.9304 42.1525C4.49194 43.2175 5.72732 44.1704 9.09655 44.1704C11.9604 44.0583 14.8242 43.6659 17.5758 42.9933C17.8004 43.4978 18.0812 44.0583 18.3058 44.5628C19.6535 47.5897 22.0681 52.4664 22.0681 52.4664C22.7419 54.5404 26.6727 60.2579 29.5927 60.0337C33.5235 59.7534 34.085 57.7354 34.2535 52.1861C34.2535 52.1861 34.2535 49.8879 34.2535 48.7668C34.2535 39.9664 35.3765 38.7893 36.4996 38.7893C37.6227 38.7893 38.7458 39.9664 38.7458 48.7668C38.7458 49.944 38.7458 50.9529 38.7458 51.8498C38.7458 56.278 39.5881 60.5381 43.5189 60.0337C46.4389 59.6973 48.4042 57.5112 50.5381 53.139C51.7735 50.8408 53.065 47.9821 54.6373 44.5628C56.3781 40.7511 58.3435 36.3789 60.8704 31.5023C61.8812 29.5404 62.7235 27.4103 63.3412 25.2803C67.8335 22.2534 69.9673 19.3946 69.7989 16.5359C69.4619 12.1637 63.7342 9.75339 61.825 9.08074ZM5.89578 41.0875C5.16578 39.6861 8.47886 35.5381 12.4096 32.0628C14.0381 35.2579 15.4419 38.2287 16.6773 40.9193C7.52425 42.8812 6.1204 41.4798 5.89578 41.0875ZM61.3758 23.935C58.2873 25.8408 54.9742 27.5224 51.605 28.9238L52.5035 30.9417C55.1989 29.8207 57.8381 28.5314 60.365 27.1301C59.9158 28.3072 59.4104 29.4283 58.8489 30.5494C56.3219 35.4821 54.3565 39.8543 52.6158 43.722C50.7627 47.7579 48.6289 52.6906 48.2358 53.3633C46.6635 56.3341 45.2596 58.1278 43.5189 58.0718C40.9358 58.0157 40.9919 53.8677 41.0481 53.8677C40.9919 52.5785 40.9919 50.8969 40.9919 48.7668C40.9919 41.0314 40.2619 36.5471 36.5558 36.5471C32.8496 36.5471 32.1196 41.0314 32.1196 48.7668C32.1196 50.7287 32.2881 52.5224 32.2319 54.0919C32.1758 57.1749 31.3335 58.0718 29.705 58.0718C27.8519 58.0718 25.4373 54.092 24.7635 52.6346C23.4719 50.2803 22.0681 47.1973 20.4396 43.6099C20.2712 43.2175 20.1027 42.8251 19.8781 42.4328C22.5173 41.8162 25.5496 40.9193 29.0873 39.8543L28.4135 37.7242C24.6512 38.9014 21.5066 39.7422 18.9235 40.4148C17.5196 37.3879 16.0035 34.1368 14.1504 30.5494C12.185 26.9619 11.0619 22.926 10.9496 18.8341C10.8935 9.69733 17.4073 2.24218 25.3812 2.24218C28.3573 2.41034 31.2212 3.47536 33.5796 5.32514C33.8042 5.4933 34.0289 5.66146 34.2535 5.77357C34.3096 5.77357 34.3658 5.82962 34.3658 5.82962C36.8927 7.23097 39.7565 7.95966 42.6204 7.90361C45.2035 7.90361 47.7304 7.45518 50.145 6.61437L49.4712 4.48433C46.2142 5.66146 42.7327 5.94173 39.3073 5.32514C39.3073 5.32514 39.3635 5.32514 39.3635 5.26908C41.7219 3.41931 44.5858 2.29823 47.5619 2.18612C55.5358 2.18612 61.9935 9.64128 61.9935 18.8341C62.0496 20.5718 61.825 22.3094 61.3758 23.935ZM64.015 22.0292C64.1835 20.9641 64.2396 19.8991 64.2396 18.8341C64.2396 16.5359 63.8465 14.2377 63.1165 12.0516C65.1381 13.0606 67.3842 14.6861 67.4965 16.7041C67.5527 17.8251 66.9912 19.6189 64.015 22.0292Z" fill="#E0E0E0"/>
<path d="M64.2959 44.3946C63.959 43.9462 63.5659 43.5538 63.1729 43.2735C63.6221 42.9372 64.0152 42.5448 64.2959 42.1525C64.6329 42.6009 65.0259 42.9933 65.419 43.2735C64.9698 43.6099 64.5767 44.0022 64.2959 44.3946Z" fill="white"/>
</svg>
