<svg width="90" height="59" viewBox="0 0 90 59" fill="none" xmlns="http://www.w3.org/2000/svg">
<path d="M44.978 59C69.8186 59 89.9559 49.819 89.9559 38.4937C89.9559 27.1683 69.8186 17.9873 44.978 17.9873C20.1373 17.9873 0 27.1683 0 38.4937C0 49.819 20.1373 59 44.978 59Z" fill="#D2E4F0" fill-opacity="0.19"/>
<path d="M16.5203 1.59106C18.8991 1.63526 21.2339 2.38657 23.1722 3.8008C25.507 5.34762 28.2383 6.14312 31.0577 6.05473C33.0401 6.05473 34.9784 5.70118 36.8727 5.08245L36.3881 3.57983C33.789 4.50792 30.9696 4.72889 28.2383 4.19855C28.4586 4.06597 28.6789 3.93339 28.8991 3.8008C30.8374 2.38657 33.1722 1.59106 35.5511 1.59106C41.7626 1.59106 46.6084 7.51316 46.6084 15.0705C46.6084 18.2083 45.1106 21.1251 43.789 23.7326L43.5247 24.263C41.2339 28.7266 39.4718 32.7926 38.1062 36.063C35.5511 42.0735 33.8771 46.051 31.5423 46.051C29.8242 46.051 29.1634 45.4323 29.1634 38.8914C29.1634 32.1738 28.7229 29.3454 25.9916 29.3454C23.2604 29.3454 22.8198 32.1738 22.8198 38.8914C22.8198 45.4323 22.159 46.051 20.441 46.051C18.1062 46.051 16.4322 42.0735 13.8771 36.063C12.5115 32.7926 10.7493 28.7266 8.50264 24.263L8.23833 23.7326C6.91674 21.1693 5.41895 18.2525 5.41895 15.0705C5.41895 7.51316 10.3088 1.59106 16.5203 1.59106Z" fill="white"/>
<path d="M7.09292 24.97C9.33962 29.4337 11.0577 33.4554 12.4233 36.6816C15.3308 43.4876 17.0929 47.6419 20.4409 47.6419C24.0092 47.6419 24.4057 44.8577 24.4057 38.8914C24.4057 31.5551 25.1105 30.9363 25.9916 30.9363C26.8727 30.9363 27.5775 31.5551 27.5775 38.8914C27.5775 44.8135 27.974 47.6419 31.5423 47.6419C34.8903 47.6419 36.6524 43.5318 39.5599 36.6816C40.9255 33.4554 42.6436 29.3895 44.8903 24.97L45.1546 24.4397C46.5643 21.6996 48.1502 18.606 48.1502 15.0704C48.1502 6.62921 42.5995 0 35.507 0C32.7757 0.0441948 30.1326 0.92809 27.8859 2.5633C26.7405 3.31461 25.2427 3.31461 24.0973 2.5633C21.8947 0.92809 19.2515 0.0441948 16.4762 0C9.42772 0 3.83301 6.62921 3.83301 15.0704C3.83301 18.606 5.41891 21.6996 6.8286 24.4397L7.09292 24.97ZM16.5202 1.59101C18.8991 1.63521 21.2339 2.38652 23.1722 3.80075C25.507 5.34757 28.2383 6.14307 31.0577 6.05468C33.0401 6.05468 34.9784 5.70112 36.8727 5.0824L36.3881 3.57978C33.789 4.50787 30.9696 4.72884 28.2383 4.1985C28.4586 4.06592 28.6788 3.93333 28.8991 3.80075C30.8374 2.38652 33.1722 1.59101 35.5511 1.59101C41.7625 1.59101 46.6083 7.51311 46.6083 15.0704C46.6083 18.2082 45.1105 21.1251 43.789 23.7326L43.5246 24.2629C41.2339 28.7266 39.4718 32.7925 38.1061 36.0629C35.5511 42.0734 33.8771 46.0509 31.5423 46.0509C29.8242 46.0509 29.1634 45.4322 29.1634 38.8914C29.1634 32.1738 28.7229 29.3453 25.9916 29.3453C23.2603 29.3453 22.8198 32.1738 22.8198 38.8914C22.8198 45.4322 22.159 46.0509 20.4409 46.0509C18.1061 46.0509 16.4321 42.0734 13.8771 36.0629C12.5114 32.7925 10.7493 28.7266 8.50261 24.2629L8.23829 23.7326C6.91671 21.1693 5.41891 18.2524 5.41891 15.0704C5.41891 7.51311 10.3088 1.59101 16.5202 1.59101Z" fill="#E0E0E0"/>
<path d="M54.1413 1.59106C56.5201 1.63526 58.8549 2.38657 60.7932 3.8008C63.128 5.34762 65.8593 6.14312 68.6787 6.05473C70.6611 6.05473 72.5994 5.70118 74.4937 5.08245L74.0091 3.57983C71.41 4.50792 68.5906 4.72889 65.8593 4.19855C66.0796 4.06597 66.2998 3.93339 66.5201 3.8008C68.4584 2.38657 70.7932 1.59106 73.1721 1.59106C79.3835 1.59106 84.2294 7.51316 84.2294 15.0705C84.2294 18.2083 82.7316 21.1251 81.41 23.7326L81.1457 24.263C78.8549 28.7708 77.1368 32.7926 75.7712 36.063C73.2161 42.0735 71.5421 46.051 69.2073 46.051C67.4893 46.051 66.8285 45.4323 66.8285 38.8914C66.8285 32.1738 66.3879 29.3454 63.6567 29.3454C60.9254 29.3454 60.4849 32.1738 60.4849 38.8914C60.4849 45.4323 59.8241 46.051 58.106 46.051C55.7712 46.051 54.0972 42.0735 51.5421 36.063C50.1765 32.7926 48.4144 28.7266 46.1677 24.263L45.9034 23.7326C44.5818 21.1693 43.084 18.2525 43.084 15.0705C43.084 7.51316 47.9298 1.59106 54.1413 1.59106Z" fill="white"/>
<path d="M44.7581 24.97C47.0048 29.4337 48.7228 33.4554 50.0885 36.6816C52.996 43.4876 54.7581 47.6419 58.1061 47.6419C61.6744 47.6419 62.0708 44.8577 62.0708 38.8914C62.0708 31.5551 62.7757 30.9363 63.6567 30.9363C64.5378 30.9363 65.2427 31.5551 65.2427 38.8914C65.2427 44.8135 65.6391 47.6419 69.2074 47.6419C72.5554 47.6419 74.3175 43.5318 77.225 36.6816C78.5907 33.4554 80.3087 29.3895 82.5554 24.97L82.8197 24.4397C84.2294 21.6996 85.8153 18.606 85.8153 15.0704C85.8153 6.62921 80.2206 0 73.1281 0C70.3968 0.0441948 67.7537 0.92809 65.507 2.5633C64.3616 3.31461 62.8638 3.31461 61.7184 2.5633C59.5158 0.92809 56.8726 0.0441948 54.0973 0C47.0048 0 41.4541 6.62921 41.4541 15.0704C41.4541 18.606 43.04 21.6996 44.4497 24.4397L44.7581 24.97ZM54.1413 1.59101C56.5202 1.63521 58.855 2.38652 60.7933 3.80075C63.1281 5.34757 65.8594 6.14307 68.6788 6.05468C70.6611 6.05468 72.5995 5.70112 74.4938 5.0824L74.0092 3.57978C71.41 4.50787 68.5907 4.72884 65.8594 4.1985C66.0797 4.06592 66.2999 3.93333 66.5202 3.80075C68.4585 2.38652 70.7933 1.59101 73.1722 1.59101C79.3836 1.59101 84.2294 7.51311 84.2294 15.0704C84.2294 18.2082 82.7316 21.1251 81.41 23.7326L81.1457 24.2629C78.855 28.7708 77.1369 32.7925 75.7713 36.0629C73.2162 42.0734 71.5422 46.0509 69.2074 46.0509C67.4893 46.0509 66.8286 45.4322 66.8286 38.8914C66.8286 32.1738 66.388 29.3453 63.6567 29.3453C60.9255 29.3453 60.4849 32.1738 60.4849 38.8914C60.4849 45.4322 59.8241 46.0509 58.1061 46.0509C55.7713 46.0509 54.0973 42.0734 51.5422 36.0629C50.1766 32.7925 48.4145 28.7266 46.1678 24.2629L45.9034 23.7326C44.5819 21.1693 43.0841 18.2524 43.0841 15.0704C43.0841 7.51311 47.9299 1.59101 54.1413 1.59101Z" fill="#E0E0E0"/>
<path d="M84.4935 15.0704H5.1543V16.7056H84.4935V15.0704Z" fill="#E0E0E0"/>
<path d="M83.304 20.8158H6.3877V22.451H83.304V20.8158Z" fill="#E0E0E0"/>
<path d="M35.5064 26.0307H31.2333C30.5725 26.0307 30.0879 25.5004 30.0879 24.8816V13.4794C30.0879 12.8165 30.6165 12.3303 31.2333 12.3303H35.5064C36.1672 12.3303 36.6518 12.8607 36.6518 13.4794V24.8816C36.6518 25.5446 36.1672 26.0307 35.5064 26.0307Z" fill="white"/>
<path d="M34.4933 26.8704H32.2466C30.6166 26.8704 29.251 25.5445 29.251 23.8651V14.4958C29.251 12.8606 30.5726 11.4906 32.2466 11.4906H34.4933C36.1232 11.4906 37.4889 12.8164 37.4889 14.4958V23.8651C37.4889 25.5445 36.1673 26.8704 34.4933 26.8704ZM32.2466 13.1258C31.4977 13.1258 30.8809 13.7445 30.8809 14.4958V23.8651C30.8809 24.6164 31.4977 25.2352 32.2466 25.2352H34.4933C35.2422 25.2352 35.8589 24.6164 35.8589 23.8651V14.4958C35.8589 13.7445 35.2422 13.1258 34.4933 13.1258H32.2466V13.1258Z" fill="#E0E0E0"/>
<path d="M36.4761 19.9759C34.4056 19.4898 32.2911 19.4898 30.2206 19.9759L29.8682 18.3849C32.1589 17.8546 34.5378 17.8546 36.8285 18.3849L36.4761 19.9759Z" fill="#E0E0E0"/>
<path d="M20.7925 26.0307H16.5194C15.8586 26.0307 15.374 25.5004 15.374 24.8816V13.4794C15.374 12.8165 15.9027 12.3303 16.5194 12.3303H20.7925C21.4533 12.3303 21.9379 12.8607 21.9379 13.4794V24.8816C21.9379 25.5446 21.4093 26.0307 20.7925 26.0307Z" fill="white"/>
<path d="M19.7794 26.8704H17.5327C15.9027 26.8704 14.5371 25.5445 14.5371 23.8651V14.4958C14.5371 12.8606 15.8587 11.4906 17.5327 11.4906H19.7794C21.4094 11.4906 22.775 12.8164 22.775 14.4958V23.8651C22.775 25.5445 21.4094 26.8704 19.7794 26.8704ZM17.4887 13.1258C16.7398 13.1258 16.123 13.7445 16.123 14.4958V23.8651C16.123 24.6164 16.7398 25.2352 17.4887 25.2352H19.7353C20.4842 25.2352 21.101 24.6164 21.101 23.8651V14.4958C21.101 13.7445 20.4842 13.1258 19.7353 13.1258H17.4887V13.1258Z" fill="#E0E0E0"/>
<path d="M21.7622 19.9759C19.6917 19.4898 17.5772 19.4898 15.5067 19.9759L15.1543 18.3849C17.445 17.8546 19.8239 17.8546 22.1146 18.3849L21.7622 19.9759Z" fill="#E0E0E0"/>
<path d="M73.1275 26.0307H68.8544C68.1936 26.0307 67.709 25.5004 67.709 24.8816V13.4794C67.709 12.8165 68.2376 12.3303 68.8544 12.3303H73.1275C73.7883 12.3303 74.2729 12.8607 74.2729 13.4794V24.8816C74.3169 25.5446 73.7883 26.0307 73.1275 26.0307Z" fill="white"/>
<path d="M72.1583 26.8704H69.9116C68.2817 26.8704 66.916 25.5445 66.916 23.8651V14.4958C66.916 12.8606 68.2376 11.4906 69.9116 11.4906H72.1583C73.7883 11.4906 75.1539 12.8164 75.1539 14.4958V23.8651C75.1099 25.5445 73.7883 26.8704 72.1583 26.8704ZM69.8676 13.1258C69.1187 13.1258 68.5019 13.7445 68.5019 14.4958V23.8651C68.5019 24.6164 69.1187 25.2352 69.8676 25.2352H72.1143C72.8632 25.2352 73.4799 24.6164 73.4799 23.8651V14.4958C73.4799 13.7445 72.8632 13.1258 72.1143 13.1258H69.8676V13.1258Z" fill="#E0E0E0"/>
<path d="M74.1411 19.9759C72.0706 19.4898 69.9561 19.4898 67.8856 19.9759L67.5332 18.3849C69.824 17.8546 72.2028 17.8546 74.4936 18.3849L74.1411 19.9759Z" fill="#E0E0E0"/>
<path d="M58.4136 26.0307H54.1405C53.4797 26.0307 52.9951 25.5004 52.9951 24.8816V13.4794C52.9951 12.8165 53.5238 12.3303 54.1405 12.3303H58.4136C59.0744 12.3303 59.559 12.8607 59.559 13.4794V24.8816C59.559 25.5446 59.0744 26.0307 58.4136 26.0307Z" fill="white"/>
<path d="M57.4005 26.8704H55.1538C53.5238 26.8704 52.1582 25.5445 52.1582 23.8651V14.4958C52.1582 12.8606 53.4798 11.4906 55.1538 11.4906H57.4005C59.0304 11.4906 60.3961 12.8164 60.3961 14.4958V23.8651C60.3961 25.5445 59.0745 26.8704 57.4005 26.8704ZM55.1538 13.1258C54.4049 13.1258 53.7882 13.7445 53.7882 14.4958V23.8651C53.7882 24.6164 54.4049 25.2352 55.1538 25.2352H57.4005C58.1494 25.2352 58.7661 24.6164 58.7661 23.8651V14.4958C58.7661 13.7445 58.1494 13.1258 57.4005 13.1258H55.1538V13.1258Z" fill="#E0E0E0"/>
<path d="M59.3833 19.9759C57.3128 19.4898 55.1983 19.4898 53.1278 19.9759L52.7754 18.3849C55.0661 17.8546 57.445 17.8546 59.7357 18.3849L59.3833 19.9759Z" fill="#E0E0E0"/>
<path d="M9.2071 11.6232C11.1895 4.86141 17.0045 4.72882 17.3128 4.72882V3.18201C14.4934 3.18201 9.33926 5.03819 7.57715 11.6674H9.2071V11.6232Z" fill="#E0E0E0"/>
<path d="M46.8282 11.6232C48.8106 4.86141 54.6255 4.72882 54.9339 4.72882V3.18201C52.1145 3.18201 46.9604 5.03819 45.1982 11.6674H46.8282V11.6232Z" fill="#E0E0E0"/>
</svg>
