<svg width="79" height="75" viewBox="0 0 79 75" fill="none" xmlns="http://www.w3.org/2000/svg">
<path d="M36.7048 74.9999C56.9763 74.9999 73.4096 65.7239 73.4096 54.2814C73.4096 42.8389 56.9763 33.5629 36.7048 33.5629C16.4333 33.5629 0 42.8389 0 54.2814C0 65.7239 16.4333 74.9999 36.7048 74.9999Z" fill="#F7FAFD"/>
<path d="M24.5077 2.01038C27.557 2.06622 30.5499 3.01559 33.0345 4.80263C36.0273 6.75721 39.5284 7.76242 43.1424 7.65073C45.6835 7.65073 48.1682 7.20397 50.5963 6.42214L49.9752 4.52341C46.6435 5.69615 43.0295 5.97538 39.5284 5.30524C39.8108 5.1377 40.0931 4.97017 40.3754 4.80263C42.8601 3.01559 45.8529 2.01038 48.9023 2.01038C56.8644 2.01038 63.0759 9.49362 63.0759 19.0431C63.0759 23.0081 61.156 26.6939 59.4619 29.9888L59.1231 30.6589C56.1867 36.2993 53.9844 41.437 52.2339 45.5696C48.9587 53.1645 46.8129 58.1906 43.82 58.1906C41.6178 58.1906 40.7707 57.4087 40.7707 49.1437C40.7707 40.6552 40.206 37.0811 36.705 37.0811C33.2039 37.0811 32.6392 40.6552 32.6392 49.1437C32.6392 57.4087 31.7922 58.1906 29.5899 58.1906C26.597 58.1906 24.4512 53.1645 21.176 45.5696C19.4255 41.437 17.1667 36.2993 14.2868 30.6589L13.948 29.9888C12.2539 26.7498 10.334 23.064 10.334 19.0431C10.334 9.49362 16.5456 2.01038 24.5077 2.01038Z" fill="white"/>
<path d="M12.4795 31.5525C15.3594 37.1929 17.5617 42.2748 19.3122 46.3515C23.0392 54.9516 25.2979 60.201 29.5896 60.201C34.1635 60.201 34.6718 56.6828 34.6718 49.1437C34.6718 39.8734 35.5753 39.0916 36.7046 39.0916C37.834 39.0916 38.7375 39.8734 38.7375 49.1437C38.7375 56.627 39.2457 60.201 43.8197 60.201C48.1114 60.201 50.3701 55.0074 54.0971 46.3515C55.8476 42.2748 58.0499 37.137 60.9298 31.5525L61.2686 30.8824C63.0756 27.42 65.1085 23.5108 65.1085 19.0432C65.1085 8.37677 57.9934 0 48.9019 0C45.4009 0.0558451 42.0127 1.17275 39.1328 3.23902C37.6646 4.18838 35.7447 4.18838 34.2765 3.23902C31.453 1.17275 28.0649 0.0558451 24.5074 0C15.4159 0 8.30078 8.37677 8.30078 19.0432C8.30078 23.5108 10.3337 27.42 12.1407 30.8824L12.4795 31.5525ZM24.5074 2.01042C27.5567 2.06627 30.5495 3.01564 33.0342 4.80268C36.027 6.75726 39.5281 7.76247 43.1421 7.65078C45.6832 7.65078 48.1678 7.20402 50.596 6.42219L49.9748 4.52346C46.6432 5.6962 43.0292 5.97543 39.5281 5.30529C39.8104 5.13775 40.0928 4.97022 40.3751 4.80268C42.8598 3.01564 45.8526 2.01042 48.9019 2.01042C56.864 2.01042 63.0756 9.49367 63.0756 19.0432C63.0756 23.0082 61.1557 26.694 59.4616 29.9888L59.1228 30.659C56.1864 36.2993 53.9841 41.4371 52.2336 45.5696C48.9584 53.1646 46.8126 58.1906 43.8197 58.1906C41.6174 58.1906 40.7704 57.4088 40.7704 49.1437C40.7704 40.6552 40.2057 37.0812 36.7046 37.0812C33.2036 37.0812 32.6389 40.6552 32.6389 49.1437C32.6389 57.4088 31.7918 58.1906 29.5896 58.1906C26.5967 58.1906 24.4509 53.1646 21.1757 45.5696C19.4252 41.4371 17.1664 36.2993 14.2865 30.659L13.9477 29.9888C12.2536 26.7498 10.3337 23.064 10.3337 19.0432C10.3337 9.49367 16.5452 2.01042 24.5074 2.01042Z" fill="#E0E0E0"/>
<path d="M45.5137 59.3075H42.1821L42.2386 58.1906C43.3115 43.2241 42.6338 35.0707 40.0363 32.446C39.2457 31.6641 38.2293 31.3291 36.7611 31.3849H36.7046H36.6481C35.1799 31.3291 34.1635 31.6083 33.3729 32.446C30.8318 35.0148 30.0977 43.2241 31.1706 58.1906L31.2271 59.3075H27.8954L27.6696 58.5815C26.9919 56.236 26.1449 53.4996 25.1849 50.5956C21.3451 38.198 16.5452 22.8965 18.3522 15.8041C18.9734 13.4028 21.3451 11.7833 23.8862 12.0625C30.0413 12.7326 33.3165 13.0677 36.6481 13.0677C36.7046 13.0677 36.7046 13.0677 36.7611 13.0677C40.0927 13.0677 43.3679 12.7326 49.523 12.0625C52.0641 11.7833 54.4358 13.4028 55.057 15.8041C56.864 22.8965 52.0641 38.2539 48.2243 50.5398C47.3208 53.4437 46.4737 56.1802 45.7396 58.5256L45.5137 59.3075ZM37.1564 29.3186C38.9634 29.3186 40.4315 29.8771 41.5609 30.994C44.4973 33.9538 45.4008 41.0461 44.5538 55.2308C45.062 53.5554 45.6267 51.7684 46.1914 49.9255C49.8054 38.4773 54.7182 22.8406 53.0241 16.3067C52.6288 14.9106 51.2736 13.9054 49.7489 14.0729C43.4809 14.7431 40.0927 15.0781 36.7046 15.0781C33.2035 15.0781 29.9283 14.7431 23.6603 14.0729C22.1921 13.9054 20.7804 14.8548 20.3851 16.3067C18.691 22.8406 23.6038 38.4773 27.2178 49.9255C27.7825 51.7684 28.3472 53.5554 28.8554 55.2308C28.0084 41.0461 28.9119 33.9538 31.8483 30.994C33.0341 29.7654 34.6152 29.207 36.6481 29.3186C36.874 29.3186 36.9869 29.3186 37.1564 29.3186Z" fill="#E0E0E0"/>
<path d="M12.6489 12.5651C11.9713 12.5651 11.3502 12.5093 10.729 12.4534L10.9549 10.3872C12.6489 10.5547 14.7383 10.6105 15.9806 9.49364C16.2065 9.27025 16.4324 9.04687 16.6582 8.76765C17.2229 8.15335 17.8441 7.37152 18.8041 7.0923C19.3687 6.92476 19.9334 6.92476 20.4417 6.86892C20.724 6.86892 21.0063 6.86891 21.2322 6.81307C22.1922 6.64553 22.8133 5.64032 23.0392 4.7468C23.3216 3.57405 23.0957 2.34546 22.9263 1.06102L25.0156 0.725952C25.2415 2.06624 25.4674 3.6299 25.1286 5.19356C24.6768 7.0923 23.3216 8.48842 21.684 8.82349C20.8369 8.99103 20.0464 8.82349 19.5382 8.99103C19.0864 9.15857 18.7476 9.54948 18.2958 10.0521C18.0135 10.3872 17.7311 10.7222 17.3923 11.0015C16.0936 12.23 14.343 12.5651 12.6489 12.5651Z" fill="#E0E0E0"/>
<path d="M21.458 3.96497H19.1992V6.19877H21.458V3.96497Z" fill="#E0E0E0"/>
<path d="M17.2231 6.81311H14.9644V9.04692H17.2231V6.81311Z" fill="#E0E0E0"/>
<path d="M73.7486 32.0551C73.5227 32.1668 73.4098 32.1668 73.2969 31.8876C73.1275 31.4967 72.8451 31.1058 72.6757 30.7149C73.6357 30.2123 73.9745 29.7655 73.918 29.0395C73.8051 28.4252 73.3533 27.8668 72.7322 27.7551C71.9981 27.5875 71.4899 27.9226 70.9816 28.7603C70.5864 28.4811 70.1911 28.146 69.7958 27.8668C69.5699 27.6992 69.7393 27.5875 69.7958 27.4758C70.8687 25.8005 73.2969 25.5771 74.7086 27.0291C76.1203 28.5927 75.6686 31.1616 73.7486 32.0551Z" fill="white"/>
<path d="M55.2269 27.9784C54.888 28.2018 54.6057 28.4251 54.3234 28.6485C54.1539 28.8161 54.0975 28.8161 53.9845 28.5927C53.4763 27.6992 52.3469 27.5316 51.6129 28.2018C50.8223 28.9836 51.1046 30.268 52.1211 30.659C52.4034 30.7706 52.4034 30.8265 52.234 31.0499C52.0081 31.3849 51.8387 31.6642 51.6693 31.9992C51.5564 32.2226 51.4999 32.2226 51.274 32.1109C50.0317 31.6083 49.2976 30.268 49.467 28.9278C49.58 27.6433 50.6529 26.5264 51.8952 26.2472C52.1211 26.1913 52.3469 26.1355 52.5728 26.1913C53.7022 26.2472 54.5492 26.694 55.2269 27.5875C55.4527 27.6992 55.4527 27.8109 55.2269 27.9784Z" fill="white"/>
<path d="M54.3232 44.2294C53.5891 45.2346 52.9679 46.2398 52.4597 47.3009C51.7821 48.7528 51.3868 50.3165 51.2174 51.8802C51.2174 52.1594 51.1045 52.2152 50.8221 52.2711C49.7492 52.4386 48.7892 52.9412 47.8857 53.723C47.8857 52.0477 48.2246 50.5957 48.9022 49.1996C50.0316 47.0216 52.1774 44.9554 54.3232 44.2294Z" fill="white"/>
<path d="M56.1868 57.9673C56.1868 60.3128 54.2668 62.2115 51.9516 62.2115C49.5799 62.2115 47.66 60.3128 47.6035 57.9673C47.6035 55.6218 49.5235 53.723 51.8952 53.723C54.2668 53.723 56.1868 55.6218 56.1868 57.9673Z" fill="white"/>
<path d="M77.4192 57.9673C77.4192 60.3128 75.4993 62.2115 73.1276 62.2115C70.7559 62.2115 68.8359 60.3128 68.8359 57.9673C68.8359 55.6218 70.7559 53.723 73.1276 53.723C75.4993 53.723 77.4192 55.6218 77.4192 57.9673Z" fill="white"/>
<path d="M77.1931 53.7789C77.1367 53.8347 77.0802 53.7789 77.0237 53.723C76.1767 52.9412 75.2167 52.4944 74.0874 52.3269C73.8615 52.2711 73.805 52.2152 73.805 51.9918C73.5227 49.1437 72.5062 46.5749 70.7557 44.3411C70.7557 44.2852 70.6992 44.2852 70.6992 44.2294C74.5391 45.5697 77.3626 49.7022 77.1931 53.7789Z" fill="white"/>
<path d="M59.9701 49.1995C59.7442 49.3112 59.4619 49.4229 59.236 49.5346C58.7278 49.7022 58.3325 49.4229 58.3325 48.9203C58.3325 48.4736 58.3325 48.0826 58.3325 47.6359C58.3325 47.1891 58.3325 46.7982 58.3325 46.3514C58.3325 45.793 58.7843 45.5696 59.2925 45.7372C59.4054 45.793 59.4619 45.793 59.5748 45.8488C60.196 46.1281 60.196 46.1281 60.0266 46.7982C59.8007 47.4684 59.8572 48.0826 60.1395 48.6969C60.2525 48.9762 60.196 49.0879 59.9701 49.1995Z" fill="white"/>
<path d="M63.6408 47.6359C63.6408 48.2502 63.1325 48.697 62.5114 48.697C61.8902 48.697 61.4385 48.1944 61.4385 47.5801C61.4385 46.9658 61.9467 46.519 62.5679 46.519C63.1325 46.519 63.6408 47.0216 63.6408 47.6359Z" fill="white"/>
<path d="M66.6898 48.8087C66.6898 49.423 66.238 49.7023 65.6733 49.4789C65.6169 49.4789 65.6169 49.4789 65.5604 49.423C65.3345 49.3113 65.0522 49.1997 64.8828 49.0321C64.7134 48.8087 64.9957 48.5854 65.0522 48.362C65.2216 47.6918 65.2216 47.0775 64.8828 46.4632C64.7698 46.2399 64.7698 46.1282 64.9957 46.0165C65.2781 45.9048 65.5039 45.7372 65.7863 45.6256C66.238 45.458 66.6333 45.7373 66.6898 46.184C66.6898 46.6308 66.6898 47.0775 66.6898 47.5243C66.6898 48.0269 66.7463 48.4178 66.6898 48.8087Z" fill="white"/>
<path d="M66.464 43.0566C65.6735 43.8943 64.657 44.2852 63.5277 44.4527C63.3583 44.5086 63.3018 44.3969 63.3018 44.2852C63.3018 44.0059 63.3018 43.6709 63.3018 43.3916C63.3018 43.2241 63.3583 43.1124 63.4712 43.0566C63.8665 42.6657 64.2618 42.2747 64.6006 41.9397C64.9394 41.6046 65.0523 41.2137 64.8829 40.7669C64.7135 40.376 64.3747 40.1526 63.8665 40.1526C63.4147 40.1526 62.963 40.1526 62.5112 40.1526H61.156C60.7042 40.1526 60.3654 40.376 60.196 40.7669C60.0266 41.2137 60.0831 41.6046 60.4219 41.9397C60.7607 42.2747 61.0995 42.6098 61.4383 42.9449C61.7207 43.1683 61.7771 43.4475 61.7771 43.7826C61.7771 44.6761 61.7771 44.6761 60.8736 44.3969C60.0831 44.1735 59.4054 43.8384 58.7843 43.28C57.542 42.0514 57.542 40.376 58.7843 39.2033C60.7042 37.3604 64.4876 37.3604 66.3511 39.2591C67.537 40.2643 67.5934 41.828 66.464 43.0566Z" fill="white"/>
<path d="M71.8289 52.3827C68.7231 53.0529 66.7467 56.1244 67.4243 59.1958C67.4808 59.4751 67.4243 59.5868 67.142 59.6984C64.0362 60.7037 60.9868 60.7037 57.8811 59.6984C57.5987 59.5868 57.4858 59.4751 57.5987 59.14C58.2763 56.0685 56.2435 52.997 53.1377 52.3269C52.7988 52.271 52.6859 52.1593 52.7424 51.7684C53.1377 49.0879 54.1541 46.6865 55.9611 44.6203C56.1305 44.4527 56.2435 44.3969 56.4693 44.5644C56.6952 44.6761 56.9775 44.7319 57.147 44.9553C57.3164 45.1787 56.9776 45.3462 56.9211 45.6255C56.8646 45.793 56.8081 46.0164 56.8081 46.1839C56.8081 47.1333 56.7517 48.1385 56.8081 49.0879C56.8646 50.5398 58.2763 51.4892 59.6881 51.0424C60.2527 50.8749 60.761 50.5957 61.2692 50.2606C61.4386 50.1489 61.5515 50.0931 61.7774 50.2048C62.2856 50.3723 62.8503 50.3723 63.3585 50.2048C63.5844 50.1489 63.6973 50.1489 63.8668 50.2606C64.3185 50.5957 64.7703 50.8191 65.2785 50.9866C66.7467 51.5451 68.2713 50.5957 68.3278 49.032C68.3278 48.5853 68.3278 48.1385 68.3278 47.6359V46.4073C68.3278 45.9605 68.2713 45.5696 67.989 45.1787C67.876 45.0112 67.876 44.9553 68.0455 44.8436C68.8925 44.3969 68.8925 44.3969 69.5136 45.1229C71.0383 47.0774 71.9418 49.2554 72.2806 51.7126C72.2806 52.1035 72.2242 52.271 71.8289 52.3827Z" fill="white"/>
<path d="M70.0216 30.1005C66.1817 26.4706 59.5184 26.303 55.4526 29.7096C53.7021 31.1616 52.5727 32.9486 52.4033 35.2383C52.1209 38.7006 53.8715 41.1578 56.6949 43.0007C56.6384 42.8332 56.6384 42.8332 56.6384 42.7773C55.9043 40.8786 56.2996 39.1474 57.8243 37.8071C60.3089 35.5733 64.77 35.5733 67.2546 37.863C68.4404 38.924 68.9487 40.2085 68.7228 41.828C68.6663 42.163 68.5534 42.4981 68.4404 42.9449C68.7228 42.7215 68.9487 42.6098 69.1745 42.4423C73.4662 39.2033 73.805 33.6746 70.0216 30.1005ZM58.6713 35.1824C57.9937 35.1824 57.429 34.624 57.429 34.0097C57.429 33.3954 57.9372 32.8369 58.6149 32.8369C59.2925 32.8369 59.8007 33.3395 59.8007 34.0097C59.8007 34.624 59.2925 35.1824 58.6713 35.1824ZM66.4076 35.1824C65.7864 35.1824 65.2217 34.624 65.2217 34.0097C65.2217 33.3395 65.7299 32.8369 66.4076 32.8369C67.0852 32.8369 67.5934 33.3395 67.5934 33.9538C67.5934 34.624 67.0287 35.1824 66.4076 35.1824Z" fill="white"/>
<path d="M59.8004 34.0097C59.8004 34.6798 59.2922 35.1824 58.671 35.1824C57.9934 35.1824 57.4287 34.624 57.4287 34.0097C57.4287 33.3954 57.9369 32.8369 58.6146 32.8369C59.2922 32.8369 59.8004 33.3395 59.8004 34.0097Z" fill="#E0E0E0"/>
<path d="M67.5934 34.0097C67.5934 34.6798 67.0852 35.2383 66.4075 35.2383C65.7864 35.2383 65.2217 34.6798 65.2217 34.0655C65.2217 33.3954 65.7299 32.8928 66.4075 32.8928C67.0287 32.8369 67.5369 33.3395 67.5934 34.0097Z" fill="#E0E0E0"/>
<path d="M78.9435 57.4088C78.8306 56.5711 78.6047 55.7893 78.7177 54.9516C79.2823 49.8138 76.4024 44.9553 71.6026 42.889C71.3202 42.7773 71.2638 42.6657 71.4896 42.4423C73.7484 40.0409 74.7084 37.2487 73.9743 33.9538C73.9178 33.6746 74.0872 33.6187 74.2566 33.5071C75.9507 32.7252 76.9106 31.4408 77.0236 29.5979C77.193 27.6992 76.346 26.2472 74.7648 25.242C74.2001 24.9069 73.579 24.7394 72.9578 24.5718H71.772C71.0379 24.7394 70.3038 24.9628 69.6262 25.4095C69.1179 25.8004 68.6662 26.1913 68.3274 26.7498C68.2144 26.9732 68.1015 26.9732 67.9321 26.8615C66.0686 26.0238 64.0922 25.6329 62.0029 25.6887C60.3088 25.7446 58.6712 26.0797 57.0901 26.8056C56.8077 26.9173 56.6948 26.9173 56.5818 26.6381C55.8477 25.5212 54.7748 24.7952 53.4196 24.5718C53.3631 24.5718 53.2502 24.516 53.1937 24.516H52.0079C51.9514 24.516 51.8949 24.5718 51.8385 24.5718C49.7491 24.9628 48.168 26.5823 47.9421 28.5927C47.7162 30.659 48.8456 32.5577 50.822 33.3954C51.0479 33.5071 51.0479 33.5629 51.0479 33.7863C50.3703 37.0811 51.2738 39.8734 53.589 42.2747C53.8149 42.554 53.8149 42.6098 53.476 42.7215C48.6762 44.8436 45.8527 49.7021 46.4174 54.8957C46.4739 55.2308 46.5304 55.5659 46.361 55.9568C46.0222 56.9062 45.9092 57.9114 46.1351 58.9166C46.6998 61.3738 48.2244 62.9933 50.7091 63.44C53.1372 63.9426 55.1701 63.0491 56.6383 61.0387C56.8077 60.8153 56.9207 60.7595 57.1465 60.8712C60.6476 62.0998 64.2051 62.0998 67.7627 60.8712C67.9886 60.8153 68.1015 60.8153 68.2144 61.0387C69.6262 62.9933 71.5461 63.831 73.9743 63.4959C77.0236 63.2725 79.2823 60.3686 78.9435 57.4088ZM77.193 53.7788C77.1365 53.8347 77.0801 53.7788 77.0236 53.723C76.1766 52.9412 75.2166 52.4944 74.0872 52.3269C73.8613 52.271 73.8049 52.2152 73.8049 51.9918C73.5225 49.1437 72.5061 46.5748 70.7555 44.341C70.7555 44.2852 70.6991 44.2852 70.6991 44.2293C74.539 45.5696 77.3624 49.7021 77.193 53.7788ZM69.7391 27.5316C70.812 25.8563 73.2402 25.6329 74.6519 27.0849C76.1201 28.5927 75.6683 31.1616 73.7484 32.0551C73.5225 32.1668 73.4096 32.1668 73.2966 31.8875C73.1272 31.4966 72.8449 31.1057 72.6755 30.7148C73.6355 30.2122 73.9743 29.7654 73.9178 29.0394C73.8049 28.4251 73.3531 27.8667 72.732 27.755C71.9979 27.5875 71.4896 27.9225 70.9814 28.7602C70.5861 28.481 70.1908 28.1459 69.7956 27.8667C69.5132 27.755 69.6826 27.6433 69.7391 27.5316ZM52.2902 30.994C52.0643 31.3291 51.8949 31.6083 51.7255 31.9434C51.6126 32.1668 51.5561 32.1668 51.3302 32.0551C50.0879 31.5525 49.3538 30.2122 49.5232 28.8719C49.6362 27.5875 50.7091 26.4706 51.9514 26.1913C52.1773 26.1355 52.4031 26.0797 52.629 26.1355C53.7584 26.1913 54.6054 26.6381 55.2831 27.5316C55.396 27.6992 55.4525 27.8109 55.2266 27.9784C54.8878 28.2018 54.6054 28.4251 54.3231 28.6485C54.1537 28.8161 54.0972 28.8161 53.9843 28.5927C53.4761 27.6992 52.3467 27.5316 51.6126 28.2018C50.822 28.9836 51.1044 30.268 52.1208 30.659C52.4031 30.7148 52.4031 30.7706 52.2902 30.994ZM52.4031 35.1824C52.5726 32.8928 53.7019 31.1057 55.4525 29.6537C59.5182 26.2472 66.1816 26.4147 70.0214 30.0447C73.8049 33.6187 73.466 39.1474 69.2309 42.2747C69.005 42.4423 68.7791 42.6098 68.4968 42.7773C68.6097 42.3864 68.7227 42.0514 68.7791 41.6604C69.0615 40.0968 68.4968 38.7565 67.3109 37.6954C64.8263 35.4058 60.3653 35.4058 57.8806 37.6396C56.356 38.9799 55.9607 40.7669 56.6948 42.6098C56.6948 42.6657 56.6948 42.6657 56.7512 42.8332C53.8149 41.102 52.1208 38.6448 52.4031 35.1824ZM64.8828 46.4631C64.7698 46.2397 64.7698 46.1281 64.9957 46.0164C65.2781 45.9047 65.5039 45.7371 65.7863 45.6254C66.238 45.4579 66.6333 45.7371 66.6898 46.1839C66.6898 46.6307 66.6898 47.0774 66.6898 47.5242C66.6898 47.9151 66.6898 48.3619 66.6898 48.7528C66.6898 49.3671 66.238 49.6463 65.6733 49.4229C65.6169 49.4229 65.6169 49.4229 65.5604 49.3671C65.3345 49.2554 65.0522 49.1437 64.8828 48.9762C64.7134 48.7528 64.9957 48.5294 65.0522 48.306C65.2216 47.6917 65.2216 47.0774 64.8828 46.4631ZM66.4639 43.0566C65.6733 43.8942 64.6569 44.2852 63.5275 44.4527C63.3581 44.5085 63.3016 44.3969 63.3016 44.2852C63.3016 44.0059 63.3016 43.6709 63.3016 43.3916C63.3016 43.2241 63.3581 43.1124 63.4711 43.0566C63.8663 42.6657 64.2616 42.2747 64.6004 41.9397C64.9392 41.6046 65.0522 41.2137 64.8828 40.7669C64.7134 40.376 64.3746 40.1526 63.8663 40.1526C63.4146 40.1526 62.9628 40.1526 62.5111 40.1526H61.1558C60.7041 40.1526 60.3653 40.376 60.1959 40.7669C60.0264 41.2137 60.0829 41.6046 60.4217 41.9397C60.7605 42.2747 61.0994 42.6098 61.4382 42.9449C61.7205 43.1683 61.777 43.4475 61.777 43.7826C61.777 44.6761 61.777 44.6761 60.8735 44.3969C60.0829 44.1735 59.4053 43.8384 58.7841 43.2799C57.5418 42.0514 57.5418 40.376 58.7841 39.2033C60.7041 37.3604 64.4875 37.3604 66.351 39.2591C67.5368 40.2643 67.5933 41.828 66.4639 43.0566ZM63.6405 47.6359C63.6405 48.2502 63.1322 48.6969 62.5111 48.6969C61.8899 48.6969 61.4382 48.1943 61.4382 47.58C61.4382 46.9657 61.9464 46.519 62.5675 46.519C63.1322 46.519 63.6405 47.0216 63.6405 47.6359ZM58.3324 46.3514C58.3324 45.793 58.7841 45.5696 59.2923 45.7371C59.4053 45.793 59.4618 45.793 59.5747 45.8488C60.1959 46.128 60.1959 46.1281 60.0264 46.7982C59.8006 47.4683 59.857 48.0826 60.1394 48.6969C60.2523 48.9203 60.1959 49.0878 59.97 49.1437C59.7441 49.2554 59.4618 49.3671 59.2359 49.4788C58.7277 49.6463 58.3324 49.3671 58.3324 48.8645C58.3324 48.4177 58.3324 48.0268 58.3324 47.58C58.3324 47.1891 58.2759 46.7423 58.3324 46.3514ZM48.9021 49.2554C49.975 47.0216 52.1773 45.0111 54.2666 44.2293C53.5325 45.2345 52.9114 46.2397 52.4031 47.3008C51.7255 48.7528 51.3302 50.3164 51.1608 51.8801C51.1608 52.1593 51.0479 52.2152 50.7655 52.271C49.6926 52.4385 48.7327 52.9412 47.8292 53.723C47.8856 52.1035 48.2244 50.6515 48.9021 49.2554ZM51.9514 62.2114C49.5797 62.2114 47.6598 60.3127 47.6033 57.9672C47.6033 55.6217 49.5232 53.723 51.8949 53.723C54.2666 53.723 56.1866 55.6217 56.1866 57.9672C56.1866 60.3127 54.2666 62.2114 51.9514 62.2114ZM67.4239 59.1958C67.4803 59.475 67.4239 59.5867 67.1415 59.6984C64.0357 60.7036 60.9864 60.7036 57.8806 59.6984C57.5983 59.5867 57.4853 59.475 57.5983 59.14C58.2759 56.0685 56.243 52.997 53.1372 52.3269C52.7984 52.271 52.6855 52.1593 52.742 51.7684C53.1372 49.0878 54.1537 46.6865 55.9607 44.6202C56.1301 44.4527 56.243 44.3969 56.4689 44.5644C56.6948 44.6761 56.9771 44.7319 57.1465 44.9553C57.3159 45.1787 56.9771 45.3462 56.9207 45.6254C56.8642 45.793 56.8077 46.0164 56.8077 46.1839C56.8077 47.1333 56.7512 48.1385 56.8077 49.0878C56.8642 50.5398 58.2759 51.4892 59.6876 51.0424C60.2523 50.8749 60.7605 50.5957 61.2688 50.2606C61.4382 50.1489 61.5511 50.0931 61.777 50.2047C62.2852 50.3723 62.8499 50.3723 63.3581 50.2047C63.584 50.1489 63.6969 50.1489 63.8663 50.2606C64.3181 50.5957 64.7698 50.819 65.2781 50.9866C66.7462 51.545 68.2709 50.5957 68.3274 49.032C68.3274 48.5852 68.3274 48.1385 68.3274 47.6359V46.4073C68.3274 45.9605 68.2709 45.5696 67.9886 45.1787C67.8756 45.0111 67.8756 44.9553 68.045 44.8436C68.8921 44.3969 68.8921 44.3969 69.5132 45.1228C71.0379 47.0774 71.9414 49.2554 72.2802 51.7126C72.3367 52.1035 72.2802 52.271 71.8284 52.3269C68.7227 52.997 66.7462 56.1243 67.4239 59.1958ZM73.1272 62.2114C70.7555 62.2114 68.8356 60.3127 68.8356 57.9672C68.8356 55.6217 70.7555 53.723 73.1272 53.723C75.4989 53.723 77.4189 55.6217 77.4189 57.9672C77.4189 60.3127 75.4989 62.2114 73.1272 62.2114Z" fill="#E0E0E0"/>
</svg>
