<svg width="17" height="17" viewBox="0 0 17 17" fill="none" xmlns="http://www.w3.org/2000/svg">
<g opacity="0.4">
<path d="M14.1428 2.95578C12.845 1.07747 10.7881 0 8.50008 0C6.21202 0 4.15519 1.07747 2.85738 2.95578C1.56594 4.82458 1.26775 7.19054 2.05811 9.28084C2.26952 9.85167 2.60557 10.4063 3.05454 10.926L8.04756 16.7908C8.16048 16.9235 8.32593 17 8.50008 17C8.67423 17 8.83969 16.9235 8.95261 16.7908L13.9442 10.9275C14.3952 10.4049 14.7308 9.85087 14.9405 9.28462C15.7324 7.19054 15.4342 4.82458 14.1428 2.95578ZM13.8274 8.86832C13.6657 9.30521 13.4018 9.73715 13.0433 10.1526C13.0423 10.1536 13.0413 10.1546 13.0405 10.1558L8.50008 15.4888L3.95683 10.1525C3.59861 9.73735 3.33467 9.30544 3.17141 8.86437C2.51778 7.13565 2.76584 5.17946 3.83518 3.63182C4.90787 2.07925 6.60827 1.1888 8.50008 1.1888C10.3919 1.1888 12.0921 2.07921 13.1648 3.63182C14.2343 5.17946 14.4826 7.13565 13.8274 8.86832Z" fill="white"/>
<path d="M8.50007 3.52681C6.66473 3.52681 5.17139 5.01995 5.17139 6.85549C5.17139 8.69102 6.66453 10.1842 8.50007 10.1842C10.3356 10.1842 11.8287 8.69102 11.8287 6.85549C11.8287 5.02015 10.3354 3.52681 8.50007 3.52681ZM8.50007 8.99533C7.32016 8.99533 6.36019 8.03536 6.36019 6.85546C6.36019 5.67555 7.32016 4.71558 8.50007 4.71558C9.67997 4.71558 10.6399 5.67555 10.6399 6.85546C10.6399 8.03536 9.67997 8.99533 8.50007 8.99533Z" fill="white"/>
</g>
</svg>
