<svg width="18" height="18" viewBox="0 0 18 18" fill="none" xmlns="http://www.w3.org/2000/svg">
<g opacity="0.4">
<path d="M14.5657 16.2391V1.76087C14.5657 0.790031 13.7759 0 12.8048 0H5.19398C4.22314 0 3.43311 0.790031 3.43311 1.76087V16.2391C3.43311 17.2101 4.22314 18 5.19398 18H12.8244C13.295 18 13.7526 17.8065 14.0799 17.4692C14.407 17.1319 14.5794 16.6887 14.5657 16.2391ZM13.2372 16.6516C13.1283 16.7643 12.9817 16.8261 12.8244 16.8261H5.19398C4.87036 16.8261 4.60701 16.5627 4.60701 16.2391V1.76087C4.60701 1.43726 4.87036 1.1739 5.19398 1.1739H12.8048C13.1285 1.1739 13.3918 1.43726 13.3918 1.76087L13.392 16.2567C13.3965 16.4039 13.3415 16.5441 13.2372 16.6516Z" fill="white"/>
<path d="M13.9988 2.28915H4.02051V3.46306H13.9988V2.28915Z" fill="white"/>
<path d="M13.9988 13.6174H4.02051V14.7913H13.9988V13.6174Z" fill="white"/>
<path d="M9.49833 15.2022H8.52007C8.19586 15.2022 7.93311 15.4649 7.93311 15.7891C7.93311 16.1133 8.19586 16.3761 8.52007 16.3761H9.49833C9.82254 16.3761 10.0853 16.1133 10.0853 15.7891C10.0853 15.4649 9.82251 15.2022 9.49833 15.2022Z" fill="white"/>
</g>
</svg>
