<svg width="18" height="23" viewBox="0 0 18 23" fill="none" xmlns="http://www.w3.org/2000/svg">
<path d="M14.5887 12.2603C14.5643 9.54805 16.8095 8.22854 16.9122 8.16711C15.6407 6.31323 13.6698 6.05993 12.9772 6.03973C11.322 5.86554 9.71632 7.03021 8.87311 7.03021C8.01308 7.03021 6.7146 6.05656 5.31515 6.08517C3.51429 6.11294 1.82955 7.15559 0.905561 8.77469C-1.00133 12.076 0.420843 16.9274 2.24779 19.5958C3.16169 20.9027 4.22958 22.3619 5.62735 22.3106C6.99483 22.2542 7.50564 21.4388 9.15587 21.4388C10.7909 21.4388 11.2706 22.3106 12.6962 22.2778C14.1638 22.2542 15.0878 20.965 15.9697 19.6463C17.0258 18.1484 17.4499 16.6732 17.4668 16.5975C17.4323 16.5857 14.6165 15.5111 14.5887 12.2603Z" fill="white"/>
<path d="M11.8959 4.28426C12.6314 3.36447 13.1346 2.11312 12.9949 0.843262C11.9304 0.890387 10.5991 1.5796 9.83245 2.47919C9.15418 3.2719 8.54828 4.57122 8.70481 5.79311C9.90061 5.88231 11.1284 5.18974 11.8959 4.28426Z" fill="white"/>
</svg>
