<svg width="230" height="68" viewBox="0 0 230 68" fill="none" xmlns="http://www.w3.org/2000/svg">
<path d="M230 61.1836C230 64.9495 227.039 68 223.377 68H6.63179C2.97126 68 0 64.9495 0 61.1836V6.82527C0 3.06114 2.97126 0 6.63179 0H223.375C227.039 0 229.998 3.06114 229.998 6.82527L230 61.1836Z" fill="black"/>
<path d="M64.0357 32.6264C63.9841 26.8904 68.7324 24.0997 68.9496 23.9698C66.2604 20.0491 62.0923 19.5134 60.6275 19.4707C57.1268 19.1023 53.7311 21.5654 51.9478 21.5654C50.1289 21.5654 47.3828 19.5063 44.4231 19.5668C40.6145 19.6255 37.0514 21.8306 35.0973 25.2548C31.0644 32.2367 34.0722 42.4968 37.936 48.1404C39.8688 50.9043 42.1272 53.9903 45.0834 53.8818C47.9754 53.7625 49.0557 52.038 52.5458 52.038C56.0038 52.038 57.0182 53.8818 60.0331 53.8124C63.137 53.7625 65.0911 51.036 66.9563 48.2472C69.1898 45.0792 70.0868 41.9594 70.1224 41.7992C70.0494 41.7743 64.0945 39.5015 64.0357 32.6264Z" fill="white"/>
<path d="M58.3406 15.7583C59.8961 13.813 60.9604 11.1666 60.6649 8.48096C58.4136 8.58062 55.598 10.0382 53.9767 11.9408C52.5422 13.6173 51.2608 16.3652 51.5919 18.9493C54.1209 19.138 56.7175 17.6733 58.3406 15.7583Z" fill="white"/>
<path d="M100.843 48.7591H97.8215L96.1663 43.558H90.4131L88.8364 48.7591H85.8945L91.5946 31.0522H95.1152L100.843 48.7591ZM95.6674 41.3759L94.1705 36.7523C94.0122 36.2799 93.7155 35.1676 93.2777 33.4166H93.2245C93.0502 34.1697 92.7694 35.282 92.3836 36.7523L90.9133 41.3759H95.6674V41.3759Z" fill="white"/>
<path d="M115.502 42.2185C115.502 44.39 114.915 46.1064 113.742 47.3664C112.69 48.4881 111.385 49.0482 109.827 49.0482C108.145 49.0482 106.937 48.4442 106.201 47.236H106.148V53.9619H103.311V40.1948C103.311 38.8297 103.275 37.4286 103.206 35.9916H105.701L105.859 38.0154H105.913C106.859 36.4906 108.294 35.7295 110.221 35.7295C111.727 35.7295 112.984 36.3242 113.99 37.5151C114.999 38.7072 115.502 40.2746 115.502 42.2185ZM112.612 42.3223C112.612 41.0796 112.332 40.0551 111.771 39.2488C111.158 38.4079 110.334 37.9874 109.302 37.9874C108.602 37.9874 107.966 38.2216 107.398 38.6833C106.828 39.149 106.455 39.757 106.281 40.5101C106.193 40.8614 106.149 41.1488 106.149 41.375V43.5039C106.149 44.4326 106.434 45.2163 107.004 45.8563C107.573 46.4962 108.313 46.8156 109.223 46.8156C110.291 46.8156 111.123 46.4031 111.718 45.5808C112.314 44.7572 112.612 43.6715 112.612 42.3223Z" fill="white"/>
<path d="M130.187 42.2185C130.187 44.39 129.6 46.1064 128.425 47.3664C127.375 48.4881 126.07 49.0482 124.512 49.0482C122.83 49.0482 121.622 48.4442 120.888 47.236H120.835V53.9619H117.998V40.1948C117.998 38.8297 117.962 37.4286 117.893 35.9916H120.387L120.546 38.0154H120.599C121.544 36.4906 122.979 35.7295 124.907 35.7295C126.412 35.7295 127.67 36.3242 128.678 37.5151C129.683 38.7072 130.187 40.2746 130.187 42.2185ZM127.297 42.3223C127.297 41.0796 127.016 40.0551 126.455 39.2488C125.841 38.4079 125.02 37.9874 123.987 37.9874C123.285 37.9874 122.651 38.2216 122.081 38.6833C121.512 39.149 121.141 39.757 120.966 40.5101C120.88 40.8614 120.835 41.1488 120.835 41.375V43.5039C120.835 44.4326 121.119 45.2163 121.686 45.8563C122.256 46.4949 122.995 46.8156 123.908 46.8156C124.977 46.8156 125.808 46.4031 126.403 45.5808C126.999 44.7572 127.297 43.6715 127.297 42.3223Z" fill="white"/>
<path d="M146.606 43.7937C146.606 45.2999 146.083 46.5253 145.033 47.4713C143.88 48.5052 142.274 49.0214 140.21 49.0214C138.305 49.0214 136.777 48.6542 135.621 47.9184L136.278 45.554C137.524 46.3071 138.89 46.685 140.379 46.685C141.447 46.685 142.279 46.4428 142.876 45.9612C143.471 45.4795 143.768 44.8329 143.768 44.0265C143.768 43.3081 143.523 42.7027 143.032 42.2117C142.544 41.7207 141.728 41.2643 140.589 40.8426C137.489 39.6863 135.94 37.9925 135.94 35.7652C135.94 34.3096 136.483 33.1161 137.57 32.1874C138.653 31.2573 140.098 30.793 141.905 30.793C143.516 30.793 144.855 31.0737 145.923 31.6339L145.214 33.9464C144.216 33.4035 143.088 33.1321 141.825 33.1321C140.827 33.1321 140.048 33.3782 139.489 33.8679C139.017 34.3056 138.78 34.8392 138.78 35.4712C138.78 36.171 139.05 36.7498 139.593 37.2049C140.065 37.6253 140.923 38.0804 142.169 38.5713C143.692 39.1847 144.811 39.9019 145.531 40.7241C146.248 41.5438 146.606 42.5696 146.606 43.7937Z" fill="white"/>
<path d="M155.985 38.1203H152.858V44.3193C152.858 45.8959 153.409 46.6836 154.513 46.6836C155.02 46.6836 155.441 46.6397 155.773 46.5519L155.852 48.7061C155.293 48.9149 154.557 49.0201 153.646 49.0201C152.525 49.0201 151.65 48.6781 151.018 47.9955C150.389 47.3116 150.072 46.1647 150.072 44.5534V38.1176H148.209V35.9887H150.072V33.651L152.858 32.8101V35.9887H155.985V38.1203Z" fill="white"/>
<path d="M170.093 42.2701C170.093 44.2326 169.531 45.8439 168.411 47.1039C167.236 48.4012 165.676 49.0479 163.733 49.0479C161.859 49.0479 160.368 48.4265 159.255 47.1838C158.143 45.9411 157.587 44.3723 157.587 42.4816C157.587 40.5031 158.159 38.8825 159.307 37.6225C160.453 36.3611 161.999 35.7305 163.943 35.7305C165.816 35.7305 167.324 36.3518 168.461 37.5959C169.55 38.8027 170.093 40.3608 170.093 42.2701ZM167.149 42.3619C167.149 41.1844 166.898 40.1745 166.388 39.3322C165.794 38.3131 164.943 37.8048 163.842 37.8048C162.701 37.8048 161.835 38.3144 161.24 39.3322C160.731 40.1758 160.479 41.2017 160.479 42.4151C160.479 43.5926 160.731 44.6025 161.24 45.4434C161.854 46.4626 162.711 46.9709 163.816 46.9709C164.899 46.9709 165.75 46.452 166.363 45.4168C166.886 44.5586 167.149 43.5381 167.149 42.3619Z" fill="white"/>
<path d="M179.313 38.4864C179.033 38.4345 178.733 38.4079 178.419 38.4079C177.421 38.4079 176.65 38.7844 176.107 39.5388C175.634 40.2041 175.398 41.045 175.398 42.0602V48.7595H172.562L172.589 40.0125C172.589 38.5409 172.553 37.2011 172.482 35.9929H174.953L175.057 38.4358H175.135C175.435 37.5962 175.907 36.9203 176.554 36.4134C177.186 35.957 177.868 35.7295 178.604 35.7295C178.866 35.7295 179.103 35.7481 179.313 35.7814V38.4864Z" fill="white"/>
<path d="M192 41.7715C192 42.2798 191.967 42.7082 191.896 43.0581H183.386C183.419 44.3195 183.831 45.2841 184.621 45.9494C185.338 46.5442 186.265 46.8422 187.404 46.8422C188.664 46.8422 189.814 46.6413 190.848 46.2381L191.292 48.2073C190.084 48.7342 188.658 48.9964 187.012 48.9964C185.032 48.9964 183.478 48.4136 182.347 47.2494C181.219 46.0851 180.653 44.5217 180.653 42.5605C180.653 40.6352 181.179 39.0319 182.231 37.7533C183.333 36.3881 184.822 35.7056 186.695 35.7056C188.535 35.7056 189.928 36.3881 190.874 37.7533C191.624 38.8377 192 40.1789 192 41.7715ZM189.295 41.0357C189.314 40.1948 189.129 39.4683 188.744 38.855C188.253 38.0659 187.499 37.6721 186.484 37.6721C185.556 37.6721 184.802 38.0566 184.226 38.8284C183.753 39.4417 183.473 40.1775 183.386 41.0344H189.295V41.0357Z" fill="white"/>
<path d="M94.7292 20.1592C94.7292 21.7252 94.2595 22.9041 93.3215 23.6958C92.4526 24.4262 91.2179 24.7921 89.6186 24.7921C88.8256 24.7921 88.147 24.7575 87.5789 24.6884V16.1316C88.32 16.0119 89.1183 15.9507 89.9805 15.9507C91.504 15.9507 92.6522 16.282 93.4266 16.9446C94.2941 17.6937 94.7292 18.7648 94.7292 20.1592ZM93.2589 20.1978C93.2589 19.1826 92.9902 18.4042 92.4526 17.8613C91.9151 17.3198 91.1301 17.0484 90.0962 17.0484C89.6572 17.0484 89.2833 17.0777 88.9733 17.1389V23.6439C89.1449 23.6705 89.4589 23.6825 89.9153 23.6825C90.9824 23.6825 91.806 23.3858 92.3861 22.7923C92.9662 22.1989 93.2589 21.3341 93.2589 20.1978Z" fill="white"/>
<path d="M102.525 21.5269C102.525 22.4915 102.249 23.2819 101.699 23.9019C101.121 24.5392 100.356 24.8572 99.4007 24.8572C98.48 24.8572 97.7469 24.5525 97.2 23.9405C96.6545 23.3298 96.3817 22.5594 96.3817 21.6307C96.3817 20.6594 96.6625 19.8624 97.2266 19.2437C97.7908 18.625 98.5492 18.3149 99.5045 18.3149C100.425 18.3149 101.165 18.6196 101.725 19.2304C102.257 19.8238 102.525 20.5902 102.525 21.5269ZM101.079 21.5721C101.079 20.9933 100.953 20.497 100.705 20.0832C100.412 19.5829 99.9955 19.3328 99.4539 19.3328C98.8938 19.3328 98.468 19.5829 98.1753 20.0832C97.9251 20.497 97.8014 21.0013 97.8014 21.5974C97.8014 22.1762 97.9265 22.6725 98.1753 23.0863C98.4773 23.5866 98.8978 23.8367 99.4406 23.8367C99.9728 23.8367 100.391 23.5826 100.691 23.073C100.949 22.6512 101.079 22.1509 101.079 21.5721Z" fill="white"/>
<path d="M112.978 18.4429L111.015 24.715H109.738L108.925 21.9914C108.719 21.3115 108.551 20.6356 108.421 19.965H108.395C108.274 20.6542 108.107 21.3288 107.891 21.9914L107.027 24.715H105.735L103.89 18.4429H105.323L106.032 21.4246C106.204 22.1298 106.345 22.8017 106.458 23.4377H106.483C106.587 22.9135 106.759 22.2456 107.001 21.4379L107.891 18.4442H109.027L109.88 21.3741C110.086 22.0886 110.254 22.7764 110.383 23.4391H110.422C110.516 22.7937 110.658 22.1059 110.847 21.3741L111.608 18.4442H112.978V18.4429Z" fill="white"/>
<path d="M120.206 24.7149H118.812V21.1225C118.812 20.0155 118.392 19.462 117.548 19.462C117.134 19.462 116.8 19.6136 116.541 19.9183C116.284 20.223 116.154 20.5823 116.154 20.9934V24.7136H114.759V20.235C114.759 19.6842 114.742 19.0867 114.709 18.4401H115.934L115.999 19.4207H116.038C116.2 19.116 116.442 18.8645 116.76 18.6636C117.138 18.4295 117.561 18.311 118.024 18.311C118.61 18.311 119.097 18.5 119.484 18.8792C119.966 19.3435 120.206 20.0367 120.206 20.9575V24.7149V24.7149Z" fill="white"/>
<path d="M124.052 24.7151H122.659V15.5649H124.052V24.7151Z" fill="white"/>
<path d="M132.261 21.5269C132.261 22.4915 131.986 23.2819 131.435 23.9019C130.857 24.5392 130.091 24.8572 129.137 24.8572C128.215 24.8572 127.482 24.5525 126.936 23.9405C126.391 23.3298 126.118 22.5594 126.118 21.6307C126.118 20.6594 126.399 19.8624 126.963 19.2437C127.527 18.625 128.285 18.3149 129.239 18.3149C130.161 18.3149 130.9 18.6196 131.461 19.2304C131.994 19.8238 132.261 20.5902 132.261 21.5269ZM130.813 21.5721C130.813 20.9933 130.688 20.497 130.44 20.0832C130.148 19.5829 129.73 19.3328 129.19 19.3328C128.629 19.3328 128.203 19.5829 127.911 20.0832C127.661 20.497 127.538 21.0013 127.538 21.5974C127.538 22.1762 127.663 22.6725 127.911 23.0863C128.214 23.5866 128.634 23.8367 129.177 23.8367C129.709 23.8367 130.126 23.5826 130.426 23.073C130.686 22.6512 130.813 22.1509 130.813 21.5721Z" fill="white"/>
<path d="M139.01 24.7149H137.758L137.654 23.9924H137.615C137.187 24.5685 136.576 24.8572 135.783 24.8572C135.191 24.8572 134.712 24.667 134.351 24.2891C134.024 23.9458 133.86 23.5187 133.86 23.0118C133.86 22.2454 134.18 21.6613 134.822 21.2568C135.464 20.8523 136.366 20.654 137.527 20.6633V20.5463C137.527 19.72 137.094 19.3075 136.225 19.3075C135.606 19.3075 135.061 19.4632 134.59 19.7719L134.306 18.8565C134.889 18.4959 135.609 18.3149 136.458 18.3149C138.097 18.3149 138.919 19.1798 138.919 20.9095V23.2193C138.919 23.846 138.95 24.345 139.01 24.7149ZM137.562 22.5594V21.5921C136.024 21.5655 135.255 21.9872 135.255 22.8561C135.255 23.1834 135.343 23.4282 135.522 23.5919C135.702 23.7555 135.931 23.8367 136.204 23.8367C136.51 23.8367 136.796 23.7396 137.056 23.5466C137.319 23.3524 137.48 23.1062 137.539 22.8042C137.554 22.7363 137.562 22.6538 137.562 22.5594Z" fill="white"/>
<path d="M146.933 24.7151H145.696L145.63 23.7079H145.592C145.197 24.4743 144.523 24.8575 143.577 24.8575C142.822 24.8575 142.192 24.5607 141.693 23.9673C141.194 23.3739 140.946 22.6035 140.946 21.6575C140.946 20.6423 141.216 19.82 141.759 19.192C142.284 18.6066 142.928 18.3138 143.694 18.3138C144.537 18.3138 145.126 18.5972 145.461 19.1654H145.488V15.5649H146.884V23.0253C146.884 23.636 146.9 24.1988 146.933 24.7151ZM145.488 22.07V21.0242C145.488 20.8432 145.475 20.6968 145.449 20.5851C145.371 20.2498 145.202 19.9677 144.945 19.7402C144.686 19.5127 144.373 19.3982 144.012 19.3982C143.492 19.3982 143.085 19.6045 142.786 20.0183C142.489 20.4321 142.339 20.9603 142.339 21.6056C142.339 22.2256 142.481 22.7286 142.767 23.1158C143.069 23.5282 143.476 23.7345 143.986 23.7345C144.444 23.7345 144.809 23.5628 145.088 23.2182C145.356 22.9002 145.488 22.517 145.488 22.07Z" fill="white"/>
<path d="M158.859 21.5269C158.859 22.4915 158.583 23.2819 158.032 23.9019C157.455 24.5392 156.691 24.8572 155.735 24.8572C154.815 24.8572 154.082 24.5525 153.534 23.9405C152.988 23.3298 152.716 22.5594 152.716 21.6307C152.716 20.6594 152.996 19.8624 153.56 19.2437C154.125 18.625 154.883 18.3149 155.84 18.3149C156.759 18.3149 157.5 18.6196 158.059 19.2304C158.591 19.8238 158.859 20.5902 158.859 21.5269ZM157.414 21.5721C157.414 20.9933 157.289 20.497 157.04 20.0832C156.746 19.5829 156.331 19.3328 155.788 19.3328C155.229 19.3328 154.803 19.5829 154.509 20.0832C154.259 20.497 154.135 21.0013 154.135 21.5974C154.135 22.1762 154.26 22.6725 154.509 23.0863C154.811 23.5866 155.232 23.8367 155.774 23.8367C156.307 23.8367 156.726 23.5826 157.027 23.073C157.283 22.6512 157.414 22.1509 157.414 21.5721Z" fill="white"/>
<path d="M166.356 24.7149H164.963V21.1225C164.963 20.0155 164.543 19.462 163.698 19.462C163.284 19.462 162.95 19.6136 162.692 19.9183C162.434 20.223 162.305 20.5823 162.305 20.9934V24.7136H160.909V20.235C160.909 19.6842 160.893 19.0867 160.86 18.4401H162.084L162.149 19.4207H162.188C162.351 19.116 162.594 18.8645 162.91 18.6636C163.289 18.4295 163.711 18.311 164.176 18.311C164.76 18.311 165.247 18.5 165.634 18.8792C166.117 19.3435 166.356 20.0367 166.356 20.9575V24.7149V24.7149Z" fill="white"/>
<path d="M175.741 19.4869H174.205V22.5338C174.205 23.3082 174.478 23.6954 175.018 23.6954C175.268 23.6954 175.476 23.6741 175.64 23.6302L175.675 24.688C175.4 24.7918 175.038 24.8437 174.592 24.8437C174.042 24.8437 173.613 24.676 173.303 24.3407C172.992 24.0054 172.837 23.4413 172.837 22.6496V19.4869H171.921V18.4424H172.837V17.2928L174.204 16.8804V18.4411H175.739V19.4869H175.741Z" fill="white"/>
<path d="M183.122 24.7151H181.727V21.1492C181.727 20.0249 181.306 19.4621 180.464 19.4621C179.817 19.4621 179.376 19.7881 179.133 20.4401C179.092 20.5771 179.068 20.7447 179.068 20.9417V24.7138H177.675V15.5649H179.068V19.345H179.095C179.534 18.6571 180.163 18.3138 180.979 18.3138C181.556 18.3138 182.034 18.5028 182.413 18.882C182.886 19.3543 183.122 20.0569 183.122 20.9856V24.7151V24.7151Z" fill="white"/>
<path d="M190.737 21.2828C190.737 21.5329 190.719 21.7432 190.685 21.9148H186.503C186.522 22.5348 186.722 23.0072 187.109 23.3345C187.463 23.6272 187.919 23.7736 188.478 23.7736C189.097 23.7736 189.661 23.6751 190.169 23.4769L190.387 24.4455C189.793 24.7036 189.093 24.8327 188.282 24.8327C187.311 24.8327 186.546 24.5466 185.992 23.9745C185.436 23.4024 185.161 22.6346 185.161 21.6713C185.161 20.7253 185.418 19.9376 185.935 19.3096C186.475 18.639 187.206 18.3037 188.128 18.3037C189.03 18.3037 189.715 18.639 190.178 19.3096C190.552 19.8418 190.737 20.5004 190.737 21.2828ZM189.407 20.9222C189.417 20.5084 189.325 20.1518 189.137 19.8511C188.894 19.4639 188.526 19.2697 188.027 19.2697C187.572 19.2697 187.201 19.4586 186.917 19.8378C186.686 20.1399 186.549 20.5004 186.503 20.9222H189.407Z" fill="white"/>
</svg>
