<svg width="11" height="9" viewBox="0 0 11 9" fill="none" xmlns="http://www.w3.org/2000/svg">
<path d="M0.158715 5.09181C0.0441508 5.22649 -0.0115948 5.39793 0.00201238 5.57513C0.0156196 5.75233 0.0963848 5.91359 0.230262 6.02877L3.47975 8.84008C3.60046 8.94418 3.75014 9 3.90728 9C3.92659 9 3.94634 8.99911 3.96609 8.99734C4.14387 8.98139 4.30408 8.89589 4.41733 8.75723L9.97521 1.93009C10.0867 1.79276 10.1389 1.61999 10.1218 1.44323C10.1043 1.26647 10.0204 1.10699 9.88435 0.99402L8.86688 0.150539C8.58639 -0.0815955 8.17116 -0.0408391 7.94027 0.242241L3.66279 5.49672L1.94389 4.01044C1.66823 3.77299 1.25212 3.80444 1.01553 4.08265L0.158715 5.09181Z" fill="#007DFF"/>
</svg>
