<svg width="96" height="22" viewBox="0 0 96 22" fill="none" xmlns="http://www.w3.org/2000/svg">
<path d="M1 7V10L3 7.5L6.5 12L10.5 8V5L11.5 4L15.5 7.5V12L16.5 10.5L17 16.5L19 14.5L20.5 16.5L23 12L24.5 17.5L26 15L28.5 17.5L29.5 20V14.5L32.5 12.5L37 17.5L38 12L39 11L41 10.5V5.5L44 6L46 8.5L49 9.5L51 7V10H53L54.5 14L56 11.5L58 14L59.5 13.5V17L61 18L61.5 16H64.5L66 14.5L68.5 13L70.5 16L71 19.5L73 20.5L73.5 18L77 19V11.5L78 9.5L82 8.5V3.5L85 5L87.5 2L88.5 7.5L90.5 5L91.5 8L93 6L95.5 4.5" stroke="#3DB370"/>
</svg>
