<svg width="61" height="50" viewBox="0 0 61 50" fill="none" xmlns="http://www.w3.org/2000/svg">
<path d="M38.4994 13.9752L38.4762 13.5093L38.0098 13.5001L26.6985 13.2775V0.5H60.4325V27.4866H55.7043H55.2489L55.2065 27.94L54.8709 31.527L48.2629 27.558L48.144 27.4866H48.0054H39.1715L38.4994 13.9752Z" stroke="white"/>
<path d="M38.6956 12.5776H1.19009C0.532802 12.5776 0 13.1106 0 13.7677V43.9874C0 44.6446 0.532802 45.1775 1.19009 45.1775H7.01307L7.28084 48.8954C7.31178 49.3245 7.5717 49.7033 7.96074 49.8865C8.12211 49.9626 8.29527 50 8.46771 50C8.71097 50 8.95291 49.9253 9.15784 49.7794L15.6238 45.1774H38.6956C39.3528 45.1774 39.8857 44.6444 39.8857 43.9873V13.7677C39.8857 13.1106 39.3529 12.5776 38.6956 12.5776V12.5776ZM37.5055 42.7973H15.2436C14.9962 42.7973 14.7551 42.8743 14.5535 43.0177L9.50273 46.6125L9.30744 43.9018C9.26257 43.2794 8.74453 42.7973 8.12045 42.7973H2.38018V14.9578H37.5055V42.7973Z" fill="#007DFF"/>
<path d="M16.6495 36.8318C16.7999 36.8949 16.956 36.9249 17.1095 36.9249C17.5744 36.9249 18.0162 36.6506 18.2073 36.195L24.0621 22.2442C24.3164 21.6381 24.0314 20.9406 23.4253 20.6863C22.8193 20.432 22.1218 20.7171 21.8674 21.3231L16.0127 35.2739C15.7584 35.88 16.0435 36.5775 16.6495 36.8318Z" fill="white"/>
<path d="M15.4386 28.336C17.5213 28.336 19.2157 26.4536 19.2157 24.1397C19.2157 21.8258 17.5214 19.9434 15.4386 19.9434C13.3558 19.9434 11.6615 21.8258 11.6615 24.1397C11.6615 26.4536 13.3559 28.336 15.4386 28.336ZM15.4386 22.3235C16.1957 22.3235 16.8355 23.1552 16.8355 24.1397C16.8355 25.1241 16.1959 25.9558 15.4386 25.9558C14.6815 25.9558 14.0417 25.1242 14.0417 24.1397C14.0417 23.1552 14.6815 22.3235 15.4386 22.3235V22.3235Z" fill="white"/>
<path d="M20.67 33.6781C20.67 35.9918 22.3644 37.8744 24.4471 37.8744C26.5298 37.8744 28.2242 35.9919 28.2242 33.6781C28.2242 31.3643 26.5299 29.4817 24.4471 29.4817C22.3644 29.4817 20.67 31.3643 20.67 33.6781ZM24.4471 31.8619C25.2043 31.8619 25.8441 32.6935 25.8441 33.6781C25.8441 34.6625 25.2044 35.4942 24.4471 35.4942C23.69 35.4942 23.0502 34.6626 23.0502 33.6781C23.0502 32.6936 23.6899 31.8619 24.4471 31.8619Z" fill="white"/>
</svg>
