<svg width="125" height="48" viewBox="0 0 125 48" fill="none" xmlns="http://www.w3.org/2000/svg">
<path d="M121.66 36.9088H115.503L112.103 29.6562L110.823 36.9088H105.591L107.501 26.0977H119.198L117.506 28.1397L121.66 36.9088Z" fill="#E31E24"/>
<path d="M113.921 19.3711L112.992 24.6298H107.76L108.689 19.3711H113.921Z" fill="#FEFEFE"/>
<path d="M124.763 19.3711L120.377 24.6298H114.268L118.619 19.3711H124.763Z" fill="#FEFEFE"/>
<path d="M106.046 26.0977L104.872 32.8201C104.679 33.9464 104.11 34.9104 103.163 35.7124C102.221 36.5098 101.182 36.9088 100.051 36.9088H92.1635C91.1689 36.9088 90.3537 36.589 89.7095 35.9446C89.0654 35.3007 88.7454 34.4941 88.7454 33.5213C88.7454 33.2845 88.7631 33.0523 88.8023 32.8201L89.955 26.0977H95.2135L94.2409 31.65H99.8192L100.788 26.0977H106.046Z" fill="#E31E24"/>
<path d="M106.568 22.7586C106.568 22.9951 106.546 23.2274 106.507 23.4598L106.305 24.6298H90.2354L90.4412 23.4685C90.6343 22.3378 91.2038 21.3736 92.1503 20.5716C93.0926 19.7696 94.131 19.3711 95.2619 19.3711H103.15C104.14 19.3711 104.96 19.6909 105.604 20.335C106.244 20.9792 106.568 21.7857 106.568 22.7586Z" fill="#FEFEFE"/>
<path d="M88.5341 26.0977L87.3554 32.8201C87.1627 33.9464 86.593 34.9104 85.6463 35.7124C84.704 36.5098 83.6656 36.9088 82.5348 36.9088H70.5583L72.4688 26.0977H77.7013L76.746 31.65H82.3025L83.2753 26.0977H88.5341Z" fill="#E31E24"/>
<path d="M89.0522 22.7586C89.0522 22.9951 89.0345 23.2274 88.9953 23.4598L88.7895 24.6298H72.7283L73.6574 19.3711H85.634C86.6289 19.3711 87.4439 19.6909 88.0881 20.335C88.7322 20.9792 89.0522 21.7857 89.0522 22.7586Z" fill="#FEFEFE"/>
<path d="M70.9883 26.0977L69.8137 32.8201C69.6211 33.9464 69.0513 34.9104 68.1047 35.7124C67.1627 36.5098 66.124 36.9088 64.9933 36.9088H57.1054C56.1105 36.9088 55.2955 36.589 54.6512 35.9446C54.007 35.3007 53.687 34.4941 53.687 33.5213C53.687 33.2845 53.7047 33.0523 53.7439 32.8201L54.8966 26.0977H60.1553L59.1825 31.65H64.7609L65.7296 26.0977H70.9883Z" fill="#E31E24"/>
<path d="M71.5101 22.7586C71.5101 22.9951 71.4882 23.2274 71.4487 23.4598L71.2473 24.6298H55.1775L55.3834 23.4685C55.5764 22.3378 56.1462 21.3736 57.0927 20.5716C58.0348 19.7696 59.0733 19.3711 60.204 19.3711H68.0919C69.0822 19.3711 69.902 19.6909 70.5461 20.335C71.186 20.9792 71.5101 21.7857 71.5101 22.7586Z" fill="#FEFEFE"/>
<path d="M48.0038 26.0977L46.1061 36.9088H40.8738L42.7714 26.0977H48.0038Z" fill="#E31E24"/>
<path d="M54.6337 19.3711L53.7003 24.6298H37.6306L38.5641 19.3711H54.6337Z" fill="#FEFEFE"/>
<path d="M30.0049 30.1778H23.839L23.5761 31.6502H29.7463L30.0049 30.1778ZM35.9385 26.0759C35.842 26.6807 35.3469 27.3642 34.4484 28.1269C34.9964 28.7929 35.2682 29.3804 35.2682 29.8885C35.2682 29.9848 35.2593 30.0814 35.2372 30.182L34.7728 32.8202C34.5756 33.9465 34.0058 34.9105 33.0639 35.7125C32.117 36.51 31.0787 36.9089 29.9523 36.9089H17.3884L19.3036 26.0759H35.9385Z" fill="#E31E24"/>
<path d="M36.4646 22.7586C36.4646 22.9951 36.447 23.2274 36.4077 23.4598L36.2016 24.6298H19.5579L20.4868 19.3711H33.0464C34.041 19.3711 34.8608 19.6909 35.5006 20.335C36.1445 20.9792 36.4646 21.7857 36.4646 22.7586Z" fill="#FEFEFE"/>
<path d="M16.644 36.9088H11.3852L11.2099 34.5687H6.25774L5.25854 36.9088H0L4.61005 26.1022H8.52341C9.38228 26.1022 9.82944 26.0977 9.8688 26.0977L8.15105 30.1777H10.9117L10.6051 26.1022H15.8552L16.644 36.9088Z" fill="#E31E24"/>
<path d="M15.7461 24.6298H5.2373L7.48113 19.3711H15.369L15.7461 24.6298Z" fill="#FEFEFE"/>
<path fill-rule="evenodd" clip-rule="evenodd" d="M3.99268 14.5311C23.1642 8.34525 27.3137 10.4652 44.676 14.202C30.2738 17.0063 20.9171 10.7082 3.99268 14.5311ZM27.6236 8.2239C20.1427 8.05575 13.0261 9.34282 6.13059 11.5135C15.3734 6.90529 27.5185 3.1094 44.0725 0.548231C49.7744 -0.168664 55.4762 -0.196689 61.1786 0.548231C69.0989 1.99892 75.7018 4.06903 81.1365 6.68913C84.8918 8.35371 89.5552 8.02194 94.0765 8.00463C105.234 8.02194 115.743 10.0344 125 15.9C110.974 12.2246 98.5241 12.1912 86.8389 13.9263C68.5029 16.9379 54.2174 14.9397 41.4406 11.0754C54.1364 12.1562 66.8338 13.2706 79.3821 9.75947C70.9611 5.77874 63.7697 2.7661 55.4768 2.52191C51.0873 2.25898 27.793 3.13928 27.6236 8.2239Z" fill="#E31E24"/>
<path d="M67.4274 47.3109C67.4455 47.4388 67.4525 47.5382 67.4509 47.6124C67.4492 47.6863 67.4257 47.7422 67.3787 47.7801C67.3299 47.8163 67.2543 47.8399 67.1459 47.8489C67.0375 47.8578 66.8893 47.8615 66.7016 47.8615C66.5644 47.8615 66.4543 47.8594 66.3676 47.8543C66.2829 47.8489 66.2161 47.838 66.1689 47.8236C66.124 47.811 66.0915 47.7892 66.0733 47.7605C66.0554 47.7333 66.0443 47.6937 66.041 47.6449L65.8549 46.2692H63.2915L62.5853 47.6124C62.5601 47.6628 62.5331 47.7043 62.5006 47.7368C62.4697 47.7712 62.4229 47.7964 62.3634 47.8147C62.3038 47.8306 62.2224 47.8432 62.1231 47.8506C62.0221 47.8578 61.8958 47.8615 61.7439 47.8615C61.5815 47.8615 61.4536 47.8559 61.3631 47.8452C61.2729 47.8343 61.2133 47.8089 61.1828 47.7694C61.1538 47.728 61.1503 47.6717 61.1719 47.5979C61.1954 47.5219 61.2403 47.4246 61.3071 47.3L64.6235 41.2248C64.6597 41.1655 64.696 41.1166 64.7302 41.0803C64.7665 41.0424 64.8169 41.0154 64.8837 40.9957C64.9484 40.9757 65.0372 40.9631 65.1508 40.9577C65.2629 40.952 65.409 40.9503 65.5915 40.9503C65.7972 40.9503 65.9596 40.952 66.0805 40.9577C66.1998 40.9631 66.2936 40.9757 66.3604 40.9957C66.4271 41.0154 66.4706 41.0445 66.4902 41.0824C66.5122 41.1218 66.5265 41.1743 66.5339 41.2411L67.4274 47.3109ZM65.3476 42.2901H65.3422L63.8184 45.1967H65.7393L65.3476 42.2901ZM73.8945 42.3785C73.8945 42.5863 73.8656 42.7828 73.8077 42.9671C73.75 43.1531 73.6653 43.3225 73.5553 43.476C73.4448 43.6296 73.3113 43.7651 73.1541 43.8824C72.9989 43.9996 72.824 44.0955 72.6309 44.1659C72.784 44.1927 72.927 44.2432 73.0548 44.3137C73.185 44.3842 73.295 44.4746 73.3871 44.5828C73.4792 44.6929 73.5516 44.8231 73.6021 44.9727C73.6525 45.1225 73.6779 45.2906 73.6779 45.4784C73.6779 45.6482 73.6542 45.8233 73.6095 46.0055C73.5641 46.1862 73.4918 46.3648 73.3927 46.5363C73.295 46.7096 73.1668 46.8757 73.008 47.0329C72.8512 47.1899 72.6597 47.3272 72.4357 47.4444C72.2138 47.5635 71.9556 47.6575 71.6649 47.7259C71.3724 47.7947 71.0329 47.8289 70.6465 47.8289H68.7456C68.6009 47.8289 68.4962 47.7927 68.4315 47.7222C68.3664 47.6521 68.3485 47.5419 68.381 47.3904L69.5725 41.4216C69.6013 41.2664 69.6625 41.1545 69.7602 41.0859C69.8577 41.0173 69.9696 40.9829 70.0979 40.9829H71.7479C72.1108 40.9829 72.4232 41.0119 72.6867 41.0678C72.9501 41.1238 73.1724 41.2085 73.3513 41.3243C73.5297 41.4379 73.6653 41.5823 73.7572 41.7575C73.8493 41.9326 73.8945 42.1383 73.8945 42.3785ZM72.4648 42.6384C72.4648 42.5391 72.4464 42.4527 72.4122 42.3785C72.3764 42.3044 72.3238 42.2392 72.2534 42.1871C72.1812 42.1346 72.0928 42.0931 71.9845 42.0661C71.8779 42.0373 71.7407 42.0227 71.5746 42.0227H70.8163L70.4625 43.7994H71.2443C71.4734 43.7994 71.663 43.7631 71.8147 43.691C71.9663 43.6186 72.0908 43.5265 72.1866 43.4113C72.2839 43.2974 72.3543 43.1711 72.3978 43.0338C72.4432 42.8966 72.4648 42.7649 72.4648 42.6384ZM72.2264 45.5488C72.2264 45.3232 72.1433 45.1445 71.9752 45.0141C71.8091 44.8826 71.5439 44.8175 71.1775 44.8175H70.2566L69.8665 46.7673H70.8488C71.098 46.7673 71.309 46.7314 71.4788 46.661C71.6502 46.5905 71.7912 46.4986 71.9014 46.3865C72.0131 46.2725 72.0945 46.1427 72.147 45.9964C72.1992 45.8503 72.2264 45.7003 72.2264 45.5488ZM80.004 41.205C80.004 41.2302 80.0007 41.2701 79.9952 41.3243C79.9898 41.3783 79.981 41.4395 79.9698 41.5063C79.9573 41.5734 79.941 41.6435 79.921 41.7161C79.9031 41.7882 79.8796 41.8549 79.8526 41.9143C79.8274 41.9743 79.7949 42.0227 79.7586 42.0626C79.7207 42.1004 79.6811 42.1204 79.6397 42.1204H77.924L76.8175 47.6396C76.8065 47.6738 76.7886 47.7063 76.7598 47.735C76.7326 47.7622 76.6893 47.7857 76.6314 47.8038C76.572 47.8201 76.4979 47.8343 76.4095 47.8452C76.3192 47.8559 76.2055 47.8615 76.0682 47.8615C75.9347 47.8615 75.8228 47.8559 75.7344 47.8452C75.6456 47.8343 75.5788 47.8201 75.5304 47.8038C75.4832 47.7857 75.4508 47.7622 75.4346 47.735C75.4199 47.7063 75.4146 47.6738 75.422 47.6396L76.5269 42.1204H74.8226C74.77 42.1204 74.7337 42.1004 74.7142 42.0626C74.6942 42.0227 74.6853 41.9705 74.6853 41.9038C74.6853 41.8747 74.687 41.8333 74.6925 41.7791C74.6979 41.7249 74.707 41.6635 74.7195 41.593C74.7321 41.5246 74.7467 41.4541 74.7663 41.382C74.7863 41.3097 74.81 41.2448 74.8368 41.1834C74.8658 41.1238 74.8963 41.075 74.9326 41.0387C74.9668 41.001 75.0066 40.9829 75.0482 40.9829H79.8705C79.9142 40.9829 79.9468 41.0029 79.9698 41.0408C79.9915 41.0803 80.004 41.1345 80.004 41.205ZM86.1371 43.2741C86.1371 43.5844 86.1081 43.9166 86.0524 44.2686C85.9962 44.6207 85.904 44.971 85.7796 45.3176C85.6549 45.6642 85.489 45.9964 85.285 46.3142C85.081 46.6321 84.8319 46.9119 84.5395 47.152C84.2467 47.3939 83.9021 47.587 83.5067 47.7317C83.1113 47.8757 82.6616 47.9482 82.158 47.9482C81.73 47.9482 81.3529 47.901 81.0259 47.8054C80.6993 47.7096 80.4232 47.5635 80.1992 47.3667C79.9752 47.1699 79.8054 46.9208 79.6902 46.6212C79.5763 46.3214 79.5188 45.9694 79.5188 45.563C79.5188 45.2329 79.5476 44.8863 79.6051 44.5251C79.6649 44.1639 79.757 43.8101 79.8868 43.4618C80.0152 43.1152 80.1846 42.7847 80.3923 42.4707C80.6 42.1562 80.8508 41.8801 81.1436 41.6402C81.4376 41.4016 81.7789 41.2122 82.1706 41.0729C82.5623 40.934 83.0082 40.8638 83.5047 40.8638C83.9326 40.8638 84.3101 40.9126 84.6351 41.0099C84.9617 41.1055 85.2362 41.2539 85.4602 41.4541C85.6821 41.6528 85.8499 41.9038 85.9657 42.2071C86.0792 42.5102 86.1371 42.8661 86.1371 43.2741ZM84.664 43.4039C84.664 43.1874 84.6405 42.9922 84.5916 42.8191C84.5449 42.6437 84.469 42.4958 84.3623 42.3765C84.2576 42.2576 84.1187 42.1636 83.9473 42.0987C83.7775 42.0336 83.5681 42.001 83.3206 42.001C83.014 42.001 82.7449 42.0608 82.5118 42.1782C82.279 42.2971 82.075 42.4507 81.9019 42.6421C81.73 42.8317 81.5837 43.0501 81.4685 43.2937C81.3509 43.5393 81.2588 43.7884 81.1885 44.0413C81.1164 44.2921 81.0675 44.5393 81.0368 44.7796C81.0063 45.0178 80.9917 45.2292 80.9917 45.4079C80.9917 45.6263 81.0152 45.8233 81.064 45.9964C81.111 46.1678 81.1885 46.3142 81.2967 46.4316C81.4034 46.5507 81.5444 46.641 81.7142 46.7042C81.8856 46.7673 82.0966 46.7998 82.3478 46.7998C82.6507 46.7998 82.9182 46.7422 83.1508 46.6247C83.3837 46.5091 83.586 46.3556 83.7575 46.1679C83.9273 45.9785 84.0715 45.7635 84.1871 45.52C84.3046 45.276 84.3986 45.0287 84.469 44.7796C84.5395 44.5288 84.59 44.2832 84.6188 44.0429C84.6493 43.8031 84.664 43.59 84.664 43.4039ZM92.3167 41.6493C92.3167 41.7465 92.3005 41.8801 92.2663 42.0462C92.2337 42.2125 92.1906 42.346 92.1399 42.4453C92.0895 42.5463 92.0318 42.5968 91.9685 42.5968C91.9213 42.5968 91.8673 42.5679 91.8041 42.5086C91.741 42.4507 91.658 42.3876 91.5551 42.3206C91.454 42.2539 91.3223 42.1908 91.1651 42.1329C91.0062 42.0736 90.8075 42.0445 90.573 42.0445C90.3111 42.0445 90.0729 42.0969 89.858 42.1997C89.6433 42.3044 89.4498 42.4416 89.282 42.613C89.1122 42.7828 88.9645 42.9796 88.8378 43.2016C88.7098 43.4239 88.6049 43.6532 88.5221 43.8931C88.439 44.1334 88.3776 44.3716 88.3377 44.6098C88.2962 44.8464 88.2767 45.0683 88.2767 45.2723C88.2767 45.5179 88.3072 45.7345 88.3686 45.9222C88.4318 46.1085 88.5202 46.2637 88.6358 46.3865C88.7531 46.5091 88.8957 46.6033 89.0655 46.6647C89.2353 46.7259 89.4246 46.7568 89.6377 46.7568C89.8868 46.7568 90.1018 46.7294 90.2806 46.6772C90.4574 46.6247 90.6089 46.5653 90.7354 46.5021C90.8601 46.4386 90.9648 46.3793 91.0458 46.3267C91.129 46.2746 91.2046 46.2474 91.2714 46.2474C91.3167 46.2474 91.3476 46.2637 91.3619 46.2981C91.3781 46.3304 91.3853 46.3776 91.3853 46.4386C91.3853 46.4623 91.3818 46.5002 91.3744 46.5491C91.3672 46.5996 91.3581 46.6537 91.3493 46.7168C91.3386 46.7782 91.3256 46.845 91.3114 46.9171C91.2969 46.9896 91.2807 47.0564 91.2644 47.1194C91.2462 47.1807 91.2267 47.2369 91.203 47.289C91.1795 47.3397 91.1488 47.3847 91.1109 47.423C91.0711 47.4626 90.9953 47.513 90.8834 47.5744C90.7713 47.6358 90.6324 47.6938 90.4721 47.7459C90.3095 47.8001 90.1251 47.8452 89.9211 47.8815C89.7171 47.9194 89.4988 47.9373 89.2658 47.9373C88.8831 47.9373 88.5365 47.8868 88.2278 47.7838C87.9191 47.6808 87.6572 47.5277 87.4423 47.3179C87.2276 47.1106 87.0615 46.8503 86.9459 46.5363C86.8285 46.222 86.7708 45.8554 86.7708 45.4369C86.7708 45.1083 86.805 44.7689 86.8717 44.413C86.9385 44.0592 87.0399 43.7126 87.175 43.3751C87.3106 43.0375 87.4821 42.7161 87.6914 42.4127C87.8992 42.1094 88.1448 41.8442 88.4281 41.6167C88.7115 41.3911 89.0348 41.2085 89.3958 41.075C89.7568 40.9415 90.1576 40.8747 90.5982 40.8747C90.8454 40.8747 91.0783 40.8998 91.2988 40.952C91.5191 41.0029 91.712 41.0713 91.8745 41.1562C92.039 41.2411 92.1544 41.3169 92.2195 41.3853C92.2846 41.4542 92.3167 41.5425 92.3167 41.6493ZM97.4568 41.185C97.4568 41.2069 97.4551 41.2427 97.4496 41.2969C97.4442 41.3495 97.4352 41.409 97.4242 41.4741C97.4154 41.5388 97.4009 41.6077 97.3828 41.6781C97.3649 41.7503 97.3433 41.8133 97.3161 41.8729C97.2907 41.9306 97.2581 41.9794 97.2223 42.0194C97.1844 42.0573 97.1444 42.0769 97.103 42.0769H94.6584L94.3244 43.7452H96.3989C96.4477 43.7452 96.4836 43.7631 96.5035 43.7973C96.5252 43.8336 96.5361 43.8824 96.5361 43.9457C96.5361 43.9708 96.5345 44.0087 96.5289 44.0592C96.5235 44.1097 96.5145 44.1694 96.5035 44.2344C96.4945 44.2995 96.4803 44.3642 96.4619 44.4311C96.444 44.4981 96.4226 44.5593 96.3952 44.6172C96.37 44.6733 96.3375 44.7182 96.3032 44.7545C96.267 44.7887 96.2291 44.8068 96.1858 44.8068H94.1132L93.7271 46.7347H96.2037C96.2453 46.7347 96.2779 46.7531 96.2979 46.791C96.3195 46.827 96.3305 46.8812 96.3305 46.9534C96.3305 46.9767 96.3284 47.0166 96.3247 47.069C96.3212 47.1232 96.3142 47.1827 96.3016 47.2474C96.2888 47.3125 96.2742 47.3793 96.2563 47.4461C96.2381 47.513 96.2165 47.5761 96.1911 47.6358C96.1644 47.6937 96.1334 47.7405 96.0992 47.7764C96.063 47.811 96.0234 47.8289 95.9783 47.8289H92.537C92.4812 47.8289 92.4289 47.8217 92.3835 47.8054C92.3367 47.7892 92.2988 47.7622 92.27 47.7259C92.2395 47.688 92.2195 47.6428 92.2086 47.5886C92.1978 47.5328 92.1995 47.4677 92.2141 47.3904L93.4056 41.4216C93.4379 41.2664 93.5014 41.1545 93.5987 41.0859C93.6945 41.0173 93.8027 40.9829 93.9201 40.9829H97.3196C97.4117 40.9829 97.4568 41.0498 97.4568 41.185ZM103.088 42.6619C103.088 42.8587 103.066 43.0643 103.021 43.2811C102.978 43.496 102.905 43.7073 102.808 43.9131C102.709 44.1206 102.58 44.3158 102.424 44.5014C102.266 44.6858 102.075 44.8501 101.846 44.9927C101.618 45.1371 101.354 45.2492 101.055 45.3323C100.755 45.4153 100.403 45.4567 99.9967 45.4567H99.2821L98.845 47.6449C98.8399 47.6791 98.8215 47.7117 98.7927 47.7405C98.7636 47.7675 98.7206 47.791 98.661 47.8089C98.5996 47.8252 98.5238 47.8399 98.4317 47.8489C98.3414 47.8578 98.2277 47.8615 98.0942 47.8615C97.9623 47.8615 97.8555 47.8578 97.7692 47.8489C97.6824 47.8399 97.6157 47.8252 97.5652 47.8089C97.5164 47.791 97.4838 47.7694 97.4659 47.7422C97.4475 47.7154 97.4442 47.6828 97.4549 47.6449L98.6899 41.4811C98.7206 41.3153 98.789 41.1906 98.8955 41.1075C99.0002 41.0245 99.1302 40.9829 99.2837 40.9829H100.78C100.965 40.9829 101.129 40.9882 101.274 41.001C101.418 41.0136 101.561 41.0336 101.701 41.0624C101.916 41.1038 102.109 41.1708 102.281 41.259C102.452 41.3457 102.597 41.4558 102.718 41.5893C102.837 41.7212 102.929 41.8766 102.992 42.0552C103.055 42.2341 103.088 42.4344 103.088 42.6619ZM101.625 42.8191C101.625 42.6493 101.586 42.5032 101.504 42.3785C101.423 42.2555 101.297 42.1692 101.129 42.1183C101.055 42.0952 100.972 42.0769 100.88 42.0678C100.788 42.0589 100.687 42.0552 100.573 42.0552H99.9609L99.495 44.3842H100.132C100.334 44.3842 100.508 44.3609 100.65 44.312C100.795 44.2653 100.919 44.2018 101.028 44.1243C101.136 44.0466 101.228 43.9545 101.304 43.8482C101.38 43.7417 101.441 43.6316 101.49 43.514C101.537 43.3967 101.573 43.2795 101.593 43.162C101.615 43.0427 101.625 42.9291 101.625 42.8191ZM108.777 42.3785C108.777 42.5863 108.748 42.7828 108.69 42.9671C108.632 43.1531 108.548 43.3225 108.438 43.476C108.327 43.6296 108.194 43.7651 108.036 43.8824C107.881 43.9996 107.706 44.0955 107.513 44.1659C107.666 44.1927 107.809 44.2432 107.937 44.3137C108.067 44.3842 108.177 44.4746 108.269 44.5828C108.362 44.6929 108.434 44.8231 108.484 44.9727C108.535 45.1225 108.56 45.2906 108.56 45.4784C108.56 45.6482 108.537 45.8233 108.492 46.0055C108.447 46.1862 108.374 46.3648 108.275 46.5363C108.177 46.7096 108.049 46.8757 107.89 47.0329C107.733 47.1899 107.542 47.3272 107.318 47.4444C107.096 47.5635 106.838 47.6575 106.547 47.7259C106.255 47.7947 105.915 47.8289 105.529 47.8289H103.628C103.483 47.8289 103.378 47.7927 103.314 47.7222C103.248 47.6521 103.23 47.5419 103.263 47.3904L104.455 41.4216C104.484 41.2664 104.545 41.1545 104.642 41.0859C104.74 41.0173 104.852 40.9829 104.98 40.9829H106.63C106.993 40.9829 107.305 41.0119 107.569 41.0678C107.832 41.1238 108.055 41.2085 108.233 41.3243C108.412 41.4379 108.548 41.5823 108.64 41.7575C108.732 41.9326 108.777 42.1383 108.777 42.3785ZM107.347 42.6384C107.347 42.5391 107.328 42.4527 107.294 42.3785C107.258 42.3044 107.206 42.2392 107.136 42.1871C107.063 42.1346 106.975 42.0931 106.867 42.0661C106.76 42.0373 106.623 42.0227 106.457 42.0227H105.698L105.344 43.7994H106.126C106.356 43.7994 106.545 43.7631 106.697 43.691C106.848 43.6186 106.973 43.5265 107.069 43.4113C107.166 43.2974 107.237 43.1711 107.28 43.0338C107.325 42.8966 107.347 42.7649 107.347 42.6384ZM107.109 45.5488C107.109 45.3232 107.026 45.1445 106.857 45.0141C106.691 44.8826 106.426 44.8175 106.06 44.8175H105.139L104.749 46.7673H105.731C105.98 46.7673 106.191 46.7314 106.361 46.661C106.532 46.5905 106.673 46.4986 106.784 46.3865C106.895 46.2725 106.977 46.1427 107.029 45.9964C107.081 45.8503 107.109 45.7003 107.109 45.5488ZM114.852 47.6503C114.845 47.6845 114.829 47.7154 114.8 47.7422C114.773 47.7694 114.729 47.791 114.672 47.8089C114.614 47.8252 114.54 47.8399 114.449 47.8489C114.357 47.8578 114.247 47.8615 114.114 47.8615C113.974 47.8615 113.861 47.8578 113.774 47.8489C113.687 47.8399 113.619 47.8252 113.572 47.8089C113.523 47.791 113.491 47.7694 113.475 47.7422C113.458 47.7154 113.455 47.6845 113.462 47.6503L114.054 44.7075C114.076 44.6009 114.097 44.4909 114.121 44.3737C114.144 44.2578 114.168 44.1387 114.193 44.0178C114.216 43.8952 114.245 43.7742 114.278 43.6512C114.308 43.5302 114.339 43.4167 114.368 43.3099C114.209 43.5212 114.043 43.7363 113.872 43.9508C113.698 44.1659 113.529 44.3699 113.362 44.5649L110.645 47.6554C110.609 47.697 110.573 47.7317 110.533 47.7584C110.495 47.7856 110.449 47.8054 110.394 47.8217C110.34 47.838 110.275 47.8489 110.201 47.8543C110.125 47.8594 110.032 47.8615 109.92 47.8615C109.781 47.8615 109.669 47.8578 109.584 47.8506C109.499 47.8432 109.432 47.8306 109.383 47.8147C109.337 47.7964 109.306 47.7731 109.291 47.7422C109.277 47.7117 109.275 47.6738 109.286 47.6286L110.586 41.1617C110.59 41.1271 110.606 41.0966 110.636 41.0696C110.665 41.0424 110.711 41.0208 110.768 41.0029C110.826 40.9866 110.9 40.972 110.99 40.9631C111.081 40.954 111.192 40.9503 111.326 40.9503C111.461 40.9503 111.572 40.954 111.658 40.9631C111.743 40.972 111.812 40.9866 111.861 41.0029C111.911 41.0208 111.944 41.0424 111.962 41.0696C111.98 41.0966 111.985 41.1271 111.978 41.1617L111.331 44.359C111.315 44.4439 111.294 44.536 111.27 44.6387C111.245 44.7417 111.221 44.8447 111.2 44.9473C111.178 45.0524 111.157 45.1571 111.131 45.2597C111.106 45.3648 111.081 45.46 111.055 45.5488H111.066C111.129 45.4567 111.198 45.3611 111.274 45.2597C111.35 45.1608 111.429 45.0578 111.508 44.9568C111.59 44.8538 111.671 44.7545 111.752 44.6607C111.833 44.5649 111.909 44.4746 111.98 44.3899L114.762 41.1887C114.805 41.1434 114.847 41.1038 114.886 41.0713C114.928 41.0408 114.977 41.0154 115.033 40.9973C115.089 40.981 115.155 40.9682 115.231 40.9614C115.307 40.954 115.401 40.9503 115.511 40.9503C115.648 40.9503 115.758 40.954 115.845 40.9631C115.932 40.972 115.998 40.9866 116.045 41.0029C116.093 41.0208 116.125 41.0424 116.139 41.0696C116.156 41.0966 116.161 41.1271 116.154 41.1617L114.852 47.6503ZM122.115 41.6493C122.115 41.7465 122.099 41.8801 122.064 42.0462C122.032 42.2125 121.989 42.346 121.938 42.4453C121.888 42.5463 121.83 42.5968 121.767 42.5968C121.72 42.5968 121.666 42.5679 121.602 42.5086C121.539 42.4507 121.456 42.3876 121.354 42.3206C121.252 42.2539 121.121 42.1908 120.963 42.1329C120.805 42.0736 120.606 42.0445 120.371 42.0445C120.109 42.0445 119.871 42.0969 119.656 42.1997C119.442 42.3044 119.248 42.4416 119.08 42.613C118.91 42.7828 118.763 42.9796 118.636 43.2016C118.508 43.4239 118.403 43.6532 118.32 43.8931C118.237 44.1334 118.176 44.3716 118.136 44.6098C118.094 44.8464 118.075 45.0683 118.075 45.2723C118.075 45.5179 118.105 45.7345 118.167 45.9222C118.23 46.1085 118.318 46.2637 118.434 46.3865C118.551 46.5091 118.694 46.6033 118.864 46.6647C119.034 46.7259 119.223 46.7568 119.436 46.7568C119.685 46.7568 119.9 46.7294 120.079 46.6772C120.256 46.6247 120.407 46.5653 120.534 46.5021C120.658 46.4386 120.763 46.3793 120.844 46.3267C120.927 46.2746 121.003 46.2474 121.07 46.2474C121.115 46.2474 121.146 46.2637 121.16 46.2981C121.176 46.3304 121.184 46.3776 121.184 46.4386C121.184 46.4623 121.18 46.5002 121.173 46.5491C121.165 46.5996 121.156 46.6537 121.148 46.7168C121.137 46.7782 121.124 46.845 121.11 46.9171C121.095 46.9896 121.079 47.0564 121.063 47.1194C121.044 47.1807 121.025 47.2369 121.001 47.289C120.978 47.3397 120.947 47.3847 120.909 47.423C120.869 47.4626 120.793 47.513 120.682 47.5744C120.57 47.6358 120.431 47.6938 120.27 47.7459C120.108 47.8001 119.923 47.8452 119.719 47.8815C119.515 47.9194 119.297 47.9373 119.064 47.9373C118.681 47.9373 118.335 47.8868 118.026 47.7838C117.717 47.6808 117.455 47.5277 117.241 47.3179C117.026 47.1106 116.86 46.8503 116.744 46.5363C116.627 46.222 116.569 45.8554 116.569 45.4369C116.569 45.1083 116.603 44.7689 116.67 44.413C116.737 44.0592 116.838 43.7126 116.973 43.3751C117.109 43.0375 117.28 42.7161 117.49 42.4127C117.697 42.1094 117.943 41.8442 118.226 41.6167C118.51 41.3911 118.833 41.2085 119.194 41.075C119.555 40.9415 119.956 40.8747 120.396 40.8747C120.644 40.8747 120.877 40.8998 121.097 40.952C121.317 41.0029 121.51 41.0713 121.673 41.1562C121.837 41.2411 121.953 41.3169 122.018 41.3853C122.083 41.4542 122.115 41.5425 122.115 41.6493Z" fill="#FEFEFE"/>
</svg>
