<svg width="125" height="48" viewBox="0 0 125 48" fill="none" xmlns="http://www.w3.org/2000/svg">
<path d="M121.66 36.9088H115.503L112.103 29.6562L110.823 36.9088H105.591L107.501 26.0977H119.198L117.506 28.1397L121.66 36.9088Z" fill="#E31E24"/>
<path d="M113.921 19.3711L112.992 24.6298H107.76L108.689 19.3711H113.921Z" fill="black"/>
<path d="M124.763 19.3711L120.377 24.6298H114.268L118.619 19.3711H124.763Z" fill="black"/>
<path d="M106.046 26.0977L104.872 32.8201C104.679 33.9464 104.11 34.9104 103.163 35.7124C102.221 36.5098 101.182 36.9088 100.051 36.9088H92.1635C91.1689 36.9088 90.3537 36.589 89.7095 35.9446C89.0654 35.3007 88.7454 34.4941 88.7454 33.5213C88.7454 33.2845 88.7631 33.0523 88.8023 32.8201L89.955 26.0977H95.2135L94.2409 31.65H99.8192L100.788 26.0977H106.046Z" fill="#E31E24"/>
<path d="M106.568 22.7586C106.568 22.9951 106.546 23.2274 106.507 23.4598L106.305 24.6298H90.2354L90.4412 23.4685C90.6343 22.3378 91.2038 21.3736 92.1503 20.5716C93.0926 19.7696 94.131 19.3711 95.2619 19.3711H103.15C104.14 19.3711 104.96 19.6909 105.604 20.335C106.244 20.9792 106.568 21.7857 106.568 22.7586Z" fill="black"/>
<path d="M88.5341 26.0977L87.3554 32.8201C87.1627 33.9464 86.593 34.9104 85.6463 35.7124C84.704 36.5098 83.6656 36.9088 82.5348 36.9088H70.5583L72.4688 26.0977H77.7013L76.746 31.65H82.3025L83.2753 26.0977H88.5341Z" fill="#E31E24"/>
<path d="M89.0522 22.7586C89.0522 22.9951 89.0345 23.2274 88.9953 23.4598L88.7895 24.6298H72.7283L73.6574 19.3711H85.634C86.6289 19.3711 87.4439 19.6909 88.0881 20.335C88.7322 20.9792 89.0522 21.7857 89.0522 22.7586Z" fill="black"/>
<path d="M70.9883 26.0977L69.8137 32.8201C69.6211 33.9464 69.0513 34.9104 68.1047 35.7124C67.1627 36.5098 66.124 36.9088 64.9933 36.9088H57.1054C56.1105 36.9088 55.2955 36.589 54.6512 35.9446C54.007 35.3007 53.687 34.4941 53.687 33.5213C53.687 33.2845 53.7047 33.0523 53.7439 32.8201L54.8966 26.0977H60.1553L59.1825 31.65H64.7609L65.7296 26.0977H70.9883Z" fill="#E31E24"/>
<path d="M71.5101 22.7586C71.5101 22.9951 71.4882 23.2274 71.4487 23.4598L71.2473 24.6298H55.1775L55.3834 23.4685C55.5764 22.3378 56.1462 21.3736 57.0927 20.5716C58.0348 19.7696 59.0733 19.3711 60.204 19.3711H68.0919C69.0822 19.3711 69.902 19.6909 70.5461 20.335C71.186 20.9792 71.5101 21.7857 71.5101 22.7586Z" fill="black"/>
<path d="M48.0038 26.0977L46.1061 36.9088H40.8738L42.7714 26.0977H48.0038Z" fill="#E31E24"/>
<path d="M54.6337 19.3711L53.7003 24.6298H37.6306L38.5641 19.3711H54.6337Z" fill="black"/>
<path d="M30.0049 30.1781H23.839L23.5761 31.6504H29.7463L30.0049 30.1781ZM35.9385 26.0762C35.842 26.681 35.3469 27.3645 34.4484 28.1271C34.9964 28.7931 35.2682 29.3806 35.2682 29.8888C35.2682 29.985 35.2593 30.0817 35.2372 30.1822L34.7728 32.8204C34.5756 33.9468 34.0058 34.9107 33.0639 35.7127C32.117 36.5102 31.0787 36.9092 29.9523 36.9092H17.3884L19.3036 26.0762H35.9385Z" fill="#E31E24"/>
<path d="M36.4646 22.7586C36.4646 22.9951 36.447 23.2274 36.4077 23.4598L36.2016 24.6298H19.5579L20.4868 19.3711H33.0464C34.041 19.3711 34.8608 19.6909 35.5006 20.335C36.1445 20.9792 36.4646 21.7857 36.4646 22.7586Z" fill="black"/>
<path d="M16.644 36.9088H11.3852L11.2099 34.5687H6.25774L5.25854 36.9088H0L4.61005 26.1022H8.52341C9.38228 26.1022 9.82944 26.0977 9.8688 26.0977L8.15105 30.1777H10.9117L10.6051 26.1022H15.8552L16.644 36.9088Z" fill="#E31E24"/>
<path d="M15.7461 24.6298H5.2373L7.48113 19.3711H15.369L15.7461 24.6298Z" fill="black"/>
<path fill-rule="evenodd" clip-rule="evenodd" d="M3.99268 14.5311C23.1642 8.34525 27.3137 10.4652 44.676 14.202C30.2738 17.0063 20.9171 10.7082 3.99268 14.5311ZM27.6236 8.2239C20.1427 8.05575 13.0261 9.34282 6.13059 11.5135C15.3734 6.90529 27.5185 3.1094 44.0725 0.548231C49.7744 -0.168664 55.4762 -0.196689 61.1786 0.548231C69.0989 1.99892 75.7018 4.06903 81.1365 6.68913C84.8918 8.35371 89.5552 8.02194 94.0765 8.00463C105.234 8.02194 115.743 10.0344 125 15.9C110.974 12.2246 98.5241 12.1912 86.8389 13.9263C68.5029 16.9379 54.2174 14.9397 41.4406 11.0754C54.1364 12.1562 66.8338 13.2706 79.3821 9.75947C70.9611 5.77874 63.7697 2.7661 55.4768 2.52191C51.0873 2.25898 27.793 3.13928 27.6236 8.2239Z" fill="#E31E24"/>
<path d="M67.4274 47.3114C67.4455 47.4393 67.4525 47.5387 67.4509 47.6128C67.4492 47.6868 67.4257 47.7427 67.3787 47.7806C67.3299 47.8168 67.2543 47.8403 67.1459 47.8494C67.0375 47.8583 66.8893 47.862 66.7016 47.862C66.5644 47.862 66.4543 47.8599 66.3676 47.8548C66.2829 47.8494 66.2161 47.8385 66.1689 47.8241C66.124 47.8115 66.0915 47.7897 66.0733 47.761C66.0554 47.7338 66.0443 47.6942 66.041 47.6454L65.8549 46.2697H63.2915L62.5853 47.6128C62.5601 47.6633 62.5331 47.7047 62.5006 47.7373C62.4697 47.7717 62.4229 47.7969 62.3634 47.8152C62.3038 47.8311 62.2224 47.8436 62.1231 47.8511C62.0221 47.8583 61.8958 47.862 61.7439 47.862C61.5815 47.862 61.4536 47.8564 61.3631 47.8457C61.2729 47.8348 61.2133 47.8094 61.1828 47.7699C61.1538 47.7284 61.1503 47.6722 61.1719 47.5984C61.1954 47.5224 61.2403 47.4251 61.3071 47.3004L64.6235 41.2253C64.6597 41.1659 64.696 41.1171 64.7302 41.0808C64.7665 41.0429 64.8169 41.0159 64.8837 40.9961C64.9484 40.9762 65.0372 40.9636 65.1508 40.9582C65.2629 40.9525 65.409 40.9508 65.5915 40.9508C65.7972 40.9508 65.9596 40.9525 66.0805 40.9582C66.1998 40.9636 66.2936 40.9762 66.3604 40.9961C66.4271 41.0159 66.4706 41.045 66.4902 41.0829C66.5122 41.1223 66.5265 41.1748 66.5339 41.2416L67.4274 47.3114ZM65.3476 42.2906H65.3422L63.8184 45.1972H65.7393L65.3476 42.2906ZM73.8945 42.379C73.8945 42.5867 73.8656 42.7833 73.8077 42.9676C73.75 43.1536 73.6653 43.323 73.5553 43.4765C73.4448 43.6301 73.3113 43.7656 73.1541 43.8829C72.9989 44.0001 72.824 44.096 72.6309 44.1664C72.784 44.1932 72.927 44.2437 73.0548 44.3142C73.185 44.3846 73.295 44.4751 73.3871 44.5833C73.4792 44.6933 73.5516 44.8236 73.6021 44.9732C73.6525 45.123 73.6779 45.2911 73.6779 45.4789C73.6779 45.6487 73.6542 45.8238 73.6095 46.006C73.5641 46.1867 73.4918 46.3653 73.3927 46.5368C73.295 46.7101 73.1668 46.8762 73.008 47.0334C72.8512 47.1904 72.6597 47.3276 72.4357 47.4449C72.2138 47.564 71.9556 47.658 71.6649 47.7264C71.3724 47.7952 71.0329 47.8294 70.6465 47.8294H68.7456C68.6009 47.8294 68.4962 47.7931 68.4315 47.7227C68.3664 47.6526 68.3485 47.5424 68.381 47.3909L69.5725 41.4221C69.6013 41.2669 69.6625 41.155 69.7602 41.0864C69.8577 41.0178 69.9696 40.9834 70.0979 40.9834H71.7479C72.1108 40.9834 72.4232 41.0124 72.6867 41.0683C72.9501 41.1243 73.1724 41.209 73.3513 41.3248C73.5297 41.4383 73.6653 41.5828 73.7572 41.758C73.8493 41.9331 73.8945 42.1388 73.8945 42.379ZM72.4648 42.6389C72.4648 42.5396 72.4464 42.4532 72.4122 42.379C72.3764 42.3048 72.3238 42.2397 72.2534 42.1876C72.1812 42.135 72.0928 42.0936 71.9845 42.0666C71.8779 42.0378 71.7407 42.0232 71.5746 42.0232H70.8163L70.4625 43.7998H71.2443C71.4734 43.7998 71.663 43.7636 71.8147 43.6915C71.9663 43.6191 72.0908 43.527 72.1866 43.4118C72.2839 43.2979 72.3543 43.1716 72.3978 43.0343C72.4432 42.8971 72.4648 42.7654 72.4648 42.6389ZM72.2264 45.5493C72.2264 45.3237 72.1433 45.145 71.9752 45.0146C71.8091 44.8831 71.5439 44.818 71.1775 44.818H70.2566L69.8665 46.7678H70.8488C71.098 46.7678 71.309 46.7319 71.4788 46.6614C71.6502 46.591 71.7912 46.4991 71.9014 46.387C72.0131 46.273 72.0945 46.1432 72.147 45.9969C72.1992 45.8508 72.2264 45.7008 72.2264 45.5493ZM80.004 41.2055C80.004 41.2307 80.0007 41.2706 79.9952 41.3248C79.9898 41.3788 79.981 41.44 79.9698 41.5068C79.9573 41.5739 79.941 41.644 79.921 41.7165C79.9031 41.7887 79.8796 41.8554 79.8526 41.9148C79.8274 41.9747 79.7949 42.0232 79.7586 42.0631C79.7207 42.1008 79.6811 42.1208 79.6397 42.1208H77.924L76.8175 47.64C76.8065 47.6743 76.7886 47.7068 76.7598 47.7355C76.7326 47.7627 76.6893 47.7861 76.6314 47.8043C76.572 47.8206 76.4979 47.8348 76.4095 47.8457C76.3192 47.8564 76.2055 47.862 76.0682 47.862C75.9347 47.862 75.8228 47.8564 75.7344 47.8457C75.6456 47.8348 75.5788 47.8206 75.5304 47.8043C75.4832 47.7861 75.4508 47.7627 75.4346 47.7355C75.4199 47.7068 75.4146 47.6743 75.422 47.64L76.5269 42.1208H74.8226C74.77 42.1208 74.7337 42.1008 74.7142 42.0631C74.6942 42.0232 74.6853 41.971 74.6853 41.9043C74.6853 41.8752 74.687 41.8338 74.6925 41.7796C74.6979 41.7254 74.707 41.664 74.7195 41.5935C74.7321 41.5251 74.7467 41.4546 74.7663 41.3825C74.7863 41.3102 74.81 41.2453 74.8368 41.1839C74.8658 41.1243 74.8963 41.0755 74.9326 41.0392C74.9668 41.0015 75.0066 40.9834 75.0482 40.9834H79.8705C79.9142 40.9834 79.9468 41.0033 79.9698 41.0413C79.9915 41.0808 80.004 41.135 80.004 41.2055ZM86.1371 43.2746C86.1371 43.5849 86.1081 43.9171 86.0524 44.2691C85.9962 44.6212 85.904 44.9715 85.7796 45.3181C85.6549 45.6647 85.489 45.9969 85.285 46.3146C85.081 46.6326 84.8319 46.9124 84.5395 47.1525C84.2467 47.3944 83.9021 47.5875 83.5067 47.7322C83.1113 47.8762 82.6616 47.9487 82.158 47.9487C81.73 47.9487 81.3529 47.9015 81.0259 47.8059C80.6993 47.7101 80.4232 47.564 80.1992 47.3672C79.9752 47.1704 79.8054 46.9213 79.6902 46.6217C79.5763 46.3219 79.5188 45.9699 79.5188 45.5635C79.5188 45.2334 79.5476 44.8868 79.6051 44.5256C79.6649 44.1644 79.757 43.8106 79.8868 43.4623C80.0152 43.1157 80.1846 42.7852 80.3923 42.4712C80.6 42.1567 80.8508 41.8806 81.1436 41.6407C81.4376 41.4021 81.7789 41.2127 82.1706 41.0734C82.5623 40.9345 83.0082 40.8643 83.5047 40.8643C83.9326 40.8643 84.3101 40.9131 84.6351 41.0104C84.9617 41.106 85.2362 41.2543 85.4602 41.4546C85.6821 41.6533 85.8499 41.9043 85.9657 42.2076C86.0792 42.5107 86.1371 42.8666 86.1371 43.2746ZM84.664 43.4044C84.664 43.1878 84.6405 42.9927 84.5916 42.8196C84.5449 42.6442 84.469 42.4963 84.3623 42.377C84.2576 42.2581 84.1187 42.1641 83.9473 42.0992C83.7775 42.0341 83.5681 42.0015 83.3206 42.0015C83.014 42.0015 82.7449 42.0613 82.5118 42.1787C82.279 42.2976 82.075 42.4511 81.9019 42.6426C81.73 42.8322 81.5837 43.0506 81.4685 43.2942C81.3509 43.5398 81.2588 43.7889 81.1885 44.0418C81.1164 44.2925 81.0675 44.5398 81.0368 44.7801C81.0063 45.0183 80.9917 45.2297 80.9917 45.4084C80.9917 45.6268 81.0152 45.8238 81.064 45.9969C81.111 46.1683 81.1885 46.3146 81.2967 46.4321C81.4034 46.5512 81.5444 46.6414 81.7142 46.7047C81.8856 46.7678 82.0966 46.8003 82.3478 46.8003C82.6507 46.8003 82.9182 46.7426 83.1508 46.6252C83.3837 46.5096 83.586 46.3561 83.7575 46.1683C83.9273 45.979 84.0715 45.764 84.1871 45.5205C84.3046 45.2765 84.3986 45.0292 84.469 44.7801C84.5395 44.5293 84.59 44.2837 84.6188 44.0434C84.6493 43.8036 84.664 43.5905 84.664 43.4044ZM92.3167 41.6498C92.3167 41.747 92.3005 41.8806 92.2663 42.0466C92.2337 42.2129 92.1906 42.3465 92.1399 42.4458C92.0895 42.5468 92.0318 42.5972 91.9685 42.5972C91.9213 42.5972 91.8673 42.5684 91.8041 42.5091C91.741 42.4512 91.658 42.3881 91.5551 42.3211C91.454 42.2544 91.3223 42.1913 91.1651 42.1334C91.0062 42.0741 90.8075 42.045 90.573 42.045C90.3111 42.045 90.0729 42.0973 89.858 42.2002C89.6433 42.3048 89.4498 42.4421 89.282 42.6135C89.1122 42.7833 88.9645 42.9801 88.8378 43.2021C88.7098 43.4244 88.6049 43.6537 88.5221 43.8936C88.439 44.1339 88.3776 44.3721 88.3377 44.6103C88.2962 44.8468 88.2767 45.0688 88.2767 45.2728C88.2767 45.5184 88.3072 45.735 88.3686 45.9227C88.4318 46.109 88.5202 46.2641 88.6358 46.387C88.7531 46.5096 88.8957 46.6037 89.0655 46.6651C89.2353 46.7263 89.4246 46.7573 89.6377 46.7573C89.8868 46.7573 90.1018 46.7299 90.2806 46.6777C90.4574 46.6252 90.6089 46.5658 90.7354 46.5026C90.8601 46.4391 90.9648 46.3798 91.0458 46.3272C91.129 46.2751 91.2046 46.2479 91.2714 46.2479C91.3167 46.2479 91.3476 46.2641 91.3619 46.2986C91.3781 46.3309 91.3853 46.3781 91.3853 46.4391C91.3853 46.4628 91.3818 46.5007 91.3744 46.5496C91.3672 46.6 91.3581 46.6542 91.3493 46.7173C91.3386 46.7787 91.3256 46.8455 91.3114 46.9176C91.2969 46.9901 91.2807 47.0569 91.2644 47.1199C91.2462 47.1811 91.2267 47.2374 91.203 47.2895C91.1795 47.3402 91.1488 47.3852 91.1109 47.4235C91.0711 47.463 90.9953 47.5135 90.8834 47.5749C90.7713 47.6363 90.6324 47.6942 90.4721 47.7464C90.3095 47.8006 90.1251 47.8457 89.9211 47.882C89.7171 47.9199 89.4988 47.9378 89.2658 47.9378C88.8831 47.9378 88.5365 47.8873 88.2278 47.7843C87.9191 47.6813 87.6572 47.5281 87.4423 47.3184C87.2276 47.1111 87.0615 46.8508 86.9459 46.5368C86.8285 46.2225 86.7708 45.8559 86.7708 45.4374C86.7708 45.1087 86.805 44.7694 86.8717 44.4135C86.9385 44.0597 87.0399 43.7131 87.175 43.3756C87.3106 43.038 87.4821 42.7166 87.6914 42.4132C87.8992 42.1099 88.1448 41.8447 88.4281 41.6172C88.7115 41.3916 89.0348 41.209 89.3958 41.0755C89.7568 40.9419 90.1576 40.8752 90.5982 40.8752C90.8454 40.8752 91.0783 40.9003 91.2988 40.9525C91.5191 41.0034 91.712 41.0718 91.8745 41.1567C92.039 41.2416 92.1544 41.3174 92.2195 41.3858C92.2846 41.4546 92.3167 41.543 92.3167 41.6498ZM97.4568 41.1855C97.4568 41.2074 97.4551 41.2432 97.4496 41.2974C97.4442 41.35 97.4352 41.4095 97.4242 41.4746C97.4154 41.5393 97.4009 41.6082 97.3828 41.6786C97.3649 41.7508 97.3433 41.8138 97.3161 41.8733C97.2907 41.931 97.2581 41.9799 97.2223 42.0199C97.1844 42.0578 97.1444 42.0774 97.103 42.0774H94.6584L94.3244 43.7456H96.3989C96.4477 43.7456 96.4836 43.7636 96.5035 43.7978C96.5252 43.8341 96.5361 43.8829 96.5361 43.9462C96.5361 43.9713 96.5345 44.0092 96.5289 44.0597C96.5235 44.1102 96.5145 44.1699 96.5035 44.2348C96.4945 44.3 96.4803 44.3647 96.4619 44.4316C96.444 44.4986 96.4226 44.5598 96.3952 44.6177C96.37 44.6738 96.3375 44.7187 96.3032 44.755C96.267 44.7892 96.2291 44.8073 96.1858 44.8073H94.1132L93.7271 46.7352H96.2037C96.2453 46.7352 96.2779 46.7535 96.2979 46.7915C96.3195 46.8275 96.3305 46.8817 96.3305 46.9539C96.3305 46.9771 96.3284 47.0171 96.3247 47.0694C96.3212 47.1236 96.3142 47.1832 96.3016 47.2479C96.2888 47.313 96.2742 47.3798 96.2563 47.4465C96.2381 47.5135 96.2165 47.5766 96.1911 47.6363C96.1644 47.6942 96.1334 47.741 96.0992 47.7769C96.063 47.8115 96.0234 47.8294 95.9783 47.8294H92.537C92.4812 47.8294 92.4289 47.8222 92.3835 47.8059C92.3367 47.7896 92.2988 47.7626 92.27 47.7264C92.2395 47.6885 92.2195 47.6433 92.2086 47.5891C92.1978 47.5333 92.1995 47.4682 92.2141 47.3909L93.4056 41.4221C93.4379 41.2669 93.5014 41.155 93.5987 41.0864C93.6945 41.0178 93.8027 40.9834 93.9201 40.9834H97.3196C97.4117 40.9834 97.4568 41.0503 97.4568 41.1855ZM103.088 42.6624C103.088 42.8592 103.066 43.0648 103.021 43.2816C102.978 43.4965 102.905 43.7077 102.808 43.9136C102.709 44.1211 102.58 44.3162 102.424 44.5019C102.266 44.6863 102.075 44.8506 101.846 44.9932C101.618 45.1376 101.354 45.2497 101.055 45.3327C100.755 45.4158 100.403 45.4572 99.9967 45.4572H99.2821L98.845 47.6454C98.8399 47.6796 98.8215 47.7122 98.7927 47.741C98.7636 47.768 98.7206 47.7915 98.661 47.8094C98.5996 47.8257 98.5238 47.8403 98.4317 47.8494C98.3414 47.8583 98.2277 47.862 98.0942 47.862C97.9623 47.862 97.8555 47.8583 97.7692 47.8494C97.6824 47.8403 97.6157 47.8257 97.5652 47.8094C97.5164 47.7915 97.4838 47.7699 97.4659 47.7427C97.4475 47.7159 97.4442 47.6833 97.4549 47.6454L98.6899 41.4816C98.7206 41.3157 98.789 41.1911 98.8955 41.108C99.0002 41.025 99.1302 40.9834 99.2837 40.9834H100.78C100.965 40.9834 101.129 40.9887 101.274 41.0015C101.418 41.0141 101.561 41.034 101.701 41.0629C101.916 41.1043 102.109 41.1713 102.281 41.2595C102.452 41.3462 102.597 41.4563 102.718 41.5898C102.837 41.7217 102.929 41.8771 102.992 42.0557C103.055 42.2346 103.088 42.4349 103.088 42.6624ZM101.625 42.8196C101.625 42.6498 101.586 42.5037 101.504 42.379C101.423 42.256 101.297 42.1697 101.129 42.1188C101.055 42.0957 100.972 42.0773 100.88 42.0683C100.788 42.0594 100.687 42.0557 100.573 42.0557H99.9609L99.495 44.3846H100.132C100.334 44.3846 100.508 44.3614 100.65 44.3125C100.795 44.2657 100.919 44.2023 101.028 44.1248C101.136 44.0471 101.228 43.955 101.304 43.8487C101.38 43.7421 101.441 43.6321 101.49 43.5144C101.537 43.3972 101.573 43.2799 101.593 43.1625C101.615 43.0432 101.625 42.9296 101.625 42.8196ZM108.777 42.379C108.777 42.5867 108.748 42.7833 108.69 42.9676C108.632 43.1536 108.548 43.323 108.438 43.4765C108.327 43.6301 108.194 43.7656 108.036 43.8829C107.881 44.0001 107.706 44.096 107.513 44.1664C107.666 44.1932 107.809 44.2437 107.937 44.3142C108.067 44.3846 108.177 44.4751 108.269 44.5833C108.362 44.6933 108.434 44.8236 108.484 44.9732C108.535 45.123 108.56 45.2911 108.56 45.4789C108.56 45.6487 108.537 45.8238 108.492 46.006C108.447 46.1867 108.374 46.3653 108.275 46.5368C108.177 46.7101 108.049 46.8762 107.89 47.0334C107.733 47.1904 107.542 47.3276 107.318 47.4449C107.096 47.564 106.838 47.658 106.547 47.7264C106.255 47.7952 105.915 47.8294 105.529 47.8294H103.628C103.483 47.8294 103.378 47.7931 103.314 47.7227C103.248 47.6526 103.23 47.5424 103.263 47.3909L104.455 41.4221C104.484 41.2669 104.545 41.155 104.642 41.0864C104.74 41.0178 104.852 40.9834 104.98 40.9834H106.63C106.993 40.9834 107.305 41.0124 107.569 41.0683C107.832 41.1243 108.055 41.209 108.233 41.3248C108.412 41.4383 108.548 41.5828 108.64 41.758C108.732 41.9331 108.777 42.1388 108.777 42.379ZM107.347 42.6389C107.347 42.5396 107.328 42.4532 107.294 42.379C107.258 42.3048 107.206 42.2397 107.136 42.1876C107.063 42.135 106.975 42.0936 106.867 42.0666C106.76 42.0378 106.623 42.0232 106.457 42.0232H105.698L105.344 43.7998H106.126C106.356 43.7998 106.545 43.7636 106.697 43.6915C106.848 43.6191 106.973 43.527 107.069 43.4118C107.166 43.2979 107.237 43.1716 107.28 43.0343C107.325 42.8971 107.347 42.7654 107.347 42.6389ZM107.109 45.5493C107.109 45.3237 107.026 45.145 106.857 45.0146C106.691 44.8831 106.426 44.818 106.06 44.818H105.139L104.749 46.7678H105.731C105.98 46.7678 106.191 46.7319 106.361 46.6614C106.532 46.591 106.673 46.4991 106.784 46.387C106.895 46.273 106.977 46.1432 107.029 45.9969C107.081 45.8508 107.109 45.7008 107.109 45.5493ZM114.852 47.6508C114.845 47.685 114.829 47.7159 114.8 47.7427C114.773 47.7699 114.729 47.7915 114.672 47.8094C114.614 47.8257 114.54 47.8403 114.449 47.8494C114.357 47.8583 114.247 47.862 114.114 47.862C113.974 47.862 113.861 47.8583 113.774 47.8494C113.687 47.8403 113.619 47.8257 113.572 47.8094C113.523 47.7915 113.491 47.7699 113.475 47.7427C113.458 47.7159 113.455 47.685 113.462 47.6508L114.054 44.708C114.076 44.6014 114.097 44.4914 114.121 44.3741C114.144 44.2583 114.168 44.1392 114.193 44.0183C114.216 43.8957 114.245 43.7747 114.278 43.6517C114.308 43.5307 114.339 43.4172 114.368 43.3104C114.209 43.5217 114.043 43.7368 113.872 43.9513C113.698 44.1664 113.529 44.3704 113.362 44.5654L110.645 47.6559C110.609 47.6975 110.573 47.7321 110.533 47.7589C110.495 47.7861 110.449 47.8059 110.394 47.8222C110.34 47.8385 110.275 47.8494 110.201 47.8548C110.125 47.8599 110.032 47.862 109.92 47.862C109.781 47.862 109.669 47.8583 109.584 47.8511C109.499 47.8436 109.432 47.8311 109.383 47.8152C109.337 47.7969 109.306 47.7736 109.291 47.7427C109.277 47.7122 109.275 47.6742 109.286 47.6291L110.586 41.1622C110.59 41.1276 110.606 41.0971 110.636 41.0701C110.665 41.0429 110.711 41.0213 110.768 41.0034C110.826 40.9871 110.9 40.9724 110.99 40.9636C111.081 40.9545 111.192 40.9508 111.326 40.9508C111.461 40.9508 111.572 40.9545 111.658 40.9636C111.743 40.9724 111.812 40.9871 111.861 41.0034C111.911 41.0213 111.944 41.0429 111.962 41.0701C111.98 41.0971 111.985 41.1276 111.978 41.1622L111.331 44.3595C111.315 44.4444 111.294 44.5365 111.27 44.6391C111.245 44.7422 111.221 44.8452 111.2 44.9478C111.178 45.0529 111.157 45.1576 111.131 45.2602C111.106 45.3653 111.081 45.4605 111.055 45.5493H111.066C111.129 45.4572 111.198 45.3616 111.274 45.2602C111.35 45.1613 111.429 45.0583 111.508 44.9573C111.59 44.8543 111.671 44.7549 111.752 44.6612C111.833 44.5654 111.909 44.4751 111.98 44.3904L114.762 41.1892C114.805 41.1439 114.847 41.1043 114.886 41.0718C114.928 41.0413 114.977 41.0159 115.033 40.9978C115.089 40.9815 115.155 40.9687 115.231 40.9619C115.307 40.9545 115.401 40.9508 115.511 40.9508C115.648 40.9508 115.758 40.9545 115.845 40.9636C115.932 40.9724 115.998 40.9871 116.045 41.0034C116.093 41.0213 116.125 41.0429 116.139 41.0701C116.156 41.0971 116.161 41.1276 116.154 41.1622L114.852 47.6508ZM122.115 41.6498C122.115 41.747 122.099 41.8806 122.064 42.0466C122.032 42.2129 121.989 42.3465 121.938 42.4458C121.888 42.5468 121.83 42.5972 121.767 42.5972C121.72 42.5972 121.666 42.5684 121.602 42.5091C121.539 42.4512 121.456 42.3881 121.354 42.3211C121.252 42.2544 121.121 42.1913 120.963 42.1334C120.805 42.0741 120.606 42.045 120.371 42.045C120.109 42.045 119.871 42.0973 119.656 42.2002C119.442 42.3048 119.248 42.4421 119.08 42.6135C118.91 42.7833 118.763 42.9801 118.636 43.2021C118.508 43.4244 118.403 43.6537 118.32 43.8936C118.237 44.1339 118.176 44.3721 118.136 44.6103C118.094 44.8468 118.075 45.0688 118.075 45.2728C118.075 45.5184 118.105 45.735 118.167 45.9227C118.23 46.109 118.318 46.2641 118.434 46.387C118.551 46.5096 118.694 46.6037 118.864 46.6651C119.034 46.7263 119.223 46.7573 119.436 46.7573C119.685 46.7573 119.9 46.7299 120.079 46.6777C120.256 46.6252 120.407 46.5658 120.534 46.5026C120.658 46.4391 120.763 46.3798 120.844 46.3272C120.927 46.2751 121.003 46.2479 121.07 46.2479C121.115 46.2479 121.146 46.2641 121.16 46.2986C121.176 46.3309 121.184 46.3781 121.184 46.4391C121.184 46.4628 121.18 46.5007 121.173 46.5496C121.165 46.6 121.156 46.6542 121.148 46.7173C121.137 46.7787 121.124 46.8455 121.11 46.9176C121.095 46.9901 121.079 47.0569 121.063 47.1199C121.044 47.1811 121.025 47.2374 121.001 47.2895C120.978 47.3402 120.947 47.3852 120.909 47.4235C120.869 47.463 120.793 47.5135 120.682 47.5749C120.57 47.6363 120.431 47.6942 120.27 47.7464C120.108 47.8006 119.923 47.8457 119.719 47.882C119.515 47.9199 119.297 47.9378 119.064 47.9378C118.681 47.9378 118.335 47.8873 118.026 47.7843C117.717 47.6813 117.455 47.5281 117.241 47.3184C117.026 47.1111 116.86 46.8508 116.744 46.5368C116.627 46.2225 116.569 45.8559 116.569 45.4374C116.569 45.1087 116.603 44.7694 116.67 44.4135C116.737 44.0597 116.838 43.7131 116.973 43.3756C117.109 43.038 117.28 42.7166 117.49 42.4132C117.697 42.1099 117.943 41.8447 118.226 41.6172C118.51 41.3916 118.833 41.209 119.194 41.0755C119.555 40.9419 119.956 40.8752 120.396 40.8752C120.644 40.8752 120.877 40.9003 121.097 40.9525C121.317 41.0034 121.51 41.0718 121.673 41.1567C121.837 41.2416 121.953 41.3174 122.018 41.3858C122.083 41.4546 122.115 41.543 122.115 41.6498Z" fill="black"/>
</svg>
