<svg width="18" height="24" viewBox="0 0 18 24" fill="none" xmlns="http://www.w3.org/2000/svg">
<path d="M15.0938 24H2.15625C0.967312 24 0 23.0327 0 21.8438V2.15625C0 0.967312 0.967312 0 2.15625 0H15.0938C16.2827 0 17.25 0.967312 17.25 2.15625V21.8438C17.25 23.0327 16.2827 24 15.0938 24ZM2.15625 1.5C1.79438 1.5 1.5 1.79438 1.5 2.15625V21.8438C1.5 22.2056 1.79438 22.5 2.15625 22.5H15.0938C15.4556 22.5 15.75 22.2056 15.75 21.8438V2.15625C15.75 1.79438 15.4556 1.5 15.0938 1.5H2.15625Z" fill="#414A51"/>
<path d="M12.1875 9.375H5.0625C4.13198 9.375 3.375 8.61802 3.375 7.6875V5.8125C3.375 4.88198 4.13198 4.125 5.0625 4.125H12.1875C13.118 4.125 13.875 4.88198 13.875 5.8125V7.6875C13.875 8.61802 13.118 9.375 12.1875 9.375ZM5.0625 5.625C4.95909 5.625 4.875 5.70909 4.875 5.8125V7.6875C4.875 7.79091 4.95909 7.875 5.0625 7.875H12.1875C12.2909 7.875 12.375 7.79091 12.375 7.6875V5.8125C12.375 5.70909 12.2909 5.625 12.1875 5.625H5.0625Z" fill="#414A51"/>
<path d="M4.87594 13.5C4.46175 13.5 4.1257 13.1642 4.1257 12.75C4.1257 12.3358 4.46128 12 4.87547 12H4.87594C5.29017 12 5.62594 12.3358 5.62594 12.75C5.62594 13.1642 5.29012 13.5 4.87594 13.5Z" fill="#414A51"/>
<path d="M8.62594 13.5C8.21175 13.5 7.8757 13.1642 7.8757 12.75C7.8757 12.3358 8.21128 12 8.62547 12H8.62594C9.04017 12 9.37594 12.3358 9.37594 12.75C9.37594 13.1642 9.04012 13.5 8.62594 13.5Z" fill="#414A51"/>
<path d="M12.3759 13.5C11.9617 13.5 11.6257 13.1642 11.6257 12.75C11.6257 12.3358 11.9613 12 12.3755 12H12.3759C12.7902 12 13.1259 12.3358 13.1259 12.75C13.1259 13.1642 12.7901 13.5 12.3759 13.5Z" fill="#414A51"/>
<path d="M4.87594 16.875C4.46175 16.875 4.1257 16.5392 4.1257 16.125C4.1257 15.7108 4.46128 15.375 4.87547 15.375H4.87594C5.29017 15.375 5.62594 15.7108 5.62594 16.125C5.62594 16.5392 5.29012 16.875 4.87594 16.875Z" fill="#414A51"/>
<path d="M8.62594 16.875C8.21175 16.875 7.8757 16.5392 7.8757 16.125C7.8757 15.7108 8.21128 15.375 8.62547 15.375H8.62594C9.04017 15.375 9.37594 15.7108 9.37594 16.125C9.37594 16.5392 9.04012 16.875 8.62594 16.875Z" fill="#414A51"/>
<path d="M12.3759 16.875C11.9617 16.875 11.6257 16.5392 11.6257 16.125C11.6257 15.7108 11.9613 15.375 12.3755 15.375H12.3759C12.7902 15.375 13.1259 15.7108 13.1259 16.125C13.1259 16.5392 12.7901 16.875 12.3759 16.875Z" fill="#414A51"/>
<path d="M4.87594 20.25C4.46175 20.25 4.1257 19.9142 4.1257 19.5C4.1257 19.0858 4.46128 18.75 4.87547 18.75H4.87594C5.29017 18.75 5.62594 19.0858 5.62594 19.5C5.62594 19.9142 5.29012 20.25 4.87594 20.25Z" fill="#414A51"/>
<path d="M8.62594 20.25C8.21175 20.25 7.8757 19.9142 7.8757 19.5C7.8757 19.0858 8.21128 18.75 8.62547 18.75H8.62594C9.04017 18.75 9.37594 19.0858 9.37594 19.5C9.37594 19.9142 9.04012 20.25 8.62594 20.25Z" fill="#414A51"/>
<path d="M12.3759 20.25C11.9617 20.25 11.6257 19.9142 11.6257 19.5C11.6257 19.0858 11.9613 18.75 12.3755 18.75H12.3759C12.7902 18.75 13.1259 19.0858 13.1259 19.5C13.1259 19.9142 12.7901 20.25 12.3759 20.25Z" fill="#414A51"/>
</svg>
