<svg width="109" height="109" viewBox="0 0 109 109" fill="none" xmlns="http://www.w3.org/2000/svg">
<path d="M64.7188 39.94C60.6234 39.9357 56.591 40.9474 52.9827 42.8843C49.3744 44.8212 46.3028 47.6229 44.0432 51.0384C41.7836 54.4539 40.4064 58.3766 40.0351 62.4551C39.6638 66.5335 40.3099 70.6404 41.9156 74.4078L74.4078 41.9156C71.3427 40.6157 68.0481 39.9439 64.7188 39.94Z" fill="#F1C84B"/>
<path d="M82.249 47.1882C80.8452 45.7953 79.279 44.5762 77.5842 43.5571L43.5574 77.5839C45.5906 80.9955 48.4418 83.8466 51.8533 85.8798L85.8801 51.853C84.8606 50.1585 83.6416 48.5923 82.249 47.1882Z" fill="#F1C84B"/>
<path d="M101.903 64.7186L107.213 48.3124C107.338 47.9262 107.321 47.508 107.165 47.1333C107.009 46.7586 106.724 46.452 106.362 46.2687L91.0048 38.4241L83.1602 23.067C82.9769 22.7048 82.6703 22.42 82.2956 22.2638C81.9208 22.1077 81.5027 22.0905 81.1164 22.2155L64.7187 27.5343L48.3125 22.224C47.9263 22.0991 47.5081 22.1162 47.1334 22.2723C46.7587 22.4285 46.4521 22.7133 46.2688 23.0755L38.4242 38.4326L23.0671 46.2772C22.7049 46.4605 22.4201 46.7671 22.2639 47.1418C22.1078 47.5165 22.0906 47.9347 22.2156 48.321L27.5344 64.7186L22.2241 81.1248C22.0992 81.5111 22.1163 81.9293 22.2724 82.304C22.4286 82.6787 22.7134 82.9853 23.0756 83.1686L38.4327 91.0132L46.2773 106.37C46.4606 106.732 46.7672 107.017 47.1419 107.173C47.5166 107.33 47.9348 107.347 48.3211 107.222L64.7187 101.903L81.1249 107.213C81.5112 107.338 81.9294 107.321 82.3041 107.165C82.6788 107.009 82.9854 106.724 83.1687 106.362L91.0133 91.0047L106.37 83.1601C106.733 82.9768 107.017 82.6702 107.174 82.2955C107.33 81.9207 107.347 81.5026 107.222 81.1163L101.903 64.7186ZM84.6572 84.6571C80.7138 88.6005 75.6896 91.2859 70.2199 92.3738C64.7503 93.4618 59.0808 92.9033 53.9286 90.7692C48.7763 88.635 44.3726 85.0209 41.2743 80.384C38.176 75.747 36.5223 70.2954 36.5223 64.7186C36.5223 59.1418 38.176 53.6903 41.2743 49.0533C44.3726 44.4164 48.7763 40.8023 53.9286 38.6681C59.0808 36.534 64.7503 35.9755 70.2199 37.0635C75.6896 38.1514 80.7138 40.8368 84.6572 44.7802C89.9374 50.0723 92.9028 57.2429 92.9028 64.7186C92.9028 72.1944 89.9374 79.365 84.6572 84.6571Z" fill="#F1C84B"/>
<path d="M55.0297 87.522C59.5751 89.4584 64.5959 89.9911 69.4464 89.0515C74.297 88.1119 78.7557 85.743 82.2493 82.2494C85.7429 78.7558 88.1118 74.2971 89.0514 69.4465C89.9909 64.596 89.4583 59.5752 87.5219 55.0298L55.0297 87.522Z" fill="#F1C84B"/>
<path d="M69.8281 34.0625H39.1719C38.7202 34.0625 38.287 33.8831 37.9676 33.5637C37.6482 33.2443 37.4688 32.8111 37.4688 32.3594C37.4688 31.9077 37.6482 31.4745 37.9676 31.1551C38.287 30.8357 38.7202 30.6562 39.1719 30.6562H69.8281C70.2798 30.6562 70.713 30.8357 71.0324 31.1551C71.3518 31.4745 71.5312 31.9077 71.5312 32.3594C71.5312 32.8111 71.3518 33.2443 71.0324 33.5637C70.713 33.8831 70.2798 34.0625 69.8281 34.0625Z" fill="white"/>
<path d="M69.8281 42.5781H39.1719C38.7202 42.5781 38.287 42.3987 37.9676 42.0793C37.6482 41.7599 37.4688 41.3267 37.4688 40.875C37.4688 40.4233 37.6482 39.9901 37.9676 39.6707C38.287 39.3513 38.7202 39.1719 39.1719 39.1719H69.8281C70.2798 39.1719 70.713 39.3513 71.0324 39.6707C71.3518 39.9901 71.5312 40.4233 71.5312 40.875C71.5312 41.3267 71.3518 41.7599 71.0324 42.0793C70.713 42.3987 70.2798 42.5781 69.8281 42.5781Z" fill="white"/>
<path d="M69.8281 51.0938H39.1719C38.7202 51.0938 38.287 50.9143 37.9676 50.5949C37.6482 50.2755 37.4688 49.8423 37.4688 49.3906C37.4688 48.9389 37.6482 48.5057 37.9676 48.1863C38.287 47.8669 38.7202 47.6875 39.1719 47.6875H69.8281C70.2798 47.6875 70.713 47.8669 71.0324 48.1863C71.3518 48.5057 71.5312 48.9389 71.5312 49.3906C71.5312 49.8423 71.3518 50.2755 71.0324 50.5949C70.713 50.9143 70.2798 51.0938 69.8281 51.0938Z" fill="white"/>
<path d="M51.0938 56.2031H69.8281C70.2798 56.2031 70.713 56.3826 71.0324 56.702C71.3518 57.0214 71.5312 57.4546 71.5312 57.9062C71.5312 58.3579 71.3518 58.7911 71.0324 59.1105C70.713 59.4299 70.2798 59.6094 69.8281 59.6094H51.0938C50.6421 59.6094 50.2089 59.4299 49.8895 59.1105C49.5701 58.7911 49.3906 58.3579 49.3906 57.9062C49.3906 57.4546 49.5701 57.0214 49.8895 56.702C50.2089 56.3826 50.6421 56.2031 51.0938 56.2031Z" fill="white"/>
<path d="M50.9541 21.2519L45.734 12.7363C45.5711 12.5019 45.3538 12.3105 45.1008 12.1783C44.8479 12.0461 44.5667 11.9771 44.2813 11.9771C43.9958 11.9771 43.7146 12.0461 43.4617 12.1783C43.2087 12.3105 42.9915 12.5019 42.8285 12.7363L37.6084 21.2519C37.4504 21.51 37.3641 21.8056 37.3583 22.1083C37.3525 22.4109 37.4274 22.7096 37.5754 22.9736C37.7233 23.2376 37.939 23.4574 38.2002 23.6104C38.4613 23.7634 38.7585 23.8441 39.0612 23.844H49.5013C49.804 23.8441 50.1012 23.7634 50.3623 23.6104C50.6235 23.4574 50.8392 23.2376 50.9871 22.9736C51.1351 22.7096 51.21 22.4109 51.2042 22.1083C51.1984 21.8056 51.1121 21.51 50.9541 21.2519ZM46.4595 20.4378H42.103L44.2813 16.8834L46.4595 20.4378Z" fill="white"/>
<path d="M16.1269 75.7519C15.9689 76.01 15.8826 76.3056 15.8767 76.6082C15.8709 76.9109 15.9459 77.2095 16.0939 77.4736C16.2418 77.7376 16.4575 77.9574 16.7186 78.1104C16.9798 78.2634 17.277 78.3441 17.5797 78.344H30.1078C30.4105 78.3441 30.7077 78.2634 30.9689 78.1104C31.23 77.9574 31.4457 77.7376 31.5936 77.4736C31.7416 77.2095 31.8165 76.9109 31.8107 76.6082C31.8049 76.3056 31.7186 76.01 31.5606 75.7519L25.2965 65.5331C25.1335 65.2988 24.9163 65.1074 24.6633 64.9752C24.4104 64.843 24.1292 64.7739 23.8437 64.7739C23.5583 64.7739 23.2771 64.843 23.0242 64.9752C22.7712 65.1074 22.5539 65.2988 22.391 65.5331L16.1269 75.7519ZM20.6214 74.9378L23.8437 69.682L27.0661 74.9378H20.6214Z" fill="white"/>
<path d="M3.40625 61.3125V81.75C3.40625 83.1051 3.94456 84.4047 4.90275 85.3629C5.86094 86.3211 7.16053 86.8594 8.51562 86.8594H39.1719C40.527 86.8594 41.8266 86.3211 42.7847 85.3629C43.7429 84.4047 44.2812 83.1051 44.2812 81.75V73.2344H76.6406C77.9957 73.2344 79.2953 72.6961 80.2535 71.7379C81.2117 70.7797 81.75 69.4801 81.75 68.125V18.4432C81.7521 17.7717 81.6209 17.1064 81.3639 16.486C81.1069 15.8656 80.7293 15.3024 80.2529 14.8291L68.624 3.2002C68.1507 2.72384 67.5875 2.34622 66.9671 2.08923C66.3467 1.83224 65.6815 1.70101 65.01 1.70315H32.3594C31.0043 1.70315 29.7047 2.24146 28.7465 3.19965C27.7883 4.15785 27.25 5.45743 27.25 6.81253V56.2031H8.51562C7.16053 56.2031 5.86094 56.7415 4.90275 57.6996C3.94456 58.6578 3.40625 59.9574 3.40625 61.3125ZM75.9355 15.3281H69.8281C69.3764 15.3281 68.9432 15.1487 68.6238 14.8293C68.3044 14.5099 68.125 14.0767 68.125 13.625V7.51762L75.9355 15.3281ZM44.2812 69.8281V61.3125C44.2812 59.9574 43.7429 58.6578 42.7847 57.6996C41.8266 56.7415 40.527 56.2031 39.1719 56.2031H30.6562V6.81253C30.6562 6.36083 30.8357 5.92763 31.1551 5.60823C31.4745 5.28884 31.9077 5.1094 32.3594 5.1094H64.7187V13.625C64.7187 14.9801 65.2571 16.2797 66.2152 17.2379C67.1734 18.1961 68.473 18.7344 69.8281 18.7344H78.3437V68.125C78.3437 68.5767 78.1643 69.0099 77.8449 69.3293C77.5255 69.6487 77.0923 69.8281 76.6406 69.8281H44.2812ZM6.8125 61.3125C6.8125 60.8608 6.99194 60.4276 7.31133 60.1082C7.63073 59.7888 8.06393 59.6094 8.51562 59.6094H39.1719C39.6236 59.6094 40.0568 59.7888 40.3762 60.1082C40.6956 60.4276 40.875 60.8608 40.875 61.3125V81.75C40.875 82.2017 40.6956 82.6349 40.3762 82.9543C40.0568 83.2737 39.6236 83.4531 39.1719 83.4531H8.51562C8.06393 83.4531 7.63073 83.2737 7.31133 82.9543C6.99194 82.6349 6.8125 82.2017 6.8125 81.75V61.3125Z" fill="white"/>
<path d="M1.70312 13.625V27.25C1.70313 27.7017 1.88256 28.1349 2.20196 28.4543C2.52136 28.7737 2.95455 28.9531 3.40625 28.9531C3.85795 28.9531 4.29114 28.7737 4.61054 28.4543C4.92994 28.1349 5.10938 27.7017 5.10938 27.25V13.625C5.10938 13.1733 5.28881 12.7401 5.60821 12.4207C5.92761 12.1013 6.3608 11.9219 6.8125 11.9219H8.51562V40.875C8.51538 41.1392 8.5766 41.3998 8.69445 41.6363L13.8038 51.855C13.9451 52.1385 14.1625 52.3769 14.4318 52.5435C14.7011 52.7102 15.0115 52.7985 15.3281 52.7985C15.6448 52.7985 15.9552 52.7102 16.2244 52.5435C16.4937 52.3769 16.7112 52.1385 16.8524 51.855L21.9618 41.6363C22.0796 41.3998 22.1409 41.1392 22.1406 40.875V6.8125C22.1406 5.45741 21.6023 4.15782 20.6441 3.19963C19.6859 2.24143 18.3863 1.70313 17.0312 1.70312H13.625C12.2699 1.70313 10.9703 2.24143 10.0121 3.19963C9.05393 4.15782 8.51562 5.45741 8.51562 6.8125V8.51562H6.8125C5.45741 8.51562 4.15782 9.05393 3.19963 10.0121C2.24143 10.9703 1.70313 12.2699 1.70312 13.625ZM11.9219 11.9219H18.7344V39.1719H11.9219V11.9219ZM18.7344 8.51562H11.9219V6.8125C11.9219 6.3608 12.1013 5.92761 12.4207 5.60821C12.7401 5.28881 13.1733 5.10938 13.625 5.10938H17.0312C17.4829 5.10938 17.9161 5.28881 18.2355 5.60821C18.5549 5.92761 18.7344 6.3608 18.7344 6.8125V8.51562ZM12.9744 42.5781H17.6818L15.3281 47.2856L12.9744 42.5781Z" fill="white"/>
</svg>
