<svg width="30" height="30" viewBox="0 0 30 30" fill="none" xmlns="http://www.w3.org/2000/svg">
<path d="M29.0025 8.62055C28.9349 7.08589 28.6867 6.03083 28.3311 5.1166C27.9643 4.14617 27.3999 3.27735 26.6605 2.55509C25.9382 1.82159 25.0634 1.25163 24.1041 0.890615C23.1844 0.535107 22.1346 0.286934 20.5997 0.219271C19.0533 0.145877 18.5623 0.128906 14.6402 0.128906C10.718 0.128906 10.2271 0.145877 8.68644 0.213541C7.15149 0.281204 6.09622 0.529597 5.18204 0.884885C4.21121 1.25163 3.34222 1.81586 2.61982 2.55509C1.88619 3.27735 1.31634 4.1519 0.95503 5.11109C0.599454 6.03083 0.351235 7.08016 0.283558 8.61482C0.21015 10.1609 0.193176 10.6518 0.193176 14.5732C0.193176 18.4945 0.21015 18.9854 0.277827 20.5258C0.345503 22.0604 0.593943 23.1155 0.949519 24.0297C1.31634 25.0001 1.88619 25.869 2.61982 26.5912C3.34222 27.3247 4.21694 27.8947 5.17631 28.2557C6.09622 28.6112 7.14576 28.8594 8.68093 28.927C10.2214 28.9949 10.7125 29.0117 14.6347 29.0117C18.5568 29.0117 19.0477 28.9949 20.5884 28.927C22.1234 28.8594 23.1786 28.6112 24.0928 28.2557C26.0343 27.5052 27.5692 25.9706 28.3198 24.0297C28.6752 23.11 28.9236 22.0604 28.9913 20.5258C29.059 18.9854 29.076 18.4945 29.076 14.5732C29.076 10.6518 29.0702 10.1609 29.0025 8.62055ZM26.4011 20.4129C26.3389 21.8235 26.1019 22.5852 25.9044 23.093C25.419 24.3513 24.4202 25.3499 23.1617 25.8353C22.6538 26.0327 21.8864 26.2697 20.4811 26.3316C18.9574 26.3995 18.5004 26.4162 14.6459 26.4162C10.7915 26.4162 10.3287 26.3995 8.81055 26.3316C7.39971 26.2697 6.63785 26.0327 6.12995 25.8353C5.50367 25.6038 4.9336 25.2371 4.47089 24.7575C3.9912 24.2891 3.62439 23.7249 3.39292 23.0987C3.1954 22.5909 2.95842 21.8235 2.89648 20.4187C2.82858 18.8952 2.81183 18.4381 2.81183 14.5844C2.81183 10.7307 2.82858 10.2681 2.89648 8.75036C2.95842 7.33979 3.1954 6.57808 3.39292 6.07028C3.62439 5.4439 3.9912 4.87416 4.47662 4.41131C4.94484 3.93172 5.50918 3.56497 6.13568 3.33377C6.64358 3.13629 7.41117 2.89936 8.81628 2.8372C10.34 2.76954 10.7972 2.75257 14.6514 2.75257C18.5116 2.75257 18.9686 2.76954 20.4868 2.8372C21.8976 2.89936 22.6595 3.13629 23.1674 3.33377C23.7937 3.56497 24.3637 3.93172 24.8265 4.41131C25.3061 4.87967 25.673 5.4439 25.9044 6.07028C26.1019 6.57808 26.3389 7.3453 26.4011 8.75036C26.4688 10.2738 26.4857 10.7307 26.4857 14.5844C26.4857 18.4381 26.4688 18.8895 26.4011 20.4129Z" fill="white"/>
<path d="M14.6402 7.15355C10.5432 7.15355 7.21916 10.4768 7.21916 14.5732C7.21916 18.6695 10.5432 21.9928 14.6402 21.9928C18.7374 21.9928 22.0612 18.6695 22.0612 14.5732C22.0612 10.4768 18.7374 7.15355 14.6402 7.15355ZM14.6402 19.3861C11.9823 19.3861 9.82635 17.2308 9.82635 14.5732C9.82635 11.9156 11.9823 9.76025 14.6402 9.76025C17.2983 9.76025 19.454 11.9156 19.454 14.5732C19.454 17.2308 17.2983 19.3861 14.6402 19.3861Z" fill="white"/>
<path d="M24.0873 6.8602C24.0873 7.81674 23.3116 8.59234 22.3546 8.59234C21.3979 8.59234 20.6222 7.81674 20.6222 6.8602C20.6222 5.90343 21.3979 5.12806 22.3546 5.12806C23.3116 5.12806 24.0873 5.90343 24.0873 6.8602Z" fill="white"/>
</svg>
