<svg width="130" height="34" viewBox="0 0 130 34" fill="none" xmlns="http://www.w3.org/2000/svg">
<path fill-rule="evenodd" clip-rule="evenodd" d="M55.6891 0L36.2648 31.9627L35.0267 33.9999L33.8279 31.9402L27.9244 21.7976L21.7621 31.9615L20.5484 33.9634L19.3365 31.9604L0 0H3.28394L20.5509 28.5398L26.7337 18.3422L30.8743 11.3734L32.088 9.33065L33.3093 11.369L35.065 14.2992L43.8039 0H47.0965L36.2629 17.7267L35.041 19.7262L33.8368 17.7164L32.0982 14.8148L29.5794 19.054L35.0792 28.5034L52.4013 0H55.6891ZM32.5932 0L21.7597 17.7267L20.5416 19.7197L19.3355 17.7198L8.64871 0H11.9299L20.5577 14.3058L29.3005 0H32.5932Z" fill="url(#paint0_linear)"/>
<path d="M72.4867 13.5993H71.4639L69.7932 7.50204L68.1225 13.5993H67.0996L64.9403 6.04004H65.9859L67.6679 12.3413L69.4068 6.04004H70.191L71.9299 12.3413L73.6005 6.04004H74.6461L72.4867 13.5993Z" fill="url(#paint1_linear)"/>
<path d="M85.8631 13.5993H84.7834L84.1125 11.9221H80.3393L79.6688 13.5993H78.5892L81.635 6.04004H82.8056L85.8631 13.5993ZM83.8281 11.0833L82.226 7.01471L80.6122 11.0833H83.8281Z" fill="url(#paint2_linear)"/>
<path d="M93.4856 13.5993H92.5419V10.4033L89.5532 6.04004H90.6553L93.0079 9.55334L95.3606 6.04004H96.4635L93.4856 10.4033V13.5993Z" fill="url(#paint3_linear)"/>
<path d="M72.1573 29.4666H71.0776L70.407 27.7892H66.6338L65.9632 29.4666H64.8836L67.9294 21.9072H69.1L72.1573 29.4666ZM70.1229 26.9506L68.5204 22.8819L66.9066 26.9506H70.1229Z" fill="url(#paint4_linear)"/>
<path d="M80.523 29.6145C79.4243 29.6145 78.5 29.2518 77.7498 28.5265C76.9998 27.7936 76.6247 26.8492 76.6247 25.6932C76.6247 24.5372 76.9998 23.5965 77.7498 22.8712C78.5 22.1458 79.4243 21.7832 80.523 21.7832C81.7201 21.7832 82.7013 22.2554 83.4665 23.1998L82.7164 23.6645C82.474 23.3472 82.1557 23.094 81.7618 22.9052C81.3753 22.7163 80.9624 22.6218 80.523 22.6218C79.6895 22.6218 78.9925 22.9127 78.4317 23.4945C77.8787 24.0687 77.6022 24.8016 77.6022 25.6932C77.6022 26.5847 77.8787 27.3214 78.4317 27.9032C78.9925 28.4849 79.6895 28.7758 80.523 28.7758C80.9397 28.7758 81.3261 28.6965 81.6822 28.5378C82.0459 28.3716 82.3376 28.1789 82.5574 27.9598V26.4185H79.9547V25.5798H83.5005V28.3112C82.7202 29.18 81.7277 29.6145 80.523 29.6145Z" fill="url(#paint5_linear)"/>
<path d="M94.2055 29.4666H89.239V21.9072H94.2055V22.7459H90.1819V25.1826H94.1259V26.0212H90.1819V28.6278H94.2055V29.4666Z" fill="url(#paint6_linear)"/>
<path d="M106.188 29.4666H105.279L100.858 23.4372V29.4666H99.9142V21.9072H100.88L105.245 27.8118V21.9072H106.188V29.4666Z" fill="url(#paint7_linear)"/>
<path d="M115.757 29.6032C114.651 29.6032 113.723 29.2405 112.973 28.5152C112.23 27.7823 111.859 26.8416 111.859 25.6932C111.859 24.5447 112.23 23.6078 112.973 22.8825C113.723 22.1497 114.651 21.7832 115.757 21.7832C116.97 21.7832 117.928 22.2818 118.633 23.2792L117.837 23.7212C117.617 23.3963 117.322 23.1318 116.951 22.9278C116.58 22.7238 116.182 22.6218 115.757 22.6218C114.924 22.6218 114.227 22.9127 113.667 23.4945C113.113 24.0687 112.837 24.8016 112.837 25.6932C112.837 26.5847 113.113 27.3214 113.667 27.9032C114.227 28.4774 114.924 28.7645 115.757 28.7645C116.182 28.7645 116.58 28.6663 116.951 28.4698C117.322 28.2658 117.617 27.9976 117.837 27.6652L118.644 28.1072C117.909 29.1045 116.947 29.6032 115.757 29.6032Z" fill="url(#paint8_linear)"/>
<path d="M127.022 29.4666H126.079V26.2706L123.09 21.9072H124.193L126.544 25.4206L128.897 21.9072H130L127.022 26.2706V29.4666Z" fill="url(#paint9_linear)"/>
<defs>
<linearGradient id="paint0_linear" x1="49.8881" y1="-5.40908" x2="22.0831" y2="42.5228" gradientUnits="userSpaceOnUse">
<stop stop-color="#6ED5FF"/>
<stop offset="1" stop-color="#0392CC"/>
</linearGradient>
<linearGradient id="paint1_linear" x1="71.6664" y1="2.28975" x2="85.3281" y2="42.0065" gradientUnits="userSpaceOnUse">
<stop stop-color="#6ED5FF"/>
<stop offset="1" stop-color="#0392CC"/>
</linearGradient>
<linearGradient id="paint2_linear" x1="71.6665" y1="2.28975" x2="85.3282" y2="42.0065" gradientUnits="userSpaceOnUse">
<stop stop-color="#6ED5FF"/>
<stop offset="1" stop-color="#0392CC"/>
</linearGradient>
<linearGradient id="paint3_linear" x1="71.6664" y1="2.28975" x2="85.3281" y2="42.0065" gradientUnits="userSpaceOnUse">
<stop stop-color="#6ED5FF"/>
<stop offset="1" stop-color="#0392CC"/>
</linearGradient>
<linearGradient id="paint4_linear" x1="71.6665" y1="2.2903" x2="85.3283" y2="42.0071" gradientUnits="userSpaceOnUse">
<stop stop-color="#6ED5FF"/>
<stop offset="1" stop-color="#0392CC"/>
</linearGradient>
<linearGradient id="paint5_linear" x1="71.6664" y1="2.29093" x2="85.3282" y2="42.0077" gradientUnits="userSpaceOnUse">
<stop stop-color="#6ED5FF"/>
<stop offset="1" stop-color="#0392CC"/>
</linearGradient>
<linearGradient id="paint6_linear" x1="71.6665" y1="2.2903" x2="85.3282" y2="42.0071" gradientUnits="userSpaceOnUse">
<stop stop-color="#6ED5FF"/>
<stop offset="1" stop-color="#0392CC"/>
</linearGradient>
<linearGradient id="paint7_linear" x1="71.6665" y1="2.2903" x2="85.3283" y2="42.0071" gradientUnits="userSpaceOnUse">
<stop stop-color="#6ED5FF"/>
<stop offset="1" stop-color="#0392CC"/>
</linearGradient>
<linearGradient id="paint8_linear" x1="71.6664" y1="2.29093" x2="85.3282" y2="42.0077" gradientUnits="userSpaceOnUse">
<stop stop-color="#6ED5FF"/>
<stop offset="1" stop-color="#0392CC"/>
</linearGradient>
<linearGradient id="paint9_linear" x1="71.6666" y1="2.2903" x2="85.3283" y2="42.0071" gradientUnits="userSpaceOnUse">
<stop stop-color="#6ED5FF"/>
<stop offset="1" stop-color="#0392CC"/>
</linearGradient>
</defs>
</svg>
