<svg width="92" height="104" viewBox="0 0 92 104" fill="none" xmlns="http://www.w3.org/2000/svg">
<path d="M45.9961 73.4714C61.2828 73.4714 73.6751 61.0791 73.6751 45.7923C73.6751 30.5056 61.2828 18.1133 45.9961 18.1133C30.7094 18.1133 18.317 30.5056 18.317 45.7923C18.317 61.0791 30.7094 73.4714 45.9961 73.4714Z" fill="url(#paint0_linear)"/>
<path d="M78.5202 13.4718C69.8328 4.78441 58.2821 0 45.9961 0C33.71 0 22.1593 4.78441 13.472 13.4718C4.78441 22.1595 0 33.71 0 45.9961C0 67.671 15.1531 86.3837 36.204 90.9438L45.9961 104L55.7884 90.9436C76.8391 86.3835 91.9922 67.671 91.9922 45.9961C91.9922 33.71 87.2078 22.1595 78.5202 13.4718ZM45.9961 12.0078C64.6251 12.0078 79.7808 27.1637 79.7808 45.7926C79.7808 64.4214 64.6251 79.5773 45.9961 79.5773C27.3671 79.5773 12.2114 64.4214 12.2114 45.7926C12.2114 27.1637 27.3671 12.0078 45.9961 12.0078Z" fill="url(#paint1_linear)"/>
<defs>
<linearGradient id="paint0_linear" x1="44.4498" y1="62.0741" x2="40.2277" y2="28.3922" gradientUnits="userSpaceOnUse">
<stop stop-color="#FF0000"/>
<stop offset="1" stop-color="#FF5933"/>
</linearGradient>
<linearGradient id="paint1_linear" x1="43.4265" y1="82.5882" x2="34.4977" y2="19.5818" gradientUnits="userSpaceOnUse">
<stop stop-color="#FF0000"/>
<stop offset="1" stop-color="#FF5933"/>
</linearGradient>
</defs>
</svg>
