<svg width="8" height="8" viewBox="0 0 8 8" fill="none" xmlns="http://www.w3.org/2000/svg">
<path d="M7.35808 5.25108C6.86829 5.25108 6.38738 5.17448 5.93165 5.02388C5.70833 4.94771 5.43381 5.01758 5.29752 5.15756L4.398 5.8366C3.35481 5.27975 2.71223 4.63738 2.16298 3.60202L2.82204 2.72594C2.99327 2.55494 3.05469 2.30515 2.9811 2.07077C2.82985 1.61265 2.75302 1.13196 2.75302 0.641958C2.75304 0.287979 2.46506 0 2.1111 0H0.641938C0.287979 0 0 0.287979 0 0.641938C0 4.69923 3.30079 8 7.35808 8C7.71204 8 8.00002 7.71202 8.00002 7.35806V5.893C8 5.53906 7.71202 5.25108 7.35808 5.25108Z" fill="black"/>
</svg>
