<svg width="111" height="111" viewBox="0 0 111 111" fill="none" xmlns="http://www.w3.org/2000/svg">
<path d="M65.7141 39.874C61.4434 39.8696 57.2384 40.9246 53.4755 42.9445C49.7127 44.9643 46.5096 47.886 44.1532 51.4477C41.7969 55.0095 40.3608 59.1001 39.9735 63.3532C39.5863 67.6063 40.2601 71.8891 41.9346 75.8178L75.8181 41.9343C72.6218 40.5787 69.186 39.8782 65.7141 39.874V39.874Z" fill="#F1C84B"/>
<path d="M83.9949 47.433C82.5309 45.9805 80.8977 44.7092 79.1303 43.6465L43.6465 79.1303C45.7667 82.6879 48.74 85.6612 52.2976 87.7814L87.7814 52.2976C86.7183 50.5305 85.447 48.8973 83.9949 47.433V47.433Z" fill="#F1C84B"/>
<path d="M104.491 65.714L110.028 48.6053C110.159 48.2025 110.141 47.7665 109.978 47.3757C109.815 46.9849 109.518 46.6652 109.14 46.4741L93.1256 38.2936L84.9452 22.2789C84.754 21.9012 84.4343 21.6041 84.0435 21.4413C83.6527 21.2785 83.2167 21.2606 82.8139 21.3909L65.714 26.9375L48.6053 21.3997C48.2025 21.2695 47.7665 21.2874 47.3757 21.4502C46.9849 21.613 46.6652 21.91 46.4741 22.2878L38.2936 38.3024L22.2789 46.4829C21.9012 46.6741 21.6041 46.9938 21.4413 47.3846C21.2785 47.7753 21.2606 48.2114 21.3909 48.6142L26.9375 65.714L21.3997 82.8228C21.2695 83.2256 21.2874 83.6616 21.4502 84.0524C21.613 84.4432 21.91 84.7629 22.2878 84.954L38.3024 93.1345L46.4829 109.149C46.6741 109.527 46.9938 109.824 47.3846 109.987C47.7753 110.15 48.2114 110.167 48.6142 110.037L65.714 104.491L82.8228 110.028C83.2256 110.159 83.6616 110.141 84.0524 109.978C84.4432 109.815 84.7629 109.518 84.954 109.14L93.1345 93.1256L109.149 84.9452C109.527 84.754 109.824 84.4343 109.987 84.0435C110.15 83.6527 110.167 83.2167 110.037 82.8139L104.491 65.714ZM86.5063 86.5063C82.394 90.6185 77.1546 93.4189 71.4508 94.5534C65.7469 95.688 59.8347 95.1056 54.4618 92.88C49.0889 90.6545 44.4966 86.8857 41.2657 82.0501C38.0347 77.2146 36.3102 71.5296 36.3102 65.714C36.3102 59.8984 38.0347 54.2135 41.2657 49.3779C44.4966 44.5424 49.0889 40.7736 54.4618 38.5481C59.8347 36.3225 65.7469 35.7401 71.4508 36.8747C77.1546 38.0092 82.394 40.8096 86.5063 44.9218C92.0126 50.4406 95.1049 57.9181 95.1049 65.714C95.1049 73.5099 92.0126 80.9875 86.5063 86.5063V86.5063Z" fill="#F1C84B"/>
<path d="M55.6099 89.4934C60.35 91.5127 65.5857 92.0682 70.6439 91.0884C75.7022 90.1086 80.3518 87.6383 83.995 83.995C87.6383 80.3518 90.1086 75.7022 91.0884 70.6439C92.0682 65.5857 91.5127 60.35 89.4934 55.6099L55.6099 89.4934Z" fill="#F1C84B"/>
<path d="M71.0419 33.745H39.0729C38.6019 33.745 38.1501 33.5579 37.8171 33.2248C37.484 32.8917 37.2969 32.44 37.2969 31.9689C37.2969 31.4979 37.484 31.0461 37.8171 30.7131C38.1501 30.38 38.6019 30.1929 39.0729 30.1929H71.0419C71.5129 30.1929 71.9647 30.38 72.2977 30.7131C72.6308 31.0461 72.8179 31.4979 72.8179 31.9689C72.8179 32.44 72.6308 32.8917 72.2977 33.2248C71.9647 33.5579 71.5129 33.745 71.0419 33.745Z" fill="white"/>
<path d="M71.0419 42.6253H39.0729C38.6019 42.6253 38.1501 42.4382 37.8171 42.1052C37.484 41.7721 37.2969 41.3203 37.2969 40.8493C37.2969 40.3783 37.484 39.9265 37.8171 39.5934C38.1501 39.2604 38.6019 39.0732 39.0729 39.0732H71.0419C71.5129 39.0732 71.9647 39.2604 72.2977 39.5934C72.6308 39.9265 72.8179 40.3783 72.8179 40.8493C72.8179 41.3203 72.6308 41.7721 72.2977 42.1052C71.9647 42.4382 71.5129 42.6253 71.0419 42.6253Z" fill="white"/>
<path d="M71.0419 51.5052H39.0729C38.6019 51.5052 38.1501 51.3181 37.8171 50.985C37.484 50.652 37.2969 50.2002 37.2969 49.7292C37.2969 49.2581 37.484 48.8064 37.8171 48.4733C38.1501 48.1402 38.6019 47.9531 39.0729 47.9531H71.0419C71.5129 47.9531 71.9647 48.1402 72.2977 48.4733C72.6308 48.8064 72.8179 49.2581 72.8179 49.7292C72.8179 50.2002 72.6308 50.652 72.2977 50.985C71.9647 51.3181 71.5129 51.5052 71.0419 51.5052Z" fill="white"/>
<path d="M51.5055 56.8335H71.0421C71.5132 56.8335 71.9649 57.0206 72.298 57.3537C72.6311 57.6868 72.8182 58.1385 72.8182 58.6095C72.8182 59.0806 72.6311 59.5323 72.298 59.8654C71.9649 60.1985 71.5132 60.3856 71.0421 60.3856H51.5055C51.0345 60.3856 50.5828 60.1985 50.2497 59.8654C49.9166 59.5323 49.7295 59.0806 49.7295 58.6095C49.7295 58.1385 49.9166 57.6868 50.2497 57.3537C50.5828 57.0206 51.0345 56.8335 51.5055 56.8335Z" fill="white"/>
<path d="M51.36 20.3854L45.9164 11.5051C45.7464 11.2607 45.5199 11.0611 45.2561 10.9232C44.9923 10.7854 44.699 10.7134 44.4014 10.7134C44.1037 10.7134 43.8105 10.7854 43.5467 10.9232C43.2829 11.0611 43.0564 11.2607 42.8864 11.5051L37.4428 20.3854C37.2781 20.6546 37.188 20.9628 37.182 21.2784C37.1759 21.594 37.2541 21.9054 37.4084 22.1808C37.5627 22.4561 37.7876 22.6854 38.0599 22.8449C38.3322 23.0044 38.6422 23.0885 38.9578 23.0885H49.845C50.1606 23.0885 50.4706 23.0044 50.7429 22.8449C51.0152 22.6854 51.2401 22.4561 51.3944 22.1808C51.5487 21.9054 51.6269 21.594 51.6208 21.2784C51.6148 20.9628 51.5247 20.6546 51.36 20.3854V20.3854ZM46.673 19.5364H42.1298L44.4014 15.8298L46.673 19.5364Z" fill="white"/>
<path d="M15.0415 77.219C14.8767 77.4883 14.7867 77.7965 14.7806 78.1121C14.7745 78.4276 14.8527 78.7391 15.007 79.0144C15.1613 79.2898 15.3862 79.519 15.6585 79.6786C15.9309 79.8381 16.2408 79.9222 16.5564 79.9222H29.6211C29.9367 79.9222 30.2466 79.8381 30.519 79.6786C30.7913 79.519 31.0162 79.2898 31.1705 79.0144C31.3248 78.7391 31.4029 78.4276 31.3969 78.1121C31.3908 77.7965 31.3008 77.4883 31.136 77.219L24.6037 66.5627C24.4338 66.3184 24.2072 66.1187 23.9434 65.9809C23.6796 65.843 23.3864 65.771 23.0887 65.771C22.7911 65.771 22.4979 65.843 22.2341 65.9809C21.9703 66.1187 21.7437 66.3184 21.5738 66.5627L15.0415 77.219ZM19.7285 76.3701L23.0887 70.8892L26.449 76.3701H19.7285Z" fill="white"/>
<path d="M1.77588 62.1619V83.4745C1.77588 84.8876 2.33724 86.2429 3.33646 87.2421C4.33568 88.2413 5.69092 88.8027 7.10404 88.8027H39.073C40.4861 88.8027 41.8413 88.2413 42.8406 87.2421C43.8398 86.2429 44.4012 84.8876 44.4012 83.4745V74.5943H78.1462C79.5593 74.5943 80.9145 74.0329 81.9137 73.0337C82.913 72.0344 83.4743 70.6792 83.4743 69.2661V17.4569C83.4765 16.7566 83.3397 16.0629 83.0717 15.4159C82.8037 14.7689 82.4099 14.1816 81.9132 13.6881L69.7863 1.56118C69.2927 1.06442 68.7054 0.67063 68.0584 0.402639C67.4115 0.134649 66.7178 -0.00220209 66.0175 2.6794e-05H31.9688C30.5557 2.6794e-05 29.2004 0.561385 28.2012 1.56061C27.202 2.55983 26.6406 3.91507 26.6406 5.32819V56.8337H7.10404C5.69092 56.8337 4.33568 57.3951 3.33646 58.3943C2.33724 59.3935 1.77588 60.7488 1.77588 62.1619V62.1619ZM77.4109 14.2085H71.0419C70.5709 14.2085 70.1192 14.0213 69.7861 13.6883C69.453 13.3552 69.2659 12.9034 69.2659 12.4324V6.06347L77.4109 14.2085ZM44.4012 71.0421V62.1619C44.4012 60.7488 43.8398 59.3935 42.8406 58.3943C41.8413 57.3951 40.4861 56.8337 39.073 56.8337H30.1927V5.32819C30.1927 4.85715 30.3798 4.4054 30.7129 4.07233C31.046 3.73925 31.4977 3.55213 31.9688 3.55213H65.7138V12.4324C65.7138 13.8455 66.2752 15.2008 67.2744 16.2C68.2736 17.1992 69.6288 17.7606 71.0419 17.7606H79.9222V69.2661C79.9222 69.7371 79.7351 70.1889 79.402 70.522C79.0689 70.855 78.6172 71.0421 78.1462 71.0421H44.4012ZM5.32799 62.1619C5.32799 61.6908 5.5151 61.2391 5.84818 60.906C6.18125 60.5729 6.633 60.3858 7.10404 60.3858H39.073C39.544 60.3858 39.9958 60.5729 40.3289 60.906C40.6619 61.2391 40.849 61.6908 40.849 62.1619V83.4745C40.849 83.9456 40.6619 84.3973 40.3289 84.7304C39.9958 85.0635 39.544 85.2506 39.073 85.2506H7.10404C6.633 85.2506 6.18125 85.0635 5.84818 84.7304C5.5151 84.3973 5.32799 83.9456 5.32799 83.4745V62.1619Z" fill="white"/>
<path d="M0 12.4324V26.6408C0 27.1118 0.187119 27.5636 0.520194 27.8967C0.853268 28.2297 1.30501 28.4168 1.77605 28.4168C2.24709 28.4168 2.69884 28.2297 3.03191 27.8967C3.36499 27.5636 3.55211 27.1118 3.55211 26.6408V12.4324C3.55211 11.9613 3.73923 11.5096 4.0723 11.1765C4.40537 10.8434 4.85712 10.6563 5.32816 10.6563H7.10421V40.8492C7.10396 41.1247 7.1678 41.3965 7.2907 41.6431L12.6189 52.2994C12.7662 52.595 12.9929 52.8436 13.2737 53.0174C13.5545 53.1912 13.8782 53.2833 14.2084 53.2833C14.5386 53.2833 14.8623 53.1912 15.1431 53.0174C15.4239 52.8436 15.6507 52.595 15.798 52.2994L21.1262 41.6431C21.249 41.3965 21.3129 41.1247 21.3126 40.8492V5.32816C21.3126 3.91504 20.7513 2.55981 19.7521 1.56058C18.7528 0.561358 17.3976 0 15.9845 0H12.4324C11.0193 0 9.66402 0.561358 8.66479 1.56058C7.66557 2.55981 7.10421 3.91504 7.10421 5.32816V7.10421H5.32816C3.91504 7.10421 2.55981 7.66557 1.56058 8.66479C0.561358 9.66402 0 11.0193 0 12.4324V12.4324ZM10.6563 10.6563H17.7605V39.0732H10.6563V10.6563ZM17.7605 7.10421H10.6563V5.32816C10.6563 4.85712 10.8434 4.40537 11.1765 4.0723C11.5096 3.73923 11.9613 3.55211 12.4324 3.55211H15.9845C16.4555 3.55211 16.9073 3.73923 17.2403 4.0723C17.5734 4.40537 17.7605 4.85712 17.7605 5.32816V7.10421ZM11.7539 42.6253H16.6629L14.2084 47.5343L11.7539 42.6253Z" fill="white"/>
</svg>
