<svg width="107" height="111" viewBox="0 0 107 111" fill="none" xmlns="http://www.w3.org/2000/svg">
<path d="M106.563 104.787V31.6672C106.562 30.6141 106.249 29.5849 105.664 28.7095C105.078 27.8342 104.246 27.152 103.273 26.7491C102.3 26.3462 101.23 26.2407 100.197 26.4459C99.1638 26.6511 98.2148 27.1578 97.4697 27.902L92.3546 33.0525L97.3809 38.0788C97.7153 38.4132 97.9032 38.8668 97.9032 39.3398C97.9032 39.8127 97.7153 40.2663 97.3809 40.6008C97.0464 40.9352 96.5928 41.1231 96.1199 41.1231C95.6469 41.1231 95.1933 40.9352 94.8589 40.6008L89.7971 35.5213L82.2489 43.0517L87.2751 48.078C87.461 48.2372 87.612 48.4331 87.7187 48.6535C87.8253 48.8738 87.8852 49.1138 87.8946 49.3584C87.9041 49.603 87.8628 49.8469 87.7736 50.0748C87.6843 50.3027 87.5488 50.5097 87.3757 50.6828C87.2027 50.8559 86.9957 50.9913 86.7678 51.0806C86.5398 51.1699 86.2959 51.2111 86.0513 51.2017C85.8067 51.1922 85.5667 51.1323 85.3464 51.0257C85.126 50.9191 84.9301 50.7681 84.7709 50.5822L79.7447 45.627L72.2142 53.1575L77.2404 58.1837C77.5712 58.5165 77.7569 58.9666 77.7569 59.4358C77.7569 59.905 77.5712 60.3552 77.2404 60.6879C77.0753 60.8544 76.8789 60.9865 76.6625 61.0767C76.446 61.1669 76.2139 61.2133 75.9794 61.2133C75.745 61.2133 75.5128 61.1669 75.2964 61.0767C75.08 60.9865 74.8835 60.8544 74.7184 60.6879L69.6922 55.6617L62.1617 63.2099L67.188 68.2184C67.5224 68.5528 67.7103 69.0064 67.7103 69.4794C67.7103 69.9524 67.5224 70.406 67.188 70.7404C66.8535 71.0748 66.3999 71.2627 65.927 71.2627C65.454 71.2627 65.0004 71.0748 64.666 70.7404L59.6575 65.7142L52.1093 73.2446L57.1355 78.2709C57.4663 78.6036 57.652 79.0538 57.652 79.523C57.652 79.9922 57.4663 80.4423 57.1355 80.7751C56.8027 81.1059 56.3526 81.2916 55.8834 81.2916C55.4142 81.2916 54.964 81.1059 54.6313 80.7751L49.605 75.7666L42.0746 83.2971L47.083 88.3233C47.4138 88.6561 47.5995 89.1062 47.5995 89.5754C47.5995 90.0446 47.4138 90.4948 47.083 90.8276C46.7503 91.1583 46.3001 91.344 45.8309 91.344C45.3617 91.344 44.9116 91.1583 44.5788 90.8276L39.5526 85.8013L31.9688 93.3496L36.9951 98.358C37.1607 98.5236 37.292 98.7202 37.3816 98.9366C37.4713 99.1529 37.5174 99.3848 37.5174 99.619C37.5174 99.8532 37.4713 100.085 37.3816 100.301C37.292 100.518 37.1607 100.714 36.9951 100.88C36.8295 101.046 36.6329 101.177 36.4165 101.267C36.2002 101.356 35.9683 101.402 35.7341 101.402C35.4999 101.402 35.268 101.356 35.0516 101.267C34.8353 101.177 34.6387 101.046 34.4731 100.88L29.5179 95.9071L24.3496 101.075C23.6233 101.823 23.1324 102.767 22.9375 103.791C22.7426 104.815 22.8523 105.874 23.2531 106.836C23.6539 107.798 24.3281 108.622 25.1922 109.205C26.0564 109.788 27.0725 110.104 28.1148 110.115H101.235C102.648 110.115 104.003 109.554 105.002 108.555C106.002 107.556 106.563 106.2 106.563 104.787V104.787ZM88.8025 94.131H58.1301C57.7743 94.1403 57.4239 94.0425 57.1244 93.8503C56.8248 93.658 56.59 93.3802 56.4502 93.0529C56.3105 92.7255 56.2723 92.3638 56.3407 92.0145C56.409 91.6652 56.5808 91.3445 56.8336 91.094L87.5415 60.386C87.79 60.1355 88.1073 59.9647 88.4532 59.8953C88.7991 59.8259 89.1578 59.8611 89.4836 59.9964C89.8094 60.1317 90.0876 60.3609 90.2826 60.6549C90.4776 60.9488 90.5806 61.2942 90.5786 61.647V92.355C90.5786 92.826 90.3915 93.2777 90.0584 93.6108C89.7253 93.9439 89.2736 94.131 88.8025 94.131V94.131Z" fill="#F1C84B"/>
<path d="M37.2972 23.0888C45.8577 23.0888 55.0577 20.8687 55.0577 15.9846C55.0577 11.1004 45.8577 8.88037 37.2972 8.88037C28.7366 8.88037 19.5366 11.1004 19.5366 15.9846C19.5366 20.8687 28.7366 23.0888 37.2972 23.0888ZM37.2972 12.4325C46.6214 12.4325 51.5056 15.0788 51.5056 15.9846C51.5056 16.8904 46.6214 19.5367 37.2972 19.5367C27.9729 19.5367 23.0887 16.8904 23.0887 15.9846C23.0887 15.0788 27.9729 12.4325 37.2972 12.4325Z" fill="white"/>
<path d="M83.4745 28.4168H74.5942V15.9845C74.5942 7.10421 58.219 0 37.2971 0C16.3752 0 0 7.10421 0 15.9845V37.2971C0 47.7936 19.1991 52.1094 30.1929 52.9974C32.484 53.175 34.8462 53.2816 37.2971 53.2816H83.4745C84.8876 53.2816 86.2429 52.7202 87.2421 51.721C88.2413 50.7218 88.8027 49.3665 88.8027 47.9534V33.745C88.8027 32.3319 88.2413 30.9767 87.2421 29.9774C86.2429 28.9782 84.8876 28.4168 83.4745 28.4168ZM60.9897 28.4168C64.6787 27.2552 68.0971 25.3649 71.0421 22.8578V28.4168H60.9897ZM37.2971 3.55211C57.1889 3.55211 71.0421 10.1057 71.0421 15.9845C71.0421 21.8632 57.1889 28.4168 37.2971 28.4168C17.4053 28.4168 3.55211 21.8632 3.55211 15.9845C3.55211 10.1057 17.4053 3.55211 37.2971 3.55211V3.55211ZM3.55211 37.2971V22.8578C9.4486 28.2925 22.1651 31.969 37.2971 31.969H74.5942V49.7295H60.3858V44.4013C60.3858 43.9303 60.1987 43.4785 59.8656 43.1455C59.5325 42.8124 59.0808 42.6253 58.6098 42.6253C58.1387 42.6253 57.687 42.8124 57.3539 43.1455C57.0208 43.4785 56.8337 43.9303 56.8337 44.4013V49.7295H46.1774V44.4013C46.1774 43.9303 45.9903 43.4785 45.6572 43.1455C45.3241 42.8124 44.8724 42.6253 44.4013 42.6253C43.9303 42.6253 43.4785 42.8124 43.1455 43.1455C42.8124 43.4785 42.6253 43.9303 42.6253 44.4013V49.7295H37.2971C35.5211 49.7295 33.745 49.7295 31.969 49.5519V44.2237C31.969 43.7527 31.7818 43.3009 31.4488 42.9679C31.1157 42.6348 30.6639 42.4477 30.1929 42.4477C29.7219 42.4477 29.2701 42.6348 28.937 42.9679C28.604 43.3009 28.4169 43.7527 28.4169 44.2237V49.3388C24.8175 48.9878 21.2533 48.3403 17.7605 47.4029V41.7195C17.7605 41.2484 17.5734 40.7967 17.2403 40.4636C16.9073 40.1306 16.4555 39.9434 15.9845 39.9434C15.5134 39.9434 15.0617 40.1306 14.7286 40.4636C14.3955 40.7967 14.2084 41.2484 14.2084 41.7195V46.1774C7.51271 43.7442 3.55211 40.4407 3.55211 37.2971V37.2971ZM85.2506 47.9534C85.2506 48.4245 85.0634 48.8762 84.7304 49.2093C84.3973 49.5424 83.9455 49.7295 83.4745 49.7295H78.1463V31.969H83.4745C83.9455 31.969 84.3973 32.1561 84.7304 32.4891C85.0634 32.8222 85.2506 33.274 85.2506 33.745V47.9534Z" fill="white"/>
</svg>
