<svg width="111" height="111" viewBox="0 0 111 111" fill="none" xmlns="http://www.w3.org/2000/svg">
<path d="M104.787 95.9014H26.6409C23.6982 95.9014 21.3127 98.2869 21.3127 101.23V104.782C21.3127 107.724 23.6982 110.11 26.6409 110.11H104.787C107.73 110.11 110.115 107.724 110.115 104.782V101.23C110.115 98.2869 107.73 95.9014 104.787 95.9014Z" fill="#F1C84B"/>
<path d="M106.563 34.8053L66.2824 21.3961C65.9137 21.2716 65.5144 21.2716 65.1457 21.3961L24.9537 34.8053C23.8949 35.1588 22.9739 35.8358 22.3207 36.7408C21.6674 37.6458 21.3148 38.7332 21.3127 39.8493V44.396C21.3127 45.8091 21.8741 47.1644 22.8733 48.1636C23.8725 49.1628 25.2278 49.7242 26.6409 49.7242H104.787C106.2 49.7242 107.556 49.1628 108.555 48.1636C109.554 47.1644 110.115 45.8091 110.115 44.396V39.8493C110.12 38.744 109.78 37.6647 109.144 36.7609C108.507 35.8572 107.605 35.1738 106.563 34.8053V34.8053ZM65.7141 42.62C64.309 42.62 62.9355 42.2033 61.7672 41.4227C60.5989 40.6421 59.6883 39.5325 59.1506 38.2344C58.6129 36.9363 58.4722 35.5079 58.7464 34.1298C59.0205 32.7517 59.6971 31.4859 60.6906 30.4923C61.6842 29.4988 62.95 28.8222 64.3281 28.548C65.7062 28.2739 67.1346 28.4146 68.4327 28.9523C69.7309 29.49 70.8404 30.4006 71.621 31.5689C72.4016 32.7371 72.8183 34.1107 72.8183 35.5157C72.8183 37.3999 72.0698 39.2069 70.7375 40.5392C69.4052 41.8715 67.5982 42.62 65.7141 42.62Z" fill="#F1C84B"/>
<path d="M35.5212 53.2764H49.7297V92.3495H35.5212V53.2764Z" fill="#F1C84B"/>
<path d="M58.6099 53.2764H72.8183V92.3495H58.6099V53.2764Z" fill="#F1C84B"/>
<path d="M81.6985 53.2764H95.9069V92.3495H81.6985V53.2764Z" fill="#F1C84B"/>
<path d="M15.9845 60.3804H72.8183C73.2893 60.3804 73.741 60.1933 74.0741 59.8602C74.4072 59.5272 74.5943 59.0754 74.5943 58.6044V15.9791C74.5943 15.5081 74.4072 15.0563 74.0741 14.7232C73.741 14.3902 73.2893 14.2031 72.8183 14.2031H55.0577C54.5867 14.2031 54.1349 14.3902 53.8019 14.7232C53.4688 15.0563 53.2817 15.5081 53.2817 15.9791V21.3073H39.0732V12.427C39.0722 12.099 38.9805 11.7777 38.808 11.4987C38.6356 11.2197 38.3893 10.9939 38.0964 10.8463L16.7838 0.189991C16.5134 0.0537504 16.2127 -0.0111146 15.9102 0.00155641C15.6077 0.0142274 15.3135 0.104014 15.0555 0.262389C14.7974 0.420764 14.5842 0.642469 14.4359 0.906451C14.2877 1.17043 14.2094 1.46793 14.2085 1.77068V58.6044C14.2085 59.0754 14.3956 59.5272 14.7287 59.8602C15.0618 60.1933 15.5135 60.3804 15.9845 60.3804ZM56.8338 17.7552H71.0422V56.8283H56.8338V17.7552ZM53.2817 24.8594V56.8283H39.0732V24.8594H53.2817ZM17.7606 4.64788L35.5211 13.5281V56.8283H17.7606V4.64788Z" fill="white"/>
<path d="M30.193 19.5312H23.0888C22.6178 19.5312 22.166 19.7184 21.8329 20.0514C21.4999 20.3845 21.3127 20.8363 21.3127 21.3073C21.3127 21.7783 21.4999 22.2301 21.8329 22.5632C22.166 22.8962 22.6178 23.0834 23.0888 23.0834H30.193C30.664 23.0834 31.1158 22.8962 31.4489 22.5632C31.7819 22.2301 31.9691 21.7783 31.9691 21.3073C31.9691 20.8363 31.7819 20.3845 31.4489 20.0514C31.1158 19.7184 30.664 19.5312 30.193 19.5312Z" fill="white"/>
<path d="M44.4013 39.0677H47.9534C48.4244 39.0677 48.8762 38.8806 49.2093 38.5475C49.5423 38.2145 49.7295 37.7627 49.7295 37.2917C49.7295 36.8206 49.5423 36.3689 49.2093 36.0358C48.8762 35.7027 48.4244 35.5156 47.9534 35.5156H44.4013C43.9303 35.5156 43.4785 35.7027 43.1454 36.0358C42.8124 36.3689 42.6252 36.8206 42.6252 37.2917C42.6252 37.7627 42.8124 38.2145 43.1454 38.5475C43.4785 38.8806 43.9303 39.0677 44.4013 39.0677Z" fill="white"/>
<path d="M74.5942 65.7087C74.5942 65.2376 74.4071 64.7859 74.074 64.4528C73.741 64.1197 73.2892 63.9326 72.8182 63.9326H1.77605C1.30501 63.9326 0.853268 64.1197 0.520194 64.4528C0.187119 64.7859 0 65.2376 0 65.7087C0 66.1797 0.187119 66.6315 0.520194 66.9645C0.853268 67.2976 1.30501 67.4847 1.77605 67.4847H72.8182C73.2892 67.4847 73.741 67.2976 74.074 66.9645C74.4071 66.6315 74.5942 66.1797 74.5942 65.7087Z" fill="white"/>
<path d="M87.0265 63.9326H79.9223C79.4513 63.9326 78.9995 64.1197 78.6664 64.4528C78.3334 64.7859 78.1462 65.2376 78.1462 65.7087C78.1462 66.1797 78.3334 66.6315 78.6664 66.9645C78.9995 67.2976 79.4513 67.4847 79.9223 67.4847H87.0265C87.4975 67.4847 87.9493 67.2976 88.2824 66.9645C88.6154 66.6315 88.8026 66.1797 88.8026 65.7087C88.8026 65.2376 88.6154 64.7859 88.2824 64.4528C87.9493 64.1197 87.4975 63.9326 87.0265 63.9326Z" fill="white"/>
<path d="M62.162 72.813H10.6564C10.1854 72.813 9.73364 73.0001 9.40057 73.3332C9.06749 73.6663 8.88037 74.118 8.88037 74.589C8.88037 75.0601 9.06749 75.5118 9.40057 75.8449C9.73364 76.178 10.1854 76.3651 10.6564 76.3651H62.162C62.633 76.3651 63.0848 76.178 63.4178 75.8449C63.7509 75.5118 63.938 75.0601 63.938 74.589C63.938 74.118 63.7509 73.6663 63.4178 73.3332C63.0848 73.0001 62.633 72.813 62.162 72.813Z" fill="white"/>
<path d="M76.3703 72.813H69.266C68.795 72.813 68.3433 73.0001 68.0102 73.3332C67.6771 73.6663 67.49 74.118 67.49 74.589C67.49 75.0601 67.6771 75.5118 68.0102 75.8449C68.3433 76.178 68.795 76.3651 69.266 76.3651H76.3703C76.8413 76.3651 77.293 76.178 77.6261 75.8449C77.9592 75.5118 78.1463 75.0601 78.1463 74.589C78.1463 74.118 77.9592 73.6663 77.6261 73.3332C77.293 73.0001 76.8413 72.813 76.3703 72.813Z" fill="white"/>
</svg>
