<svg width="111" height="107" viewBox="0 0 111 107" fill="none" xmlns="http://www.w3.org/2000/svg">
<path d="M31.9609 68.5283L72.0683 28.421L80.2289 36.5816L40.1215 76.6889L31.9609 68.5283Z" fill="#F1C84B"/>
<path d="M23.0771 77.4077L29.4446 71.0402L56.817 98.4126L50.4495 104.78L23.0771 77.4077Z" fill="#F1C84B"/>
<path d="M101.97 53.2814L109.595 45.6568C109.928 45.3238 110.115 44.8721 110.115 44.4012C110.115 43.9302 109.928 43.4785 109.595 43.1455L84.7302 18.2807C84.3971 17.9478 83.9454 17.7607 83.4745 17.7607C83.0036 17.7607 82.5519 17.9478 82.2188 18.2807L74.5942 25.9053L101.97 53.2814Z" fill="#F1C84B"/>
<path d="M42.6321 79.2021L82.7394 39.0948L88.7654 45.1208L48.658 85.2281L42.6321 79.2021Z" fill="#F1C84B"/>
<path d="M51.1689 87.7422L91.2763 47.6348L99.4394 55.798L59.3321 95.9053L51.1689 87.7422Z" fill="#F1C84B"/>
<path d="M21.3127 80.6577V104.787C21.3127 105.258 21.4999 105.71 21.8329 106.043C22.166 106.376 22.6178 106.563 23.0888 106.563H47.2183L21.3127 80.6577Z" fill="#F1C84B"/>
<path d="M62.1619 83.4745H5.32816C3.91504 83.4745 2.55981 82.9131 1.56058 81.9139C0.561358 80.9147 0 79.5595 0 78.1463V5.32816C0 3.91504 0.561358 2.55981 1.56058 1.56058C2.55981 0.561358 3.91504 0 5.32816 0H62.1619C63.575 0 64.9302 0.561358 65.9294 1.56058C66.9287 2.55981 67.49 3.91504 67.49 5.32816V78.1463C67.49 79.5595 66.9287 80.9147 65.9294 81.9139C64.9302 82.9131 63.575 83.4745 62.1619 83.4745ZM5.32816 3.55211C4.85712 3.55211 4.40537 3.73923 4.0723 4.0723C3.73923 4.40537 3.55211 4.85712 3.55211 5.32816V78.1463C3.55211 78.6174 3.73923 79.0691 4.0723 79.4022C4.40537 79.7353 4.85712 79.9224 5.32816 79.9224H62.1619C62.6329 79.9224 63.0846 79.7353 63.4177 79.4022C63.7508 79.0691 63.9379 78.6174 63.9379 78.1463V5.32816C63.9379 4.85712 63.7508 4.40537 63.4177 4.0723C63.0846 3.73923 62.6329 3.55211 62.1619 3.55211H5.32816Z" fill="white"/>
<path d="M44.4014 19.5365H10.6564C10.1854 19.5365 9.73364 19.3494 9.40057 19.0163C9.06749 18.6832 8.88037 18.2315 8.88037 17.7604C8.88037 17.2894 9.06749 16.8376 9.40057 16.5046C9.73364 16.1715 10.1854 15.9844 10.6564 15.9844H44.4014C44.8725 15.9844 45.3242 16.1715 45.6573 16.5046C45.9904 16.8376 46.1775 17.2894 46.1775 17.7604C46.1775 18.2315 45.9904 18.6832 45.6573 19.0163C45.3242 19.3494 44.8725 19.5365 44.4014 19.5365Z" fill="white"/>
<path d="M56.8338 35.5209H10.6564C10.1854 35.5209 9.73364 35.3337 9.40057 35.0007C9.06749 34.6676 8.88037 34.2158 8.88037 33.7448C8.88037 33.2738 9.06749 32.822 9.40057 32.4889C9.73364 32.1559 10.1854 31.9688 10.6564 31.9688H56.8338C57.3048 31.9688 57.7566 32.1559 58.0897 32.4889C58.4227 32.822 58.6099 33.2738 58.6099 33.7448C58.6099 34.2158 58.4227 34.6676 58.0897 35.0007C57.7566 35.3337 57.3048 35.5209 56.8338 35.5209Z" fill="white"/>
<path d="M44.4014 51.5057H10.6564C10.1854 51.5057 9.73364 51.3186 9.40057 50.9855C9.06749 50.6525 8.88037 50.2007 8.88037 49.7297C8.88037 49.2586 9.06749 48.8069 9.40057 48.4738C9.73364 48.1407 10.1854 47.9536 10.6564 47.9536H44.4014C44.8725 47.9536 45.3242 48.1407 45.6573 48.4738C45.9904 48.8069 46.1775 49.2586 46.1775 49.7297C46.1775 50.2007 45.9904 50.6525 45.6573 50.9855C45.3242 51.3186 44.8725 51.5057 44.4014 51.5057Z" fill="white"/>
<path d="M56.8338 67.4901H10.6564C10.1854 67.4901 9.73364 67.303 9.40057 66.9699C9.06749 66.6368 8.88037 66.1851 8.88037 65.714C8.88037 65.243 9.06749 64.7913 9.40057 64.4582C9.73364 64.1251 10.1854 63.938 10.6564 63.938H56.8338C57.3048 63.938 57.7566 64.1251 58.0897 64.4582C58.4227 64.7913 58.6099 65.243 58.6099 65.714C58.6099 66.1851 58.4227 66.6368 58.0897 66.9699C57.7566 67.303 57.3048 67.4901 56.8338 67.4901Z" fill="white"/>
</svg>
