<svg width="111" height="111" viewBox="0 0 111 111" fill="none" xmlns="http://www.w3.org/2000/svg">
<path d="M88.8026 21.3125C84.5874 21.3125 80.4668 22.5625 76.962 24.9043C73.4571 27.2462 70.7254 30.5748 69.1123 34.4691C67.4992 38.3635 67.0772 42.6488 67.8995 46.783C68.7219 50.9173 70.7517 54.7148 73.7323 57.6955C76.713 60.6761 80.5105 62.7059 84.6448 63.5283C88.779 64.3506 93.0643 63.9286 96.9586 62.3155C100.853 60.7023 104.182 57.9707 106.523 54.4658C108.865 50.961 110.115 46.8404 110.115 42.6251C110.115 36.9727 107.87 31.5517 103.873 27.5548C99.8761 23.5579 94.4551 21.3125 88.8026 21.3125V21.3125ZM99.459 44.4012H90.5787V53.2815C90.5787 53.7525 90.3916 54.2042 90.0585 54.5373C89.7254 54.8704 89.2737 55.0575 88.8026 55.0575C88.3316 55.0575 87.8799 54.8704 87.5468 54.5373C87.2137 54.2042 87.0266 53.7525 87.0266 53.2815V44.4012H78.1463C77.6753 44.4012 77.2235 44.2141 76.8905 43.881C76.5574 43.5479 76.3703 43.0962 76.3703 42.6251C76.3703 42.1541 76.5574 41.7024 76.8905 41.3693C77.2235 41.0362 77.6753 40.8491 78.1463 40.8491H87.0266V31.9688C87.0266 31.4978 87.2137 31.046 87.5468 30.713C87.8799 30.3799 88.3316 30.1928 88.8026 30.1928C89.2737 30.1928 89.7254 30.3799 90.0585 30.713C90.3916 31.046 90.5787 31.4978 90.5787 31.9688V40.8491H99.459C99.93 40.8491 100.382 41.0362 100.715 41.3693C101.048 41.7024 101.235 42.1541 101.235 42.6251C101.235 43.0962 101.048 43.5479 100.715 43.881C100.382 44.2141 99.93 44.4012 99.459 44.4012Z" fill="#F1C84B"/>
<path d="M88.8026 67.4902C84.5874 67.4902 80.4668 68.7402 76.962 71.0821C73.4571 73.4239 70.7254 76.7525 69.1123 80.6469C67.4992 84.5413 67.0772 88.8265 67.8995 92.9608C68.7219 97.095 70.7517 100.893 73.7323 103.873C76.713 106.854 80.5105 108.884 84.6448 109.706C88.779 110.528 93.0643 110.106 96.9586 108.493C100.853 106.88 104.182 104.148 106.523 100.644C108.865 97.1387 110.115 93.0181 110.115 88.8029C110.115 83.1504 107.87 77.7295 103.873 73.7326C99.8761 69.7357 94.4551 67.4902 88.8026 67.4902ZM99.459 94.131H78.1463C77.6753 94.131 77.2235 93.9439 76.8905 93.6108C76.5574 93.2778 76.3703 92.826 76.3703 92.355C76.3703 91.8839 76.5574 91.4322 76.8905 91.0991C77.2235 90.766 77.6753 90.5789 78.1463 90.5789H99.459C99.93 90.5789 100.382 90.766 100.715 91.0991C101.048 91.4322 101.235 91.8839 101.235 92.355C101.235 92.826 101.048 93.2778 100.715 93.6108C100.382 93.9439 99.93 94.131 99.459 94.131ZM99.459 87.0268H78.1463C77.6753 87.0268 77.2235 86.8397 76.8905 86.5066C76.5574 86.1736 76.3703 85.7218 76.3703 85.2508C76.3703 84.7797 76.5574 84.328 76.8905 83.9949C77.2235 83.6618 77.6753 83.4747 78.1463 83.4747H99.459C99.93 83.4747 100.382 83.6618 100.715 83.9949C101.048 84.328 101.235 84.7797 101.235 85.2508C101.235 85.7218 101.048 86.1736 100.715 86.5066C100.382 86.8397 99.93 87.0268 99.459 87.0268Z" fill="#F1C84B"/>
<path d="M42.6254 21.3125C38.4102 21.3125 34.2896 22.5625 30.7847 24.9043C27.2799 27.2462 24.5482 30.5748 22.9351 34.4691C21.322 38.3635 20.8999 42.6488 21.7223 46.783C22.5446 50.9173 24.5745 54.7148 27.5551 57.6955C30.5357 60.6761 34.3333 62.7059 38.4675 63.5283C42.6018 64.3506 46.887 63.9286 50.7814 62.3155C54.6758 60.7023 58.0043 57.9707 60.3462 54.4658C62.6881 50.961 63.938 46.8404 63.938 42.6251C63.938 36.9727 61.6926 31.5517 57.6957 27.5548C53.6988 23.5579 48.2779 21.3125 42.6254 21.3125V21.3125ZM53.2817 44.4012H31.9691C31.498 44.4012 31.0463 44.2141 30.7132 43.881C30.3801 43.5479 30.193 43.0962 30.193 42.6251C30.193 42.1541 30.3801 41.7024 30.7132 41.3693C31.0463 41.0362 31.498 40.8491 31.9691 40.8491H53.2817C53.7528 40.8491 54.2045 41.0362 54.5376 41.3693C54.8706 41.7024 55.0578 42.1541 55.0578 42.6251C55.0578 43.0962 54.8706 43.5479 54.5376 43.881C54.2045 44.2141 53.7528 44.4012 53.2817 44.4012Z" fill="#F1C84B"/>
<path d="M42.6254 67.4902C38.4102 67.4902 34.2896 68.7402 30.7847 71.0821C27.2799 73.4239 24.5482 76.7525 22.9351 80.6469C21.322 84.5413 20.8999 88.8265 21.7223 92.9608C22.5446 97.095 24.5745 100.893 27.5551 103.873C30.5357 106.854 34.3333 108.884 38.4675 109.706C42.6018 110.528 46.887 110.106 50.7814 108.493C54.6758 106.88 58.0043 104.148 60.3462 100.644C62.6881 97.1387 63.938 93.0181 63.938 88.8029C63.938 83.1504 61.6926 77.7295 57.6957 73.7326C53.6988 69.7357 48.2779 67.4902 42.6254 67.4902ZM52.7667 96.4221C53.1011 96.7566 53.289 97.2102 53.289 97.6831C53.289 98.1561 53.1011 98.6097 52.7667 98.9441C52.4322 99.2786 51.9786 99.4665 51.5057 99.4665C51.0327 99.4665 50.5791 99.2786 50.2447 98.9441L42.6254 91.3071L35.0061 98.9441C34.6717 99.2786 34.2181 99.4665 33.7451 99.4665C33.2722 99.4665 32.8186 99.2786 32.4841 98.9441C32.1497 98.6097 31.9618 98.1561 31.9618 97.6831C31.9618 97.2102 32.1497 96.7566 32.4841 96.4221L40.1212 88.8029L32.4841 81.1836C32.1497 80.8492 31.9618 80.3956 31.9618 79.9226C31.9618 79.4496 32.1497 78.996 32.4841 78.6616C32.8186 78.3272 33.2722 78.1393 33.7451 78.1393C34.2181 78.1393 34.6717 78.3272 35.0061 78.6616L42.6254 86.2986L50.2447 78.6616C50.5791 78.3272 51.0327 78.1393 51.5057 78.1393C51.9786 78.1393 52.4322 78.3272 52.7667 78.6616C53.1011 78.996 53.289 79.4496 53.289 79.9226C53.289 80.3956 53.1011 80.8492 52.7667 81.1836L45.1296 88.8029L52.7667 96.4221Z" fill="#F1C84B"/>
<path d="M65.714 0H5.32816C3.91504 0 2.55981 0.561358 1.56058 1.56058C0.561358 2.55981 0 3.91504 0 5.32816V83.4745C0 84.8876 0.561358 86.2429 1.56058 87.2421C2.55981 88.2413 3.91504 88.8027 5.32816 88.8027H65.714C67.1271 88.8027 68.4823 88.2413 69.4815 87.2421C70.4808 86.2429 71.0421 84.8876 71.0421 83.4745V5.32816C71.0421 3.91504 70.4808 2.55981 69.4815 1.56058C68.4823 0.561358 67.1271 0 65.714 0V0ZM67.49 83.4745C67.49 83.9455 67.3029 84.3973 66.9698 84.7304C66.6367 85.0634 66.185 85.2506 65.714 85.2506H5.32816C4.85712 85.2506 4.40537 85.0634 4.0723 84.7304C3.73923 84.3973 3.55211 83.9455 3.55211 83.4745V5.32816C3.55211 4.85712 3.73923 4.40537 4.0723 4.0723C4.40537 3.73923 4.85712 3.55211 5.32816 3.55211H65.714C66.185 3.55211 66.6367 3.73923 66.9698 4.0723C67.3029 4.40537 67.49 4.85712 67.49 5.32816V83.4745Z" fill="white"/>
<path d="M53.2816 10.6562H17.7605C16.3474 10.6562 14.9922 11.2176 13.993 12.2168C12.9937 13.2161 12.4324 14.5713 12.4324 15.9844V30.1928C12.4324 31.606 12.9937 32.9612 13.993 33.9604C14.9922 34.9596 16.3474 35.521 17.7605 35.521H53.2816C54.6947 35.521 56.0499 34.9596 57.0492 33.9604C58.0484 32.9612 58.6098 31.606 58.6098 30.1928V15.9844C58.6098 14.5713 58.0484 13.2161 57.0492 12.2168C56.0499 11.2176 54.6947 10.6562 53.2816 10.6562V10.6562ZM55.0576 30.1928C55.0576 30.6639 54.8705 31.1156 54.5375 31.4487C54.2044 31.7818 53.7526 31.9689 53.2816 31.9689H17.7605C17.2895 31.9689 16.8377 31.7818 16.5047 31.4487C16.1716 31.1156 15.9845 30.6639 15.9845 30.1928V15.9844C15.9845 15.5134 16.1716 15.0616 16.5047 14.7286C16.8377 14.3955 17.2895 14.2084 17.7605 14.2084H53.2816C53.7526 14.2084 54.2044 14.3955 54.5375 14.7286C54.8705 15.0616 55.0576 15.5134 55.0576 15.9844V30.1928Z" fill="white"/>
<path d="M24.8647 44.4014H14.2084C13.7374 44.4014 13.2856 44.5885 12.9526 44.9216C12.6195 45.2546 12.4324 45.7064 12.4324 46.1774V56.8337C12.4324 57.3048 12.6195 57.7565 12.9526 58.0896C13.2856 58.4227 13.7374 58.6098 14.2084 58.6098H24.8647C25.3358 58.6098 25.7875 58.4227 26.1206 58.0896C26.4537 57.7565 26.6408 57.3048 26.6408 56.8337V46.1774C26.6408 45.7064 26.4537 45.2546 26.1206 44.9216C25.7875 44.5885 25.3358 44.4014 24.8647 44.4014ZM23.0887 55.0577H15.9845V47.9535H23.0887V55.0577Z" fill="white"/>
<path d="M56.8337 44.4014H46.1774C45.7064 44.4014 45.2546 44.5885 44.9216 44.9216C44.5885 45.2546 44.4014 45.7064 44.4014 46.1774V56.8337C44.4014 57.3048 44.5885 57.7565 44.9216 58.0896C45.2546 58.4227 45.7064 58.6098 46.1774 58.6098H56.8337C57.3048 58.6098 57.7565 58.4227 58.0896 58.0896C58.4227 57.7565 58.6098 57.3048 58.6098 56.8337V46.1774C58.6098 45.7064 58.4227 45.2546 58.0896 44.9216C57.7565 44.5885 57.3048 44.4014 56.8337 44.4014ZM55.0577 55.0577H47.9535V47.9535H55.0577V55.0577Z" fill="white"/>
<path d="M24.8647 63.938H14.2084C13.7374 63.938 13.2856 64.1251 12.9526 64.4582C12.6195 64.7913 12.4324 65.243 12.4324 65.714V76.3704C12.4324 76.8414 12.6195 77.2931 12.9526 77.6262C13.2856 77.9593 13.7374 78.1464 14.2084 78.1464H24.8647C25.3358 78.1464 25.7875 77.9593 26.1206 77.6262C26.4537 77.2931 26.6408 76.8414 26.6408 76.3704V65.714C26.6408 65.243 26.4537 64.7913 26.1206 64.4582C25.7875 64.1251 25.3358 63.938 24.8647 63.938ZM23.0887 74.5943H15.9845V67.4901H23.0887V74.5943Z" fill="white"/>
<path d="M56.8337 63.938H46.1774C45.7064 63.938 45.2546 64.1251 44.9216 64.4582C44.5885 64.7913 44.4014 65.243 44.4014 65.714V76.3704C44.4014 76.8414 44.5885 77.2931 44.9216 77.6262C45.2546 77.9593 45.7064 78.1464 46.1774 78.1464H56.8337C57.3048 78.1464 57.7565 77.9593 58.0896 77.6262C58.4227 77.2931 58.6098 76.8414 58.6098 76.3704V65.714C58.6098 65.243 58.4227 64.7913 58.0896 64.4582C57.7565 64.1251 57.3048 63.938 56.8337 63.938ZM55.0577 74.5943H47.9535V67.4901H55.0577V74.5943Z" fill="white"/>
</svg>
