<svg width="47" height="51" viewBox="0 0 47 51" fill="none" xmlns="http://www.w3.org/2000/svg">
<path d="M45.9633 29.203C47.4645 16.5667 45.2421 8.58898 41.2333 4.98068L41.2354 4.97858C34.7652 -1.18341 12.9141 -2.09544 5.17337 5.25534C1.69716 8.85106 0.472726 14.1283 0.338542 20.6614C0.204358 27.1966 0.0450136 39.4388 11.4528 42.7598H11.4633L11.4528 47.8316C11.4528 47.8316 11.3752 49.8863 12.6877 50.2993C14.1889 50.7857 14.8682 49.8318 19.5374 44.2547C27.3452 44.9319 33.3416 43.3804 34.023 43.154C35.5997 42.6257 44.5208 41.4452 45.9633 29.203ZM20.3068 40.6863C20.3068 40.6863 15.3651 46.8483 13.8283 48.448C13.3251 48.968 12.7736 48.9197 12.782 47.8882C12.782 47.211 12.8198 39.4681 12.8198 39.4681C3.14802 36.6964 3.71831 26.2719 3.82314 20.8186C3.92797 15.3632 4.92597 10.8953 7.86963 7.88661C14.6606 1.51915 33.8175 2.94276 38.6985 7.53018C44.6655 12.82 42.5416 27.7647 42.5542 28.2742C41.3276 38.4932 34.0985 39.1411 32.7692 39.5834C32.201 39.7721 26.928 41.1287 20.3068 40.6863Z" fill="white"/>
<path d="M23.0409 9.08301C22.2337 9.08301 22.2337 10.341 23.0409 10.3515C29.3035 10.3997 34.4612 14.7649 34.5178 22.7719C34.5178 23.6168 35.7548 23.6064 35.7444 22.7614H35.7423C35.6752 14.1338 30.0436 9.13123 23.0409 9.08301Z" fill="white"/>
<path d="M31.2786 21.4453C31.2597 22.2798 32.4946 22.3196 32.5051 21.4747C32.6079 16.7174 29.6747 12.7988 24.1626 12.3858C23.3554 12.3271 23.2716 13.5955 24.0767 13.6542C28.857 14.0169 31.375 17.2793 31.2786 21.4453Z" fill="white"/>
<path d="M29.9575 26.857C28.9218 26.2574 27.8672 26.6306 27.4311 27.2197L26.5191 28.4001C26.0557 28.9998 25.1898 28.9201 25.1898 28.9201C18.8706 27.2491 17.1807 20.6363 17.1807 20.6363C17.1807 20.6363 17.1031 19.741 17.6818 19.2609L18.8224 18.3174C19.3926 17.8646 19.7533 16.7743 19.1725 15.7029C17.621 12.8997 16.579 11.9332 16.0485 11.191C15.4908 10.4928 14.6522 10.3356 13.78 10.8073H13.7611C11.9475 11.8682 9.962 13.8537 10.5973 15.8979C11.6812 18.0533 13.673 24.9239 20.0216 30.1152C23.0051 32.5703 27.7267 35.0863 29.7311 35.667L29.75 35.6964C31.725 36.3547 33.6455 34.2916 34.6708 32.4235V32.4089C35.1257 31.5052 34.9748 30.6498 34.3102 30.09C33.1318 28.941 31.3539 27.6726 29.9575 26.857Z" fill="white"/>
<path d="M25.0264 17.0657C27.0413 17.1831 28.0183 18.2356 28.1232 20.3972C28.1609 21.2422 29.3874 21.1835 29.3497 20.3385C29.2155 17.5165 27.7437 15.944 25.0935 15.7972C24.2863 15.749 24.2108 17.0175 25.0264 17.0657Z" fill="white"/>
</svg>
