<svg width="52" height="30" viewBox="0 0 52 30" fill="none" xmlns="http://www.w3.org/2000/svg">
<path d="M50.7299 26.0999C50.5925 25.8698 49.7422 24.0222 45.6508 20.2249C41.3675 16.2485 41.9429 16.8942 47.102 10.0186C50.2441 5.83129 51.5003 3.27413 51.1071 2.18095C50.7331 1.13891 48.4221 1.4138 48.4221 1.4138L40.7378 1.45855C40.7378 1.45855 40.1689 1.38184 39.7437 1.63435C39.3314 1.88368 39.0661 2.45904 39.0661 2.45904C39.0661 2.45904 37.8482 5.70023 36.2245 8.45556C32.8011 14.2699 31.4298 14.5768 30.8704 14.2156C29.5695 13.3749 29.8955 10.8337 29.8955 9.03093C29.8955 3.3956 30.7489 1.04621 28.2301 0.438884C27.3927 0.237508 26.779 0.103258 24.6405 0.0808824C21.898 0.0521144 19.5742 0.0904717 18.2604 0.732957C17.3846 1.16128 16.7102 2.11702 17.1225 2.17136C17.6307 2.23848 18.7815 2.48141 19.392 3.31249C20.1815 4.3833 20.1527 6.79341 20.1527 6.79341C20.1527 6.79341 20.6066 13.426 19.0947 14.2507C18.0559 14.8165 16.6334 13.6626 13.5808 8.38524C12.0178 5.68425 10.8351 2.69557 10.8351 2.69557C10.8351 2.69557 10.6082 2.13939 10.2022 1.84212C9.70995 1.48093 9.01952 1.36585 9.01952 1.36585L1.71245 1.4106C1.71245 1.4106 0.616067 1.44257 0.213315 1.91884C-0.144686 2.34397 0.184547 3.21979 0.184547 3.21979C0.184547 3.21979 5.90618 16.6033 12.3822 23.351C18.3244 29.5361 25.0689 29.1302 25.0689 29.1302H28.1247C28.1247 29.1302 29.0484 29.0279 29.5183 28.5196C29.953 28.053 29.937 27.1771 29.937 27.1771C29.937 27.1771 29.8763 23.0761 31.7814 22.472C33.6577 21.8774 36.0678 26.4356 38.6218 28.1904C40.5524 29.5169 42.0196 29.2261 42.0196 29.2261L48.8504 29.1302C48.8504 29.1302 52.424 28.9096 50.7299 26.0999Z" fill="white"/>
</svg>
