<svg width="44" height="44" viewBox="0 0 44 44" fill="none" xmlns="http://www.w3.org/2000/svg">
<path fill-rule="evenodd" clip-rule="evenodd" d="M37.4064 6.32365C33.3531 2.28507 27.9627 0.0599857 22.22 0.0576172C10.3866 0.0576172 0.755884 9.64194 0.751124 21.4219C0.749538 25.1876 1.73799 28.8635 3.61679 32.1036L0.571045 43.1751L11.952 40.2039C15.0879 41.9064 18.6184 42.8035 22.2112 42.8046H22.2202C34.0523 42.8046 43.684 33.2194 43.6885 21.439C43.6909 15.7298 41.4599 10.362 37.4064 6.32365ZM22.22 39.1963H22.2126C19.0108 39.1949 15.8706 38.3386 13.1306 36.7209L12.4793 36.3359L5.72565 38.0991L7.52829 31.546L7.10388 30.8741C5.31763 28.0466 4.37439 24.7786 4.37598 21.4232C4.37968 11.632 12.3846 3.66618 22.2271 3.66618C26.9932 3.66776 31.4735 5.51731 34.8424 8.87402C38.2113 12.2307 40.0655 16.6925 40.0639 21.4377C40.0597 31.2296 32.0553 39.1963 22.22 39.1963ZM32.0077 25.896C31.4714 25.6286 28.834 24.3375 28.3421 24.1591C27.8508 23.9809 27.4928 23.8922 27.1355 24.4265C26.7777 24.9607 25.7499 26.1634 25.4368 26.5194C25.1237 26.8758 24.8111 26.9205 24.2746 26.6531C23.7381 26.386 22.0097 25.8221 19.9606 24.0033C18.3661 22.5877 17.2896 20.8395 16.9765 20.3053C16.6639 19.7705 16.9739 19.5094 17.2119 19.2157C17.7925 18.4981 18.374 17.7457 18.5528 17.3896C18.7318 17.0333 18.6422 16.7214 18.5078 16.4543C18.374 16.1872 17.3012 13.5595 16.8543 12.4902C16.4186 11.4496 15.9767 11.5902 15.6472 11.5739C15.3346 11.5583 14.9769 11.5552 14.6191 11.5552C14.2616 11.5552 13.6803 11.6886 13.1885 12.2234C12.6969 12.7579 11.3113 14.0492 11.3113 16.677C11.3113 19.3047 13.2334 21.8432 13.5016 22.1995C13.7697 22.5559 17.2843 27.9482 22.6653 30.2604C23.9451 30.8109 24.9442 31.1391 25.7234 31.3852C27.0086 31.7915 28.1776 31.7341 29.1021 31.5968C30.1329 31.4433 32.2756 30.3051 32.723 29.0582C33.1699 27.8111 33.1699 26.7424 33.0356 26.5194C32.9018 26.2968 32.544 26.1634 32.0077 25.896Z" fill="white"/>
</svg>
