<svg width="113" height="24" viewBox="0 0 113 24" fill="none" xmlns="http://www.w3.org/2000/svg">
<path fill-rule="evenodd" clip-rule="evenodd" d="M39.31 0L25.5987 22.562L24.7248 24L23.8786 22.5461L19.7114 15.3866L15.3616 22.5611L14.5048 23.9742L13.6494 22.5604L0 0H2.31808L14.5066 20.1458L18.8709 12.9475L21.7937 8.02829L22.6504 6.58636L23.5125 8.02519L24.7518 10.0936L30.9205 0H33.2447L25.5974 12.513L24.7349 13.9244L23.8848 12.5057L22.6576 10.4575L20.8796 13.4499L24.7619 20.1201L36.9892 0H39.31ZM23.007 0L15.3598 12.513L14.5 13.9198L13.6487 12.5082L6.10499 0H8.42111L14.5114 10.0982L20.6828 0H23.007Z" fill="url(#paint0_linear)"/>
<path d="M62.8576 9.427L65.4163 0.444412H64.5544L62.3862 8.34963L60.1911 0.444412H59.4908L57.2822 8.34963L55.114 0.444412H54.2521L56.8243 9.427H57.6862L59.8409 1.71032L61.9957 9.427H62.8576Z" fill="url(#paint1_linear)"/>
<path d="M74.4863 9.427L71.9504 3.13919H70.9795L68.453 9.427H69.3486L69.9048 8.0318H73.0345L73.5907 9.427H74.4863ZM72.7989 7.3342H70.131L71.4697 3.94991L72.7989 7.3342Z" fill="url(#paint2_linear)"/>
<path d="M79.2066 9.427V6.76858L81.6765 3.13919H80.7621L78.8107 6.06156L76.8593 3.13919H75.9449L78.4242 6.76858V9.427H79.2066Z" fill="url(#paint3_linear)"/>
<path d="M62.5074 22.8941L58.8309 13.9116H57.8747L54.1982 22.8941H55.087L55.9759 20.6855H60.7298L61.6186 22.8941H62.5074ZM60.4739 19.9852H56.2318L58.3461 14.7331L60.4739 19.9852Z" fill="url(#paint4_linear)"/>
<path d="M69.1233 23.0073C70.2357 23.0073 70.9899 22.4794 71.5178 21.7629L70.8485 21.3952C70.4902 21.9326 69.8398 22.3097 69.1233 22.3097C67.747 22.3097 66.7006 21.2444 66.7006 19.7549C66.7006 18.2561 67.747 17.2002 69.1233 17.2002C69.8398 17.2002 70.4902 17.5867 70.8485 18.1147L71.5084 17.747C71.0087 17.04 70.2357 16.5026 69.1233 16.5026C67.3133 16.5026 65.8899 17.8224 65.8899 19.7549C65.8899 21.6875 67.3133 23.0073 69.1233 23.0073Z" fill="url(#paint5_linear)"/>
<path d="M79.7556 22.8941L77.2197 16.6063H76.2487L73.7223 22.8941H74.6179L75.1741 21.4989H78.3038L78.86 22.8941H79.7556ZM78.0681 20.8013H75.4003L76.7389 17.4171L78.0681 20.8013Z" fill="url(#paint6_linear)"/>
<path d="M84.6124 22.8941C86.5638 22.8941 87.8364 21.5461 87.8364 19.7549C87.8364 17.9732 86.5638 16.6063 84.6124 16.6063H82.463V22.8941H84.6124ZM84.6124 22.1965H83.2455V17.3039H84.6124C86.1679 17.3039 87.0257 18.3975 87.0257 19.7549C87.0257 21.103 86.1396 22.1965 84.6124 22.1965Z" fill="url(#paint7_linear)"/>
<path d="M95.0688 22.8941V22.1965H91.7316V20.0283H95.0028V19.3307H91.7316V17.3039H95.0688V16.6063H90.9492V22.8941H95.0688Z" fill="url(#paint8_linear)"/>
<path d="M104.358 22.8941V16.6063H103.236L101.275 21.3387L99.3235 16.6063H98.2017V22.8941H98.9841V17.7187L101.115 22.8941H101.435L103.575 17.7187V22.8941H104.358Z" fill="url(#paint9_linear)"/>
<path d="M110.321 22.8941V20.2357L112.791 16.6063H111.876L109.925 19.5287L107.974 16.6063H107.059L109.539 20.2357V22.8941H110.321Z" fill="url(#paint10_linear)"/>
<defs>
<linearGradient id="paint0_linear" x1="35.2152" y1="-3.81818" x2="15.5881" y2="30.0162" gradientUnits="userSpaceOnUse">
<stop stop-color="#6ED5FF"/>
<stop offset="1" stop-color="#0392CC"/>
</linearGradient>
<linearGradient id="paint1_linear" x1="-99.3831" y1="-14.7093" x2="-77.2162" y2="140.38" gradientUnits="userSpaceOnUse">
<stop stop-color="#6ED5FF"/>
<stop offset="1" stop-color="#0392CC"/>
</linearGradient>
<linearGradient id="paint2_linear" x1="-99.3831" y1="-14.7093" x2="-77.2162" y2="140.38" gradientUnits="userSpaceOnUse">
<stop stop-color="#6ED5FF"/>
<stop offset="1" stop-color="#0392CC"/>
</linearGradient>
<linearGradient id="paint3_linear" x1="-99.3831" y1="-14.7093" x2="-77.2162" y2="140.38" gradientUnits="userSpaceOnUse">
<stop stop-color="#6ED5FF"/>
<stop offset="1" stop-color="#0392CC"/>
</linearGradient>
<linearGradient id="paint4_linear" x1="-99.3831" y1="-14.7093" x2="-77.2162" y2="140.38" gradientUnits="userSpaceOnUse">
<stop stop-color="#6ED5FF"/>
<stop offset="1" stop-color="#0392CC"/>
</linearGradient>
<linearGradient id="paint5_linear" x1="-99.3831" y1="-14.7093" x2="-77.2162" y2="140.38" gradientUnits="userSpaceOnUse">
<stop stop-color="#6ED5FF"/>
<stop offset="1" stop-color="#0392CC"/>
</linearGradient>
<linearGradient id="paint6_linear" x1="-99.3831" y1="-14.7093" x2="-77.2162" y2="140.38" gradientUnits="userSpaceOnUse">
<stop stop-color="#6ED5FF"/>
<stop offset="1" stop-color="#0392CC"/>
</linearGradient>
<linearGradient id="paint7_linear" x1="-99.3831" y1="-14.7093" x2="-77.2162" y2="140.38" gradientUnits="userSpaceOnUse">
<stop stop-color="#6ED5FF"/>
<stop offset="1" stop-color="#0392CC"/>
</linearGradient>
<linearGradient id="paint8_linear" x1="-99.3831" y1="-14.7093" x2="-77.2162" y2="140.38" gradientUnits="userSpaceOnUse">
<stop stop-color="#6ED5FF"/>
<stop offset="1" stop-color="#0392CC"/>
</linearGradient>
<linearGradient id="paint9_linear" x1="-99.3831" y1="-14.7093" x2="-77.2162" y2="140.38" gradientUnits="userSpaceOnUse">
<stop stop-color="#6ED5FF"/>
<stop offset="1" stop-color="#0392CC"/>
</linearGradient>
<linearGradient id="paint10_linear" x1="-99.3831" y1="-14.7093" x2="-77.2162" y2="140.38" gradientUnits="userSpaceOnUse">
<stop stop-color="#6ED5FF"/>
<stop offset="1" stop-color="#0392CC"/>
</linearGradient>
</defs>
</svg>
