<svg width="172" height="45" viewBox="0 0 172 45" fill="none" xmlns="http://www.w3.org/2000/svg">
<path fill-rule="evenodd" clip-rule="evenodd" d="M73.6809 0L47.9811 42.2892L46.343 44.9845L44.7569 42.2593L36.9462 28.8399L28.793 42.2875L27.1872 44.9362L25.5837 42.2861L0 0H4.3449L27.1904 37.7603L35.3707 24.2681L40.8491 15.0479L42.4549 12.3452L44.0708 15.042L46.3937 18.9189L57.9559 0H62.3123L47.9787 23.4538L46.362 26.0993L44.7686 23.4401L42.4684 19.6011L39.1358 25.2099L46.4125 37.7121L69.3309 0H73.6809ZM43.1233 0L28.7897 23.4538L27.1782 26.0907L25.5824 23.4447L11.4429 0H15.7841L27.1994 18.9276L38.7668 0H43.1233Z" fill="url(#paint0_linear)"/>
<path d="M95.9055 17.9937H94.5522L92.3417 9.92652L90.1313 17.9937H88.7779L85.921 7.99219H87.3044L89.5298 16.3293L91.8305 7.99219H92.868L95.1687 16.3293L97.3791 7.99219H98.7625L95.9055 17.9937Z" fill="url(#paint1_linear)"/>
<path d="M113.603 17.9937H112.175L111.287 15.7745H106.295L105.408 17.9937H103.98L108.009 7.99219H109.558L113.603 17.9937ZM110.911 14.6649L108.791 9.28175L106.656 14.6649H110.911Z" fill="url(#paint2_linear)"/>
<path d="M123.689 17.9937H122.44V13.7652L118.486 7.99219H119.944L123.057 12.6406L126.169 7.99219H127.629L123.689 13.7652V17.9937Z" fill="url(#paint3_linear)"/>
<path d="M95.4696 38.9869H94.0411L93.1539 36.7677H88.1616L87.2744 38.9869H85.846L89.8758 28.9854H91.4246L95.4696 38.9869ZM92.778 35.6581L90.6578 30.2749L88.5226 35.6581H92.778Z" fill="url(#paint4_linear)"/>
<path d="M106.538 39.1817C105.084 39.1817 103.862 38.7019 102.869 37.7422C101.877 36.7725 101.38 35.523 101.38 33.9935C101.38 32.4641 101.877 31.2194 102.869 30.2598C103.862 29.3001 105.084 28.8203 106.538 28.8203C108.122 28.8203 109.42 29.445 110.433 30.6946L109.44 31.3094C109.119 30.8896 108.698 30.5546 108.177 30.3048C107.666 30.0549 107.12 29.9299 106.538 29.9299C105.435 29.9299 104.513 30.3148 103.771 31.0845C103.04 31.8443 102.674 32.8138 102.674 33.9935C102.674 35.1731 103.04 36.1477 103.771 36.9175C104.513 37.6872 105.435 38.0721 106.538 38.0721C107.089 38.0721 107.601 37.9671 108.072 37.7572C108.553 37.5372 108.939 37.2823 109.23 36.9925V34.9531H105.786V33.8435H110.478V37.4573C109.445 38.6069 108.132 39.1817 106.538 39.1817Z" fill="url(#paint5_linear)"/>
<path d="M124.641 38.9869H118.07V28.9854H124.641V30.0949H119.318V33.3189H124.536V34.4285H119.318V37.8773H124.641V38.9869Z" fill="url(#paint6_linear)"/>
<path d="M140.495 38.9869H139.292L133.443 31.0097V38.9869H132.194V28.9854H133.472L139.247 36.7976V28.9854H140.495V38.9869Z" fill="url(#paint7_linear)"/>
<path d="M153.156 39.1667C151.692 39.1667 150.464 38.6868 149.472 37.7272C148.489 36.7575 147.998 35.513 147.998 33.9935C147.998 32.474 148.489 31.2344 149.472 30.2747C150.464 29.3052 151.692 28.8203 153.156 28.8203C154.76 28.8203 156.028 29.48 156.961 30.7996L155.907 31.3844C155.617 30.9546 155.226 30.6047 154.734 30.3348C154.244 30.0648 153.717 29.9299 153.156 29.9299C152.053 29.9299 151.131 30.3148 150.39 31.0845C149.658 31.8443 149.291 32.8138 149.291 33.9935C149.291 35.1731 149.658 36.1477 150.39 36.9175C151.131 37.6772 152.053 38.0571 153.156 38.0571C153.717 38.0571 154.244 37.9271 154.734 37.6672C155.226 37.3973 155.617 37.0424 155.907 36.6026L156.975 37.1874C156.003 38.5069 154.73 39.1667 153.156 39.1667Z" fill="url(#paint8_linear)"/>
<path d="M168.06 38.9869H166.813V34.7584L162.857 28.9854H164.316L167.428 33.6338L170.541 28.9854H172L168.06 34.7584V38.9869Z" fill="url(#paint9_linear)"/>
<defs>
<linearGradient id="paint0_linear" x1="66.0058" y1="-7.15663" x2="29.2176" y2="56.2609" gradientUnits="userSpaceOnUse">
<stop stop-color="#6ED5FF"/>
<stop offset="1" stop-color="#0392CC"/>
</linearGradient>
<linearGradient id="paint1_linear" x1="94.8201" y1="3.03027" x2="112.896" y2="55.5786" gradientUnits="userSpaceOnUse">
<stop stop-color="#6ED5FF"/>
<stop offset="1" stop-color="#0392CC"/>
</linearGradient>
<linearGradient id="paint2_linear" x1="94.8202" y1="3.03027" x2="112.896" y2="55.5786" gradientUnits="userSpaceOnUse">
<stop stop-color="#6ED5FF"/>
<stop offset="1" stop-color="#0392CC"/>
</linearGradient>
<linearGradient id="paint3_linear" x1="94.8202" y1="3.03027" x2="112.896" y2="55.5786" gradientUnits="userSpaceOnUse">
<stop stop-color="#6ED5FF"/>
<stop offset="1" stop-color="#0392CC"/>
</linearGradient>
<linearGradient id="paint4_linear" x1="94.8203" y1="3.03065" x2="112.896" y2="55.579" gradientUnits="userSpaceOnUse">
<stop stop-color="#6ED5FF"/>
<stop offset="1" stop-color="#0392CC"/>
</linearGradient>
<linearGradient id="paint5_linear" x1="94.8202" y1="3.03053" x2="112.896" y2="55.5788" gradientUnits="userSpaceOnUse">
<stop stop-color="#6ED5FF"/>
<stop offset="1" stop-color="#0392CC"/>
</linearGradient>
<linearGradient id="paint6_linear" x1="94.8203" y1="3.03065" x2="112.896" y2="55.579" gradientUnits="userSpaceOnUse">
<stop stop-color="#6ED5FF"/>
<stop offset="1" stop-color="#0392CC"/>
</linearGradient>
<linearGradient id="paint7_linear" x1="94.8203" y1="3.03065" x2="112.896" y2="55.579" gradientUnits="userSpaceOnUse">
<stop stop-color="#6ED5FF"/>
<stop offset="1" stop-color="#0392CC"/>
</linearGradient>
<linearGradient id="paint8_linear" x1="94.8201" y1="3.03053" x2="112.896" y2="55.5788" gradientUnits="userSpaceOnUse">
<stop stop-color="#6ED5FF"/>
<stop offset="1" stop-color="#0392CC"/>
</linearGradient>
<linearGradient id="paint9_linear" x1="94.8204" y1="3.03065" x2="112.896" y2="55.579" gradientUnits="userSpaceOnUse">
<stop stop-color="#6ED5FF"/>
<stop offset="1" stop-color="#0392CC"/>
</linearGradient>
</defs>
</svg>
